G04*
G04 #@! TF.GenerationSoftware,Altium Limited,CircuitStudio,1.5.2 (30)*
G04*
G04 Layer_Physical_Order=4*
G04 Layer_Color=26367*
%FSLAX25Y25*%
%MOIN*%
G70*
G01*
G75*
%ADD10C,0.03937*%
%ADD48C,0.01181*%
%ADD49C,0.00787*%
%ADD52C,0.03150*%
%ADD53C,0.05906*%
G04:AMPARAMS|DCode=54|XSize=59.06mil|YSize=59.06mil|CornerRadius=14.76mil|HoleSize=0mil|Usage=FLASHONLY|Rotation=305.000|XOffset=0mil|YOffset=0mil|HoleType=Round|Shape=RoundedRectangle|*
%AMROUNDEDRECTD54*
21,1,0.05906,0.02953,0,0,305.0*
21,1,0.02953,0.05906,0,0,305.0*
1,1,0.02953,-0.00363,-0.02056*
1,1,0.02953,-0.02056,0.00363*
1,1,0.02953,0.00363,0.02056*
1,1,0.02953,0.02056,-0.00363*
%
%ADD54ROUNDEDRECTD54*%
%ADD55O,0.06693X0.03937*%
%ADD56C,0.04724*%
G04:AMPARAMS|DCode=57|XSize=47.24mil|YSize=47.24mil|CornerRadius=11.81mil|HoleSize=0mil|Usage=FLASHONLY|Rotation=90.000|XOffset=0mil|YOffset=0mil|HoleType=Round|Shape=RoundedRectangle|*
%AMROUNDEDRECTD57*
21,1,0.04724,0.02362,0,0,90.0*
21,1,0.02362,0.04724,0,0,90.0*
1,1,0.02362,0.01181,0.01181*
1,1,0.02362,0.01181,-0.01181*
1,1,0.02362,-0.01181,-0.01181*
1,1,0.02362,-0.01181,0.01181*
%
%ADD57ROUNDEDRECTD57*%
%ADD58C,0.06693*%
%ADD59O,0.09843X0.13780*%
G04:AMPARAMS|DCode=60|XSize=47.24mil|YSize=47.24mil|CornerRadius=11.81mil|HoleSize=0mil|Usage=FLASHONLY|Rotation=215.500|XOffset=0mil|YOffset=0mil|HoleType=Round|Shape=RoundedRectangle|*
%AMROUNDEDRECTD60*
21,1,0.04724,0.02362,0,0,215.5*
21,1,0.02362,0.04724,0,0,215.5*
1,1,0.02362,-0.01647,0.00276*
1,1,0.02362,0.00276,0.01647*
1,1,0.02362,0.01647,-0.00276*
1,1,0.02362,-0.00276,-0.01647*
%
%ADD60ROUNDEDRECTD60*%
%ADD61C,0.11811*%
G04:AMPARAMS|DCode=62|XSize=66.93mil|YSize=66.93mil|CornerRadius=16.73mil|HoleSize=0mil|Usage=FLASHONLY|Rotation=0.000|XOffset=0mil|YOffset=0mil|HoleType=Round|Shape=RoundedRectangle|*
%AMROUNDEDRECTD62*
21,1,0.06693,0.03347,0,0,0.0*
21,1,0.03347,0.06693,0,0,0.0*
1,1,0.03346,0.01673,-0.01673*
1,1,0.03346,-0.01673,-0.01673*
1,1,0.03346,-0.01673,0.01673*
1,1,0.03346,0.01673,0.01673*
%
%ADD62ROUNDEDRECTD62*%
%ADD63C,0.03150*%
%ADD64C,0.02756*%
%ADD65O,0.03098X0.02980*%
%ADD66R,0.12598X0.15748*%
%ADD67R,0.20079X0.15748*%
G36*
X-12753Y152108D02*
X-12570Y151791D01*
X-12613Y151575D01*
Y116271D01*
X-40849D01*
X-41109Y116471D01*
X-41780Y116748D01*
X-42499Y116843D01*
X-43219Y116748D01*
X-43889Y116471D01*
X-44465Y116029D01*
X-44906Y115453D01*
X-45184Y114783D01*
X-45279Y114063D01*
X-45184Y113344D01*
X-44906Y112674D01*
X-44707Y112414D01*
Y100541D01*
X-69277Y75971D01*
X-69756Y75255D01*
X-69924Y74410D01*
Y38583D01*
X-69756Y37738D01*
X-69277Y37022D01*
X-50239Y17984D01*
Y-5033D01*
X-50739Y-5184D01*
X-50942Y-4880D01*
X-51593Y-4445D01*
X-52361Y-4292D01*
X-52939Y-4407D01*
X-53185Y-3946D01*
X-51588Y-2348D01*
X-51109Y-1632D01*
X-50941Y-787D01*
Y15355D01*
X-51109Y16200D01*
X-51588Y16916D01*
X-71020Y36348D01*
Y75464D01*
X-50013Y96471D01*
X-49534Y97187D01*
X-49366Y98032D01*
Y117590D01*
X-47226Y119730D01*
X-44888D01*
X-44816Y119621D01*
X-44295Y119273D01*
X-43680Y119151D01*
X-41318D01*
X-40704Y119273D01*
X-40183Y119621D01*
X-39835Y120142D01*
X-39713Y120756D01*
Y123118D01*
X-39835Y123733D01*
X-40183Y124254D01*
X-40704Y124602D01*
X-41318Y124724D01*
X-43680D01*
X-44295Y124602D01*
X-44816Y124254D01*
X-44888Y124145D01*
X-48141D01*
X-48986Y123977D01*
X-49702Y123499D01*
X-53135Y120065D01*
X-53614Y119349D01*
X-53782Y118504D01*
Y98946D01*
X-74789Y77939D01*
X-75267Y77223D01*
X-75435Y76378D01*
Y35434D01*
X-75267Y34589D01*
X-74789Y33872D01*
X-55357Y14440D01*
Y6381D01*
X-55857Y6205D01*
X-65968Y16316D01*
X-66228Y16490D01*
X-66535Y16551D01*
X-74016Y16551D01*
X-74323Y16490D01*
X-74583Y16316D01*
X-74584Y16316D01*
X-87718Y3181D01*
X-87719Y3179D01*
X-87721Y3178D01*
X-87806Y3049D01*
X-87892Y2921D01*
X-87892Y2919D01*
X-87894Y2917D01*
X-87923Y2764D01*
X-87953Y2614D01*
X-87953Y2611D01*
X-87953Y2609D01*
X-87950Y2109D01*
X-87950Y2107D01*
X-87950Y2104D01*
X-87918Y1953D01*
X-87887Y1802D01*
X-87886Y1800D01*
X-87885Y1798D01*
X-87799Y1671D01*
X-87712Y1543D01*
X-87710Y1541D01*
X-87708Y1539D01*
X-70990Y-14799D01*
X-70985Y-15501D01*
X-89356Y-33872D01*
X-89834Y-34588D01*
X-90002Y-35433D01*
Y-54724D01*
X-89834Y-55569D01*
X-89356Y-56285D01*
X-64348Y-81293D01*
X-63631Y-81772D01*
X-62787Y-81940D01*
X-12612D01*
Y-151921D01*
X-12978Y-152262D01*
X-14981Y-152114D01*
X-22427Y-151196D01*
X-29819Y-149913D01*
X-37139Y-148269D01*
X-44369Y-146268D01*
X-51493Y-143915D01*
X-58492Y-141215D01*
X-65351Y-138175D01*
X-72052Y-134802D01*
X-78580Y-131104D01*
X-84918Y-127090D01*
X-91052Y-122770D01*
X-96966Y-118155D01*
X-102647Y-113254D01*
X-108081Y-108081D01*
X-113254Y-102648D01*
X-118154Y-96967D01*
X-122770Y-91053D01*
X-127090Y-84919D01*
X-131103Y-78580D01*
X-134801Y-72053D01*
X-138174Y-65352D01*
X-141215Y-58493D01*
X-143915Y-51493D01*
X-146268Y-44370D01*
X-148269Y-37139D01*
X-149710Y-30720D01*
X-149398Y-30330D01*
X-138148D01*
X-138148Y-30330D01*
X-137841Y-30269D01*
X-137580Y-30095D01*
X-137227Y-29741D01*
X-137053Y-29481D01*
X-136992Y-29174D01*
X-136992Y-23582D01*
X-137007Y-23504D01*
Y-23425D01*
X-137037Y-23352D01*
X-137053Y-23275D01*
X-137097Y-23209D01*
X-137127Y-23136D01*
X-137183Y-23080D01*
X-137227Y-23014D01*
X-137293Y-22970D01*
X-137348Y-22914D01*
X-137422Y-22884D01*
X-137487Y-22840D01*
X-137565Y-22825D01*
X-137638Y-22794D01*
X-137856Y-22751D01*
X-138241Y-22493D01*
X-138499Y-22108D01*
X-138589Y-21653D01*
X-138499Y-21198D01*
X-138241Y-20813D01*
X-137856Y-20555D01*
X-137638Y-20512D01*
X-137565Y-20482D01*
X-137487Y-20466D01*
X-137422Y-20422D01*
X-137348Y-20392D01*
X-137293Y-20336D01*
X-137227Y-20292D01*
X-137183Y-20226D01*
X-137127Y-20170D01*
X-137097Y-20097D01*
X-137053Y-20032D01*
X-137037Y-19954D01*
X-137007Y-19881D01*
Y-19802D01*
X-136992Y-19724D01*
Y-18749D01*
X-136997Y-18723D01*
X-136993Y-18696D01*
X-137027Y-18570D01*
X-137053Y-18442D01*
X-137068Y-18419D01*
X-137074Y-18394D01*
X-137154Y-18290D01*
X-137227Y-18181D01*
X-137249Y-18166D01*
X-137265Y-18145D01*
X-137378Y-18080D01*
X-137487Y-18007D01*
X-137513Y-18002D01*
X-137536Y-17989D01*
X-138036Y-17819D01*
X-137969Y-17324D01*
X-137906Y-17007D01*
X-137969Y-16690D01*
X-138036Y-16196D01*
X-137536Y-16026D01*
X-137513Y-16013D01*
X-137487Y-16008D01*
X-137378Y-15935D01*
X-137265Y-15870D01*
X-137249Y-15849D01*
X-137227Y-15834D01*
X-137154Y-15725D01*
X-137074Y-15621D01*
X-137068Y-15596D01*
X-137053Y-15573D01*
X-137027Y-15445D01*
X-136993Y-15319D01*
X-136997Y-15292D01*
X-136992Y-15266D01*
X-136992Y15267D01*
X-136997Y15293D01*
X-136993Y15319D01*
X-137027Y15446D01*
X-137053Y15574D01*
X-137068Y15596D01*
X-137074Y15622D01*
X-137154Y15726D01*
X-137227Y15835D01*
X-137249Y15849D01*
X-137265Y15870D01*
X-137379Y15936D01*
X-137487Y16009D01*
X-137513Y16014D01*
X-137537Y16027D01*
X-138037Y16197D01*
X-137969Y16691D01*
X-137906Y17008D01*
X-137969Y17325D01*
X-138037Y17820D01*
X-137537Y17989D01*
X-137513Y18003D01*
X-137487Y18008D01*
X-137379Y18081D01*
X-137265Y18146D01*
X-137249Y18167D01*
X-137227Y18182D01*
X-137154Y18291D01*
X-137074Y18395D01*
X-137068Y18420D01*
X-137053Y18442D01*
X-137027Y18571D01*
X-136993Y18697D01*
X-136997Y18724D01*
X-136992Y18750D01*
Y21654D01*
X-137053Y21961D01*
X-137227Y22222D01*
X-137487Y22396D01*
X-137795Y22457D01*
X-151304D01*
X-151495Y22919D01*
X-151030Y23384D01*
X-150834Y23677D01*
X-150766Y24022D01*
X-150834Y24368D01*
X-150854Y24397D01*
X-149913Y29820D01*
X-148269Y37140D01*
X-146268Y44370D01*
X-143915Y51494D01*
X-143397Y52835D01*
X-142936Y52882D01*
X-142877Y52865D01*
X-142943Y52403D01*
X-142951Y52363D01*
X-142798Y51595D01*
X-142363Y50943D01*
X-142168Y50813D01*
Y50212D01*
X-142505Y49987D01*
X-142984Y49270D01*
X-143152Y48426D01*
X-142984Y47581D01*
X-142505Y46865D01*
X-124789Y29148D01*
X-124072Y28669D01*
X-123228Y28501D01*
X-101672D01*
X-100828Y28669D01*
X-100111Y29148D01*
X-98396Y30863D01*
X-91465D01*
X-78726Y18124D01*
X-78009Y17646D01*
X-77165Y17478D01*
X-66535D01*
X-65690Y17646D01*
X-64973Y18124D01*
X-64495Y18841D01*
X-64327Y19685D01*
X-64495Y20530D01*
X-64973Y21247D01*
X-65690Y21725D01*
X-66535Y21893D01*
X-76250D01*
X-88989Y34632D01*
X-89705Y35111D01*
X-90550Y35279D01*
X-99310D01*
X-100155Y35111D01*
X-100325Y34997D01*
X-100775Y35298D01*
X-100748Y35434D01*
X-100901Y36202D01*
X-101336Y36853D01*
X-101987Y37288D01*
X-102732Y37436D01*
Y77061D01*
X-101863Y77930D01*
X-100381D01*
X-100237Y77715D01*
X-99586Y77280D01*
X-98818Y77127D01*
X-98050Y77280D01*
X-97399Y77715D01*
X-96964Y78366D01*
X-96811Y79134D01*
X-96964Y79902D01*
X-97399Y80554D01*
X-98050Y80989D01*
X-98818Y81141D01*
X-99586Y80989D01*
X-100237Y80554D01*
X-100381Y80339D01*
X-102361D01*
X-102361Y80339D01*
X-102822Y80247D01*
X-103213Y79986D01*
X-103213Y79986D01*
X-104788Y78411D01*
X-105049Y78020D01*
X-105140Y77560D01*
X-105140Y77559D01*
Y36615D01*
X-105140Y36615D01*
X-105049Y36154D01*
X-104788Y35763D01*
X-104712Y35687D01*
X-104762Y35434D01*
X-104609Y34665D01*
X-104174Y34014D01*
X-103523Y33579D01*
X-103260Y33527D01*
X-103189Y33467D01*
X-103027Y32971D01*
X-103075Y32917D01*
X-122313D01*
X-139383Y49987D01*
X-139720Y50212D01*
Y50813D01*
X-139525Y50943D01*
X-139090Y51595D01*
X-138937Y52363D01*
X-139090Y53131D01*
X-139525Y53782D01*
X-140176Y54217D01*
X-140944Y54370D01*
X-141712Y54217D01*
X-142363Y53782D01*
X-142417Y53702D01*
X-142684Y53315D01*
X-142750Y53348D01*
X-143071Y53680D01*
X-141215Y58494D01*
X-138174Y65352D01*
X-134801Y72054D01*
X-131103Y78581D01*
X-127090Y84920D01*
X-122770Y91053D01*
X-118154Y96968D01*
X-113254Y102648D01*
X-108081Y108082D01*
X-102647Y113255D01*
X-96966Y118155D01*
X-91052Y122771D01*
X-84918Y127091D01*
X-78580Y131105D01*
X-72052Y134802D01*
X-65351Y138175D01*
X-58492Y141216D01*
X-51493Y143916D01*
X-44369Y146269D01*
X-37139Y148270D01*
X-29819Y149914D01*
X-22427Y151196D01*
X-14981Y152115D01*
X-12895Y152269D01*
X-12753Y152108D01*
D02*
G37*
G36*
X11812Y95470D02*
X11773Y95276D01*
X11812Y95082D01*
Y69292D01*
X10631D01*
Y74008D01*
X1D01*
X-10628D01*
Y69292D01*
X-11810D01*
Y151575D01*
X11812D01*
Y95470D01*
D02*
G37*
G36*
X-137795Y18750D02*
X-138295Y18580D01*
X-138489Y18833D01*
X-139024Y19244D01*
X-139646Y19501D01*
X-140314Y19589D01*
X-140905D01*
Y17008D01*
Y14427D01*
X-140314D01*
X-139646Y14515D01*
X-139024Y14773D01*
X-138489Y15183D01*
X-138295Y15437D01*
X-137794Y15267D01*
X-137794Y-15266D01*
X-138294Y-15436D01*
X-138489Y-15182D01*
X-139024Y-14772D01*
X-139646Y-14514D01*
X-140314Y-14426D01*
X-140905D01*
Y-17007D01*
Y-19589D01*
X-140314D01*
X-139646Y-19501D01*
X-139024Y-19243D01*
X-138489Y-18833D01*
X-138294Y-18579D01*
X-137794Y-18749D01*
Y-19724D01*
X-138169Y-19799D01*
X-138820Y-20234D01*
X-139255Y-20885D01*
X-139408Y-21653D01*
X-139255Y-22421D01*
X-138820Y-23072D01*
X-138169Y-23507D01*
X-137794Y-23582D01*
X-137794Y-29174D01*
X-138148Y-29527D01*
X-149963D01*
X-150854Y-24396D01*
X-150834Y-24367D01*
X-150766Y-24022D01*
X-150834Y-23676D01*
X-151030Y-23383D01*
X-153399Y-21014D01*
X-153691Y-20819D01*
X-154037Y-20750D01*
X-160513D01*
Y-18797D01*
X-160013Y-18627D01*
X-159856Y-18833D01*
X-159321Y-19243D01*
X-158699Y-19501D01*
X-158031Y-19589D01*
X-157440D01*
Y-17007D01*
Y-14426D01*
X-158031D01*
X-158699Y-14514D01*
X-159321Y-14772D01*
X-159856Y-15182D01*
X-160013Y-15388D01*
X-160513Y-15218D01*
Y15219D01*
X-160013Y15388D01*
X-159856Y15183D01*
X-159321Y14773D01*
X-158699Y14515D01*
X-158031Y14427D01*
X-157440D01*
Y17008D01*
Y19589D01*
X-158031D01*
X-158699Y19501D01*
X-159321Y19244D01*
X-159856Y18833D01*
X-160013Y18628D01*
X-160513Y18798D01*
Y20751D01*
X-154037D01*
X-153691Y20820D01*
X-153399Y21015D01*
X-152760Y21654D01*
X-137795D01*
Y18750D01*
D02*
G37*
G36*
X11813Y-152348D02*
X8741Y-152574D01*
X-8739Y-152574D01*
X-11809Y-152348D01*
Y-70291D01*
X-10628D01*
Y-75007D01*
X1D01*
X10631D01*
Y-70291D01*
X11813D01*
Y-152348D01*
D02*
G37*
G36*
X-56299Y5512D02*
X-55905Y5117D01*
Y-46D01*
Y-352D01*
X-70079Y-14567D01*
X-87147Y2114D01*
X-87150Y2614D01*
X-74016Y15748D01*
X-66535Y15748D01*
X-56299Y5512D01*
D02*
G37*
G36*
X14983Y152115D02*
X22429Y151196D01*
X29820Y149914D01*
X37140Y148270D01*
X44371Y146269D01*
X51494Y143916D01*
X58494Y141216D01*
X65353Y138175D01*
X72054Y134802D01*
X78582Y131105D01*
X84920Y127091D01*
X91054Y122771D01*
X96968Y118155D01*
X102649Y113255D01*
X108082Y108082D01*
X113255Y102648D01*
X118156Y96968D01*
X122771Y91053D01*
X127091Y84920D01*
X131105Y78581D01*
X134803Y72054D01*
X138176Y65352D01*
X141216Y58494D01*
X143916Y51494D01*
X146270Y44370D01*
X148270Y37140D01*
X149914Y29820D01*
X151197Y22428D01*
X152115Y14982D01*
X152667Y7500D01*
X152851Y0D01*
X152667Y-7500D01*
X152115Y-14982D01*
X151197Y-22427D01*
X149914Y-29819D01*
X148270Y-37139D01*
X146270Y-44370D01*
X143916Y-51493D01*
X141216Y-58493D01*
X138176Y-65352D01*
X134803Y-72053D01*
X131105Y-78580D01*
X127091Y-84919D01*
X122771Y-91053D01*
X118156Y-96967D01*
X113255Y-102648D01*
X108082Y-108081D01*
X102649Y-113254D01*
X96968Y-118155D01*
X91054Y-122770D01*
X84920Y-127090D01*
X78582Y-131104D01*
X72054Y-134802D01*
X65353Y-138175D01*
X58494Y-141215D01*
X51494Y-143915D01*
X44371Y-146268D01*
X37140Y-148269D01*
X29820Y-149913D01*
X22429Y-151196D01*
X14983Y-152114D01*
X12982Y-152261D01*
X12616Y-151921D01*
Y-70291D01*
X12555Y-69984D01*
X12381Y-69723D01*
X12120Y-69549D01*
X11813Y-69488D01*
X10631D01*
X10435Y-69327D01*
Y-67527D01*
X-6289D01*
X-6441Y-67027D01*
X-6060Y-66773D01*
X-5625Y-66122D01*
X-5472Y-65354D01*
X-5625Y-64586D01*
X-6060Y-63935D01*
X-6712Y-63500D01*
X-7480Y-63347D01*
X-8248Y-63500D01*
X-8899Y-63935D01*
X-9042Y-64150D01*
X-13280D01*
X-18121Y-59308D01*
X-18071Y-59055D01*
X-18120Y-58808D01*
X-17659Y-58562D01*
X-14882Y-61339D01*
X-14664Y-61484D01*
X-14557Y-61557D01*
X-14173Y-61633D01*
X-12457D01*
X-12442Y-61655D01*
X-11791Y-62090D01*
X-11023Y-62243D01*
X-10255Y-62090D01*
X-9604Y-61655D01*
X-9169Y-61004D01*
X-9016Y-60236D01*
X-9169Y-59468D01*
X-9604Y-58817D01*
X-10255Y-58381D01*
X-11023Y-58229D01*
X-11791Y-58381D01*
X-12442Y-58817D01*
X-12877Y-59468D01*
X-12909Y-59626D01*
X-13757D01*
X-19035Y-54347D01*
X-19011Y-54311D01*
X-18882Y-53664D01*
X-18485Y-53520D01*
X-18381Y-53513D01*
X-18103Y-53930D01*
X-17452Y-54365D01*
X-16684Y-54518D01*
X-15916Y-54365D01*
X-15265Y-53930D01*
X-14829Y-53279D01*
X-14677Y-52511D01*
X-14829Y-51743D01*
X-15265Y-51092D01*
X-15916Y-50656D01*
X-16684Y-50504D01*
X-17452Y-50656D01*
X-18103Y-51092D01*
X-18538Y-51743D01*
X-18667Y-52390D01*
X-19064Y-52534D01*
X-19168Y-52540D01*
X-19446Y-52124D01*
X-20097Y-51689D01*
X-20865Y-51536D01*
X-21633Y-51689D01*
X-22285Y-52124D01*
X-22720Y-52775D01*
X-22872Y-53543D01*
X-22720Y-54311D01*
X-22285Y-54962D01*
X-21633Y-55397D01*
X-20865Y-55550D01*
X-20703Y-55518D01*
X-19585Y-56636D01*
X-19832Y-57097D01*
X-20078Y-57048D01*
X-20846Y-57200D01*
X-21497Y-57635D01*
X-21932Y-58287D01*
X-22085Y-59055D01*
X-21932Y-59823D01*
X-21497Y-60474D01*
X-20846Y-60909D01*
X-20078Y-61062D01*
X-19824Y-61011D01*
X-14630Y-66205D01*
X-14630Y-66205D01*
X-14396Y-66362D01*
X-14240Y-66466D01*
X-13779Y-66558D01*
X-9042D01*
X-8899Y-66773D01*
X-8519Y-67027D01*
X-8670Y-67527D01*
X-10432D01*
Y-69327D01*
X-10628Y-69488D01*
X-11809D01*
X-12116Y-69549D01*
X-12377Y-69723D01*
X-12551Y-69984D01*
X-12612Y-70291D01*
Y-77524D01*
X-61872D01*
X-85587Y-53809D01*
Y-36347D01*
X-83597Y-34358D01*
X-83055Y-34522D01*
X-82956Y-35020D01*
X-82521Y-35671D01*
X-81870Y-36106D01*
X-81102Y-36259D01*
X-80921Y-36223D01*
X-80594Y-36633D01*
X-80747Y-37401D01*
X-80594Y-38169D01*
X-80159Y-38820D01*
X-79507Y-39255D01*
X-78739Y-39408D01*
X-77971Y-39255D01*
X-77586Y-38998D01*
X-77586Y-38998D01*
X-77469Y-38920D01*
X-77467Y-38922D01*
X-77455Y-38933D01*
X-77435Y-38953D01*
X-77142Y-39246D01*
X-77122Y-39267D01*
X-77110Y-39278D01*
X-77108Y-39280D01*
X-77187Y-39397D01*
D01*
X-77444Y-39783D01*
X-77597Y-40551D01*
X-77444Y-41319D01*
X-77009Y-41970D01*
X-76358Y-42405D01*
X-75590Y-42558D01*
X-74822Y-42405D01*
X-74171Y-41970D01*
X-73735Y-41319D01*
X-73583Y-40551D01*
X-73735Y-39783D01*
X-74171Y-39132D01*
X-74822Y-38697D01*
X-75590Y-38544D01*
X-76358Y-38697D01*
X-76743Y-38954D01*
X-76743Y-38954D01*
X-76860Y-39032D01*
X-76862Y-39030D01*
X-76874Y-39019D01*
X-76894Y-38999D01*
X-77187Y-38706D01*
X-77207Y-38685D01*
X-77219Y-38674D01*
X-77221Y-38672D01*
X-77143Y-38555D01*
D01*
X-76885Y-38169D01*
X-76732Y-37401D01*
X-76848Y-36819D01*
X-59636Y-19608D01*
X-59054Y-19723D01*
X-58286Y-19570D01*
X-57635Y-19135D01*
X-57200Y-18484D01*
X-57047Y-17716D01*
X-57200Y-16948D01*
X-57635Y-16297D01*
X-58286Y-15862D01*
X-59054Y-15709D01*
X-59438Y-15785D01*
X-59684Y-15325D01*
X-52615Y-8255D01*
X-52361Y-8306D01*
X-51593Y-8153D01*
X-50942Y-7718D01*
X-50739Y-7413D01*
X-50239Y-7565D01*
Y-9408D01*
X-50279Y-9468D01*
X-50432Y-10236D01*
X-50279Y-11004D01*
X-50115Y-11248D01*
X-50070Y-11474D01*
X-49592Y-12191D01*
X-48475Y-13308D01*
X-52032Y-16865D01*
X-52293Y-17255D01*
X-52385Y-17716D01*
X-52385Y-17716D01*
Y-38582D01*
X-52385Y-38582D01*
X-52293Y-39043D01*
X-52032Y-39434D01*
X-44552Y-46914D01*
X-44552Y-46914D01*
X-44161Y-47175D01*
X-43700Y-47267D01*
X-43700Y-47267D01*
X1471D01*
X5883Y-51679D01*
Y-63397D01*
X5668Y-63541D01*
X5233Y-64192D01*
X5080Y-64960D01*
X5233Y-65728D01*
X5668Y-66379D01*
X6319Y-66815D01*
X7087Y-66967D01*
X7856Y-66815D01*
X8507Y-66379D01*
X8942Y-65728D01*
X9094Y-64960D01*
X8942Y-64192D01*
X8507Y-63541D01*
X8292Y-63397D01*
Y-51181D01*
X8200Y-50720D01*
X7939Y-50329D01*
X2821Y-45211D01*
X2430Y-44950D01*
X1969Y-44858D01*
X1969Y-44858D01*
X-43201D01*
X-49976Y-38083D01*
Y-18215D01*
X-46759Y-14998D01*
X-46120Y-15425D01*
X-45275Y-15593D01*
X-44430Y-15425D01*
X-43714Y-14947D01*
X-43235Y-14230D01*
X-43067Y-13385D01*
X-43235Y-12541D01*
X-43714Y-11824D01*
X-45823Y-9715D01*
Y18898D01*
X-45991Y19743D01*
X-46470Y20459D01*
X-65508Y39498D01*
Y73495D01*
X-40938Y98065D01*
X-40459Y98782D01*
X-40291Y99626D01*
Y111856D01*
X-12613D01*
Y69292D01*
X-12552Y68985D01*
X-12378Y68724D01*
X-12117Y68550D01*
X-11810Y68489D01*
X-10628D01*
X-10432Y68327D01*
Y66528D01*
X10435D01*
Y68327D01*
X10631Y68489D01*
X11812D01*
X12076Y68542D01*
X12145Y68533D01*
X12576Y68254D01*
Y44594D01*
X2490Y34508D01*
X2227Y34583D01*
X1994Y34718D01*
X1855Y35414D01*
X1420Y36065D01*
X769Y36500D01*
X1Y36653D01*
X-767Y36500D01*
X-1418Y36065D01*
X-1853Y35414D01*
X-2006Y34646D01*
X-1853Y33878D01*
X-1418Y33227D01*
X-767Y32792D01*
X-71Y32653D01*
X64Y32419D01*
X139Y32157D01*
X-25654Y6364D01*
X-25915Y5973D01*
X-26007Y5512D01*
X-26004Y5502D01*
X-26222Y5357D01*
X-26657Y4705D01*
X-26809Y3937D01*
X-26657Y3169D01*
X-26222Y2518D01*
X-26182Y2492D01*
X-26334Y1992D01*
X-34228D01*
X-38044Y5808D01*
X-37994Y6062D01*
X-38146Y6830D01*
X-38582Y7481D01*
X-39233Y7916D01*
X-40001Y8069D01*
X-40769Y7916D01*
X-41420Y7481D01*
X-41855Y6830D01*
X-41915Y6531D01*
X-42457Y6366D01*
X-42889Y6798D01*
Y21260D01*
X-42889Y21260D01*
X-42981Y21721D01*
X-43242Y22112D01*
X-43242Y22112D01*
X-59673Y38543D01*
Y39612D01*
X-58991Y39895D01*
X-58210Y40494D01*
X-57610Y41276D01*
X-57233Y42185D01*
X-57105Y43162D01*
X-57233Y44138D01*
X-57610Y45048D01*
X-58210Y45829D01*
X-58991Y46429D01*
X-59901Y46806D01*
X-60877Y46934D01*
X-61853Y46806D01*
X-62763Y46429D01*
X-63545Y45829D01*
X-64144Y45048D01*
X-64521Y44138D01*
X-64650Y43162D01*
X-64521Y42185D01*
X-64144Y41276D01*
X-63545Y40494D01*
X-62763Y39895D01*
X-62081Y39612D01*
Y38044D01*
X-62081Y38044D01*
X-61990Y37583D01*
X-61729Y37192D01*
X-45298Y20761D01*
Y6300D01*
X-45298Y6300D01*
X-45206Y5839D01*
X-44945Y5448D01*
X-37071Y-2426D01*
X-36680Y-2687D01*
X-36220Y-2779D01*
X-20822D01*
X-20671Y-3279D01*
X-20710Y-3305D01*
X-21145Y-3956D01*
X-21298Y-4724D01*
X-21145Y-5492D01*
X-20710Y-6143D01*
X-20495Y-6287D01*
Y-10629D01*
X-20495Y-10629D01*
X-20403Y-11090D01*
X-20142Y-11481D01*
X-3798Y-27825D01*
X-3873Y-28088D01*
X-4008Y-28322D01*
X-4704Y-28460D01*
X-5355Y-28895D01*
X-5499Y-29110D01*
X-16823D01*
X-22846Y-23088D01*
X-22795Y-22834D01*
X-22948Y-22066D01*
X-23383Y-21415D01*
X-24034Y-20980D01*
X-24802Y-20827D01*
X-25570Y-20980D01*
X-26222Y-21415D01*
X-26657Y-22066D01*
X-26809Y-22834D01*
X-26657Y-23602D01*
X-26222Y-24253D01*
X-25570Y-24689D01*
X-24802Y-24841D01*
X-24549Y-24791D01*
X-18174Y-31166D01*
X-18174Y-31166D01*
X-17783Y-31427D01*
X-17322Y-31519D01*
X-17322Y-31519D01*
X-5499D01*
X-5355Y-31734D01*
X-4704Y-32169D01*
X-3936Y-32322D01*
X-3168Y-32169D01*
X-2517Y-31734D01*
X-2082Y-31083D01*
X-1943Y-30387D01*
X-1710Y-30252D01*
X-1447Y-30176D01*
X105Y-31728D01*
X-279Y-32302D01*
X-432Y-33070D01*
X-279Y-33838D01*
X156Y-34490D01*
X807Y-34925D01*
X1576Y-35078D01*
X2344Y-34925D01*
X2995Y-34490D01*
X3430Y-33838D01*
X3583Y-33070D01*
X3430Y-32302D01*
X2995Y-31651D01*
X2780Y-31508D01*
Y-31496D01*
X2780Y-31496D01*
X2688Y-31035D01*
X2427Y-30644D01*
X2427Y-30644D01*
X-14409Y-13808D01*
X-14162Y-13348D01*
X-13779Y-13424D01*
X-13011Y-13271D01*
X-12359Y-12836D01*
X-12216Y-12621D01*
X-2466D01*
X5096Y-20183D01*
Y-37007D01*
X5096Y-37007D01*
X5187Y-37468D01*
X5449Y-37859D01*
X13757Y-46168D01*
Y-81496D01*
X13757Y-81496D01*
X13849Y-81956D01*
X14110Y-82347D01*
X16472Y-84709D01*
X16472Y-84709D01*
X16863Y-84970D01*
X17324Y-85062D01*
X17324Y-85062D01*
X22060D01*
X22204Y-85277D01*
X22855Y-85712D01*
X23623Y-85865D01*
X24391Y-85712D01*
X25042Y-85277D01*
X25477Y-84626D01*
X25630Y-83858D01*
X25477Y-83090D01*
X25042Y-82439D01*
X24391Y-82004D01*
X23623Y-81851D01*
X22855Y-82004D01*
X22204Y-82439D01*
X22060Y-82654D01*
X17822D01*
X16166Y-80997D01*
Y-58903D01*
X16220Y-58881D01*
X16666Y-58819D01*
X16866Y-59119D01*
X18651Y-60904D01*
X18651Y-60904D01*
X19042Y-61165D01*
X19502Y-61257D01*
X21963D01*
X22107Y-61472D01*
X22758Y-61907D01*
X23526Y-62059D01*
X24294Y-61907D01*
X24945Y-61472D01*
X25380Y-60821D01*
X25533Y-60052D01*
X25380Y-59284D01*
X24945Y-58633D01*
X24294Y-58198D01*
X23526Y-58045D01*
X22758Y-58198D01*
X22107Y-58633D01*
X21963Y-58848D01*
X20001D01*
X18922Y-57768D01*
Y-43700D01*
X18922Y-43700D01*
X18830Y-43240D01*
X18569Y-42849D01*
X18569Y-42849D01*
X13644Y-37924D01*
X13851Y-37424D01*
X46746D01*
X49618Y-40297D01*
X49568Y-40551D01*
X49720Y-41319D01*
X50156Y-41970D01*
X50807Y-42406D01*
X51575Y-42558D01*
X51829Y-42508D01*
X79360Y-70038D01*
Y-94730D01*
X78678Y-95012D01*
X77896Y-95612D01*
X77297Y-96393D01*
X76920Y-97303D01*
X76791Y-98279D01*
X76920Y-99256D01*
X77297Y-100165D01*
X77896Y-100947D01*
X78678Y-101546D01*
X79587Y-101923D01*
X80564Y-102051D01*
X81540Y-101923D01*
X82450Y-101546D01*
X83231Y-100947D01*
X83831Y-100165D01*
X84208Y-99256D01*
X84336Y-98279D01*
X84208Y-97303D01*
X83831Y-96393D01*
X83231Y-95612D01*
X82450Y-95012D01*
X81768Y-94730D01*
Y-69539D01*
X81768Y-69539D01*
X81676Y-69078D01*
X81415Y-68687D01*
X53532Y-40804D01*
X53582Y-40551D01*
X53429Y-39783D01*
X52994Y-39132D01*
X52343Y-38697D01*
X51575Y-38544D01*
X51322Y-38594D01*
X48096Y-35368D01*
X47706Y-35107D01*
X47548Y-35076D01*
Y-34566D01*
X47609Y-34554D01*
X48384Y-34036D01*
X48902Y-33261D01*
X49084Y-32346D01*
X48902Y-31431D01*
X48384Y-30656D01*
X47609Y-30138D01*
X46694Y-29956D01*
X45779Y-30138D01*
X45003Y-30656D01*
X44485Y-31431D01*
X44303Y-32346D01*
X44485Y-33261D01*
X45003Y-34036D01*
X45322Y-34249D01*
X45424Y-34919D01*
X45345Y-35016D01*
X13885D01*
X12622Y-33753D01*
Y-33236D01*
X13085Y-33067D01*
X13122Y-33074D01*
X13542Y-33702D01*
X14193Y-34137D01*
X14961Y-34290D01*
X15730Y-34137D01*
X16381Y-33702D01*
X16816Y-33051D01*
X16969Y-32283D01*
X16816Y-31515D01*
X16381Y-30864D01*
X16166Y-30720D01*
Y-12598D01*
X16166Y-12598D01*
X16074Y-12137D01*
X15813Y-11746D01*
X9438Y-5371D01*
X9488Y-5118D01*
X9335Y-4350D01*
X9146Y-4066D01*
X9413Y-3566D01*
X23635D01*
X23778Y-3781D01*
X24430Y-4216D01*
X25198Y-4369D01*
X25966Y-4216D01*
X26617Y-3781D01*
X27052Y-3130D01*
X27205Y-2362D01*
X27052Y-1594D01*
X26617Y-943D01*
X26201Y-665D01*
Y27269D01*
X26617Y27547D01*
X27052Y28198D01*
X27205Y28966D01*
X27052Y29734D01*
X26617Y30385D01*
X25966Y30820D01*
X25198Y30973D01*
X24430Y30820D01*
X23778Y30385D01*
X23343Y29734D01*
X23191Y28966D01*
X23343Y28198D01*
X23778Y27547D01*
X24194Y27269D01*
Y-665D01*
X23778Y-943D01*
X23635Y-1158D01*
X893D01*
X-798Y534D01*
X-748Y788D01*
X-901Y1556D01*
X-1336Y2207D01*
X-1987Y2642D01*
X-2755Y2795D01*
X-3523Y2642D01*
X-4174Y2207D01*
X-4609Y1556D01*
X-4762Y788D01*
X-4609Y20D01*
X-4174Y-631D01*
X-3523Y-1067D01*
X-2755Y-1219D01*
X-2502Y-1169D01*
X-457Y-3213D01*
X-457Y-3213D01*
X-66Y-3474D01*
X395Y-3566D01*
X395Y-3566D01*
X5549D01*
X5816Y-4066D01*
X5627Y-4350D01*
X5474Y-5118D01*
X5627Y-5886D01*
X5816Y-6169D01*
X5549Y-6669D01*
X-9343D01*
X-15096Y-916D01*
X-14889Y-416D01*
X-11417D01*
X-11417Y-416D01*
X-10956Y-325D01*
X-10565Y-64D01*
X-2615Y7886D01*
X-2361Y7836D01*
X-1593Y7989D01*
X-942Y8424D01*
X-507Y9075D01*
X-354Y9843D01*
X-507Y10611D01*
X-942Y11262D01*
X-1593Y11697D01*
X-2361Y11850D01*
X-3130Y11697D01*
X-3781Y11262D01*
X-4216Y10611D01*
X-4369Y9843D01*
X-4318Y9589D01*
X-11915Y1992D01*
X-23271D01*
X-23422Y2492D01*
X-23383Y2518D01*
X-22948Y3169D01*
X-22795Y3937D01*
X-22948Y4705D01*
X-23332Y5280D01*
X14632Y43243D01*
X14893Y43634D01*
X14985Y44095D01*
X14985Y44095D01*
Y93713D01*
X15200Y93857D01*
X15635Y94508D01*
X15787Y95276D01*
X15635Y96044D01*
X15200Y96695D01*
X14548Y97130D01*
X13780Y97283D01*
X13115Y97151D01*
X12615Y97420D01*
Y151575D01*
X12572Y151791D01*
X12754Y152108D01*
X12897Y152269D01*
X14983Y152115D01*
D02*
G37*
%LPC*%
G36*
X-134645Y37047D02*
X-135413Y36894D01*
X-136064Y36459D01*
X-136499Y35808D01*
X-136652Y35040D01*
X-136499Y34272D01*
X-136064Y33621D01*
X-135413Y33185D01*
X-134645Y33033D01*
X-134391Y33083D01*
X-133093Y31785D01*
Y-30721D01*
X-137634Y-35262D01*
X-137972Y-35195D01*
X-141318D01*
X-142125Y-35356D01*
X-142808Y-35813D01*
X-143265Y-36496D01*
X-143426Y-37303D01*
Y-40649D01*
X-143265Y-41456D01*
X-142808Y-42139D01*
X-142125Y-42596D01*
X-141318Y-42757D01*
X-137972D01*
X-137165Y-42596D01*
X-136481Y-42139D01*
X-136025Y-41456D01*
X-135864Y-40649D01*
Y-37303D01*
X-135931Y-36966D01*
X-131037Y-32072D01*
X-131037Y-32072D01*
X-130776Y-31681D01*
X-130685Y-31220D01*
Y32284D01*
X-130685Y32284D01*
X-130776Y32745D01*
X-131037Y33135D01*
X-131037Y33135D01*
X-132688Y34786D01*
X-132638Y35040D01*
X-132791Y35808D01*
X-133226Y36459D01*
X-133877Y36894D01*
X-134645Y37047D01*
D02*
G37*
G36*
X61753Y-28925D02*
X61635D01*
X60900Y-29072D01*
X60276Y-29488D01*
X59860Y-30111D01*
X59714Y-30846D01*
X59860Y-31581D01*
X60039Y-31849D01*
X59545Y-32342D01*
X59055Y-32245D01*
X58628Y-32330D01*
X58328Y-31880D01*
X58527Y-31581D01*
X58674Y-30846D01*
X58527Y-30111D01*
X58111Y-29488D01*
X57488Y-29072D01*
X56753Y-28925D01*
X56635D01*
X55900Y-29072D01*
X55276Y-29488D01*
X54860Y-30111D01*
X54714Y-30846D01*
X54860Y-31581D01*
X54992Y-31778D01*
X54427Y-32342D01*
X53937Y-32245D01*
X53920Y-32248D01*
X53619Y-31798D01*
X53713Y-31658D01*
X53718Y-31633D01*
X51694D01*
X49670D01*
X49675Y-31658D01*
X50134Y-32346D01*
X50823Y-32806D01*
X51635Y-32967D01*
X51753D01*
X51838Y-32951D01*
X52138Y-33401D01*
X52083Y-33484D01*
X51930Y-34252D01*
X52083Y-35020D01*
X52518Y-35671D01*
X53169Y-36106D01*
X53937Y-36259D01*
X54705Y-36106D01*
X55356Y-35671D01*
X55791Y-35020D01*
X55944Y-34252D01*
X55847Y-33762D01*
X56700Y-32908D01*
X56978Y-32918D01*
X57238Y-33428D01*
X57201Y-33484D01*
X57048Y-34252D01*
X57201Y-35020D01*
X57636Y-35671D01*
X58287Y-36106D01*
X59055Y-36259D01*
X59823Y-36106D01*
X60474Y-35671D01*
X60909Y-35020D01*
X61062Y-34252D01*
X60965Y-33762D01*
X62011Y-32715D01*
X62488Y-32621D01*
X63111Y-32204D01*
X63527Y-31581D01*
X63674Y-30846D01*
X63527Y-30111D01*
X63111Y-29488D01*
X62488Y-29072D01*
X61753Y-28925D01*
D02*
G37*
G36*
X50906Y-28870D02*
X50823Y-28886D01*
X50134Y-29346D01*
X49675Y-30034D01*
X49670Y-30059D01*
X50906D01*
Y-28870D01*
D02*
G37*
G36*
X66694Y-25956D02*
X65779Y-26138D01*
X65003Y-26656D01*
X64485Y-27431D01*
X64303Y-28346D01*
X64485Y-29261D01*
X65003Y-30036D01*
X65779Y-30555D01*
X66694Y-30737D01*
X67608Y-30555D01*
X68384Y-30036D01*
X68902Y-29261D01*
X69084Y-28346D01*
X68902Y-27431D01*
X68384Y-26656D01*
X67608Y-26138D01*
X66694Y-25956D01*
D02*
G37*
G36*
X-41732Y-25552D02*
X-42500Y-25704D01*
X-43151Y-26139D01*
X-43586Y-26791D01*
X-43739Y-27559D01*
X-43586Y-28327D01*
X-43151Y-28978D01*
X-42936Y-29122D01*
Y-33870D01*
X-43151Y-34014D01*
X-43586Y-34665D01*
X-43739Y-35433D01*
X-43586Y-36201D01*
X-43151Y-36852D01*
X-42500Y-37287D01*
X-41732Y-37440D01*
X-40963Y-37287D01*
X-40312Y-36852D01*
X-39877Y-36201D01*
X-39724Y-35433D01*
X-39877Y-34665D01*
X-40312Y-34014D01*
X-40527Y-33870D01*
Y-29122D01*
X-40312Y-28978D01*
X-39877Y-28327D01*
X-39724Y-27559D01*
X-39877Y-26791D01*
X-40312Y-26139D01*
X-40963Y-25704D01*
X-41732Y-25552D01*
D02*
G37*
G36*
X69934Y-37325D02*
X69693Y-37357D01*
X68736Y-37754D01*
X67913Y-38385D01*
X67282Y-39207D01*
X66886Y-40165D01*
X66854Y-40405D01*
X69934D01*
Y-37325D01*
D02*
G37*
G36*
X-125778Y-39763D02*
X-128858D01*
Y-42843D01*
X-128617Y-42812D01*
X-127659Y-42415D01*
X-126837Y-41784D01*
X-126206Y-40962D01*
X-125809Y-40004D01*
X-125778Y-39763D01*
D02*
G37*
G36*
X-130432D02*
X-133512D01*
X-133481Y-40004D01*
X-133084Y-40962D01*
X-132453Y-41784D01*
X-131630Y-42415D01*
X-130673Y-42812D01*
X-130432Y-42843D01*
Y-39763D01*
D02*
G37*
G36*
X71509Y-37325D02*
Y-40405D01*
X74589D01*
X74557Y-40165D01*
X74160Y-39207D01*
X73529Y-38385D01*
X72707Y-37754D01*
X71749Y-37357D01*
X71509Y-37325D01*
D02*
G37*
G36*
X-46456Y-25552D02*
X-47224Y-25704D01*
X-47875Y-26139D01*
X-48310Y-26791D01*
X-48463Y-27559D01*
X-48310Y-28327D01*
X-47875Y-28978D01*
X-47660Y-29122D01*
Y-33607D01*
X-48269Y-34014D01*
X-48704Y-34665D01*
X-48857Y-35433D01*
X-48704Y-36201D01*
X-48269Y-36852D01*
X-47618Y-37287D01*
X-46850Y-37440D01*
X-46082Y-37287D01*
X-45430Y-36852D01*
X-44995Y-36201D01*
X-44842Y-35433D01*
X-44995Y-34665D01*
X-45252Y-34281D01*
Y-29122D01*
X-45037Y-28978D01*
X-44602Y-28327D01*
X-44449Y-27559D01*
X-44602Y-26791D01*
X-45037Y-26139D01*
X-45688Y-25704D01*
X-46456Y-25552D01*
D02*
G37*
G36*
X-128858Y-35109D02*
Y-38189D01*
X-125778D01*
X-125809Y-37948D01*
X-126206Y-36990D01*
X-126837Y-36168D01*
X-127659Y-35537D01*
X-128617Y-35140D01*
X-128858Y-35109D01*
D02*
G37*
G36*
X-130432D02*
X-130673Y-35140D01*
X-131630Y-35537D01*
X-132453Y-36168D01*
X-133084Y-36990D01*
X-133481Y-37948D01*
X-133512Y-38189D01*
X-130432D01*
Y-35109D01*
D02*
G37*
G36*
X-152831Y-17795D02*
X-155865D01*
Y-19589D01*
X-155275D01*
X-154607Y-19501D01*
X-153984Y-19243D01*
X-153450Y-18833D01*
X-153040Y-18298D01*
X-152831Y-17795D01*
D02*
G37*
G36*
X-31495Y-13741D02*
X-32263Y-13893D01*
X-32915Y-14328D01*
X-33350Y-14980D01*
X-33502Y-15748D01*
X-33350Y-16516D01*
X-32915Y-17167D01*
X-32699Y-17311D01*
Y-20039D01*
X-33134Y-20220D01*
X-33470Y-19907D01*
X-33425Y-19685D01*
X-33578Y-18917D01*
X-34013Y-18265D01*
X-34664Y-17830D01*
X-35432Y-17678D01*
X-36200Y-17830D01*
X-36852Y-18265D01*
X-37287Y-18917D01*
X-37439Y-19685D01*
X-37287Y-20453D01*
X-36852Y-21104D01*
X-36200Y-21539D01*
X-35432Y-21692D01*
X-35179Y-21641D01*
X-34668Y-22152D01*
Y-25627D01*
X-35168Y-25894D01*
X-35452Y-25704D01*
X-36220Y-25552D01*
X-36988Y-25704D01*
X-37639Y-26139D01*
X-38074Y-26791D01*
X-38227Y-27559D01*
X-38074Y-28327D01*
X-37639Y-28978D01*
X-37424Y-29122D01*
Y-33870D01*
X-37639Y-34014D01*
X-38074Y-34665D01*
X-38227Y-35433D01*
X-38074Y-36201D01*
X-37639Y-36852D01*
X-36988Y-37287D01*
X-36220Y-37440D01*
X-35452Y-37287D01*
X-35168Y-37097D01*
X-34668Y-37365D01*
Y-39763D01*
X-34668Y-39763D01*
X-34576Y-40224D01*
X-34315Y-40615D01*
X-32741Y-42190D01*
X-32741Y-42190D01*
X-32350Y-42451D01*
X-31889Y-42542D01*
X-31889Y-42542D01*
X-25184D01*
X-25041Y-42757D01*
X-24389Y-43192D01*
X-23621Y-43345D01*
X-22853Y-43192D01*
X-22202Y-42757D01*
X-21767Y-42106D01*
X-21614Y-41338D01*
X-21767Y-40570D01*
X-22202Y-39919D01*
X-22853Y-39484D01*
X-23621Y-39331D01*
X-24389Y-39484D01*
X-25041Y-39919D01*
X-25184Y-40134D01*
X-31390D01*
X-32260Y-39265D01*
Y-37047D01*
X-31825Y-36866D01*
X-31490Y-37179D01*
X-31534Y-37401D01*
X-31381Y-38169D01*
X-30946Y-38820D01*
X-30295Y-39255D01*
X-29527Y-39408D01*
X-28759Y-39255D01*
X-28108Y-38820D01*
X-27672Y-38169D01*
X-27520Y-37401D01*
X-27672Y-36633D01*
X-28108Y-35982D01*
X-28759Y-35547D01*
X-29527Y-35394D01*
X-29780Y-35445D01*
X-30291Y-34934D01*
Y-17311D01*
X-30076Y-17167D01*
X-29641Y-16516D01*
X-29488Y-15748D01*
X-29641Y-14980D01*
X-30076Y-14328D01*
X-30727Y-13893D01*
X-31495Y-13741D01*
D02*
G37*
G36*
X80407Y-14409D02*
X79781Y-14428D01*
X79210Y-14686D01*
X77287Y-16057D01*
X76857Y-16514D01*
X76635Y-17099D01*
X76654Y-17726D01*
X76912Y-18297D01*
X78284Y-20220D01*
X78740Y-20649D01*
X79326Y-20871D01*
X79952Y-20852D01*
X80523Y-20595D01*
X82446Y-19223D01*
X82876Y-18767D01*
X83097Y-18181D01*
X83078Y-17555D01*
X82821Y-16983D01*
X81449Y-15060D01*
X80993Y-14631D01*
X80407Y-14409D01*
D02*
G37*
G36*
X-142480Y-17795D02*
X-145514D01*
X-145305Y-18298D01*
X-144895Y-18833D01*
X-144361Y-19243D01*
X-143738Y-19501D01*
X-143070Y-19589D01*
X-142480D01*
Y-17795D01*
D02*
G37*
G36*
X86010Y-10301D02*
X85303Y-10464D01*
X84663Y-10805D01*
X84132Y-11300D01*
X83747Y-11915D01*
X83535Y-12609D01*
X83510Y-13334D01*
X83673Y-14041D01*
X84014Y-14682D01*
X84509Y-15213D01*
X85124Y-15597D01*
X85818Y-15809D01*
X86543Y-15835D01*
X87250Y-15671D01*
X87891Y-15331D01*
X88422Y-14836D01*
X88806Y-14220D01*
X89018Y-13526D01*
X89044Y-12801D01*
X88880Y-12094D01*
X88540Y-11453D01*
X88045Y-10923D01*
X87429Y-10538D01*
X86736Y-10326D01*
X86010Y-10301D01*
D02*
G37*
G36*
X-155275Y-14426D02*
X-155865D01*
Y-16220D01*
X-152831D01*
X-153040Y-15717D01*
X-153450Y-15182D01*
X-153984Y-14772D01*
X-154607Y-14514D01*
X-155275Y-14426D01*
D02*
G37*
G36*
X-142480D02*
X-143070D01*
X-143738Y-14514D01*
X-144361Y-14772D01*
X-144895Y-15182D01*
X-145305Y-15717D01*
X-145514Y-16220D01*
X-142480D01*
Y-14426D01*
D02*
G37*
G36*
X-21259Y-17284D02*
X-22027Y-17437D01*
X-22678Y-17872D01*
X-23113Y-18523D01*
X-23266Y-19291D01*
X-23113Y-20059D01*
X-22678Y-20710D01*
X-22027Y-21145D01*
X-21259Y-21298D01*
X-20491Y-21145D01*
X-19840Y-20710D01*
X-19405Y-20059D01*
X-19252Y-19291D01*
X-19405Y-18523D01*
X-19840Y-17872D01*
X-20491Y-17437D01*
X-21259Y-17284D01*
D02*
G37*
G36*
X56694Y-19647D02*
X55926Y-19800D01*
X55274Y-20235D01*
X54839Y-20886D01*
X54687Y-21654D01*
X54839Y-22422D01*
X55274Y-23074D01*
X55690Y-23351D01*
Y-24211D01*
X55276Y-24488D01*
X54860Y-25111D01*
X54714Y-25846D01*
X54860Y-26581D01*
X55276Y-27204D01*
X55900Y-27621D01*
X56635Y-27767D01*
X56753D01*
X57488Y-27621D01*
X58111Y-27204D01*
X58527Y-26581D01*
X58674Y-25846D01*
X58527Y-25111D01*
X58111Y-24488D01*
X57697Y-24211D01*
Y-23351D01*
X58113Y-23074D01*
X58548Y-22422D01*
X58701Y-21654D01*
X58548Y-20886D01*
X58113Y-20235D01*
X57462Y-19800D01*
X56694Y-19647D01*
D02*
G37*
G36*
X51753Y-23925D02*
X51635D01*
X50900Y-24071D01*
X50276Y-24488D01*
X49860Y-25111D01*
X49714Y-25846D01*
X49860Y-26581D01*
X50276Y-27204D01*
X50900Y-27621D01*
X51635Y-27767D01*
X51753D01*
X52488Y-27621D01*
X53111Y-27204D01*
X53527Y-26581D01*
X53673Y-25846D01*
X53527Y-25111D01*
X53111Y-24488D01*
X52488Y-24071D01*
X51753Y-23925D01*
D02*
G37*
G36*
X52481Y-28870D02*
Y-30059D01*
X53718D01*
X53713Y-30034D01*
X53253Y-29346D01*
X52565Y-28886D01*
X52481Y-28870D01*
D02*
G37*
G36*
X61694Y-19764D02*
X60926Y-19917D01*
X60274Y-20352D01*
X59839Y-21003D01*
X59687Y-21771D01*
X59839Y-22539D01*
X60274Y-23190D01*
X60690Y-23468D01*
Y-24211D01*
X60276Y-24488D01*
X59860Y-25111D01*
X59714Y-25846D01*
X59860Y-26581D01*
X60276Y-27204D01*
X60900Y-27621D01*
X61635Y-27767D01*
X61753D01*
X62488Y-27621D01*
X63111Y-27204D01*
X63527Y-26581D01*
X63674Y-25846D01*
X63527Y-25111D01*
X63111Y-24488D01*
X62697Y-24211D01*
Y-23468D01*
X63113Y-23190D01*
X63548Y-22539D01*
X63701Y-21771D01*
X63548Y-21003D01*
X63113Y-20352D01*
X62462Y-19917D01*
X61694Y-19764D01*
D02*
G37*
G36*
X-11190Y-22008D02*
X-11958Y-22161D01*
X-12609Y-22596D01*
X-13044Y-23247D01*
X-13197Y-24015D01*
X-13044Y-24783D01*
X-12609Y-25435D01*
X-11958Y-25870D01*
X-11190Y-26022D01*
X-10422Y-25870D01*
X-9771Y-25435D01*
X-9336Y-24783D01*
X-9183Y-24015D01*
X-9336Y-23247D01*
X-9771Y-22596D01*
X-10422Y-22161D01*
X-11190Y-22008D01*
D02*
G37*
G36*
X46694Y-21956D02*
X45779Y-22138D01*
X45003Y-22656D01*
X44485Y-23431D01*
X44303Y-24346D01*
X44485Y-25261D01*
X45003Y-26036D01*
X45779Y-26555D01*
X46694Y-26737D01*
X47609Y-26555D01*
X48384Y-26036D01*
X48902Y-25261D01*
X49084Y-24346D01*
X48902Y-23431D01*
X48384Y-22656D01*
X47609Y-22138D01*
X46694Y-21956D01*
D02*
G37*
G36*
X22442Y-23357D02*
X21674Y-23509D01*
X21023Y-23944D01*
X20587Y-24596D01*
X20435Y-25364D01*
X20587Y-26132D01*
X21023Y-26783D01*
X21674Y-27218D01*
X22442Y-27371D01*
X23210Y-27218D01*
X23861Y-26783D01*
X24296Y-26132D01*
X24449Y-25364D01*
X24296Y-24596D01*
X23861Y-23944D01*
X23210Y-23509D01*
X22442Y-23357D01*
D02*
G37*
G36*
X4332Y-39331D02*
X3563Y-39484D01*
X2912Y-39919D01*
X2477Y-40570D01*
X2324Y-41338D01*
X2477Y-42106D01*
X2912Y-42757D01*
X3563Y-43192D01*
X4332Y-43345D01*
X5100Y-43192D01*
X5751Y-42757D01*
X6186Y-42106D01*
X6339Y-41338D01*
X6186Y-40570D01*
X5751Y-39919D01*
X5100Y-39484D01*
X4332Y-39331D01*
D02*
G37*
G36*
X-786Y-76582D02*
X-10628D01*
Y-84259D01*
X-786D01*
Y-76582D01*
D02*
G37*
G36*
X61666Y-94412D02*
Y-97492D01*
X64746D01*
X64714Y-97251D01*
X64318Y-96294D01*
X63687Y-95471D01*
X62864Y-94840D01*
X61906Y-94444D01*
X61666Y-94412D01*
D02*
G37*
G36*
X60091Y-94412D02*
X59851Y-94444D01*
X58893Y-94840D01*
X58071Y-95471D01*
X57440Y-96294D01*
X57043Y-97251D01*
X57011Y-97492D01*
X60091D01*
Y-94412D01*
D02*
G37*
G36*
X10631Y-76582D02*
X789D01*
Y-84259D01*
X10631D01*
Y-76582D01*
D02*
G37*
G36*
X53840Y-71508D02*
X49068D01*
Y-78144D01*
X49719Y-78058D01*
X51060Y-77503D01*
X52211Y-76620D01*
X53095Y-75468D01*
X53650Y-74127D01*
X53840Y-72689D01*
Y-71508D01*
D02*
G37*
G36*
X47493D02*
X42721D01*
Y-72689D01*
X42910Y-74127D01*
X43466Y-75468D01*
X44349Y-76620D01*
X45501Y-77503D01*
X46841Y-78058D01*
X47493Y-78144D01*
Y-71508D01*
D02*
G37*
G36*
X98722Y-71508D02*
X93950D01*
Y-78144D01*
X94601Y-78058D01*
X95942Y-77503D01*
X97093Y-76620D01*
X97977Y-75468D01*
X98532Y-74127D01*
X98722Y-72689D01*
Y-71508D01*
D02*
G37*
G36*
X64746Y-99067D02*
X61666D01*
Y-102146D01*
X61906Y-102115D01*
X62864Y-101718D01*
X63687Y-101087D01*
X64318Y-100265D01*
X64714Y-99307D01*
X64746Y-99067D01*
D02*
G37*
G36*
X-786Y-130323D02*
X-6888D01*
Y-138000D01*
X-786D01*
Y-130323D01*
D02*
G37*
G36*
X6891Y-139574D02*
X789D01*
Y-147252D01*
X6891D01*
Y-139574D01*
D02*
G37*
G36*
X-786D02*
X-6888D01*
Y-147252D01*
X-786D01*
Y-139574D01*
D02*
G37*
G36*
X6891Y-130323D02*
X789D01*
Y-138000D01*
X6891D01*
Y-130323D01*
D02*
G37*
G36*
X60091Y-99067D02*
X57011D01*
X57043Y-99307D01*
X57440Y-100265D01*
X58071Y-101087D01*
X58893Y-101718D01*
X59851Y-102115D01*
X60091Y-102146D01*
Y-99067D01*
D02*
G37*
G36*
X-102361Y-96032D02*
X-103596Y-96154D01*
X-104784Y-96514D01*
X-105878Y-97099D01*
X-106837Y-97886D01*
X-107624Y-98845D01*
X-108209Y-99940D01*
X-108570Y-101127D01*
X-108691Y-102362D01*
X-108570Y-103597D01*
X-108209Y-104784D01*
X-107624Y-105878D01*
X-106837Y-106838D01*
X-105878Y-107625D01*
X-104784Y-108210D01*
X-103596Y-108570D01*
X-102361Y-108692D01*
X-101127Y-108570D01*
X-99939Y-108210D01*
X-98845Y-107625D01*
X-97886Y-106838D01*
X-97098Y-105878D01*
X-96513Y-104784D01*
X-96153Y-103597D01*
X-96032Y-102362D01*
X-96153Y-101127D01*
X-96513Y-99940D01*
X-97098Y-98845D01*
X-97886Y-97886D01*
X-98845Y-97099D01*
X-99939Y-96514D01*
X-101127Y-96154D01*
X-102361Y-96032D01*
D02*
G37*
G36*
X5119Y-117284D02*
X4351Y-117437D01*
X3700Y-117872D01*
X3265Y-118523D01*
X3112Y-119291D01*
X3265Y-120059D01*
X3700Y-120710D01*
X4351Y-121145D01*
X4633Y-121201D01*
Y-121711D01*
X4351Y-121767D01*
X3700Y-122202D01*
X3265Y-122854D01*
X3112Y-123622D01*
X3265Y-124390D01*
X3700Y-125041D01*
X4351Y-125476D01*
X5119Y-125629D01*
X5887Y-125476D01*
X6538Y-125041D01*
X6973Y-124390D01*
X7126Y-123622D01*
X6973Y-122854D01*
X6538Y-122202D01*
X5887Y-121767D01*
X5605Y-121711D01*
Y-121201D01*
X5887Y-121145D01*
X6538Y-120710D01*
X6973Y-120059D01*
X7126Y-119291D01*
X6973Y-118523D01*
X6538Y-117872D01*
X5887Y-117437D01*
X5119Y-117284D01*
D02*
G37*
G36*
X38190Y-49961D02*
X37422Y-50114D01*
X36770Y-50549D01*
X36336Y-51200D01*
X36183Y-51968D01*
X36336Y-52736D01*
X36770Y-53387D01*
X37422Y-53822D01*
X38190Y-53975D01*
X38958Y-53822D01*
X39609Y-53387D01*
X40044Y-52736D01*
X40197Y-51968D01*
X40044Y-51200D01*
X39609Y-50549D01*
X38958Y-50114D01*
X38190Y-49961D01*
D02*
G37*
G36*
X-6692Y-50188D02*
X-7460Y-50340D01*
X-8111Y-50775D01*
X-8546Y-51427D01*
X-8699Y-52195D01*
X-8546Y-52963D01*
X-8111Y-53614D01*
X-7460Y-54049D01*
X-6692Y-54202D01*
X-5924Y-54049D01*
X-5273Y-53614D01*
X-4838Y-52963D01*
X-4685Y-52195D01*
X-4838Y-51427D01*
X-5273Y-50775D01*
X-5924Y-50340D01*
X-6692Y-50188D01*
D02*
G37*
G36*
X-48424Y-55473D02*
X-49193Y-55626D01*
X-49844Y-56061D01*
X-50279Y-56712D01*
X-50432Y-57480D01*
X-50279Y-58248D01*
X-49844Y-58899D01*
X-49193Y-59334D01*
X-48424Y-59487D01*
X-47656Y-59334D01*
X-47005Y-58899D01*
X-46570Y-58248D01*
X-46417Y-57480D01*
X-46570Y-56712D01*
X-47005Y-56061D01*
X-47656Y-55626D01*
X-48424Y-55473D01*
D02*
G37*
G36*
X69934Y-41980D02*
X66854D01*
X66886Y-42220D01*
X67282Y-43178D01*
X67913Y-44000D01*
X68736Y-44631D01*
X69693Y-45028D01*
X69934Y-45060D01*
Y-41980D01*
D02*
G37*
G36*
X80564Y-37420D02*
X79587Y-37549D01*
X78678Y-37925D01*
X77896Y-38525D01*
X77297Y-39306D01*
X76920Y-40216D01*
X76791Y-41192D01*
X76920Y-42169D01*
X77297Y-43079D01*
X77896Y-43860D01*
X78678Y-44460D01*
X79587Y-44836D01*
X80564Y-44965D01*
X81540Y-44836D01*
X82450Y-44460D01*
X83231Y-43860D01*
X83831Y-43079D01*
X84208Y-42169D01*
X84336Y-41192D01*
X84208Y-40216D01*
X83831Y-39306D01*
X83231Y-38525D01*
X82450Y-37925D01*
X81540Y-37549D01*
X80564Y-37420D01*
D02*
G37*
G36*
X60879D02*
X59902Y-37549D01*
X58992Y-37925D01*
X58211Y-38525D01*
X57612Y-39306D01*
X57235Y-40216D01*
X57106Y-41192D01*
X57235Y-42169D01*
X57612Y-43079D01*
X58211Y-43860D01*
X58992Y-44460D01*
X59902Y-44836D01*
X60879Y-44965D01*
X61855Y-44836D01*
X62765Y-44460D01*
X63546Y-43860D01*
X64146Y-43079D01*
X64523Y-42169D01*
X64651Y-41192D01*
X64523Y-40216D01*
X64146Y-39306D01*
X63546Y-38525D01*
X62765Y-37925D01*
X61855Y-37549D01*
X60879Y-37420D01*
D02*
G37*
G36*
X74589Y-41980D02*
X71509D01*
Y-45060D01*
X71749Y-45028D01*
X72707Y-44631D01*
X73529Y-44000D01*
X74160Y-43178D01*
X74557Y-42220D01*
X74589Y-41980D01*
D02*
G37*
G36*
X-19783Y-65217D02*
X-20551Y-65370D01*
X-21202Y-65805D01*
X-21637Y-66456D01*
X-21790Y-67224D01*
X-21637Y-67992D01*
X-21202Y-68643D01*
X-20551Y-69078D01*
X-19783Y-69231D01*
X-19015Y-69078D01*
X-18363Y-68643D01*
X-17928Y-67992D01*
X-17776Y-67224D01*
X-17928Y-66456D01*
X-18363Y-65805D01*
X-19015Y-65370D01*
X-19783Y-65217D01*
D02*
G37*
G36*
X-32676Y-67284D02*
X-33444Y-67437D01*
X-34096Y-67872D01*
X-34531Y-68523D01*
X-34683Y-69291D01*
X-34587Y-69775D01*
X-35037Y-70076D01*
X-35452Y-69799D01*
X-36220Y-69646D01*
X-36988Y-69799D01*
X-37639Y-70234D01*
X-38074Y-70885D01*
X-38227Y-71653D01*
X-38074Y-72421D01*
X-37639Y-73072D01*
X-36988Y-73507D01*
X-36220Y-73660D01*
X-35452Y-73507D01*
X-35068Y-73251D01*
X-18503D01*
X-18503Y-73251D01*
X-18148Y-73181D01*
X-17716Y-73267D01*
X-16948Y-73114D01*
X-16296Y-72679D01*
X-15861Y-72027D01*
X-15709Y-71259D01*
X-15861Y-70491D01*
X-16296Y-69840D01*
X-16948Y-69405D01*
X-17716Y-69252D01*
X-18484Y-69405D01*
X-19135Y-69840D01*
X-19570Y-70491D01*
X-19640Y-70843D01*
X-30744D01*
X-31012Y-70343D01*
X-30822Y-70059D01*
X-30669Y-69291D01*
X-30822Y-68523D01*
X-31257Y-67872D01*
X-31908Y-67437D01*
X-32676Y-67284D01*
D02*
G37*
G36*
X38190Y-73977D02*
X37422Y-74130D01*
X36770Y-74565D01*
X36336Y-75216D01*
X36183Y-75984D01*
X36336Y-76752D01*
X36770Y-77403D01*
X37422Y-77838D01*
X38190Y-77991D01*
X38958Y-77838D01*
X39609Y-77403D01*
X40044Y-76752D01*
X40197Y-75984D01*
X40044Y-75216D01*
X39609Y-74565D01*
X38958Y-74130D01*
X38190Y-73977D01*
D02*
G37*
G36*
X92375Y-71508D02*
X87603D01*
Y-72689D01*
X87792Y-74127D01*
X88348Y-75468D01*
X89231Y-76620D01*
X90382Y-77503D01*
X91723Y-78058D01*
X92375Y-78144D01*
Y-71508D01*
D02*
G37*
G36*
Y-63296D02*
X91723Y-63382D01*
X90382Y-63937D01*
X89231Y-64820D01*
X88348Y-65972D01*
X87792Y-67313D01*
X87603Y-68752D01*
Y-69933D01*
X92375D01*
Y-63296D01*
D02*
G37*
G36*
X49068Y-63296D02*
Y-69933D01*
X53840D01*
Y-68752D01*
X53650Y-67313D01*
X53095Y-65972D01*
X52211Y-64820D01*
X51060Y-63937D01*
X49719Y-63382D01*
X49068Y-63296D01*
D02*
G37*
G36*
X47493D02*
X46841Y-63382D01*
X45501Y-63937D01*
X44349Y-64820D01*
X43466Y-65972D01*
X42910Y-67313D01*
X42721Y-68752D01*
Y-69933D01*
X47493D01*
Y-63296D01*
D02*
G37*
G36*
X93950D02*
Y-69933D01*
X98722D01*
Y-68752D01*
X98532Y-67313D01*
X97977Y-65972D01*
X97093Y-64820D01*
X95942Y-63937D01*
X94601Y-63382D01*
X93950Y-63296D01*
D02*
G37*
G36*
X59449Y-5080D02*
X58681Y-5232D01*
X58030Y-5667D01*
X57595Y-6318D01*
X57442Y-7087D01*
X57595Y-7855D01*
X58030Y-8506D01*
X58681Y-8941D01*
X59449Y-9094D01*
X60217Y-8941D01*
X60868Y-8506D01*
X61303Y-7855D01*
X61456Y-7087D01*
X61303Y-6318D01*
X60868Y-5667D01*
X60217Y-5232D01*
X59449Y-5080D01*
D02*
G37*
G36*
X61429Y90656D02*
X60568Y90465D01*
X59787Y90058D01*
X59137Y89463D01*
X58664Y88720D01*
X58399Y87880D01*
X58360Y86999D01*
X58551Y86139D01*
X58958Y85358D01*
X59553Y84708D01*
X60296Y84234D01*
X61137Y83969D01*
X62017Y83931D01*
X62877Y84122D01*
X63659Y84529D01*
X64309Y85124D01*
X64782Y85867D01*
X65047Y86707D01*
X65085Y87588D01*
X64895Y88448D01*
X64488Y89230D01*
X63893Y89879D01*
X63149Y90353D01*
X62309Y90618D01*
X61429Y90656D01*
D02*
G37*
G36*
X53237Y84920D02*
X52377Y84730D01*
X51595Y84323D01*
X50946Y83727D01*
X50472Y82984D01*
X50207Y82144D01*
X50169Y81264D01*
X50360Y80403D01*
X50766Y79622D01*
X51362Y78972D01*
X52105Y78499D01*
X52945Y78234D01*
X53825Y78195D01*
X54686Y78386D01*
X55467Y78793D01*
X56117Y79388D01*
X56590Y80131D01*
X56855Y80972D01*
X56894Y81852D01*
X56703Y82712D01*
X56296Y83494D01*
X55701Y84143D01*
X54958Y84617D01*
X54118Y84882D01*
X53237Y84920D01*
D02*
G37*
G36*
X10631Y83260D02*
X789D01*
Y75583D01*
X10631D01*
Y83260D01*
D02*
G37*
G36*
X69620Y96392D02*
X68760Y96201D01*
X67978Y95794D01*
X67329Y95199D01*
X66855Y94456D01*
X66590Y93615D01*
X66552Y92735D01*
X66743Y91875D01*
X67150Y91093D01*
X67745Y90444D01*
X68488Y89970D01*
X69328Y89705D01*
X70209Y89667D01*
X71069Y89858D01*
X71850Y90264D01*
X72500Y90860D01*
X72974Y91603D01*
X73238Y92443D01*
X73277Y93323D01*
X73086Y94184D01*
X72679Y94965D01*
X72084Y95615D01*
X71341Y96088D01*
X70500Y96353D01*
X69620Y96392D01*
D02*
G37*
G36*
X102363Y108692D02*
X101128Y108571D01*
X99941Y108211D01*
X98846Y107625D01*
X97887Y106838D01*
X97100Y105879D01*
X96515Y104785D01*
X96155Y103597D01*
X96033Y102363D01*
X96155Y101128D01*
X96515Y99940D01*
X97100Y98846D01*
X97887Y97887D01*
X98846Y97100D01*
X99941Y96515D01*
X101128Y96154D01*
X102363Y96033D01*
X103598Y96154D01*
X104785Y96515D01*
X105880Y97100D01*
X106839Y97887D01*
X107626Y98846D01*
X108211Y99940D01*
X108571Y101128D01*
X108693Y102363D01*
X108571Y103597D01*
X108211Y104785D01*
X107626Y105879D01*
X106839Y106838D01*
X105880Y107625D01*
X104785Y108211D01*
X103598Y108571D01*
X102363Y108692D01*
D02*
G37*
G36*
X77812Y102128D02*
X76951Y101937D01*
X76170Y101530D01*
X75520Y100935D01*
X75047Y100192D01*
X74782Y99351D01*
X74743Y98471D01*
X74934Y97611D01*
X75341Y96829D01*
X75936Y96179D01*
X76679Y95706D01*
X77520Y95441D01*
X78400Y95403D01*
X79260Y95593D01*
X80042Y96000D01*
X80692Y96596D01*
X81165Y97339D01*
X81430Y98179D01*
X81468Y99059D01*
X81278Y99919D01*
X80871Y100701D01*
X80275Y101351D01*
X79532Y101824D01*
X78692Y102089D01*
X77812Y102128D01*
D02*
G37*
G36*
X-98818Y96102D02*
X-99586Y95949D01*
X-100237Y95514D01*
X-100672Y94863D01*
X-100825Y94095D01*
X-100672Y93327D01*
X-100237Y92676D01*
X-99586Y92241D01*
X-98818Y92088D01*
X-98050Y92241D01*
X-97399Y92676D01*
X-96964Y93327D01*
X-96811Y94095D01*
X-96964Y94863D01*
X-97399Y95514D01*
X-98050Y95949D01*
X-98818Y96102D01*
D02*
G37*
G36*
X-786Y83260D02*
X-10628D01*
Y75583D01*
X-786D01*
Y83260D01*
D02*
G37*
G36*
X-93948Y78145D02*
X-94599Y78059D01*
X-95940Y77504D01*
X-97092Y76620D01*
X-97975Y75469D01*
X-98531Y74128D01*
X-98720Y72689D01*
Y71508D01*
X-93948D01*
Y78145D01*
D02*
G37*
G36*
X37009Y107127D02*
X36241Y106974D01*
X35590Y106539D01*
X35155Y105888D01*
X35002Y105120D01*
X35155Y104351D01*
X35590Y103700D01*
X35805Y103557D01*
Y73276D01*
X33999Y72011D01*
X33484Y71473D01*
X33214Y70780D01*
X33231Y70036D01*
X33530Y69355D01*
X35224Y66936D01*
X35761Y66422D01*
X36455Y66152D01*
X37198Y66169D01*
X37879Y66468D01*
X40298Y68162D01*
X40813Y68699D01*
X41082Y69393D01*
X41066Y70136D01*
X40766Y70817D01*
X39073Y73236D01*
X38535Y73751D01*
X38214Y73876D01*
Y103557D01*
X38429Y103700D01*
X38864Y104351D01*
X39016Y105120D01*
X38864Y105888D01*
X38429Y106539D01*
X37777Y106974D01*
X37009Y107127D01*
D02*
G37*
G36*
X-42719Y69933D02*
X-47491D01*
Y63297D01*
X-46840Y63382D01*
X-45499Y63938D01*
X-44348Y64821D01*
X-43464Y65973D01*
X-42909Y67313D01*
X-42719Y68752D01*
Y69933D01*
D02*
G37*
G36*
X-92373Y78145D02*
Y71508D01*
X-87601D01*
Y72689D01*
X-87791Y74128D01*
X-88346Y75469D01*
X-89230Y76620D01*
X-90381Y77504D01*
X-91722Y78059D01*
X-92373Y78145D01*
D02*
G37*
G36*
X45046Y79185D02*
X44185Y78994D01*
X43404Y78587D01*
X42754Y77992D01*
X42281Y77249D01*
X42016Y76408D01*
X41977Y75528D01*
X42168Y74668D01*
X42575Y73886D01*
X43170Y73236D01*
X43913Y72763D01*
X44754Y72498D01*
X45634Y72460D01*
X46494Y72650D01*
X47276Y73057D01*
X47925Y73652D01*
X48399Y74396D01*
X48664Y75236D01*
X48702Y76116D01*
X48512Y76977D01*
X48105Y77758D01*
X47510Y78408D01*
X46766Y78881D01*
X45926Y79146D01*
X45046Y79185D01*
D02*
G37*
G36*
X-47491Y78145D02*
Y71508D01*
X-42719D01*
Y72689D01*
X-42909Y74128D01*
X-43464Y75469D01*
X-44348Y76620D01*
X-45499Y77504D01*
X-46840Y78059D01*
X-47491Y78145D01*
D02*
G37*
G36*
X-49066Y78145D02*
X-49718Y78059D01*
X-51058Y77504D01*
X-52210Y76620D01*
X-53093Y75469D01*
X-53649Y74128D01*
X-53838Y72689D01*
Y71508D01*
X-49066D01*
Y78145D01*
D02*
G37*
G36*
X94195Y113599D02*
X93335Y113408D01*
X92553Y113002D01*
X91903Y112406D01*
X91430Y111663D01*
X91165Y110823D01*
X91127Y109942D01*
X91317Y109082D01*
X91724Y108301D01*
X92319Y107651D01*
X93063Y107177D01*
X93903Y106913D01*
X94783Y106874D01*
X95643Y107065D01*
X96425Y107472D01*
X97075Y108067D01*
X97548Y108810D01*
X97813Y109651D01*
X97851Y110531D01*
X97661Y111391D01*
X97254Y112173D01*
X96659Y112822D01*
X95915Y113296D01*
X95075Y113561D01*
X94195Y113599D01*
D02*
G37*
G36*
X85986Y108061D02*
X85075Y107859D01*
X84952Y107795D01*
X86491Y105597D01*
X88688Y107136D01*
X88595Y107239D01*
X87808Y107740D01*
X86918Y108020D01*
X85986Y108061D01*
D02*
G37*
G36*
X83662Y106892D02*
X83560Y106798D01*
X83058Y106011D01*
X82778Y105122D01*
X82737Y104189D01*
X82939Y103279D01*
X83003Y103155D01*
X85201Y104694D01*
X83662Y106892D01*
D02*
G37*
G36*
X-786Y137000D02*
X-6888D01*
Y129323D01*
X-786D01*
Y137000D01*
D02*
G37*
G36*
X6891Y146252D02*
X789D01*
Y138575D01*
X6891D01*
Y146252D01*
D02*
G37*
G36*
X-786D02*
X-6888D01*
Y138575D01*
X-786D01*
Y146252D01*
D02*
G37*
G36*
X6891Y137000D02*
X789D01*
Y129323D01*
X6891D01*
Y137000D01*
D02*
G37*
G36*
X89592Y105846D02*
X87394Y104307D01*
X88933Y102110D01*
X89035Y102204D01*
X89536Y102990D01*
X89817Y103880D01*
X89858Y104812D01*
X89656Y105723D01*
X89592Y105846D01*
D02*
G37*
G36*
X-80562Y104021D02*
X-81539Y103892D01*
X-82448Y103515D01*
X-83230Y102916D01*
X-83829Y102135D01*
X-84206Y101225D01*
X-84335Y100248D01*
X-84206Y99272D01*
X-83829Y98362D01*
X-83230Y97581D01*
X-82448Y96981D01*
X-81539Y96605D01*
X-80562Y96476D01*
X-79586Y96605D01*
X-78676Y96981D01*
X-77895Y97581D01*
X-77295Y98362D01*
X-76918Y99272D01*
X-76790Y100248D01*
X-76918Y101225D01*
X-77295Y102135D01*
X-77895Y102916D01*
X-78676Y103515D01*
X-79586Y103892D01*
X-80562Y104021D01*
D02*
G37*
G36*
X-71507Y99461D02*
X-74587D01*
X-74555Y99221D01*
X-74159Y98263D01*
X-73528Y97440D01*
X-72705Y96810D01*
X-71747Y96413D01*
X-71507Y96381D01*
Y99461D01*
D02*
G37*
G36*
X-66852D02*
X-69932D01*
Y96381D01*
X-69692Y96413D01*
X-68734Y96810D01*
X-67912Y97440D01*
X-67281Y98263D01*
X-66884Y99221D01*
X-66852Y99461D01*
D02*
G37*
G36*
X-60877Y104021D02*
X-61853Y103892D01*
X-62763Y103515D01*
X-63545Y102916D01*
X-64144Y102135D01*
X-64521Y101225D01*
X-64650Y100248D01*
X-64521Y99272D01*
X-64144Y98362D01*
X-63545Y97581D01*
X-62763Y96981D01*
X-61853Y96605D01*
X-60877Y96476D01*
X-59901Y96605D01*
X-58991Y96981D01*
X-58210Y97581D01*
X-57610Y98362D01*
X-57233Y99272D01*
X-57105Y100248D01*
X-57233Y101225D01*
X-57610Y102135D01*
X-58210Y102916D01*
X-58991Y103515D01*
X-59901Y103892D01*
X-60877Y104021D01*
D02*
G37*
G36*
X-69932Y104116D02*
Y101036D01*
X-66852D01*
X-66884Y101276D01*
X-67281Y102234D01*
X-67912Y103056D01*
X-68734Y103687D01*
X-69692Y104084D01*
X-69932Y104116D01*
D02*
G37*
G36*
X-71507Y104116D02*
X-71747Y104084D01*
X-72705Y103687D01*
X-73528Y103056D01*
X-74159Y102234D01*
X-74555Y101276D01*
X-74587Y101036D01*
X-71507D01*
Y104116D01*
D02*
G37*
G36*
X86104Y103404D02*
X83906Y101865D01*
X84000Y101763D01*
X84787Y101262D01*
X85677Y100981D01*
X86609Y100941D01*
X87520Y101143D01*
X87643Y101207D01*
X86104Y103404D01*
D02*
G37*
G36*
X-142480Y19589D02*
X-143070D01*
X-143738Y19501D01*
X-144361Y19244D01*
X-144895Y18833D01*
X-145305Y18299D01*
X-145514Y17796D01*
X-142480D01*
Y19589D01*
D02*
G37*
G36*
Y16221D02*
X-145514D01*
X-145305Y15718D01*
X-144895Y15183D01*
X-144361Y14773D01*
X-143738Y14515D01*
X-143070Y14427D01*
X-142480D01*
Y16221D01*
D02*
G37*
G36*
X-152831D02*
X-155865D01*
Y14427D01*
X-155275D01*
X-154607Y14515D01*
X-153984Y14773D01*
X-153450Y15183D01*
X-153040Y15718D01*
X-152831Y16221D01*
D02*
G37*
G36*
X-155275Y19589D02*
X-155865D01*
Y17796D01*
X-152831D01*
X-153040Y18299D01*
X-153450Y18833D01*
X-153984Y19244D01*
X-154607Y19501D01*
X-155275Y19589D01*
D02*
G37*
G36*
X-15747Y31535D02*
X-16515Y31382D01*
X-17166Y30947D01*
X-17602Y30296D01*
X-17754Y29528D01*
X-17602Y28760D01*
X-17166Y28109D01*
X-16515Y27674D01*
X-15747Y27521D01*
X-14979Y27674D01*
X-14328Y28109D01*
X-13893Y28760D01*
X-13740Y29528D01*
X-13893Y30296D01*
X-14328Y30947D01*
X-14979Y31382D01*
X-15747Y31535D01*
D02*
G37*
G36*
X102153Y32496D02*
X101292Y32305D01*
X100511Y31899D01*
X99861Y31303D01*
X99388Y30560D01*
X99123Y29720D01*
X99084Y28840D01*
X99275Y27979D01*
X99682Y27198D01*
X100277Y26548D01*
X101020Y26075D01*
X101861Y25810D01*
X102741Y25771D01*
X103601Y25962D01*
X104383Y26369D01*
X105032Y26964D01*
X105506Y27707D01*
X105771Y28548D01*
X105809Y29428D01*
X105619Y30288D01*
X105212Y31070D01*
X104616Y31719D01*
X103873Y32193D01*
X103033Y32458D01*
X102153Y32496D01*
D02*
G37*
G36*
X93961Y26761D02*
X93101Y26570D01*
X92319Y26163D01*
X91670Y25568D01*
X91196Y24825D01*
X90931Y23984D01*
X90893Y23104D01*
X91084Y22244D01*
X91490Y21462D01*
X92086Y20812D01*
X92829Y20339D01*
X93669Y20074D01*
X94550Y20035D01*
X95410Y20226D01*
X96191Y20633D01*
X96841Y21228D01*
X97314Y21972D01*
X97579Y22812D01*
X97618Y23692D01*
X97427Y24553D01*
X97020Y25334D01*
X96425Y25984D01*
X95682Y26457D01*
X94841Y26722D01*
X93961Y26761D01*
D02*
G37*
G36*
X85770Y21025D02*
X84909Y20834D01*
X84128Y20427D01*
X83478Y19832D01*
X83005Y19089D01*
X82740Y18248D01*
X82701Y17368D01*
X82892Y16508D01*
X83299Y15726D01*
X83894Y15077D01*
X84637Y14603D01*
X85478Y14338D01*
X86358Y14300D01*
X87218Y14491D01*
X88000Y14897D01*
X88649Y15493D01*
X89123Y16236D01*
X89388Y17076D01*
X89426Y17956D01*
X89236Y18817D01*
X88829Y19598D01*
X88233Y20248D01*
X87490Y20721D01*
X86650Y20986D01*
X85770Y21025D01*
D02*
G37*
G36*
X7087Y3666D02*
X6319Y3513D01*
X5668Y3078D01*
X5233Y2427D01*
X5080Y1658D01*
X5233Y890D01*
X5668Y239D01*
X6319Y-196D01*
X7087Y-349D01*
X7856Y-196D01*
X8507Y239D01*
X8942Y890D01*
X9094Y1658D01*
X8942Y2427D01*
X8507Y3078D01*
X7856Y3513D01*
X7087Y3666D01*
D02*
G37*
G36*
X118111Y6726D02*
X116799Y6596D01*
X115537Y6214D01*
X114375Y5592D01*
X113356Y4756D01*
X112519Y3737D01*
X111898Y2574D01*
X111515Y1312D01*
X111386Y0D01*
X111515Y-1312D01*
X111898Y-2573D01*
X112519Y-3736D01*
X113356Y-4755D01*
X114375Y-5592D01*
X115537Y-6213D01*
X116799Y-6596D01*
X118111Y-6725D01*
X119423Y-6596D01*
X120685Y-6213D01*
X121847Y-5592D01*
X122866Y-4755D01*
X123703Y-3736D01*
X124324Y-2573D01*
X124707Y-1312D01*
X124836Y0D01*
X124707Y1312D01*
X124324Y2574D01*
X123703Y3737D01*
X122866Y4756D01*
X121847Y5592D01*
X120685Y6214D01*
X119423Y6596D01*
X118111Y6726D01*
D02*
G37*
G36*
X-118110D02*
X-119422Y6596D01*
X-120683Y6214D01*
X-121846Y5592D01*
X-122865Y4756D01*
X-123701Y3737D01*
X-124323Y2574D01*
X-124706Y1312D01*
X-124835Y0D01*
X-124706Y-1312D01*
X-124323Y-2573D01*
X-123701Y-3736D01*
X-122865Y-4755D01*
X-121846Y-5592D01*
X-120683Y-6213D01*
X-119422Y-6596D01*
X-118110Y-6725D01*
X-116797Y-6596D01*
X-115536Y-6213D01*
X-114373Y-5592D01*
X-113354Y-4755D01*
X-112518Y-3736D01*
X-111896Y-2573D01*
X-111513Y-1312D01*
X-111384Y0D01*
X-111513Y1312D01*
X-111896Y2574D01*
X-112518Y3737D01*
X-113354Y4756D01*
X-114373Y5592D01*
X-115536Y6214D01*
X-116797Y6596D01*
X-118110Y6726D01*
D02*
G37*
G36*
X36220Y12637D02*
X35452Y12484D01*
X34801Y12049D01*
X34366Y11398D01*
X34213Y10630D01*
X34366Y9862D01*
X34801Y9211D01*
X35016Y9067D01*
Y4557D01*
X35016Y4557D01*
X35108Y4096D01*
X35180Y3988D01*
X35114Y3657D01*
X35267Y2888D01*
X35702Y2237D01*
X36353Y1802D01*
X37121Y1650D01*
X37889Y1802D01*
X38540Y2237D01*
X38975Y2888D01*
X39128Y3657D01*
X38975Y4425D01*
X38540Y5076D01*
X37889Y5511D01*
X37425Y5603D01*
Y9067D01*
X37640Y9211D01*
X38075Y9862D01*
X38227Y10630D01*
X38075Y11398D01*
X37640Y12049D01*
X36988Y12484D01*
X36220Y12637D01*
D02*
G37*
G36*
X43307Y13031D02*
X42539Y12878D01*
X41888Y12443D01*
X41453Y11792D01*
X41300Y11024D01*
X41453Y10255D01*
X41888Y9604D01*
X42539Y9169D01*
X43307Y9016D01*
X44075Y9169D01*
X44726Y9604D01*
X45161Y10255D01*
X45314Y11024D01*
X45161Y11792D01*
X44726Y12443D01*
X44075Y12878D01*
X43307Y13031D01*
D02*
G37*
G36*
X-88976Y12637D02*
X-89744Y12485D01*
X-90395Y12049D01*
X-90830Y11398D01*
X-90983Y10630D01*
X-90830Y9862D01*
X-90395Y9211D01*
X-89744Y8776D01*
X-88976Y8623D01*
X-88208Y8776D01*
X-87556Y9211D01*
X-87121Y9862D01*
X-86968Y10630D01*
X-87121Y11398D01*
X-87556Y12049D01*
X-88208Y12485D01*
X-88976Y12637D01*
D02*
G37*
G36*
X77578Y15289D02*
X76718Y15098D01*
X75936Y14691D01*
X75287Y14096D01*
X74813Y13353D01*
X74548Y12513D01*
X74510Y11632D01*
X74700Y10772D01*
X75107Y9990D01*
X75703Y9341D01*
X76446Y8867D01*
X77286Y8602D01*
X78166Y8564D01*
X79027Y8755D01*
X79808Y9162D01*
X80458Y9757D01*
X80931Y10500D01*
X81196Y11340D01*
X81235Y12221D01*
X81044Y13081D01*
X80637Y13862D01*
X80042Y14512D01*
X79299Y14986D01*
X78458Y15250D01*
X77578Y15289D01*
D02*
G37*
G36*
X-4724Y52008D02*
X-5492Y51855D01*
X-6143Y51420D01*
X-6286Y51205D01*
X-9042D01*
X-9503Y51113D01*
X-9894Y50852D01*
X-31230Y29516D01*
X-31483Y29566D01*
X-32251Y29414D01*
X-32903Y28979D01*
X-33338Y28328D01*
X-33490Y27560D01*
X-33338Y26791D01*
X-32903Y26140D01*
X-32251Y25705D01*
X-31483Y25552D01*
X-30715Y25705D01*
X-30064Y26140D01*
X-29629Y26791D01*
X-29476Y27560D01*
X-29527Y27813D01*
X-8544Y48796D01*
X-6286D01*
X-6143Y48581D01*
X-5492Y48146D01*
X-4724Y47993D01*
X-3956Y48146D01*
X-3304Y48581D01*
X-2869Y49232D01*
X-2717Y50000D01*
X-2869Y50769D01*
X-3304Y51420D01*
X-3956Y51855D01*
X-4724Y52008D01*
D02*
G37*
G36*
X126710Y49901D02*
X125799Y49699D01*
X125676Y49635D01*
X127215Y47438D01*
X129412Y48976D01*
X129319Y49079D01*
X128532Y49580D01*
X127642Y49861D01*
X126710Y49901D01*
D02*
G37*
G36*
X124386Y48732D02*
X124284Y48638D01*
X123782Y47851D01*
X123502Y46962D01*
X123461Y46030D01*
X123663Y45119D01*
X123727Y44996D01*
X125925Y46534D01*
X124386Y48732D01*
D02*
G37*
G36*
X134919Y55439D02*
X134058Y55249D01*
X133277Y54842D01*
X132627Y54246D01*
X132154Y53503D01*
X131889Y52663D01*
X131850Y51783D01*
X132041Y50922D01*
X132448Y50141D01*
X133043Y49491D01*
X133786Y49018D01*
X134627Y48753D01*
X135507Y48714D01*
X136367Y48905D01*
X137149Y49312D01*
X137799Y49907D01*
X138272Y50650D01*
X138537Y51491D01*
X138575Y52371D01*
X138385Y53231D01*
X137978Y54013D01*
X137382Y54663D01*
X136639Y55136D01*
X135799Y55401D01*
X134919Y55439D01*
D02*
G37*
G36*
X-87601Y69933D02*
X-92373D01*
Y63297D01*
X-91722Y63382D01*
X-90381Y63938D01*
X-89230Y64821D01*
X-88346Y65973D01*
X-87791Y67313D01*
X-87601Y68752D01*
Y69933D01*
D02*
G37*
G36*
X-93948D02*
X-98720D01*
Y68752D01*
X-98531Y67313D01*
X-97975Y65973D01*
X-97092Y64821D01*
X-95940Y63938D01*
X-94599Y63382D01*
X-93948Y63297D01*
Y69933D01*
D02*
G37*
G36*
X-49066Y69933D02*
X-53838D01*
Y68752D01*
X-53649Y67313D01*
X-53093Y65973D01*
X-52210Y64821D01*
X-51058Y63938D01*
X-49718Y63382D01*
X-49066Y63297D01*
Y69933D01*
D02*
G37*
G36*
X130316Y47686D02*
X128118Y46148D01*
X129657Y43950D01*
X129759Y44044D01*
X130260Y44831D01*
X130541Y45720D01*
X130582Y46652D01*
X130380Y47563D01*
X130316Y47686D01*
D02*
G37*
G36*
X-76695Y42374D02*
X-79775D01*
Y39294D01*
X-79535Y39326D01*
X-78577Y39723D01*
X-77754Y40354D01*
X-77123Y41176D01*
X-76727Y42134D01*
X-76695Y42374D01*
D02*
G37*
G36*
X118536Y43968D02*
X117675Y43777D01*
X116894Y43370D01*
X116244Y42775D01*
X115771Y42032D01*
X115506Y41191D01*
X115467Y40311D01*
X115658Y39451D01*
X116065Y38669D01*
X116660Y38020D01*
X117403Y37546D01*
X118244Y37281D01*
X119124Y37243D01*
X119984Y37433D01*
X120766Y37840D01*
X121415Y38436D01*
X121889Y39179D01*
X122154Y40019D01*
X122192Y40900D01*
X122002Y41760D01*
X121595Y42541D01*
X121000Y43191D01*
X120256Y43664D01*
X119416Y43929D01*
X118536Y43968D01*
D02*
G37*
G36*
X110344Y38232D02*
X109484Y38041D01*
X108702Y37634D01*
X108053Y37039D01*
X107579Y36296D01*
X107314Y35456D01*
X107276Y34575D01*
X107467Y33715D01*
X107873Y32934D01*
X108469Y32284D01*
X109212Y31810D01*
X110052Y31545D01*
X110933Y31507D01*
X111793Y31698D01*
X112574Y32105D01*
X113224Y32700D01*
X113697Y33443D01*
X113962Y34283D01*
X114001Y35164D01*
X113810Y36024D01*
X113403Y36805D01*
X112808Y37455D01*
X112065Y37929D01*
X111224Y38194D01*
X110344Y38232D01*
D02*
G37*
G36*
X-81350Y42374D02*
X-84430D01*
X-84398Y42134D01*
X-84001Y41176D01*
X-83370Y40354D01*
X-82548Y39723D01*
X-81590Y39326D01*
X-81350Y39294D01*
Y42374D01*
D02*
G37*
G36*
X-79775Y47029D02*
Y43949D01*
X-76695D01*
X-76727Y44190D01*
X-77123Y45147D01*
X-77754Y45970D01*
X-78577Y46601D01*
X-79535Y46997D01*
X-79775Y47029D01*
D02*
G37*
G36*
X-81350Y47029D02*
X-81590Y46997D01*
X-82548Y46601D01*
X-83370Y45970D01*
X-84001Y45147D01*
X-84398Y44190D01*
X-84430Y43949D01*
X-81350D01*
Y47029D01*
D02*
G37*
G36*
X126828Y45244D02*
X124630Y43706D01*
X124724Y43603D01*
X125511Y43102D01*
X126401Y42821D01*
X127333Y42781D01*
X128244Y42983D01*
X128367Y43047D01*
X126828Y45244D01*
D02*
G37*
%LPD*%
D10*
X102363Y102363D02*
D03*
X-102361Y-102362D02*
D03*
D48*
X-31889Y-41338D02*
X-23621D01*
X-33464Y-39763D02*
X-31889Y-41338D01*
X-33464Y-39763D02*
Y-21653D01*
X-35432Y-19685D02*
X-33464Y-21653D01*
X1969Y-46063D02*
X7087Y-51181D01*
X-43700Y-46063D02*
X1969D01*
X-51180Y-38582D02*
X-43700Y-46063D01*
X-11417Y788D02*
X-2361Y9843D01*
X-34727Y788D02*
X-11417D01*
X-40001Y6062D02*
X-34727Y788D01*
X-44094Y6300D02*
X-36220Y-1574D01*
X-16141D02*
X-9842Y-7874D01*
X-36220Y-1574D02*
X-16141D01*
X-80864Y-34801D02*
X-52361Y-6299D01*
X-81413Y-34252D02*
X-80864Y-34801D01*
X-81413Y-34252D02*
X-81102D01*
X-78739Y-37401D02*
Y-37007D01*
X-59448Y-17716D01*
X-24802Y5512D02*
X13780Y44095D01*
X-44094Y6300D02*
Y21260D01*
X-60877Y38044D02*
X-44094Y21260D01*
X-60877Y38044D02*
Y43162D01*
X7087Y-64960D02*
Y-51181D01*
X13780Y44095D02*
Y95276D01*
X-13779Y-65354D02*
X-7480D01*
X-20078Y-59055D02*
X-13779Y-65354D01*
X-46850Y-13385D02*
X-45275D01*
X-51180Y-17716D02*
X-46850Y-13385D01*
X-139645Y-38976D02*
X-131889Y-31220D01*
Y32284D01*
X-134645Y35040D02*
X-131889Y32284D01*
X-9042Y50000D02*
X-4724D01*
X-31483Y27560D02*
X-9042Y50000D01*
X-103936Y36615D02*
X-102755Y35434D01*
X7481Y-5118D02*
X14961Y-12598D01*
Y-32283D02*
Y-12598D01*
X80564Y-98279D02*
Y-69539D01*
X13387Y-36220D02*
X47245D01*
X11418Y-34252D02*
X13387Y-36220D01*
X11418Y-34252D02*
Y-12598D01*
X6694Y-7874D02*
X11418Y-12598D01*
X-9842Y-7874D02*
X6694D01*
X-18503Y-72047D02*
X-17716Y-71259D01*
X-35826Y-72047D02*
X-18503D01*
X17324Y-83858D02*
X23623D01*
X14961Y-81496D02*
X17324Y-83858D01*
X14961Y-81496D02*
Y-45669D01*
X19502Y-60052D02*
X23526D01*
X17717Y-58267D02*
X19502Y-60052D01*
X17717Y-58267D02*
Y-43700D01*
X6300Y-11811D02*
X9056Y-14567D01*
Y-35039D02*
Y-14567D01*
Y-35039D02*
X17717Y-43700D01*
X-1968Y-11417D02*
X6300Y-19685D01*
Y-37007D02*
Y-19685D01*
Y-37007D02*
X14961Y-45669D01*
X-13779Y-11417D02*
X-1968D01*
X-103936Y77560D02*
X-102361Y79134D01*
X-98818D01*
X-59448Y-17716D02*
X-59054D01*
X-103936Y36615D02*
Y77560D01*
X-41732Y-35433D02*
Y-27559D01*
X-36220Y-35433D02*
Y-27559D01*
X-46850Y-35433D02*
X-46456Y-35039D01*
Y-27559D01*
X-17322Y-30315D02*
X-3936D01*
X-24802Y-22834D02*
X-17322Y-30315D01*
X25198Y-22441D02*
Y-22273D01*
X-19291Y-10629D02*
Y-4724D01*
Y-10629D02*
X1576Y-31496D01*
Y-33070D02*
Y-31496D01*
X-31495Y-35433D02*
Y-15748D01*
Y-35433D02*
X-29527Y-37401D01*
X-51180Y-38582D02*
Y-17716D01*
X395Y-2362D02*
X25198D01*
X-2755Y788D02*
X395Y-2362D01*
X-2755Y788D02*
X-2755D01*
X37009Y70225D02*
Y105120D01*
Y70225D02*
X37148Y70086D01*
X47245Y-36220D02*
X80564Y-69539D01*
X36220Y4557D02*
X37121Y3657D01*
X36220Y4557D02*
Y10630D01*
D49*
X25198Y-2362D02*
Y28966D01*
X61694Y-25846D02*
Y-21771D01*
X56694Y-25846D02*
Y-21654D01*
Y-31495D02*
Y-30846D01*
X53937Y-34252D02*
X56694Y-31495D01*
X59055Y-34252D02*
X61694Y-31613D01*
Y-30846D01*
X-20865Y-53937D02*
X-14173Y-60629D01*
X-20865Y-53937D02*
Y-53543D01*
X-11417Y-60629D02*
X-11023Y-60236D01*
X-14173Y-60629D02*
X-11417D01*
D52*
X-140944Y48426D02*
X-123228Y30709D01*
X-70865Y19685D02*
X-66535D01*
X-77165D02*
X-70865D01*
X-90550Y33071D02*
X-77165Y19685D01*
X-48031Y-10629D02*
Y18898D01*
Y-10629D02*
X-45275Y-13385D01*
X-73228Y35434D02*
X-53149Y15355D01*
Y-787D02*
Y15355D01*
X-87795Y-35433D02*
X-53149Y-787D01*
X-73228Y35434D02*
Y76378D01*
X-67716Y38583D02*
X-48031Y18898D01*
X-67716Y38583D02*
Y74410D01*
X-99310Y33071D02*
X-90550D01*
X-101672Y30709D02*
X-99310Y33071D01*
X-123228Y30709D02*
X-101672D01*
X-42499Y114063D02*
X-5007D01*
X1Y109055D01*
Y74796D02*
Y109055D01*
X-42499Y99626D02*
Y114063D01*
X-48141Y121937D02*
X-42499D01*
X-51574Y118504D02*
X-48141Y121937D01*
X-51574Y98032D02*
Y118504D01*
X-87795Y-54724D02*
X-62787Y-79732D01*
X1D01*
X-87795Y-54724D02*
Y-35433D01*
X-73228Y76378D02*
X-51574Y98032D01*
X-67716Y74410D02*
X-42499Y99626D01*
D53*
X94489Y110237D02*
D03*
X86298Y104501D02*
D03*
X78106Y98765D02*
D03*
X69914Y93029D02*
D03*
X61723Y87294D02*
D03*
X53531Y81558D02*
D03*
X45340Y75822D02*
D03*
X77872Y11926D02*
D03*
X86064Y17662D02*
D03*
X94255Y23398D02*
D03*
X102447Y29134D02*
D03*
X110638Y34870D02*
D03*
X118830Y40605D02*
D03*
X127021Y46341D02*
D03*
X135213Y52077D02*
D03*
D54*
X37148Y70086D02*
D03*
D55*
X-141692Y17008D02*
D03*
Y-17007D02*
D03*
X-156653Y17008D02*
D03*
Y-17007D02*
D03*
D56*
X-42499Y114063D02*
D03*
X86277Y-13068D02*
D03*
D57*
X-42499Y121937D02*
D03*
D58*
X80564Y-41192D02*
D03*
X60879D02*
D03*
X70721D02*
D03*
X80564Y-98279D02*
D03*
X60879D02*
D03*
X-60877Y100248D02*
D03*
X-80562D02*
D03*
X-70720D02*
D03*
X-60877Y43162D02*
D03*
X-80562D02*
D03*
X-129645Y-38976D02*
D03*
D59*
X93162Y-70720D02*
D03*
X48280D02*
D03*
X-48279Y70721D02*
D03*
X-93161D02*
D03*
D60*
X79866Y-17640D02*
D03*
D61*
X118111Y0D02*
D03*
X-118110D02*
D03*
D62*
X-139645Y-38976D02*
D03*
D63*
X25198Y28966D02*
D03*
X37121Y3657D02*
D03*
X59449Y-7087D02*
D03*
X61694Y-21771D02*
D03*
X56694Y-21654D02*
D03*
X59055Y-34252D02*
D03*
X53937D02*
D03*
X-23621Y-41338D02*
D03*
X-35432Y-19685D02*
D03*
X-20865Y-53543D02*
D03*
X-16684Y-52511D02*
D03*
X-11023Y-60236D02*
D03*
X-40001Y6062D02*
D03*
X-24802Y3937D02*
D03*
X-81102Y-34252D02*
D03*
X-78739Y-37401D02*
D03*
X-75590Y-40551D02*
D03*
X-52361Y-6299D02*
D03*
X-66535Y19685D02*
D03*
X-70865D02*
D03*
X13780Y95276D02*
D03*
X-98818Y94095D02*
D03*
X-88976Y10630D02*
D03*
X-7480Y-65354D02*
D03*
X7087Y-64960D02*
D03*
X-45275Y-13385D02*
D03*
X-134645Y35040D02*
D03*
X27560Y88977D02*
D03*
X8269Y103150D02*
D03*
X-16928Y69685D02*
D03*
X-4724Y50000D02*
D03*
X-31483Y27560D02*
D03*
X1Y34646D02*
D03*
X-2361Y9843D02*
D03*
X-15747Y29528D02*
D03*
X-9054Y27953D02*
D03*
X-30708Y54331D02*
D03*
X-102755Y35434D02*
D03*
X-40944Y39764D02*
D03*
X14961Y-32283D02*
D03*
X-20078Y-59055D02*
D03*
X-22047Y-63385D02*
D03*
X-17716Y-71259D02*
D03*
X-19783Y-67224D02*
D03*
X7481Y-5118D02*
D03*
X38190Y-51968D02*
D03*
X33072Y-51181D02*
D03*
X23526Y-60052D02*
D03*
X23623Y-83858D02*
D03*
X25198Y-76771D02*
D03*
X38190Y-75984D02*
D03*
X6300Y-11811D02*
D03*
X-140944Y48426D02*
D03*
Y52363D02*
D03*
X-115354Y41339D02*
D03*
X-129133Y46851D02*
D03*
X-109842Y61418D02*
D03*
Y54331D02*
D03*
X-127558D02*
D03*
Y61418D02*
D03*
X-134842Y10827D02*
D03*
Y-10826D02*
D03*
X-146456Y27953D02*
D03*
X-136220Y26378D02*
D03*
X-137401Y-21653D02*
D03*
X-113779Y26378D02*
D03*
X-98818Y79134D02*
D03*
X-96554Y19784D02*
D03*
X-95602Y28674D02*
D03*
X-46062Y-92913D02*
D03*
X-43306Y-95669D02*
D03*
X-40550Y-98425D02*
D03*
X-37401Y-101181D02*
D03*
X-59054Y-17716D02*
D03*
X-48424Y-10236D02*
D03*
X-5117Y-119291D02*
D03*
Y-123622D02*
D03*
X5119Y-119291D02*
D03*
Y-123622D02*
D03*
X16930Y-108661D02*
D03*
X-2239Y-106177D02*
D03*
X-32676Y-69291D02*
D03*
X-36220Y-71653D02*
D03*
X-48424Y-57480D02*
D03*
X-44881Y-49606D02*
D03*
X-43306Y-62992D02*
D03*
X-20865Y-49606D02*
D03*
X-36220Y-35433D02*
D03*
X-41732Y-27559D02*
D03*
Y-35433D02*
D03*
X-36220Y-27559D02*
D03*
X-21259Y-19291D02*
D03*
X-13779Y-11417D02*
D03*
X-46850Y-35433D02*
D03*
X-46456Y-27559D02*
D03*
X-24802Y-22834D02*
D03*
X-6692Y-52195D02*
D03*
X-15346Y-35433D02*
D03*
X4332Y-41338D02*
D03*
X-11190Y-24015D02*
D03*
X-3936Y-30315D02*
D03*
X22442Y-25364D02*
D03*
X25198Y-22273D02*
D03*
X-19291Y-4724D02*
D03*
X1576Y-33070D02*
D03*
X-31495Y-15748D02*
D03*
X-29527Y-37401D02*
D03*
X21654Y14567D02*
D03*
X7087Y1658D02*
D03*
X3150Y1340D02*
D03*
X25198Y-2362D02*
D03*
X-2755Y788D02*
D03*
X17324Y78741D02*
D03*
X37009Y105120D02*
D03*
X51575Y-40551D02*
D03*
X-30709Y11811D02*
D03*
X36220Y10630D02*
D03*
X43307Y11024D02*
D03*
D64*
X-76772Y9843D02*
D03*
X-80709Y5906D02*
D03*
X-84646Y1969D02*
D03*
X-72835Y13780D02*
D03*
X-68898Y9843D02*
D03*
X-66929Y13780D02*
D03*
X-59449Y5906D02*
D03*
X-62992Y3937D02*
D03*
X-80709Y0D02*
D03*
X-76772Y-3937D02*
D03*
X-72835Y-7874D02*
D03*
X-70866Y-11811D02*
D03*
X-66929Y-7874D02*
D03*
X-62992Y-3937D02*
D03*
X-59055Y0D02*
D03*
D65*
X61694Y-30846D02*
D03*
Y-25846D02*
D03*
X56694Y-30846D02*
D03*
Y-25846D02*
D03*
X51694Y-30846D02*
D03*
Y-25846D02*
D03*
D66*
X1Y137788D02*
D03*
Y-138787D02*
D03*
D67*
Y74796D02*
D03*
Y-75795D02*
D03*
M02*
