G04*
G04 #@! TF.GenerationSoftware,Altium Limited,CircuitStudio,1.5.2 (30)*
G04*
G04 Layer_Color=20142*
%FSLAX25Y25*%
%MOIN*%
G70*
G01*
G75*
G04:AMPARAMS|DCode=110|XSize=33.86mil|YSize=90.55mil|CornerRadius=0mil|HoleSize=0mil|Usage=FLASHONLY|Rotation=135.000|XOffset=0mil|YOffset=0mil|HoleType=Round|Shape=Rectangle|*
%AMROTATEDRECTD110*
4,1,4,0.04399,0.02004,-0.02004,-0.04399,-0.04399,-0.02004,0.02004,0.04399,0.04399,0.02004,0.0*
%
%ADD110ROTATEDRECTD110*%

%ADD111C,0.04331*%
G04:AMPARAMS|DCode=112|XSize=11.81mil|YSize=37.4mil|CornerRadius=3.94mil|HoleSize=0mil|Usage=FLASHONLY|Rotation=90.000|XOffset=0mil|YOffset=0mil|HoleType=Round|Shape=RoundedRectangle|*
%AMROUNDEDRECTD112*
21,1,0.01181,0.02953,0,0,90.0*
21,1,0.00394,0.03740,0,0,90.0*
1,1,0.00787,0.01476,0.00197*
1,1,0.00787,0.01476,-0.00197*
1,1,0.00787,-0.01476,-0.00197*
1,1,0.00787,-0.01476,0.00197*
%
%ADD112ROUNDEDRECTD112*%
G04:AMPARAMS|DCode=113|XSize=11.81mil|YSize=37.4mil|CornerRadius=3.94mil|HoleSize=0mil|Usage=FLASHONLY|Rotation=0.000|XOffset=0mil|YOffset=0mil|HoleType=Round|Shape=RoundedRectangle|*
%AMROUNDEDRECTD113*
21,1,0.01181,0.02953,0,0,0.0*
21,1,0.00394,0.03740,0,0,0.0*
1,1,0.00787,0.00197,-0.01476*
1,1,0.00787,-0.00197,-0.01476*
1,1,0.00787,-0.00197,0.01476*
1,1,0.00787,0.00197,0.01476*
%
%ADD113ROUNDEDRECTD113*%
%ADD114R,0.10827X0.10827*%
G04:AMPARAMS|DCode=115|XSize=57.09mil|YSize=19.69mil|CornerRadius=5.91mil|HoleSize=0mil|Usage=FLASHONLY|Rotation=225.000|XOffset=0mil|YOffset=0mil|HoleType=Round|Shape=RoundedRectangle|*
%AMROUNDEDRECTD115*
21,1,0.05709,0.00787,0,0,225.0*
21,1,0.04528,0.01969,0,0,225.0*
1,1,0.01181,-0.01879,-0.01322*
1,1,0.01181,0.01322,0.01879*
1,1,0.01181,0.01879,0.01322*
1,1,0.01181,-0.01322,-0.01879*
%
%ADD115ROUNDEDRECTD115*%
G04:AMPARAMS|DCode=116|XSize=45.28mil|YSize=21.65mil|CornerRadius=6.4mil|HoleSize=0mil|Usage=FLASHONLY|Rotation=0.000|XOffset=0mil|YOffset=0mil|HoleType=Round|Shape=RoundedRectangle|*
%AMROUNDEDRECTD116*
21,1,0.04528,0.00886,0,0,0.0*
21,1,0.03248,0.02165,0,0,0.0*
1,1,0.01280,0.01624,-0.00443*
1,1,0.01280,-0.01624,-0.00443*
1,1,0.01280,-0.01624,0.00443*
1,1,0.01280,0.01624,0.00443*
%
%ADD116ROUNDEDRECTD116*%
G04:AMPARAMS|DCode=117|XSize=45.28mil|YSize=21.65mil|CornerRadius=6.4mil|HoleSize=0mil|Usage=FLASHONLY|Rotation=225.000|XOffset=0mil|YOffset=0mil|HoleType=Round|Shape=RoundedRectangle|*
%AMROUNDEDRECTD117*
21,1,0.04528,0.00886,0,0,225.0*
21,1,0.03248,0.02165,0,0,225.0*
1,1,0.01280,-0.01462,-0.00835*
1,1,0.01280,0.00835,0.01462*
1,1,0.01280,0.01462,0.00835*
1,1,0.01280,-0.00835,-0.01462*
%
%ADD117ROUNDEDRECTD117*%
G04:AMPARAMS|DCode=118|XSize=43.31mil|YSize=31.5mil|CornerRadius=8.86mil|HoleSize=0mil|Usage=FLASHONLY|Rotation=90.000|XOffset=0mil|YOffset=0mil|HoleType=Round|Shape=RoundedRectangle|*
%AMROUNDEDRECTD118*
21,1,0.04331,0.01378,0,0,90.0*
21,1,0.02559,0.03150,0,0,90.0*
1,1,0.01772,0.00689,0.01280*
1,1,0.01772,0.00689,-0.01280*
1,1,0.01772,-0.00689,-0.01280*
1,1,0.01772,-0.00689,0.01280*
%
%ADD118ROUNDEDRECTD118*%
G04:AMPARAMS|DCode=119|XSize=43.31mil|YSize=31.5mil|CornerRadius=8.86mil|HoleSize=0mil|Usage=FLASHONLY|Rotation=0.000|XOffset=0mil|YOffset=0mil|HoleType=Round|Shape=RoundedRectangle|*
%AMROUNDEDRECTD119*
21,1,0.04331,0.01378,0,0,0.0*
21,1,0.02559,0.03150,0,0,0.0*
1,1,0.01772,0.01280,-0.00689*
1,1,0.01772,-0.01280,-0.00689*
1,1,0.01772,-0.01280,0.00689*
1,1,0.01772,0.01280,0.00689*
%
%ADD119ROUNDEDRECTD119*%
%ADD120R,0.14173X0.10630*%
G04:AMPARAMS|DCode=121|XSize=64.96mil|YSize=27.56mil|CornerRadius=7.87mil|HoleSize=0mil|Usage=FLASHONLY|Rotation=90.000|XOffset=0mil|YOffset=0mil|HoleType=Round|Shape=RoundedRectangle|*
%AMROUNDEDRECTD121*
21,1,0.06496,0.01181,0,0,90.0*
21,1,0.04921,0.02756,0,0,90.0*
1,1,0.01575,0.00591,0.02461*
1,1,0.01575,0.00591,-0.02461*
1,1,0.01575,-0.00591,-0.02461*
1,1,0.01575,-0.00591,0.02461*
%
%ADD121ROUNDEDRECTD121*%
G04:AMPARAMS|DCode=122|XSize=86.61mil|YSize=114.17mil|CornerRadius=22.64mil|HoleSize=0mil|Usage=FLASHONLY|Rotation=315.000|XOffset=0mil|YOffset=0mil|HoleType=Round|Shape=RoundedRectangle|*
%AMROUNDEDRECTD122*
21,1,0.08661,0.06890,0,0,315.0*
21,1,0.04134,0.11417,0,0,315.0*
1,1,0.04528,-0.00974,-0.03897*
1,1,0.04528,-0.03897,-0.00974*
1,1,0.04528,0.00974,0.03897*
1,1,0.04528,0.03897,0.00974*
%
%ADD122ROUNDEDRECTD122*%
G04:AMPARAMS|DCode=123|XSize=27.56mil|YSize=78.74mil|CornerRadius=7.87mil|HoleSize=0mil|Usage=FLASHONLY|Rotation=135.000|XOffset=0mil|YOffset=0mil|HoleType=Round|Shape=RoundedRectangle|*
%AMROUNDEDRECTD123*
21,1,0.02756,0.06299,0,0,135.0*
21,1,0.01181,0.07874,0,0,135.0*
1,1,0.01575,0.01810,0.02645*
1,1,0.01575,0.02645,0.01810*
1,1,0.01575,-0.01810,-0.02645*
1,1,0.01575,-0.02645,-0.01810*
%
%ADD123ROUNDEDRECTD123*%
G04:AMPARAMS|DCode=124|XSize=27.56mil|YSize=27.56mil|CornerRadius=7.87mil|HoleSize=0mil|Usage=FLASHONLY|Rotation=90.000|XOffset=0mil|YOffset=0mil|HoleType=Round|Shape=RoundedRectangle|*
%AMROUNDEDRECTD124*
21,1,0.02756,0.01181,0,0,90.0*
21,1,0.01181,0.02756,0,0,90.0*
1,1,0.01575,0.00591,0.00591*
1,1,0.01575,0.00591,-0.00591*
1,1,0.01575,-0.00591,-0.00591*
1,1,0.01575,-0.00591,0.00591*
%
%ADD124ROUNDEDRECTD124*%
G04:AMPARAMS|DCode=125|XSize=82.68mil|YSize=128.74mil|CornerRadius=21.65mil|HoleSize=0mil|Usage=FLASHONLY|Rotation=225.000|XOffset=0mil|YOffset=0mil|HoleType=Round|Shape=RoundedRectangle|*
%AMROUNDEDRECTD125*
21,1,0.08268,0.08543,0,0,225.0*
21,1,0.03937,0.12874,0,0,225.0*
1,1,0.04331,-0.04413,0.01629*
1,1,0.04331,-0.01629,0.04413*
1,1,0.04331,0.04413,-0.01629*
1,1,0.04331,0.01629,-0.04413*
%
%ADD125ROUNDEDRECTD125*%
G04:AMPARAMS|DCode=126|XSize=27.56mil|YSize=27.56mil|CornerRadius=7.87mil|HoleSize=0mil|Usage=FLASHONLY|Rotation=315.000|XOffset=0mil|YOffset=0mil|HoleType=Round|Shape=RoundedRectangle|*
%AMROUNDEDRECTD126*
21,1,0.02756,0.01181,0,0,315.0*
21,1,0.01181,0.02756,0,0,315.0*
1,1,0.01575,0.00000,-0.00835*
1,1,0.01575,-0.00835,0.00000*
1,1,0.01575,0.00000,0.00835*
1,1,0.01575,0.00835,0.00000*
%
%ADD126ROUNDEDRECTD126*%
G04:AMPARAMS|DCode=127|XSize=43.31mil|YSize=74.8mil|CornerRadius=11.81mil|HoleSize=0mil|Usage=FLASHONLY|Rotation=135.000|XOffset=0mil|YOffset=0mil|HoleType=Round|Shape=RoundedRectangle|*
%AMROUNDEDRECTD127*
21,1,0.04331,0.05118,0,0,135.0*
21,1,0.01969,0.07480,0,0,135.0*
1,1,0.02362,0.01114,0.02506*
1,1,0.02362,0.02506,0.01114*
1,1,0.02362,-0.01114,-0.02506*
1,1,0.02362,-0.02506,-0.01114*
%
%ADD127ROUNDEDRECTD127*%
G04:AMPARAMS|DCode=128|XSize=27.56mil|YSize=27.56mil|CornerRadius=7.87mil|HoleSize=0mil|Usage=FLASHONLY|Rotation=45.000|XOffset=0mil|YOffset=0mil|HoleType=Round|Shape=RoundedRectangle|*
%AMROUNDEDRECTD128*
21,1,0.02756,0.01181,0,0,45.0*
21,1,0.01181,0.02756,0,0,45.0*
1,1,0.01575,0.00835,0.00000*
1,1,0.01575,0.00000,-0.00835*
1,1,0.01575,-0.00835,0.00000*
1,1,0.01575,0.00000,0.00835*
%
%ADD128ROUNDEDRECTD128*%
G04:AMPARAMS|DCode=129|XSize=45.28mil|YSize=29.53mil|CornerRadius=8.37mil|HoleSize=0mil|Usage=FLASHONLY|Rotation=45.000|XOffset=0mil|YOffset=0mil|HoleType=Round|Shape=RoundedRectangle|*
%AMROUNDEDRECTD129*
21,1,0.04528,0.01280,0,0,45.0*
21,1,0.02854,0.02953,0,0,45.0*
1,1,0.01673,0.01462,0.00557*
1,1,0.01673,-0.00557,-0.01462*
1,1,0.01673,-0.01462,-0.00557*
1,1,0.01673,0.00557,0.01462*
%
%ADD129ROUNDEDRECTD129*%
G04:AMPARAMS|DCode=130|XSize=36.61mil|YSize=24.41mil|CornerRadius=7.09mil|HoleSize=0mil|Usage=FLASHONLY|Rotation=0.000|XOffset=0mil|YOffset=0mil|HoleType=Round|Shape=RoundedRectangle|*
%AMROUNDEDRECTD130*
21,1,0.03661,0.01024,0,0,0.0*
21,1,0.02244,0.02441,0,0,0.0*
1,1,0.01417,0.01122,-0.00512*
1,1,0.01417,-0.01122,-0.00512*
1,1,0.01417,-0.01122,0.00512*
1,1,0.01417,0.01122,0.00512*
%
%ADD130ROUNDEDRECTD130*%
G04:AMPARAMS|DCode=131|XSize=33.47mil|YSize=43.31mil|CornerRadius=9.35mil|HoleSize=0mil|Usage=FLASHONLY|Rotation=215.000|XOffset=0mil|YOffset=0mil|HoleType=Round|Shape=RoundedRectangle|*
%AMROUNDEDRECTD131*
21,1,0.03347,0.02461,0,0,215.0*
21,1,0.01476,0.04331,0,0,215.0*
1,1,0.01870,-0.01310,0.00584*
1,1,0.01870,-0.00101,0.01431*
1,1,0.01870,0.01310,-0.00584*
1,1,0.01870,0.00101,-0.01431*
%
%ADD131ROUNDEDRECTD131*%
G04:AMPARAMS|DCode=132|XSize=27.56mil|YSize=27.56mil|CornerRadius=7.87mil|HoleSize=0mil|Usage=FLASHONLY|Rotation=35.000|XOffset=0mil|YOffset=0mil|HoleType=Round|Shape=RoundedRectangle|*
%AMROUNDEDRECTD132*
21,1,0.02756,0.01181,0,0,35.0*
21,1,0.01181,0.02756,0,0,35.0*
1,1,0.01575,0.00823,-0.00145*
1,1,0.01575,-0.00145,-0.00823*
1,1,0.01575,-0.00823,0.00145*
1,1,0.01575,0.00145,0.00823*
%
%ADD132ROUNDEDRECTD132*%
G04:AMPARAMS|DCode=133|XSize=27.56mil|YSize=27.56mil|CornerRadius=7.87mil|HoleSize=0mil|Usage=FLASHONLY|Rotation=180.000|XOffset=0mil|YOffset=0mil|HoleType=Round|Shape=RoundedRectangle|*
%AMROUNDEDRECTD133*
21,1,0.02756,0.01181,0,0,180.0*
21,1,0.01181,0.02756,0,0,180.0*
1,1,0.01575,-0.00591,0.00591*
1,1,0.01575,0.00591,0.00591*
1,1,0.01575,0.00591,-0.00591*
1,1,0.01575,-0.00591,-0.00591*
%
%ADD133ROUNDEDRECTD133*%
G04:AMPARAMS|DCode=134|XSize=39.37mil|YSize=35.43mil|CornerRadius=9.84mil|HoleSize=0mil|Usage=FLASHONLY|Rotation=0.000|XOffset=0mil|YOffset=0mil|HoleType=Round|Shape=RoundedRectangle|*
%AMROUNDEDRECTD134*
21,1,0.03937,0.01575,0,0,0.0*
21,1,0.01969,0.03543,0,0,0.0*
1,1,0.01969,0.00984,-0.00787*
1,1,0.01969,-0.00984,-0.00787*
1,1,0.01969,-0.00984,0.00787*
1,1,0.01969,0.00984,0.00787*
%
%ADD134ROUNDEDRECTD134*%
G04:AMPARAMS|DCode=135|XSize=31.5mil|YSize=31.5mil|CornerRadius=8.86mil|HoleSize=0mil|Usage=FLASHONLY|Rotation=270.000|XOffset=0mil|YOffset=0mil|HoleType=Round|Shape=RoundedRectangle|*
%AMROUNDEDRECTD135*
21,1,0.03150,0.01378,0,0,270.0*
21,1,0.01378,0.03150,0,0,270.0*
1,1,0.01772,-0.00689,-0.00689*
1,1,0.01772,-0.00689,0.00689*
1,1,0.01772,0.00689,0.00689*
1,1,0.01772,0.00689,-0.00689*
%
%ADD135ROUNDEDRECTD135*%
G04:AMPARAMS|DCode=136|XSize=35.43mil|YSize=23.62mil|CornerRadius=6.89mil|HoleSize=0mil|Usage=FLASHONLY|Rotation=225.000|XOffset=0mil|YOffset=0mil|HoleType=Round|Shape=RoundedRectangle|*
%AMROUNDEDRECTD136*
21,1,0.03543,0.00984,0,0,225.0*
21,1,0.02165,0.02362,0,0,225.0*
1,1,0.01378,-0.01114,-0.00418*
1,1,0.01378,0.00418,0.01114*
1,1,0.01378,0.01114,0.00418*
1,1,0.01378,-0.00418,-0.01114*
%
%ADD136ROUNDEDRECTD136*%
G04:AMPARAMS|DCode=137|XSize=31.5mil|YSize=31.5mil|CornerRadius=8.86mil|HoleSize=0mil|Usage=FLASHONLY|Rotation=135.000|XOffset=0mil|YOffset=0mil|HoleType=Round|Shape=RoundedRectangle|*
%AMROUNDEDRECTD137*
21,1,0.03150,0.01378,0,0,135.0*
21,1,0.01378,0.03150,0,0,135.0*
1,1,0.01772,0.00000,0.00974*
1,1,0.01772,0.00974,0.00000*
1,1,0.01772,0.00000,-0.00974*
1,1,0.01772,-0.00974,0.00000*
%
%ADD137ROUNDEDRECTD137*%
G04:AMPARAMS|DCode=138|XSize=36.61mil|YSize=24.41mil|CornerRadius=7.09mil|HoleSize=0mil|Usage=FLASHONLY|Rotation=45.000|XOffset=0mil|YOffset=0mil|HoleType=Round|Shape=RoundedRectangle|*
%AMROUNDEDRECTD138*
21,1,0.03661,0.01024,0,0,45.0*
21,1,0.02244,0.02441,0,0,45.0*
1,1,0.01417,0.01155,0.00432*
1,1,0.01417,-0.00432,-0.01155*
1,1,0.01417,-0.01155,-0.00432*
1,1,0.01417,0.00432,0.01155*
%
%ADD138ROUNDEDRECTD138*%
G04:AMPARAMS|DCode=139|XSize=33.47mil|YSize=43.31mil|CornerRadius=9.35mil|HoleSize=0mil|Usage=FLASHONLY|Rotation=180.000|XOffset=0mil|YOffset=0mil|HoleType=Round|Shape=RoundedRectangle|*
%AMROUNDEDRECTD139*
21,1,0.03347,0.02461,0,0,180.0*
21,1,0.01476,0.04331,0,0,180.0*
1,1,0.01870,-0.00738,0.01230*
1,1,0.01870,0.00738,0.01230*
1,1,0.01870,0.00738,-0.01230*
1,1,0.01870,-0.00738,-0.01230*
%
%ADD139ROUNDEDRECTD139*%
G04:AMPARAMS|DCode=140|XSize=33.47mil|YSize=43.31mil|CornerRadius=9.35mil|HoleSize=0mil|Usage=FLASHONLY|Rotation=270.000|XOffset=0mil|YOffset=0mil|HoleType=Round|Shape=RoundedRectangle|*
%AMROUNDEDRECTD140*
21,1,0.03347,0.02461,0,0,270.0*
21,1,0.01476,0.04331,0,0,270.0*
1,1,0.01870,-0.01230,-0.00738*
1,1,0.01870,-0.01230,0.00738*
1,1,0.01870,0.01230,0.00738*
1,1,0.01870,0.01230,-0.00738*
%
%ADD140ROUNDEDRECTD140*%
G04:AMPARAMS|DCode=141|XSize=64.96mil|YSize=27.56mil|CornerRadius=7.87mil|HoleSize=0mil|Usage=FLASHONLY|Rotation=315.000|XOffset=0mil|YOffset=0mil|HoleType=Round|Shape=RoundedRectangle|*
%AMROUNDEDRECTD141*
21,1,0.06496,0.01181,0,0,315.0*
21,1,0.04921,0.02756,0,0,315.0*
1,1,0.01575,0.01322,-0.02158*
1,1,0.01575,-0.02158,0.01322*
1,1,0.01575,-0.01322,0.02158*
1,1,0.01575,0.02158,-0.01322*
%
%ADD141ROUNDEDRECTD141*%
G04:AMPARAMS|DCode=142|XSize=45.28mil|YSize=74.8mil|CornerRadius=12.3mil|HoleSize=0mil|Usage=FLASHONLY|Rotation=90.000|XOffset=0mil|YOffset=0mil|HoleType=Round|Shape=RoundedRectangle|*
%AMROUNDEDRECTD142*
21,1,0.04528,0.05020,0,0,90.0*
21,1,0.02067,0.07480,0,0,90.0*
1,1,0.02461,0.02510,0.01034*
1,1,0.02461,0.02510,-0.01034*
1,1,0.02461,-0.02510,-0.01034*
1,1,0.02461,-0.02510,0.01034*
%
%ADD142ROUNDEDRECTD142*%
G04:AMPARAMS|DCode=143|XSize=31.5mil|YSize=66.93mil|CornerRadius=8.86mil|HoleSize=0mil|Usage=FLASHONLY|Rotation=90.000|XOffset=0mil|YOffset=0mil|HoleType=Round|Shape=RoundedRectangle|*
%AMROUNDEDRECTD143*
21,1,0.03150,0.04921,0,0,90.0*
21,1,0.01378,0.06693,0,0,90.0*
1,1,0.01772,0.02461,0.00689*
1,1,0.01772,0.02461,-0.00689*
1,1,0.01772,-0.02461,-0.00689*
1,1,0.01772,-0.02461,0.00689*
%
%ADD143ROUNDEDRECTD143*%
G04:AMPARAMS|DCode=144|XSize=35.43mil|YSize=66.93mil|CornerRadius=9.84mil|HoleSize=0mil|Usage=FLASHONLY|Rotation=90.000|XOffset=0mil|YOffset=0mil|HoleType=Round|Shape=RoundedRectangle|*
%AMROUNDEDRECTD144*
21,1,0.03543,0.04724,0,0,90.0*
21,1,0.01575,0.06693,0,0,90.0*
1,1,0.01969,0.02362,0.00787*
1,1,0.01969,0.02362,-0.00787*
1,1,0.01969,-0.02362,-0.00787*
1,1,0.01969,-0.02362,0.00787*
%
%ADD144ROUNDEDRECTD144*%
G04:AMPARAMS|DCode=145|XSize=39.37mil|YSize=66.93mil|CornerRadius=10.83mil|HoleSize=0mil|Usage=FLASHONLY|Rotation=270.000|XOffset=0mil|YOffset=0mil|HoleType=Round|Shape=RoundedRectangle|*
%AMROUNDEDRECTD145*
21,1,0.03937,0.04528,0,0,270.0*
21,1,0.01772,0.06693,0,0,270.0*
1,1,0.02165,-0.02264,-0.00886*
1,1,0.02165,-0.02264,0.00886*
1,1,0.02165,0.02264,0.00886*
1,1,0.02165,0.02264,-0.00886*
%
%ADD145ROUNDEDRECTD145*%
G04:AMPARAMS|DCode=146|XSize=39.37mil|YSize=35.43mil|CornerRadius=9.84mil|HoleSize=0mil|Usage=FLASHONLY|Rotation=225.000|XOffset=0mil|YOffset=0mil|HoleType=Round|Shape=RoundedRectangle|*
%AMROUNDEDRECTD146*
21,1,0.03937,0.01575,0,0,225.0*
21,1,0.01969,0.03543,0,0,225.0*
1,1,0.01969,-0.01253,-0.00139*
1,1,0.01969,0.00139,0.01253*
1,1,0.01969,0.01253,0.00139*
1,1,0.01969,-0.00139,-0.01253*
%
%ADD146ROUNDEDRECTD146*%
G04:AMPARAMS|DCode=147|XSize=47.24mil|YSize=27.56mil|CornerRadius=7.87mil|HoleSize=0mil|Usage=FLASHONLY|Rotation=270.000|XOffset=0mil|YOffset=0mil|HoleType=Round|Shape=RoundedRectangle|*
%AMROUNDEDRECTD147*
21,1,0.04724,0.01181,0,0,270.0*
21,1,0.03150,0.02756,0,0,270.0*
1,1,0.01575,-0.00591,-0.01575*
1,1,0.01575,-0.00591,0.01575*
1,1,0.01575,0.00591,0.01575*
1,1,0.01575,0.00591,-0.01575*
%
%ADD147ROUNDEDRECTD147*%
%ADD148C,0.12205*%
%ADD149C,0.12611*%
%ADD150C,0.07087*%
G04:AMPARAMS|DCode=151|XSize=70.87mil|YSize=70.87mil|CornerRadius=18.7mil|HoleSize=0mil|Usage=FLASHONLY|Rotation=0.000|XOffset=0mil|YOffset=0mil|HoleType=Round|Shape=RoundedRectangle|*
%AMROUNDEDRECTD151*
21,1,0.07087,0.03347,0,0,0.0*
21,1,0.03347,0.07087,0,0,0.0*
1,1,0.03740,0.01673,-0.01673*
1,1,0.03740,-0.01673,-0.01673*
1,1,0.03740,-0.01673,0.01673*
1,1,0.03740,0.01673,0.01673*
%
%ADD151ROUNDEDRECTD151*%
G04:AMPARAMS|DCode=152|XSize=51.18mil|YSize=51.18mil|CornerRadius=13.78mil|HoleSize=0mil|Usage=FLASHONLY|Rotation=215.500|XOffset=0mil|YOffset=0mil|HoleType=Round|Shape=RoundedRectangle|*
%AMROUNDEDRECTD152*
21,1,0.05118,0.02362,0,0,215.5*
21,1,0.02362,0.05118,0,0,215.5*
1,1,0.02756,-0.01647,0.00276*
1,1,0.02756,0.00276,0.01647*
1,1,0.02756,0.01647,-0.00276*
1,1,0.02756,-0.00276,-0.01647*
%
%ADD152ROUNDEDRECTD152*%
%ADD153C,0.05118*%
%ADD154O,0.10236X0.14173*%
G04:AMPARAMS|DCode=155|XSize=51.18mil|YSize=51.18mil|CornerRadius=13.78mil|HoleSize=0mil|Usage=FLASHONLY|Rotation=90.000|XOffset=0mil|YOffset=0mil|HoleType=Round|Shape=RoundedRectangle|*
%AMROUNDEDRECTD155*
21,1,0.05118,0.02362,0,0,90.0*
21,1,0.02362,0.05118,0,0,90.0*
1,1,0.02756,0.01181,0.01181*
1,1,0.02756,0.01181,-0.01181*
1,1,0.02756,-0.01181,-0.01181*
1,1,0.02756,-0.01181,0.01181*
%
%ADD155ROUNDEDRECTD155*%
%ADD156C,0.07874*%
%ADD157O,0.07087X0.04331*%
%ADD158C,0.06299*%
G04:AMPARAMS|DCode=159|XSize=62.99mil|YSize=62.99mil|CornerRadius=16.73mil|HoleSize=0mil|Usage=FLASHONLY|Rotation=305.000|XOffset=0mil|YOffset=0mil|HoleType=Round|Shape=RoundedRectangle|*
%AMROUNDEDRECTD159*
21,1,0.06299,0.02953,0,0,305.0*
21,1,0.02953,0.06299,0,0,305.0*
1,1,0.03347,-0.00363,-0.02056*
1,1,0.03347,-0.02056,0.00363*
1,1,0.03347,0.00363,0.02056*
1,1,0.03347,0.02056,-0.00363*
%
%ADD159ROUNDEDRECTD159*%
%ADD160C,0.00394*%
G36*
X1291Y109669D02*
Y108869D01*
Y108069D01*
Y107269D01*
X-5109D01*
Y106469D01*
Y105669D01*
Y104869D01*
Y104069D01*
X-8309D01*
Y104869D01*
Y105669D01*
Y106469D01*
Y107269D01*
X-11509D01*
Y108069D01*
Y108869D01*
Y109669D01*
Y110469D01*
X1291D01*
Y109669D01*
D02*
G37*
G36*
Y103269D02*
Y102469D01*
Y101669D01*
Y100869D01*
X-1909D01*
Y101669D01*
Y102469D01*
Y103269D01*
Y104069D01*
X1291D01*
Y103269D01*
D02*
G37*
G36*
X-17909Y109669D02*
Y108869D01*
Y108069D01*
Y107269D01*
X-11509D01*
Y106469D01*
Y105669D01*
Y104869D01*
Y104069D01*
X-8309D01*
Y103269D01*
Y102469D01*
Y101669D01*
Y100869D01*
X-11509D01*
Y101669D01*
Y102469D01*
Y103269D01*
Y104069D01*
X-14709D01*
Y103269D01*
Y102469D01*
Y101669D01*
Y100869D01*
X-17909D01*
Y101669D01*
Y102469D01*
Y103269D01*
Y104069D01*
X-21109D01*
Y104869D01*
Y105669D01*
Y106469D01*
Y107269D01*
X-24309D01*
Y108069D01*
Y108869D01*
Y109669D01*
Y110469D01*
X-17909D01*
Y109669D01*
D02*
G37*
G36*
X-27509Y125669D02*
Y124869D01*
Y124069D01*
Y123269D01*
Y122469D01*
Y121669D01*
Y120869D01*
Y120069D01*
Y119269D01*
Y118469D01*
Y117669D01*
Y116869D01*
X-17909D01*
Y116069D01*
Y115269D01*
Y114469D01*
Y113669D01*
X-14709D01*
Y112869D01*
Y112069D01*
Y111269D01*
Y110469D01*
X-17909D01*
Y111269D01*
Y112069D01*
Y112869D01*
Y113669D01*
X-27509D01*
Y112869D01*
Y112069D01*
Y111269D01*
Y110469D01*
Y109669D01*
Y108869D01*
Y108069D01*
Y107269D01*
Y106469D01*
Y105669D01*
Y104869D01*
Y104069D01*
X-21109D01*
Y103269D01*
Y102469D01*
Y101669D01*
Y100869D01*
X-27509D01*
Y100069D01*
Y99269D01*
Y98469D01*
Y97669D01*
X1291D01*
Y96869D01*
Y96069D01*
Y95269D01*
Y94469D01*
X-30709D01*
Y95269D01*
Y96069D01*
Y96869D01*
Y97669D01*
Y98469D01*
Y99269D01*
Y100069D01*
Y100869D01*
Y101669D01*
Y102469D01*
Y103269D01*
Y104069D01*
Y104869D01*
Y105669D01*
Y106469D01*
Y107269D01*
Y108069D01*
Y108869D01*
Y109669D01*
Y110469D01*
Y111269D01*
Y112069D01*
Y112869D01*
Y113669D01*
Y114469D01*
Y115269D01*
Y116069D01*
Y116869D01*
Y117669D01*
Y118469D01*
Y119269D01*
Y120069D01*
Y120869D01*
Y121669D01*
Y122469D01*
Y123269D01*
Y124069D01*
Y124869D01*
Y125669D01*
Y126469D01*
X-27509D01*
Y125669D01*
D02*
G37*
G36*
X-8309D02*
Y124869D01*
Y124069D01*
Y123269D01*
Y122469D01*
Y121669D01*
Y120869D01*
Y120069D01*
X-5109D01*
Y119269D01*
Y118469D01*
Y117669D01*
Y116869D01*
X1291D01*
Y116069D01*
Y115269D01*
Y114469D01*
Y113669D01*
X-5109D01*
Y114469D01*
Y115269D01*
Y116069D01*
Y116869D01*
X-8309D01*
Y117669D01*
Y118469D01*
Y119269D01*
Y120069D01*
X-14709D01*
Y120869D01*
Y121669D01*
Y122469D01*
Y123269D01*
X-17909D01*
Y124069D01*
Y124869D01*
Y125669D01*
Y126469D01*
X-14709D01*
Y125669D01*
Y124869D01*
Y124069D01*
Y123269D01*
X-11509D01*
Y124069D01*
Y124869D01*
Y125669D01*
Y126469D01*
X-8309D01*
Y125669D01*
D02*
G37*
G36*
X-1909D02*
Y124869D01*
Y124069D01*
Y123269D01*
X1291D01*
Y122469D01*
Y121669D01*
Y120869D01*
Y120069D01*
X-1909D01*
Y120869D01*
Y121669D01*
Y122469D01*
Y123269D01*
X-5109D01*
Y124069D01*
Y124869D01*
Y125669D01*
Y126469D01*
X-1909D01*
Y125669D01*
D02*
G37*
G36*
X-21109D02*
Y124869D01*
Y124069D01*
Y123269D01*
X-17909D01*
Y122469D01*
Y121669D01*
Y120869D01*
Y120069D01*
X-24309D01*
Y120869D01*
Y121669D01*
Y122469D01*
Y123269D01*
Y124069D01*
Y124869D01*
Y125669D01*
Y126469D01*
X-21109D01*
Y125669D01*
D02*
G37*
D110*
X55325Y35869D02*
D03*
X45024Y25569D02*
D03*
X51789Y39404D02*
D03*
X41489Y29104D02*
D03*
X48254Y42940D02*
D03*
X37953Y32640D02*
D03*
X44718Y46475D02*
D03*
X34418Y36175D02*
D03*
X41183Y50011D02*
D03*
X30882Y39711D02*
D03*
D111*
X-7873Y-56692D02*
D03*
X-23621Y30709D02*
D03*
X-9842Y43701D02*
D03*
X-48818Y33465D02*
D03*
X7087Y37008D02*
D03*
X-29527Y74410D02*
D03*
X-95669Y9449D02*
D03*
X-38976Y50788D02*
D03*
X-40157Y64961D02*
D03*
X-7086Y-100000D02*
D03*
X-89763Y39371D02*
D03*
X16536Y-119291D02*
D03*
X-9054Y-110629D02*
D03*
X-102361Y74016D02*
D03*
X-111082Y39851D02*
D03*
X-51968Y7087D02*
D03*
X-54724Y2362D02*
D03*
X-1968Y-49606D02*
D03*
X-25196Y-9448D02*
D03*
X-23621Y-36220D02*
D03*
D112*
X-40846Y-51181D02*
D03*
X-25295D02*
D03*
Y-52755D02*
D03*
Y-54330D02*
D03*
Y-55905D02*
D03*
Y-57480D02*
D03*
Y-59055D02*
D03*
Y-60629D02*
D03*
X-40846D02*
D03*
Y-59055D02*
D03*
Y-57480D02*
D03*
Y-55905D02*
D03*
Y-54330D02*
D03*
Y-52755D02*
D03*
D113*
X-37795Y-48129D02*
D03*
X-36220D02*
D03*
X-34645D02*
D03*
X-33070D02*
D03*
X-31495D02*
D03*
X-29921D02*
D03*
X-28346D02*
D03*
Y-63681D02*
D03*
X-29921D02*
D03*
X-31495D02*
D03*
X-33070D02*
D03*
X-34645D02*
D03*
X-36220D02*
D03*
X-37795D02*
D03*
D114*
X-33070Y-55905D02*
D03*
D115*
X140Y-16146D02*
D03*
X-1670Y-14337D02*
D03*
X-3479Y-12527D02*
D03*
X-5289Y-10718D02*
D03*
X-7098Y-8908D02*
D03*
X-8908Y-7098D02*
D03*
X-10717Y-5289D02*
D03*
X-12527Y-3480D02*
D03*
X-14336Y-1670D02*
D03*
X-16146Y140D02*
D03*
X-138Y16147D02*
D03*
X1671Y14337D02*
D03*
X3481Y12528D02*
D03*
X5290Y10718D02*
D03*
X7100Y8909D02*
D03*
X8909Y7099D02*
D03*
X10719Y5290D02*
D03*
X12528Y3480D02*
D03*
X14338Y1671D02*
D03*
X16147Y-139D02*
D03*
D116*
X-10924Y-117661D02*
D03*
Y-120220D02*
D03*
Y-122779D02*
D03*
Y-125338D02*
D03*
X10926D02*
D03*
Y-122779D02*
D03*
Y-120220D02*
D03*
Y-117661D02*
D03*
D117*
X10738Y-26187D02*
D03*
X8928Y-24378D02*
D03*
X7119Y-22568D02*
D03*
X5309Y-20759D02*
D03*
X20760Y-5308D02*
D03*
X22569Y-7118D02*
D03*
X24379Y-8927D02*
D03*
X26188Y-10737D02*
D03*
D118*
X1501Y-101775D02*
D03*
X-2239D02*
D03*
X5241D02*
D03*
Y-111224D02*
D03*
X1501D02*
D03*
X-2239D02*
D03*
D119*
X-132283Y30119D02*
D03*
Y26378D02*
D03*
Y22638D02*
D03*
X-122834D02*
D03*
Y30119D02*
D03*
Y26378D02*
D03*
D120*
X-118582Y57851D02*
D03*
D121*
X-126082Y68481D02*
D03*
X-121082D02*
D03*
X-116082D02*
D03*
X-111082D02*
D03*
Y47221D02*
D03*
X-116082D02*
D03*
X-121082D02*
D03*
X-126082D02*
D03*
D122*
X-28750Y-110318D02*
D03*
X-110317Y-28750D02*
D03*
D123*
X-30977Y-95006D02*
D03*
X-33761Y-92222D02*
D03*
X-36544Y-89439D02*
D03*
X-39328Y-86655D02*
D03*
X-42112Y-83871D02*
D03*
X-44896Y-81087D02*
D03*
X-47680Y-78303D02*
D03*
X-50464Y-75519D02*
D03*
X-53248Y-72735D02*
D03*
X-56032Y-69951D02*
D03*
X-58815Y-67168D02*
D03*
X-61599Y-64384D02*
D03*
X-64383Y-61600D02*
D03*
X-67167Y-58816D02*
D03*
X-69951Y-56032D02*
D03*
X-72735Y-53248D02*
D03*
X-75519Y-50464D02*
D03*
X-78303Y-47680D02*
D03*
X-81087Y-44897D02*
D03*
X-83871Y-42113D02*
D03*
X-86654Y-39329D02*
D03*
X-89438Y-36545D02*
D03*
X-92222Y-33761D02*
D03*
X-95006Y-30977D02*
D03*
D124*
X-16535Y-60334D02*
D03*
Y-56200D02*
D03*
X-23228Y-71358D02*
D03*
Y-67224D02*
D03*
X50000Y-15453D02*
D03*
Y-11319D02*
D03*
X56299Y-15453D02*
D03*
X56299Y-11319D02*
D03*
X53150Y-15453D02*
D03*
Y-11319D02*
D03*
X59449Y-15453D02*
D03*
Y-11319D02*
D03*
X16930Y107185D02*
D03*
Y103052D02*
D03*
X33097Y-46907D02*
D03*
Y-42774D02*
D03*
X41733Y-46948D02*
D03*
Y-42815D02*
D03*
X36615D02*
D03*
Y-46948D02*
D03*
X38190Y-59547D02*
D03*
Y-55413D02*
D03*
Y-83563D02*
D03*
Y-79429D02*
D03*
X-103936Y20768D02*
D03*
Y24902D02*
D03*
X-81495Y20178D02*
D03*
Y16044D02*
D03*
X-116928Y24902D02*
D03*
Y20768D02*
D03*
Y27855D02*
D03*
Y31989D02*
D03*
X-126082Y37284D02*
D03*
Y41418D02*
D03*
X-122582Y37284D02*
D03*
Y41418D02*
D03*
X-119082Y37284D02*
D03*
Y41418D02*
D03*
X10237Y-108759D02*
D03*
Y-104626D02*
D03*
X13780Y-108759D02*
D03*
Y-104626D02*
D03*
X-146456Y30611D02*
D03*
Y34745D02*
D03*
X17324Y74902D02*
D03*
Y70768D02*
D03*
X14068Y70741D02*
D03*
Y74874D02*
D03*
X18111Y91241D02*
D03*
Y95374D02*
D03*
X-98818Y86516D02*
D03*
Y90650D02*
D03*
D125*
X-87369Y-14929D02*
D03*
X-70109Y2331D02*
D03*
X-68866Y-33433D02*
D03*
X-51605Y-16173D02*
D03*
D126*
X20193Y11304D02*
D03*
X23116Y8381D02*
D03*
X18392Y13106D02*
D03*
X15468Y16029D02*
D03*
X9563D02*
D03*
X12486Y13106D02*
D03*
X-1067Y-35940D02*
D03*
X1856Y-38863D02*
D03*
X-14218Y66738D02*
D03*
X-11295Y63815D02*
D03*
X-53429Y17210D02*
D03*
X-50506Y14287D02*
D03*
X-55624Y19405D02*
D03*
X-58547Y22328D02*
D03*
D127*
X20143Y20803D02*
D03*
X27103Y13843D02*
D03*
D128*
X-27051Y18224D02*
D03*
X-24128Y21147D02*
D03*
X-10349Y-19011D02*
D03*
X-13272Y-21934D02*
D03*
X-16254Y-14286D02*
D03*
X-19177Y-17209D02*
D03*
X-21146Y24129D02*
D03*
X-18223Y27053D02*
D03*
X23116Y-20192D02*
D03*
X20193Y-23115D02*
D03*
X-9168Y-49719D02*
D03*
X-12091Y-52642D02*
D03*
X-16815Y-48311D02*
D03*
X-13892Y-45388D02*
D03*
X-34332Y35876D02*
D03*
X-31409Y38799D02*
D03*
X-28581Y35971D02*
D03*
X-31504Y33048D02*
D03*
X-34238Y30314D02*
D03*
X-37161Y27391D02*
D03*
X-37066Y33142D02*
D03*
X-39989Y30219D02*
D03*
X25084Y34139D02*
D03*
X22161Y31216D02*
D03*
X35468Y23204D02*
D03*
X32545Y20281D02*
D03*
X40025Y13982D02*
D03*
X42948Y16905D02*
D03*
X39405Y19661D02*
D03*
X36482Y16738D02*
D03*
X-19571Y-45556D02*
D03*
X-16648Y-42632D02*
D03*
D129*
X-18531Y6979D02*
D03*
X-6978Y18532D02*
D03*
X-12963Y24518D02*
D03*
X-24517Y12965D02*
D03*
D130*
X22304Y90748D02*
D03*
Y95867D02*
D03*
X28091Y93309D02*
D03*
D131*
X85490Y24922D02*
D03*
X80652Y21535D02*
D03*
D132*
X74291Y16925D02*
D03*
X77677Y19296D02*
D03*
X36331Y80536D02*
D03*
X39717Y82907D02*
D03*
X38583Y77165D02*
D03*
X41969Y79536D02*
D03*
D133*
X33170Y-55118D02*
D03*
X29036D02*
D03*
X33170Y-79133D02*
D03*
X29036Y-79133D02*
D03*
X33204Y-59821D02*
D03*
X29070D02*
D03*
X33170Y-83858D02*
D03*
X29036Y-83858D02*
D03*
X-140846Y-21653D02*
D03*
X-144980D02*
D03*
X-4035Y-96456D02*
D03*
X99D02*
D03*
X-117617Y77166D02*
D03*
X-121751D02*
D03*
Y81497D02*
D03*
X-117617D02*
D03*
X-121751Y86615D02*
D03*
X-117617D02*
D03*
X7186Y-96456D02*
D03*
X3052D02*
D03*
X-81397Y12992D02*
D03*
X-85531D02*
D03*
D134*
X21064Y101378D02*
D03*
X21064Y108859D02*
D03*
X29331Y105120D02*
D03*
D135*
X33860Y-72440D02*
D03*
X37599Y-64566D02*
D03*
X30119D02*
D03*
X33957Y-96246D02*
D03*
X37696Y-88372D02*
D03*
X30216D02*
D03*
D136*
X-1779Y-42319D02*
D03*
X-4284Y-39813D02*
D03*
X-6790Y-37308D02*
D03*
X-9295Y-34802D02*
D03*
X-12636Y-38143D02*
D03*
X-10130Y-40648D02*
D03*
X-7625Y-43154D02*
D03*
X-5119Y-45660D02*
D03*
D137*
X-44141Y42949D02*
D03*
X-41217Y34738D02*
D03*
X-35928Y40027D02*
D03*
D138*
X-8510Y31561D02*
D03*
X-12129Y35180D02*
D03*
X-6227Y37464D02*
D03*
X-1023Y39058D02*
D03*
X-4642Y42677D02*
D03*
X1259Y44961D02*
D03*
D139*
X-141141Y-25590D02*
D03*
X-147046D02*
D03*
X-107283Y77166D02*
D03*
X-113188D02*
D03*
X-107283Y86615D02*
D03*
X-113188D02*
D03*
D140*
X-86220Y16339D02*
D03*
Y22244D02*
D03*
X-105511Y69095D02*
D03*
X-105511Y63189D02*
D03*
Y52953D02*
D03*
Y58859D02*
D03*
Y42717D02*
D03*
Y48622D02*
D03*
D141*
X-9129Y53870D02*
D03*
X-12665Y50335D02*
D03*
X-16200Y46799D02*
D03*
X-19736Y43264D02*
D03*
X-34769Y58297D02*
D03*
X-31233Y61832D02*
D03*
X-27698Y65368D02*
D03*
X-24162Y68903D02*
D03*
D142*
X-140944Y34745D02*
D03*
Y44784D02*
D03*
D143*
X-140983Y-1968D02*
D03*
Y1969D02*
D03*
D144*
Y-5984D02*
D03*
Y5985D02*
D03*
D145*
Y10827D02*
D03*
Y-10826D02*
D03*
D146*
X-64339Y8100D02*
D03*
X-55849Y11302D02*
D03*
X-61138Y16592D02*
D03*
D147*
X-91928Y14567D02*
D03*
X-99409D02*
D03*
Y24804D02*
D03*
X-95669D02*
D03*
X-91928D02*
D03*
D148*
X1Y-138787D02*
D03*
Y-75795D02*
D03*
Y74796D02*
D03*
X-118110Y0D02*
D03*
X118111D02*
D03*
D149*
X1Y137788D02*
D03*
D150*
X-129645Y-38976D02*
D03*
X-80562Y43162D02*
D03*
X-60877D02*
D03*
X-70720Y100248D02*
D03*
X-80562D02*
D03*
X-60877D02*
D03*
X60879Y-98279D02*
D03*
X80564D02*
D03*
X70721Y-41192D02*
D03*
X60879D02*
D03*
X80564D02*
D03*
D151*
X-139645Y-38976D02*
D03*
D152*
X79866Y-17640D02*
D03*
D153*
X86277Y-13068D02*
D03*
X-42499Y114063D02*
D03*
D154*
X-93161Y70721D02*
D03*
X-48279D02*
D03*
X48280Y-70720D02*
D03*
X93162D02*
D03*
D155*
X-42499Y121937D02*
D03*
D156*
X-102361Y-102362D02*
D03*
X102363Y102363D02*
D03*
D157*
X-156653Y-17007D02*
D03*
Y17008D02*
D03*
X-141692Y-17007D02*
D03*
Y17008D02*
D03*
D158*
X135213Y52077D02*
D03*
X127021Y46341D02*
D03*
X118830Y40605D02*
D03*
X110638Y34870D02*
D03*
X102447Y29134D02*
D03*
X94255Y23398D02*
D03*
X86064Y17662D02*
D03*
X77872Y11926D02*
D03*
X45340Y75822D02*
D03*
X53531Y81558D02*
D03*
X61723Y87294D02*
D03*
X69914Y93029D02*
D03*
X78106Y98765D02*
D03*
X86298Y104501D02*
D03*
X94489Y110237D02*
D03*
D159*
X37148Y70086D02*
D03*
D160*
X46694Y-32346D02*
D03*
Y-24346D02*
D03*
X66694Y-28346D02*
D03*
M02*
