G04*
G04 #@! TF.GenerationSoftware,Altium Limited,CircuitStudio,1.5.2 (30)*
G04*
G04 Layer_Color=20142*
%FSLAX25Y25*%
%MOIN*%
G70*
G01*
G75*
%ADD106O,0.03492X0.03374*%
%ADD107R,0.10827X0.10827*%
G04:AMPARAMS|DCode=108|XSize=11.81mil|YSize=37.4mil|CornerRadius=3.94mil|HoleSize=0mil|Usage=FLASHONLY|Rotation=90.000|XOffset=0mil|YOffset=0mil|HoleType=Round|Shape=RoundedRectangle|*
%AMROUNDEDRECTD108*
21,1,0.01181,0.02953,0,0,90.0*
21,1,0.00394,0.03740,0,0,90.0*
1,1,0.00787,0.01476,0.00197*
1,1,0.00787,0.01476,-0.00197*
1,1,0.00787,-0.01476,-0.00197*
1,1,0.00787,-0.01476,0.00197*
%
%ADD108ROUNDEDRECTD108*%
G04:AMPARAMS|DCode=109|XSize=11.81mil|YSize=37.4mil|CornerRadius=3.94mil|HoleSize=0mil|Usage=FLASHONLY|Rotation=180.000|XOffset=0mil|YOffset=0mil|HoleType=Round|Shape=RoundedRectangle|*
%AMROUNDEDRECTD109*
21,1,0.01181,0.02953,0,0,180.0*
21,1,0.00394,0.03740,0,0,180.0*
1,1,0.00787,-0.00197,0.01476*
1,1,0.00787,0.00197,0.01476*
1,1,0.00787,0.00197,-0.01476*
1,1,0.00787,-0.00197,-0.01476*
%
%ADD109ROUNDEDRECTD109*%
G04:AMPARAMS|DCode=110|XSize=39.37mil|YSize=66.93mil|CornerRadius=10.83mil|HoleSize=0mil|Usage=FLASHONLY|Rotation=90.000|XOffset=0mil|YOffset=0mil|HoleType=Round|Shape=RoundedRectangle|*
%AMROUNDEDRECTD110*
21,1,0.03937,0.04528,0,0,90.0*
21,1,0.01772,0.06693,0,0,90.0*
1,1,0.02165,0.02264,0.00886*
1,1,0.02165,0.02264,-0.00886*
1,1,0.02165,-0.02264,-0.00886*
1,1,0.02165,-0.02264,0.00886*
%
%ADD110ROUNDEDRECTD110*%
G04:AMPARAMS|DCode=111|XSize=35.43mil|YSize=66.93mil|CornerRadius=9.84mil|HoleSize=0mil|Usage=FLASHONLY|Rotation=270.000|XOffset=0mil|YOffset=0mil|HoleType=Round|Shape=RoundedRectangle|*
%AMROUNDEDRECTD111*
21,1,0.03543,0.04724,0,0,270.0*
21,1,0.01575,0.06693,0,0,270.0*
1,1,0.01969,-0.02362,-0.00787*
1,1,0.01969,-0.02362,0.00787*
1,1,0.01969,0.02362,0.00787*
1,1,0.01969,0.02362,-0.00787*
%
%ADD111ROUNDEDRECTD111*%
G04:AMPARAMS|DCode=112|XSize=31.5mil|YSize=66.93mil|CornerRadius=8.86mil|HoleSize=0mil|Usage=FLASHONLY|Rotation=270.000|XOffset=0mil|YOffset=0mil|HoleType=Round|Shape=RoundedRectangle|*
%AMROUNDEDRECTD112*
21,1,0.03150,0.04921,0,0,270.0*
21,1,0.01378,0.06693,0,0,270.0*
1,1,0.01772,-0.02461,-0.00689*
1,1,0.01772,-0.02461,0.00689*
1,1,0.01772,0.02461,0.00689*
1,1,0.01772,0.02461,-0.00689*
%
%ADD112ROUNDEDRECTD112*%
G04:AMPARAMS|DCode=113|XSize=39.37mil|YSize=43.31mil|CornerRadius=10.83mil|HoleSize=0mil|Usage=FLASHONLY|Rotation=270.000|XOffset=0mil|YOffset=0mil|HoleType=Round|Shape=RoundedRectangle|*
%AMROUNDEDRECTD113*
21,1,0.03937,0.02165,0,0,270.0*
21,1,0.01772,0.04331,0,0,270.0*
1,1,0.02165,-0.01083,-0.00886*
1,1,0.02165,-0.01083,0.00886*
1,1,0.02165,0.01083,0.00886*
1,1,0.02165,0.01083,-0.00886*
%
%ADD113ROUNDEDRECTD113*%
G04:AMPARAMS|DCode=114|XSize=27.56mil|YSize=27.56mil|CornerRadius=7.87mil|HoleSize=0mil|Usage=FLASHONLY|Rotation=90.000|XOffset=0mil|YOffset=0mil|HoleType=Round|Shape=RoundedRectangle|*
%AMROUNDEDRECTD114*
21,1,0.02756,0.01181,0,0,90.0*
21,1,0.01181,0.02756,0,0,90.0*
1,1,0.01575,0.00591,0.00591*
1,1,0.01575,0.00591,-0.00591*
1,1,0.01575,-0.00591,-0.00591*
1,1,0.01575,-0.00591,0.00591*
%
%ADD114ROUNDEDRECTD114*%
G04:AMPARAMS|DCode=115|XSize=45.28mil|YSize=74.8mil|CornerRadius=12.3mil|HoleSize=0mil|Usage=FLASHONLY|Rotation=90.000|XOffset=0mil|YOffset=0mil|HoleType=Round|Shape=RoundedRectangle|*
%AMROUNDEDRECTD115*
21,1,0.04528,0.05020,0,0,90.0*
21,1,0.02067,0.07480,0,0,90.0*
1,1,0.02461,0.02510,0.01034*
1,1,0.02461,0.02510,-0.01034*
1,1,0.02461,-0.02510,-0.01034*
1,1,0.02461,-0.02510,0.01034*
%
%ADD115ROUNDEDRECTD115*%
%ADD116C,0.04331*%
G04:AMPARAMS|DCode=117|XSize=33.47mil|YSize=43.31mil|CornerRadius=9.35mil|HoleSize=0mil|Usage=FLASHONLY|Rotation=270.000|XOffset=0mil|YOffset=0mil|HoleType=Round|Shape=RoundedRectangle|*
%AMROUNDEDRECTD117*
21,1,0.03347,0.02461,0,0,270.0*
21,1,0.01476,0.04331,0,0,270.0*
1,1,0.01870,-0.01230,-0.00738*
1,1,0.01870,-0.01230,0.00738*
1,1,0.01870,0.01230,0.00738*
1,1,0.01870,0.01230,-0.00738*
%
%ADD117ROUNDEDRECTD117*%
G04:AMPARAMS|DCode=118|XSize=33.47mil|YSize=43.31mil|CornerRadius=9.35mil|HoleSize=0mil|Usage=FLASHONLY|Rotation=180.000|XOffset=0mil|YOffset=0mil|HoleType=Round|Shape=RoundedRectangle|*
%AMROUNDEDRECTD118*
21,1,0.03347,0.02461,0,0,180.0*
21,1,0.01476,0.04331,0,0,180.0*
1,1,0.01870,-0.00738,0.01230*
1,1,0.01870,0.00738,0.01230*
1,1,0.01870,0.00738,-0.01230*
1,1,0.01870,-0.00738,-0.01230*
%
%ADD118ROUNDEDRECTD118*%
G04:AMPARAMS|DCode=119|XSize=27.56mil|YSize=27.56mil|CornerRadius=7.87mil|HoleSize=0mil|Usage=FLASHONLY|Rotation=180.000|XOffset=0mil|YOffset=0mil|HoleType=Round|Shape=RoundedRectangle|*
%AMROUNDEDRECTD119*
21,1,0.02756,0.01181,0,0,180.0*
21,1,0.01181,0.02756,0,0,180.0*
1,1,0.01575,-0.00591,0.00591*
1,1,0.01575,0.00591,0.00591*
1,1,0.01575,0.00591,-0.00591*
1,1,0.01575,-0.00591,-0.00591*
%
%ADD119ROUNDEDRECTD119*%
G04:AMPARAMS|DCode=120|XSize=64.96mil|YSize=27.56mil|CornerRadius=7.87mil|HoleSize=0mil|Usage=FLASHONLY|Rotation=315.000|XOffset=0mil|YOffset=0mil|HoleType=Round|Shape=RoundedRectangle|*
%AMROUNDEDRECTD120*
21,1,0.06496,0.01181,0,0,315.0*
21,1,0.04921,0.02756,0,0,315.0*
1,1,0.01575,0.01322,-0.02158*
1,1,0.01575,-0.02158,0.01322*
1,1,0.01575,-0.01322,0.02158*
1,1,0.01575,0.02158,-0.01322*
%
%ADD120ROUNDEDRECTD120*%
G04:AMPARAMS|DCode=121|XSize=27.56mil|YSize=27.56mil|CornerRadius=7.87mil|HoleSize=0mil|Usage=FLASHONLY|Rotation=315.000|XOffset=0mil|YOffset=0mil|HoleType=Round|Shape=RoundedRectangle|*
%AMROUNDEDRECTD121*
21,1,0.02756,0.01181,0,0,315.0*
21,1,0.01181,0.02756,0,0,315.0*
1,1,0.01575,0.00000,-0.00835*
1,1,0.01575,-0.00835,0.00000*
1,1,0.01575,0.00000,0.00835*
1,1,0.01575,0.00835,0.00000*
%
%ADD121ROUNDEDRECTD121*%
G04:AMPARAMS|DCode=122|XSize=27.56mil|YSize=27.56mil|CornerRadius=7.87mil|HoleSize=0mil|Usage=FLASHONLY|Rotation=225.000|XOffset=0mil|YOffset=0mil|HoleType=Round|Shape=RoundedRectangle|*
%AMROUNDEDRECTD122*
21,1,0.02756,0.01181,0,0,225.0*
21,1,0.01181,0.02756,0,0,225.0*
1,1,0.01575,-0.00835,0.00000*
1,1,0.01575,0.00000,0.00835*
1,1,0.01575,0.00835,0.00000*
1,1,0.01575,0.00000,-0.00835*
%
%ADD122ROUNDEDRECTD122*%
G04:AMPARAMS|DCode=123|XSize=36.61mil|YSize=24.41mil|CornerRadius=7.09mil|HoleSize=0mil|Usage=FLASHONLY|Rotation=45.000|XOffset=0mil|YOffset=0mil|HoleType=Round|Shape=RoundedRectangle|*
%AMROUNDEDRECTD123*
21,1,0.03661,0.01024,0,0,45.0*
21,1,0.02244,0.02441,0,0,45.0*
1,1,0.01417,0.01155,0.00432*
1,1,0.01417,-0.00432,-0.01155*
1,1,0.01417,-0.01155,-0.00432*
1,1,0.01417,0.00432,0.01155*
%
%ADD123ROUNDEDRECTD123*%
G04:AMPARAMS|DCode=124|XSize=31.5mil|YSize=31.5mil|CornerRadius=8.86mil|HoleSize=0mil|Usage=FLASHONLY|Rotation=135.000|XOffset=0mil|YOffset=0mil|HoleType=Round|Shape=RoundedRectangle|*
%AMROUNDEDRECTD124*
21,1,0.03150,0.01378,0,0,135.0*
21,1,0.01378,0.03150,0,0,135.0*
1,1,0.01772,0.00000,0.00974*
1,1,0.01772,0.00974,0.00000*
1,1,0.01772,0.00000,-0.00974*
1,1,0.01772,-0.00974,0.00000*
%
%ADD124ROUNDEDRECTD124*%
G04:AMPARAMS|DCode=125|XSize=35.43mil|YSize=23.62mil|CornerRadius=6.89mil|HoleSize=0mil|Usage=FLASHONLY|Rotation=225.000|XOffset=0mil|YOffset=0mil|HoleType=Round|Shape=RoundedRectangle|*
%AMROUNDEDRECTD125*
21,1,0.03543,0.00984,0,0,225.0*
21,1,0.02165,0.02362,0,0,225.0*
1,1,0.01378,-0.01114,-0.00418*
1,1,0.01378,0.00418,0.01114*
1,1,0.01378,0.01114,0.00418*
1,1,0.01378,-0.00418,-0.01114*
%
%ADD125ROUNDEDRECTD125*%
G04:AMPARAMS|DCode=126|XSize=31.5mil|YSize=31.5mil|CornerRadius=8.86mil|HoleSize=0mil|Usage=FLASHONLY|Rotation=270.000|XOffset=0mil|YOffset=0mil|HoleType=Round|Shape=RoundedRectangle|*
%AMROUNDEDRECTD126*
21,1,0.03150,0.01378,0,0,270.0*
21,1,0.01378,0.03150,0,0,270.0*
1,1,0.01772,-0.00689,-0.00689*
1,1,0.01772,-0.00689,0.00689*
1,1,0.01772,0.00689,0.00689*
1,1,0.01772,0.00689,-0.00689*
%
%ADD126ROUNDEDRECTD126*%
G04:AMPARAMS|DCode=127|XSize=27.56mil|YSize=27.56mil|CornerRadius=7.87mil|HoleSize=0mil|Usage=FLASHONLY|Rotation=305.500|XOffset=0mil|YOffset=0mil|HoleType=Round|Shape=RoundedRectangle|*
%AMROUNDEDRECTD127*
21,1,0.02756,0.01181,0,0,305.5*
21,1,0.01181,0.02756,0,0,305.5*
1,1,0.01575,-0.00138,-0.00824*
1,1,0.01575,-0.00824,0.00138*
1,1,0.01575,0.00138,0.00824*
1,1,0.01575,0.00824,-0.00138*
%
%ADD127ROUNDEDRECTD127*%
G04:AMPARAMS|DCode=128|XSize=39.37mil|YSize=35.43mil|CornerRadius=9.84mil|HoleSize=0mil|Usage=FLASHONLY|Rotation=0.000|XOffset=0mil|YOffset=0mil|HoleType=Round|Shape=RoundedRectangle|*
%AMROUNDEDRECTD128*
21,1,0.03937,0.01575,0,0,0.0*
21,1,0.01969,0.03543,0,0,0.0*
1,1,0.01969,0.00984,-0.00787*
1,1,0.01969,-0.00984,-0.00787*
1,1,0.01969,-0.00984,0.00787*
1,1,0.01969,0.00984,0.00787*
%
%ADD128ROUNDEDRECTD128*%
G04:AMPARAMS|DCode=129|XSize=27.56mil|YSize=27.56mil|CornerRadius=7.87mil|HoleSize=0mil|Usage=FLASHONLY|Rotation=210.000|XOffset=0mil|YOffset=0mil|HoleType=Round|Shape=RoundedRectangle|*
%AMROUNDEDRECTD129*
21,1,0.02756,0.01181,0,0,210.0*
21,1,0.01181,0.02756,0,0,210.0*
1,1,0.01575,-0.00807,0.00216*
1,1,0.01575,0.00216,0.00807*
1,1,0.01575,0.00807,-0.00216*
1,1,0.01575,-0.00216,-0.00807*
%
%ADD129ROUNDEDRECTD129*%
G04:AMPARAMS|DCode=130|XSize=33.47mil|YSize=43.31mil|CornerRadius=9.35mil|HoleSize=0mil|Usage=FLASHONLY|Rotation=30.000|XOffset=0mil|YOffset=0mil|HoleType=Round|Shape=RoundedRectangle|*
%AMROUNDEDRECTD130*
21,1,0.03347,0.02461,0,0,30.0*
21,1,0.01476,0.04331,0,0,30.0*
1,1,0.01870,0.01254,-0.00696*
1,1,0.01870,-0.00024,-0.01435*
1,1,0.01870,-0.01254,0.00696*
1,1,0.01870,0.00024,0.01435*
%
%ADD130ROUNDEDRECTD130*%
G04:AMPARAMS|DCode=131|XSize=36.61mil|YSize=24.41mil|CornerRadius=7.09mil|HoleSize=0mil|Usage=FLASHONLY|Rotation=0.000|XOffset=0mil|YOffset=0mil|HoleType=Round|Shape=RoundedRectangle|*
%AMROUNDEDRECTD131*
21,1,0.03661,0.01024,0,0,0.0*
21,1,0.02244,0.02441,0,0,0.0*
1,1,0.01417,0.01122,-0.00512*
1,1,0.01417,-0.01122,-0.00512*
1,1,0.01417,-0.01122,0.00512*
1,1,0.01417,0.01122,0.00512*
%
%ADD131ROUNDEDRECTD131*%
G04:AMPARAMS|DCode=132|XSize=57.09mil|YSize=19.69mil|CornerRadius=5.91mil|HoleSize=0mil|Usage=FLASHONLY|Rotation=225.000|XOffset=0mil|YOffset=0mil|HoleType=Round|Shape=RoundedRectangle|*
%AMROUNDEDRECTD132*
21,1,0.05709,0.00787,0,0,225.0*
21,1,0.04528,0.01969,0,0,225.0*
1,1,0.01181,-0.01879,-0.01322*
1,1,0.01181,0.01322,0.01879*
1,1,0.01181,0.01879,0.01322*
1,1,0.01181,-0.01322,-0.01879*
%
%ADD132ROUNDEDRECTD132*%
G04:AMPARAMS|DCode=133|XSize=45.28mil|YSize=29.53mil|CornerRadius=8.37mil|HoleSize=0mil|Usage=FLASHONLY|Rotation=45.000|XOffset=0mil|YOffset=0mil|HoleType=Round|Shape=RoundedRectangle|*
%AMROUNDEDRECTD133*
21,1,0.04528,0.01280,0,0,45.0*
21,1,0.02854,0.02953,0,0,45.0*
1,1,0.01673,0.01462,0.00557*
1,1,0.01673,-0.00557,-0.01462*
1,1,0.01673,-0.01462,-0.00557*
1,1,0.01673,0.00557,0.01462*
%
%ADD133ROUNDEDRECTD133*%
G04:AMPARAMS|DCode=134|XSize=43.31mil|YSize=74.8mil|CornerRadius=11.81mil|HoleSize=0mil|Usage=FLASHONLY|Rotation=135.000|XOffset=0mil|YOffset=0mil|HoleType=Round|Shape=RoundedRectangle|*
%AMROUNDEDRECTD134*
21,1,0.04331,0.05118,0,0,135.0*
21,1,0.01969,0.07480,0,0,135.0*
1,1,0.02362,0.01114,0.02506*
1,1,0.02362,0.02506,0.01114*
1,1,0.02362,-0.01114,-0.02506*
1,1,0.02362,-0.02506,-0.01114*
%
%ADD134ROUNDEDRECTD134*%
G04:AMPARAMS|DCode=135|XSize=82.68mil|YSize=128.74mil|CornerRadius=21.65mil|HoleSize=0mil|Usage=FLASHONLY|Rotation=45.000|XOffset=0mil|YOffset=0mil|HoleType=Round|Shape=RoundedRectangle|*
%AMROUNDEDRECTD135*
21,1,0.08268,0.08543,0,0,45.0*
21,1,0.03937,0.12874,0,0,45.0*
1,1,0.04331,0.04413,-0.01629*
1,1,0.04331,0.01629,-0.04413*
1,1,0.04331,-0.04413,0.01629*
1,1,0.04331,-0.01629,0.04413*
%
%ADD135ROUNDEDRECTD135*%
G04:AMPARAMS|DCode=136|XSize=27.56mil|YSize=78.74mil|CornerRadius=7.87mil|HoleSize=0mil|Usage=FLASHONLY|Rotation=135.000|XOffset=0mil|YOffset=0mil|HoleType=Round|Shape=RoundedRectangle|*
%AMROUNDEDRECTD136*
21,1,0.02756,0.06299,0,0,135.0*
21,1,0.01181,0.07874,0,0,135.0*
1,1,0.01575,0.01810,0.02645*
1,1,0.01575,0.02645,0.01810*
1,1,0.01575,-0.01810,-0.02645*
1,1,0.01575,-0.02645,-0.01810*
%
%ADD136ROUNDEDRECTD136*%
G04:AMPARAMS|DCode=137|XSize=86.61mil|YSize=114.17mil|CornerRadius=22.64mil|HoleSize=0mil|Usage=FLASHONLY|Rotation=135.000|XOffset=0mil|YOffset=0mil|HoleType=Round|Shape=RoundedRectangle|*
%AMROUNDEDRECTD137*
21,1,0.08661,0.06890,0,0,135.0*
21,1,0.04134,0.11417,0,0,135.0*
1,1,0.04528,0.00974,0.03897*
1,1,0.04528,0.03897,0.00974*
1,1,0.04528,-0.00974,-0.03897*
1,1,0.04528,-0.03897,-0.00974*
%
%ADD137ROUNDEDRECTD137*%
G04:AMPARAMS|DCode=138|XSize=64.96mil|YSize=27.56mil|CornerRadius=7.87mil|HoleSize=0mil|Usage=FLASHONLY|Rotation=90.000|XOffset=0mil|YOffset=0mil|HoleType=Round|Shape=RoundedRectangle|*
%AMROUNDEDRECTD138*
21,1,0.06496,0.01181,0,0,90.0*
21,1,0.04921,0.02756,0,0,90.0*
1,1,0.01575,0.00591,0.02461*
1,1,0.01575,0.00591,-0.02461*
1,1,0.01575,-0.00591,-0.02461*
1,1,0.01575,-0.00591,0.02461*
%
%ADD138ROUNDEDRECTD138*%
%ADD139R,0.14173X0.10630*%
G04:AMPARAMS|DCode=140|XSize=43.31mil|YSize=31.5mil|CornerRadius=8.86mil|HoleSize=0mil|Usage=FLASHONLY|Rotation=0.000|XOffset=0mil|YOffset=0mil|HoleType=Round|Shape=RoundedRectangle|*
%AMROUNDEDRECTD140*
21,1,0.04331,0.01378,0,0,0.0*
21,1,0.02559,0.03150,0,0,0.0*
1,1,0.01772,0.01280,-0.00689*
1,1,0.01772,-0.01280,-0.00689*
1,1,0.01772,-0.01280,0.00689*
1,1,0.01772,0.01280,0.00689*
%
%ADD140ROUNDEDRECTD140*%
G04:AMPARAMS|DCode=141|XSize=43.31mil|YSize=31.5mil|CornerRadius=8.86mil|HoleSize=0mil|Usage=FLASHONLY|Rotation=90.000|XOffset=0mil|YOffset=0mil|HoleType=Round|Shape=RoundedRectangle|*
%AMROUNDEDRECTD141*
21,1,0.04331,0.01378,0,0,90.0*
21,1,0.02559,0.03150,0,0,90.0*
1,1,0.01772,0.00689,0.01280*
1,1,0.01772,0.00689,-0.01280*
1,1,0.01772,-0.00689,-0.01280*
1,1,0.01772,-0.00689,0.01280*
%
%ADD141ROUNDEDRECTD141*%
G04:AMPARAMS|DCode=142|XSize=47.24mil|YSize=27.56mil|CornerRadius=7.87mil|HoleSize=0mil|Usage=FLASHONLY|Rotation=270.000|XOffset=0mil|YOffset=0mil|HoleType=Round|Shape=RoundedRectangle|*
%AMROUNDEDRECTD142*
21,1,0.04724,0.01181,0,0,270.0*
21,1,0.03150,0.02756,0,0,270.0*
1,1,0.01575,-0.00591,-0.01575*
1,1,0.01575,-0.00591,0.01575*
1,1,0.01575,0.00591,0.01575*
1,1,0.01575,0.00591,-0.01575*
%
%ADD142ROUNDEDRECTD142*%
G04:AMPARAMS|DCode=143|XSize=45.28mil|YSize=21.65mil|CornerRadius=6.4mil|HoleSize=0mil|Usage=FLASHONLY|Rotation=225.000|XOffset=0mil|YOffset=0mil|HoleType=Round|Shape=RoundedRectangle|*
%AMROUNDEDRECTD143*
21,1,0.04528,0.00886,0,0,225.0*
21,1,0.03248,0.02165,0,0,225.0*
1,1,0.01280,-0.01462,-0.00835*
1,1,0.01280,0.00835,0.01462*
1,1,0.01280,0.01462,0.00835*
1,1,0.01280,-0.00835,-0.01462*
%
%ADD143ROUNDEDRECTD143*%
G04:AMPARAMS|DCode=144|XSize=45.28mil|YSize=21.65mil|CornerRadius=6.4mil|HoleSize=0mil|Usage=FLASHONLY|Rotation=0.000|XOffset=0mil|YOffset=0mil|HoleType=Round|Shape=RoundedRectangle|*
%AMROUNDEDRECTD144*
21,1,0.04528,0.00886,0,0,0.0*
21,1,0.03248,0.02165,0,0,0.0*
1,1,0.01280,0.01624,-0.00443*
1,1,0.01280,-0.01624,-0.00443*
1,1,0.01280,-0.01624,0.00443*
1,1,0.01280,0.01624,0.00443*
%
%ADD144ROUNDEDRECTD144*%
%ADD145C,0.00394*%
%ADD146O,0.07087X0.04331*%
G04:AMPARAMS|DCode=147|XSize=62.99mil|YSize=62.99mil|CornerRadius=16.73mil|HoleSize=0mil|Usage=FLASHONLY|Rotation=125.500|XOffset=0mil|YOffset=0mil|HoleType=Round|Shape=RoundedRectangle|*
%AMROUNDEDRECTD147*
21,1,0.06299,0.02953,0,0,125.5*
21,1,0.02953,0.06299,0,0,125.5*
1,1,0.03347,0.00345,0.02059*
1,1,0.03347,0.02059,-0.00345*
1,1,0.03347,-0.00345,-0.02059*
1,1,0.03347,-0.02059,0.00345*
%
%ADD147ROUNDEDRECTD147*%
%ADD148C,0.06299*%
%ADD149C,0.12205*%
%ADD150C,0.12611*%
%ADD151C,0.07874*%
%ADD152C,0.05118*%
G04:AMPARAMS|DCode=153|XSize=51.18mil|YSize=51.18mil|CornerRadius=13.78mil|HoleSize=0mil|Usage=FLASHONLY|Rotation=90.000|XOffset=0mil|YOffset=0mil|HoleType=Round|Shape=RoundedRectangle|*
%AMROUNDEDRECTD153*
21,1,0.05118,0.02362,0,0,90.0*
21,1,0.02362,0.05118,0,0,90.0*
1,1,0.02756,0.01181,0.01181*
1,1,0.02756,0.01181,-0.01181*
1,1,0.02756,-0.01181,-0.01181*
1,1,0.02756,-0.01181,0.01181*
%
%ADD153ROUNDEDRECTD153*%
%ADD154C,0.07087*%
%ADD155O,0.10236X0.14173*%
G04:AMPARAMS|DCode=156|XSize=51.18mil|YSize=51.18mil|CornerRadius=13.78mil|HoleSize=0mil|Usage=FLASHONLY|Rotation=215.500|XOffset=0mil|YOffset=0mil|HoleType=Round|Shape=RoundedRectangle|*
%AMROUNDEDRECTD156*
21,1,0.05118,0.02362,0,0,215.5*
21,1,0.02362,0.05118,0,0,215.5*
1,1,0.02756,-0.01647,0.00276*
1,1,0.02756,0.00276,0.01647*
1,1,0.02756,0.01647,-0.00276*
1,1,0.02756,-0.00276,-0.01647*
%
%ADD156ROUNDEDRECTD156*%
G04:AMPARAMS|DCode=157|XSize=70.87mil|YSize=70.87mil|CornerRadius=18.7mil|HoleSize=0mil|Usage=FLASHONLY|Rotation=0.000|XOffset=0mil|YOffset=0mil|HoleType=Round|Shape=RoundedRectangle|*
%AMROUNDEDRECTD157*
21,1,0.07087,0.03347,0,0,0.0*
21,1,0.03347,0.07087,0,0,0.0*
1,1,0.03740,0.01673,-0.01673*
1,1,0.03740,-0.01673,-0.01673*
1,1,0.03740,-0.01673,0.01673*
1,1,0.03740,0.01673,0.01673*
%
%ADD157ROUNDEDRECTD157*%
G36*
X-929Y114907D02*
Y114107D01*
Y113307D01*
Y112507D01*
X-4129D01*
Y113307D01*
Y114107D01*
Y114907D01*
Y115707D01*
X-929D01*
Y114907D01*
D02*
G37*
G36*
X-23329D02*
Y114107D01*
Y113307D01*
Y112507D01*
X-26529D01*
Y113307D01*
Y114107D01*
Y114907D01*
Y115707D01*
X-23329D01*
Y114907D01*
D02*
G37*
G36*
X-29729Y124507D02*
Y123707D01*
Y122907D01*
Y122107D01*
Y121307D01*
Y120507D01*
Y119707D01*
Y118907D01*
Y118107D01*
Y117307D01*
Y116507D01*
Y115707D01*
Y114907D01*
Y114107D01*
Y113307D01*
Y112507D01*
Y111707D01*
Y110907D01*
Y110107D01*
Y109307D01*
Y108507D01*
Y107707D01*
Y106907D01*
Y106107D01*
X-23329D01*
Y106907D01*
Y107707D01*
Y108507D01*
Y109307D01*
X-20129D01*
Y110107D01*
Y110907D01*
Y111707D01*
Y112507D01*
Y113307D01*
Y114107D01*
Y114907D01*
Y115707D01*
X-13729D01*
Y114907D01*
Y114107D01*
Y113307D01*
Y112507D01*
X-4129D01*
Y111707D01*
Y110907D01*
Y110107D01*
Y109307D01*
X-929D01*
Y108507D01*
Y107707D01*
Y106907D01*
Y106107D01*
X-4129D01*
Y106907D01*
Y107707D01*
Y108507D01*
Y109307D01*
X-7329D01*
Y108507D01*
Y107707D01*
Y106907D01*
Y106107D01*
Y105307D01*
Y104507D01*
Y103707D01*
Y102907D01*
X-929D01*
Y102107D01*
Y101307D01*
Y100507D01*
Y99707D01*
X-7329D01*
Y98907D01*
Y98107D01*
Y97307D01*
Y96507D01*
X-929D01*
Y95707D01*
Y94907D01*
Y94107D01*
Y93307D01*
X-32929D01*
Y94107D01*
Y94907D01*
Y95707D01*
Y96507D01*
Y97307D01*
Y98107D01*
Y98907D01*
Y99707D01*
Y100507D01*
Y101307D01*
Y102107D01*
Y102907D01*
Y103707D01*
Y104507D01*
Y105307D01*
Y106107D01*
Y106907D01*
Y107707D01*
Y108507D01*
Y109307D01*
Y110107D01*
Y110907D01*
Y111707D01*
Y112507D01*
Y113307D01*
Y114107D01*
Y114907D01*
Y115707D01*
Y116507D01*
Y117307D01*
Y118107D01*
Y118907D01*
Y119707D01*
Y120507D01*
Y121307D01*
Y122107D01*
Y122907D01*
Y123707D01*
Y124507D01*
Y125307D01*
X-29729D01*
Y124507D01*
D02*
G37*
G36*
X-4129D02*
Y123707D01*
Y122907D01*
Y122107D01*
X-929D01*
Y121307D01*
Y120507D01*
Y119707D01*
Y118907D01*
X-7329D01*
Y118107D01*
Y117307D01*
Y116507D01*
Y115707D01*
X-13729D01*
Y116507D01*
Y117307D01*
Y118107D01*
Y118907D01*
X-10529D01*
Y119707D01*
Y120507D01*
Y121307D01*
Y122107D01*
X-13729D01*
Y122907D01*
Y123707D01*
Y124507D01*
Y125307D01*
X-10529D01*
Y124507D01*
Y123707D01*
Y122907D01*
Y122107D01*
X-7329D01*
Y122907D01*
Y123707D01*
Y124507D01*
Y125307D01*
X-4129D01*
Y124507D01*
D02*
G37*
G36*
X-16929D02*
Y123707D01*
Y122907D01*
Y122107D01*
X-20129D01*
Y122907D01*
Y123707D01*
Y124507D01*
Y125307D01*
X-16929D01*
Y124507D01*
D02*
G37*
G36*
X-23329D02*
Y123707D01*
Y122907D01*
Y122107D01*
Y121307D01*
Y120507D01*
Y119707D01*
Y118907D01*
X-26529D01*
Y119707D01*
Y120507D01*
Y121307D01*
Y122107D01*
Y122907D01*
Y123707D01*
Y124507D01*
Y125307D01*
X-23329D01*
Y124507D01*
D02*
G37*
%LPC*%
G36*
X-16929Y102907D02*
X-29729D01*
Y102107D01*
Y101307D01*
Y100507D01*
Y99707D01*
X-16929D01*
Y100507D01*
Y101307D01*
Y102107D01*
Y102907D01*
D02*
G37*
G36*
X-13729Y109307D02*
X-16929D01*
Y108507D01*
Y107707D01*
Y106907D01*
Y106107D01*
Y105307D01*
Y104507D01*
Y103707D01*
Y102907D01*
X-10529D01*
Y103707D01*
Y104507D01*
Y105307D01*
Y106107D01*
X-13729D01*
Y106907D01*
Y107707D01*
Y108507D01*
Y109307D01*
D02*
G37*
%LPD*%
D106*
X45000Y-16280D02*
D03*
Y-11280D02*
D03*
X50000Y-16280D02*
D03*
Y-11280D02*
D03*
X55000Y-16280D02*
D03*
Y-11280D02*
D03*
D107*
X-33071Y-55905D02*
D03*
D108*
X-40846Y-52756D02*
D03*
Y-54331D02*
D03*
Y-55905D02*
D03*
Y-57480D02*
D03*
Y-59055D02*
D03*
Y-60630D02*
D03*
X-25295D02*
D03*
Y-59055D02*
D03*
Y-57480D02*
D03*
Y-55905D02*
D03*
Y-54331D02*
D03*
Y-52756D02*
D03*
Y-51181D02*
D03*
X-40846D02*
D03*
D109*
X-37795Y-63681D02*
D03*
X-36220D02*
D03*
X-34646D02*
D03*
X-33071D02*
D03*
X-31496D02*
D03*
X-29921D02*
D03*
X-28346D02*
D03*
Y-48130D02*
D03*
X-29921D02*
D03*
X-31496D02*
D03*
X-33071D02*
D03*
X-34646D02*
D03*
X-36220D02*
D03*
X-37795D02*
D03*
D110*
X-140984Y-10827D02*
D03*
Y10827D02*
D03*
D111*
Y5984D02*
D03*
Y-5984D02*
D03*
D112*
Y1969D02*
D03*
Y-1969D02*
D03*
D113*
X-102362Y105118D02*
D03*
X-102362Y101181D02*
D03*
D114*
X14067Y74874D02*
D03*
Y70740D02*
D03*
X17323Y70768D02*
D03*
Y74902D02*
D03*
X-146457Y34744D02*
D03*
Y30610D02*
D03*
X13780Y-104626D02*
D03*
Y-108760D02*
D03*
X10236Y-104626D02*
D03*
Y-108760D02*
D03*
X-119083Y41417D02*
D03*
Y37284D02*
D03*
X-122583Y41417D02*
D03*
Y37284D02*
D03*
X-126083Y41417D02*
D03*
Y37284D02*
D03*
X-116929Y31988D02*
D03*
Y27854D02*
D03*
Y20768D02*
D03*
Y24902D02*
D03*
X-81496Y16043D02*
D03*
Y20177D02*
D03*
X-103937Y24902D02*
D03*
Y20768D02*
D03*
X38189Y-79429D02*
D03*
Y-83563D02*
D03*
Y-55413D02*
D03*
Y-59547D02*
D03*
X36614Y-46949D02*
D03*
Y-42815D02*
D03*
X41732D02*
D03*
Y-46949D02*
D03*
X33096Y-42774D02*
D03*
Y-46908D02*
D03*
X16929Y103051D02*
D03*
Y107185D02*
D03*
X-23228Y-67224D02*
D03*
Y-71358D02*
D03*
X-16535Y-56201D02*
D03*
Y-60335D02*
D03*
D115*
X-140945Y44783D02*
D03*
Y34744D02*
D03*
D116*
X-111083Y39850D02*
D03*
X-102362Y74016D02*
D03*
X-9055Y-110630D02*
D03*
X16535Y-119291D02*
D03*
X-89764Y39370D02*
D03*
X-7087Y-100000D02*
D03*
X-40157Y64961D02*
D03*
X-38976Y50787D02*
D03*
X-87795Y11417D02*
D03*
X-29528Y74410D02*
D03*
X7087Y37008D02*
D03*
X-48819Y33465D02*
D03*
X-9843Y43701D02*
D03*
X-23622Y30709D02*
D03*
D117*
X-105512Y48622D02*
D03*
Y42717D02*
D03*
Y58858D02*
D03*
Y52953D02*
D03*
Y63189D02*
D03*
X-105512Y69095D02*
D03*
X-86221Y22244D02*
D03*
Y16339D02*
D03*
D118*
X-113189Y86614D02*
D03*
X-107283D02*
D03*
X-113189Y77165D02*
D03*
X-107283D02*
D03*
X-147047Y-25591D02*
D03*
X-141142D02*
D03*
D119*
X3051Y-96457D02*
D03*
X7185D02*
D03*
X-117618Y86614D02*
D03*
X-121752D02*
D03*
X-117618Y81496D02*
D03*
X-121752D02*
D03*
Y77165D02*
D03*
X-117618D02*
D03*
X98Y-96457D02*
D03*
X-4035D02*
D03*
X-144980Y-21654D02*
D03*
X-140847D02*
D03*
X29035Y-83858D02*
D03*
X33169Y-83858D02*
D03*
X29069Y-59821D02*
D03*
X33203D02*
D03*
X29035Y-79134D02*
D03*
X33169Y-79134D02*
D03*
X29035Y-55118D02*
D03*
X33169D02*
D03*
D120*
X-24163Y68903D02*
D03*
X-27698Y65368D02*
D03*
X-31234Y61832D02*
D03*
X-34769Y58296D02*
D03*
X-19737Y43264D02*
D03*
X-16201Y46799D02*
D03*
X-12665Y50335D02*
D03*
X-9130Y53870D02*
D03*
D121*
X-11296Y63814D02*
D03*
X-14219Y66737D02*
D03*
X1855Y-38863D02*
D03*
X-1068Y-35940D02*
D03*
X12485Y13105D02*
D03*
X9562Y16028D02*
D03*
X32397Y-2082D02*
D03*
X35320Y-5005D02*
D03*
X15468Y16028D02*
D03*
X18391Y13105D02*
D03*
X23115Y8381D02*
D03*
X20192Y11304D02*
D03*
X34759Y280D02*
D03*
X37682Y-2643D02*
D03*
X37121Y2643D02*
D03*
X40044Y-280D02*
D03*
X30035Y-4444D02*
D03*
X32958Y-7367D02*
D03*
D122*
X-39990Y30219D02*
D03*
X-37067Y33142D02*
D03*
X-37162Y27391D02*
D03*
X-34239Y30314D02*
D03*
X-31505Y33047D02*
D03*
X-28582Y35970D02*
D03*
X-31410Y38799D02*
D03*
X-34333Y35876D02*
D03*
X-13893Y-45389D02*
D03*
X-16816Y-48312D02*
D03*
X-12092Y-52643D02*
D03*
X-9168Y-49720D02*
D03*
X20192Y-23115D02*
D03*
X23115Y-20192D02*
D03*
X-18224Y27052D02*
D03*
X-21147Y24129D02*
D03*
X-19178Y-17210D02*
D03*
X-16255Y-14287D02*
D03*
X-13273Y-21934D02*
D03*
X-10350Y-19011D02*
D03*
X-24129Y21147D02*
D03*
X-27052Y18224D02*
D03*
D123*
X1258Y44960D02*
D03*
X-4643Y42677D02*
D03*
X-1024Y39058D02*
D03*
X-6228Y37463D02*
D03*
X-12129Y35180D02*
D03*
X-8510Y31561D02*
D03*
D124*
X-35928Y40027D02*
D03*
X-41218Y34737D02*
D03*
X-44142Y42949D02*
D03*
D125*
X-5120Y-45660D02*
D03*
X-7626Y-43154D02*
D03*
X-10131Y-40649D02*
D03*
X-12637Y-38143D02*
D03*
X-9296Y-34803D02*
D03*
X-6791Y-37308D02*
D03*
X-4285Y-39814D02*
D03*
X-1780Y-42319D02*
D03*
D126*
X30215Y-88372D02*
D03*
X37695D02*
D03*
X33956Y-96246D02*
D03*
X30118Y-64567D02*
D03*
X37598D02*
D03*
X33859Y-72441D02*
D03*
D127*
X110870Y42431D02*
D03*
X108469Y45797D02*
D03*
X107110Y40061D02*
D03*
X104709Y43427D02*
D03*
D128*
X29331Y105119D02*
D03*
X21063Y108858D02*
D03*
X21063Y101378D02*
D03*
D129*
X83430Y116923D02*
D03*
X87010Y118990D02*
D03*
D130*
X79183Y114228D02*
D03*
X74069Y111276D02*
D03*
D131*
X28091Y93308D02*
D03*
X22303Y95866D02*
D03*
Y90748D02*
D03*
D132*
X139Y-16147D02*
D03*
X-1670Y-14337D02*
D03*
X-3480Y-12528D02*
D03*
X-5289Y-10718D02*
D03*
X-7099Y-8908D02*
D03*
X-8908Y-7099D02*
D03*
X-10718Y-5289D02*
D03*
X-12528Y-3480D02*
D03*
X-14337Y-1670D02*
D03*
X-16147Y139D02*
D03*
X-139Y16147D02*
D03*
X1670Y14337D02*
D03*
X3480Y12528D02*
D03*
X5289Y10718D02*
D03*
X7099Y8908D02*
D03*
X8908Y7099D02*
D03*
X10718Y5289D02*
D03*
X12528Y3480D02*
D03*
X14337Y1670D02*
D03*
X16147Y-139D02*
D03*
D133*
X-24517Y12964D02*
D03*
X-12964Y24517D02*
D03*
X-6979Y18532D02*
D03*
X-18532Y6979D02*
D03*
D134*
X27102Y13843D02*
D03*
X20142Y20803D02*
D03*
D135*
X-51606Y-16173D02*
D03*
X-68866Y-33433D02*
D03*
X-70110Y2331D02*
D03*
X-87370Y-14929D02*
D03*
D136*
X-95007Y-30977D02*
D03*
X-92223Y-33761D02*
D03*
X-89439Y-36545D02*
D03*
X-86655Y-39329D02*
D03*
X-83871Y-42113D02*
D03*
X-81087Y-44897D02*
D03*
X-78303Y-47681D02*
D03*
X-75520Y-50465D02*
D03*
X-72736Y-53249D02*
D03*
X-69952Y-56032D02*
D03*
X-67168Y-58816D02*
D03*
X-64384Y-61600D02*
D03*
X-61600Y-64384D02*
D03*
X-58816Y-67168D02*
D03*
X-56032Y-69952D02*
D03*
X-53249Y-72736D02*
D03*
X-50465Y-75520D02*
D03*
X-47681Y-78303D02*
D03*
X-44897Y-81087D02*
D03*
X-42113Y-83871D02*
D03*
X-39329Y-86655D02*
D03*
X-36545Y-89439D02*
D03*
X-33761Y-92223D02*
D03*
X-30977Y-95007D02*
D03*
D137*
X-110318Y-28750D02*
D03*
X-28750Y-110318D02*
D03*
D138*
X-126083Y47221D02*
D03*
X-121083D02*
D03*
X-116083D02*
D03*
X-111083D02*
D03*
Y68480D02*
D03*
X-116083D02*
D03*
X-121083D02*
D03*
X-126083D02*
D03*
D139*
X-118583Y57850D02*
D03*
D140*
X-122835Y26378D02*
D03*
Y30118D02*
D03*
Y22638D02*
D03*
X-132283D02*
D03*
Y26378D02*
D03*
Y30118D02*
D03*
D141*
X-2240Y-111224D02*
D03*
X1500D02*
D03*
X5240D02*
D03*
Y-101776D02*
D03*
X-2240D02*
D03*
X1500D02*
D03*
D142*
X-91862Y24949D02*
D03*
X-95602D02*
D03*
X-99343D02*
D03*
Y14713D02*
D03*
X-91862D02*
D03*
D143*
X26188Y-10737D02*
D03*
X24378Y-8928D02*
D03*
X22569Y-7118D02*
D03*
X20759Y-5308D02*
D03*
X5308Y-20759D02*
D03*
X7118Y-22569D02*
D03*
X8928Y-24378D02*
D03*
X10737Y-26188D02*
D03*
D144*
X10925Y-117661D02*
D03*
Y-120220D02*
D03*
Y-122780D02*
D03*
Y-125339D02*
D03*
X-10925D02*
D03*
Y-122780D02*
D03*
Y-120220D02*
D03*
Y-117661D02*
D03*
D145*
X40000Y-13780D02*
D03*
X60000Y-9780D02*
D03*
Y-17779D02*
D03*
D146*
X-141693Y17008D02*
D03*
Y-17008D02*
D03*
X-156653Y17008D02*
D03*
Y-17008D02*
D03*
D147*
X134936Y52841D02*
D03*
D148*
X126795Y47034D02*
D03*
X118654Y41227D02*
D03*
X110512Y35420D02*
D03*
X102371Y29613D02*
D03*
X94230Y23806D02*
D03*
X86089Y17999D02*
D03*
X77948Y12192D02*
D03*
X36718Y69994D02*
D03*
X44859Y75801D02*
D03*
X53000Y81608D02*
D03*
X61141Y87415D02*
D03*
X69282Y93222D02*
D03*
X77424Y99029D02*
D03*
X85565Y104836D02*
D03*
X93706Y110643D02*
D03*
D149*
X1Y-142724D02*
D03*
Y-79732D02*
D03*
Y78732D02*
D03*
X118110Y0D02*
D03*
X-118110D02*
D03*
D150*
X1Y141724D02*
D03*
D151*
X102362Y102362D02*
D03*
X-102362Y-102362D02*
D03*
D152*
X-42500Y114063D02*
D03*
X86276Y-13068D02*
D03*
D153*
X-42500Y121937D02*
D03*
D154*
X80563Y-41193D02*
D03*
X60878D02*
D03*
X70720D02*
D03*
X80563Y-98280D02*
D03*
X60878D02*
D03*
X-60878Y100248D02*
D03*
X-80563D02*
D03*
X-70720D02*
D03*
X-60878Y43161D02*
D03*
X-80563D02*
D03*
X-129646Y-38976D02*
D03*
D155*
X93161Y-70720D02*
D03*
X48280D02*
D03*
X-48280Y70720D02*
D03*
X-93161D02*
D03*
D156*
X79866Y-17641D02*
D03*
D157*
X-139646Y-38976D02*
D03*
M02*
