G04*
G04 #@! TF.GenerationSoftware,Altium Limited,CircuitStudio,1.5.2 (30)*
G04*
G04 Layer_Physical_Order=3*
G04 Layer_Color=56745*
%FSLAX25Y25*%
%MOIN*%
G70*
G01*
G75*
%ADD63C,0.03150*%
G36*
X7500Y152666D02*
X14982Y152114D01*
X22428Y151196D01*
X29820Y149913D01*
X37140Y148270D01*
X44370Y146269D01*
X51494Y143915D01*
X58493Y141215D01*
X65352Y138175D01*
X72053Y134802D01*
X78581Y131104D01*
X84919Y127091D01*
X91053Y122771D01*
X96967Y118155D01*
X102648Y113255D01*
X108081Y108081D01*
X113255Y102648D01*
X118155Y96967D01*
X122771Y91053D01*
X127091Y84919D01*
X131104Y78581D01*
X134802Y72053D01*
X138175Y65352D01*
X141215Y58493D01*
X143915Y51494D01*
X146269Y44370D01*
X148270Y37140D01*
X149913Y29820D01*
X151196Y22428D01*
X152114Y14982D01*
X152666Y7500D01*
X152850Y0D01*
X152666Y-7500D01*
X152114Y-14982D01*
X151196Y-22428D01*
X149913Y-29820D01*
X148270Y-37140D01*
X146269Y-44370D01*
X143915Y-51494D01*
X141215Y-58493D01*
X138175Y-65352D01*
X134802Y-72053D01*
X131104Y-78581D01*
X127091Y-84919D01*
X122771Y-91053D01*
X118155Y-96967D01*
X113255Y-102648D01*
X108081Y-108081D01*
X102648Y-113255D01*
X96967Y-118155D01*
X91053Y-122771D01*
X84919Y-127091D01*
X78581Y-131104D01*
X72053Y-134802D01*
X65352Y-138175D01*
X58493Y-141215D01*
X51494Y-143915D01*
X44370Y-146269D01*
X37140Y-148270D01*
X29820Y-149913D01*
X22428Y-151196D01*
X14982Y-152114D01*
X7500Y-152666D01*
X0Y-152850D01*
X-7500Y-152666D01*
X-14982Y-152114D01*
X-22428Y-151196D01*
X-29820Y-149913D01*
X-37140Y-148270D01*
X-44370Y-146269D01*
X-51494Y-143915D01*
X-58493Y-141215D01*
X-65352Y-138175D01*
X-72053Y-134802D01*
X-78581Y-131104D01*
X-84919Y-127091D01*
X-91053Y-122771D01*
X-96967Y-118155D01*
X-102648Y-113255D01*
X-108081Y-108081D01*
X-113255Y-102648D01*
X-118155Y-96967D01*
X-122771Y-91053D01*
X-127091Y-84919D01*
X-131104Y-78581D01*
X-134802Y-72053D01*
X-138175Y-65352D01*
X-141215Y-58493D01*
X-143915Y-51494D01*
X-146269Y-44370D01*
X-148270Y-37140D01*
X-149913Y-29820D01*
X-150854Y-24397D01*
X-150835Y-24368D01*
X-150766Y-24022D01*
X-150835Y-23676D01*
X-151031Y-23383D01*
X-153399Y-21015D01*
X-153692Y-20819D01*
X-154038Y-20750D01*
X-160514D01*
Y-18444D01*
X-160014Y-18293D01*
X-159734Y-18711D01*
X-158953Y-19233D01*
X-158031Y-19416D01*
X-155276D01*
X-154354Y-19233D01*
X-153572Y-18711D01*
X-153050Y-17930D01*
X-152867Y-17008D01*
X-153050Y-16086D01*
X-153572Y-15305D01*
X-154354Y-14783D01*
X-155276Y-14599D01*
X-158031D01*
X-158953Y-14783D01*
X-159734Y-15305D01*
X-160014Y-15723D01*
X-160514Y-15572D01*
Y15572D01*
X-160014Y15723D01*
X-159734Y15305D01*
X-158953Y14783D01*
X-158031Y14599D01*
X-155276D01*
X-154354Y14783D01*
X-153572Y15305D01*
X-153050Y16086D01*
X-152867Y17008D01*
X-153050Y17930D01*
X-153572Y18711D01*
X-154354Y19233D01*
X-155276Y19416D01*
X-158031D01*
X-158953Y19233D01*
X-159734Y18711D01*
X-160014Y18293D01*
X-160514Y18444D01*
Y20750D01*
X-154038D01*
X-153692Y20819D01*
X-153399Y21015D01*
X-151031Y23383D01*
X-150835Y23676D01*
X-150766Y24022D01*
X-150835Y24368D01*
X-150854Y24397D01*
X-149913Y29820D01*
X-148270Y37140D01*
X-146269Y44370D01*
X-143915Y51494D01*
X-143398Y52834D01*
X-142937Y52881D01*
X-142877Y52864D01*
X-142944Y52403D01*
X-142952Y52362D01*
X-142799Y51594D01*
X-142364Y50943D01*
X-141992Y50694D01*
Y50093D01*
X-142364Y49844D01*
X-142799Y49193D01*
X-142952Y48425D01*
X-142799Y47657D01*
X-142364Y47006D01*
X-141713Y46571D01*
X-140945Y46418D01*
X-140177Y46571D01*
X-139526Y47006D01*
X-139091Y47657D01*
X-138938Y48425D01*
X-139091Y49193D01*
X-139526Y49844D01*
X-139898Y50093D01*
Y50694D01*
X-139526Y50943D01*
X-139091Y51594D01*
X-138938Y52362D01*
X-139091Y53130D01*
X-139526Y53781D01*
X-140177Y54216D01*
X-140945Y54369D01*
X-141713Y54216D01*
X-142364Y53781D01*
X-142418Y53702D01*
X-142685Y53314D01*
X-142750Y53348D01*
X-143072Y53680D01*
X-141215Y58493D01*
X-138175Y65352D01*
X-134802Y72053D01*
X-131104Y78581D01*
X-127091Y84919D01*
X-122771Y91053D01*
X-118155Y96967D01*
X-113255Y102648D01*
X-108081Y108081D01*
X-102648Y113255D01*
X-96967Y118155D01*
X-91053Y122771D01*
X-84919Y127091D01*
X-78581Y131104D01*
X-72053Y134802D01*
X-65352Y138175D01*
X-58493Y141215D01*
X-51494Y143915D01*
X-44370Y146269D01*
X-37140Y148270D01*
X-29820Y149913D01*
X-22428Y151196D01*
X-14982Y152114D01*
X-7500Y152666D01*
X0Y152850D01*
X7500Y152666D01*
D02*
G37*
%LPC*%
G36*
X-41732Y-33426D02*
X-42500Y-33579D01*
X-43152Y-34014D01*
X-43587Y-34665D01*
X-43739Y-35433D01*
X-43587Y-36201D01*
X-43152Y-36852D01*
X-42500Y-37287D01*
X-41732Y-37440D01*
X-40964Y-37287D01*
X-40313Y-36852D01*
X-39878Y-36201D01*
X-39725Y-35433D01*
X-39878Y-34665D01*
X-40313Y-34014D01*
X-40964Y-33579D01*
X-41732Y-33426D01*
D02*
G37*
G36*
X-36220D02*
X-36988Y-33579D01*
X-37640Y-34014D01*
X-38075Y-34665D01*
X-38227Y-35433D01*
X-38075Y-36201D01*
X-37640Y-36852D01*
X-36988Y-37287D01*
X-36220Y-37440D01*
X-35452Y-37287D01*
X-34801Y-36852D01*
X-34366Y-36201D01*
X-34213Y-35433D01*
X-34366Y-34665D01*
X-34801Y-34014D01*
X-35452Y-33579D01*
X-36220Y-33426D01*
D02*
G37*
G36*
X-46850D02*
X-47618Y-33579D01*
X-48270Y-34014D01*
X-48705Y-34665D01*
X-48858Y-35433D01*
X-48705Y-36201D01*
X-48270Y-36852D01*
X-47618Y-37287D01*
X-46850Y-37440D01*
X-46082Y-37287D01*
X-45431Y-36852D01*
X-44996Y-36201D01*
X-44843Y-35433D01*
X-44996Y-34665D01*
X-45431Y-34014D01*
X-46082Y-33579D01*
X-46850Y-33426D01*
D02*
G37*
G36*
X-79134Y-35394D02*
X-79902Y-35547D01*
X-80553Y-35982D01*
X-80988Y-36634D01*
X-81141Y-37402D01*
X-80988Y-38170D01*
X-80553Y-38821D01*
X-79902Y-39256D01*
X-79134Y-39409D01*
X-78529Y-39288D01*
X-78421Y-39370D01*
X-76772D01*
Y-38094D01*
X-77016Y-37939D01*
X-77199Y-37763D01*
X-77127Y-37402D01*
X-77280Y-36634D01*
X-77715Y-35982D01*
X-78366Y-35547D01*
X-79134Y-35394D01*
D02*
G37*
G36*
X-75197Y-38106D02*
Y-39370D01*
X-73933D01*
X-73944Y-39313D01*
X-74423Y-38596D01*
X-75139Y-38118D01*
X-75197Y-38106D01*
D02*
G37*
G36*
X-3937Y-28308D02*
X-4705Y-28461D01*
X-5356Y-28896D01*
X-5791Y-29547D01*
X-5944Y-30315D01*
X-5791Y-31083D01*
X-5356Y-31734D01*
X-4705Y-32169D01*
X-3937Y-32322D01*
X-3169Y-32169D01*
X-2518Y-31734D01*
X-2083Y-31083D01*
X-1930Y-30315D01*
X-2083Y-29547D01*
X-2518Y-28896D01*
X-3169Y-28461D01*
X-3937Y-28308D01*
D02*
G37*
G36*
X-46457Y-25552D02*
X-47225Y-25705D01*
X-47876Y-26140D01*
X-48311Y-26791D01*
X-48464Y-27559D01*
X-48311Y-28327D01*
X-47876Y-28978D01*
X-47225Y-29413D01*
X-46457Y-29566D01*
X-45689Y-29413D01*
X-45037Y-28978D01*
X-44602Y-28327D01*
X-44450Y-27559D01*
X-44602Y-26791D01*
X-45037Y-26140D01*
X-45689Y-25705D01*
X-46457Y-25552D01*
D02*
G37*
G36*
X-41732D02*
X-42500Y-25705D01*
X-43152Y-26140D01*
X-43587Y-26791D01*
X-43739Y-27559D01*
X-43587Y-28327D01*
X-43152Y-28978D01*
X-42500Y-29413D01*
X-41732Y-29566D01*
X-40964Y-29413D01*
X-40313Y-28978D01*
X-39878Y-28327D01*
X-39725Y-27559D01*
X-39878Y-26791D01*
X-40313Y-26140D01*
X-40964Y-25705D01*
X-41732Y-25552D01*
D02*
G37*
G36*
X-15347Y-33426D02*
X-16115Y-33579D01*
X-16766Y-34014D01*
X-17201Y-34665D01*
X-17354Y-35433D01*
X-17201Y-36201D01*
X-16766Y-36852D01*
X-16115Y-37287D01*
X-15347Y-37440D01*
X-14579Y-37287D01*
X-13928Y-36852D01*
X-13493Y-36201D01*
X-13340Y-35433D01*
X-13493Y-34665D01*
X-13928Y-34014D01*
X-14579Y-33579D01*
X-15347Y-33426D01*
D02*
G37*
G36*
X1575Y-31064D02*
X807Y-31217D01*
X156Y-31652D01*
X-280Y-32303D01*
X-432Y-33071D01*
X-280Y-33839D01*
X156Y-34490D01*
X807Y-34925D01*
X1575Y-35078D01*
X2343Y-34925D01*
X2994Y-34490D01*
X3429Y-33839D01*
X3582Y-33071D01*
X3429Y-32303D01*
X2994Y-31652D01*
X2343Y-31217D01*
X1575Y-31064D01*
D02*
G37*
G36*
X14961Y-30276D02*
X14193Y-30429D01*
X13541Y-30864D01*
X13106Y-31515D01*
X12954Y-32283D01*
X13106Y-33051D01*
X13541Y-33703D01*
X14193Y-34138D01*
X14961Y-34291D01*
X15729Y-34138D01*
X16380Y-33703D01*
X16815Y-33051D01*
X16968Y-32283D01*
X16815Y-31515D01*
X16380Y-30864D01*
X15729Y-30429D01*
X14961Y-30276D01*
D02*
G37*
G36*
X6382Y-42126D02*
X5118D01*
Y-43390D01*
X5176Y-43378D01*
X5892Y-42900D01*
X6370Y-42184D01*
X6382Y-42126D01*
D02*
G37*
G36*
X-137972Y-35196D02*
X-141319D01*
X-142125Y-35356D01*
X-142809Y-35813D01*
X-143266Y-36497D01*
X-143426Y-37303D01*
Y-40650D01*
X-143266Y-41456D01*
X-142809Y-42140D01*
X-142125Y-42597D01*
X-141319Y-42757D01*
X-137972D01*
X-137166Y-42597D01*
X-136482Y-42140D01*
X-136026Y-41456D01*
X-135865Y-40650D01*
Y-37303D01*
X-136026Y-36497D01*
X-136482Y-35813D01*
X-137166Y-35356D01*
X-137972Y-35196D01*
D02*
G37*
G36*
X3543Y-42126D02*
X2280D01*
X2291Y-42184D01*
X2770Y-42900D01*
X3486Y-43378D01*
X3543Y-43390D01*
Y-42126D01*
D02*
G37*
G36*
X80563Y-37420D02*
X79587Y-37549D01*
X78677Y-37926D01*
X77895Y-38525D01*
X77296Y-39307D01*
X76919Y-40216D01*
X76791Y-41193D01*
X76919Y-42169D01*
X77296Y-43079D01*
X77895Y-43860D01*
X78677Y-44460D01*
X79587Y-44837D01*
X80563Y-44965D01*
X81539Y-44837D01*
X82449Y-44460D01*
X83231Y-43860D01*
X83830Y-43079D01*
X84207Y-42169D01*
X84335Y-41193D01*
X84207Y-40216D01*
X83830Y-39307D01*
X83231Y-38525D01*
X82449Y-37926D01*
X81539Y-37549D01*
X80563Y-37420D01*
D02*
G37*
G36*
X-16535Y-40119D02*
X-17303Y-40272D01*
X-17955Y-40707D01*
X-18390Y-41358D01*
X-18542Y-42126D01*
X-18390Y-42894D01*
X-17955Y-43545D01*
X-17303Y-43980D01*
X-16535Y-44133D01*
X-15767Y-43980D01*
X-15116Y-43545D01*
X-14681Y-42894D01*
X-14528Y-42126D01*
X-14681Y-41358D01*
X-15116Y-40707D01*
X-15767Y-40272D01*
X-16535Y-40119D01*
D02*
G37*
G36*
X-129646Y-35204D02*
X-130622Y-35333D01*
X-131532Y-35709D01*
X-132313Y-36309D01*
X-132913Y-37090D01*
X-133290Y-38000D01*
X-133418Y-38976D01*
X-133290Y-39953D01*
X-132913Y-40863D01*
X-132313Y-41644D01*
X-131532Y-42243D01*
X-130622Y-42620D01*
X-129646Y-42749D01*
X-128669Y-42620D01*
X-127760Y-42243D01*
X-126978Y-41644D01*
X-126379Y-40863D01*
X-126002Y-39953D01*
X-125873Y-38976D01*
X-126002Y-38000D01*
X-126379Y-37090D01*
X-126978Y-36309D01*
X-127760Y-35709D01*
X-128669Y-35333D01*
X-129646Y-35204D01*
D02*
G37*
G36*
X5118Y-39287D02*
Y-40551D01*
X6382D01*
X6370Y-40494D01*
X5892Y-39777D01*
X5176Y-39299D01*
X5118Y-39287D01*
D02*
G37*
G36*
X-29528Y-35394D02*
X-30296Y-35547D01*
X-30947Y-35982D01*
X-31382Y-36634D01*
X-31535Y-37402D01*
X-31382Y-38170D01*
X-30947Y-38821D01*
X-30296Y-39256D01*
X-29528Y-39409D01*
X-28760Y-39256D01*
X-28108Y-38821D01*
X-27673Y-38170D01*
X-27520Y-37402D01*
X-27673Y-36634D01*
X-28108Y-35982D01*
X-28760Y-35547D01*
X-29528Y-35394D01*
D02*
G37*
G36*
X3543Y-39287D02*
X3486Y-39299D01*
X2770Y-39777D01*
X2291Y-40494D01*
X2280Y-40551D01*
X3543D01*
Y-39287D01*
D02*
G37*
G36*
X-76772Y-40945D02*
X-78035D01*
X-78024Y-41002D01*
X-77545Y-41719D01*
X-76829Y-42197D01*
X-76772Y-42209D01*
Y-40945D01*
D02*
G37*
G36*
X-73933D02*
X-75197D01*
Y-42209D01*
X-75139Y-42197D01*
X-74423Y-41719D01*
X-73944Y-41002D01*
X-73933Y-40945D01*
D02*
G37*
G36*
X60000Y-15389D02*
X59085Y-15571D01*
X58310Y-16089D01*
X57792Y-16865D01*
X57610Y-17779D01*
X57792Y-18694D01*
X58310Y-19470D01*
X59085Y-19988D01*
X60000Y-20170D01*
X60915Y-19988D01*
X61690Y-19470D01*
X62208Y-18694D01*
X62390Y-17779D01*
X62208Y-16865D01*
X61690Y-16089D01*
X60915Y-15571D01*
X60000Y-15389D01*
D02*
G37*
G36*
X-59055Y-15710D02*
X-59823Y-15862D01*
X-60474Y-16297D01*
X-60909Y-16949D01*
X-61062Y-17717D01*
X-60909Y-18485D01*
X-60474Y-19136D01*
X-59823Y-19571D01*
X-59055Y-19724D01*
X-58287Y-19571D01*
X-57636Y-19136D01*
X-57201Y-18485D01*
X-57048Y-17717D01*
X-57201Y-16949D01*
X-57636Y-16297D01*
X-58287Y-15862D01*
X-59055Y-15710D01*
D02*
G37*
G36*
X80406Y-14410D02*
X79780Y-14429D01*
X79209Y-14686D01*
X77286Y-16058D01*
X76857Y-16514D01*
X76635Y-17100D01*
X76654Y-17726D01*
X76911Y-18297D01*
X78283Y-20220D01*
X78739Y-20650D01*
X79325Y-20872D01*
X79951Y-20853D01*
X80522Y-20595D01*
X82446Y-19223D01*
X82875Y-18767D01*
X83097Y-18181D01*
X83078Y-17555D01*
X82820Y-16984D01*
X81449Y-15061D01*
X80992Y-14631D01*
X80406Y-14410D01*
D02*
G37*
G36*
X-22047Y-20079D02*
X-23311D01*
X-23300Y-20136D01*
X-22821Y-20853D01*
X-22105Y-21331D01*
X-22047Y-21342D01*
Y-20079D01*
D02*
G37*
G36*
X-19209D02*
X-20472D01*
Y-21342D01*
X-20415Y-21331D01*
X-19699Y-20853D01*
X-19220Y-20136D01*
X-19209Y-20079D01*
D02*
G37*
G36*
X-140315Y-14599D02*
X-143071D01*
X-143993Y-14783D01*
X-144774Y-15305D01*
X-145296Y-16086D01*
X-145479Y-17008D01*
X-145296Y-17930D01*
X-144774Y-18711D01*
X-143993Y-19233D01*
X-143071Y-19416D01*
X-140315D01*
X-139393Y-19233D01*
X-138612Y-18711D01*
X-138090Y-17930D01*
X-137907Y-17008D01*
X-138090Y-16086D01*
X-138612Y-15305D01*
X-139393Y-14783D01*
X-140315Y-14599D01*
D02*
G37*
G36*
X40000Y-11389D02*
X39085Y-11571D01*
X38310Y-12089D01*
X37792Y-12865D01*
X37610Y-13780D01*
X37792Y-14694D01*
X38310Y-15470D01*
X39085Y-15988D01*
X40000Y-16170D01*
X40915Y-15988D01*
X41690Y-15470D01*
X42208Y-14694D01*
X42390Y-13780D01*
X42208Y-12865D01*
X41690Y-12089D01*
X40915Y-11571D01*
X40000Y-11389D01*
D02*
G37*
G36*
X86010Y-10301D02*
X85303Y-10464D01*
X84662Y-10805D01*
X84131Y-11300D01*
X83747Y-11915D01*
X83534Y-12609D01*
X83509Y-13334D01*
X83672Y-14042D01*
X84013Y-14682D01*
X84508Y-15213D01*
X85123Y-15597D01*
X85817Y-15810D01*
X86542Y-15835D01*
X87249Y-15672D01*
X87890Y-15331D01*
X88421Y-14836D01*
X88805Y-14221D01*
X89018Y-13527D01*
X89043Y-12802D01*
X88880Y-12095D01*
X88539Y-11454D01*
X88044Y-10923D01*
X87429Y-10539D01*
X86735Y-10327D01*
X86010Y-10301D01*
D02*
G37*
G36*
X-31496Y-13741D02*
X-32264Y-13894D01*
X-32915Y-14329D01*
X-33350Y-14980D01*
X-33503Y-15748D01*
X-33350Y-16516D01*
X-32915Y-17167D01*
X-32264Y-17602D01*
X-31496Y-17755D01*
X-30728Y-17602D01*
X-30077Y-17167D01*
X-29642Y-16516D01*
X-29489Y-15748D01*
X-29642Y-14980D01*
X-30077Y-14329D01*
X-30728Y-13894D01*
X-31496Y-13741D01*
D02*
G37*
G36*
X-22047Y-17240D02*
X-22105Y-17252D01*
X-22821Y-17730D01*
X-23300Y-18447D01*
X-23311Y-18504D01*
X-22047D01*
Y-17240D01*
D02*
G37*
G36*
X-20472D02*
Y-18504D01*
X-19209D01*
X-19220Y-18447D01*
X-19699Y-17730D01*
X-20415Y-17252D01*
X-20472Y-17240D01*
D02*
G37*
G36*
X55000Y-18584D02*
X54232Y-18736D01*
X53581Y-19171D01*
X53146Y-19823D01*
X52993Y-20591D01*
X53146Y-21359D01*
X53581Y-22010D01*
X54232Y-22445D01*
X55000Y-22598D01*
X55768Y-22445D01*
X56419Y-22010D01*
X56854Y-21359D01*
X57007Y-20591D01*
X56854Y-19823D01*
X56419Y-19171D01*
X55768Y-18736D01*
X55000Y-18584D01*
D02*
G37*
G36*
X-11978Y-24803D02*
X-13242D01*
X-13230Y-24861D01*
X-12752Y-25577D01*
X-12036Y-26055D01*
X-11978Y-26067D01*
Y-24803D01*
D02*
G37*
G36*
X-9140D02*
X-10403D01*
Y-26067D01*
X-10346Y-26055D01*
X-9630Y-25577D01*
X-9151Y-24861D01*
X-9140Y-24803D01*
D02*
G37*
G36*
X24492Y-26151D02*
X23228D01*
Y-27415D01*
X23286Y-27404D01*
X24002Y-26925D01*
X24481Y-26209D01*
X24492Y-26151D01*
D02*
G37*
G36*
X-36220Y-25552D02*
X-36988Y-25705D01*
X-37640Y-26140D01*
X-38075Y-26791D01*
X-38227Y-27559D01*
X-38075Y-28327D01*
X-37640Y-28978D01*
X-36988Y-29413D01*
X-36220Y-29566D01*
X-35452Y-29413D01*
X-34801Y-28978D01*
X-34366Y-28327D01*
X-34213Y-27559D01*
X-34366Y-26791D01*
X-34801Y-26140D01*
X-35452Y-25705D01*
X-36220Y-25552D01*
D02*
G37*
G36*
X21654Y-26151D02*
X20390D01*
X20401Y-26209D01*
X20880Y-26925D01*
X21596Y-27404D01*
X21654Y-27415D01*
Y-26151D01*
D02*
G37*
G36*
X-24803Y-20828D02*
X-25571Y-20980D01*
X-26222Y-21415D01*
X-26657Y-22067D01*
X-26810Y-22835D01*
X-26657Y-23603D01*
X-26222Y-24254D01*
X-25571Y-24689D01*
X-24803Y-24842D01*
X-24035Y-24689D01*
X-23384Y-24254D01*
X-22949Y-23603D01*
X-22796Y-22835D01*
X-22949Y-22067D01*
X-23384Y-21415D01*
X-24035Y-20980D01*
X-24803Y-20828D01*
D02*
G37*
G36*
X-11978Y-21965D02*
X-12036Y-21976D01*
X-12752Y-22455D01*
X-13230Y-23171D01*
X-13242Y-23228D01*
X-11978D01*
Y-21965D01*
D02*
G37*
G36*
X-10403D02*
Y-23228D01*
X-9140D01*
X-9151Y-23171D01*
X-9630Y-22455D01*
X-10346Y-21976D01*
X-10403Y-21965D01*
D02*
G37*
G36*
X-137402Y-19647D02*
X-138170Y-19799D01*
X-138821Y-20234D01*
X-139256Y-20886D01*
X-139409Y-21654D01*
X-139256Y-22422D01*
X-138821Y-23073D01*
X-138170Y-23508D01*
X-137402Y-23661D01*
X-136634Y-23508D01*
X-135982Y-23073D01*
X-135547Y-22422D01*
X-135395Y-21654D01*
X-135547Y-20886D01*
X-135982Y-20234D01*
X-136634Y-19799D01*
X-137402Y-19647D01*
D02*
G37*
G36*
X21654Y-23313D02*
X21596Y-23324D01*
X20880Y-23803D01*
X20401Y-24519D01*
X20390Y-24577D01*
X21654D01*
Y-23313D01*
D02*
G37*
G36*
X25197Y-20267D02*
X24429Y-20419D01*
X23778Y-20855D01*
X23343Y-21506D01*
X23190Y-22274D01*
X23298Y-22817D01*
X23228Y-22899D01*
Y-24577D01*
X24563D01*
X24749Y-24317D01*
X24881Y-24218D01*
X25197Y-24281D01*
X25965Y-24128D01*
X26616Y-23693D01*
X27051Y-23042D01*
X27204Y-22274D01*
X27051Y-21506D01*
X26616Y-20855D01*
X25965Y-20419D01*
X25197Y-20267D01*
D02*
G37*
G36*
X37402Y-76772D02*
X36138D01*
X36149Y-76829D01*
X36628Y-77545D01*
X37344Y-78024D01*
X37402Y-78035D01*
Y-76772D01*
D02*
G37*
G36*
X40240D02*
X38976D01*
Y-78035D01*
X39034Y-78024D01*
X39750Y-77545D01*
X40229Y-76829D01*
X40240Y-76772D01*
D02*
G37*
G36*
X93161Y-63391D02*
X91774Y-63574D01*
X90481Y-64109D01*
X89371Y-64961D01*
X88519Y-66072D01*
X87983Y-67365D01*
X87801Y-68752D01*
Y-72689D01*
X87983Y-74076D01*
X88519Y-75369D01*
X89371Y-76480D01*
X90481Y-77332D01*
X91774Y-77867D01*
X93161Y-78050D01*
X94549Y-77867D01*
X95842Y-77332D01*
X96952Y-76480D01*
X97804Y-75369D01*
X98340Y-74076D01*
X98522Y-72689D01*
Y-68752D01*
X98340Y-67365D01*
X97804Y-66072D01*
X96952Y-64961D01*
X95842Y-64109D01*
X94549Y-63574D01*
X93161Y-63391D01*
D02*
G37*
G36*
X25197Y-74765D02*
X24429Y-74917D01*
X23778Y-75352D01*
X23343Y-76004D01*
X23190Y-76772D01*
X23343Y-77540D01*
X23778Y-78191D01*
X24429Y-78626D01*
X25197Y-78779D01*
X25965Y-78626D01*
X26616Y-78191D01*
X27051Y-77540D01*
X27204Y-76772D01*
X27051Y-76004D01*
X26616Y-75352D01*
X25965Y-74917D01*
X25197Y-74765D01*
D02*
G37*
G36*
X48280Y-63391D02*
X46892Y-63574D01*
X45599Y-64109D01*
X44489Y-64961D01*
X43637Y-66072D01*
X43101Y-67365D01*
X42919Y-68752D01*
Y-72689D01*
X43101Y-74076D01*
X43637Y-75369D01*
X44489Y-76480D01*
X45599Y-77332D01*
X46892Y-77867D01*
X48280Y-78050D01*
X49667Y-77867D01*
X50960Y-77332D01*
X52070Y-76480D01*
X52922Y-75369D01*
X53458Y-74076D01*
X53640Y-72689D01*
Y-68752D01*
X53458Y-67365D01*
X52922Y-66072D01*
X52070Y-64961D01*
X50960Y-64109D01*
X49667Y-63574D01*
X48280Y-63391D01*
D02*
G37*
G36*
X37402Y-73933D02*
X37344Y-73944D01*
X36628Y-74423D01*
X36149Y-75139D01*
X36138Y-75197D01*
X37402D01*
Y-73933D01*
D02*
G37*
G36*
X-33465Y-67240D02*
X-33522Y-67252D01*
X-34238Y-67730D01*
X-34717Y-68446D01*
X-34885Y-69291D01*
X-34819Y-69621D01*
X-35269Y-69921D01*
X-35452Y-69799D01*
X-36220Y-69647D01*
X-36988Y-69799D01*
X-37640Y-70234D01*
X-38075Y-70885D01*
X-38227Y-71653D01*
X-38075Y-72422D01*
X-37640Y-73073D01*
X-36988Y-73508D01*
X-36220Y-73661D01*
X-35452Y-73508D01*
X-34801Y-73073D01*
X-34366Y-72422D01*
X-34213Y-71653D01*
X-34255Y-71442D01*
X-33805Y-71142D01*
X-33522Y-71331D01*
X-33465Y-71342D01*
Y-69291D01*
Y-67240D01*
D02*
G37*
G36*
X7480Y-65316D02*
X6712Y-65469D01*
X6061Y-65904D01*
X5626Y-66555D01*
X5473Y-67323D01*
X5626Y-68091D01*
X6061Y-68742D01*
X6712Y-69177D01*
X7480Y-69330D01*
X8248Y-69177D01*
X8900Y-68742D01*
X9335Y-68091D01*
X9487Y-67323D01*
X9335Y-66555D01*
X8900Y-65904D01*
X8248Y-65469D01*
X7480Y-65316D01*
D02*
G37*
G36*
X-30626Y-70079D02*
X-31890D01*
Y-71342D01*
X-31832Y-71331D01*
X-31116Y-70853D01*
X-30637Y-70136D01*
X-30626Y-70079D01*
D02*
G37*
G36*
X38976Y-73933D02*
Y-75197D01*
X40240D01*
X40229Y-75139D01*
X39750Y-74423D01*
X39034Y-73944D01*
X38976Y-73933D01*
D02*
G37*
G36*
X-17732Y-68012D02*
X-21835D01*
X-21823Y-68069D01*
X-21345Y-68786D01*
X-20628Y-69264D01*
X-19783Y-69432D01*
X-19272Y-69331D01*
X-19077Y-69801D01*
X-19136Y-69841D01*
X-19571Y-70492D01*
X-19724Y-71260D01*
X-19571Y-72028D01*
X-19136Y-72679D01*
X-18485Y-73114D01*
X-17717Y-73267D01*
X-16949Y-73114D01*
X-16297Y-72679D01*
X-15862Y-72028D01*
X-15710Y-71260D01*
X-15862Y-70492D01*
X-16297Y-69841D01*
X-16949Y-69406D01*
X-17717Y-69253D01*
X-18151Y-69339D01*
X-18346Y-68868D01*
X-18222Y-68786D01*
X-17744Y-68069D01*
X-17732Y-68012D01*
D02*
G37*
G36*
X16929Y-106654D02*
X16161Y-106807D01*
X15510Y-107242D01*
X15075Y-107893D01*
X14922Y-108661D01*
X15075Y-109430D01*
X15510Y-110081D01*
X16161Y-110516D01*
X16929Y-110669D01*
X17697Y-110516D01*
X18348Y-110081D01*
X18783Y-109430D01*
X18936Y-108661D01*
X18783Y-107893D01*
X18348Y-107242D01*
X17697Y-106807D01*
X16929Y-106654D01*
D02*
G37*
G36*
X-102362Y-96033D02*
X-103597Y-96154D01*
X-104785Y-96514D01*
X-105879Y-97099D01*
X-106838Y-97886D01*
X-107625Y-98846D01*
X-108210Y-99940D01*
X-108570Y-101127D01*
X-108692Y-102362D01*
X-108570Y-103597D01*
X-108210Y-104785D01*
X-107625Y-105879D01*
X-106838Y-106838D01*
X-105879Y-107625D01*
X-104785Y-108210D01*
X-103597Y-108570D01*
X-102362Y-108692D01*
X-101127Y-108570D01*
X-99940Y-108210D01*
X-98846Y-107625D01*
X-97886Y-106838D01*
X-97099Y-105879D01*
X-96514Y-104785D01*
X-96154Y-103597D01*
X-96033Y-102362D01*
X-96154Y-101127D01*
X-96514Y-99940D01*
X-97099Y-98846D01*
X-97886Y-97886D01*
X-98846Y-97099D01*
X-99940Y-96514D01*
X-101127Y-96154D01*
X-102362Y-96033D01*
D02*
G37*
G36*
X5118Y-117284D02*
X4350Y-117437D01*
X3699Y-117872D01*
X3264Y-118523D01*
X3111Y-119291D01*
X3264Y-120059D01*
X3699Y-120711D01*
X4350Y-121146D01*
X4632Y-121202D01*
Y-121712D01*
X4350Y-121768D01*
X3699Y-122203D01*
X3264Y-122854D01*
X3111Y-123622D01*
X3264Y-124390D01*
X3699Y-125041D01*
X4350Y-125476D01*
X5118Y-125629D01*
X5886Y-125476D01*
X6537Y-125041D01*
X6972Y-124390D01*
X7125Y-123622D01*
X6972Y-122854D01*
X6537Y-122203D01*
X5886Y-121768D01*
X5604Y-121712D01*
Y-121202D01*
X5886Y-121146D01*
X6537Y-120711D01*
X6972Y-120059D01*
X7125Y-119291D01*
X6972Y-118523D01*
X6537Y-117872D01*
X5886Y-117437D01*
X5118Y-117284D01*
D02*
G37*
G36*
X1Y-136395D02*
X-1234Y-136516D01*
X-2422Y-136876D01*
X-3516Y-137461D01*
X-4475Y-138249D01*
X-5262Y-139208D01*
X-5847Y-140302D01*
X-6207Y-141490D01*
X-6329Y-142724D01*
X-6207Y-143959D01*
X-5847Y-145147D01*
X-5262Y-146241D01*
X-4475Y-147200D01*
X-3516Y-147987D01*
X-2422Y-148572D01*
X-1234Y-148933D01*
X1Y-149054D01*
X1235Y-148933D01*
X2423Y-148572D01*
X3517Y-147987D01*
X4476Y-147200D01*
X5264Y-146241D01*
X5849Y-145147D01*
X6209Y-143959D01*
X6330Y-142724D01*
X6209Y-141490D01*
X5849Y-140302D01*
X5264Y-139208D01*
X4476Y-138249D01*
X3517Y-137461D01*
X2423Y-136876D01*
X1235Y-136516D01*
X1Y-136395D01*
D02*
G37*
G36*
X-5118Y-117284D02*
X-5886Y-117437D01*
X-6537Y-117872D01*
X-6972Y-118523D01*
X-7125Y-119291D01*
X-6972Y-120059D01*
X-6537Y-120711D01*
X-5886Y-121146D01*
X-5604Y-121202D01*
Y-121712D01*
X-5886Y-121768D01*
X-6537Y-122203D01*
X-6972Y-122854D01*
X-7125Y-123622D01*
X-6972Y-124390D01*
X-6537Y-125041D01*
X-5886Y-125476D01*
X-5118Y-125629D01*
X-4350Y-125476D01*
X-3699Y-125041D01*
X-3264Y-124390D01*
X-3111Y-123622D01*
X-3264Y-122854D01*
X-3699Y-122203D01*
X-4350Y-121768D01*
X-4632Y-121712D01*
Y-121202D01*
X-4350Y-121146D01*
X-3699Y-120711D01*
X-3264Y-120059D01*
X-3111Y-119291D01*
X-3264Y-118523D01*
X-3699Y-117872D01*
X-4350Y-117437D01*
X-5118Y-117284D01*
D02*
G37*
G36*
X-2240Y-104170D02*
X-3008Y-104323D01*
X-3659Y-104758D01*
X-4094Y-105409D01*
X-4247Y-106177D01*
X-4094Y-106945D01*
X-3659Y-107596D01*
X-3008Y-108031D01*
X-2240Y-108184D01*
X-1472Y-108031D01*
X-821Y-107596D01*
X-386Y-106945D01*
X-233Y-106177D01*
X-386Y-105409D01*
X-821Y-104758D01*
X-1472Y-104323D01*
X-2240Y-104170D01*
D02*
G37*
G36*
X1Y-73403D02*
X-1234Y-73524D01*
X-2422Y-73884D01*
X-3516Y-74469D01*
X-4475Y-75257D01*
X-5262Y-76216D01*
X-5847Y-77310D01*
X-6207Y-78497D01*
X-6329Y-79732D01*
X-6207Y-80967D01*
X-5847Y-82155D01*
X-5262Y-83249D01*
X-4475Y-84208D01*
X-3516Y-84995D01*
X-2422Y-85580D01*
X-1234Y-85940D01*
X1Y-86062D01*
X1235Y-85940D01*
X2423Y-85580D01*
X3517Y-84995D01*
X4476Y-84208D01*
X5264Y-83249D01*
X5849Y-82155D01*
X6209Y-80967D01*
X6330Y-79732D01*
X6209Y-78497D01*
X5849Y-77310D01*
X5264Y-76216D01*
X4476Y-75257D01*
X3517Y-74469D01*
X2423Y-73884D01*
X1235Y-73524D01*
X1Y-73403D01*
D02*
G37*
G36*
X23622Y-81851D02*
X22854Y-82004D01*
X22203Y-82439D01*
X21768Y-83090D01*
X21615Y-83858D01*
X21768Y-84626D01*
X22203Y-85277D01*
X22854Y-85712D01*
X23622Y-85865D01*
X24390Y-85712D01*
X25041Y-85277D01*
X25476Y-84626D01*
X25629Y-83858D01*
X25476Y-83090D01*
X25041Y-82439D01*
X24390Y-82004D01*
X23622Y-81851D01*
D02*
G37*
G36*
X80563Y-94507D02*
X79587Y-94636D01*
X78677Y-95012D01*
X77895Y-95612D01*
X77296Y-96393D01*
X76919Y-97303D01*
X76791Y-98280D01*
X76919Y-99256D01*
X77296Y-100166D01*
X77895Y-100947D01*
X78677Y-101547D01*
X79587Y-101923D01*
X80563Y-102052D01*
X81539Y-101923D01*
X82449Y-101547D01*
X83231Y-100947D01*
X83830Y-100166D01*
X84207Y-99256D01*
X84335Y-98280D01*
X84207Y-97303D01*
X83830Y-96393D01*
X83231Y-95612D01*
X82449Y-95012D01*
X81539Y-94636D01*
X80563Y-94507D01*
D02*
G37*
G36*
X-46063Y-90906D02*
X-46831Y-91059D01*
X-47482Y-91494D01*
X-47917Y-92145D01*
X-48070Y-92913D01*
X-47917Y-93682D01*
X-47482Y-94333D01*
X-46831Y-94768D01*
X-46063Y-94920D01*
X-45659Y-94840D01*
X-45234Y-95265D01*
X-45314Y-95669D01*
X-45161Y-96437D01*
X-44726Y-97088D01*
X-44075Y-97524D01*
X-43307Y-97676D01*
X-42903Y-97596D01*
X-42478Y-98021D01*
X-42558Y-98425D01*
X-42406Y-99193D01*
X-41970Y-99844D01*
X-41319Y-100279D01*
X-40551Y-100432D01*
X-39783Y-100279D01*
X-39688Y-100216D01*
X-39634Y-100240D01*
X-39282Y-100546D01*
X-39409Y-101181D01*
X-39256Y-101949D01*
X-38821Y-102600D01*
X-38170Y-103035D01*
X-37402Y-103188D01*
X-36634Y-103035D01*
X-35982Y-102600D01*
X-35547Y-101949D01*
X-35394Y-101181D01*
X-35547Y-100413D01*
X-35982Y-99762D01*
X-36634Y-99327D01*
X-37402Y-99174D01*
X-38170Y-99327D01*
X-38265Y-99391D01*
X-38319Y-99366D01*
X-38670Y-99060D01*
X-38544Y-98425D01*
X-38697Y-97657D01*
X-39132Y-97006D01*
X-39783Y-96571D01*
X-40551Y-96418D01*
X-40955Y-96499D01*
X-41380Y-96073D01*
X-41300Y-95669D01*
X-41453Y-94901D01*
X-41888Y-94250D01*
X-42539Y-93815D01*
X-43307Y-93662D01*
X-43711Y-93743D01*
X-44136Y-93317D01*
X-44056Y-92913D01*
X-44209Y-92145D01*
X-44644Y-91494D01*
X-45295Y-91059D01*
X-46063Y-90906D01*
D02*
G37*
G36*
X60878Y-94507D02*
X59902Y-94636D01*
X58992Y-95012D01*
X58210Y-95612D01*
X57611Y-96393D01*
X57234Y-97303D01*
X57105Y-98280D01*
X57234Y-99256D01*
X57611Y-100166D01*
X58210Y-100947D01*
X58992Y-101547D01*
X59902Y-101923D01*
X60878Y-102052D01*
X61854Y-101923D01*
X62764Y-101547D01*
X63546Y-100947D01*
X64145Y-100166D01*
X64522Y-99256D01*
X64650Y-98280D01*
X64522Y-97303D01*
X64145Y-96393D01*
X63546Y-95612D01*
X62764Y-95012D01*
X61854Y-94636D01*
X60878Y-94507D01*
D02*
G37*
G36*
X-9055Y-64922D02*
X-9823Y-65075D01*
X-10474Y-65510D01*
X-10909Y-66161D01*
X-11062Y-66929D01*
X-10909Y-67697D01*
X-10474Y-68348D01*
X-9823Y-68783D01*
X-9055Y-68936D01*
X-8287Y-68783D01*
X-7636Y-68348D01*
X-7201Y-67697D01*
X-7048Y-66929D01*
X-7201Y-66161D01*
X-7636Y-65510D01*
X-8287Y-65075D01*
X-9055Y-64922D01*
D02*
G37*
G36*
X33071Y-49174D02*
X32303Y-49327D01*
X31652Y-49762D01*
X31217Y-50413D01*
X31064Y-51181D01*
X31217Y-51949D01*
X31652Y-52600D01*
X32303Y-53035D01*
X33071Y-53188D01*
X33839Y-53035D01*
X34490Y-52600D01*
X34925Y-51949D01*
X35078Y-51181D01*
X34925Y-50413D01*
X34490Y-49762D01*
X33839Y-49327D01*
X33071Y-49174D01*
D02*
G37*
G36*
X-44882Y-47599D02*
X-45650Y-47752D01*
X-46301Y-48187D01*
X-46736Y-48838D01*
X-46889Y-49606D01*
X-46736Y-50374D01*
X-46301Y-51025D01*
X-45650Y-51461D01*
X-44882Y-51613D01*
X-44114Y-51461D01*
X-43463Y-51025D01*
X-43028Y-50374D01*
X-42875Y-49606D01*
X-43028Y-48838D01*
X-43463Y-48187D01*
X-44114Y-47752D01*
X-44882Y-47599D01*
D02*
G37*
G36*
X40240Y-52756D02*
X38976D01*
Y-54020D01*
X39034Y-54008D01*
X39750Y-53530D01*
X40229Y-52813D01*
X40240Y-52756D01*
D02*
G37*
G36*
X-6693Y-50188D02*
X-7461Y-50341D01*
X-8112Y-50776D01*
X-8547Y-51427D01*
X-8700Y-52195D01*
X-8547Y-52963D01*
X-8112Y-53614D01*
X-7461Y-54049D01*
X-6693Y-54202D01*
X-5925Y-54049D01*
X-5274Y-53614D01*
X-4839Y-52963D01*
X-4686Y-52195D01*
X-4839Y-51427D01*
X-5274Y-50776D01*
X-5925Y-50341D01*
X-6693Y-50188D01*
D02*
G37*
G36*
X37402Y-52756D02*
X36138D01*
X36149Y-52813D01*
X36628Y-53530D01*
X37344Y-54008D01*
X37402Y-54020D01*
Y-52756D01*
D02*
G37*
G36*
X-20866Y-47599D02*
X-21634Y-47752D01*
X-22285Y-48187D01*
X-22720Y-48838D01*
X-22873Y-49606D01*
X-22720Y-50374D01*
X-22285Y-51025D01*
X-21634Y-51461D01*
X-20866Y-51613D01*
X-20261Y-51493D01*
X-20154Y-51575D01*
X-18504D01*
Y-50299D01*
X-18748Y-50144D01*
X-18931Y-49968D01*
X-18859Y-49606D01*
X-19012Y-48838D01*
X-19447Y-48187D01*
X-20098Y-47752D01*
X-20866Y-47599D01*
D02*
G37*
G36*
X60878Y-37420D02*
X59902Y-37549D01*
X58992Y-37926D01*
X58210Y-38525D01*
X57611Y-39307D01*
X57234Y-40216D01*
X57105Y-41193D01*
X57234Y-42169D01*
X57611Y-43079D01*
X58210Y-43860D01*
X58992Y-44460D01*
X59902Y-44837D01*
X60878Y-44965D01*
X61854Y-44837D01*
X62764Y-44460D01*
X63546Y-43860D01*
X64145Y-43079D01*
X64522Y-42169D01*
X64650Y-41193D01*
X64522Y-40216D01*
X64145Y-39307D01*
X63546Y-38525D01*
X62764Y-37926D01*
X61854Y-37549D01*
X60878Y-37420D01*
D02*
G37*
G36*
X70720D02*
X69744Y-37549D01*
X68834Y-37926D01*
X68053Y-38525D01*
X67453Y-39307D01*
X67077Y-40216D01*
X66948Y-41193D01*
X67077Y-42169D01*
X67453Y-43079D01*
X68053Y-43860D01*
X68834Y-44460D01*
X69744Y-44837D01*
X70720Y-44965D01*
X71697Y-44837D01*
X72607Y-44460D01*
X73388Y-43860D01*
X73988Y-43079D01*
X74364Y-42169D01*
X74493Y-41193D01*
X74364Y-40216D01*
X73988Y-39307D01*
X73388Y-38525D01*
X72607Y-37926D01*
X71697Y-37549D01*
X70720Y-37420D01*
D02*
G37*
G36*
X38976Y-49917D02*
Y-51181D01*
X40240D01*
X40229Y-51124D01*
X39750Y-50407D01*
X39034Y-49929D01*
X38976Y-49917D01*
D02*
G37*
G36*
X-16929Y-50311D02*
Y-51575D01*
X-15665D01*
X-15677Y-51517D01*
X-16155Y-50801D01*
X-16872Y-50323D01*
X-16929Y-50311D01*
D02*
G37*
G36*
X37402Y-49917D02*
X37344Y-49929D01*
X36628Y-50407D01*
X36149Y-51124D01*
X36138Y-51181D01*
X37402D01*
Y-49917D01*
D02*
G37*
G36*
X23525Y-58046D02*
X22757Y-58198D01*
X22106Y-58634D01*
X21671Y-59285D01*
X21518Y-60053D01*
X21671Y-60821D01*
X22106Y-61472D01*
X22757Y-61907D01*
X23525Y-62060D01*
X24293Y-61907D01*
X24945Y-61472D01*
X25380Y-60821D01*
X25532Y-60053D01*
X25380Y-59285D01*
X24945Y-58634D01*
X24293Y-58198D01*
X23525Y-58046D01*
D02*
G37*
G36*
X-20079Y-57048D02*
X-20847Y-57201D01*
X-21498Y-57636D01*
X-21933Y-58287D01*
X-22086Y-59055D01*
X-21933Y-59823D01*
X-21498Y-60474D01*
X-20847Y-60909D01*
X-20079Y-61062D01*
X-19311Y-60909D01*
X-18659Y-60474D01*
X-18224Y-59823D01*
X-18072Y-59055D01*
X-18224Y-58287D01*
X-18659Y-57636D01*
X-19311Y-57201D01*
X-20079Y-57048D01*
D02*
G37*
G36*
X-43307Y-60985D02*
X-44075Y-61138D01*
X-44726Y-61573D01*
X-45161Y-62224D01*
X-45314Y-62992D01*
X-45161Y-63760D01*
X-44726Y-64411D01*
X-44075Y-64846D01*
X-43307Y-64999D01*
X-42539Y-64846D01*
X-41888Y-64411D01*
X-41453Y-63760D01*
X-41300Y-62992D01*
X-41453Y-62224D01*
X-41888Y-61573D01*
X-42539Y-61138D01*
X-43307Y-60985D01*
D02*
G37*
G36*
X-31890Y-67240D02*
Y-68504D01*
X-30626D01*
X-30637Y-68446D01*
X-31116Y-67730D01*
X-31832Y-67252D01*
X-31890Y-67240D01*
D02*
G37*
G36*
X-22047Y-61379D02*
X-22815Y-61532D01*
X-23467Y-61967D01*
X-23901Y-62618D01*
X-24054Y-63386D01*
X-23901Y-64154D01*
X-23467Y-64805D01*
X-22815Y-65240D01*
X-22047Y-65393D01*
X-21669Y-65318D01*
X-21634Y-65355D01*
X-21421Y-65778D01*
X-21823Y-66379D01*
X-21835Y-66437D01*
X-17732D01*
X-17744Y-66379D01*
X-18222Y-65663D01*
X-18939Y-65185D01*
X-19783Y-65017D01*
X-20253Y-65110D01*
X-20528Y-64655D01*
X-20193Y-64154D01*
X-20040Y-63386D01*
X-20193Y-62618D01*
X-20628Y-61967D01*
X-21279Y-61532D01*
X-22047Y-61379D01*
D02*
G37*
G36*
X-49213Y-58268D02*
X-50476D01*
X-50465Y-58325D01*
X-49986Y-59041D01*
X-49270Y-59520D01*
X-49213Y-59531D01*
Y-58268D01*
D02*
G37*
G36*
X-18504Y-53150D02*
X-19768D01*
X-19756Y-53207D01*
X-19278Y-53923D01*
X-18561Y-54402D01*
X-18504Y-54413D01*
Y-53150D01*
D02*
G37*
G36*
X-15665D02*
X-16929D01*
Y-54413D01*
X-16872Y-54402D01*
X-16155Y-53923D01*
X-15677Y-53207D01*
X-15665Y-53150D01*
D02*
G37*
G36*
X-47638Y-55429D02*
Y-56693D01*
X-46374D01*
X-46385Y-56635D01*
X-46864Y-55919D01*
X-47580Y-55441D01*
X-47638Y-55429D01*
D02*
G37*
G36*
X-46374Y-58268D02*
X-47638D01*
Y-59531D01*
X-47580Y-59520D01*
X-46864Y-59041D01*
X-46385Y-58325D01*
X-46374Y-58268D01*
D02*
G37*
G36*
X-49213Y-55429D02*
X-49270Y-55441D01*
X-49986Y-55919D01*
X-50465Y-56635D01*
X-50476Y-56693D01*
X-49213D01*
Y-55429D01*
D02*
G37*
G36*
X-48425Y-8229D02*
X-49193Y-8382D01*
X-49844Y-8817D01*
X-50279Y-9468D01*
X-50432Y-10236D01*
X-50279Y-11004D01*
X-49844Y-11655D01*
X-49193Y-12090D01*
X-48425Y-12243D01*
X-47657Y-12090D01*
X-47272Y-11833D01*
X-47272Y-11833D01*
X-47155Y-11755D01*
X-47153Y-11757D01*
X-47141Y-11768D01*
X-47121Y-11788D01*
X-46828Y-12082D01*
X-46808Y-12102D01*
X-46796Y-12113D01*
X-46794Y-12115D01*
X-46872Y-12232D01*
D01*
X-47130Y-12618D01*
X-47283Y-13386D01*
X-47130Y-14154D01*
X-46695Y-14805D01*
X-46044Y-15240D01*
X-45276Y-15393D01*
X-44508Y-15240D01*
X-43856Y-14805D01*
X-43421Y-14154D01*
X-43268Y-13386D01*
X-43421Y-12618D01*
X-43856Y-11967D01*
X-44508Y-11531D01*
X-45276Y-11379D01*
X-46044Y-11531D01*
X-46429Y-11789D01*
X-46429Y-11789D01*
X-46546Y-11867D01*
X-46548Y-11865D01*
X-46560Y-11854D01*
X-46580Y-11834D01*
X-46873Y-11541D01*
X-46893Y-11520D01*
X-46905Y-11509D01*
X-46907Y-11507D01*
X-46828Y-11390D01*
D01*
X-46571Y-11004D01*
X-46418Y-10236D01*
X-46571Y-9468D01*
X-47006Y-8817D01*
X-47657Y-8382D01*
X-48425Y-8229D01*
D02*
G37*
G36*
X-30709Y56338D02*
X-31477Y56185D01*
X-32128Y55750D01*
X-32563Y55099D01*
X-32716Y54331D01*
X-32563Y53563D01*
X-32128Y52912D01*
X-31477Y52476D01*
X-30709Y52324D01*
X-29941Y52476D01*
X-29289Y52912D01*
X-28854Y53563D01*
X-28702Y54331D01*
X-28854Y55099D01*
X-29289Y55750D01*
X-29941Y56185D01*
X-30709Y56338D01*
D02*
G37*
G36*
X-127559Y63424D02*
X-128327Y63272D01*
X-128978Y62836D01*
X-129413Y62185D01*
X-129566Y61417D01*
X-129413Y60649D01*
X-128978Y59998D01*
X-128327Y59563D01*
X-127559Y59410D01*
X-126791Y59563D01*
X-126140Y59998D01*
X-125705Y60649D01*
X-125552Y61417D01*
X-125705Y62185D01*
X-126140Y62836D01*
X-126791Y63272D01*
X-127559Y63424D01*
D02*
G37*
G36*
X-109843Y56338D02*
X-110611Y56185D01*
X-111262Y55750D01*
X-111697Y55099D01*
X-111850Y54331D01*
X-111697Y53563D01*
X-111262Y52912D01*
X-110611Y52476D01*
X-109843Y52324D01*
X-109074Y52476D01*
X-108423Y52912D01*
X-107988Y53563D01*
X-107835Y54331D01*
X-107988Y55099D01*
X-108423Y55750D01*
X-109074Y56185D01*
X-109843Y56338D01*
D02*
G37*
G36*
X135595Y56781D02*
X134851Y56758D01*
X134173Y56452D01*
X131769Y54738D01*
X131260Y54196D01*
X130996Y53500D01*
X131019Y52757D01*
X131324Y52078D01*
X133039Y49674D01*
X133581Y49165D01*
X134276Y48901D01*
X135020Y48924D01*
X135698Y49229D01*
X138102Y50944D01*
X138612Y51486D01*
X138876Y52182D01*
X138853Y52925D01*
X138547Y53603D01*
X136833Y56007D01*
X136291Y56517D01*
X135595Y56781D01*
D02*
G37*
G36*
X-127559Y56338D02*
X-128327Y56185D01*
X-128978Y55750D01*
X-129413Y55099D01*
X-129566Y54331D01*
X-129413Y53563D01*
X-128978Y52912D01*
X-128327Y52476D01*
X-127559Y52324D01*
X-126791Y52476D01*
X-126140Y52912D01*
X-125705Y53563D01*
X-125552Y54331D01*
X-125705Y55099D01*
X-126140Y55750D01*
X-126791Y56185D01*
X-127559Y56338D01*
D02*
G37*
G36*
X-109843Y63424D02*
X-110611Y63272D01*
X-111262Y62836D01*
X-111697Y62185D01*
X-111850Y61417D01*
X-111697Y60649D01*
X-111262Y59998D01*
X-110611Y59563D01*
X-109843Y59410D01*
X-109074Y59563D01*
X-108423Y59998D01*
X-107988Y60649D01*
X-107835Y61417D01*
X-107988Y62185D01*
X-108423Y62836D01*
X-109074Y63272D01*
X-109843Y63424D01*
D02*
G37*
G36*
X-16929Y71692D02*
X-17697Y71539D01*
X-18348Y71104D01*
X-18783Y70453D01*
X-18936Y69685D01*
X-18783Y68917D01*
X-18348Y68266D01*
X-17697Y67831D01*
X-16929Y67678D01*
X-16161Y67831D01*
X-15510Y68266D01*
X-15075Y68917D01*
X-14922Y69685D01*
X-15075Y70453D01*
X-15510Y71104D01*
X-16161Y71539D01*
X-16929Y71692D01*
D02*
G37*
G36*
X1Y85062D02*
X-1234Y84940D01*
X-2422Y84580D01*
X-3516Y83995D01*
X-4475Y83208D01*
X-5262Y82249D01*
X-5847Y81155D01*
X-6207Y79967D01*
X-6329Y78732D01*
X-6207Y77497D01*
X-5847Y76310D01*
X-5262Y75216D01*
X-4475Y74256D01*
X-3516Y73469D01*
X-2422Y72884D01*
X-1234Y72524D01*
X1Y72403D01*
X1235Y72524D01*
X2423Y72884D01*
X3517Y73469D01*
X4476Y74256D01*
X5264Y75216D01*
X5849Y76310D01*
X6209Y77497D01*
X6330Y78732D01*
X6209Y79967D01*
X5849Y81155D01*
X5264Y82249D01*
X4476Y83208D01*
X3517Y83995D01*
X2423Y84580D01*
X1235Y84940D01*
X1Y85062D01*
D02*
G37*
G36*
X36394Y73354D02*
X35536Y73155D01*
X34758Y72742D01*
X34113Y72141D01*
X33646Y71394D01*
X33389Y70551D01*
X33358Y69670D01*
X33556Y68812D01*
X33970Y68034D01*
X34571Y67389D01*
X35318Y66922D01*
X36161Y66665D01*
X37041Y66634D01*
X37900Y66832D01*
X38678Y67246D01*
X39322Y67847D01*
X39789Y68594D01*
X40047Y69437D01*
X40078Y70317D01*
X39879Y71176D01*
X39466Y71954D01*
X38865Y72598D01*
X38118Y73065D01*
X37275Y73323D01*
X36394Y73354D01*
D02*
G37*
G36*
X-93161Y78050D02*
X-94549Y77867D01*
X-95842Y77332D01*
X-96952Y76480D01*
X-97804Y75369D01*
X-98340Y74076D01*
X-98522Y72689D01*
Y68752D01*
X-98340Y67365D01*
X-97804Y66072D01*
X-96952Y64961D01*
X-95842Y64109D01*
X-94549Y63574D01*
X-93161Y63391D01*
X-91774Y63574D01*
X-90481Y64109D01*
X-89371Y64961D01*
X-88519Y66072D01*
X-87983Y67365D01*
X-87801Y68752D01*
Y72689D01*
X-87983Y74076D01*
X-88519Y75369D01*
X-89371Y76480D01*
X-90481Y77332D01*
X-91774Y77867D01*
X-93161Y78050D01*
D02*
G37*
G36*
X-48280D02*
X-49667Y77867D01*
X-50960Y77332D01*
X-52070Y76480D01*
X-52922Y75369D01*
X-53458Y74076D01*
X-53640Y72689D01*
Y68752D01*
X-53458Y67365D01*
X-52922Y66072D01*
X-52070Y64961D01*
X-50960Y64109D01*
X-49667Y63574D01*
X-48280Y63391D01*
X-46892Y63574D01*
X-45599Y64109D01*
X-44489Y64961D01*
X-43637Y66072D01*
X-43101Y67365D01*
X-42919Y68752D01*
Y72689D01*
X-43101Y74076D01*
X-43637Y75369D01*
X-44489Y76480D01*
X-45599Y77332D01*
X-46892Y77867D01*
X-48280Y78050D01*
D02*
G37*
G36*
X-40945Y41771D02*
X-41713Y41618D01*
X-42364Y41183D01*
X-42799Y40532D01*
X-42952Y39764D01*
X-42799Y38996D01*
X-42364Y38345D01*
X-41713Y37909D01*
X-40945Y37757D01*
X-40177Y37909D01*
X-39526Y38345D01*
X-39091Y38996D01*
X-38938Y39764D01*
X-39091Y40532D01*
X-39526Y41183D01*
X-40177Y41618D01*
X-40945Y41771D01*
D02*
G37*
G36*
X118330Y44587D02*
X117471Y44388D01*
X116693Y43975D01*
X116049Y43374D01*
X115582Y42627D01*
X115324Y41784D01*
X115294Y40903D01*
X115492Y40045D01*
X115905Y39267D01*
X116507Y38622D01*
X117254Y38155D01*
X118096Y37898D01*
X118977Y37867D01*
X119835Y38065D01*
X120614Y38479D01*
X121258Y39080D01*
X121725Y39827D01*
X121983Y40670D01*
X122013Y41550D01*
X121815Y42409D01*
X121401Y43187D01*
X120800Y43831D01*
X120053Y44298D01*
X119211Y44556D01*
X118330Y44587D01*
D02*
G37*
G36*
X-102756Y37440D02*
X-103524Y37287D01*
X-104175Y36852D01*
X-104610Y36201D01*
X-104763Y35433D01*
X-104610Y34665D01*
X-104175Y34014D01*
X-103524Y33579D01*
X-102756Y33426D01*
X-101988Y33579D01*
X-101337Y34014D01*
X-100902Y34665D01*
X-100749Y35433D01*
X-100902Y36201D01*
X-101337Y36852D01*
X-101988Y37287D01*
X-102756Y37440D01*
D02*
G37*
G36*
X0Y36653D02*
X-768Y36500D01*
X-1419Y36065D01*
X-1854Y35414D01*
X-2007Y34646D01*
X-1854Y33878D01*
X-1419Y33226D01*
X-768Y32791D01*
X0Y32639D01*
X768Y32791D01*
X1419Y33226D01*
X1854Y33878D01*
X2007Y34646D01*
X1854Y35414D01*
X1419Y36065D01*
X768Y36500D01*
X0Y36653D01*
D02*
G37*
G36*
X-134646Y37046D02*
X-135414Y36894D01*
X-136065Y36459D01*
X-136500Y35807D01*
X-136653Y35039D01*
X-136500Y34271D01*
X-136065Y33620D01*
X-135414Y33185D01*
X-134646Y33032D01*
X-133878Y33185D01*
X-133227Y33620D01*
X-132791Y34271D01*
X-132639Y35039D01*
X-132791Y35807D01*
X-133227Y36459D01*
X-133878Y36894D01*
X-134646Y37046D01*
D02*
G37*
G36*
X-115354Y43346D02*
X-116122Y43193D01*
X-116773Y42758D01*
X-117209Y42107D01*
X-117361Y41339D01*
X-117209Y40571D01*
X-116773Y39919D01*
X-116122Y39484D01*
X-115354Y39331D01*
X-114586Y39484D01*
X-113935Y39919D01*
X-113500Y40571D01*
X-113347Y41339D01*
X-113500Y42107D01*
X-113935Y42758D01*
X-114586Y43193D01*
X-115354Y43346D01*
D02*
G37*
G36*
X-129134Y48858D02*
X-129902Y48705D01*
X-130553Y48270D01*
X-130988Y47618D01*
X-131141Y46850D01*
X-130988Y46082D01*
X-130553Y45431D01*
X-129902Y44996D01*
X-129134Y44843D01*
X-128366Y44996D01*
X-127715Y45431D01*
X-127280Y46082D01*
X-127127Y46850D01*
X-127280Y47618D01*
X-127715Y48270D01*
X-128366Y48705D01*
X-129134Y48858D01*
D02*
G37*
G36*
X-4724Y52007D02*
X-5492Y51854D01*
X-6144Y51419D01*
X-6579Y50768D01*
X-6731Y50000D01*
X-6579Y49232D01*
X-6144Y48581D01*
X-5492Y48146D01*
X-4724Y47993D01*
X-3956Y48146D01*
X-3305Y48581D01*
X-2870Y49232D01*
X-2717Y50000D01*
X-2870Y50768D01*
X-3305Y51419D01*
X-3956Y51854D01*
X-4724Y52007D01*
D02*
G37*
G36*
X126471Y50394D02*
X125612Y50195D01*
X124835Y49782D01*
X124190Y49181D01*
X123723Y48434D01*
X123466Y47591D01*
X123435Y46710D01*
X123633Y45852D01*
X124047Y45074D01*
X124648Y44429D01*
X125395Y43962D01*
X126237Y43705D01*
X127118Y43674D01*
X127977Y43872D01*
X128755Y44286D01*
X129399Y44887D01*
X129866Y45634D01*
X130124Y46477D01*
X130154Y47357D01*
X129956Y48216D01*
X129543Y48994D01*
X128942Y49638D01*
X128194Y50105D01*
X127352Y50363D01*
X126471Y50394D01*
D02*
G37*
G36*
X-80563Y46934D02*
X-81539Y46805D01*
X-82449Y46428D01*
X-83231Y45829D01*
X-83830Y45048D01*
X-84207Y44138D01*
X-84335Y43161D01*
X-84207Y42185D01*
X-83830Y41275D01*
X-83231Y40494D01*
X-82449Y39894D01*
X-81539Y39518D01*
X-80563Y39389D01*
X-79587Y39518D01*
X-78677Y39894D01*
X-77895Y40494D01*
X-77296Y41275D01*
X-76919Y42185D01*
X-76791Y43161D01*
X-76919Y44138D01*
X-77296Y45048D01*
X-77895Y45829D01*
X-78677Y46428D01*
X-79587Y46805D01*
X-80563Y46934D01*
D02*
G37*
G36*
X-60878D02*
X-61854Y46805D01*
X-62764Y46428D01*
X-63546Y45829D01*
X-64145Y45048D01*
X-64522Y44138D01*
X-64650Y43161D01*
X-64522Y42185D01*
X-64145Y41275D01*
X-63546Y40494D01*
X-62764Y39894D01*
X-61854Y39518D01*
X-60878Y39389D01*
X-59902Y39518D01*
X-58992Y39894D01*
X-58210Y40494D01*
X-57611Y41275D01*
X-57234Y42185D01*
X-57105Y43161D01*
X-57234Y44138D01*
X-57611Y45048D01*
X-58210Y45829D01*
X-58992Y46428D01*
X-59902Y46805D01*
X-60878Y46934D01*
D02*
G37*
G36*
X44535Y79161D02*
X43677Y78962D01*
X42899Y78549D01*
X42254Y77948D01*
X41787Y77201D01*
X41530Y76358D01*
X41499Y75477D01*
X41697Y74619D01*
X42111Y73841D01*
X42712Y73196D01*
X43459Y72729D01*
X44302Y72472D01*
X45182Y72441D01*
X46041Y72639D01*
X46819Y73053D01*
X47463Y73654D01*
X47930Y74401D01*
X48188Y75244D01*
X48219Y76124D01*
X48020Y76983D01*
X47607Y77761D01*
X47006Y78405D01*
X46259Y78872D01*
X45416Y79130D01*
X44535Y79161D01*
D02*
G37*
G36*
X-98032Y104331D02*
X-99295D01*
X-99284Y104273D01*
X-98805Y103557D01*
X-98089Y103078D01*
X-98032Y103067D01*
Y104331D01*
D02*
G37*
G36*
X-95193D02*
X-96457D01*
Y103067D01*
X-96399Y103078D01*
X-95683Y103557D01*
X-95204Y104273D01*
X-95193Y104331D01*
D02*
G37*
G36*
X85241Y108196D02*
X84383Y107998D01*
X83605Y107584D01*
X82960Y106983D01*
X82493Y106236D01*
X82236Y105393D01*
X82205Y104513D01*
X82403Y103654D01*
X82817Y102876D01*
X83418Y102232D01*
X84165Y101765D01*
X85008Y101507D01*
X85888Y101476D01*
X86747Y101674D01*
X87525Y102088D01*
X88169Y102689D01*
X88636Y103436D01*
X88894Y104279D01*
X88924Y105159D01*
X88726Y106018D01*
X88313Y106796D01*
X87712Y107440D01*
X86964Y107907D01*
X86122Y108165D01*
X85241Y108196D01*
D02*
G37*
G36*
X-60878Y104021D02*
X-61854Y103892D01*
X-62764Y103515D01*
X-63546Y102916D01*
X-64145Y102134D01*
X-64522Y101224D01*
X-64650Y100248D01*
X-64522Y99272D01*
X-64145Y98362D01*
X-63546Y97580D01*
X-62764Y96981D01*
X-61854Y96604D01*
X-60878Y96476D01*
X-59902Y96604D01*
X-58992Y96981D01*
X-58210Y97580D01*
X-57611Y98362D01*
X-57234Y99272D01*
X-57105Y100248D01*
X-57234Y101224D01*
X-57611Y102134D01*
X-58210Y102916D01*
X-58992Y103515D01*
X-59902Y103892D01*
X-60878Y104021D01*
D02*
G37*
G36*
X8268Y105157D02*
X7500Y105004D01*
X6848Y104569D01*
X6413Y103918D01*
X6261Y103150D01*
X6413Y102382D01*
X6848Y101730D01*
X7500Y101295D01*
X8268Y101143D01*
X9036Y101295D01*
X9687Y101730D01*
X10122Y102382D01*
X10275Y103150D01*
X10122Y103918D01*
X9687Y104569D01*
X9036Y105004D01*
X8268Y105157D01*
D02*
G37*
G36*
X-98032Y107169D02*
X-98089Y107158D01*
X-98805Y106679D01*
X-99284Y105963D01*
X-99295Y105905D01*
X-98032D01*
Y107169D01*
D02*
G37*
G36*
X-41319Y124724D02*
X-43681D01*
X-44296Y124601D01*
X-44816Y124253D01*
X-45164Y123733D01*
X-45287Y123118D01*
Y120756D01*
X-45164Y120141D01*
X-44816Y119621D01*
X-44296Y119272D01*
X-43681Y119150D01*
X-41319D01*
X-40704Y119272D01*
X-40183Y119621D01*
X-39836Y120141D01*
X-39713Y120756D01*
Y123118D01*
X-39836Y123733D01*
X-40183Y124253D01*
X-40704Y124601D01*
X-41319Y124724D01*
D02*
G37*
G36*
X1Y148054D02*
X-1234Y147933D01*
X-2422Y147572D01*
X-3516Y146987D01*
X-4475Y146200D01*
X-5262Y145241D01*
X-5847Y144147D01*
X-6207Y142959D01*
X-6329Y141724D01*
X-6207Y140490D01*
X-5847Y139302D01*
X-5262Y138208D01*
X-4475Y137249D01*
X-3516Y136461D01*
X-2422Y135877D01*
X-1234Y135516D01*
X1Y135395D01*
X1235Y135516D01*
X2423Y135877D01*
X3517Y136461D01*
X4476Y137249D01*
X5264Y138208D01*
X5849Y139302D01*
X6209Y140490D01*
X6330Y141724D01*
X6209Y142959D01*
X5849Y144147D01*
X5264Y145241D01*
X4476Y146200D01*
X3517Y146987D01*
X2423Y147572D01*
X1235Y147933D01*
X1Y148054D01*
D02*
G37*
G36*
X-42500Y116843D02*
X-43219Y116748D01*
X-43890Y116470D01*
X-44466Y116028D01*
X-44907Y115453D01*
X-45185Y114782D01*
X-45280Y114063D01*
X-45185Y113344D01*
X-44907Y112673D01*
X-44466Y112098D01*
X-43890Y111656D01*
X-43219Y111378D01*
X-42500Y111283D01*
X-41781Y111378D01*
X-41110Y111656D01*
X-40534Y112098D01*
X-40093Y112673D01*
X-39815Y113344D01*
X-39720Y114063D01*
X-39815Y114782D01*
X-40093Y115453D01*
X-40534Y116028D01*
X-41110Y116470D01*
X-41781Y116748D01*
X-42500Y116843D01*
D02*
G37*
G36*
X-96457Y107169D02*
Y105905D01*
X-95193D01*
X-95204Y105963D01*
X-95683Y106679D01*
X-96399Y107158D01*
X-96457Y107169D01*
D02*
G37*
G36*
X93382Y114003D02*
X92524Y113805D01*
X91746Y113391D01*
X91101Y112790D01*
X90635Y112043D01*
X90377Y111200D01*
X90346Y110319D01*
X90544Y109461D01*
X90958Y108683D01*
X91559Y108038D01*
X92306Y107572D01*
X93149Y107314D01*
X94029Y107283D01*
X94888Y107481D01*
X95666Y107895D01*
X96310Y108496D01*
X96777Y109243D01*
X97035Y110086D01*
X97066Y110967D01*
X96867Y111825D01*
X96454Y112603D01*
X95853Y113248D01*
X95106Y113714D01*
X94263Y113972D01*
X93382Y114003D01*
D02*
G37*
G36*
X60818Y90775D02*
X59959Y90576D01*
X59181Y90163D01*
X58537Y89562D01*
X58070Y88815D01*
X57812Y87972D01*
X57781Y87091D01*
X57980Y86233D01*
X58393Y85455D01*
X58994Y84810D01*
X59741Y84343D01*
X60584Y84086D01*
X61465Y84055D01*
X62323Y84253D01*
X63101Y84667D01*
X63746Y85268D01*
X64213Y86015D01*
X64470Y86858D01*
X64501Y87738D01*
X64303Y88597D01*
X63889Y89375D01*
X63288Y90019D01*
X62541Y90486D01*
X61698Y90744D01*
X60818Y90775D01*
D02*
G37*
G36*
X27559Y90983D02*
X26791Y90831D01*
X26140Y90396D01*
X25705Y89744D01*
X25552Y88976D01*
X25705Y88208D01*
X26140Y87557D01*
X26791Y87122D01*
X27559Y86969D01*
X28327Y87122D01*
X28978Y87557D01*
X29413Y88208D01*
X29566Y88976D01*
X29413Y89744D01*
X28978Y90396D01*
X28327Y90831D01*
X27559Y90983D01*
D02*
G37*
G36*
X52677Y84968D02*
X51818Y84769D01*
X51040Y84356D01*
X50396Y83755D01*
X49929Y83008D01*
X49671Y82165D01*
X49640Y81284D01*
X49839Y80426D01*
X50252Y79648D01*
X50853Y79003D01*
X51600Y78536D01*
X52443Y78279D01*
X53324Y78248D01*
X54182Y78446D01*
X54960Y78860D01*
X55605Y79461D01*
X56072Y80208D01*
X56329Y81051D01*
X56360Y81931D01*
X56162Y82790D01*
X55748Y83568D01*
X55147Y84212D01*
X54400Y84679D01*
X53557Y84937D01*
X52677Y84968D01*
D02*
G37*
G36*
X17323Y80747D02*
X16555Y80594D01*
X15904Y80159D01*
X15469Y79508D01*
X15316Y78740D01*
X15469Y77972D01*
X15904Y77321D01*
X16555Y76886D01*
X17323Y76733D01*
X18091Y76886D01*
X18742Y77321D01*
X19177Y77972D01*
X19330Y78740D01*
X19177Y79508D01*
X18742Y80159D01*
X18091Y80594D01*
X17323Y80747D01*
D02*
G37*
G36*
X-98819Y81141D02*
X-99587Y80988D01*
X-100238Y80553D01*
X-100673Y79902D01*
X-100826Y79134D01*
X-100673Y78366D01*
X-100238Y77715D01*
X-99587Y77280D01*
X-98819Y77127D01*
X-98051Y77280D01*
X-97400Y77715D01*
X-96965Y78366D01*
X-96812Y79134D01*
X-96965Y79902D01*
X-97400Y80553D01*
X-98051Y80988D01*
X-98819Y81141D01*
D02*
G37*
G36*
X68959Y96582D02*
X68100Y96384D01*
X67322Y95970D01*
X66678Y95369D01*
X66211Y94622D01*
X65953Y93779D01*
X65923Y92898D01*
X66121Y92040D01*
X66535Y91262D01*
X67135Y90617D01*
X67883Y90150D01*
X68725Y89893D01*
X69606Y89862D01*
X70464Y90060D01*
X71242Y90474D01*
X71887Y91075D01*
X72354Y91822D01*
X72611Y92665D01*
X72642Y93546D01*
X72444Y94404D01*
X72030Y95182D01*
X71429Y95826D01*
X70682Y96293D01*
X69840Y96551D01*
X68959Y96582D01*
D02*
G37*
G36*
X-80563Y104021D02*
X-81539Y103892D01*
X-82449Y103515D01*
X-83231Y102916D01*
X-83830Y102134D01*
X-84207Y101224D01*
X-84335Y100248D01*
X-84207Y99272D01*
X-83830Y98362D01*
X-83231Y97580D01*
X-82449Y96981D01*
X-81539Y96604D01*
X-80563Y96476D01*
X-79587Y96604D01*
X-78677Y96981D01*
X-77895Y97580D01*
X-77296Y98362D01*
X-76919Y99272D01*
X-76791Y100248D01*
X-76919Y101224D01*
X-77296Y102134D01*
X-77895Y102916D01*
X-78677Y103515D01*
X-79587Y103892D01*
X-80563Y104021D01*
D02*
G37*
G36*
X-70720D02*
X-71697Y103892D01*
X-72607Y103515D01*
X-73388Y102916D01*
X-73988Y102134D01*
X-74364Y101224D01*
X-74493Y100248D01*
X-74364Y99272D01*
X-73988Y98362D01*
X-73388Y97580D01*
X-72607Y96981D01*
X-71697Y96604D01*
X-70720Y96476D01*
X-69744Y96604D01*
X-68834Y96981D01*
X-68053Y97580D01*
X-67453Y98362D01*
X-67077Y99272D01*
X-66948Y100248D01*
X-67077Y101224D01*
X-67453Y102134D01*
X-68053Y102916D01*
X-68834Y103515D01*
X-69744Y103892D01*
X-70720Y104021D01*
D02*
G37*
G36*
X102362Y108692D02*
X101127Y108570D01*
X99940Y108210D01*
X98846Y107625D01*
X97886Y106838D01*
X97099Y105879D01*
X96514Y104785D01*
X96154Y103597D01*
X96033Y102362D01*
X96154Y101127D01*
X96514Y99940D01*
X97099Y98846D01*
X97886Y97886D01*
X98846Y97099D01*
X99940Y96514D01*
X101127Y96154D01*
X102362Y96033D01*
X103597Y96154D01*
X104785Y96514D01*
X105879Y97099D01*
X106838Y97886D01*
X107625Y98846D01*
X108210Y99940D01*
X108570Y101127D01*
X108692Y102362D01*
X108570Y103597D01*
X108210Y104785D01*
X107625Y105879D01*
X106838Y106838D01*
X105879Y107625D01*
X104785Y108210D01*
X103597Y108570D01*
X102362Y108692D01*
D02*
G37*
G36*
X17323Y95314D02*
X16555Y95161D01*
X15904Y94726D01*
X15469Y94075D01*
X15316Y93307D01*
X15469Y92539D01*
X15904Y91888D01*
X16555Y91453D01*
X17323Y91300D01*
X18091Y91453D01*
X18742Y91888D01*
X19177Y92539D01*
X19330Y93307D01*
X19177Y94075D01*
X18742Y94726D01*
X18091Y95161D01*
X17323Y95314D01*
D02*
G37*
G36*
X77100Y102389D02*
X76241Y102190D01*
X75463Y101777D01*
X74819Y101176D01*
X74352Y100429D01*
X74094Y99586D01*
X74064Y98706D01*
X74262Y97847D01*
X74676Y97069D01*
X75277Y96425D01*
X76024Y95958D01*
X76867Y95700D01*
X77747Y95669D01*
X78606Y95867D01*
X79384Y96281D01*
X80028Y96882D01*
X80495Y97629D01*
X80753Y98472D01*
X80783Y99353D01*
X80585Y100211D01*
X80172Y100989D01*
X79571Y101634D01*
X78823Y102100D01*
X77981Y102358D01*
X77100Y102389D01*
D02*
G37*
G36*
X28346Y3232D02*
X28289Y3221D01*
X27573Y2742D01*
X27094Y2026D01*
X27083Y1969D01*
X28346D01*
Y3232D01*
D02*
G37*
G36*
X29921D02*
Y1969D01*
X31185D01*
X31174Y2026D01*
X30695Y2742D01*
X29979Y3221D01*
X29921Y3232D01*
D02*
G37*
G36*
X9138Y871D02*
X7874D01*
Y-393D01*
X7931Y-382D01*
X8648Y97D01*
X9126Y813D01*
X9138Y871D01*
D02*
G37*
G36*
X28346Y394D02*
X27083D01*
X27094Y336D01*
X27573Y-380D01*
X28289Y-859D01*
X28346Y-870D01*
Y394D01*
D02*
G37*
G36*
X31185D02*
X29921D01*
Y-870D01*
X29979Y-859D01*
X30695Y-380D01*
X31174Y336D01*
X31185Y394D01*
D02*
G37*
G36*
X7874Y3709D02*
Y2445D01*
X9138D01*
X9126Y2503D01*
X8648Y3219D01*
X7931Y3698D01*
X7874Y3709D01*
D02*
G37*
G36*
X-2362Y11850D02*
X-3130Y11697D01*
X-3781Y11262D01*
X-4216Y10611D01*
X-4369Y9843D01*
X-4216Y9075D01*
X-3781Y8423D01*
X-3130Y7988D01*
X-2362Y7835D01*
X-1594Y7988D01*
X-943Y8423D01*
X-508Y9075D01*
X-355Y9843D01*
X-508Y10611D01*
X-943Y11262D01*
X-1594Y11697D01*
X-2362Y11850D01*
D02*
G37*
G36*
X-134843Y12834D02*
X-135611Y12681D01*
X-136262Y12246D01*
X-136697Y11595D01*
X-136850Y10827D01*
X-136697Y10059D01*
X-136262Y9408D01*
X-135611Y8973D01*
X-134843Y8820D01*
X-134074Y8973D01*
X-133423Y9408D01*
X-132988Y10059D01*
X-132835Y10827D01*
X-132988Y11595D01*
X-133423Y12246D01*
X-134074Y12681D01*
X-134843Y12834D01*
D02*
G37*
G36*
X-66929Y11456D02*
X-67697Y11303D01*
X-68348Y10868D01*
X-68783Y10217D01*
X-68936Y9449D01*
X-68783Y8681D01*
X-68348Y8030D01*
X-67697Y7594D01*
X-66929Y7442D01*
X-66525Y7522D01*
X-66100Y7097D01*
X-66180Y6693D01*
X-66027Y5925D01*
X-65592Y5274D01*
X-64941Y4839D01*
X-64173Y4686D01*
X-63405Y4839D01*
X-62754Y5274D01*
X-62319Y5925D01*
X-62166Y6693D01*
X-62319Y7461D01*
X-62754Y8112D01*
X-63405Y8547D01*
X-64173Y8700D01*
X-64577Y8620D01*
X-65002Y9045D01*
X-64922Y9449D01*
X-65075Y10217D01*
X-65510Y10868D01*
X-66161Y11303D01*
X-66929Y11456D01*
D02*
G37*
G36*
X6299Y3709D02*
X6242Y3698D01*
X5525Y3219D01*
X5194Y2723D01*
X4614Y2692D01*
X4569Y2759D01*
X3918Y3194D01*
X3150Y3347D01*
X2382Y3194D01*
X1730Y2759D01*
X1295Y2108D01*
X1142Y1340D01*
X1295Y572D01*
X1730Y-79D01*
X2382Y-514D01*
X3150Y-667D01*
X3918Y-514D01*
X4569Y-79D01*
X4805Y275D01*
X5407D01*
X5525Y97D01*
X6242Y-382D01*
X6299Y-393D01*
Y1658D01*
Y3709D01*
D02*
G37*
G36*
X-29134Y7913D02*
X-29902Y7760D01*
X-30553Y7325D01*
X-30988Y6674D01*
X-31141Y5906D01*
X-30988Y5137D01*
X-30553Y4486D01*
X-29902Y4051D01*
X-29134Y3898D01*
X-28366Y4051D01*
X-27715Y4486D01*
X-27280Y5137D01*
X-27127Y5906D01*
X-27280Y6674D01*
X-27715Y7325D01*
X-28366Y7760D01*
X-29134Y7913D01*
D02*
G37*
G36*
X60000Y-7389D02*
X59085Y-7571D01*
X58310Y-8089D01*
X57792Y-8865D01*
X57610Y-9780D01*
X57792Y-10694D01*
X58310Y-11470D01*
X59085Y-11988D01*
X60000Y-12170D01*
X60915Y-11988D01*
X61690Y-11470D01*
X62208Y-10694D01*
X62390Y-9780D01*
X62208Y-8865D01*
X61690Y-8089D01*
X60915Y-7571D01*
X60000Y-7389D01*
D02*
G37*
G36*
X7480Y-3111D02*
X6712Y-3264D01*
X6061Y-3699D01*
X5626Y-4350D01*
X5473Y-5118D01*
X5626Y-5886D01*
X6061Y-6537D01*
X6712Y-6972D01*
X7480Y-7125D01*
X8248Y-6972D01*
X8900Y-6537D01*
X9335Y-5886D01*
X9487Y-5118D01*
X9335Y-4350D01*
X8900Y-3699D01*
X8248Y-3264D01*
X7480Y-3111D01*
D02*
G37*
G36*
X-134843Y-8820D02*
X-135611Y-8973D01*
X-136262Y-9408D01*
X-136697Y-10059D01*
X-136850Y-10827D01*
X-136697Y-11595D01*
X-136262Y-12246D01*
X-135611Y-12681D01*
X-134843Y-12834D01*
X-134074Y-12681D01*
X-133423Y-12246D01*
X-132988Y-11595D01*
X-132835Y-10827D01*
X-132988Y-10059D01*
X-133423Y-9408D01*
X-134074Y-8973D01*
X-134843Y-8820D01*
D02*
G37*
G36*
X6299Y-9804D02*
X5531Y-9957D01*
X4880Y-10392D01*
X4445Y-11043D01*
X4292Y-11811D01*
X4445Y-12579D01*
X4880Y-13230D01*
X5531Y-13665D01*
X6299Y-13818D01*
X7067Y-13665D01*
X7718Y-13230D01*
X8153Y-12579D01*
X8306Y-11811D01*
X8153Y-11043D01*
X7718Y-10392D01*
X7067Y-9957D01*
X6299Y-9804D01*
D02*
G37*
G36*
X-13780Y-9410D02*
X-14548Y-9563D01*
X-15199Y-9998D01*
X-15634Y-10649D01*
X-15787Y-11417D01*
X-15634Y-12185D01*
X-15199Y-12836D01*
X-14548Y-13272D01*
X-13780Y-13424D01*
X-13012Y-13272D01*
X-12360Y-12836D01*
X-11925Y-12185D01*
X-11772Y-11417D01*
X-11925Y-10649D01*
X-12360Y-9998D01*
X-13012Y-9563D01*
X-13780Y-9410D01*
D02*
G37*
G36*
X-19291Y-2717D02*
X-20059Y-2870D01*
X-20711Y-3305D01*
X-21146Y-3956D01*
X-21298Y-4724D01*
X-21146Y-5492D01*
X-20711Y-6144D01*
X-20059Y-6579D01*
X-19291Y-6731D01*
X-18523Y-6579D01*
X-17872Y-6144D01*
X-17437Y-5492D01*
X-17284Y-4724D01*
X-17437Y-3956D01*
X-17872Y-3305D01*
X-18523Y-2870D01*
X-19291Y-2717D01*
D02*
G37*
G36*
X25197Y-355D02*
X24429Y-508D01*
X23778Y-943D01*
X23343Y-1594D01*
X23190Y-2362D01*
X23343Y-3130D01*
X23778Y-3781D01*
X24429Y-4216D01*
X25197Y-4369D01*
X25965Y-4216D01*
X26616Y-3781D01*
X27051Y-3130D01*
X27204Y-2362D01*
X27051Y-1594D01*
X26616Y-943D01*
X25965Y-508D01*
X25197Y-355D01*
D02*
G37*
G36*
X-2756Y2795D02*
X-3524Y2642D01*
X-4175Y2207D01*
X-4610Y1555D01*
X-4763Y787D01*
X-4610Y19D01*
X-4175Y-632D01*
X-3524Y-1067D01*
X-2756Y-1220D01*
X-1988Y-1067D01*
X-1337Y-632D01*
X-902Y19D01*
X-749Y787D01*
X-902Y1555D01*
X-1337Y2207D01*
X-1988Y2642D01*
X-2756Y2795D01*
D02*
G37*
G36*
X-24803Y-1930D02*
X-25571Y-2083D01*
X-26222Y-2518D01*
X-26657Y-3169D01*
X-26810Y-3937D01*
X-26657Y-4705D01*
X-26222Y-5356D01*
X-25571Y-5791D01*
X-24803Y-5944D01*
X-24035Y-5791D01*
X-23384Y-5356D01*
X-22949Y-4705D01*
X-22796Y-3937D01*
X-22949Y-3169D01*
X-23384Y-2518D01*
X-24035Y-2083D01*
X-24803Y-1930D01*
D02*
G37*
G36*
X-118110Y6725D02*
X-119422Y6596D01*
X-120684Y6213D01*
X-121847Y5592D01*
X-122866Y4755D01*
X-123702Y3736D01*
X-124324Y2574D01*
X-124706Y1312D01*
X-124836Y0D01*
X-124706Y-1312D01*
X-124324Y-2574D01*
X-123702Y-3736D01*
X-122866Y-4755D01*
X-121847Y-5592D01*
X-120684Y-6213D01*
X-119422Y-6596D01*
X-118110Y-6725D01*
X-116798Y-6596D01*
X-115537Y-6213D01*
X-114374Y-5592D01*
X-113355Y-4755D01*
X-112518Y-3736D01*
X-111897Y-2574D01*
X-111514Y-1312D01*
X-111385Y0D01*
X-111514Y1312D01*
X-111897Y2574D01*
X-112518Y3736D01*
X-113355Y4755D01*
X-114374Y5592D01*
X-115537Y6213D01*
X-116798Y6596D01*
X-118110Y6725D01*
D02*
G37*
G36*
X118110D02*
X116798Y6596D01*
X115537Y6213D01*
X114374Y5592D01*
X113355Y4755D01*
X112518Y3736D01*
X111897Y2574D01*
X111514Y1312D01*
X111385Y0D01*
X111514Y-1312D01*
X111897Y-2574D01*
X112518Y-3736D01*
X113355Y-4755D01*
X114374Y-5592D01*
X115537Y-6213D01*
X116798Y-6596D01*
X118110Y-6725D01*
X119422Y-6596D01*
X120684Y-6213D01*
X121847Y-5592D01*
X122866Y-4755D01*
X123702Y-3736D01*
X124324Y-2574D01*
X124706Y-1312D01*
X124836Y0D01*
X124706Y1312D01*
X124324Y2574D01*
X123702Y3736D01*
X122866Y4755D01*
X121847Y5592D01*
X120684Y6213D01*
X119422Y6596D01*
X118110Y6725D01*
D02*
G37*
G36*
X77624Y15551D02*
X76766Y15353D01*
X75988Y14940D01*
X75343Y14339D01*
X74876Y13591D01*
X74619Y12749D01*
X74588Y11868D01*
X74786Y11010D01*
X75200Y10232D01*
X75801Y9587D01*
X76548Y9120D01*
X77391Y8863D01*
X78271Y8832D01*
X79130Y9030D01*
X79908Y9444D01*
X80552Y10045D01*
X81019Y10792D01*
X81277Y11635D01*
X81308Y12515D01*
X81109Y13374D01*
X80696Y14152D01*
X80095Y14796D01*
X79347Y15263D01*
X78505Y15521D01*
X77624Y15551D01*
D02*
G37*
G36*
X-9055Y29960D02*
X-9823Y29807D01*
X-10474Y29372D01*
X-10909Y28721D01*
X-11062Y27953D01*
X-10909Y27185D01*
X-10474Y26534D01*
X-9823Y26098D01*
X-9055Y25946D01*
X-8287Y26098D01*
X-7636Y26534D01*
X-7201Y27185D01*
X-7048Y27953D01*
X-7201Y28721D01*
X-7636Y29372D01*
X-8287Y29807D01*
X-9055Y29960D01*
D02*
G37*
G36*
X102048Y32972D02*
X101189Y32774D01*
X100411Y32361D01*
X99767Y31760D01*
X99300Y31012D01*
X99042Y30170D01*
X99011Y29289D01*
X99210Y28431D01*
X99623Y27653D01*
X100224Y27008D01*
X100971Y26541D01*
X101814Y26284D01*
X102695Y26253D01*
X103553Y26451D01*
X104331Y26865D01*
X104976Y27466D01*
X105443Y28213D01*
X105700Y29056D01*
X105731Y29936D01*
X105533Y30795D01*
X105119Y31573D01*
X104518Y32217D01*
X103771Y32684D01*
X102928Y32942D01*
X102048Y32972D01*
D02*
G37*
G36*
X-146457Y29960D02*
X-147225Y29807D01*
X-147876Y29372D01*
X-148311Y28721D01*
X-148464Y27953D01*
X-148311Y27185D01*
X-147876Y26534D01*
X-147225Y26098D01*
X-146457Y25946D01*
X-145689Y26098D01*
X-145037Y26534D01*
X-144602Y27185D01*
X-144450Y27953D01*
X-144602Y28721D01*
X-145037Y29372D01*
X-145689Y29807D01*
X-146457Y29960D01*
D02*
G37*
G36*
X-42913Y29566D02*
X-43681Y29413D01*
X-44333Y28978D01*
X-44768Y28327D01*
X-44921Y27559D01*
X-44768Y26791D01*
X-44333Y26140D01*
X-43681Y25705D01*
X-42913Y25552D01*
X-42145Y25705D01*
X-41494Y26140D01*
X-41059Y26791D01*
X-40906Y27559D01*
X-41059Y28327D01*
X-41494Y28978D01*
X-42145Y29413D01*
X-42913Y29566D01*
D02*
G37*
G36*
X-31484D02*
X-32252Y29413D01*
X-32903Y28978D01*
X-33338Y28327D01*
X-33491Y27559D01*
X-33338Y26791D01*
X-32903Y26140D01*
X-32252Y25705D01*
X-31484Y25552D01*
X-30716Y25705D01*
X-30065Y26140D01*
X-29630Y26791D01*
X-29477Y27559D01*
X-29630Y28327D01*
X-30065Y28978D01*
X-30716Y29413D01*
X-31484Y29566D01*
D02*
G37*
G36*
X-95602Y30680D02*
X-96370Y30527D01*
X-97022Y30092D01*
X-97457Y29441D01*
X-97609Y28673D01*
X-97457Y27905D01*
X-97022Y27254D01*
X-96370Y26819D01*
X-95602Y26666D01*
X-94834Y26819D01*
X-94183Y27254D01*
X-93748Y27905D01*
X-93595Y28673D01*
X-93748Y29441D01*
X-94183Y30092D01*
X-94834Y30527D01*
X-95602Y30680D01*
D02*
G37*
G36*
X-14961Y31579D02*
Y30315D01*
X-13697D01*
X-13708Y30372D01*
X-14187Y31089D01*
X-14903Y31567D01*
X-14961Y31579D01*
D02*
G37*
G36*
X110189Y38780D02*
X109330Y38581D01*
X108552Y38168D01*
X107908Y37567D01*
X107441Y36819D01*
X107183Y35977D01*
X107152Y35096D01*
X107351Y34238D01*
X107764Y33460D01*
X108365Y32815D01*
X109113Y32348D01*
X109955Y32091D01*
X110836Y32060D01*
X111694Y32258D01*
X112472Y32672D01*
X113117Y33273D01*
X113584Y34020D01*
X113841Y34863D01*
X113872Y35743D01*
X113674Y36602D01*
X113260Y37380D01*
X112659Y38024D01*
X111912Y38491D01*
X111069Y38749D01*
X110189Y38780D01*
D02*
G37*
G36*
X-16535Y31579D02*
X-16593Y31567D01*
X-17309Y31089D01*
X-17788Y30372D01*
X-17799Y30315D01*
X-16535D01*
Y31579D01*
D02*
G37*
G36*
Y28740D02*
X-17799D01*
X-17788Y28683D01*
X-17309Y27966D01*
X-16593Y27488D01*
X-16535Y27476D01*
Y28740D01*
D02*
G37*
G36*
X-13697D02*
X-14961D01*
Y27476D01*
X-14903Y27488D01*
X-14187Y27966D01*
X-13708Y28683D01*
X-13697Y28740D01*
D02*
G37*
G36*
X-83858Y15437D02*
X-83916Y15426D01*
X-84632Y14947D01*
X-85111Y14231D01*
X-85122Y14173D01*
X-83858D01*
Y15437D01*
D02*
G37*
G36*
X-82284D02*
Y14173D01*
X-81020D01*
X-81031Y14231D01*
X-81510Y14947D01*
X-82226Y15426D01*
X-82284Y15437D01*
D02*
G37*
G36*
X21654Y16574D02*
X20886Y16421D01*
X20234Y15986D01*
X19799Y15335D01*
X19647Y14567D01*
X19799Y13799D01*
X20234Y13148D01*
X20886Y12713D01*
X21654Y12560D01*
X22422Y12713D01*
X23073Y13148D01*
X23508Y13799D01*
X23661Y14567D01*
X23508Y15335D01*
X23073Y15986D01*
X22422Y16421D01*
X21654Y16574D01*
D02*
G37*
G36*
X-83858Y12598D02*
X-85122D01*
X-85111Y12541D01*
X-84632Y11825D01*
X-83916Y11346D01*
X-83858Y11335D01*
Y12598D01*
D02*
G37*
G36*
X-81020D02*
X-82284D01*
Y11335D01*
X-82226Y11346D01*
X-81510Y11825D01*
X-81031Y12541D01*
X-81020Y12598D01*
D02*
G37*
G36*
X-140315Y19416D02*
X-143071D01*
X-143993Y19233D01*
X-144774Y18711D01*
X-145296Y17930D01*
X-145479Y17008D01*
X-145296Y16086D01*
X-144774Y15305D01*
X-143993Y14783D01*
X-143071Y14599D01*
X-140315D01*
X-139393Y14783D01*
X-138612Y15305D01*
X-138090Y16086D01*
X-137907Y17008D01*
X-138090Y17930D01*
X-138612Y18711D01*
X-139393Y19233D01*
X-140315Y19416D01*
D02*
G37*
G36*
X-136221Y28385D02*
X-136988Y28232D01*
X-137640Y27797D01*
X-138075Y27146D01*
X-138227Y26378D01*
X-138075Y25610D01*
X-137640Y24959D01*
X-136988Y24524D01*
X-136221Y24371D01*
X-135452Y24524D01*
X-134801Y24959D01*
X-134366Y25610D01*
X-134213Y26378D01*
X-134366Y27146D01*
X-134801Y27797D01*
X-135452Y28232D01*
X-136221Y28385D01*
D02*
G37*
G36*
X-113779D02*
X-114548Y28232D01*
X-115199Y27797D01*
X-115634Y27146D01*
X-115787Y26378D01*
X-115634Y25610D01*
X-115199Y24959D01*
X-114548Y24524D01*
X-113779Y24371D01*
X-113012Y24524D01*
X-112360Y24959D01*
X-111925Y25610D01*
X-111773Y26378D01*
X-111925Y27146D01*
X-112360Y27797D01*
X-113012Y28232D01*
X-113779Y28385D01*
D02*
G37*
G36*
X93906Y27165D02*
X93048Y26967D01*
X92270Y26554D01*
X91625Y25953D01*
X91159Y25205D01*
X90901Y24363D01*
X90870Y23482D01*
X91068Y22624D01*
X91482Y21846D01*
X92083Y21201D01*
X92830Y20734D01*
X93673Y20477D01*
X94554Y20446D01*
X95412Y20644D01*
X96190Y21058D01*
X96834Y21659D01*
X97301Y22406D01*
X97559Y23249D01*
X97590Y24129D01*
X97392Y24988D01*
X96978Y25766D01*
X96377Y26410D01*
X95630Y26877D01*
X94787Y27135D01*
X93906Y27165D01*
D02*
G37*
G36*
X85765Y21358D02*
X84907Y21160D01*
X84129Y20747D01*
X83484Y20146D01*
X83017Y19398D01*
X82760Y18556D01*
X82729Y17675D01*
X82927Y16817D01*
X83341Y16039D01*
X83942Y15394D01*
X84689Y14927D01*
X85532Y14670D01*
X86412Y14639D01*
X87271Y14837D01*
X88049Y15251D01*
X88693Y15852D01*
X89160Y16599D01*
X89418Y17442D01*
X89449Y18322D01*
X89250Y19181D01*
X88837Y19959D01*
X88236Y20603D01*
X87489Y21070D01*
X86646Y21328D01*
X85765Y21358D01*
D02*
G37*
G36*
X-96555Y21790D02*
X-97323Y21638D01*
X-97974Y21203D01*
X-98409Y20551D01*
X-98562Y19783D01*
X-98409Y19015D01*
X-97974Y18364D01*
X-97323Y17929D01*
X-96555Y17776D01*
X-95787Y17929D01*
X-95136Y18364D01*
X-94701Y19015D01*
X-94548Y19783D01*
X-94701Y20551D01*
X-95136Y21203D01*
X-95787Y21638D01*
X-96555Y21790D01*
D02*
G37*
%LPD*%
D63*
X7087Y1658D02*
D03*
X29134Y1181D02*
D03*
X22441Y-25364D02*
D03*
X-11191Y-24016D02*
D03*
X4331Y-41339D02*
D03*
X-17717Y-52362D02*
D03*
X-21260Y-19291D02*
D03*
X-48425Y-57480D02*
D03*
X-32677Y-69291D02*
D03*
X-75984Y-40157D02*
D03*
X-83071Y13386D02*
D03*
X-97244Y105118D02*
D03*
X38189Y-75984D02*
D03*
Y-51968D02*
D03*
X-19783Y-67224D02*
D03*
X-15748Y29528D02*
D03*
M02*
