G04*
G04 #@! TF.GenerationSoftware,Altium Limited,CircuitStudio,1.5.2 (30)*
G04*
G04 Layer_Color=15065295*
%FSLAX25Y25*%
%MOIN*%
G70*
G01*
G75*
%ADD49C,0.01969*%
%ADD68C,0.00394*%
%ADD69C,0.00591*%
%ADD70C,0.01000*%
G36*
X-107080Y83702D02*
X-107031D01*
X-106920Y83698D01*
X-106809Y83690D01*
X-106703Y83677D01*
X-106658Y83673D01*
X-106612Y83665D01*
X-106604D01*
X-106592Y83661D01*
X-106576Y83657D01*
X-106535Y83649D01*
X-106481Y83632D01*
X-106420Y83612D01*
X-106354Y83583D01*
X-106284Y83550D01*
X-106219Y83509D01*
X-106215D01*
X-106211Y83505D01*
X-106190Y83489D01*
X-106157Y83460D01*
X-106116Y83427D01*
X-106071Y83378D01*
X-106022Y83325D01*
X-105973Y83263D01*
X-105928Y83193D01*
Y83189D01*
X-105924Y83185D01*
X-105915Y83173D01*
X-105907Y83161D01*
X-105891Y83120D01*
X-105866Y83066D01*
X-105846Y83001D01*
X-105825Y82923D01*
X-105813Y82841D01*
X-105809Y82751D01*
Y82747D01*
Y82738D01*
Y82726D01*
X-105813Y82706D01*
Y82681D01*
X-105817Y82656D01*
X-105825Y82591D01*
X-105846Y82513D01*
X-105870Y82431D01*
X-105903Y82349D01*
X-105952Y82263D01*
Y82259D01*
X-105961Y82255D01*
X-105969Y82242D01*
X-105977Y82226D01*
X-106010Y82189D01*
X-106055Y82140D01*
X-106112Y82086D01*
X-106178Y82029D01*
X-106256Y81976D01*
X-106342Y81931D01*
X-106338D01*
X-106325Y81927D01*
X-106309Y81918D01*
X-106284Y81910D01*
X-106256Y81898D01*
X-106223Y81886D01*
X-106145Y81849D01*
X-106063Y81804D01*
X-105973Y81742D01*
X-105887Y81672D01*
X-105813Y81586D01*
X-105809Y81582D01*
X-105805Y81574D01*
X-105797Y81562D01*
X-105784Y81545D01*
X-105768Y81521D01*
X-105751Y81492D01*
X-105735Y81459D01*
X-105719Y81426D01*
X-105686Y81340D01*
X-105653Y81246D01*
X-105632Y81135D01*
X-105624Y81078D01*
Y81016D01*
Y81012D01*
Y81004D01*
Y80992D01*
Y80971D01*
X-105628Y80951D01*
X-105632Y80922D01*
X-105641Y80857D01*
X-105653Y80779D01*
X-105678Y80697D01*
X-105706Y80606D01*
X-105747Y80512D01*
Y80508D01*
X-105751Y80500D01*
X-105760Y80488D01*
X-105768Y80471D01*
X-105797Y80426D01*
X-105833Y80373D01*
X-105878Y80311D01*
X-105936Y80246D01*
X-106001Y80180D01*
X-106075Y80123D01*
X-106079D01*
X-106084Y80119D01*
X-106096Y80110D01*
X-106112Y80098D01*
X-106133Y80090D01*
X-106157Y80077D01*
X-106215Y80049D01*
X-106289Y80016D01*
X-106379Y79987D01*
X-106477Y79963D01*
X-106588Y79946D01*
X-106608D01*
X-106629Y79942D01*
X-106653D01*
X-106686Y79938D01*
X-106727D01*
X-106772Y79934D01*
X-106830D01*
X-106895Y79930D01*
X-106969D01*
X-107055Y79926D01*
X-107256D01*
X-107375Y79922D01*
X-108794D01*
Y83706D01*
X-107129D01*
X-107080Y83702D01*
D02*
G37*
G36*
X-109286Y83066D02*
X-110401D01*
Y79922D01*
X-111163D01*
Y83066D01*
X-112287D01*
Y83706D01*
X-109286D01*
Y83066D01*
D02*
G37*
G36*
X-114107Y83763D02*
X-114046Y83759D01*
X-113980Y83751D01*
X-113902Y83743D01*
X-113820Y83727D01*
X-113738Y83710D01*
X-113648Y83690D01*
X-113558Y83665D01*
X-113472Y83636D01*
X-113386Y83599D01*
X-113300Y83554D01*
X-113222Y83509D01*
X-113152Y83452D01*
X-113148Y83448D01*
X-113136Y83439D01*
X-113119Y83419D01*
X-113095Y83394D01*
X-113066Y83366D01*
X-113037Y83325D01*
X-113004Y83280D01*
X-112968Y83230D01*
X-112935Y83173D01*
X-112902Y83112D01*
X-112869Y83042D01*
X-112840Y82968D01*
X-112812Y82890D01*
X-112791Y82804D01*
X-112779Y82714D01*
X-112771Y82620D01*
X-113533Y82591D01*
Y82595D01*
X-113537Y82603D01*
Y82620D01*
X-113541Y82636D01*
X-113550Y82661D01*
X-113558Y82689D01*
X-113578Y82751D01*
X-113607Y82816D01*
X-113644Y82886D01*
X-113689Y82952D01*
X-113747Y83005D01*
X-113755Y83009D01*
X-113775Y83025D01*
X-113812Y83046D01*
X-113865Y83070D01*
X-113935Y83095D01*
X-114017Y83116D01*
X-114116Y83132D01*
X-114230Y83136D01*
X-114284D01*
X-114312Y83132D01*
X-114345Y83128D01*
X-114423Y83120D01*
X-114505Y83103D01*
X-114595Y83079D01*
X-114677Y83042D01*
X-114755Y82997D01*
X-114759Y82993D01*
X-114771Y82980D01*
X-114792Y82960D01*
X-114812Y82935D01*
X-114837Y82902D01*
X-114853Y82861D01*
X-114870Y82816D01*
X-114874Y82763D01*
Y82759D01*
Y82743D01*
X-114870Y82714D01*
X-114862Y82685D01*
X-114845Y82648D01*
X-114829Y82607D01*
X-114800Y82570D01*
X-114763Y82533D01*
X-114755Y82529D01*
X-114747Y82521D01*
X-114730Y82513D01*
X-114714Y82501D01*
X-114690Y82488D01*
X-114657Y82472D01*
X-114620Y82455D01*
X-114579Y82439D01*
X-114530Y82419D01*
X-114472Y82398D01*
X-114407Y82378D01*
X-114333Y82353D01*
X-114251Y82328D01*
X-114161Y82304D01*
X-114062Y82279D01*
X-114054D01*
X-114038Y82275D01*
X-114009Y82267D01*
X-113972Y82259D01*
X-113923Y82246D01*
X-113874Y82230D01*
X-113812Y82214D01*
X-113751Y82197D01*
X-113615Y82156D01*
X-113480Y82111D01*
X-113414Y82086D01*
X-113349Y82062D01*
X-113291Y82033D01*
X-113238Y82009D01*
X-113234D01*
X-113226Y82000D01*
X-113213Y81992D01*
X-113193Y81984D01*
X-113144Y81951D01*
X-113082Y81910D01*
X-113017Y81853D01*
X-112947Y81787D01*
X-112877Y81709D01*
X-112816Y81623D01*
Y81619D01*
X-112808Y81611D01*
X-112803Y81599D01*
X-112791Y81578D01*
X-112779Y81554D01*
X-112767Y81525D01*
X-112754Y81492D01*
X-112738Y81455D01*
X-112725Y81414D01*
X-112713Y81369D01*
X-112689Y81266D01*
X-112672Y81148D01*
X-112664Y81020D01*
Y81016D01*
Y81008D01*
Y80988D01*
X-112668Y80967D01*
Y80939D01*
X-112672Y80902D01*
X-112680Y80865D01*
X-112689Y80824D01*
X-112709Y80729D01*
X-112742Y80627D01*
X-112787Y80520D01*
X-112816Y80463D01*
X-112849Y80410D01*
Y80405D01*
X-112857Y80397D01*
X-112869Y80381D01*
X-112881Y80365D01*
X-112902Y80340D01*
X-112922Y80311D01*
X-112980Y80250D01*
X-113054Y80184D01*
X-113140Y80110D01*
X-113242Y80045D01*
X-113361Y79987D01*
X-113365D01*
X-113377Y79983D01*
X-113394Y79975D01*
X-113418Y79967D01*
X-113451Y79954D01*
X-113492Y79946D01*
X-113537Y79934D01*
X-113587Y79922D01*
X-113644Y79905D01*
X-113705Y79893D01*
X-113775Y79885D01*
X-113849Y79873D01*
X-113923Y79864D01*
X-114009Y79856D01*
X-114095Y79852D01*
X-114218D01*
X-114255Y79856D01*
X-114304D01*
X-114361Y79860D01*
X-114431Y79868D01*
X-114509Y79881D01*
X-114591Y79893D01*
X-114681Y79909D01*
X-114771Y79934D01*
X-114862Y79959D01*
X-114952Y79991D01*
X-115042Y80028D01*
X-115128Y80073D01*
X-115210Y80123D01*
X-115288Y80180D01*
X-115292Y80184D01*
X-115304Y80196D01*
X-115325Y80217D01*
X-115349Y80242D01*
X-115378Y80278D01*
X-115415Y80319D01*
X-115452Y80369D01*
X-115489Y80426D01*
X-115530Y80492D01*
X-115571Y80561D01*
X-115608Y80643D01*
X-115645Y80729D01*
X-115677Y80824D01*
X-115706Y80922D01*
X-115731Y81033D01*
X-115747Y81148D01*
X-115005Y81221D01*
Y81217D01*
X-115001Y81205D01*
X-114997Y81185D01*
X-114993Y81160D01*
X-114985Y81127D01*
X-114972Y81094D01*
X-114948Y81012D01*
X-114911Y80922D01*
X-114862Y80828D01*
X-114804Y80742D01*
X-114771Y80705D01*
X-114734Y80668D01*
X-114730D01*
X-114726Y80660D01*
X-114714Y80651D01*
X-114698Y80639D01*
X-114677Y80627D01*
X-114648Y80615D01*
X-114620Y80598D01*
X-114587Y80582D01*
X-114505Y80549D01*
X-114411Y80524D01*
X-114300Y80504D01*
X-114177Y80496D01*
X-114140D01*
X-114116Y80500D01*
X-114083D01*
X-114050Y80504D01*
X-113968Y80516D01*
X-113878Y80533D01*
X-113783Y80561D01*
X-113693Y80598D01*
X-113652Y80623D01*
X-113615Y80651D01*
X-113611D01*
X-113607Y80660D01*
X-113587Y80680D01*
X-113554Y80713D01*
X-113521Y80754D01*
X-113488Y80807D01*
X-113455Y80873D01*
X-113435Y80943D01*
X-113427Y80980D01*
Y81016D01*
Y81020D01*
Y81041D01*
X-113431Y81066D01*
X-113435Y81094D01*
X-113447Y81131D01*
X-113459Y81172D01*
X-113480Y81209D01*
X-113509Y81246D01*
X-113513Y81250D01*
X-113525Y81262D01*
X-113546Y81279D01*
X-113570Y81303D01*
X-113611Y81328D01*
X-113656Y81357D01*
X-113714Y81381D01*
X-113783Y81410D01*
X-113792Y81414D01*
X-113800D01*
X-113812Y81418D01*
X-113828Y81422D01*
X-113853Y81431D01*
X-113878Y81439D01*
X-113910Y81447D01*
X-113947Y81459D01*
X-113993Y81472D01*
X-114042Y81484D01*
X-114099Y81500D01*
X-114161Y81517D01*
X-114230Y81533D01*
X-114308Y81554D01*
X-114394Y81574D01*
X-114402D01*
X-114423Y81582D01*
X-114452Y81590D01*
X-114493Y81603D01*
X-114546Y81615D01*
X-114603Y81635D01*
X-114665Y81656D01*
X-114730Y81677D01*
X-114874Y81734D01*
X-115017Y81795D01*
X-115083Y81832D01*
X-115149Y81869D01*
X-115206Y81906D01*
X-115255Y81947D01*
X-115259Y81951D01*
X-115272Y81963D01*
X-115288Y81980D01*
X-115308Y82004D01*
X-115337Y82033D01*
X-115366Y82070D01*
X-115399Y82111D01*
X-115427Y82160D01*
X-115460Y82214D01*
X-115493Y82271D01*
X-115522Y82337D01*
X-115550Y82402D01*
X-115571Y82472D01*
X-115587Y82550D01*
X-115600Y82628D01*
X-115604Y82710D01*
Y82714D01*
Y82722D01*
Y82738D01*
X-115600Y82759D01*
Y82784D01*
X-115596Y82816D01*
X-115583Y82886D01*
X-115563Y82968D01*
X-115534Y83062D01*
X-115493Y83157D01*
X-115440Y83251D01*
Y83255D01*
X-115431Y83263D01*
X-115423Y83276D01*
X-115411Y83292D01*
X-115370Y83337D01*
X-115321Y83394D01*
X-115251Y83456D01*
X-115173Y83517D01*
X-115075Y83579D01*
X-114968Y83632D01*
X-114964D01*
X-114956Y83636D01*
X-114935Y83644D01*
X-114915Y83653D01*
X-114882Y83665D01*
X-114849Y83673D01*
X-114808Y83685D01*
X-114759Y83702D01*
X-114706Y83714D01*
X-114653Y83727D01*
X-114591Y83735D01*
X-114525Y83747D01*
X-114452Y83755D01*
X-114382Y83763D01*
X-114222Y83767D01*
X-114152D01*
X-114107Y83763D01*
D02*
G37*
G36*
X-103222Y81508D02*
Y79922D01*
X-103984D01*
Y81512D01*
X-105366Y83706D01*
X-104468D01*
X-103583Y82209D01*
X-102717Y83706D01*
X-101840D01*
X-103222Y81508D01*
D02*
G37*
G36*
X-132928Y-23717D02*
X-132866Y-23721D01*
X-132801Y-23729D01*
X-132723Y-23738D01*
X-132641Y-23754D01*
X-132559Y-23770D01*
X-132469Y-23791D01*
X-132378Y-23815D01*
X-132292Y-23844D01*
X-132206Y-23881D01*
X-132120Y-23926D01*
X-132042Y-23971D01*
X-131973Y-24029D01*
X-131968Y-24033D01*
X-131956Y-24041D01*
X-131940Y-24061D01*
X-131915Y-24086D01*
X-131886Y-24115D01*
X-131858Y-24156D01*
X-131825Y-24201D01*
X-131788Y-24250D01*
X-131755Y-24307D01*
X-131722Y-24369D01*
X-131690Y-24439D01*
X-131661Y-24512D01*
X-131632Y-24590D01*
X-131612Y-24676D01*
X-131599Y-24767D01*
X-131591Y-24861D01*
X-132354Y-24890D01*
Y-24885D01*
X-132358Y-24877D01*
Y-24861D01*
X-132362Y-24845D01*
X-132370Y-24820D01*
X-132378Y-24791D01*
X-132399Y-24730D01*
X-132428Y-24664D01*
X-132465Y-24594D01*
X-132510Y-24529D01*
X-132567Y-24475D01*
X-132575Y-24471D01*
X-132596Y-24455D01*
X-132633Y-24434D01*
X-132686Y-24410D01*
X-132756Y-24385D01*
X-132838Y-24365D01*
X-132936Y-24348D01*
X-133051Y-24344D01*
X-133104D01*
X-133133Y-24348D01*
X-133166Y-24352D01*
X-133244Y-24361D01*
X-133326Y-24377D01*
X-133416Y-24402D01*
X-133498Y-24439D01*
X-133576Y-24484D01*
X-133580Y-24488D01*
X-133592Y-24500D01*
X-133613Y-24521D01*
X-133633Y-24545D01*
X-133658Y-24578D01*
X-133674Y-24619D01*
X-133691Y-24664D01*
X-133695Y-24717D01*
Y-24721D01*
Y-24738D01*
X-133691Y-24767D01*
X-133682Y-24795D01*
X-133666Y-24832D01*
X-133650Y-24873D01*
X-133621Y-24910D01*
X-133584Y-24947D01*
X-133576Y-24951D01*
X-133568Y-24959D01*
X-133551Y-24967D01*
X-133535Y-24980D01*
X-133510Y-24992D01*
X-133477Y-25008D01*
X-133440Y-25025D01*
X-133399Y-25041D01*
X-133350Y-25062D01*
X-133293Y-25082D01*
X-133227Y-25103D01*
X-133153Y-25127D01*
X-133071Y-25152D01*
X-132981Y-25177D01*
X-132883Y-25201D01*
X-132875D01*
X-132858Y-25205D01*
X-132829Y-25214D01*
X-132793Y-25222D01*
X-132743Y-25234D01*
X-132694Y-25250D01*
X-132633Y-25267D01*
X-132571Y-25283D01*
X-132436Y-25324D01*
X-132301Y-25369D01*
X-132235Y-25394D01*
X-132169Y-25418D01*
X-132112Y-25447D01*
X-132059Y-25472D01*
X-132055D01*
X-132046Y-25480D01*
X-132034Y-25488D01*
X-132014Y-25496D01*
X-131964Y-25529D01*
X-131903Y-25570D01*
X-131837Y-25628D01*
X-131768Y-25693D01*
X-131698Y-25771D01*
X-131636Y-25857D01*
Y-25861D01*
X-131628Y-25870D01*
X-131624Y-25882D01*
X-131612Y-25902D01*
X-131599Y-25927D01*
X-131587Y-25956D01*
X-131575Y-25988D01*
X-131559Y-26025D01*
X-131546Y-26066D01*
X-131534Y-26111D01*
X-131509Y-26214D01*
X-131493Y-26333D01*
X-131485Y-26460D01*
Y-26464D01*
Y-26472D01*
Y-26493D01*
X-131489Y-26513D01*
Y-26542D01*
X-131493Y-26579D01*
X-131501Y-26616D01*
X-131509Y-26657D01*
X-131530Y-26751D01*
X-131563Y-26853D01*
X-131608Y-26960D01*
X-131636Y-27018D01*
X-131669Y-27071D01*
Y-27075D01*
X-131677Y-27083D01*
X-131690Y-27099D01*
X-131702Y-27116D01*
X-131722Y-27140D01*
X-131743Y-27169D01*
X-131800Y-27231D01*
X-131874Y-27296D01*
X-131960Y-27370D01*
X-132063Y-27436D01*
X-132182Y-27493D01*
X-132186D01*
X-132198Y-27497D01*
X-132214Y-27505D01*
X-132239Y-27514D01*
X-132272Y-27526D01*
X-132313Y-27534D01*
X-132358Y-27546D01*
X-132407Y-27559D01*
X-132465Y-27575D01*
X-132526Y-27587D01*
X-132596Y-27595D01*
X-132670Y-27608D01*
X-132743Y-27616D01*
X-132829Y-27624D01*
X-132916Y-27628D01*
X-133039D01*
X-133075Y-27624D01*
X-133125D01*
X-133182Y-27620D01*
X-133252Y-27612D01*
X-133330Y-27600D01*
X-133412Y-27587D01*
X-133502Y-27571D01*
X-133592Y-27546D01*
X-133682Y-27522D01*
X-133773Y-27489D01*
X-133863Y-27452D01*
X-133949Y-27407D01*
X-134031Y-27358D01*
X-134109Y-27300D01*
X-134113Y-27296D01*
X-134125Y-27284D01*
X-134146Y-27264D01*
X-134170Y-27239D01*
X-134199Y-27202D01*
X-134236Y-27161D01*
X-134273Y-27112D01*
X-134310Y-27054D01*
X-134351Y-26989D01*
X-134392Y-26919D01*
X-134429Y-26837D01*
X-134465Y-26751D01*
X-134498Y-26657D01*
X-134527Y-26558D01*
X-134552Y-26448D01*
X-134568Y-26333D01*
X-133826Y-26259D01*
Y-26263D01*
X-133822Y-26275D01*
X-133818Y-26296D01*
X-133814Y-26320D01*
X-133805Y-26353D01*
X-133793Y-26386D01*
X-133768Y-26468D01*
X-133731Y-26558D01*
X-133682Y-26653D01*
X-133625Y-26739D01*
X-133592Y-26776D01*
X-133555Y-26812D01*
X-133551D01*
X-133547Y-26821D01*
X-133535Y-26829D01*
X-133518Y-26841D01*
X-133498Y-26853D01*
X-133469Y-26866D01*
X-133440Y-26882D01*
X-133408Y-26899D01*
X-133326Y-26931D01*
X-133231Y-26956D01*
X-133121Y-26976D01*
X-132998Y-26985D01*
X-132961D01*
X-132936Y-26981D01*
X-132903D01*
X-132870Y-26976D01*
X-132789Y-26964D01*
X-132698Y-26948D01*
X-132604Y-26919D01*
X-132514Y-26882D01*
X-132473Y-26858D01*
X-132436Y-26829D01*
X-132432D01*
X-132428Y-26821D01*
X-132407Y-26800D01*
X-132374Y-26767D01*
X-132342Y-26726D01*
X-132309Y-26673D01*
X-132276Y-26607D01*
X-132255Y-26538D01*
X-132247Y-26501D01*
Y-26464D01*
Y-26460D01*
Y-26439D01*
X-132251Y-26415D01*
X-132255Y-26386D01*
X-132268Y-26349D01*
X-132280Y-26308D01*
X-132301Y-26271D01*
X-132329Y-26234D01*
X-132333Y-26230D01*
X-132346Y-26218D01*
X-132366Y-26202D01*
X-132391Y-26177D01*
X-132432Y-26152D01*
X-132477Y-26124D01*
X-132534Y-26099D01*
X-132604Y-26070D01*
X-132612Y-26066D01*
X-132620D01*
X-132633Y-26062D01*
X-132649Y-26058D01*
X-132674Y-26050D01*
X-132698Y-26042D01*
X-132731Y-26033D01*
X-132768Y-26021D01*
X-132813Y-26009D01*
X-132862Y-25997D01*
X-132920Y-25980D01*
X-132981Y-25964D01*
X-133051Y-25947D01*
X-133129Y-25927D01*
X-133215Y-25906D01*
X-133223D01*
X-133244Y-25898D01*
X-133272Y-25890D01*
X-133313Y-25878D01*
X-133367Y-25865D01*
X-133424Y-25845D01*
X-133485Y-25824D01*
X-133551Y-25804D01*
X-133695Y-25746D01*
X-133838Y-25685D01*
X-133904Y-25648D01*
X-133969Y-25611D01*
X-134027Y-25574D01*
X-134076Y-25533D01*
X-134080Y-25529D01*
X-134092Y-25517D01*
X-134109Y-25501D01*
X-134129Y-25476D01*
X-134158Y-25447D01*
X-134187Y-25410D01*
X-134219Y-25369D01*
X-134248Y-25320D01*
X-134281Y-25267D01*
X-134314Y-25209D01*
X-134342Y-25144D01*
X-134371Y-25078D01*
X-134392Y-25008D01*
X-134408Y-24930D01*
X-134420Y-24853D01*
X-134424Y-24771D01*
Y-24767D01*
Y-24758D01*
Y-24742D01*
X-134420Y-24721D01*
Y-24697D01*
X-134416Y-24664D01*
X-134404Y-24594D01*
X-134383Y-24512D01*
X-134355Y-24418D01*
X-134314Y-24324D01*
X-134260Y-24229D01*
Y-24225D01*
X-134252Y-24217D01*
X-134244Y-24205D01*
X-134232Y-24189D01*
X-134191Y-24143D01*
X-134142Y-24086D01*
X-134072Y-24024D01*
X-133994Y-23963D01*
X-133896Y-23901D01*
X-133789Y-23848D01*
X-133785D01*
X-133777Y-23844D01*
X-133756Y-23836D01*
X-133736Y-23828D01*
X-133703Y-23815D01*
X-133670Y-23807D01*
X-133629Y-23795D01*
X-133580Y-23778D01*
X-133527Y-23766D01*
X-133473Y-23754D01*
X-133412Y-23746D01*
X-133346Y-23733D01*
X-133272Y-23725D01*
X-133203Y-23717D01*
X-133043Y-23713D01*
X-132973D01*
X-132928Y-23717D01*
D02*
G37*
G36*
X-134958Y-33070D02*
X-135683D01*
Y-32345D01*
X-134958D01*
Y-33070D01*
D02*
G37*
G36*
X-136921D02*
X-137647D01*
Y-30344D01*
X-137651Y-30348D01*
X-137663Y-30360D01*
X-137688Y-30381D01*
X-137717Y-30406D01*
X-137754Y-30434D01*
X-137803Y-30471D01*
X-137852Y-30512D01*
X-137914Y-30553D01*
X-137979Y-30598D01*
X-138049Y-30643D01*
X-138127Y-30688D01*
X-138209Y-30733D01*
X-138295Y-30779D01*
X-138389Y-30820D01*
X-138484Y-30856D01*
X-138582Y-30893D01*
Y-30233D01*
X-138578D01*
X-138570Y-30229D01*
X-138553Y-30225D01*
X-138533Y-30217D01*
X-138504Y-30205D01*
X-138475Y-30192D01*
X-138438Y-30176D01*
X-138397Y-30155D01*
X-138307Y-30110D01*
X-138205Y-30049D01*
X-138090Y-29975D01*
X-137967Y-29885D01*
X-137963Y-29881D01*
X-137951Y-29873D01*
X-137934Y-29860D01*
X-137914Y-29840D01*
X-137885Y-29815D01*
X-137856Y-29782D01*
X-137823Y-29750D01*
X-137786Y-29708D01*
X-137709Y-29618D01*
X-137635Y-29516D01*
X-137565Y-29401D01*
X-137536Y-29340D01*
X-137512Y-29274D01*
X-136921D01*
Y-33070D01*
D02*
G37*
G36*
X-131981Y-30016D02*
X-133354D01*
X-133469Y-30660D01*
X-133465D01*
X-133457Y-30656D01*
X-133445Y-30647D01*
X-133428Y-30639D01*
X-133404Y-30631D01*
X-133379Y-30619D01*
X-133317Y-30598D01*
X-133240Y-30574D01*
X-133158Y-30557D01*
X-133067Y-30541D01*
X-132973Y-30537D01*
X-132953D01*
X-132928Y-30541D01*
X-132891D01*
X-132850Y-30549D01*
X-132801Y-30557D01*
X-132748Y-30565D01*
X-132690Y-30582D01*
X-132625Y-30598D01*
X-132559Y-30623D01*
X-132493Y-30652D01*
X-132424Y-30684D01*
X-132354Y-30725D01*
X-132284Y-30775D01*
X-132219Y-30828D01*
X-132153Y-30889D01*
X-132149Y-30893D01*
X-132137Y-30906D01*
X-132120Y-30926D01*
X-132100Y-30955D01*
X-132075Y-30988D01*
X-132046Y-31029D01*
X-132014Y-31078D01*
X-131981Y-31135D01*
X-131952Y-31197D01*
X-131919Y-31266D01*
X-131891Y-31344D01*
X-131866Y-31422D01*
X-131846Y-31512D01*
X-131829Y-31603D01*
X-131817Y-31701D01*
X-131813Y-31804D01*
Y-31808D01*
Y-31824D01*
Y-31849D01*
X-131817Y-31881D01*
X-131821Y-31923D01*
X-131829Y-31972D01*
X-131837Y-32025D01*
X-131846Y-32082D01*
X-131862Y-32148D01*
X-131878Y-32214D01*
X-131903Y-32283D01*
X-131928Y-32353D01*
X-131960Y-32427D01*
X-131997Y-32497D01*
X-132038Y-32570D01*
X-132088Y-32640D01*
X-132092Y-32644D01*
X-132104Y-32660D01*
X-132124Y-32685D01*
X-132157Y-32718D01*
X-132194Y-32755D01*
X-132239Y-32800D01*
X-132292Y-32845D01*
X-132354Y-32890D01*
X-132424Y-32935D01*
X-132502Y-32980D01*
X-132584Y-33025D01*
X-132674Y-33062D01*
X-132772Y-33095D01*
X-132879Y-33120D01*
X-132994Y-33136D01*
X-133113Y-33140D01*
X-133162D01*
X-133199Y-33136D01*
X-133244Y-33132D01*
X-133297Y-33124D01*
X-133354Y-33116D01*
X-133416Y-33103D01*
X-133551Y-33070D01*
X-133625Y-33050D01*
X-133695Y-33021D01*
X-133768Y-32989D01*
X-133838Y-32952D01*
X-133904Y-32911D01*
X-133969Y-32861D01*
X-133974Y-32857D01*
X-133982Y-32849D01*
X-133998Y-32833D01*
X-134023Y-32808D01*
X-134047Y-32779D01*
X-134076Y-32747D01*
X-134109Y-32706D01*
X-134142Y-32660D01*
X-134174Y-32607D01*
X-134207Y-32550D01*
X-134240Y-32488D01*
X-134273Y-32423D01*
X-134301Y-32349D01*
X-134326Y-32271D01*
X-134343Y-32189D01*
X-134359Y-32103D01*
X-133637Y-32025D01*
Y-32029D01*
Y-32037D01*
X-133633Y-32050D01*
X-133629Y-32066D01*
X-133621Y-32111D01*
X-133605Y-32164D01*
X-133580Y-32230D01*
X-133547Y-32291D01*
X-133506Y-32357D01*
X-133457Y-32414D01*
X-133449Y-32419D01*
X-133428Y-32435D01*
X-133399Y-32460D01*
X-133354Y-32484D01*
X-133305Y-32513D01*
X-133244Y-32533D01*
X-133178Y-32550D01*
X-133104Y-32558D01*
X-133084D01*
X-133067Y-32554D01*
X-133022Y-32550D01*
X-132969Y-32533D01*
X-132907Y-32513D01*
X-132846Y-32480D01*
X-132780Y-32435D01*
X-132748Y-32406D01*
X-132719Y-32373D01*
Y-32369D01*
X-132711Y-32365D01*
X-132703Y-32353D01*
X-132694Y-32341D01*
X-132682Y-32320D01*
X-132670Y-32296D01*
X-132653Y-32267D01*
X-132637Y-32234D01*
X-132625Y-32197D01*
X-132608Y-32156D01*
X-132596Y-32111D01*
X-132584Y-32062D01*
X-132575Y-32004D01*
X-132567Y-31947D01*
X-132559Y-31881D01*
Y-31816D01*
Y-31812D01*
Y-31800D01*
Y-31783D01*
X-132563Y-31758D01*
Y-31730D01*
X-132567Y-31697D01*
X-132580Y-31619D01*
X-132596Y-31533D01*
X-132625Y-31447D01*
X-132666Y-31365D01*
X-132719Y-31291D01*
Y-31287D01*
X-132727Y-31283D01*
X-132748Y-31262D01*
X-132780Y-31234D01*
X-132830Y-31201D01*
X-132887Y-31172D01*
X-132957Y-31144D01*
X-133035Y-31123D01*
X-133080Y-31115D01*
X-133153D01*
X-133178Y-31119D01*
X-133207Y-31123D01*
X-133236Y-31131D01*
X-133313Y-31148D01*
X-133399Y-31180D01*
X-133449Y-31205D01*
X-133494Y-31230D01*
X-133543Y-31262D01*
X-133592Y-31299D01*
X-133641Y-31340D01*
X-133686Y-31389D01*
X-134273Y-31308D01*
X-133900Y-29335D01*
X-131981D01*
Y-30016D01*
D02*
G37*
G36*
X-127852Y-33070D02*
X-128684D01*
X-129017Y-32210D01*
X-130529D01*
X-130845Y-33070D01*
X-131653D01*
X-130181Y-29286D01*
X-129369D01*
X-127852Y-33070D01*
D02*
G37*
G36*
X-106617Y93151D02*
X-106559D01*
X-106494Y93147D01*
X-106428Y93142D01*
X-106280Y93130D01*
X-106137Y93110D01*
X-106067Y93102D01*
X-105998Y93085D01*
X-105936Y93069D01*
X-105883Y93052D01*
X-105879D01*
X-105870Y93048D01*
X-105858Y93040D01*
X-105838Y93032D01*
X-105813Y93019D01*
X-105788Y93007D01*
X-105723Y92970D01*
X-105653Y92917D01*
X-105583Y92856D01*
X-105510Y92778D01*
X-105444Y92687D01*
Y92683D01*
X-105436Y92675D01*
X-105428Y92663D01*
X-105420Y92642D01*
X-105403Y92618D01*
X-105391Y92589D01*
X-105374Y92552D01*
X-105358Y92515D01*
X-105329Y92429D01*
X-105300Y92327D01*
X-105284Y92216D01*
X-105276Y92093D01*
Y92089D01*
Y92072D01*
Y92052D01*
X-105280Y92023D01*
X-105284Y91986D01*
X-105288Y91945D01*
X-105297Y91896D01*
X-105309Y91847D01*
X-105337Y91732D01*
X-105358Y91675D01*
X-105383Y91617D01*
X-105411Y91556D01*
X-105444Y91498D01*
X-105481Y91441D01*
X-105526Y91388D01*
X-105530Y91384D01*
X-105538Y91375D01*
X-105551Y91363D01*
X-105571Y91343D01*
X-105600Y91322D01*
X-105633Y91298D01*
X-105670Y91269D01*
X-105715Y91240D01*
X-105764Y91207D01*
X-105817Y91179D01*
X-105879Y91150D01*
X-105948Y91121D01*
X-106022Y91097D01*
X-106100Y91072D01*
X-106186Y91052D01*
X-106276Y91035D01*
X-106272D01*
X-106264Y91027D01*
X-106252Y91023D01*
X-106235Y91010D01*
X-106190Y90982D01*
X-106133Y90941D01*
X-106067Y90896D01*
X-105998Y90842D01*
X-105928Y90781D01*
X-105866Y90719D01*
X-105858Y90711D01*
X-105850Y90699D01*
X-105838Y90687D01*
X-105821Y90666D01*
X-105801Y90641D01*
X-105776Y90613D01*
X-105752Y90580D01*
X-105723Y90539D01*
X-105690Y90494D01*
X-105653Y90445D01*
X-105616Y90387D01*
X-105575Y90326D01*
X-105530Y90256D01*
X-105481Y90186D01*
X-105432Y90104D01*
X-104969Y89371D01*
X-105883D01*
X-106436Y90195D01*
X-106440Y90199D01*
X-106449Y90215D01*
X-106465Y90236D01*
X-106485Y90264D01*
X-106506Y90301D01*
X-106535Y90338D01*
X-106596Y90428D01*
X-106666Y90523D01*
X-106731Y90613D01*
X-106764Y90654D01*
X-106793Y90691D01*
X-106818Y90724D01*
X-106842Y90748D01*
X-106846Y90752D01*
X-106859Y90769D01*
X-106883Y90785D01*
X-106912Y90810D01*
X-106945Y90838D01*
X-106986Y90863D01*
X-107027Y90887D01*
X-107072Y90904D01*
X-107076Y90908D01*
X-107096Y90912D01*
X-107125Y90920D01*
X-107166Y90929D01*
X-107219Y90937D01*
X-107285Y90941D01*
X-107363Y90949D01*
X-107609D01*
Y89371D01*
X-108371D01*
Y93155D01*
X-106666D01*
X-106617Y93151D01*
D02*
G37*
G36*
X-129127Y-23778D02*
X-129078D01*
X-128967Y-23783D01*
X-128857Y-23791D01*
X-128750Y-23803D01*
X-128705Y-23807D01*
X-128660Y-23815D01*
X-128652D01*
X-128639Y-23820D01*
X-128623Y-23824D01*
X-128582Y-23832D01*
X-128529Y-23848D01*
X-128467Y-23869D01*
X-128402Y-23897D01*
X-128332Y-23930D01*
X-128266Y-23971D01*
X-128262D01*
X-128258Y-23975D01*
X-128237Y-23992D01*
X-128205Y-24020D01*
X-128164Y-24053D01*
X-128119Y-24102D01*
X-128069Y-24156D01*
X-128020Y-24217D01*
X-127975Y-24287D01*
Y-24291D01*
X-127971Y-24295D01*
X-127963Y-24307D01*
X-127955Y-24320D01*
X-127938Y-24361D01*
X-127914Y-24414D01*
X-127893Y-24480D01*
X-127873Y-24557D01*
X-127860Y-24639D01*
X-127856Y-24730D01*
Y-24734D01*
Y-24742D01*
Y-24754D01*
X-127860Y-24775D01*
Y-24799D01*
X-127864Y-24824D01*
X-127873Y-24890D01*
X-127893Y-24967D01*
X-127918Y-25049D01*
X-127951Y-25131D01*
X-128000Y-25218D01*
Y-25222D01*
X-128008Y-25226D01*
X-128016Y-25238D01*
X-128024Y-25254D01*
X-128057Y-25291D01*
X-128102Y-25341D01*
X-128160Y-25394D01*
X-128225Y-25451D01*
X-128303Y-25505D01*
X-128389Y-25550D01*
X-128385D01*
X-128373Y-25554D01*
X-128356Y-25562D01*
X-128332Y-25570D01*
X-128303Y-25583D01*
X-128270Y-25595D01*
X-128192Y-25632D01*
X-128110Y-25677D01*
X-128020Y-25738D01*
X-127934Y-25808D01*
X-127860Y-25894D01*
X-127856Y-25898D01*
X-127852Y-25906D01*
X-127844Y-25919D01*
X-127832Y-25935D01*
X-127815Y-25960D01*
X-127799Y-25988D01*
X-127782Y-26021D01*
X-127766Y-26054D01*
X-127733Y-26140D01*
X-127700Y-26234D01*
X-127680Y-26345D01*
X-127672Y-26402D01*
Y-26464D01*
Y-26468D01*
Y-26476D01*
Y-26489D01*
Y-26509D01*
X-127676Y-26530D01*
X-127680Y-26558D01*
X-127688Y-26624D01*
X-127700Y-26702D01*
X-127725Y-26784D01*
X-127754Y-26874D01*
X-127795Y-26968D01*
Y-26972D01*
X-127799Y-26981D01*
X-127807Y-26993D01*
X-127815Y-27009D01*
X-127844Y-27054D01*
X-127881Y-27108D01*
X-127926Y-27169D01*
X-127983Y-27235D01*
X-128049Y-27300D01*
X-128123Y-27358D01*
X-128127D01*
X-128131Y-27362D01*
X-128143Y-27370D01*
X-128160Y-27382D01*
X-128180Y-27391D01*
X-128205Y-27403D01*
X-128262Y-27431D01*
X-128336Y-27464D01*
X-128426Y-27493D01*
X-128524Y-27518D01*
X-128635Y-27534D01*
X-128656D01*
X-128676Y-27538D01*
X-128701D01*
X-128734Y-27542D01*
X-128775D01*
X-128820Y-27546D01*
X-128877D01*
X-128943Y-27551D01*
X-129016D01*
X-129103Y-27555D01*
X-129304D01*
X-129422Y-27559D01*
X-130841D01*
Y-23774D01*
X-129176D01*
X-129127Y-23778D01*
D02*
G37*
G36*
X-30700Y23330D02*
X-30590Y23313D01*
X-30588Y23310D01*
X-30576D01*
X-30561Y23307D01*
X-30541Y23299D01*
X-30512Y23293D01*
X-30483Y23281D01*
X-30445Y23267D01*
X-30408Y23252D01*
X-30327Y23212D01*
X-30234Y23159D01*
X-30144Y23093D01*
X-30051Y23011D01*
X-30048Y23009D01*
X-30037Y22997D01*
X-30022Y22983D01*
X-30005Y22959D01*
X-29982Y22930D01*
X-29956Y22898D01*
X-29926Y22858D01*
X-29900Y22814D01*
X-29840Y22713D01*
X-29813Y22658D01*
X-29790Y22600D01*
X-29767Y22536D01*
X-29750Y22472D01*
X-29735Y22406D01*
X-29729Y22336D01*
Y22330D01*
Y22319D01*
Y22301D01*
Y22272D01*
X-29735Y22238D01*
X-29741Y22197D01*
X-29747Y22151D01*
X-29758Y22098D01*
X-29770Y22040D01*
X-29787Y21982D01*
X-29811Y21918D01*
X-29840Y21849D01*
X-29874Y21779D01*
X-29912Y21707D01*
X-29958Y21632D01*
X-30011Y21556D01*
X-30008Y21559D01*
X-29996D01*
X-29985Y21565D01*
X-29964Y21568D01*
X-29912Y21579D01*
X-29842Y21591D01*
X-29764Y21605D01*
X-29677Y21617D01*
X-29584Y21623D01*
X-29486D01*
X-29471Y21620D01*
X-29454D01*
X-29428Y21617D01*
X-29396Y21614D01*
X-29358Y21611D01*
X-29318Y21605D01*
X-29268Y21597D01*
X-29213Y21588D01*
X-29152Y21579D01*
X-29086Y21565D01*
X-29013Y21550D01*
X-28932Y21533D01*
X-28848Y21519D01*
X-28755Y21495D01*
X-27909Y21304D01*
X-28555Y20657D01*
X-29529Y20849D01*
X-29535D01*
X-29553Y20855D01*
X-29579Y20857D01*
X-29613Y20863D01*
X-29654Y20875D01*
X-29700Y20881D01*
X-29808Y20901D01*
X-29924Y20918D01*
X-30034Y20936D01*
X-30086Y20942D01*
X-30132Y20947D01*
X-30173Y20953D01*
X-30213D01*
X-30234Y20956D01*
X-30263Y20950D01*
X-30301Y20947D01*
X-30344Y20944D01*
X-30390Y20933D01*
X-30437Y20921D01*
X-30480Y20901D01*
X-30486D01*
X-30503Y20889D01*
X-30529Y20875D01*
X-30564Y20852D01*
X-30608Y20820D01*
X-30657Y20776D01*
X-30718Y20727D01*
X-30785Y20660D01*
X-30892Y20553D01*
X-29776Y19437D01*
X-30315Y18898D01*
X-32991Y21574D01*
X-31854Y22710D01*
X-31849Y22716D01*
X-31834Y22730D01*
X-31814Y22751D01*
X-31785Y22780D01*
X-31747Y22812D01*
X-31707Y22852D01*
X-31657Y22896D01*
X-31608Y22939D01*
X-31495Y23035D01*
X-31379Y23122D01*
X-31324Y23165D01*
X-31263Y23203D01*
X-31208Y23235D01*
X-31159Y23261D01*
X-31156Y23264D01*
X-31147Y23267D01*
X-31133Y23269D01*
X-31112Y23278D01*
X-31086Y23287D01*
X-31060Y23296D01*
X-30988Y23316D01*
X-30901Y23327D01*
X-30808Y23333D01*
X-30700Y23330D01*
D02*
G37*
G36*
X-25412Y28247D02*
X-26201Y27459D01*
X-23977Y25235D01*
X-24517Y24696D01*
X-26740Y26919D01*
X-27535Y26125D01*
X-27987Y26577D01*
X-25865Y28700D01*
X-25412Y28247D01*
D02*
G37*
G36*
X62083Y44036D02*
X62092Y44033D01*
X62106Y44024D01*
X62127Y44015D01*
X62156Y44004D01*
X62185Y43992D01*
X62222Y43978D01*
X62266Y43963D01*
X62362Y43931D01*
X62477Y43902D01*
X62611Y43873D01*
X62762Y43850D01*
X62767D01*
X62782Y43847D01*
X62802Y43844D01*
X62831D01*
X62869Y43841D01*
X62912Y43844D01*
X62959D01*
X63014Y43847D01*
X63133Y43856D01*
X63257Y43876D01*
X63388Y43908D01*
X63452Y43931D01*
X63515Y43960D01*
X63933Y43543D01*
X61248Y40858D01*
X60735Y41371D01*
X62663Y43299D01*
X62640D01*
X62608Y43302D01*
X62570Y43305D01*
X62524Y43311D01*
X62463Y43320D01*
X62399Y43325D01*
X62327Y43340D01*
X62248Y43354D01*
X62167Y43372D01*
X62080Y43395D01*
X61990Y43421D01*
X61898Y43450D01*
X61802Y43488D01*
X61709Y43528D01*
X61614Y43572D01*
X62080Y44039D01*
X62083Y44036D01*
D02*
G37*
G36*
X-28372Y25786D02*
X-28297D01*
X-28248Y25777D01*
X-28193Y25769D01*
X-28132Y25760D01*
X-28068Y25743D01*
X-28001Y25722D01*
X-27929Y25696D01*
X-27856Y25664D01*
X-27781Y25629D01*
X-27706Y25583D01*
X-27633Y25528D01*
X-27561Y25467D01*
X-28080Y24908D01*
X-28083Y24911D01*
X-28091Y24913D01*
X-28103Y24925D01*
X-28117Y24934D01*
X-28141Y24945D01*
X-28167Y24960D01*
X-28225Y24989D01*
X-28291Y25015D01*
X-28367Y25038D01*
X-28445Y25052D01*
X-28523Y25050D01*
X-28532Y25047D01*
X-28558Y25044D01*
X-28599Y25032D01*
X-28654Y25012D01*
X-28720Y24980D01*
X-28793Y24937D01*
X-28874Y24879D01*
X-28958Y24800D01*
X-28961Y24797D01*
X-28970Y24789D01*
X-28981Y24777D01*
X-28996Y24763D01*
X-29013Y24739D01*
X-29033Y24713D01*
X-29083Y24652D01*
X-29129Y24583D01*
X-29176Y24502D01*
X-29208Y24418D01*
X-29231Y24331D01*
Y24325D01*
Y24307D01*
Y24278D01*
X-29228Y24247D01*
X-29222Y24206D01*
X-29205Y24165D01*
X-29184Y24122D01*
X-29149Y24081D01*
X-29147Y24078D01*
X-29135Y24067D01*
X-29112Y24049D01*
X-29086Y24035D01*
X-29048Y24020D01*
X-29008Y24003D01*
X-28961Y23997D01*
X-28909D01*
X-28900Y24000D01*
X-28889D01*
X-28871Y24006D01*
X-28851Y24009D01*
X-28825Y24017D01*
X-28790Y24029D01*
X-28752Y24044D01*
X-28712Y24061D01*
X-28662Y24081D01*
X-28607Y24107D01*
X-28547Y24139D01*
X-28477Y24174D01*
X-28401Y24215D01*
X-28320Y24261D01*
X-28233Y24313D01*
X-28228Y24319D01*
X-28213Y24328D01*
X-28187Y24342D01*
X-28155Y24363D01*
X-28112Y24389D01*
X-28065Y24412D01*
X-28010Y24444D01*
X-27955Y24476D01*
X-27830Y24542D01*
X-27703Y24606D01*
X-27639Y24635D01*
X-27575Y24664D01*
X-27514Y24684D01*
X-27459Y24705D01*
X-27456Y24708D01*
X-27445D01*
X-27430Y24710D01*
X-27410Y24719D01*
X-27352Y24731D01*
X-27280Y24745D01*
X-27193Y24751D01*
X-27097Y24754D01*
X-26992Y24748D01*
X-26888Y24731D01*
X-26885Y24728D01*
X-26874D01*
X-26862Y24722D01*
X-26839Y24716D01*
X-26813Y24708D01*
X-26784Y24696D01*
X-26752Y24681D01*
X-26714Y24667D01*
X-26676Y24647D01*
X-26636Y24623D01*
X-26546Y24568D01*
X-26450Y24496D01*
X-26355Y24412D01*
X-26352Y24409D01*
X-26346Y24403D01*
X-26331Y24389D01*
X-26320Y24371D01*
X-26300Y24351D01*
X-26276Y24322D01*
X-26256Y24290D01*
X-26233Y24255D01*
X-26181Y24174D01*
X-26131Y24078D01*
X-26088Y23971D01*
X-26068Y23910D01*
X-26053Y23849D01*
X-26050Y23846D01*
Y23835D01*
X-26047Y23815D01*
X-26044Y23794D01*
X-26042Y23762D01*
X-26036Y23728D01*
X-26033Y23643D01*
X-26039Y23545D01*
X-26047Y23432D01*
X-26074Y23313D01*
X-26117Y23188D01*
X-26120Y23186D01*
X-26126Y23174D01*
X-26131Y23156D01*
X-26143Y23133D01*
X-26158Y23101D01*
X-26181Y23067D01*
X-26204Y23026D01*
X-26230Y22983D01*
X-26259Y22930D01*
X-26294Y22878D01*
X-26337Y22823D01*
X-26381Y22762D01*
X-26427Y22704D01*
X-26482Y22637D01*
X-26540Y22574D01*
X-26604Y22510D01*
X-26610Y22504D01*
X-26627Y22487D01*
X-26656Y22464D01*
X-26691Y22429D01*
X-26735Y22391D01*
X-26790Y22348D01*
X-26853Y22301D01*
X-26920Y22252D01*
X-26995Y22200D01*
X-27077Y22153D01*
X-27158Y22107D01*
X-27245Y22066D01*
X-27335Y22029D01*
X-27427Y22000D01*
X-27520Y21976D01*
X-27616Y21962D01*
X-27703D01*
X-27749Y21968D01*
X-27804Y21971D01*
X-27865Y21979D01*
X-27932Y21994D01*
X-28007Y22011D01*
X-28086Y22032D01*
X-28170Y22063D01*
X-28257Y22098D01*
X-28346Y22142D01*
X-28436Y22191D01*
X-28532Y22252D01*
X-28625Y22321D01*
X-28152Y22898D01*
X-28149Y22896D01*
X-28138Y22890D01*
X-28120Y22878D01*
X-28100Y22864D01*
X-28071Y22846D01*
X-28039Y22832D01*
X-27964Y22791D01*
X-27874Y22753D01*
X-27772Y22722D01*
X-27671Y22701D01*
X-27622Y22698D01*
X-27569D01*
X-27567Y22701D01*
X-27558Y22698D01*
X-27543Y22701D01*
X-27523Y22704D01*
X-27500Y22710D01*
X-27471Y22722D01*
X-27439Y22730D01*
X-27404Y22742D01*
X-27323Y22777D01*
X-27239Y22826D01*
X-27146Y22890D01*
X-27053Y22971D01*
X-27051Y22974D01*
X-27042Y22983D01*
X-27027Y22997D01*
X-27013Y23017D01*
X-26990Y23041D01*
X-26969Y23067D01*
X-26920Y23133D01*
X-26868Y23209D01*
X-26822Y23296D01*
X-26784Y23385D01*
X-26772Y23432D01*
X-26766Y23478D01*
X-26763Y23481D01*
X-26766Y23490D01*
Y23519D01*
Y23565D01*
X-26772Y23617D01*
X-26787Y23678D01*
X-26810Y23748D01*
X-26845Y23812D01*
X-26865Y23844D01*
X-26891Y23870D01*
X-26894Y23873D01*
X-26908Y23887D01*
X-26929Y23902D01*
X-26952Y23919D01*
X-26987Y23936D01*
X-27024Y23957D01*
X-27065Y23968D01*
X-27111Y23974D01*
X-27135D01*
X-27161Y23971D01*
X-27196D01*
X-27242Y23959D01*
X-27294Y23948D01*
X-27352Y23925D01*
X-27422Y23896D01*
X-27430Y23893D01*
X-27436Y23887D01*
X-27448Y23881D01*
X-27462Y23873D01*
X-27485Y23861D01*
X-27509Y23849D01*
X-27538Y23832D01*
X-27572Y23815D01*
X-27613Y23791D01*
X-27656Y23765D01*
X-27709Y23736D01*
X-27764Y23704D01*
X-27825Y23667D01*
X-27894Y23626D01*
X-27970Y23580D01*
X-27975Y23574D01*
X-27996Y23565D01*
X-28022Y23551D01*
X-28059Y23530D01*
X-28106Y23502D01*
X-28161Y23475D01*
X-28219Y23446D01*
X-28280Y23415D01*
X-28422Y23354D01*
X-28567Y23296D01*
X-28639Y23275D01*
X-28712Y23255D01*
X-28778Y23241D01*
X-28842Y23235D01*
X-28889D01*
X-28921Y23238D01*
X-28961D01*
X-29008Y23244D01*
X-29060Y23249D01*
X-29115Y23264D01*
X-29176Y23278D01*
X-29239Y23296D01*
X-29306Y23322D01*
X-29373Y23348D01*
X-29436Y23383D01*
X-29503Y23426D01*
X-29567Y23472D01*
X-29628Y23528D01*
X-29631Y23530D01*
X-29637Y23536D01*
X-29648Y23548D01*
X-29660Y23565D01*
X-29677Y23583D01*
X-29697Y23609D01*
X-29738Y23667D01*
X-29781Y23739D01*
X-29828Y23826D01*
X-29866Y23922D01*
X-29895Y24026D01*
X-29897Y24029D01*
Y24041D01*
X-29900Y24055D01*
X-29903Y24076D01*
X-29906Y24136D01*
X-29912Y24212D01*
X-29906Y24305D01*
X-29895Y24403D01*
X-29869Y24516D01*
X-29831Y24629D01*
X-29828Y24632D01*
X-29825Y24641D01*
X-29816Y24661D01*
X-29808Y24681D01*
X-29793Y24713D01*
X-29776Y24742D01*
X-29755Y24780D01*
X-29732Y24826D01*
X-29703Y24873D01*
X-29674Y24919D01*
X-29637Y24968D01*
X-29599Y25023D01*
X-29553Y25082D01*
X-29509Y25137D01*
X-29399Y25253D01*
X-29396Y25255D01*
X-29393Y25258D01*
X-29376Y25276D01*
X-29349Y25302D01*
X-29315Y25331D01*
X-29268Y25371D01*
X-29216Y25412D01*
X-29155Y25461D01*
X-29086Y25508D01*
X-29016Y25554D01*
X-28938Y25603D01*
X-28857Y25650D01*
X-28776Y25690D01*
X-28688Y25725D01*
X-28596Y25754D01*
X-28509Y25777D01*
X-28419Y25786D01*
X-28413D01*
X-28399Y25789D01*
X-28372Y25786D01*
D02*
G37*
G36*
X-102693Y93212D02*
X-102631Y93208D01*
X-102562Y93200D01*
X-102488Y93192D01*
X-102406Y93179D01*
X-102320Y93163D01*
X-102230Y93142D01*
X-102139Y93122D01*
X-102045Y93093D01*
X-101955Y93056D01*
X-101869Y93019D01*
X-101787Y92974D01*
X-101709Y92921D01*
X-101705Y92917D01*
X-101693Y92909D01*
X-101672Y92892D01*
X-101643Y92868D01*
X-101615Y92835D01*
X-101578Y92802D01*
X-101537Y92757D01*
X-101496Y92708D01*
X-101451Y92655D01*
X-101410Y92593D01*
X-101365Y92523D01*
X-101324Y92454D01*
X-101287Y92376D01*
X-101250Y92290D01*
X-101221Y92199D01*
X-101197Y92105D01*
X-101955Y91962D01*
Y91966D01*
X-101959Y91974D01*
X-101963Y91990D01*
X-101971Y92007D01*
X-101979Y92031D01*
X-101992Y92060D01*
X-102025Y92122D01*
X-102066Y92191D01*
X-102119Y92265D01*
X-102180Y92335D01*
X-102258Y92400D01*
X-102262D01*
X-102267Y92409D01*
X-102279Y92417D01*
X-102299Y92425D01*
X-102320Y92437D01*
X-102344Y92454D01*
X-102377Y92466D01*
X-102410Y92482D01*
X-102488Y92511D01*
X-102582Y92540D01*
X-102689Y92556D01*
X-102808Y92564D01*
X-102857D01*
X-102890Y92560D01*
X-102931Y92556D01*
X-102980Y92548D01*
X-103037Y92536D01*
X-103095Y92523D01*
X-103156Y92507D01*
X-103222Y92487D01*
X-103287Y92462D01*
X-103353Y92429D01*
X-103419Y92392D01*
X-103484Y92351D01*
X-103546Y92302D01*
X-103603Y92245D01*
X-103607Y92241D01*
X-103615Y92228D01*
X-103632Y92212D01*
X-103648Y92183D01*
X-103673Y92150D01*
X-103698Y92109D01*
X-103722Y92064D01*
X-103751Y92007D01*
X-103779Y91945D01*
X-103804Y91876D01*
X-103829Y91798D01*
X-103853Y91712D01*
X-103870Y91621D01*
X-103886Y91523D01*
X-103894Y91416D01*
X-103898Y91302D01*
Y91293D01*
Y91273D01*
X-103894Y91236D01*
Y91191D01*
X-103890Y91133D01*
X-103882Y91072D01*
X-103874Y90998D01*
X-103861Y90920D01*
X-103845Y90842D01*
X-103824Y90756D01*
X-103800Y90674D01*
X-103771Y90588D01*
X-103738Y90506D01*
X-103698Y90428D01*
X-103652Y90355D01*
X-103599Y90289D01*
X-103595Y90285D01*
X-103587Y90277D01*
X-103566Y90256D01*
X-103546Y90236D01*
X-103513Y90211D01*
X-103480Y90182D01*
X-103435Y90154D01*
X-103390Y90121D01*
X-103337Y90088D01*
X-103275Y90059D01*
X-103214Y90031D01*
X-103144Y90006D01*
X-103066Y89986D01*
X-102988Y89969D01*
X-102906Y89957D01*
X-102816Y89953D01*
X-102775D01*
X-102754Y89957D01*
X-102726D01*
X-102664Y89965D01*
X-102591Y89977D01*
X-102513Y89994D01*
X-102426Y90014D01*
X-102336Y90047D01*
X-102332D01*
X-102324Y90051D01*
X-102312Y90055D01*
X-102295Y90063D01*
X-102250Y90084D01*
X-102193Y90113D01*
X-102127Y90145D01*
X-102057Y90182D01*
X-101988Y90223D01*
X-101918Y90272D01*
Y90756D01*
X-102791D01*
Y91396D01*
X-101147D01*
Y89883D01*
X-101151Y89879D01*
X-101160Y89875D01*
X-101172Y89863D01*
X-101192Y89846D01*
X-101217Y89826D01*
X-101246Y89801D01*
X-101283Y89776D01*
X-101324Y89748D01*
X-101373Y89715D01*
X-101422Y89682D01*
X-101479Y89649D01*
X-101545Y89617D01*
X-101611Y89580D01*
X-101684Y89547D01*
X-101762Y89510D01*
X-101844Y89477D01*
X-101848D01*
X-101865Y89469D01*
X-101889Y89461D01*
X-101922Y89448D01*
X-101963Y89436D01*
X-102012Y89420D01*
X-102070Y89407D01*
X-102131Y89391D01*
X-102197Y89375D01*
X-102271Y89358D01*
X-102344Y89342D01*
X-102426Y89329D01*
X-102595Y89309D01*
X-102681Y89305D01*
X-102767Y89301D01*
X-102824D01*
X-102865Y89305D01*
X-102919Y89309D01*
X-102980Y89313D01*
X-103046Y89321D01*
X-103119Y89334D01*
X-103197Y89346D01*
X-103279Y89362D01*
X-103365Y89383D01*
X-103455Y89403D01*
X-103546Y89432D01*
X-103632Y89465D01*
X-103718Y89502D01*
X-103804Y89547D01*
X-103808Y89551D01*
X-103824Y89559D01*
X-103845Y89571D01*
X-103878Y89592D01*
X-103911Y89621D01*
X-103956Y89649D01*
X-104001Y89686D01*
X-104050Y89731D01*
X-104103Y89776D01*
X-104157Y89830D01*
X-104214Y89891D01*
X-104267Y89953D01*
X-104321Y90022D01*
X-104374Y90096D01*
X-104419Y90174D01*
X-104464Y90260D01*
X-104468Y90264D01*
X-104472Y90281D01*
X-104485Y90305D01*
X-104497Y90342D01*
X-104513Y90383D01*
X-104534Y90437D01*
X-104554Y90494D01*
X-104575Y90560D01*
X-104595Y90633D01*
X-104616Y90711D01*
X-104632Y90793D01*
X-104653Y90879D01*
X-104665Y90974D01*
X-104677Y91068D01*
X-104681Y91166D01*
X-104685Y91269D01*
Y91277D01*
Y91293D01*
Y91326D01*
X-104681Y91367D01*
X-104677Y91421D01*
X-104673Y91482D01*
X-104665Y91548D01*
X-104653Y91621D01*
X-104640Y91699D01*
X-104624Y91785D01*
X-104604Y91872D01*
X-104583Y91962D01*
X-104554Y92052D01*
X-104522Y92142D01*
X-104485Y92232D01*
X-104440Y92318D01*
X-104435Y92322D01*
X-104427Y92339D01*
X-104415Y92364D01*
X-104394Y92396D01*
X-104366Y92433D01*
X-104337Y92478D01*
X-104300Y92528D01*
X-104255Y92581D01*
X-104210Y92638D01*
X-104153Y92696D01*
X-104095Y92753D01*
X-104030Y92814D01*
X-103960Y92872D01*
X-103882Y92925D01*
X-103800Y92979D01*
X-103714Y93028D01*
X-103710Y93032D01*
X-103698Y93036D01*
X-103677Y93044D01*
X-103648Y93056D01*
X-103611Y93073D01*
X-103570Y93089D01*
X-103521Y93106D01*
X-103464Y93122D01*
X-103402Y93138D01*
X-103332Y93155D01*
X-103259Y93171D01*
X-103177Y93188D01*
X-103091Y93200D01*
X-103000Y93208D01*
X-102906Y93216D01*
X-102738D01*
X-102693Y93212D01*
D02*
G37*
G36*
X-109163Y89371D02*
X-109925D01*
Y91027D01*
X-111426D01*
Y89371D01*
X-112189D01*
Y93155D01*
X-111426D01*
Y91667D01*
X-109925D01*
Y93155D01*
X-109163D01*
Y89371D01*
D02*
G37*
G36*
X-135175Y-25767D02*
Y-25775D01*
Y-25796D01*
Y-25833D01*
Y-25878D01*
Y-25935D01*
X-135179Y-25997D01*
Y-26066D01*
X-135183Y-26144D01*
X-135191Y-26300D01*
X-135203Y-26460D01*
X-135212Y-26538D01*
X-135220Y-26607D01*
X-135228Y-26673D01*
X-135240Y-26730D01*
Y-26735D01*
X-135244Y-26743D01*
X-135248Y-26759D01*
X-135253Y-26776D01*
X-135261Y-26800D01*
X-135269Y-26829D01*
X-135294Y-26895D01*
X-135322Y-26972D01*
X-135363Y-27050D01*
X-135413Y-27128D01*
X-135470Y-27206D01*
Y-27210D01*
X-135478Y-27214D01*
X-135499Y-27239D01*
X-135536Y-27272D01*
X-135585Y-27317D01*
X-135650Y-27366D01*
X-135724Y-27415D01*
X-135814Y-27468D01*
X-135913Y-27514D01*
X-135917D01*
X-135925Y-27518D01*
X-135941Y-27526D01*
X-135962Y-27530D01*
X-135991Y-27538D01*
X-136023Y-27551D01*
X-136064Y-27559D01*
X-136109Y-27571D01*
X-136159Y-27583D01*
X-136212Y-27591D01*
X-136274Y-27600D01*
X-136335Y-27612D01*
X-136405Y-27616D01*
X-136478Y-27624D01*
X-136556Y-27628D01*
X-136692D01*
X-136729Y-27624D01*
X-136774D01*
X-136823Y-27620D01*
X-136880Y-27616D01*
X-136942Y-27612D01*
X-137077Y-27600D01*
X-137212Y-27575D01*
X-137344Y-27546D01*
X-137405Y-27526D01*
X-137458Y-27505D01*
X-137462D01*
X-137471Y-27501D01*
X-137487Y-27493D01*
X-137504Y-27481D01*
X-137528Y-27468D01*
X-137557Y-27456D01*
X-137618Y-27415D01*
X-137688Y-27370D01*
X-137762Y-27317D01*
X-137836Y-27251D01*
X-137901Y-27182D01*
Y-27177D01*
X-137909Y-27173D01*
X-137918Y-27161D01*
X-137926Y-27145D01*
X-137954Y-27108D01*
X-137987Y-27054D01*
X-138024Y-26989D01*
X-138061Y-26919D01*
X-138090Y-26841D01*
X-138114Y-26759D01*
Y-26755D01*
X-138119Y-26743D01*
X-138123Y-26726D01*
X-138127Y-26698D01*
X-138131Y-26665D01*
X-138139Y-26624D01*
X-138143Y-26575D01*
X-138151Y-26517D01*
X-138160Y-26456D01*
X-138164Y-26382D01*
X-138172Y-26304D01*
X-138176Y-26218D01*
X-138180Y-26124D01*
X-138184Y-26025D01*
X-138188Y-25915D01*
Y-25800D01*
Y-23774D01*
X-137426D01*
Y-25828D01*
Y-25833D01*
Y-25849D01*
Y-25874D01*
Y-25906D01*
Y-25947D01*
Y-25993D01*
X-137422Y-26042D01*
Y-26091D01*
Y-26202D01*
X-137413Y-26304D01*
Y-26353D01*
X-137409Y-26394D01*
X-137405Y-26431D01*
X-137401Y-26464D01*
Y-26468D01*
X-137397Y-26472D01*
Y-26484D01*
X-137389Y-26501D01*
X-137376Y-26546D01*
X-137352Y-26599D01*
X-137323Y-26657D01*
X-137282Y-26718D01*
X-137229Y-26780D01*
X-137167Y-26837D01*
X-137163D01*
X-137159Y-26841D01*
X-137147Y-26849D01*
X-137135Y-26858D01*
X-137093Y-26882D01*
X-137036Y-26907D01*
X-136962Y-26931D01*
X-136876Y-26956D01*
X-136778Y-26972D01*
X-136663Y-26976D01*
X-136630D01*
X-136610Y-26972D01*
X-136581D01*
X-136552Y-26968D01*
X-136478Y-26960D01*
X-136401Y-26944D01*
X-136319Y-26919D01*
X-136241Y-26890D01*
X-136171Y-26845D01*
X-136163Y-26841D01*
X-136146Y-26821D01*
X-136118Y-26792D01*
X-136085Y-26755D01*
X-136052Y-26710D01*
X-136019Y-26653D01*
X-135991Y-26591D01*
X-135974Y-26521D01*
Y-26517D01*
Y-26513D01*
X-135970Y-26501D01*
Y-26484D01*
X-135966Y-26460D01*
X-135962Y-26435D01*
X-135958Y-26402D01*
X-135954Y-26366D01*
Y-26324D01*
X-135950Y-26275D01*
X-135945Y-26222D01*
X-135941Y-26165D01*
Y-26099D01*
X-135937Y-26029D01*
Y-25956D01*
Y-25874D01*
Y-23774D01*
X-135175D01*
Y-25767D01*
D02*
G37*
G36*
X-114308Y93212D02*
X-114259Y93208D01*
X-114202Y93204D01*
X-114132Y93196D01*
X-114054Y93183D01*
X-113972Y93163D01*
X-113886Y93142D01*
X-113796Y93114D01*
X-113701Y93081D01*
X-113607Y93040D01*
X-113513Y92995D01*
X-113419Y92937D01*
X-113332Y92876D01*
X-113246Y92802D01*
X-113242Y92798D01*
X-113234Y92790D01*
X-113222Y92778D01*
X-113205Y92757D01*
X-113181Y92733D01*
X-113156Y92704D01*
X-113131Y92667D01*
X-113099Y92626D01*
X-113070Y92577D01*
X-113037Y92528D01*
X-113004Y92470D01*
X-112972Y92409D01*
X-112943Y92339D01*
X-112910Y92269D01*
X-112881Y92191D01*
X-112857Y92109D01*
X-113611Y91929D01*
Y91933D01*
X-113615Y91941D01*
X-113619Y91958D01*
X-113624Y91978D01*
X-113632Y92003D01*
X-113644Y92031D01*
X-113673Y92097D01*
X-113710Y92171D01*
X-113759Y92249D01*
X-113820Y92322D01*
X-113894Y92392D01*
X-113898Y92396D01*
X-113902Y92400D01*
X-113915Y92409D01*
X-113931Y92421D01*
X-113952Y92433D01*
X-113976Y92445D01*
X-114038Y92478D01*
X-114116Y92511D01*
X-114202Y92536D01*
X-114300Y92556D01*
X-114411Y92564D01*
X-114452D01*
X-114480Y92560D01*
X-114517Y92556D01*
X-114558Y92548D01*
X-114603Y92540D01*
X-114653Y92528D01*
X-114706Y92511D01*
X-114763Y92491D01*
X-114821Y92466D01*
X-114878Y92437D01*
X-114936Y92400D01*
X-114989Y92359D01*
X-115046Y92314D01*
X-115095Y92261D01*
X-115100Y92257D01*
X-115108Y92249D01*
X-115120Y92228D01*
X-115136Y92204D01*
X-115157Y92171D01*
X-115177Y92130D01*
X-115202Y92081D01*
X-115223Y92023D01*
X-115247Y91962D01*
X-115272Y91888D01*
X-115292Y91810D01*
X-115313Y91720D01*
X-115329Y91621D01*
X-115341Y91519D01*
X-115350Y91404D01*
X-115354Y91281D01*
Y91273D01*
Y91248D01*
Y91211D01*
X-115350Y91166D01*
X-115346Y91105D01*
X-115341Y91039D01*
X-115333Y90965D01*
X-115321Y90883D01*
X-115292Y90715D01*
X-115272Y90633D01*
X-115247Y90547D01*
X-115218Y90465D01*
X-115182Y90391D01*
X-115145Y90322D01*
X-115100Y90260D01*
X-115095Y90256D01*
X-115087Y90248D01*
X-115071Y90232D01*
X-115054Y90211D01*
X-115026Y90191D01*
X-114997Y90166D01*
X-114960Y90137D01*
X-114919Y90109D01*
X-114874Y90080D01*
X-114821Y90051D01*
X-114768Y90026D01*
X-114706Y90006D01*
X-114645Y89986D01*
X-114575Y89969D01*
X-114501Y89961D01*
X-114427Y89957D01*
X-114399D01*
X-114378Y89961D01*
X-114349D01*
X-114321Y89969D01*
X-114247Y89981D01*
X-114165Y90006D01*
X-114079Y90039D01*
X-113993Y90088D01*
X-113947Y90117D01*
X-113906Y90149D01*
X-113902Y90154D01*
X-113898Y90158D01*
X-113886Y90170D01*
X-113870Y90186D01*
X-113853Y90207D01*
X-113833Y90232D01*
X-113808Y90264D01*
X-113783Y90297D01*
X-113759Y90338D01*
X-113730Y90383D01*
X-113706Y90432D01*
X-113677Y90490D01*
X-113652Y90547D01*
X-113628Y90613D01*
X-113607Y90687D01*
X-113587Y90760D01*
X-112845Y90531D01*
Y90523D01*
X-112853Y90502D01*
X-112861Y90473D01*
X-112877Y90428D01*
X-112898Y90379D01*
X-112918Y90318D01*
X-112947Y90252D01*
X-112980Y90182D01*
X-113017Y90109D01*
X-113058Y90031D01*
X-113107Y89953D01*
X-113156Y89879D01*
X-113214Y89801D01*
X-113275Y89731D01*
X-113341Y89666D01*
X-113415Y89604D01*
X-113419Y89600D01*
X-113431Y89592D01*
X-113455Y89575D01*
X-113484Y89559D01*
X-113525Y89534D01*
X-113570Y89510D01*
X-113624Y89481D01*
X-113689Y89457D01*
X-113755Y89428D01*
X-113833Y89399D01*
X-113915Y89375D01*
X-114005Y89350D01*
X-114099Y89334D01*
X-114202Y89317D01*
X-114308Y89309D01*
X-114419Y89305D01*
X-114452D01*
X-114493Y89309D01*
X-114546Y89313D01*
X-114608Y89321D01*
X-114681Y89334D01*
X-114768Y89346D01*
X-114858Y89371D01*
X-114952Y89395D01*
X-115054Y89432D01*
X-115157Y89473D01*
X-115259Y89522D01*
X-115362Y89580D01*
X-115464Y89649D01*
X-115563Y89727D01*
X-115657Y89817D01*
X-115661Y89821D01*
X-115678Y89842D01*
X-115702Y89871D01*
X-115731Y89912D01*
X-115768Y89965D01*
X-115809Y90026D01*
X-115854Y90100D01*
X-115899Y90186D01*
X-115944Y90281D01*
X-115989Y90387D01*
X-116030Y90502D01*
X-116067Y90629D01*
X-116096Y90764D01*
X-116121Y90908D01*
X-116137Y91060D01*
X-116141Y91224D01*
Y91228D01*
Y91236D01*
Y91248D01*
Y91265D01*
Y91289D01*
X-116137Y91314D01*
X-116133Y91379D01*
X-116124Y91457D01*
X-116116Y91552D01*
X-116100Y91654D01*
X-116079Y91761D01*
X-116055Y91880D01*
X-116022Y91999D01*
X-115985Y92122D01*
X-115936Y92245D01*
X-115883Y92364D01*
X-115817Y92478D01*
X-115743Y92589D01*
X-115657Y92691D01*
X-115653Y92696D01*
X-115632Y92716D01*
X-115608Y92741D01*
X-115567Y92773D01*
X-115518Y92814D01*
X-115460Y92860D01*
X-115391Y92905D01*
X-115313Y92954D01*
X-115227Y93003D01*
X-115128Y93052D01*
X-115026Y93093D01*
X-114911Y93134D01*
X-114788Y93167D01*
X-114657Y93196D01*
X-114517Y93212D01*
X-114374Y93216D01*
X-114341D01*
X-114308Y93212D01*
D02*
G37*
%LPC*%
G36*
X-129377Y-24406D02*
X-130078D01*
Y-25279D01*
X-129340D01*
X-129246Y-25275D01*
X-129156D01*
X-129115Y-25271D01*
X-129078D01*
X-129045Y-25267D01*
X-129012D01*
X-128988Y-25263D01*
X-128951Y-25254D01*
X-128910Y-25242D01*
X-128861Y-25226D01*
X-128807Y-25201D01*
X-128758Y-25172D01*
X-128713Y-25136D01*
X-128709Y-25131D01*
X-128697Y-25115D01*
X-128676Y-25091D01*
X-128656Y-25054D01*
X-128635Y-25012D01*
X-128615Y-24959D01*
X-128602Y-24902D01*
X-128598Y-24836D01*
Y-24828D01*
Y-24808D01*
X-128602Y-24775D01*
X-128611Y-24738D01*
X-128623Y-24693D01*
X-128639Y-24644D01*
X-128664Y-24598D01*
X-128697Y-24553D01*
X-128701Y-24549D01*
X-128713Y-24537D01*
X-128738Y-24517D01*
X-128770Y-24496D01*
X-128812Y-24471D01*
X-128861Y-24451D01*
X-128918Y-24434D01*
X-128988Y-24422D01*
X-129000D01*
X-129012Y-24418D01*
X-129049D01*
X-129078Y-24414D01*
X-129148D01*
X-129197Y-24410D01*
X-129308D01*
X-129377Y-24406D01*
D02*
G37*
G36*
X-129369Y-25910D02*
X-130078D01*
Y-26919D01*
X-129238D01*
X-129152Y-26915D01*
X-129062D01*
X-128975Y-26911D01*
X-128939Y-26907D01*
X-128902D01*
X-128873Y-26903D01*
X-128848Y-26899D01*
X-128840D01*
X-128820Y-26890D01*
X-128787Y-26882D01*
X-128750Y-26866D01*
X-128705Y-26845D01*
X-128660Y-26821D01*
X-128611Y-26788D01*
X-128570Y-26747D01*
X-128566Y-26743D01*
X-128553Y-26726D01*
X-128533Y-26698D01*
X-128512Y-26661D01*
X-128496Y-26616D01*
X-128475Y-26562D01*
X-128463Y-26497D01*
X-128459Y-26427D01*
Y-26419D01*
Y-26398D01*
X-128463Y-26366D01*
X-128471Y-26329D01*
X-128479Y-26284D01*
X-128496Y-26234D01*
X-128516Y-26185D01*
X-128545Y-26140D01*
X-128549Y-26136D01*
X-128561Y-26120D01*
X-128578Y-26099D01*
X-128606Y-26074D01*
X-128639Y-26046D01*
X-128680Y-26017D01*
X-128729Y-25993D01*
X-128783Y-25968D01*
X-128791Y-25964D01*
X-128799D01*
X-128816Y-25960D01*
X-128836Y-25956D01*
X-128861Y-25951D01*
X-128889Y-25943D01*
X-128926Y-25939D01*
X-128967Y-25935D01*
X-129016Y-25927D01*
X-129074Y-25923D01*
X-129135Y-25919D01*
X-129205Y-25915D01*
X-129283D01*
X-129369Y-25910D01*
D02*
G37*
G36*
X-106789Y92515D02*
X-107609D01*
Y91552D01*
X-106912D01*
X-106863Y91556D01*
X-106752D01*
X-106633Y91564D01*
X-106522Y91572D01*
X-106473Y91576D01*
X-106428Y91580D01*
X-106387Y91589D01*
X-106358Y91597D01*
X-106350Y91601D01*
X-106334Y91605D01*
X-106309Y91617D01*
X-106280Y91634D01*
X-106244Y91654D01*
X-106207Y91683D01*
X-106174Y91716D01*
X-106141Y91757D01*
X-106137Y91761D01*
X-106129Y91777D01*
X-106116Y91802D01*
X-106100Y91835D01*
X-106088Y91876D01*
X-106076Y91925D01*
X-106067Y91982D01*
X-106063Y92044D01*
Y92048D01*
Y92052D01*
Y92076D01*
X-106067Y92109D01*
X-106076Y92154D01*
X-106088Y92204D01*
X-106108Y92253D01*
X-106133Y92302D01*
X-106166Y92351D01*
X-106170Y92355D01*
X-106186Y92372D01*
X-106207Y92392D01*
X-106239Y92413D01*
X-106280Y92441D01*
X-106330Y92462D01*
X-106391Y92482D01*
X-106457Y92499D01*
X-106461D01*
X-106477Y92503D01*
X-106510D01*
X-106530Y92507D01*
X-106592D01*
X-106633Y92511D01*
X-106731D01*
X-106789Y92515D01*
D02*
G37*
G36*
X-30863Y22565D02*
X-30921D01*
X-30959Y22556D01*
X-31008Y22548D01*
X-31057Y22527D01*
X-31115Y22498D01*
X-31173Y22464D01*
X-31176Y22461D01*
X-31190Y22452D01*
X-31202Y22440D01*
X-31214Y22429D01*
X-31231Y22417D01*
X-31251Y22397D01*
X-31275Y22374D01*
X-31306Y22348D01*
X-31338Y22316D01*
X-31376Y22278D01*
X-31420Y22240D01*
X-31466Y22194D01*
X-31521Y22139D01*
X-31579Y22081D01*
X-31999Y21660D01*
X-31318Y20979D01*
X-30918Y21379D01*
X-30912Y21385D01*
X-30901Y21397D01*
X-30880Y21417D01*
X-30857Y21440D01*
X-30825Y21472D01*
X-30793Y21510D01*
X-30756Y21547D01*
X-30715Y21588D01*
X-30637Y21678D01*
X-30564Y21762D01*
X-30532Y21800D01*
X-30503Y21835D01*
X-30480Y21869D01*
X-30466Y21895D01*
X-30463Y21904D01*
X-30454Y21918D01*
X-30445Y21945D01*
X-30437Y21976D01*
X-30425Y22017D01*
X-30419Y22063D01*
Y22110D01*
X-30425Y22162D01*
Y22168D01*
X-30431Y22185D01*
X-30440Y22211D01*
X-30451Y22246D01*
X-30472Y22284D01*
X-30498Y22327D01*
X-30532Y22374D01*
X-30573Y22420D01*
X-30576Y22423D01*
X-30579Y22426D01*
X-30596Y22443D01*
X-30622Y22464D01*
X-30660Y22490D01*
X-30703Y22516D01*
X-30753Y22536D01*
X-30805Y22554D01*
X-30863Y22565D01*
D02*
G37*
G36*
X-107330Y83075D02*
X-108031D01*
Y82201D01*
X-107293D01*
X-107199Y82205D01*
X-107108D01*
X-107068Y82209D01*
X-107031D01*
X-106998Y82214D01*
X-106965D01*
X-106940Y82218D01*
X-106904Y82226D01*
X-106863Y82238D01*
X-106813Y82255D01*
X-106760Y82279D01*
X-106711Y82308D01*
X-106666Y82345D01*
X-106662Y82349D01*
X-106649Y82365D01*
X-106629Y82390D01*
X-106608Y82427D01*
X-106588Y82468D01*
X-106567Y82521D01*
X-106555Y82578D01*
X-106551Y82644D01*
Y82652D01*
Y82673D01*
X-106555Y82706D01*
X-106563Y82743D01*
X-106576Y82788D01*
X-106592Y82837D01*
X-106617Y82882D01*
X-106649Y82927D01*
X-106653Y82931D01*
X-106666Y82943D01*
X-106690Y82964D01*
X-106723Y82984D01*
X-106764Y83009D01*
X-106813Y83030D01*
X-106871Y83046D01*
X-106940Y83058D01*
X-106953D01*
X-106965Y83062D01*
X-107002D01*
X-107031Y83066D01*
X-107100D01*
X-107150Y83070D01*
X-107260D01*
X-107330Y83075D01*
D02*
G37*
G36*
X-129783Y-30168D02*
X-130296Y-31570D01*
X-129259D01*
X-129783Y-30168D01*
D02*
G37*
G36*
X-107322Y81570D02*
X-108031D01*
Y80561D01*
X-107191D01*
X-107104Y80565D01*
X-107014D01*
X-106928Y80569D01*
X-106891Y80574D01*
X-106854D01*
X-106826Y80578D01*
X-106801Y80582D01*
X-106793D01*
X-106772Y80590D01*
X-106740Y80598D01*
X-106703Y80615D01*
X-106658Y80635D01*
X-106612Y80660D01*
X-106563Y80692D01*
X-106522Y80734D01*
X-106518Y80738D01*
X-106506Y80754D01*
X-106485Y80783D01*
X-106465Y80820D01*
X-106448Y80865D01*
X-106428Y80918D01*
X-106416Y80984D01*
X-106412Y81053D01*
Y81062D01*
Y81082D01*
X-106416Y81115D01*
X-106424Y81152D01*
X-106432Y81197D01*
X-106448Y81246D01*
X-106469Y81295D01*
X-106498Y81340D01*
X-106502Y81344D01*
X-106514Y81361D01*
X-106530Y81381D01*
X-106559Y81406D01*
X-106592Y81435D01*
X-106633Y81463D01*
X-106682Y81488D01*
X-106735Y81512D01*
X-106744Y81517D01*
X-106752D01*
X-106768Y81521D01*
X-106789Y81525D01*
X-106813Y81529D01*
X-106842Y81537D01*
X-106879Y81541D01*
X-106920Y81545D01*
X-106969Y81554D01*
X-107027Y81558D01*
X-107088Y81562D01*
X-107158Y81566D01*
X-107236D01*
X-107322Y81570D01*
D02*
G37*
%LPD*%
D49*
X-91250Y-2730D02*
X-75173Y-18807D01*
X-72746Y-21234D02*
X-56669Y-37311D01*
D68*
X-128228Y55067D02*
X-127492Y55672D01*
X-126964Y56464D01*
X-126688Y57375D01*
Y58327D01*
X-126964Y59238D01*
X-127492Y60030D01*
X-128228Y60635D01*
X-17097Y64873D02*
X-17651Y64081D01*
X-17902Y63147D01*
X-17817Y62184D01*
X-17409Y61307D01*
X-16725Y60624D01*
X-15849Y60215D01*
X-14886Y60131D01*
X-13952Y60381D01*
X-13160Y60936D01*
X9056Y-127799D02*
Y-127208D01*
X-9054Y-127799D02*
X9056D01*
X-9054D02*
Y-127208D01*
X9056Y-115988D02*
Y-115200D01*
X-9054D02*
X9056D01*
X-9054Y-115988D02*
Y-115200D01*
X-11220Y-115988D02*
X-9054D01*
X26049Y-13242D02*
X27580Y-11711D01*
X26049Y-13242D02*
X26606Y-13799D01*
X13800Y-26605D02*
X26606Y-13799D01*
X13243Y-26048D02*
X13800Y-26605D01*
X17697Y-4891D02*
X18115Y-5308D01*
X4892Y-17696D02*
X17697Y-4891D01*
X4892Y-17696D02*
X5309Y-18114D01*
X-4405Y-112897D02*
Y-110634D01*
Y-109059D02*
Y-103940D01*
X7406Y-109059D02*
Y-103940D01*
X-130117Y20473D02*
X-124999D01*
X-130117Y32284D02*
X-124999D01*
X-133956D02*
X-131692D01*
X-128228Y53126D02*
X-125275Y51158D01*
X-128228Y64544D02*
X-108936D01*
X-128228Y51158D02*
X-108936D01*
Y64544D01*
X-128228Y51158D02*
Y64544D01*
X-128129Y49386D02*
X-128129Y44465D01*
X-17913Y-58464D02*
Y-58070D01*
X-15157Y-58464D02*
Y-58070D01*
X-21850Y-69488D02*
Y-69094D01*
X-24606Y-69488D02*
Y-69094D01*
X-79925Y-24879D02*
X-60160Y-5113D01*
X-83472Y-21332D02*
X-79925Y-24879D01*
X-63706Y-1566D02*
X-60160Y-5113D01*
X-77487Y12214D02*
X-74007Y8734D01*
X-97322Y-7621D02*
X-77487Y12214D01*
X-97322Y-7621D02*
X-93842Y-11101D01*
X-61421Y-43382D02*
X-41656Y-23617D01*
X-64968Y-39836D02*
X-61421Y-43382D01*
X-45202Y-20070D02*
X-41656Y-23617D01*
X-58983Y-6290D02*
X-55503Y-9770D01*
X-78818Y-26125D02*
X-58983Y-6290D01*
X-78818Y-26125D02*
X-75338Y-29605D01*
X51378Y-13189D02*
X51378Y-13583D01*
X48622Y-13583D02*
Y-13189D01*
X57677Y-13583D02*
Y-13189D01*
X54921Y-13583D02*
Y-13189D01*
X54527Y-13583D02*
Y-13189D01*
X51772Y-13583D02*
Y-13189D01*
X22490Y10956D02*
X22768Y10678D01*
X20541Y9008D02*
X20819Y8729D01*
X15816Y13732D02*
X16095Y13454D01*
X17765Y15681D02*
X18044Y15403D01*
X60827Y-13583D02*
X60827Y-13189D01*
X58071Y-13189D02*
X58071Y-13583D01*
X20004Y16210D02*
X22509Y13704D01*
X24736Y20942D02*
X27242Y18437D01*
X-26703Y20521D02*
X-26425Y20799D01*
X-24755Y18572D02*
X-24476Y18850D01*
X-26604Y14356D02*
X-26326Y14078D01*
X-17139Y4891D02*
X-4890Y17140D01*
X-5169Y17419D02*
X-4890Y17140D01*
X-17418Y5170D02*
X-17139Y4891D01*
X-27718Y14356D02*
X-26604Y15470D01*
X-27718Y14356D02*
X-27022Y13660D01*
X-14355Y26606D02*
X-14077Y26327D01*
X-11015Y23265D02*
X-8231Y20481D01*
X-23264Y11016D02*
X-20480Y8232D01*
X-26604Y14356D02*
X-14355Y26606D01*
X-12924Y-19637D02*
X-12645Y-19358D01*
X-10975Y-21586D02*
X-10697Y-21307D01*
X-18829Y-14912D02*
X-18551Y-14634D01*
X-16881Y-16861D02*
X-16602Y-16583D01*
X-18849Y24477D02*
X-18571Y24756D01*
X-20798Y26426D02*
X-20519Y26704D01*
X11860Y15681D02*
X12138Y15403D01*
X9911Y13732D02*
X10189Y13454D01*
X24607Y97246D02*
X27658Y97246D01*
X27658Y95276D01*
X27658Y91339D02*
X27658Y89372D01*
X24607D02*
X27658D01*
X22639Y93898D02*
X22639Y92717D01*
X22490Y-22767D02*
X22768Y-22488D01*
X20541Y-20818D02*
X20819Y-20540D01*
X81571Y24341D02*
X82377Y24905D01*
X83764Y21551D02*
X84571Y22116D01*
X76613Y16869D02*
X76936Y17094D01*
X75033Y19126D02*
X75355Y19352D01*
X15552Y104922D02*
X15552Y105315D01*
X18308Y104922D02*
X18308Y105315D01*
X31719Y-45037D02*
Y-44644D01*
X34475D02*
X34475Y-45037D01*
X30906Y-56496D02*
X31300D01*
X30906Y-53740D02*
X31300D01*
X30906Y-80511D02*
X31300Y-80511D01*
X30906Y-77755D02*
X31300Y-77755D01*
X21654Y104134D02*
X21654Y106300D01*
X23623Y99410D02*
X28741Y99410D01*
X28741Y102363D01*
X28741Y110827D02*
X28741Y107874D01*
X23623Y110827D02*
X28741D01*
X38653Y80480D02*
X38976Y80706D01*
X37073Y82737D02*
X37395Y82963D01*
X43111Y-44685D02*
X43111Y-45078D01*
X40355D02*
Y-44685D01*
X40905Y77109D02*
X41227Y77335D01*
X39324Y79367D02*
X39647Y79593D01*
X30940Y-58443D02*
X31334D01*
X30940Y-61199D02*
X31334D01*
X-11743Y-50345D02*
X-11464Y-50067D01*
X-9794Y-52294D02*
X-9516Y-52016D01*
X28150Y-71850D02*
Y-66732D01*
Y-71850D02*
X31300D01*
X36418D02*
X39568Y-71850D01*
Y-66732D01*
X32678Y-65157D02*
X35040Y-65157D01*
X30906Y-82480D02*
X31300D01*
X30906Y-85236D02*
X31300D01*
X-16467Y-46015D02*
X-16189Y-45736D01*
X-14518Y-47964D02*
X-14240Y-47685D01*
X28247Y-95655D02*
Y-90537D01*
Y-95655D02*
X31397Y-95655D01*
X36515Y-95655D02*
X39665Y-95655D01*
Y-90537D01*
X32775Y-88963D02*
X35137D01*
X35237Y-45078D02*
Y-44685D01*
X37993Y-45078D02*
Y-44685D01*
X39568Y-57677D02*
Y-57283D01*
X36812Y-57677D02*
Y-57283D01*
X39568Y-81692D02*
Y-81299D01*
X36812Y-81692D02*
Y-81299D01*
X-719Y-38236D02*
X-441Y-38515D01*
X1230Y-36288D02*
X1508Y-36566D01*
X-32036Y36224D02*
X-31757Y36503D01*
X-33985Y38173D02*
X-33706Y38451D01*
X-39686Y46569D02*
X-36067Y42950D01*
X-41913Y44342D02*
X-39686Y46569D01*
X-47759Y38496D02*
X-45532Y40723D01*
X-47759Y38496D02*
X-44140Y34877D01*
X-39825Y36965D02*
X-38155Y38635D01*
X-31156Y35344D02*
X-30878Y35623D01*
X-29207Y33396D02*
X-28929Y33674D01*
X-11475Y37784D02*
X-9318Y39941D01*
X-7925Y38549D01*
X-5141Y35765D02*
X-3750Y34374D01*
X-5907Y32216D02*
X-3750Y34374D01*
X-10500Y34025D02*
X-9665Y33190D01*
X-3989Y45281D02*
X-1831Y47438D01*
X-439Y46046D01*
X2345Y43262D02*
X3737Y41870D01*
X1579Y39713D02*
X3737Y41870D01*
X-3014Y41522D02*
X-2179Y40687D01*
X-36813Y29688D02*
X-36535Y29966D01*
X-34864Y27739D02*
X-34586Y28017D01*
X-39641Y32516D02*
X-39363Y32794D01*
X-37693Y30567D02*
X-37414Y30846D01*
X-143110Y-23031D02*
X-142716D01*
X-143110Y-20275D02*
X-142716Y-20275D01*
X-144684Y-23622D02*
X-143503Y-23622D01*
X-144684Y-27559D02*
X-143503D01*
X-105314Y22638D02*
Y23032D01*
X-102558Y22638D02*
Y23032D01*
X-80117Y17914D02*
Y18307D01*
X-82873Y17914D02*
Y18307D01*
X-88188Y18701D02*
Y19882D01*
X-84251D02*
X-84251Y18701D01*
X-11921Y66390D02*
X-11643Y66111D01*
X-13870Y64441D02*
X-13592Y64162D01*
X-118306Y22638D02*
Y23032D01*
X-115550Y22638D02*
Y23032D01*
X-21949Y65549D02*
X-18469Y66245D01*
X-24037Y44530D02*
X-10396Y58172D01*
X-33502Y53996D02*
X-19861Y67637D01*
X-33502Y53996D02*
X-24037Y44530D01*
X-19861Y67637D02*
X-10396Y58172D01*
X-24663Y72300D02*
X-21183Y68820D01*
X-115550Y29725D02*
Y30119D01*
X-118306Y29725D02*
Y30119D01*
X-124704Y39154D02*
Y39548D01*
X-127460Y39154D02*
Y39548D01*
X-121204Y39154D02*
Y39548D01*
X-123960Y39154D02*
Y39548D01*
X-117704Y39154D02*
Y39548D01*
X-120460Y39154D02*
Y39548D01*
X11615Y-106889D02*
Y-106496D01*
X8859Y-106889D02*
Y-106496D01*
X15158Y-106889D02*
Y-106496D01*
X12402Y-106889D02*
Y-106496D01*
X-103542Y65552D02*
Y66733D01*
X-107480Y65552D02*
Y66733D01*
X-2165Y-95078D02*
X-1771D01*
X-2165Y-97834D02*
X-1771D01*
X-119881Y78544D02*
X-119487D01*
X-119881Y75788D02*
X-119487D01*
X-119881Y80119D02*
X-119487Y80119D01*
X-119881Y82874D02*
X-119487Y82874D01*
X-119881Y85237D02*
X-119487D01*
X-119881Y87993D02*
X-119487D01*
X-107480Y55315D02*
Y56497D01*
X-103542Y55315D02*
Y56497D01*
X4922Y-95078D02*
X5316D01*
X4922Y-97834D02*
X5316D01*
X-110826Y78937D02*
X-109842D01*
X-110629Y75394D02*
X-109645D01*
X-110826Y88386D02*
X-109842D01*
X-110629Y84843D02*
X-109645D01*
X-147834Y32481D02*
Y32874D01*
X-145078Y32481D02*
Y32874D01*
X-107480Y45079D02*
X-107480Y46260D01*
X-103542Y45079D02*
Y46260D01*
X15946Y72638D02*
Y73032D01*
X18702Y72638D02*
Y73032D01*
X-137401Y37599D02*
Y41930D01*
X-144487Y37599D02*
Y41930D01*
X15446Y72611D02*
Y73004D01*
X12690Y72611D02*
Y73004D01*
X-53081Y14913D02*
X-52803Y14635D01*
X-51133Y16862D02*
X-50854Y16584D01*
X-56251Y21980D02*
X-55972Y21702D01*
X-58199Y20031D02*
X-57921Y19753D01*
X-59885Y4482D02*
X-56266Y8101D01*
X-61973Y6570D02*
X-59885Y4482D01*
X-67959Y12555D02*
X-65871Y10467D01*
X-67959Y12555D02*
X-64340Y16174D01*
X-59607Y14225D02*
X-58076Y12694D01*
X22509Y33512D02*
X22787Y33791D01*
X24457Y31564D02*
X24736Y31842D01*
X32893Y22578D02*
X33171Y22856D01*
X34842Y20629D02*
X35120Y20907D01*
X42322Y14330D02*
X42601Y14608D01*
X40373Y16279D02*
X40652Y16557D01*
X36830Y19035D02*
X37108Y19313D01*
X38779Y17086D02*
X39057Y17364D01*
X19489Y93111D02*
Y93504D01*
X16733Y93111D02*
Y93504D01*
X-17274Y-45208D02*
X-16996Y-44929D01*
X-19223Y-43259D02*
X-18945Y-42981D01*
X-83661Y14370D02*
X-83267D01*
X-83661Y11615D02*
X-83267D01*
X-97440Y88386D02*
Y88780D01*
X-100196Y88386D02*
Y88780D01*
X-89960Y23622D02*
Y26378D01*
X-101574Y16241D02*
Y23130D01*
X-89763Y16241D02*
Y23130D01*
X-97243Y16142D02*
X-94094D01*
D69*
X137796Y0D02*
X137771Y997D01*
X137695Y1992D01*
X137569Y2981D01*
X137393Y3963D01*
X137168Y4935D01*
X136893Y5893D01*
X136571Y6837D01*
X136201Y7763D01*
X135784Y8670D01*
X135323Y9554D01*
X134817Y10413D01*
X134268Y11246D01*
X133677Y12050D01*
X133047Y12823D01*
X132379Y13563D01*
X131673Y14268D01*
X130933Y14937D01*
X130160Y15567D01*
X129357Y16157D01*
X128524Y16706D01*
X127664Y17212D01*
X126780Y17674D01*
X125874Y18090D01*
X124948Y18460D01*
X124004Y18783D01*
X123045Y19057D01*
X122074Y19283D01*
X121092Y19458D01*
X120103Y19584D01*
X119108Y19660D01*
X118111Y19685D01*
X117114Y19660D01*
X116120Y19584D01*
X115130Y19458D01*
X114148Y19283D01*
X113177Y19057D01*
X112218Y18783D01*
X111274Y18460D01*
X110348Y18090D01*
X109442Y17674D01*
X108558Y17212D01*
X107698Y16706D01*
X106866Y16157D01*
X106062Y15567D01*
X105289Y14937D01*
X104549Y14268D01*
X103843Y13563D01*
X103175Y12823D01*
X102545Y12050D01*
X101954Y11246D01*
X101405Y10413D01*
X100900Y9554D01*
X100438Y8670D01*
X100021Y7763D01*
X99651Y6837D01*
X99329Y5893D01*
X99054Y4935D01*
X98829Y3963D01*
X98653Y2981D01*
X98527Y1992D01*
X98451Y997D01*
X98426Y0D01*
X98451Y-997D01*
X98527Y-1991D01*
X98653Y-2981D01*
X98829Y-3962D01*
X99054Y-4934D01*
X99329Y-5893D01*
X99651Y-6836D01*
X100021Y-7763D01*
X100438Y-8669D01*
X100900Y-9553D01*
X101405Y-10412D01*
X101954Y-11245D01*
X102545Y-12049D01*
X103175Y-12822D01*
X103843Y-13562D01*
X104549Y-14267D01*
X105289Y-14936D01*
X106062Y-15566D01*
X106866Y-16156D01*
X107698Y-16705D01*
X108558Y-17211D01*
X109442Y-17673D01*
X110348Y-18089D01*
X111274Y-18459D01*
X112218Y-18782D01*
X113177Y-19056D01*
X114148Y-19282D01*
X115130Y-19458D01*
X116120Y-19584D01*
X117114Y-19659D01*
X118111Y-19685D01*
X119108Y-19659D01*
X120103Y-19584D01*
X121092Y-19458D01*
X122074Y-19282D01*
X123045Y-19056D01*
X124004Y-18782D01*
X124948Y-18459D01*
X125874Y-18089D01*
X126780Y-17673D01*
X127664Y-17211D01*
X128524Y-16705D01*
X129357Y-16156D01*
X130160Y-15566D01*
X130933Y-14936D01*
X131673Y-14267D01*
X132379Y-13562D01*
X133047Y-12822D01*
X133677Y-12049D01*
X134268Y-11245D01*
X134817Y-10412D01*
X135323Y-9553D01*
X135784Y-8669D01*
X136201Y-7762D01*
X136571Y-6836D01*
X136893Y-5892D01*
X137168Y-4934D01*
X137393Y-3962D01*
X137569Y-2980D01*
X137695Y-1991D01*
X137771Y-996D01*
X137796Y0D01*
X-132029Y-13919D02*
X-131301Y-14611D01*
X-130538Y-15265D01*
X-129743Y-15879D01*
X-128918Y-16452D01*
X-128065Y-16982D01*
X-127185Y-17468D01*
X-126282Y-17908D01*
X-125358Y-18302D01*
X-124415Y-18647D01*
X-123456Y-18945D01*
X-122482Y-19193D01*
X-121497Y-19391D01*
X-120504Y-19538D01*
X-119504Y-19635D01*
X-118500Y-19681D01*
X-117496Y-19675D01*
X-116493Y-19618D01*
X-115494Y-19510D01*
X-114502Y-19351D01*
X-113520Y-19142D01*
X-112549Y-18883D01*
X-111593Y-18575D01*
X-110654Y-18218D01*
X-109734Y-17814D01*
X-108836Y-17364D01*
X-107962Y-16868D01*
X-107115Y-16328D01*
X-106296Y-15746D01*
X-105508Y-15123D01*
X-104753Y-14460D01*
X-104033Y-13760D01*
X-103349Y-13024D01*
X-102704Y-12254D01*
X-102099Y-11452D01*
X-101536Y-10621D01*
X-101015Y-9761D01*
X-100540Y-8877D01*
X-100110Y-7969D01*
X-99726Y-7040D01*
X-99391Y-6093D01*
X-99105Y-5130D01*
X-98868Y-4154D01*
X-98681Y-3167D01*
X-98545Y-2172D01*
X-98459Y-1171D01*
X-98425Y-167D01*
X-98442Y837D01*
X-98510Y1840D01*
X-98630Y2837D01*
X-98800Y3827D01*
X-99020Y4807D01*
X-99290Y5775D01*
X-99610Y6727D01*
X-99977Y7662D01*
X-100391Y8577D01*
X-100852Y9470D01*
X-101357Y10338D01*
X-101907Y11179D01*
X-102498Y11991D01*
X-103130Y12772D01*
X-103801Y13520D01*
X-104509Y14232D01*
X-105253Y14907D01*
X-106030Y15544D01*
X-106839Y16140D01*
X-107677Y16694D01*
X-108542Y17204D01*
X-109432Y17670D01*
X-110345Y18089D01*
X-111278Y18462D01*
X-112229Y18787D01*
X-113195Y19062D01*
X-114173Y19288D01*
X-119537Y19634D02*
X-120535Y19535D01*
X-121526Y19387D01*
X-122508Y19188D01*
X-123479Y18939D01*
X-124435Y18641D01*
X-125376Y18295D01*
X-126298Y17902D01*
X-127198Y17462D01*
X-128075Y16977D01*
X-128926Y16447D01*
X-129749Y15876D01*
X-130542Y15263D01*
X-131302Y14610D01*
X-132029Y13920D01*
X-41732Y-47244D02*
X-39369D01*
X-41732Y-49606D02*
Y-47244D01*
X-42519Y-49606D02*
Y-46456D01*
X-39369D01*
X-41732Y-64566D02*
X-39369Y-64566D01*
X-41732Y-64566D02*
X-41732Y-62204D01*
X-24409D02*
X-24409Y-64566D01*
X-26771Y-64566D02*
X-24409Y-64566D01*
X-26771Y-47244D02*
X-24409Y-47244D01*
X-24409Y-49606D02*
X-24409Y-47244D01*
X18374Y3341D02*
X20323Y1392D01*
X16983Y-1948D02*
X20323Y1392D01*
X-16146Y2784D02*
X-2783Y16147D01*
X2785Y-16146D02*
X16147Y-2784D01*
X-44896Y-126743D02*
X-33204Y-115050D01*
X-126742Y-44897D02*
X-44896Y-126743D01*
X-126742Y-44897D02*
X-115050Y-33204D01*
X-32647Y-100017D02*
X-29306Y-103358D01*
X-103358Y-29307D02*
X-100017Y-32647D01*
X-99460Y-31534D02*
X-95006Y-27080D01*
X-45523Y80170D02*
Y93949D01*
X-95916Y80170D02*
Y93949D01*
Y47493D02*
Y61272D01*
X-45523Y47493D02*
Y61272D01*
X95918Y-61271D02*
Y-47492D01*
X45524Y-61271D02*
Y-47492D01*
Y-93948D02*
Y-80169D01*
X95918Y-93948D02*
Y-80169D01*
X82942Y24099D02*
X83845Y22809D01*
X82748Y23002D02*
X83845Y22809D01*
X82748Y23002D02*
X82942Y24099D01*
X-4145Y-47747D02*
X309Y-43293D01*
X-14724Y-37169D02*
X-10270Y-32714D01*
X-526Y-39674D02*
X1701Y-41901D01*
X309Y-43293D02*
X1701Y-41901D01*
X-109842Y77953D02*
X-109842Y76378D01*
X-110629Y77166D02*
X-109842Y76378D01*
X-110629Y77166D02*
X-109842Y77953D01*
X-109842Y85827D02*
Y87402D01*
X-110629Y86615D02*
X-109842Y85827D01*
X-110629Y86615D02*
X-109842Y87402D01*
X-152322Y18189D02*
X-146023D01*
X-152322Y-18189D02*
X-146023D01*
X30278Y71524D02*
X35020Y64751D01*
X30278Y71524D02*
X30923Y71975D01*
X36728Y76040D01*
D70*
X54518Y30830D02*
X61477Y37790D01*
X24730D02*
X42268Y20251D01*
X43805Y55462D02*
X61477Y37790D01*
M02*
