G04*
G04 #@! TF.GenerationSoftware,Altium Limited,CircuitStudio,1.5.2 (30)*
G04*
G04 Layer_Physical_Order=4*
G04 Layer_Color=26367*
%FSLAX25Y25*%
%MOIN*%
G70*
G01*
G75*
%ADD34C,0.03937*%
%ADD49C,0.01181*%
%ADD52C,0.03150*%
%ADD53C,0.06693*%
G04:AMPARAMS|DCode=54|XSize=66.93mil|YSize=66.93mil|CornerRadius=16.73mil|HoleSize=0mil|Usage=FLASHONLY|Rotation=0.000|XOffset=0mil|YOffset=0mil|HoleType=Round|Shape=RoundedRectangle|*
%AMROUNDEDRECTD54*
21,1,0.06693,0.03347,0,0,0.0*
21,1,0.03347,0.06693,0,0,0.0*
1,1,0.03346,0.01673,-0.01673*
1,1,0.03346,-0.01673,-0.01673*
1,1,0.03346,-0.01673,0.01673*
1,1,0.03346,0.01673,0.01673*
%
%ADD54ROUNDEDRECTD54*%
%ADD55C,0.11811*%
G04:AMPARAMS|DCode=56|XSize=47.24mil|YSize=47.24mil|CornerRadius=11.81mil|HoleSize=0mil|Usage=FLASHONLY|Rotation=215.500|XOffset=0mil|YOffset=0mil|HoleType=Round|Shape=RoundedRectangle|*
%AMROUNDEDRECTD56*
21,1,0.04724,0.02362,0,0,215.5*
21,1,0.02362,0.04724,0,0,215.5*
1,1,0.02362,-0.01647,0.00276*
1,1,0.02362,0.00276,0.01647*
1,1,0.02362,0.01647,-0.00276*
1,1,0.02362,-0.00276,-0.01647*
%
%ADD56ROUNDEDRECTD56*%
%ADD57C,0.04724*%
%ADD58O,0.09843X0.13780*%
G04:AMPARAMS|DCode=59|XSize=47.24mil|YSize=47.24mil|CornerRadius=11.81mil|HoleSize=0mil|Usage=FLASHONLY|Rotation=90.000|XOffset=0mil|YOffset=0mil|HoleType=Round|Shape=RoundedRectangle|*
%AMROUNDEDRECTD59*
21,1,0.04724,0.02362,0,0,90.0*
21,1,0.02362,0.04724,0,0,90.0*
1,1,0.02362,0.01181,0.01181*
1,1,0.02362,0.01181,-0.01181*
1,1,0.02362,-0.01181,-0.01181*
1,1,0.02362,-0.01181,0.01181*
%
%ADD59ROUNDEDRECTD59*%
%ADD60C,0.05906*%
G04:AMPARAMS|DCode=61|XSize=59.06mil|YSize=59.06mil|CornerRadius=14.76mil|HoleSize=0mil|Usage=FLASHONLY|Rotation=125.500|XOffset=0mil|YOffset=0mil|HoleType=Round|Shape=RoundedRectangle|*
%AMROUNDEDRECTD61*
21,1,0.05906,0.02953,0,0,125.5*
21,1,0.02953,0.05906,0,0,125.5*
1,1,0.02953,0.00345,0.02059*
1,1,0.02953,0.02059,-0.00345*
1,1,0.02953,-0.00345,-0.02059*
1,1,0.02953,-0.02059,0.00345*
%
%ADD61ROUNDEDRECTD61*%
%ADD62O,0.06693X0.03937*%
%ADD63C,0.03150*%
%ADD64R,0.12598X0.15748*%
%ADD65R,0.20079X0.15748*%
G36*
X-12753Y152108D02*
X-12571Y151791D01*
X-12614Y151575D01*
Y116271D01*
X-40850D01*
X-41110Y116470D01*
X-41781Y116748D01*
X-42500Y116843D01*
X-43219Y116748D01*
X-43890Y116470D01*
X-44466Y116028D01*
X-44907Y115453D01*
X-45185Y114782D01*
X-45280Y114063D01*
X-45185Y113344D01*
X-44907Y112673D01*
X-44708Y112413D01*
Y100540D01*
X-69278Y75971D01*
X-69756Y75254D01*
X-69924Y74409D01*
Y30709D01*
X-69756Y29864D01*
X-69278Y29147D01*
X-55751Y15621D01*
Y-5118D01*
X-55583Y-5963D01*
X-55104Y-6679D01*
X-49986Y-11797D01*
X-48476Y-13308D01*
X-52033Y-16865D01*
X-52294Y-17256D01*
X-52385Y-17717D01*
X-52385Y-17717D01*
Y-38583D01*
X-52385Y-38583D01*
X-52294Y-39044D01*
X-52033Y-39434D01*
X-48883Y-42584D01*
X-48883Y-42584D01*
X-48492Y-42845D01*
X-48031Y-42937D01*
X-48031Y-42937D01*
X-18361D01*
X-17955Y-43545D01*
X-17303Y-43980D01*
X-16535Y-44133D01*
X-16282Y-44083D01*
X-13803Y-46562D01*
Y-57480D01*
X-13803Y-57480D01*
X-13711Y-57941D01*
X-13450Y-58332D01*
X-3607Y-68174D01*
X-3607Y-68174D01*
X-3217Y-68435D01*
X-2756Y-68527D01*
X-2756Y-68527D01*
X5917D01*
X6061Y-68742D01*
X6430Y-68989D01*
X6278Y-69489D01*
X-11810D01*
X-12117Y-69550D01*
X-12377Y-69724D01*
X-12551Y-69984D01*
X-12613Y-70291D01*
Y-77525D01*
X-61873D01*
X-85588Y-53810D01*
Y-36348D01*
X-57494Y-8254D01*
X-57015Y-7538D01*
X-56847Y-6693D01*
Y13386D01*
X-57015Y14231D01*
X-57494Y14947D01*
X-71021Y28474D01*
Y75463D01*
X-50014Y96470D01*
X-49535Y97187D01*
X-49367Y98032D01*
Y117589D01*
X-47227Y119729D01*
X-44889D01*
X-44816Y119621D01*
X-44296Y119272D01*
X-43681Y119150D01*
X-41319D01*
X-40704Y119272D01*
X-40183Y119621D01*
X-39836Y120141D01*
X-39713Y120756D01*
Y123118D01*
X-39836Y123733D01*
X-40183Y124253D01*
X-40704Y124601D01*
X-41319Y124724D01*
X-43681D01*
X-44296Y124601D01*
X-44816Y124253D01*
X-44889Y124145D01*
X-48142D01*
X-48987Y123977D01*
X-49703Y123498D01*
X-53136Y120065D01*
X-53614Y119349D01*
X-53783Y118504D01*
Y98946D01*
X-74790Y77939D01*
X-75268Y77223D01*
X-75436Y76378D01*
Y27559D01*
X-75268Y26714D01*
X-74790Y25998D01*
X-61263Y12471D01*
Y-5778D01*
X-89356Y-33872D01*
X-89835Y-34588D01*
X-90003Y-35433D01*
Y-54724D01*
X-89835Y-55569D01*
X-89356Y-56286D01*
X-64349Y-81293D01*
X-63632Y-81772D01*
X-62787Y-81940D01*
X-12613D01*
Y-151922D01*
X-12979Y-152262D01*
X-14982Y-152114D01*
X-22428Y-151196D01*
X-29820Y-149913D01*
X-37140Y-148270D01*
X-44370Y-146269D01*
X-51494Y-143915D01*
X-58493Y-141215D01*
X-65352Y-138175D01*
X-72053Y-134802D01*
X-78581Y-131104D01*
X-84919Y-127091D01*
X-91053Y-122771D01*
X-96967Y-118155D01*
X-102648Y-113255D01*
X-108081Y-108081D01*
X-113255Y-102648D01*
X-118155Y-96967D01*
X-122771Y-91053D01*
X-127091Y-84919D01*
X-131104Y-78581D01*
X-134802Y-72053D01*
X-138175Y-65352D01*
X-141215Y-58493D01*
X-143915Y-51494D01*
X-146269Y-44370D01*
X-148270Y-37140D01*
X-149711Y-30721D01*
X-149399Y-30330D01*
X-138149D01*
X-138149Y-30330D01*
X-137842Y-30269D01*
X-137581Y-30095D01*
X-137228Y-29742D01*
X-137054Y-29481D01*
X-136993Y-29174D01*
X-136993Y-23780D01*
X-136557Y-23693D01*
X-135840Y-23215D01*
X-135362Y-22498D01*
X-135350Y-22441D01*
X-137402D01*
Y-20866D01*
X-135350D01*
X-135362Y-20809D01*
X-135840Y-20092D01*
X-136557Y-19614D01*
X-136993Y-19527D01*
Y-18749D01*
X-136998Y-18723D01*
X-136994Y-18697D01*
X-137028Y-18570D01*
X-137054Y-18442D01*
X-137068Y-18420D01*
X-137075Y-18394D01*
X-137155Y-18290D01*
X-137228Y-18181D01*
X-137250Y-18167D01*
X-137266Y-18146D01*
X-137379Y-18080D01*
X-137488Y-18008D01*
X-137514Y-18002D01*
X-137537Y-17989D01*
X-138037Y-17819D01*
X-137970Y-17325D01*
X-137907Y-17008D01*
X-137970Y-16691D01*
X-138037Y-16196D01*
X-137537Y-16027D01*
X-137514Y-16014D01*
X-137488Y-16008D01*
X-137379Y-15935D01*
X-137266Y-15870D01*
X-137250Y-15849D01*
X-137228Y-15834D01*
X-137155Y-15725D01*
X-137075Y-15622D01*
X-137068Y-15596D01*
X-137054Y-15574D01*
X-137028Y-15445D01*
X-136994Y-15319D01*
X-136998Y-15293D01*
X-136993Y-15267D01*
Y-12407D01*
X-136493Y-12255D01*
X-136404Y-12388D01*
X-135687Y-12867D01*
X-135630Y-12878D01*
Y-10827D01*
Y-8776D01*
X-135687Y-8787D01*
X-136404Y-9266D01*
X-136493Y-9399D01*
X-136993Y-9247D01*
X-136993Y9247D01*
X-136493Y9399D01*
X-136404Y9266D01*
X-135687Y8787D01*
X-135630Y8776D01*
Y10827D01*
Y12878D01*
X-135687Y12867D01*
X-136404Y12388D01*
X-136493Y12255D01*
X-136993Y12407D01*
Y15267D01*
X-136998Y15293D01*
X-136994Y15319D01*
X-137028Y15446D01*
X-137054Y15574D01*
X-137068Y15596D01*
X-137075Y15621D01*
X-137155Y15725D01*
X-137228Y15834D01*
X-137250Y15849D01*
X-137266Y15870D01*
X-137379Y15935D01*
X-137488Y16008D01*
X-137514Y16013D01*
X-137537Y16027D01*
X-138037Y16196D01*
X-137970Y16691D01*
X-137907Y17008D01*
X-137970Y17325D01*
X-138037Y17819D01*
X-137537Y17989D01*
X-137514Y18002D01*
X-137488Y18008D01*
X-137379Y18080D01*
X-137266Y18146D01*
X-137250Y18167D01*
X-137228Y18182D01*
X-137155Y18290D01*
X-137075Y18394D01*
X-137068Y18420D01*
X-137054Y18442D01*
X-137028Y18570D01*
X-136994Y18697D01*
X-136998Y18723D01*
X-136993Y18749D01*
Y21654D01*
X-137054Y21961D01*
X-137228Y22221D01*
X-137488Y22395D01*
X-137795Y22456D01*
X-151304D01*
X-151496Y22918D01*
X-151031Y23383D01*
X-150835Y23676D01*
X-150766Y24022D01*
X-150835Y24368D01*
X-150854Y24397D01*
X-149913Y29820D01*
X-148270Y37140D01*
X-146269Y44370D01*
X-143915Y51494D01*
X-143398Y52834D01*
X-142937Y52881D01*
X-142877Y52864D01*
X-142944Y52403D01*
X-142952Y52362D01*
X-142799Y51594D01*
X-142364Y50943D01*
X-142169Y50813D01*
Y50211D01*
X-142506Y49986D01*
X-142985Y49270D01*
X-143153Y48425D01*
X-142985Y47580D01*
X-142506Y46864D01*
X-127152Y31510D01*
X-126435Y31031D01*
X-125591Y30863D01*
X-117745D01*
X-116030Y29147D01*
X-115313Y28669D01*
X-115186Y28644D01*
X-115081Y28113D01*
X-115341Y27939D01*
X-115819Y27223D01*
X-115831Y27165D01*
X-111728D01*
X-111740Y27223D01*
X-112218Y27939D01*
X-112311Y28001D01*
X-112159Y28501D01*
X-101673D01*
X-100828Y28669D01*
X-100112Y29147D01*
X-98396Y30863D01*
X-97123D01*
X-96971Y30363D01*
X-97163Y30234D01*
X-97642Y29518D01*
X-97654Y29461D01*
X-93551D01*
X-93563Y29518D01*
X-94041Y30234D01*
X-94234Y30363D01*
X-94082Y30863D01*
X-91466D01*
X-68490Y7888D01*
X-68490Y7888D01*
X-65734Y5132D01*
X-65018Y4653D01*
X-64173Y4485D01*
X-63328Y4653D01*
X-62612Y5132D01*
X-62134Y5848D01*
X-61966Y6693D01*
X-62134Y7538D01*
X-62612Y8254D01*
X-65368Y11010D01*
X-65368Y11010D01*
X-88990Y34632D01*
X-89706Y35111D01*
X-90551Y35279D01*
X-99311D01*
X-100156Y35111D01*
X-100326Y34997D01*
X-100776Y35298D01*
X-100749Y35433D01*
X-100902Y36201D01*
X-101337Y36852D01*
X-101988Y37287D01*
X-102733Y37435D01*
Y77060D01*
X-101863Y77930D01*
X-100382D01*
X-100238Y77715D01*
X-99587Y77280D01*
X-98819Y77127D01*
X-98051Y77280D01*
X-97400Y77715D01*
X-96965Y78366D01*
X-96812Y79134D01*
X-96965Y79902D01*
X-97400Y80553D01*
X-98051Y80988D01*
X-98819Y81141D01*
X-99587Y80988D01*
X-100238Y80553D01*
X-100382Y80338D01*
X-102362D01*
X-102362Y80338D01*
X-102823Y80246D01*
X-103214Y79985D01*
X-103214Y79985D01*
X-104788Y78411D01*
X-105050Y78020D01*
X-105141Y77559D01*
X-105141Y77559D01*
Y36614D01*
X-105141Y36614D01*
X-105050Y36153D01*
X-104788Y35763D01*
X-104712Y35687D01*
X-104763Y35433D01*
X-104610Y34665D01*
X-104175Y34014D01*
X-103524Y33579D01*
X-103260Y33526D01*
X-103190Y33467D01*
X-103028Y32970D01*
X-103076Y32916D01*
X-113554D01*
X-115270Y34632D01*
X-115986Y35111D01*
X-116831Y35279D01*
X-124676D01*
X-139384Y49986D01*
X-139721Y50211D01*
Y50813D01*
X-139526Y50943D01*
X-139091Y51594D01*
X-138938Y52362D01*
X-139091Y53130D01*
X-139526Y53781D01*
X-140177Y54216D01*
X-140945Y54369D01*
X-141713Y54216D01*
X-142364Y53781D01*
X-142418Y53702D01*
X-142685Y53314D01*
X-142750Y53348D01*
X-143072Y53680D01*
X-141215Y58493D01*
X-138175Y65352D01*
X-134802Y72053D01*
X-131104Y78581D01*
X-127091Y84919D01*
X-122771Y91053D01*
X-118155Y96967D01*
X-113255Y102648D01*
X-108081Y108081D01*
X-102648Y113255D01*
X-96967Y118155D01*
X-91053Y122771D01*
X-84919Y127091D01*
X-78581Y131104D01*
X-72053Y134802D01*
X-65352Y138175D01*
X-58493Y141215D01*
X-51494Y143915D01*
X-44370Y146269D01*
X-37140Y148270D01*
X-29820Y149913D01*
X-22428Y151196D01*
X-14982Y152114D01*
X-12896Y152268D01*
X-12753Y152108D01*
D02*
G37*
G36*
X11811Y69291D02*
X-11811D01*
Y151575D01*
X11811D01*
Y69291D01*
D02*
G37*
G36*
X-137795Y18749D02*
X-138295Y18579D01*
X-138490Y18833D01*
X-139024Y19243D01*
X-139647Y19501D01*
X-140315Y19589D01*
X-140905D01*
Y17008D01*
Y14427D01*
X-140315D01*
X-139647Y14515D01*
X-139024Y14773D01*
X-138490Y15183D01*
X-138295Y15436D01*
X-137795Y15267D01*
X-137795Y-15267D01*
X-138295Y-15436D01*
X-138490Y-15183D01*
X-139024Y-14773D01*
X-139647Y-14515D01*
X-140315Y-14427D01*
X-140905D01*
Y-17008D01*
Y-19589D01*
X-140315D01*
X-139647Y-19501D01*
X-139024Y-19243D01*
X-138490Y-18833D01*
X-138295Y-18579D01*
X-137795Y-18749D01*
Y-19725D01*
X-138170Y-19799D01*
X-138821Y-20234D01*
X-139256Y-20886D01*
X-139409Y-21654D01*
X-139256Y-22422D01*
X-138821Y-23073D01*
X-138170Y-23508D01*
X-137795Y-23582D01*
X-137795Y-29174D01*
X-138149Y-29528D01*
X-149964D01*
X-150854Y-24397D01*
X-150835Y-24368D01*
X-150766Y-24022D01*
X-150835Y-23676D01*
X-151031Y-23383D01*
X-153399Y-21015D01*
X-153692Y-20819D01*
X-154038Y-20750D01*
X-160514D01*
Y-18798D01*
X-160014Y-18628D01*
X-159857Y-18833D01*
X-159322Y-19243D01*
X-158700Y-19501D01*
X-158031Y-19589D01*
X-157441D01*
Y-17008D01*
Y-14427D01*
X-158031D01*
X-158700Y-14515D01*
X-159322Y-14773D01*
X-159857Y-15183D01*
X-160014Y-15388D01*
X-160514Y-15218D01*
Y15218D01*
X-160014Y15388D01*
X-159857Y15183D01*
X-159322Y14773D01*
X-158700Y14515D01*
X-158031Y14427D01*
X-157441D01*
Y17008D01*
Y19589D01*
X-158031D01*
X-158700Y19501D01*
X-159322Y19243D01*
X-159857Y18833D01*
X-160014Y18628D01*
X-160514Y18797D01*
Y20750D01*
X-154038D01*
X-153692Y20819D01*
X-153399Y21015D01*
X-152761Y21654D01*
X-137795D01*
Y18749D01*
D02*
G37*
G36*
X14982Y152114D02*
X22428Y151196D01*
X29820Y149913D01*
X37140Y148270D01*
X44370Y146269D01*
X51494Y143915D01*
X58493Y141215D01*
X65352Y138175D01*
X72053Y134802D01*
X78581Y131104D01*
X84919Y127091D01*
X91053Y122771D01*
X96967Y118155D01*
X102648Y113255D01*
X108081Y108081D01*
X113255Y102648D01*
X118155Y96967D01*
X122771Y91053D01*
X127091Y84919D01*
X131104Y78581D01*
X134802Y72053D01*
X138175Y65352D01*
X141215Y58493D01*
X143915Y51494D01*
X146269Y44370D01*
X148270Y37140D01*
X149913Y29820D01*
X151196Y22428D01*
X152114Y14982D01*
X152666Y7500D01*
X152850Y0D01*
X152666Y-7500D01*
X152114Y-14982D01*
X151196Y-22428D01*
X149913Y-29820D01*
X148270Y-37140D01*
X146269Y-44370D01*
X143915Y-51494D01*
X141215Y-58493D01*
X138175Y-65352D01*
X134802Y-72053D01*
X131104Y-78581D01*
X127091Y-84919D01*
X122771Y-91053D01*
X118155Y-96967D01*
X113255Y-102648D01*
X108081Y-108081D01*
X102648Y-113255D01*
X96967Y-118155D01*
X91053Y-122771D01*
X84919Y-127091D01*
X78581Y-131104D01*
X72053Y-134802D01*
X65352Y-138175D01*
X58493Y-141215D01*
X51494Y-143915D01*
X44370Y-146269D01*
X37140Y-148270D01*
X29820Y-149913D01*
X22428Y-151196D01*
X14982Y-152114D01*
X12981Y-152262D01*
X12615Y-151922D01*
Y-70291D01*
X12554Y-69984D01*
X12380Y-69724D01*
X12120Y-69550D01*
X11812Y-69489D01*
X8682D01*
X8531Y-68989D01*
X8900Y-68742D01*
X9335Y-68091D01*
X9487Y-67323D01*
X9335Y-66555D01*
X8900Y-65904D01*
X8248Y-65469D01*
X7480Y-65316D01*
X6712Y-65469D01*
X6061Y-65904D01*
X5917Y-66119D01*
X-2257D01*
X-11394Y-56981D01*
Y-46063D01*
X-11394Y-46063D01*
X-11486Y-45602D01*
X-11747Y-45211D01*
X-14579Y-42380D01*
X-14528Y-42126D01*
X-14681Y-41358D01*
X-15116Y-40707D01*
X-15767Y-40272D01*
X-16535Y-40119D01*
X-17303Y-40272D01*
X-17687Y-40528D01*
X-47533D01*
X-49977Y-38084D01*
Y-18215D01*
X-46760Y-14998D01*
X-46121Y-15426D01*
X-45276Y-15594D01*
X-44431Y-15426D01*
X-43714Y-14947D01*
X-43236Y-14231D01*
X-43068Y-13386D01*
X-43236Y-12541D01*
X-43714Y-11825D01*
X-46864Y-8675D01*
X-51336Y-4204D01*
Y16535D01*
X-51504Y17380D01*
X-51982Y18097D01*
X-52312Y18426D01*
X-44574Y26164D01*
X-44333Y26140D01*
X-43681Y25705D01*
X-42913Y25552D01*
X-42145Y25705D01*
X-41494Y26140D01*
X-41059Y26791D01*
X-40906Y27559D01*
X-41059Y28327D01*
X-41494Y28978D01*
X-42145Y29413D01*
X-42913Y29566D01*
X-43681Y29413D01*
X-44333Y28978D01*
X-44476Y28763D01*
X-44882D01*
X-45343Y28672D01*
X-45733Y28411D01*
X-54015Y20129D01*
X-65509Y31623D01*
Y73495D01*
X-40939Y98065D01*
X-40460Y98781D01*
X-40292Y99626D01*
Y111855D01*
X-12614D01*
Y69291D01*
X-12553Y68984D01*
X-12379Y68724D01*
X-12118Y68550D01*
X-11811Y68489D01*
X11811D01*
X12075Y68541D01*
X12145Y68533D01*
X12575Y68254D01*
Y63491D01*
X-34710Y16206D01*
X-34971Y15815D01*
X-35063Y15354D01*
X-35063Y15354D01*
Y2756D01*
X-35063Y2756D01*
X-34971Y2295D01*
X-34710Y1904D01*
X-28017Y-4789D01*
X-27626Y-5050D01*
X-27165Y-5141D01*
X-27165Y-5141D01*
X-26366D01*
X-26222Y-5356D01*
X-25571Y-5791D01*
X-24803Y-5944D01*
X-24035Y-5791D01*
X-23384Y-5356D01*
X-22949Y-4705D01*
X-22796Y-3937D01*
X-22949Y-3169D01*
X-23384Y-2518D01*
X-24035Y-2083D01*
X-24803Y-1930D01*
X-25571Y-2083D01*
X-26222Y-2518D01*
X-26243Y-2548D01*
X-26809Y-2591D01*
X-32654Y3255D01*
Y14855D01*
X-18218Y29292D01*
X-17675Y29127D01*
X-17602Y28760D01*
X-17167Y28108D01*
X-16516Y27673D01*
X-15748Y27520D01*
X-14980Y27673D01*
X-14329Y28108D01*
X-13894Y28760D01*
X-13741Y29528D01*
X-13894Y30296D01*
X-14329Y30947D01*
X-14980Y31382D01*
X-15348Y31455D01*
X-15512Y31997D01*
X14631Y62141D01*
X14631Y62141D01*
X14892Y62531D01*
X14984Y62992D01*
Y77443D01*
X15484Y77595D01*
X15762Y77179D01*
X16478Y76701D01*
X16535Y76689D01*
Y78740D01*
Y80791D01*
X16478Y80780D01*
X15762Y80301D01*
X15484Y79885D01*
X14984Y80037D01*
Y89265D01*
X17069Y91351D01*
X17323Y91300D01*
X18091Y91453D01*
X18742Y91888D01*
X19177Y92539D01*
X19330Y93307D01*
X19177Y94075D01*
X18742Y94726D01*
X18091Y95161D01*
X17323Y95314D01*
X16555Y95161D01*
X15904Y94726D01*
X15469Y94075D01*
X15316Y93307D01*
X15366Y93054D01*
X13114Y90801D01*
X12614Y91008D01*
Y151575D01*
X12571Y151791D01*
X12753Y152108D01*
X12896Y152268D01*
X14982Y152114D01*
D02*
G37*
G36*
X11812Y-152348D02*
X8740Y-152575D01*
X-8740Y-152575D01*
X-11810Y-152348D01*
Y-70291D01*
X11812D01*
Y-152348D01*
D02*
G37*
%LPC*%
G36*
X-16134Y-36220D02*
X-17398D01*
X-17387Y-36278D01*
X-16908Y-36994D01*
X-16192Y-37473D01*
X-16134Y-37484D01*
Y-36220D01*
D02*
G37*
G36*
X-13296D02*
X-14560D01*
Y-37484D01*
X-14502Y-37473D01*
X-13786Y-36994D01*
X-13307Y-36278D01*
X-13296Y-36220D01*
D02*
G37*
G36*
X-130433Y-35109D02*
X-130673Y-35141D01*
X-131631Y-35537D01*
X-132454Y-36169D01*
X-133085Y-36991D01*
X-133481Y-37949D01*
X-133513Y-38189D01*
X-130433D01*
Y-35109D01*
D02*
G37*
G36*
X-128858D02*
Y-38189D01*
X-125778D01*
X-125810Y-37949D01*
X-126207Y-36991D01*
X-126838Y-36169D01*
X-127660Y-35537D01*
X-128618Y-35141D01*
X-128858Y-35109D01*
D02*
G37*
G36*
X-31496Y-13741D02*
X-32264Y-13894D01*
X-32915Y-14329D01*
X-33350Y-14980D01*
X-33503Y-15748D01*
X-33350Y-16516D01*
X-32915Y-17167D01*
X-32700Y-17311D01*
Y-35433D01*
X-32700Y-35433D01*
X-32609Y-35894D01*
X-32348Y-36285D01*
X-31484Y-37148D01*
X-31535Y-37402D01*
X-31382Y-38170D01*
X-30947Y-38821D01*
X-30296Y-39256D01*
X-29528Y-39409D01*
X-28760Y-39256D01*
X-28108Y-38821D01*
X-27673Y-38170D01*
X-27520Y-37402D01*
X-27673Y-36634D01*
X-28108Y-35982D01*
X-28760Y-35547D01*
X-29528Y-35394D01*
X-29781Y-35445D01*
X-30292Y-34934D01*
Y-17311D01*
X-30077Y-17167D01*
X-29642Y-16516D01*
X-29489Y-15748D01*
X-29642Y-14980D01*
X-30077Y-14329D01*
X-30728Y-13894D01*
X-31496Y-13741D01*
D02*
G37*
G36*
X-11191Y-22009D02*
X-11959Y-22162D01*
X-12610Y-22596D01*
X-13045Y-23248D01*
X-13198Y-24016D01*
X-13045Y-24784D01*
X-12610Y-25435D01*
X-11959Y-25870D01*
X-11191Y-26023D01*
X-10423Y-25870D01*
X-9772Y-25435D01*
X-9336Y-24784D01*
X-9184Y-24016D01*
X-9336Y-23248D01*
X-9772Y-22596D01*
X-10423Y-22162D01*
X-11191Y-22009D01*
D02*
G37*
G36*
X-14560Y-33382D02*
Y-34646D01*
X-13296D01*
X-13307Y-34588D01*
X-13786Y-33872D01*
X-14502Y-33393D01*
X-14560Y-33382D01*
D02*
G37*
G36*
X24409Y-23061D02*
X23075D01*
X22888Y-23321D01*
X22757Y-23420D01*
X22441Y-23357D01*
X21673Y-23510D01*
X21022Y-23945D01*
X20587Y-24596D01*
X20434Y-25364D01*
X20587Y-26132D01*
X21022Y-26783D01*
X21673Y-27218D01*
X22441Y-27371D01*
X23209Y-27218D01*
X23860Y-26783D01*
X24295Y-26132D01*
X24448Y-25364D01*
X24340Y-24821D01*
X24409Y-24739D01*
Y-23061D01*
D02*
G37*
G36*
X27248D02*
X25984D01*
Y-24325D01*
X26042Y-24314D01*
X26758Y-23835D01*
X27237Y-23119D01*
X27248Y-23061D01*
D02*
G37*
G36*
X-41732Y-25552D02*
X-42500Y-25705D01*
X-43152Y-26140D01*
X-43587Y-26791D01*
X-43739Y-27559D01*
X-43587Y-28327D01*
X-43152Y-28978D01*
X-42937Y-29122D01*
Y-33870D01*
X-43152Y-34014D01*
X-43587Y-34665D01*
X-43739Y-35433D01*
X-43587Y-36201D01*
X-43152Y-36852D01*
X-42500Y-37287D01*
X-41732Y-37440D01*
X-40964Y-37287D01*
X-40313Y-36852D01*
X-39878Y-36201D01*
X-39725Y-35433D01*
X-39878Y-34665D01*
X-40313Y-34014D01*
X-40528Y-33870D01*
Y-29122D01*
X-40313Y-28978D01*
X-39878Y-28327D01*
X-39725Y-27559D01*
X-39878Y-26791D01*
X-40313Y-26140D01*
X-40964Y-25705D01*
X-41732Y-25552D01*
D02*
G37*
G36*
X-46457D02*
X-47225Y-25705D01*
X-47876Y-26140D01*
X-48311Y-26791D01*
X-48464Y-27559D01*
X-48311Y-28327D01*
X-47876Y-28978D01*
X-47661Y-29122D01*
Y-33607D01*
X-48270Y-34014D01*
X-48705Y-34665D01*
X-48858Y-35433D01*
X-48705Y-36201D01*
X-48270Y-36852D01*
X-47618Y-37287D01*
X-46850Y-37440D01*
X-46082Y-37287D01*
X-45431Y-36852D01*
X-44996Y-36201D01*
X-44843Y-35433D01*
X-44996Y-34665D01*
X-45252Y-34281D01*
Y-29122D01*
X-45037Y-28978D01*
X-44602Y-28327D01*
X-44450Y-27559D01*
X-44602Y-26791D01*
X-45037Y-26140D01*
X-45689Y-25705D01*
X-46457Y-25552D01*
D02*
G37*
G36*
X-16134Y-33382D02*
X-16192Y-33393D01*
X-16908Y-33872D01*
X-17387Y-34588D01*
X-17398Y-34646D01*
X-16134D01*
Y-33382D01*
D02*
G37*
G36*
X-36220Y-25552D02*
X-36988Y-25705D01*
X-37640Y-26140D01*
X-38075Y-26791D01*
X-38227Y-27559D01*
X-38075Y-28327D01*
X-37640Y-28978D01*
X-37425Y-29122D01*
Y-33870D01*
X-37640Y-34014D01*
X-38075Y-34665D01*
X-38227Y-35433D01*
X-38075Y-36201D01*
X-37640Y-36852D01*
X-36988Y-37287D01*
X-36220Y-37440D01*
X-35452Y-37287D01*
X-34801Y-36852D01*
X-34366Y-36201D01*
X-34213Y-35433D01*
X-34366Y-34665D01*
X-34801Y-34014D01*
X-35016Y-33870D01*
Y-29122D01*
X-34801Y-28978D01*
X-34366Y-28327D01*
X-34213Y-27559D01*
X-34366Y-26791D01*
X-34801Y-26140D01*
X-35452Y-25705D01*
X-36220Y-25552D01*
D02*
G37*
G36*
X71508Y-37326D02*
Y-40405D01*
X74588D01*
X74556Y-40165D01*
X74159Y-39207D01*
X73528Y-38385D01*
X72706Y-37754D01*
X71748Y-37357D01*
X71508Y-37326D01*
D02*
G37*
G36*
X-44094Y-47555D02*
Y-48819D01*
X-42831D01*
X-42842Y-48761D01*
X-43321Y-48045D01*
X-44037Y-47567D01*
X-44094Y-47555D01*
D02*
G37*
G36*
X-21654D02*
X-21711Y-47567D01*
X-22427Y-48045D01*
X-22906Y-48761D01*
X-22917Y-48819D01*
X-21654D01*
Y-47555D01*
D02*
G37*
G36*
X-20079D02*
Y-48819D01*
X-18815D01*
X-18826Y-48761D01*
X-19305Y-48045D01*
X-20021Y-47567D01*
X-20079Y-47555D01*
D02*
G37*
G36*
X-45669D02*
X-45727Y-47567D01*
X-46443Y-48045D01*
X-46922Y-48761D01*
X-46933Y-48819D01*
X-45669D01*
Y-47555D01*
D02*
G37*
G36*
X-17717Y-50355D02*
X-18322Y-50476D01*
X-18429Y-50394D01*
X-20079D01*
Y-51670D01*
X-19835Y-51825D01*
X-19652Y-52000D01*
X-19724Y-52362D01*
X-19571Y-53130D01*
X-19136Y-53781D01*
X-18485Y-54216D01*
X-17717Y-54369D01*
X-16949Y-54216D01*
X-16297Y-53781D01*
X-15862Y-53130D01*
X-15710Y-52362D01*
X-15862Y-51594D01*
X-16297Y-50943D01*
X-16949Y-50508D01*
X-17717Y-50355D01*
D02*
G37*
G36*
X32283Y-49130D02*
X32226Y-49141D01*
X31510Y-49620D01*
X31031Y-50336D01*
X31020Y-50394D01*
X32283D01*
Y-49130D01*
D02*
G37*
G36*
X33858D02*
Y-50394D01*
X35122D01*
X35111Y-50336D01*
X34632Y-49620D01*
X33916Y-49141D01*
X33858Y-49130D01*
D02*
G37*
G36*
X69933Y-41980D02*
X66853D01*
X66885Y-42221D01*
X67282Y-43178D01*
X67913Y-44001D01*
X68735Y-44632D01*
X69693Y-45029D01*
X69933Y-45060D01*
Y-41980D01*
D02*
G37*
G36*
X-130433Y-39764D02*
X-133513D01*
X-133481Y-40004D01*
X-133085Y-40962D01*
X-132454Y-41784D01*
X-131631Y-42415D01*
X-130673Y-42812D01*
X-130433Y-42844D01*
Y-39764D01*
D02*
G37*
G36*
X-125778D02*
X-128858D01*
Y-42844D01*
X-128618Y-42812D01*
X-127660Y-42415D01*
X-126838Y-41784D01*
X-126207Y-40962D01*
X-125810Y-40004D01*
X-125778Y-39764D01*
D02*
G37*
G36*
X69933Y-37326D02*
X69693Y-37357D01*
X68735Y-37754D01*
X67913Y-38385D01*
X67282Y-39207D01*
X66885Y-40165D01*
X66853Y-40405D01*
X69933D01*
Y-37326D01*
D02*
G37*
G36*
X4331Y-39331D02*
X3563Y-39484D01*
X2912Y-39919D01*
X2476Y-40571D01*
X2324Y-41339D01*
X2476Y-42107D01*
X2912Y-42758D01*
X3563Y-43193D01*
X4331Y-43346D01*
X5099Y-43193D01*
X5750Y-42758D01*
X6185Y-42107D01*
X6338Y-41339D01*
X6185Y-40571D01*
X5750Y-39919D01*
X5099Y-39484D01*
X4331Y-39331D01*
D02*
G37*
G36*
X74588Y-41980D02*
X71508D01*
Y-45060D01*
X71748Y-45029D01*
X72706Y-44632D01*
X73528Y-44001D01*
X74159Y-43178D01*
X74556Y-42221D01*
X74588Y-41980D01*
D02*
G37*
G36*
X60878Y-37420D02*
X59902Y-37549D01*
X58992Y-37926D01*
X58210Y-38525D01*
X57611Y-39307D01*
X57234Y-40216D01*
X57105Y-41193D01*
X57234Y-42169D01*
X57611Y-43079D01*
X58210Y-43860D01*
X58992Y-44460D01*
X59902Y-44837D01*
X60878Y-44965D01*
X61854Y-44837D01*
X62764Y-44460D01*
X63546Y-43860D01*
X64145Y-43079D01*
X64522Y-42169D01*
X64650Y-41193D01*
X64522Y-40216D01*
X64145Y-39307D01*
X63546Y-38525D01*
X62764Y-37926D01*
X61854Y-37549D01*
X60878Y-37420D01*
D02*
G37*
G36*
X80563D02*
X79587Y-37549D01*
X78677Y-37926D01*
X77895Y-38525D01*
X77296Y-39307D01*
X76919Y-40216D01*
X76791Y-41193D01*
X76919Y-42169D01*
X77296Y-43079D01*
X77895Y-43860D01*
X78677Y-44460D01*
X79587Y-44837D01*
X80563Y-44965D01*
X81539Y-44837D01*
X82449Y-44460D01*
X83231Y-43860D01*
X83830Y-43079D01*
X84207Y-42169D01*
X84335Y-41193D01*
X84207Y-40216D01*
X83830Y-39307D01*
X83231Y-38525D01*
X82449Y-37926D01*
X81539Y-37549D01*
X80563Y-37420D01*
D02*
G37*
G36*
X29134Y3188D02*
X28366Y3035D01*
X27715Y2600D01*
X27280Y1949D01*
X27127Y1181D01*
X27280Y413D01*
X27715Y-238D01*
X28366Y-673D01*
X29134Y-826D01*
X29902Y-673D01*
X30553Y-238D01*
X30988Y413D01*
X31141Y1181D01*
X30988Y1949D01*
X30553Y2600D01*
X29902Y3035D01*
X29134Y3188D01*
D02*
G37*
G36*
X-29134Y7913D02*
X-29902Y7760D01*
X-30553Y7325D01*
X-30988Y6674D01*
X-31141Y5906D01*
X-30988Y5137D01*
X-30553Y4486D01*
X-29902Y4051D01*
X-29134Y3898D01*
X-28366Y4051D01*
X-27715Y4486D01*
X-27280Y5137D01*
X-27249Y5292D01*
X-24711D01*
X-10694Y-8726D01*
X-10694Y-8726D01*
X-10303Y-8987D01*
X-9843Y-9078D01*
X6041D01*
X6269Y-9356D01*
X6065Y-9850D01*
X5531Y-9957D01*
X4880Y-10392D01*
X4445Y-11043D01*
X4292Y-11811D01*
X4445Y-12579D01*
X4880Y-13230D01*
X5531Y-13665D01*
X6299Y-13818D01*
X6553Y-13768D01*
X7851Y-15066D01*
Y-19050D01*
X7797Y-19071D01*
X7351Y-19133D01*
X7151Y-18834D01*
X7151Y-18834D01*
X-1117Y-10566D01*
X-1508Y-10305D01*
X-1969Y-10213D01*
X-1969Y-10213D01*
X-12217D01*
X-12360Y-9998D01*
X-13012Y-9563D01*
X-13780Y-9410D01*
X-14548Y-9563D01*
X-15199Y-9998D01*
X-15634Y-10649D01*
X-15787Y-11417D01*
X-15710Y-11801D01*
X-16171Y-12047D01*
X-18087Y-10131D01*
Y-6287D01*
X-17872Y-6144D01*
X-17437Y-5492D01*
X-17284Y-4724D01*
X-17437Y-3956D01*
X-17872Y-3305D01*
X-18523Y-2870D01*
X-19291Y-2717D01*
X-20059Y-2870D01*
X-20711Y-3305D01*
X-21146Y-3956D01*
X-21298Y-4724D01*
X-21146Y-5492D01*
X-20711Y-6144D01*
X-20496Y-6287D01*
Y-10630D01*
X-20496Y-10630D01*
X-20404Y-11091D01*
X-20143Y-11481D01*
X-3799Y-27826D01*
X-3874Y-28088D01*
X-4009Y-28322D01*
X-4705Y-28461D01*
X-5356Y-28896D01*
X-5500Y-29111D01*
X-16824D01*
X-22847Y-23088D01*
X-22796Y-22835D01*
X-22949Y-22067D01*
X-23384Y-21415D01*
X-24035Y-20980D01*
X-24803Y-20828D01*
X-25571Y-20980D01*
X-26222Y-21415D01*
X-26657Y-22067D01*
X-26810Y-22835D01*
X-26657Y-23603D01*
X-26222Y-24254D01*
X-25571Y-24689D01*
X-24803Y-24842D01*
X-24550Y-24791D01*
X-18174Y-31166D01*
X-18174Y-31166D01*
X-17784Y-31427D01*
X-17323Y-31519D01*
X-17323Y-31519D01*
X-5500D01*
X-5356Y-31734D01*
X-4705Y-32169D01*
X-3937Y-32322D01*
X-3169Y-32169D01*
X-2518Y-31734D01*
X-2083Y-31083D01*
X-1944Y-30387D01*
X-1710Y-30252D01*
X-1448Y-30177D01*
X104Y-31729D01*
X-280Y-32303D01*
X-432Y-33071D01*
X-280Y-33839D01*
X156Y-34490D01*
X807Y-34925D01*
X1575Y-35078D01*
X2343Y-34925D01*
X2994Y-34490D01*
X3429Y-33839D01*
X3582Y-33071D01*
X3429Y-32303D01*
X2994Y-31652D01*
X2779Y-31508D01*
Y-31496D01*
X2779Y-31496D01*
X2687Y-31035D01*
X2426Y-30645D01*
X2426Y-30645D01*
X-14409Y-13809D01*
X-14163Y-13348D01*
X-13780Y-13424D01*
X-13012Y-13272D01*
X-12360Y-12836D01*
X-12217Y-12622D01*
X-2467D01*
X5095Y-20184D01*
Y-37008D01*
X5095Y-37008D01*
X5187Y-37469D01*
X5448Y-37859D01*
X13756Y-46168D01*
Y-81496D01*
X13756Y-81496D01*
X13848Y-81957D01*
X14109Y-82348D01*
X16471Y-84710D01*
X16471Y-84710D01*
X16862Y-84971D01*
X17323Y-85062D01*
X17323Y-85062D01*
X22059D01*
X22203Y-85277D01*
X22854Y-85712D01*
X23622Y-85865D01*
X24390Y-85712D01*
X25041Y-85277D01*
X25476Y-84626D01*
X25629Y-83858D01*
X25476Y-83090D01*
X25041Y-82439D01*
X24390Y-82004D01*
X23622Y-81851D01*
X22854Y-82004D01*
X22203Y-82439D01*
X22059Y-82654D01*
X17822D01*
X16165Y-80997D01*
Y-58903D01*
X16219Y-58881D01*
X16665Y-58820D01*
X16865Y-59119D01*
X18650Y-60904D01*
X18650Y-60904D01*
X19041Y-61165D01*
X19502Y-61257D01*
X21962D01*
X22106Y-61472D01*
X22757Y-61907D01*
X23525Y-62060D01*
X24293Y-61907D01*
X24945Y-61472D01*
X25380Y-60821D01*
X25532Y-60053D01*
X25380Y-59285D01*
X24945Y-58634D01*
X24293Y-58198D01*
X23525Y-58046D01*
X22757Y-58198D01*
X22106Y-58634D01*
X21962Y-58849D01*
X20000D01*
X18921Y-57769D01*
Y-43701D01*
X18921Y-43701D01*
X18829Y-43240D01*
X18568Y-42849D01*
X18568Y-42849D01*
X13644Y-37925D01*
X13851Y-37425D01*
X46745D01*
X79359Y-70038D01*
Y-94730D01*
X78677Y-95012D01*
X77895Y-95612D01*
X77296Y-96393D01*
X76919Y-97303D01*
X76791Y-98280D01*
X76919Y-99256D01*
X77296Y-100166D01*
X77895Y-100947D01*
X78677Y-101547D01*
X79587Y-101923D01*
X80563Y-102052D01*
X81539Y-101923D01*
X82449Y-101547D01*
X83231Y-100947D01*
X83830Y-100166D01*
X84207Y-99256D01*
X84335Y-98280D01*
X84207Y-97303D01*
X83830Y-96393D01*
X83231Y-95612D01*
X82449Y-95012D01*
X81767Y-94730D01*
Y-69539D01*
X81767Y-69539D01*
X81676Y-69078D01*
X81415Y-68688D01*
X48096Y-35369D01*
X47705Y-35108D01*
X47244Y-35016D01*
X47244Y-35016D01*
X13885D01*
X12622Y-33753D01*
Y-33236D01*
X13084Y-33067D01*
X13122Y-33074D01*
X13541Y-33703D01*
X14193Y-34138D01*
X14961Y-34291D01*
X15729Y-34138D01*
X16380Y-33703D01*
X16815Y-33051D01*
X16968Y-32283D01*
X16815Y-31515D01*
X16380Y-30864D01*
X16165Y-30721D01*
Y-12598D01*
X16165Y-12598D01*
X16073Y-12138D01*
X15812Y-11747D01*
X9437Y-5372D01*
X9487Y-5118D01*
X9335Y-4350D01*
X9145Y-4066D01*
X9412Y-3566D01*
X23634D01*
X23778Y-3781D01*
X24429Y-4216D01*
X25197Y-4369D01*
X25965Y-4216D01*
X26616Y-3781D01*
X27051Y-3130D01*
X27204Y-2362D01*
X27051Y-1594D01*
X26616Y-943D01*
X25965Y-508D01*
X25197Y-355D01*
X24429Y-508D01*
X23778Y-943D01*
X23634Y-1158D01*
X4140D01*
X4058Y-898D01*
X4057Y-658D01*
X4711Y-221D01*
X5042Y275D01*
X5623Y306D01*
X5667Y239D01*
X6318Y-196D01*
X7087Y-349D01*
X7855Y-196D01*
X8506Y239D01*
X8941Y890D01*
X9094Y1658D01*
X8941Y2426D01*
X8506Y3077D01*
X7855Y3512D01*
X7087Y3665D01*
X6318Y3512D01*
X5667Y3077D01*
X5431Y2723D01*
X4830D01*
X4711Y2901D01*
X3994Y3380D01*
X3937Y3391D01*
Y1340D01*
X3150D01*
Y553D01*
X1099D01*
X1110Y495D01*
X1588Y-221D01*
X2242Y-658D01*
X2242Y-898D01*
X2159Y-1158D01*
X893D01*
X-799Y534D01*
X-749Y787D01*
X-902Y1555D01*
X-1337Y2207D01*
X-1988Y2642D01*
X-2756Y2795D01*
X-3524Y2642D01*
X-4175Y2207D01*
X-4610Y1555D01*
X-4763Y787D01*
X-4610Y19D01*
X-4175Y-632D01*
X-3524Y-1067D01*
X-2756Y-1220D01*
X-2502Y-1169D01*
X-458Y-3214D01*
X-458Y-3214D01*
X-67Y-3475D01*
X394Y-3566D01*
X394Y-3566D01*
X5548D01*
X5816Y-4066D01*
X5626Y-4350D01*
X5473Y-5118D01*
X5626Y-5886D01*
X5816Y-6170D01*
X5548Y-6670D01*
X-9344D01*
X-23361Y7348D01*
X-23752Y7609D01*
X-24213Y7700D01*
X-24213Y7700D01*
X-28277D01*
X-28366Y7760D01*
X-29134Y7913D01*
D02*
G37*
G36*
X2362Y3391D02*
X2305Y3380D01*
X1588Y2901D01*
X1110Y2185D01*
X1099Y2127D01*
X2362D01*
Y3391D01*
D02*
G37*
G36*
X118110Y6725D02*
X116798Y6596D01*
X115537Y6213D01*
X114374Y5592D01*
X113355Y4755D01*
X112518Y3736D01*
X111897Y2574D01*
X111514Y1312D01*
X111385Y0D01*
X111514Y-1312D01*
X111897Y-2574D01*
X112518Y-3736D01*
X113355Y-4755D01*
X114374Y-5592D01*
X115537Y-6213D01*
X116798Y-6596D01*
X118110Y-6725D01*
X119422Y-6596D01*
X120684Y-6213D01*
X121847Y-5592D01*
X122866Y-4755D01*
X123702Y-3736D01*
X124324Y-2574D01*
X124706Y-1312D01*
X124836Y0D01*
X124706Y1312D01*
X124324Y2574D01*
X123702Y3736D01*
X122866Y4755D01*
X121847Y5592D01*
X120684Y6213D01*
X119422Y6596D01*
X118110Y6725D01*
D02*
G37*
G36*
X86010Y-10301D02*
X85303Y-10464D01*
X84662Y-10805D01*
X84131Y-11300D01*
X83747Y-11915D01*
X83534Y-12609D01*
X83509Y-13334D01*
X83672Y-14042D01*
X84013Y-14682D01*
X84508Y-15213D01*
X85123Y-15597D01*
X85817Y-15810D01*
X86542Y-15835D01*
X87249Y-15672D01*
X87890Y-15331D01*
X88421Y-14836D01*
X88805Y-14221D01*
X89018Y-13527D01*
X89043Y-12802D01*
X88880Y-12095D01*
X88539Y-11454D01*
X88044Y-10923D01*
X87429Y-10539D01*
X86735Y-10327D01*
X86010Y-10301D01*
D02*
G37*
G36*
X60000Y-7389D02*
X59085Y-7571D01*
X58310Y-8089D01*
X57792Y-8865D01*
X57610Y-9780D01*
X57792Y-10694D01*
X58310Y-11470D01*
X59085Y-11988D01*
X60000Y-12170D01*
X60915Y-11988D01*
X61690Y-11470D01*
X62208Y-10694D01*
X62390Y-9780D01*
X62208Y-8865D01*
X61690Y-8089D01*
X60915Y-7571D01*
X60000Y-7389D01*
D02*
G37*
G36*
X-118110Y6725D02*
X-119422Y6596D01*
X-120684Y6213D01*
X-121847Y5592D01*
X-122866Y4755D01*
X-123702Y3736D01*
X-124324Y2574D01*
X-124706Y1312D01*
X-124836Y0D01*
X-124706Y-1312D01*
X-124324Y-2574D01*
X-123702Y-3736D01*
X-122866Y-4755D01*
X-121847Y-5592D01*
X-120684Y-6213D01*
X-119422Y-6596D01*
X-118110Y-6725D01*
X-116798Y-6596D01*
X-115537Y-6213D01*
X-114374Y-5592D01*
X-113355Y-4755D01*
X-112518Y-3736D01*
X-111897Y-2574D01*
X-111514Y-1312D01*
X-111385Y0D01*
X-111514Y1312D01*
X-111897Y2574D01*
X-112518Y3736D01*
X-113355Y4755D01*
X-114374Y5592D01*
X-115537Y6213D01*
X-116798Y6596D01*
X-118110Y6725D01*
D02*
G37*
G36*
X77624Y15551D02*
X76766Y15353D01*
X75988Y14940D01*
X75343Y14339D01*
X74876Y13591D01*
X74619Y12749D01*
X74588Y11868D01*
X74786Y11010D01*
X75200Y10232D01*
X75801Y9587D01*
X76548Y9120D01*
X77391Y8863D01*
X78271Y8832D01*
X79130Y9030D01*
X79908Y9444D01*
X80552Y10045D01*
X81019Y10792D01*
X81277Y11635D01*
X81308Y12515D01*
X81109Y13374D01*
X80696Y14152D01*
X80095Y14796D01*
X79347Y15263D01*
X78505Y15521D01*
X77624Y15551D01*
D02*
G37*
G36*
X-152832Y16220D02*
X-155866D01*
Y14427D01*
X-155276D01*
X-154607Y14515D01*
X-153985Y14773D01*
X-153451Y15183D01*
X-153040Y15717D01*
X-152832Y16220D01*
D02*
G37*
G36*
X-142480D02*
X-145515D01*
X-145306Y15717D01*
X-144896Y15183D01*
X-144361Y14773D01*
X-143739Y14515D01*
X-143071Y14427D01*
X-142480D01*
Y16220D01*
D02*
G37*
G36*
X85905Y16900D02*
X83721Y15342D01*
X83816Y15241D01*
X84607Y14747D01*
X85499Y14474D01*
X86431Y14441D01*
X87340Y14651D01*
X87463Y14716D01*
X85905Y16900D01*
D02*
G37*
G36*
X-134646Y37046D02*
X-135414Y36894D01*
X-136065Y36459D01*
X-136500Y35807D01*
X-136653Y35039D01*
X-136500Y34271D01*
X-136065Y33620D01*
X-135414Y33185D01*
X-134646Y33032D01*
X-134392Y33083D01*
X-133094Y31785D01*
Y12864D01*
X-133594Y12597D01*
X-133998Y12867D01*
X-134055Y12878D01*
Y10827D01*
Y8776D01*
X-133998Y8787D01*
X-133594Y9057D01*
X-133094Y8789D01*
Y-8789D01*
X-133594Y-9057D01*
X-133998Y-8787D01*
X-134055Y-8776D01*
Y-10827D01*
Y-12878D01*
X-133998Y-12867D01*
X-133594Y-12597D01*
X-133094Y-12864D01*
Y-30722D01*
X-137635Y-35263D01*
X-137972Y-35196D01*
X-141319D01*
X-142125Y-35356D01*
X-142809Y-35813D01*
X-143266Y-36497D01*
X-143426Y-37303D01*
Y-40650D01*
X-143266Y-41456D01*
X-142809Y-42140D01*
X-142125Y-42597D01*
X-141319Y-42757D01*
X-137972D01*
X-137166Y-42597D01*
X-136482Y-42140D01*
X-136026Y-41456D01*
X-135865Y-40650D01*
Y-37303D01*
X-135932Y-36966D01*
X-131038Y-32072D01*
X-131038Y-32072D01*
X-130777Y-31681D01*
X-130685Y-31220D01*
Y32283D01*
X-130685Y32283D01*
X-130777Y32744D01*
X-131038Y33135D01*
X-131038Y33135D01*
X-132689Y34786D01*
X-132639Y35039D01*
X-132791Y35807D01*
X-133227Y36459D01*
X-133878Y36894D01*
X-134646Y37046D01*
D02*
G37*
G36*
X-83071Y15393D02*
X-83839Y15240D01*
X-84490Y14805D01*
X-84925Y14154D01*
X-85078Y13386D01*
X-84925Y12618D01*
X-84490Y11967D01*
X-83839Y11531D01*
X-83071Y11379D01*
X-82303Y11531D01*
X-81652Y11967D01*
X-81217Y12618D01*
X-81064Y13386D01*
X-81217Y14154D01*
X-81652Y14805D01*
X-82303Y15240D01*
X-83071Y15393D01*
D02*
G37*
G36*
X20866Y13780D02*
X19602D01*
X19614Y13722D01*
X20092Y13006D01*
X20809Y12527D01*
X20866Y12516D01*
Y13780D01*
D02*
G37*
G36*
X23705D02*
X22441D01*
Y12516D01*
X22498Y12527D01*
X23215Y13006D01*
X23693Y13722D01*
X23705Y13780D01*
D02*
G37*
G36*
X-21260Y-17284D02*
X-22028Y-17437D01*
X-22679Y-17872D01*
X-23114Y-18523D01*
X-23267Y-19291D01*
X-23114Y-20059D01*
X-22679Y-20711D01*
X-22028Y-21146D01*
X-21260Y-21298D01*
X-20492Y-21146D01*
X-19841Y-20711D01*
X-19406Y-20059D01*
X-19253Y-19291D01*
X-19406Y-18523D01*
X-19841Y-17872D01*
X-20492Y-17437D01*
X-21260Y-17284D01*
D02*
G37*
G36*
X80406Y-14410D02*
X79780Y-14429D01*
X79209Y-14686D01*
X77286Y-16058D01*
X76857Y-16514D01*
X76635Y-17100D01*
X76654Y-17726D01*
X76911Y-18297D01*
X78283Y-20220D01*
X78739Y-20650D01*
X79325Y-20872D01*
X79951Y-20853D01*
X80522Y-20595D01*
X82446Y-19223D01*
X82875Y-18767D01*
X83097Y-18181D01*
X83078Y-17555D01*
X82820Y-16984D01*
X81449Y-15061D01*
X80992Y-14631D01*
X80406Y-14410D01*
D02*
G37*
G36*
X60000Y-15389D02*
X59085Y-15571D01*
X58310Y-16089D01*
X57792Y-16865D01*
X57610Y-17779D01*
X57792Y-18694D01*
X58310Y-19470D01*
X59085Y-19988D01*
X60000Y-20170D01*
X60915Y-19988D01*
X61690Y-19470D01*
X62208Y-18694D01*
X62390Y-17779D01*
X62208Y-16865D01*
X61690Y-16089D01*
X60915Y-15571D01*
X60000Y-15389D01*
D02*
G37*
G36*
X25984Y-20223D02*
Y-21486D01*
X27248D01*
X27237Y-21429D01*
X26758Y-20713D01*
X26042Y-20234D01*
X25984Y-20223D01*
D02*
G37*
G36*
X54213Y-21378D02*
X52949D01*
X52960Y-21435D01*
X53439Y-22152D01*
X54155Y-22630D01*
X54213Y-22642D01*
Y-21378D01*
D02*
G37*
G36*
X57051D02*
X55787D01*
Y-22642D01*
X55845Y-22630D01*
X56561Y-22152D01*
X57040Y-21435D01*
X57051Y-21378D01*
D02*
G37*
G36*
X24409Y-20223D02*
X24352Y-20234D01*
X23636Y-20713D01*
X23157Y-21429D01*
X23146Y-21486D01*
X24409D01*
Y-20223D01*
D02*
G37*
G36*
X54213Y-18539D02*
X54155Y-18551D01*
X53439Y-19029D01*
X52960Y-19746D01*
X52949Y-19803D01*
X54213D01*
Y-18539D01*
D02*
G37*
G36*
X-142480Y-14427D02*
X-143071D01*
X-143739Y-14515D01*
X-144361Y-14773D01*
X-144896Y-15183D01*
X-145306Y-15717D01*
X-145515Y-16220D01*
X-142480D01*
Y-14427D01*
D02*
G37*
G36*
X-155276D02*
X-155866D01*
Y-16220D01*
X-152832D01*
X-153040Y-15717D01*
X-153451Y-15183D01*
X-153985Y-14773D01*
X-154607Y-14515D01*
X-155276Y-14427D01*
D02*
G37*
G36*
X40000Y-11389D02*
X39085Y-11571D01*
X38310Y-12089D01*
X37792Y-12865D01*
X37610Y-13780D01*
X37792Y-14694D01*
X38310Y-15470D01*
X39085Y-15988D01*
X40000Y-16170D01*
X40915Y-15988D01*
X41690Y-15470D01*
X42208Y-14694D01*
X42390Y-13780D01*
X42208Y-12865D01*
X41690Y-12089D01*
X40915Y-11571D01*
X40000Y-11389D01*
D02*
G37*
G36*
X-142480Y-17795D02*
X-145515D01*
X-145306Y-18298D01*
X-144896Y-18833D01*
X-144361Y-19243D01*
X-143739Y-19501D01*
X-143071Y-19589D01*
X-142480D01*
Y-17795D01*
D02*
G37*
G36*
X55787Y-18539D02*
Y-19803D01*
X57051D01*
X57040Y-19746D01*
X56561Y-19029D01*
X55845Y-18551D01*
X55787Y-18539D01*
D02*
G37*
G36*
X-59055Y-15710D02*
X-59823Y-15862D01*
X-60474Y-16297D01*
X-60909Y-16949D01*
X-61040Y-17605D01*
X-78880Y-35445D01*
X-79134Y-35394D01*
X-79902Y-35547D01*
X-80553Y-35982D01*
X-80988Y-36634D01*
X-81141Y-37402D01*
X-80988Y-38170D01*
X-80553Y-38821D01*
X-79902Y-39256D01*
X-79134Y-39409D01*
X-78366Y-39256D01*
X-78270Y-39192D01*
X-78216Y-39217D01*
X-77865Y-39523D01*
X-77991Y-40157D01*
X-77838Y-40925D01*
X-77403Y-41577D01*
X-76752Y-42012D01*
X-75984Y-42165D01*
X-75216Y-42012D01*
X-74565Y-41577D01*
X-74130Y-40925D01*
X-73977Y-40157D01*
X-74130Y-39389D01*
X-74565Y-38738D01*
X-75216Y-38303D01*
X-75984Y-38150D01*
X-76752Y-38303D01*
X-76848Y-38367D01*
X-76902Y-38342D01*
X-77253Y-38036D01*
X-77127Y-37402D01*
X-77177Y-37148D01*
X-59637Y-19608D01*
X-59055Y-19724D01*
X-58287Y-19571D01*
X-57636Y-19136D01*
X-57201Y-18485D01*
X-57048Y-17717D01*
X-57201Y-16949D01*
X-57636Y-16297D01*
X-58287Y-15862D01*
X-59055Y-15710D01*
D02*
G37*
G36*
X-152832Y-17795D02*
X-155866D01*
Y-19589D01*
X-155276D01*
X-154607Y-19501D01*
X-153985Y-19243D01*
X-153451Y-18833D01*
X-153040Y-18298D01*
X-152832Y-17795D01*
D02*
G37*
G36*
X-21654Y-50394D02*
X-22917D01*
X-22906Y-50451D01*
X-22427Y-51167D01*
X-21711Y-51646D01*
X-21654Y-51657D01*
Y-50394D01*
D02*
G37*
G36*
X-45276Y-90862D02*
Y-92913D01*
X-46063D01*
Y-93701D01*
X-48114D01*
X-48103Y-93758D01*
X-47624Y-94475D01*
X-46908Y-94953D01*
X-46063Y-95121D01*
X-45820Y-95073D01*
X-45467Y-95426D01*
X-45515Y-95669D01*
X-45347Y-96514D01*
X-44868Y-97230D01*
X-44152Y-97709D01*
X-43307Y-97877D01*
X-43064Y-97829D01*
X-42711Y-98182D01*
X-42759Y-98425D01*
X-42591Y-99270D01*
X-42112Y-99986D01*
X-41396Y-100465D01*
X-41339Y-100476D01*
Y-98425D01*
X-39764D01*
Y-100729D01*
X-39558Y-100921D01*
X-39609Y-101181D01*
X-39441Y-102026D01*
X-38963Y-102742D01*
X-38246Y-103221D01*
X-38189Y-103232D01*
Y-101181D01*
Y-98877D01*
X-38395Y-98685D01*
X-38343Y-98425D01*
X-38511Y-97580D01*
X-38990Y-96864D01*
X-39706Y-96386D01*
X-40551Y-96217D01*
X-40794Y-96266D01*
X-41148Y-95912D01*
X-41099Y-95669D01*
X-41267Y-94824D01*
X-41746Y-94108D01*
X-42462Y-93630D01*
X-43307Y-93462D01*
X-43550Y-93510D01*
X-43903Y-93156D01*
X-43855Y-92913D01*
X-44023Y-92068D01*
X-44502Y-91352D01*
X-45218Y-90874D01*
X-45276Y-90862D01*
D02*
G37*
G36*
X-35350Y-101969D02*
X-36614D01*
Y-103232D01*
X-36557Y-103221D01*
X-35840Y-102742D01*
X-35362Y-102026D01*
X-35350Y-101969D01*
D02*
G37*
G36*
X60091Y-99067D02*
X57011D01*
X57042Y-99307D01*
X57439Y-100265D01*
X58070Y-101087D01*
X58893Y-101718D01*
X59850Y-102115D01*
X60091Y-102147D01*
Y-99067D01*
D02*
G37*
G36*
X-1453Y-104126D02*
Y-105390D01*
X-189D01*
X-200Y-105332D01*
X-679Y-104616D01*
X-1395Y-104138D01*
X-1453Y-104126D01*
D02*
G37*
G36*
X16142Y-106610D02*
X16084Y-106622D01*
X15368Y-107100D01*
X14889Y-107817D01*
X14878Y-107874D01*
X16142D01*
Y-106610D01*
D02*
G37*
G36*
X17717D02*
Y-107874D01*
X18980D01*
X18969Y-107817D01*
X18490Y-107100D01*
X17774Y-106622D01*
X17717Y-106610D01*
D02*
G37*
G36*
X-3028Y-104126D02*
X-3085Y-104138D01*
X-3801Y-104616D01*
X-4280Y-105332D01*
X-4291Y-105390D01*
X-3028D01*
Y-104126D01*
D02*
G37*
G36*
X64745Y-99067D02*
X61665D01*
Y-102147D01*
X61906Y-102115D01*
X62863Y-101718D01*
X63686Y-101087D01*
X64317Y-100265D01*
X64714Y-99307D01*
X64745Y-99067D01*
D02*
G37*
G36*
X-787Y-80520D02*
X-10629D01*
Y-88197D01*
X-787D01*
Y-80520D01*
D02*
G37*
G36*
X10631D02*
X788D01*
Y-88197D01*
X10631D01*
Y-80520D01*
D02*
G37*
G36*
X-787Y-71268D02*
X-10629D01*
Y-78945D01*
X-787D01*
Y-71268D01*
D02*
G37*
G36*
X-46850Y-90862D02*
X-46908Y-90874D01*
X-47624Y-91352D01*
X-48103Y-92068D01*
X-48114Y-92126D01*
X-46850D01*
Y-90862D01*
D02*
G37*
G36*
X-36614Y-99130D02*
Y-100394D01*
X-35350D01*
X-35362Y-100336D01*
X-35840Y-99620D01*
X-36557Y-99141D01*
X-36614Y-99130D01*
D02*
G37*
G36*
X60091Y-94412D02*
X59850Y-94444D01*
X58893Y-94841D01*
X58070Y-95472D01*
X57439Y-96294D01*
X57042Y-97252D01*
X57011Y-97492D01*
X60091D01*
Y-94412D01*
D02*
G37*
G36*
X61665Y-94412D02*
Y-97492D01*
X64745D01*
X64714Y-97252D01*
X64317Y-96294D01*
X63686Y-95472D01*
X62863Y-94841D01*
X61906Y-94444D01*
X61665Y-94412D01*
D02*
G37*
G36*
X-5906Y-124409D02*
X-7169D01*
X-7158Y-124467D01*
X-6679Y-125183D01*
X-5963Y-125662D01*
X-5906Y-125673D01*
Y-124409D01*
D02*
G37*
G36*
X-3067D02*
X-4331D01*
Y-125673D01*
X-4273Y-125662D01*
X-3557Y-125183D01*
X-3078Y-124467D01*
X-3067Y-124409D01*
D02*
G37*
G36*
X5118Y-117284D02*
X4350Y-117437D01*
X3699Y-117872D01*
X3264Y-118523D01*
X3111Y-119291D01*
X3264Y-120059D01*
X3699Y-120711D01*
X4350Y-121146D01*
X4632Y-121202D01*
Y-121712D01*
X4350Y-121768D01*
X3699Y-122203D01*
X3264Y-122854D01*
X3111Y-123622D01*
X3264Y-124390D01*
X3699Y-125041D01*
X4350Y-125476D01*
X5118Y-125629D01*
X5886Y-125476D01*
X6537Y-125041D01*
X6972Y-124390D01*
X7125Y-123622D01*
X6972Y-122854D01*
X6537Y-122203D01*
X5886Y-121768D01*
X5604Y-121712D01*
Y-121202D01*
X5886Y-121146D01*
X6537Y-120711D01*
X6972Y-120059D01*
X7125Y-119291D01*
X6972Y-118523D01*
X6537Y-117872D01*
X5886Y-117437D01*
X5118Y-117284D01*
D02*
G37*
G36*
X6890Y-134260D02*
X788D01*
Y-141937D01*
X6890D01*
Y-134260D01*
D02*
G37*
G36*
X-787Y-143512D02*
X-6889D01*
Y-151189D01*
X-787D01*
Y-143512D01*
D02*
G37*
G36*
X6890D02*
X788D01*
Y-151189D01*
X6890D01*
Y-143512D01*
D02*
G37*
G36*
X-787Y-134260D02*
X-6889D01*
Y-141937D01*
X-787D01*
Y-134260D01*
D02*
G37*
G36*
X-3067Y-120079D02*
X-7169D01*
X-7158Y-120136D01*
X-6679Y-120852D01*
X-6216Y-121162D01*
Y-121752D01*
X-6679Y-122061D01*
X-7158Y-122777D01*
X-7169Y-122835D01*
X-3067D01*
X-3078Y-122777D01*
X-3557Y-122061D01*
X-4020Y-121752D01*
Y-121162D01*
X-3557Y-120852D01*
X-3078Y-120136D01*
X-3067Y-120079D01*
D02*
G37*
G36*
X-102362Y-96033D02*
X-103597Y-96154D01*
X-104785Y-96514D01*
X-105879Y-97099D01*
X-106838Y-97886D01*
X-107625Y-98846D01*
X-108210Y-99940D01*
X-108570Y-101127D01*
X-108692Y-102362D01*
X-108570Y-103597D01*
X-108210Y-104785D01*
X-107625Y-105879D01*
X-106838Y-106838D01*
X-105879Y-107625D01*
X-104785Y-108210D01*
X-103597Y-108570D01*
X-102362Y-108692D01*
X-101127Y-108570D01*
X-99940Y-108210D01*
X-98846Y-107625D01*
X-97886Y-106838D01*
X-97099Y-105879D01*
X-96514Y-104785D01*
X-96154Y-103597D01*
X-96033Y-102362D01*
X-96154Y-101127D01*
X-96514Y-99940D01*
X-97099Y-98846D01*
X-97886Y-97886D01*
X-98846Y-97099D01*
X-99940Y-96514D01*
X-101127Y-96154D01*
X-102362Y-96033D01*
D02*
G37*
G36*
X-3028Y-106965D02*
X-4291D01*
X-4280Y-107022D01*
X-3801Y-107738D01*
X-3085Y-108217D01*
X-3028Y-108228D01*
Y-106965D01*
D02*
G37*
G36*
X-189D02*
X-1453D01*
Y-108228D01*
X-1395Y-108217D01*
X-679Y-107738D01*
X-200Y-107022D01*
X-189Y-106965D01*
D02*
G37*
G36*
X18980Y-109449D02*
X17717D01*
Y-110713D01*
X17774Y-110701D01*
X18490Y-110223D01*
X18969Y-109506D01*
X18980Y-109449D01*
D02*
G37*
G36*
X-5906Y-117240D02*
X-5963Y-117252D01*
X-6679Y-117730D01*
X-7158Y-118447D01*
X-7169Y-118504D01*
X-5906D01*
Y-117240D01*
D02*
G37*
G36*
X-4331D02*
Y-118504D01*
X-3067D01*
X-3078Y-118447D01*
X-3557Y-117730D01*
X-4273Y-117252D01*
X-4331Y-117240D01*
D02*
G37*
G36*
X16142Y-109449D02*
X14878D01*
X14889Y-109506D01*
X15368Y-110223D01*
X16084Y-110701D01*
X16142Y-110713D01*
Y-109449D01*
D02*
G37*
G36*
X-22835Y-61335D02*
X-22892Y-61346D01*
X-23608Y-61825D01*
X-24087Y-62541D01*
X-24098Y-62598D01*
X-22835D01*
Y-61335D01*
D02*
G37*
G36*
X-21260D02*
Y-62598D01*
X-19996D01*
X-20008Y-62541D01*
X-20486Y-61825D01*
X-21202Y-61346D01*
X-21260Y-61335D01*
D02*
G37*
G36*
X-44094Y-60941D02*
X-44152Y-60952D01*
X-44868Y-61431D01*
X-45347Y-62147D01*
X-45358Y-62205D01*
X-44094D01*
Y-60941D01*
D02*
G37*
G36*
X-41256Y-63779D02*
X-42520D01*
Y-65043D01*
X-42462Y-65032D01*
X-41746Y-64553D01*
X-41267Y-63837D01*
X-41256Y-63779D01*
D02*
G37*
G36*
X-19996Y-64173D02*
X-24098D01*
X-24087Y-64231D01*
X-23608Y-64947D01*
X-22892Y-65425D01*
X-22047Y-65594D01*
X-21578Y-65500D01*
X-21303Y-65955D01*
X-21638Y-66456D01*
X-21790Y-67224D01*
X-21638Y-67993D01*
X-21203Y-68644D01*
X-20551Y-69079D01*
X-19783Y-69231D01*
X-19015Y-69079D01*
X-18364Y-68644D01*
X-17929Y-67993D01*
X-17776Y-67224D01*
X-17929Y-66456D01*
X-18364Y-65805D01*
X-19015Y-65370D01*
X-19783Y-65217D01*
X-20161Y-65293D01*
X-20196Y-65255D01*
X-20409Y-64832D01*
X-20008Y-64231D01*
X-19996Y-64173D01*
D02*
G37*
G36*
X-20079Y-57048D02*
X-20847Y-57201D01*
X-21498Y-57636D01*
X-21933Y-58287D01*
X-22086Y-59055D01*
X-21933Y-59823D01*
X-21498Y-60474D01*
X-20847Y-60909D01*
X-20079Y-61062D01*
X-19825Y-61012D01*
X-13056Y-67781D01*
X-12666Y-68042D01*
X-12205Y-68133D01*
X-10618D01*
X-10474Y-68348D01*
X-9823Y-68783D01*
X-9055Y-68936D01*
X-8287Y-68783D01*
X-7636Y-68348D01*
X-7201Y-67697D01*
X-7048Y-66929D01*
X-7201Y-66161D01*
X-7636Y-65510D01*
X-8287Y-65075D01*
X-9055Y-64922D01*
X-9823Y-65075D01*
X-10474Y-65510D01*
X-10618Y-65725D01*
X-11706D01*
X-18122Y-59309D01*
X-18072Y-59055D01*
X-18224Y-58287D01*
X-18659Y-57636D01*
X-19311Y-57201D01*
X-20079Y-57048D01*
D02*
G37*
G36*
X-44094Y-63779D02*
X-45358D01*
X-45347Y-63837D01*
X-44868Y-64553D01*
X-44152Y-65032D01*
X-44094Y-65043D01*
Y-63779D01*
D02*
G37*
G36*
X-42520Y-60941D02*
Y-62205D01*
X-41256D01*
X-41267Y-62147D01*
X-41746Y-61431D01*
X-42462Y-60952D01*
X-42520Y-60941D01*
D02*
G37*
G36*
X35122Y-51968D02*
X33858D01*
Y-53232D01*
X33916Y-53221D01*
X34632Y-52742D01*
X35111Y-52026D01*
X35122Y-51968D01*
D02*
G37*
G36*
X-45669Y-50394D02*
X-46933D01*
X-46922Y-50451D01*
X-46443Y-51167D01*
X-45727Y-51646D01*
X-45669Y-51657D01*
Y-50394D01*
D02*
G37*
G36*
X-42831D02*
X-44094D01*
Y-51657D01*
X-44037Y-51646D01*
X-43321Y-51167D01*
X-42842Y-50451D01*
X-42831Y-50394D01*
D02*
G37*
G36*
X32283Y-51968D02*
X31020D01*
X31031Y-52026D01*
X31510Y-52742D01*
X32226Y-53221D01*
X32283Y-53232D01*
Y-51968D01*
D02*
G37*
G36*
X-48425Y-55473D02*
X-49193Y-55626D01*
X-49844Y-56061D01*
X-50279Y-56712D01*
X-50432Y-57480D01*
X-50279Y-58248D01*
X-49844Y-58899D01*
X-49193Y-59335D01*
X-48425Y-59487D01*
X-47657Y-59335D01*
X-47006Y-58899D01*
X-46571Y-58248D01*
X-46418Y-57480D01*
X-46571Y-56712D01*
X-47006Y-56061D01*
X-47657Y-55626D01*
X-48425Y-55473D01*
D02*
G37*
G36*
X-6693Y-50188D02*
X-7461Y-50341D01*
X-8112Y-50776D01*
X-8547Y-51427D01*
X-8700Y-52195D01*
X-8547Y-52963D01*
X-8112Y-53614D01*
X-7461Y-54049D01*
X-6693Y-54202D01*
X-5925Y-54049D01*
X-5274Y-53614D01*
X-4839Y-52963D01*
X-4686Y-52195D01*
X-4839Y-51427D01*
X-5274Y-50776D01*
X-5925Y-50341D01*
X-6693Y-50188D01*
D02*
G37*
G36*
X38189Y-49961D02*
X37421Y-50114D01*
X36770Y-50549D01*
X36335Y-51200D01*
X36182Y-51968D01*
X36335Y-52737D01*
X36770Y-53388D01*
X37421Y-53823D01*
X38189Y-53976D01*
X38957Y-53823D01*
X39608Y-53388D01*
X40043Y-52737D01*
X40196Y-51968D01*
X40043Y-51200D01*
X39608Y-50549D01*
X38957Y-50114D01*
X38189Y-49961D01*
D02*
G37*
G36*
X47492Y-71508D02*
X42720D01*
Y-72689D01*
X42910Y-74128D01*
X43465Y-75469D01*
X44348Y-76620D01*
X45500Y-77504D01*
X46841Y-78059D01*
X47492Y-78145D01*
Y-71508D01*
D02*
G37*
G36*
X53839D02*
X49067D01*
Y-78145D01*
X49718Y-78059D01*
X51059Y-77504D01*
X52211Y-76620D01*
X53094Y-75469D01*
X53649Y-74128D01*
X53839Y-72689D01*
Y-71508D01*
D02*
G37*
G36*
X92374Y-71508D02*
X87602D01*
Y-72689D01*
X87792Y-74128D01*
X88347Y-75469D01*
X89230Y-76620D01*
X90382Y-77504D01*
X91723Y-78059D01*
X92374Y-78145D01*
Y-71508D01*
D02*
G37*
G36*
X98721D02*
X93949D01*
Y-78145D01*
X94600Y-78059D01*
X95941Y-77504D01*
X97092Y-76620D01*
X97976Y-75469D01*
X98531Y-74128D01*
X98721Y-72689D01*
Y-71508D01*
D02*
G37*
G36*
X10631Y-71268D02*
X788D01*
Y-78945D01*
X10631D01*
Y-71268D01*
D02*
G37*
G36*
X24409Y-77559D02*
X23146D01*
X23157Y-77617D01*
X23636Y-78333D01*
X24352Y-78811D01*
X24409Y-78823D01*
Y-77559D01*
D02*
G37*
G36*
X27248D02*
X25984D01*
Y-78823D01*
X26042Y-78811D01*
X26758Y-78333D01*
X27237Y-77617D01*
X27248Y-77559D01*
D02*
G37*
G36*
X38189Y-73977D02*
X37421Y-74130D01*
X36770Y-74565D01*
X36335Y-75216D01*
X36182Y-75984D01*
X36335Y-76752D01*
X36770Y-77403D01*
X37421Y-77838D01*
X38189Y-77991D01*
X38957Y-77838D01*
X39608Y-77403D01*
X40043Y-76752D01*
X40196Y-75984D01*
X40043Y-75216D01*
X39608Y-74565D01*
X38957Y-74130D01*
X38189Y-73977D01*
D02*
G37*
G36*
X93949Y-63296D02*
Y-69933D01*
X98721D01*
Y-68752D01*
X98531Y-67313D01*
X97976Y-65972D01*
X97092Y-64821D01*
X95941Y-63937D01*
X94600Y-63382D01*
X93949Y-63296D01*
D02*
G37*
G36*
X47492D02*
X46841Y-63382D01*
X45500Y-63937D01*
X44348Y-64821D01*
X43465Y-65972D01*
X42910Y-67313D01*
X42720Y-68752D01*
Y-69933D01*
X47492D01*
Y-63296D01*
D02*
G37*
G36*
X49067D02*
Y-69933D01*
X53839D01*
Y-68752D01*
X53649Y-67313D01*
X53094Y-65972D01*
X52211Y-64821D01*
X51059Y-63937D01*
X49718Y-63382D01*
X49067Y-63296D01*
D02*
G37*
G36*
X92374Y-63296D02*
X91723Y-63382D01*
X90382Y-63937D01*
X89230Y-64821D01*
X88347Y-65972D01*
X87792Y-67313D01*
X87602Y-68752D01*
Y-69933D01*
X92374D01*
Y-63296D01*
D02*
G37*
G36*
X24409Y-74721D02*
X24352Y-74732D01*
X23636Y-75210D01*
X23157Y-75927D01*
X23146Y-75984D01*
X24409D01*
Y-74721D01*
D02*
G37*
G36*
X25984D02*
Y-75984D01*
X27248D01*
X27237Y-75927D01*
X26758Y-75210D01*
X26042Y-74732D01*
X25984Y-74721D01*
D02*
G37*
G36*
X-32677Y-67284D02*
X-33445Y-67437D01*
X-34096Y-67872D01*
X-34532Y-68523D01*
X-34684Y-69291D01*
X-34588Y-69775D01*
X-35038Y-70076D01*
X-35452Y-69799D01*
X-36220Y-69647D01*
X-36988Y-69799D01*
X-37640Y-70234D01*
X-38075Y-70885D01*
X-38227Y-71653D01*
X-38075Y-72422D01*
X-37640Y-73073D01*
X-36988Y-73508D01*
X-36220Y-73661D01*
X-35452Y-73508D01*
X-35069Y-73251D01*
X-18504D01*
X-18504Y-73251D01*
X-18149Y-73181D01*
X-17717Y-73267D01*
X-16949Y-73114D01*
X-16297Y-72679D01*
X-15862Y-72028D01*
X-15710Y-71260D01*
X-15862Y-70492D01*
X-16297Y-69841D01*
X-16949Y-69406D01*
X-17717Y-69253D01*
X-18485Y-69406D01*
X-19136Y-69841D01*
X-19571Y-70492D01*
X-19641Y-70843D01*
X-30745D01*
X-31012Y-70343D01*
X-30823Y-70059D01*
X-30670Y-69291D01*
X-30823Y-68523D01*
X-31258Y-67872D01*
X-31909Y-67437D01*
X-32677Y-67284D01*
D02*
G37*
G36*
X10631Y77945D02*
X788D01*
Y70268D01*
X10631D01*
Y77945D01*
D02*
G37*
G36*
X-17717Y71736D02*
X-17774Y71725D01*
X-18490Y71246D01*
X-18969Y70530D01*
X-18980Y70472D01*
X-17717D01*
Y71736D01*
D02*
G37*
G36*
X-16142D02*
Y70472D01*
X-14878D01*
X-14889Y70530D01*
X-15368Y71246D01*
X-16084Y71725D01*
X-16142Y71736D01*
D02*
G37*
G36*
X-787Y77945D02*
X-10629D01*
Y70268D01*
X-787D01*
Y77945D01*
D02*
G37*
G36*
X36394Y73354D02*
X35536Y73155D01*
X34758Y72742D01*
X34113Y72141D01*
X33646Y71394D01*
X33389Y70551D01*
X33358Y69670D01*
X33556Y68812D01*
X33970Y68034D01*
X34571Y67389D01*
X35318Y66922D01*
X36161Y66665D01*
X37041Y66634D01*
X37900Y66832D01*
X38678Y67246D01*
X39322Y67847D01*
X39789Y68594D01*
X40047Y69437D01*
X40078Y70317D01*
X39879Y71176D01*
X39466Y71954D01*
X38865Y72598D01*
X38118Y73065D01*
X37275Y73323D01*
X36394Y73354D01*
D02*
G37*
G36*
X-17717Y68898D02*
X-18980D01*
X-18969Y68840D01*
X-18490Y68124D01*
X-17774Y67645D01*
X-17717Y67634D01*
Y68898D01*
D02*
G37*
G36*
X-14878D02*
X-16142D01*
Y67634D01*
X-16084Y67645D01*
X-15368Y68124D01*
X-14889Y68840D01*
X-14878Y68898D01*
D02*
G37*
G36*
X-93949Y78145D02*
X-94600Y78059D01*
X-95941Y77504D01*
X-97092Y76620D01*
X-97976Y75469D01*
X-98531Y74128D01*
X-98721Y72689D01*
Y71508D01*
X-93949D01*
Y78145D01*
D02*
G37*
G36*
X48141Y77175D02*
X45957Y75617D01*
X47515Y73433D01*
X47617Y73528D01*
X48111Y74319D01*
X48384Y75211D01*
X48416Y76143D01*
X48206Y77052D01*
X48141Y77175D01*
D02*
G37*
G36*
X42203Y78169D02*
X42101Y78074D01*
X41607Y77283D01*
X41334Y76391D01*
X41302Y75458D01*
X41511Y74549D01*
X41576Y74427D01*
X43761Y75985D01*
X42203Y78169D01*
D02*
G37*
G36*
X19374Y77953D02*
X18110D01*
Y76689D01*
X18168Y76701D01*
X18884Y77179D01*
X19363Y77895D01*
X19374Y77953D01*
D02*
G37*
G36*
X44675Y74703D02*
X42491Y73145D01*
X42586Y73043D01*
X43377Y72549D01*
X44269Y72276D01*
X45202Y72243D01*
X46110Y72453D01*
X46233Y72518D01*
X44675Y74703D01*
D02*
G37*
G36*
X-92374Y78145D02*
Y71508D01*
X-87602D01*
Y72689D01*
X-87792Y74128D01*
X-88347Y75469D01*
X-89230Y76620D01*
X-90382Y77504D01*
X-91723Y78059D01*
X-92374Y78145D01*
D02*
G37*
G36*
X-49067D02*
X-49718Y78059D01*
X-51059Y77504D01*
X-52211Y76620D01*
X-53094Y75469D01*
X-53649Y74128D01*
X-53839Y72689D01*
Y71508D01*
X-49067D01*
Y78145D01*
D02*
G37*
G36*
X-47492Y78145D02*
Y71508D01*
X-42720D01*
Y72689D01*
X-42910Y74128D01*
X-43465Y75469D01*
X-44348Y76620D01*
X-45500Y77504D01*
X-46841Y78059D01*
X-47492Y78145D01*
D02*
G37*
G36*
X-125508Y60630D02*
X-126772D01*
Y59366D01*
X-126714Y59378D01*
X-125998Y59856D01*
X-125519Y60572D01*
X-125508Y60630D01*
D02*
G37*
G36*
X-110630D02*
X-111894D01*
X-111882Y60572D01*
X-111404Y59856D01*
X-110687Y59378D01*
X-110630Y59366D01*
Y60630D01*
D02*
G37*
G36*
X-107791D02*
X-109055D01*
Y59366D01*
X-108998Y59378D01*
X-108281Y59856D01*
X-107803Y60572D01*
X-107791Y60630D01*
D02*
G37*
G36*
X-128347D02*
X-129610D01*
X-129599Y60572D01*
X-129120Y59856D01*
X-128404Y59378D01*
X-128347Y59366D01*
Y60630D01*
D02*
G37*
G36*
X-109055Y56382D02*
Y55118D01*
X-107791D01*
X-107803Y55176D01*
X-108281Y55892D01*
X-108998Y56370D01*
X-109055Y56382D01*
D02*
G37*
G36*
X-31496D02*
X-31554Y56370D01*
X-32270Y55892D01*
X-32748Y55176D01*
X-32760Y55118D01*
X-31496D01*
Y56382D01*
D02*
G37*
G36*
X-29921D02*
Y55118D01*
X-28657D01*
X-28669Y55176D01*
X-29147Y55892D01*
X-29864Y56370D01*
X-29921Y56382D01*
D02*
G37*
G36*
X-128347Y63468D02*
X-128404Y63457D01*
X-129120Y62978D01*
X-129599Y62262D01*
X-129610Y62205D01*
X-128347D01*
Y63468D01*
D02*
G37*
G36*
X-93949Y69933D02*
X-98721D01*
Y68752D01*
X-98531Y67313D01*
X-97976Y65972D01*
X-97092Y64821D01*
X-95941Y63937D01*
X-94600Y63382D01*
X-93949Y63296D01*
Y69933D01*
D02*
G37*
G36*
X-87602D02*
X-92374D01*
Y63296D01*
X-91723Y63382D01*
X-90382Y63937D01*
X-89230Y64821D01*
X-88347Y65972D01*
X-87792Y67313D01*
X-87602Y68752D01*
Y69933D01*
D02*
G37*
G36*
X-42720Y69933D02*
X-47492D01*
Y63296D01*
X-46841Y63382D01*
X-45500Y63937D01*
X-44348Y64821D01*
X-43465Y65972D01*
X-42910Y67313D01*
X-42720Y68752D01*
Y69933D01*
D02*
G37*
G36*
X-49067D02*
X-53839D01*
Y68752D01*
X-53649Y67313D01*
X-53094Y65972D01*
X-52211Y64821D01*
X-51059Y63937D01*
X-49718Y63382D01*
X-49067Y63296D01*
Y69933D01*
D02*
G37*
G36*
X-126772Y63468D02*
Y62205D01*
X-125508D01*
X-125519Y62262D01*
X-125998Y62978D01*
X-126714Y63457D01*
X-126772Y63468D01*
D02*
G37*
G36*
X-110630D02*
X-110687Y63457D01*
X-111404Y62978D01*
X-111882Y62262D01*
X-111894Y62205D01*
X-110630D01*
Y63468D01*
D02*
G37*
G36*
X-109055D02*
Y62205D01*
X-107791D01*
X-107803Y62262D01*
X-108281Y62978D01*
X-108998Y63457D01*
X-109055Y63468D01*
D02*
G37*
G36*
X7480Y102362D02*
X6217D01*
X6228Y102305D01*
X6707Y101588D01*
X7423Y101110D01*
X7480Y101099D01*
Y102362D01*
D02*
G37*
G36*
X10319D02*
X9055D01*
Y101099D01*
X9113Y101110D01*
X9829Y101588D01*
X10307Y102305D01*
X10319Y102362D01*
D02*
G37*
G36*
X85241Y108196D02*
X84383Y107998D01*
X83605Y107584D01*
X82960Y106983D01*
X82493Y106236D01*
X82236Y105393D01*
X82205Y104513D01*
X82403Y103654D01*
X82817Y102876D01*
X83418Y102232D01*
X84165Y101765D01*
X85008Y101507D01*
X85888Y101476D01*
X86747Y101674D01*
X87525Y102088D01*
X88169Y102689D01*
X88636Y103436D01*
X88894Y104279D01*
X88924Y105159D01*
X88726Y106018D01*
X88313Y106796D01*
X87712Y107440D01*
X86964Y107907D01*
X86122Y108165D01*
X85241Y108196D01*
D02*
G37*
G36*
X-69933Y104115D02*
Y101035D01*
X-66853D01*
X-66885Y101276D01*
X-67282Y102234D01*
X-67913Y103056D01*
X-68735Y103687D01*
X-69693Y104084D01*
X-69933Y104115D01*
D02*
G37*
G36*
X-80563Y104021D02*
X-81539Y103892D01*
X-82449Y103515D01*
X-83231Y102916D01*
X-83830Y102134D01*
X-84207Y101224D01*
X-84335Y100248D01*
X-84207Y99272D01*
X-83830Y98362D01*
X-83231Y97580D01*
X-82449Y96981D01*
X-81539Y96604D01*
X-80563Y96476D01*
X-79587Y96604D01*
X-78677Y96981D01*
X-77895Y97580D01*
X-77296Y98362D01*
X-76919Y99272D01*
X-76791Y100248D01*
X-76919Y101224D01*
X-77296Y102134D01*
X-77895Y102916D01*
X-78677Y103515D01*
X-79587Y103892D01*
X-80563Y104021D01*
D02*
G37*
G36*
X-60878D02*
X-61854Y103892D01*
X-62764Y103515D01*
X-63546Y102916D01*
X-64145Y102134D01*
X-64522Y101224D01*
X-64650Y100248D01*
X-64522Y99272D01*
X-64145Y98362D01*
X-63546Y97580D01*
X-62764Y96981D01*
X-61854Y96604D01*
X-60878Y96476D01*
X-59902Y96604D01*
X-58992Y96981D01*
X-58210Y97580D01*
X-57611Y98362D01*
X-57234Y99272D01*
X-57105Y100248D01*
X-57234Y101224D01*
X-57611Y102134D01*
X-58210Y102916D01*
X-58992Y103515D01*
X-59902Y103892D01*
X-60878Y104021D01*
D02*
G37*
G36*
X-71508Y104115D02*
X-71748Y104084D01*
X-72706Y103687D01*
X-73528Y103056D01*
X-74159Y102234D01*
X-74556Y101276D01*
X-74588Y101035D01*
X-71508D01*
Y104115D01*
D02*
G37*
G36*
X-97244Y107125D02*
X-98012Y106972D01*
X-98663Y106537D01*
X-99098Y105886D01*
X-99251Y105118D01*
X-99098Y104350D01*
X-98663Y103699D01*
X-98012Y103264D01*
X-97244Y103111D01*
X-96476Y103264D01*
X-95825Y103699D01*
X-95390Y104350D01*
X-95237Y105118D01*
X-95390Y105886D01*
X-95825Y106537D01*
X-96476Y106972D01*
X-97244Y107125D01*
D02*
G37*
G36*
X6890Y140937D02*
X788D01*
Y133260D01*
X6890D01*
Y140937D01*
D02*
G37*
G36*
X-787Y150189D02*
X-6889D01*
Y142512D01*
X-787D01*
Y150189D01*
D02*
G37*
G36*
X6890D02*
X788D01*
Y142512D01*
X6890D01*
Y150189D01*
D02*
G37*
G36*
X-787Y140937D02*
X-6889D01*
Y133260D01*
X-787D01*
Y140937D01*
D02*
G37*
G36*
X7480Y105201D02*
X7423Y105189D01*
X6707Y104711D01*
X6228Y103995D01*
X6217Y103937D01*
X7480D01*
Y105201D01*
D02*
G37*
G36*
X9055D02*
Y103937D01*
X10319D01*
X10307Y103995D01*
X9829Y104711D01*
X9113Y105189D01*
X9055Y105201D01*
D02*
G37*
G36*
X93382Y114003D02*
X92524Y113805D01*
X91746Y113391D01*
X91101Y112790D01*
X90635Y112043D01*
X90377Y111200D01*
X90346Y110319D01*
X90544Y109461D01*
X90958Y108683D01*
X91559Y108038D01*
X92306Y107572D01*
X93149Y107314D01*
X94029Y107283D01*
X94888Y107481D01*
X95666Y107895D01*
X96310Y108496D01*
X96777Y109243D01*
X97035Y110086D01*
X97066Y110967D01*
X96867Y111825D01*
X96454Y112603D01*
X95853Y113248D01*
X95106Y113714D01*
X94263Y113972D01*
X93382Y114003D01*
D02*
G37*
G36*
X18110Y80791D02*
Y79528D01*
X19374D01*
X19363Y79585D01*
X18884Y80301D01*
X18168Y80780D01*
X18110Y80791D01*
D02*
G37*
G36*
X60818Y90775D02*
X59959Y90576D01*
X59181Y90163D01*
X58537Y89562D01*
X58070Y88815D01*
X57812Y87972D01*
X57781Y87091D01*
X57980Y86233D01*
X58393Y85455D01*
X58994Y84810D01*
X59741Y84343D01*
X60584Y84086D01*
X61465Y84055D01*
X62323Y84253D01*
X63101Y84667D01*
X63746Y85268D01*
X64213Y86015D01*
X64470Y86858D01*
X64501Y87738D01*
X64303Y88597D01*
X63889Y89375D01*
X63288Y90019D01*
X62541Y90486D01*
X61698Y90744D01*
X60818Y90775D01*
D02*
G37*
G36*
X26772Y88189D02*
X25508D01*
X25519Y88131D01*
X25998Y87415D01*
X26714Y86937D01*
X26772Y86925D01*
Y88189D01*
D02*
G37*
G36*
X10631Y87197D02*
X788D01*
Y79520D01*
X10631D01*
Y87197D01*
D02*
G37*
G36*
X44516Y79358D02*
X43607Y79148D01*
X43485Y79083D01*
X45043Y76899D01*
X47227Y78457D01*
X47132Y78558D01*
X46341Y79053D01*
X45449Y79326D01*
X44516Y79358D01*
D02*
G37*
G36*
X52677Y84968D02*
X51818Y84769D01*
X51040Y84356D01*
X50396Y83755D01*
X49929Y83008D01*
X49671Y82165D01*
X49640Y81284D01*
X49839Y80426D01*
X50252Y79648D01*
X50853Y79003D01*
X51600Y78536D01*
X52443Y78279D01*
X53324Y78248D01*
X54182Y78446D01*
X54960Y78860D01*
X55605Y79461D01*
X56072Y80208D01*
X56329Y81051D01*
X56360Y81931D01*
X56162Y82790D01*
X55748Y83568D01*
X55147Y84212D01*
X54400Y84679D01*
X53557Y84937D01*
X52677Y84968D01*
D02*
G37*
G36*
X-787Y87197D02*
X-10629D01*
Y79520D01*
X-787D01*
Y87197D01*
D02*
G37*
G36*
X29610Y88189D02*
X28346D01*
Y86925D01*
X28404Y86937D01*
X29120Y87415D01*
X29599Y88131D01*
X29610Y88189D01*
D02*
G37*
G36*
X102362Y108692D02*
X101127Y108570D01*
X99940Y108210D01*
X98846Y107625D01*
X97886Y106838D01*
X97099Y105879D01*
X96514Y104785D01*
X96154Y103597D01*
X96033Y102362D01*
X96154Y101127D01*
X96514Y99940D01*
X97099Y98846D01*
X97886Y97886D01*
X98846Y97099D01*
X99940Y96514D01*
X101127Y96154D01*
X102362Y96033D01*
X103597Y96154D01*
X104785Y96514D01*
X105879Y97099D01*
X106838Y97886D01*
X107625Y98846D01*
X108210Y99940D01*
X108570Y101127D01*
X108692Y102362D01*
X108570Y103597D01*
X108210Y104785D01*
X107625Y105879D01*
X106838Y106838D01*
X105879Y107625D01*
X104785Y108210D01*
X103597Y108570D01*
X102362Y108692D01*
D02*
G37*
G36*
X-66853Y99461D02*
X-69933D01*
Y96381D01*
X-69693Y96412D01*
X-68735Y96809D01*
X-67913Y97440D01*
X-67282Y98263D01*
X-66885Y99220D01*
X-66853Y99461D01*
D02*
G37*
G36*
X-71508D02*
X-74588D01*
X-74556Y99220D01*
X-74159Y98263D01*
X-73528Y97440D01*
X-72706Y96809D01*
X-71748Y96412D01*
X-71508Y96381D01*
Y99461D01*
D02*
G37*
G36*
X77100Y102389D02*
X76241Y102190D01*
X75463Y101777D01*
X74819Y101176D01*
X74352Y100429D01*
X74094Y99586D01*
X74064Y98706D01*
X74262Y97847D01*
X74676Y97069D01*
X75277Y96425D01*
X76024Y95958D01*
X76867Y95700D01*
X77747Y95669D01*
X78606Y95867D01*
X79384Y96281D01*
X80028Y96882D01*
X80495Y97629D01*
X80753Y98472D01*
X80783Y99353D01*
X80585Y100211D01*
X80172Y100989D01*
X79571Y101634D01*
X78823Y102100D01*
X77981Y102358D01*
X77100Y102389D01*
D02*
G37*
G36*
X26772Y91027D02*
X26714Y91016D01*
X25998Y90538D01*
X25519Y89821D01*
X25508Y89764D01*
X26772D01*
Y91027D01*
D02*
G37*
G36*
X28346D02*
Y89764D01*
X29610D01*
X29599Y89821D01*
X29120Y90538D01*
X28404Y91016D01*
X28346Y91027D01*
D02*
G37*
G36*
X68959Y96582D02*
X68100Y96384D01*
X67322Y95970D01*
X66678Y95369D01*
X66211Y94622D01*
X65953Y93779D01*
X65923Y92898D01*
X66121Y92040D01*
X66535Y91262D01*
X67135Y90617D01*
X67883Y90150D01*
X68725Y89893D01*
X69606Y89862D01*
X70464Y90060D01*
X71242Y90474D01*
X71887Y91075D01*
X72354Y91822D01*
X72611Y92665D01*
X72642Y93546D01*
X72444Y94404D01*
X72030Y95182D01*
X71429Y95826D01*
X70682Y96293D01*
X69840Y96551D01*
X68959Y96582D01*
D02*
G37*
G36*
X-110630Y56382D02*
X-110687Y56370D01*
X-111404Y55892D01*
X-111882Y55176D01*
X-111894Y55118D01*
X-110630D01*
Y56382D01*
D02*
G37*
G36*
X-7004Y27165D02*
X-8268D01*
Y25902D01*
X-8210Y25913D01*
X-7494Y26392D01*
X-7015Y27108D01*
X-7004Y27165D01*
D02*
G37*
G36*
X102048Y32972D02*
X101189Y32774D01*
X100411Y32361D01*
X99767Y31760D01*
X99300Y31012D01*
X99042Y30170D01*
X99011Y29289D01*
X99210Y28431D01*
X99623Y27653D01*
X100224Y27008D01*
X100971Y26541D01*
X101814Y26284D01*
X102695Y26253D01*
X103553Y26451D01*
X104331Y26865D01*
X104976Y27466D01*
X105443Y28213D01*
X105700Y29056D01*
X105731Y29936D01*
X105533Y30795D01*
X105119Y31573D01*
X104518Y32217D01*
X103771Y32684D01*
X102928Y32942D01*
X102048Y32972D01*
D02*
G37*
G36*
X-96390Y27886D02*
X-97654D01*
X-97642Y27828D01*
X-97163Y27112D01*
X-96447Y26634D01*
X-96390Y26622D01*
Y27886D01*
D02*
G37*
G36*
X-9843Y27165D02*
X-11106D01*
X-11095Y27108D01*
X-10616Y26392D01*
X-9900Y25913D01*
X-9843Y25902D01*
Y27165D01*
D02*
G37*
G36*
X-111728Y25591D02*
X-112992D01*
Y24327D01*
X-112935Y24338D01*
X-112218Y24817D01*
X-111740Y25533D01*
X-111728Y25591D01*
D02*
G37*
G36*
X-147244Y27165D02*
X-148508D01*
X-148496Y27108D01*
X-148018Y26392D01*
X-147302Y25913D01*
X-147244Y25902D01*
Y27165D01*
D02*
G37*
G36*
X-144405D02*
X-145669D01*
Y25902D01*
X-145612Y25913D01*
X-144896Y26392D01*
X-144417Y27108D01*
X-144405Y27165D01*
D02*
G37*
G36*
X-93551Y27886D02*
X-94815D01*
Y26622D01*
X-94757Y26634D01*
X-94041Y27112D01*
X-93563Y27828D01*
X-93551Y27886D01*
D02*
G37*
G36*
X-9843Y30004D02*
X-9900Y29992D01*
X-10616Y29514D01*
X-11095Y28798D01*
X-11106Y28740D01*
X-9843D01*
Y30004D01*
D02*
G37*
G36*
X-8268D02*
Y28740D01*
X-7004D01*
X-7015Y28798D01*
X-7494Y29514D01*
X-8210Y29992D01*
X-8268Y30004D01*
D02*
G37*
G36*
X110189Y38780D02*
X109330Y38581D01*
X108552Y38168D01*
X107908Y37567D01*
X107441Y36819D01*
X107183Y35977D01*
X107152Y35096D01*
X107351Y34238D01*
X107764Y33460D01*
X108365Y32815D01*
X109113Y32348D01*
X109955Y32091D01*
X110836Y32060D01*
X111694Y32258D01*
X112472Y32672D01*
X113117Y33273D01*
X113584Y34020D01*
X113841Y34863D01*
X113872Y35743D01*
X113674Y36602D01*
X113260Y37380D01*
X112659Y38024D01*
X111912Y38491D01*
X111069Y38749D01*
X110189Y38780D01*
D02*
G37*
G36*
X-145669Y30004D02*
Y28740D01*
X-144405D01*
X-144417Y28798D01*
X-144896Y29514D01*
X-145612Y29992D01*
X-145669Y30004D01*
D02*
G37*
G36*
X-137008Y28429D02*
X-137065Y28418D01*
X-137782Y27939D01*
X-138260Y27223D01*
X-138272Y27165D01*
X-137008D01*
Y28429D01*
D02*
G37*
G36*
X-135433D02*
Y27165D01*
X-134169D01*
X-134181Y27223D01*
X-134659Y27939D01*
X-135376Y28418D01*
X-135433Y28429D01*
D02*
G37*
G36*
X-147244Y30004D02*
X-147302Y29992D01*
X-148018Y29514D01*
X-148496Y28798D01*
X-148508Y28740D01*
X-147244D01*
Y30004D01*
D02*
G37*
G36*
X-97342Y18996D02*
X-98606D01*
X-98595Y18939D01*
X-98116Y18222D01*
X-97400Y17744D01*
X-97342Y17732D01*
Y18996D01*
D02*
G37*
G36*
X-94504D02*
X-95768D01*
Y17732D01*
X-95710Y17744D01*
X-94994Y18222D01*
X-94515Y18939D01*
X-94504Y18996D01*
D02*
G37*
G36*
X-142480Y19589D02*
X-143071D01*
X-143739Y19501D01*
X-144361Y19243D01*
X-144896Y18833D01*
X-145306Y18298D01*
X-145515Y17795D01*
X-142480D01*
Y19589D01*
D02*
G37*
G36*
X83433Y20367D02*
X83331Y20272D01*
X82837Y19481D01*
X82564Y18588D01*
X82531Y17656D01*
X82741Y16747D01*
X82806Y16624D01*
X84991Y18182D01*
X83433Y20367D01*
D02*
G37*
G36*
X20866Y16618D02*
X20809Y16607D01*
X20092Y16128D01*
X19614Y15412D01*
X19602Y15354D01*
X20866D01*
Y16618D01*
D02*
G37*
G36*
X22441D02*
Y15354D01*
X23705D01*
X23693Y15412D01*
X23215Y16128D01*
X22498Y16607D01*
X22441Y16618D01*
D02*
G37*
G36*
X89371Y19373D02*
X87187Y17815D01*
X88745Y15631D01*
X88846Y15725D01*
X89341Y16517D01*
X89614Y17409D01*
X89646Y18341D01*
X89436Y19250D01*
X89371Y19373D01*
D02*
G37*
G36*
X-155276Y19589D02*
X-155866D01*
Y17795D01*
X-152832D01*
X-153040Y18298D01*
X-153451Y18833D01*
X-153985Y19243D01*
X-154607Y19501D01*
X-155276Y19589D01*
D02*
G37*
G36*
X-137008Y25591D02*
X-138272D01*
X-138260Y25533D01*
X-137782Y24817D01*
X-137065Y24338D01*
X-137008Y24327D01*
Y25591D01*
D02*
G37*
G36*
X-134169D02*
X-135433D01*
Y24327D01*
X-135376Y24338D01*
X-134659Y24817D01*
X-134181Y25533D01*
X-134169Y25591D01*
D02*
G37*
G36*
X-114567D02*
X-115831D01*
X-115819Y25533D01*
X-115341Y24817D01*
X-114624Y24338D01*
X-114567Y24327D01*
Y25591D01*
D02*
G37*
G36*
X-95768Y21835D02*
Y20571D01*
X-94504D01*
X-94515Y20628D01*
X-94994Y21345D01*
X-95710Y21823D01*
X-95768Y21835D01*
D02*
G37*
G36*
X85746Y21556D02*
X84837Y21346D01*
X84715Y21281D01*
X86273Y19097D01*
X88457Y20655D01*
X88362Y20756D01*
X87571Y21251D01*
X86679Y21523D01*
X85746Y21556D01*
D02*
G37*
G36*
X93906Y27165D02*
X93048Y26967D01*
X92270Y26554D01*
X91625Y25953D01*
X91159Y25205D01*
X90901Y24363D01*
X90870Y23482D01*
X91068Y22624D01*
X91482Y21846D01*
X92083Y21201D01*
X92830Y20734D01*
X93673Y20477D01*
X94554Y20446D01*
X95412Y20644D01*
X96190Y21058D01*
X96834Y21659D01*
X97301Y22406D01*
X97559Y23249D01*
X97590Y24129D01*
X97392Y24988D01*
X96978Y25766D01*
X96377Y26410D01*
X95630Y26877D01*
X94787Y27135D01*
X93906Y27165D01*
D02*
G37*
G36*
X-97342Y21835D02*
X-97400Y21823D01*
X-98116Y21345D01*
X-98595Y20628D01*
X-98606Y20571D01*
X-97342D01*
Y21835D01*
D02*
G37*
G36*
X-128347Y48902D02*
Y47638D01*
X-127083D01*
X-127094Y47695D01*
X-127573Y48412D01*
X-128289Y48890D01*
X-128347Y48902D01*
D02*
G37*
G36*
X-4724Y52007D02*
X-5492Y51854D01*
X-6144Y51419D01*
X-6287Y51204D01*
X-9043D01*
X-9504Y51113D01*
X-9895Y50852D01*
X-31231Y29516D01*
X-31484Y29566D01*
X-32252Y29413D01*
X-32903Y28978D01*
X-33338Y28327D01*
X-33491Y27559D01*
X-33338Y26791D01*
X-32903Y26140D01*
X-32252Y25705D01*
X-31484Y25552D01*
X-30716Y25705D01*
X-30065Y26140D01*
X-29630Y26791D01*
X-29477Y27559D01*
X-29528Y27813D01*
X-8544Y48796D01*
X-6287D01*
X-6144Y48581D01*
X-5492Y48146D01*
X-4724Y47993D01*
X-3956Y48146D01*
X-3305Y48581D01*
X-2870Y49232D01*
X-2717Y50000D01*
X-2870Y50768D01*
X-3305Y51419D01*
X-3956Y51854D01*
X-4724Y52007D01*
D02*
G37*
G36*
X135595Y56781D02*
X134851Y56758D01*
X134173Y56452D01*
X131769Y54738D01*
X131260Y54196D01*
X130996Y53500D01*
X131019Y52757D01*
X131324Y52078D01*
X133039Y49674D01*
X133581Y49165D01*
X134276Y48901D01*
X135020Y48924D01*
X135698Y49229D01*
X138102Y50944D01*
X138612Y51486D01*
X138876Y52182D01*
X138853Y52925D01*
X138547Y53603D01*
X136833Y56007D01*
X136291Y56517D01*
X135595Y56781D01*
D02*
G37*
G36*
X-129921Y48902D02*
X-129979Y48890D01*
X-130695Y48412D01*
X-131174Y47695D01*
X-131185Y47638D01*
X-129921D01*
Y48902D01*
D02*
G37*
G36*
X-79776Y47029D02*
Y43949D01*
X-76696D01*
X-76727Y44189D01*
X-77124Y45147D01*
X-77755Y45969D01*
X-78578Y46600D01*
X-79535Y46997D01*
X-79776Y47029D01*
D02*
G37*
G36*
X-129921Y46063D02*
X-131185D01*
X-131174Y46005D01*
X-130695Y45289D01*
X-129979Y44811D01*
X-129921Y44799D01*
Y46063D01*
D02*
G37*
G36*
X-127083D02*
X-128347D01*
Y44799D01*
X-128289Y44811D01*
X-127573Y45289D01*
X-127094Y46005D01*
X-127083Y46063D01*
D02*
G37*
G36*
X-128347Y53543D02*
X-129610D01*
X-129599Y53486D01*
X-129120Y52770D01*
X-128404Y52291D01*
X-128347Y52280D01*
Y53543D01*
D02*
G37*
G36*
X-28657D02*
X-29921D01*
Y52280D01*
X-29864Y52291D01*
X-29147Y52770D01*
X-28669Y53486D01*
X-28657Y53543D01*
D02*
G37*
G36*
X-128347Y56382D02*
X-128404Y56370D01*
X-129120Y55892D01*
X-129599Y55176D01*
X-129610Y55118D01*
X-128347D01*
Y56382D01*
D02*
G37*
G36*
X-126772D02*
Y55118D01*
X-125508D01*
X-125519Y55176D01*
X-125998Y55892D01*
X-126714Y56370D01*
X-126772Y56382D01*
D02*
G37*
G36*
X-31496Y53543D02*
X-32760D01*
X-32748Y53486D01*
X-32270Y52770D01*
X-31554Y52291D01*
X-31496Y52280D01*
Y53543D01*
D02*
G37*
G36*
X-125508D02*
X-126772D01*
Y52280D01*
X-126714Y52291D01*
X-125998Y52770D01*
X-125519Y53486D01*
X-125508Y53543D01*
D02*
G37*
G36*
X-110630D02*
X-111894D01*
X-111882Y53486D01*
X-111404Y52770D01*
X-110687Y52291D01*
X-110630Y52280D01*
Y53543D01*
D02*
G37*
G36*
X-107791D02*
X-109055D01*
Y52280D01*
X-108998Y52291D01*
X-108281Y52770D01*
X-107803Y53486D01*
X-107791Y53543D01*
D02*
G37*
G36*
X-116142Y40551D02*
X-117405D01*
X-117394Y40494D01*
X-116916Y39777D01*
X-116199Y39299D01*
X-116142Y39287D01*
Y40551D01*
D02*
G37*
G36*
X-113303D02*
X-114567D01*
Y39287D01*
X-114509Y39299D01*
X-113793Y39777D01*
X-113315Y40494D01*
X-113303Y40551D01*
D02*
G37*
G36*
X-76696Y42374D02*
X-79776D01*
Y39294D01*
X-79535Y39326D01*
X-78578Y39722D01*
X-77755Y40354D01*
X-77124Y41176D01*
X-76727Y42134D01*
X-76696Y42374D01*
D02*
G37*
G36*
X118330Y44587D02*
X117471Y44388D01*
X116693Y43975D01*
X116049Y43374D01*
X115582Y42627D01*
X115324Y41784D01*
X115294Y40903D01*
X115492Y40045D01*
X115905Y39267D01*
X116507Y38622D01*
X117254Y38155D01*
X118096Y37898D01*
X118977Y37867D01*
X119835Y38065D01*
X120614Y38479D01*
X121258Y39080D01*
X121725Y39827D01*
X121983Y40670D01*
X122013Y41550D01*
X121815Y42409D01*
X121401Y43187D01*
X120800Y43831D01*
X120053Y44298D01*
X119211Y44556D01*
X118330Y44587D01*
D02*
G37*
G36*
X0Y36653D02*
X-768Y36500D01*
X-1419Y36065D01*
X-1854Y35414D01*
X-2007Y34646D01*
X-1957Y34392D01*
X-3214Y33135D01*
X-3475Y32744D01*
X-3566Y32283D01*
X-3566Y32283D01*
Y11405D01*
X-3781Y11262D01*
X-4216Y10611D01*
X-4369Y9843D01*
X-4216Y9075D01*
X-3781Y8423D01*
X-3130Y7988D01*
X-2362Y7835D01*
X-1594Y7988D01*
X-943Y8423D01*
X-508Y9075D01*
X-355Y9843D01*
X-508Y10611D01*
X-943Y11262D01*
X-1158Y11405D01*
Y31785D01*
X-254Y32689D01*
X0Y32639D01*
X768Y32791D01*
X1419Y33226D01*
X1854Y33878D01*
X2007Y34646D01*
X1854Y35414D01*
X1419Y36065D01*
X768Y36500D01*
X0Y36653D01*
D02*
G37*
G36*
X-41732Y38976D02*
X-42996D01*
X-42985Y38919D01*
X-42506Y38203D01*
X-41790Y37724D01*
X-41732Y37713D01*
Y38976D01*
D02*
G37*
G36*
X-38894D02*
X-40157D01*
Y37713D01*
X-40100Y37724D01*
X-39384Y38203D01*
X-38905Y38919D01*
X-38894Y38976D01*
D02*
G37*
G36*
X-81350Y42374D02*
X-84430D01*
X-84399Y42134D01*
X-84002Y41176D01*
X-83371Y40354D01*
X-82548Y39722D01*
X-81591Y39326D01*
X-81350Y39294D01*
Y42374D01*
D02*
G37*
G36*
X-114567Y43390D02*
Y42126D01*
X-113303D01*
X-113315Y42184D01*
X-113793Y42900D01*
X-114509Y43378D01*
X-114567Y43390D01*
D02*
G37*
G36*
X126471Y50394D02*
X125612Y50195D01*
X124835Y49782D01*
X124190Y49181D01*
X123723Y48434D01*
X123466Y47591D01*
X123435Y46710D01*
X123633Y45852D01*
X124047Y45074D01*
X124648Y44429D01*
X125395Y43962D01*
X126237Y43705D01*
X127118Y43674D01*
X127977Y43872D01*
X128755Y44286D01*
X129399Y44887D01*
X129866Y45634D01*
X130124Y46477D01*
X130154Y47357D01*
X129956Y48216D01*
X129543Y48994D01*
X128942Y49638D01*
X128194Y50105D01*
X127352Y50363D01*
X126471Y50394D01*
D02*
G37*
G36*
X-81350Y47029D02*
X-81591Y46997D01*
X-82548Y46600D01*
X-83371Y45969D01*
X-84002Y45147D01*
X-84399Y44189D01*
X-84430Y43949D01*
X-81350D01*
Y47029D01*
D02*
G37*
G36*
X-116142Y43390D02*
X-116199Y43378D01*
X-116916Y42900D01*
X-117394Y42184D01*
X-117405Y42126D01*
X-116142D01*
Y43390D01*
D02*
G37*
G36*
X-60878Y46934D02*
X-61854Y46805D01*
X-62764Y46428D01*
X-63546Y45829D01*
X-64145Y45048D01*
X-64522Y44138D01*
X-64650Y43161D01*
X-64522Y42185D01*
X-64145Y41275D01*
X-63546Y40494D01*
X-62764Y39894D01*
X-61854Y39518D01*
X-60878Y39389D01*
X-59902Y39518D01*
X-58992Y39894D01*
X-58210Y40494D01*
X-57611Y41275D01*
X-57234Y42185D01*
X-57105Y43161D01*
X-57234Y44138D01*
X-57611Y45048D01*
X-58210Y45829D01*
X-58992Y46428D01*
X-59902Y46805D01*
X-60878Y46934D01*
D02*
G37*
G36*
X-41732Y41815D02*
X-41790Y41804D01*
X-42506Y41325D01*
X-42985Y40609D01*
X-42996Y40551D01*
X-41732D01*
Y41815D01*
D02*
G37*
G36*
X-40157D02*
Y40551D01*
X-38894D01*
X-38905Y40609D01*
X-39384Y41325D01*
X-40100Y41804D01*
X-40157Y41815D01*
D02*
G37*
%LPD*%
D34*
X-102362Y-102362D02*
D03*
X102362Y102362D02*
D03*
D49*
X-2756Y787D02*
X-2756D01*
X394Y-2362D01*
X25197D01*
X-48031Y-41732D02*
X-16929D01*
X-51181Y-38583D02*
X-48031Y-41732D01*
X-51181Y-38583D02*
Y-17717D01*
X-16929Y-41732D02*
X-12598Y-46063D01*
X-31496Y-35433D02*
X-29528Y-37402D01*
X-31496Y-35433D02*
Y-15748D01*
X1575Y-33071D02*
Y-31496D01*
X-19291Y-10630D02*
X1575Y-31496D01*
X-19291Y-10630D02*
Y-4724D01*
X25197Y-22441D02*
Y-22274D01*
X-24803Y-22835D02*
X-17323Y-30315D01*
X-3937D01*
X-12598Y-57480D02*
X-2756Y-67323D01*
X7480D01*
X-12598Y-57480D02*
Y-46063D01*
X-46457Y-35039D02*
Y-27559D01*
X-46850Y-35433D02*
X-46457Y-35039D01*
X-36220Y-35433D02*
Y-27559D01*
X-41732Y-35433D02*
Y-27559D01*
X-103937Y36614D02*
Y77559D01*
X-59449Y-17717D02*
X-59055D01*
X-79134Y-37402D02*
X-59449Y-17717D01*
X-102362Y79134D02*
X-98819D01*
X-103937Y77559D02*
X-102362Y79134D01*
X-13780Y-11417D02*
X-1969D01*
X6299Y-37008D02*
X14961Y-45669D01*
X6299Y-37008D02*
Y-19685D01*
X-1969Y-11417D02*
X6299Y-19685D01*
X9055Y-35039D02*
X17717Y-43701D01*
X9055Y-35039D02*
Y-14567D01*
X6299Y-11811D02*
X9055Y-14567D01*
X17717Y-58268D02*
Y-43701D01*
Y-58268D02*
X19502Y-60053D01*
X23525D01*
X14961Y-81496D02*
Y-45669D01*
Y-81496D02*
X17323Y-83858D01*
X23622D01*
X-35827Y-72047D02*
X-18504D01*
X-17717Y-71260D01*
X-20079Y-59055D02*
X-12205Y-66929D01*
X-9055D01*
X-9843Y-7874D02*
X6693D01*
X11417Y-12598D01*
Y-34252D02*
Y-12598D01*
Y-34252D02*
X13386Y-36220D01*
X47244D01*
X80563Y-69539D01*
Y-98280D02*
Y-69539D01*
X14961Y-32283D02*
Y-12598D01*
X7480Y-5118D02*
X14961Y-12598D01*
X-29134Y5906D02*
X-28543Y6496D01*
X-24213D01*
X-9843Y-7874D01*
X-53543Y16535D02*
Y18898D01*
X-44882Y27559D01*
X-42913D01*
X-103937Y36614D02*
X-102756Y35433D01*
X-2362Y9843D02*
Y32283D01*
X0Y34646D01*
X-31484Y27559D02*
X-9043Y50000D01*
X-4724D01*
X-27165Y-3937D02*
X-24803D01*
X-33858Y2756D02*
X-27165Y-3937D01*
X-33858Y2756D02*
Y15354D01*
X13780Y62992D01*
Y89764D01*
X17323Y93307D01*
X-134646Y35039D02*
X-131890Y32283D01*
Y-31220D02*
Y32283D01*
X-139646Y-38976D02*
X-131890Y-31220D01*
X-51181Y-17717D02*
X-46850Y-13386D01*
X-45276D01*
D52*
X-53543Y-5118D02*
Y16535D01*
X-67716Y30709D02*
X-53543Y16535D01*
X-67716Y30709D02*
Y74409D01*
X-42500Y99626D01*
X-73228Y76378D02*
X-51575Y98032D01*
X-73228Y27559D02*
Y76378D01*
Y27559D02*
X-59055Y13386D01*
X-53543Y-5118D02*
X-48425Y-10236D01*
X-59055Y-6693D02*
Y13386D01*
X-87795Y-35433D02*
X-59055Y-6693D01*
X-87795Y-54724D02*
Y-35433D01*
X-62787Y-79732D02*
X1D01*
X-87795Y-54724D02*
X-62787Y-79732D01*
X-51575Y98032D02*
Y118504D01*
X-48142Y121937D01*
X-42500D01*
Y99626D02*
Y114063D01*
X1Y78732D02*
Y109055D01*
X-5008Y114063D02*
X1Y109055D01*
X-42500Y114063D02*
X-5008D01*
X-66929Y9449D02*
X-64173Y6693D01*
X-66929Y9449D02*
Y9449D01*
X-90551Y33071D02*
X-66929Y9449D01*
X-114469Y30709D02*
X-101673D01*
X-140945Y48425D02*
X-125591Y33071D01*
X-116831D02*
X-114469Y30709D01*
X-125591Y33071D02*
X-116831D01*
X-101673Y30709D02*
X-99311Y33071D01*
X-90551D01*
X-48425Y-10236D02*
X-45276Y-13386D01*
D53*
X-129646Y-38976D02*
D03*
X-80563Y43161D02*
D03*
X-60878D02*
D03*
X-70720Y100248D02*
D03*
X-80563D02*
D03*
X-60878D02*
D03*
X60878Y-98280D02*
D03*
X80563D02*
D03*
X70720Y-41193D02*
D03*
X60878D02*
D03*
X80563D02*
D03*
D54*
X-139646Y-38976D02*
D03*
D55*
X-118110Y0D02*
D03*
X118110D02*
D03*
D56*
X79866Y-17641D02*
D03*
D57*
X86276Y-13068D02*
D03*
X-42500Y114063D02*
D03*
D58*
X-93161Y70720D02*
D03*
X-48280D02*
D03*
X48280Y-70720D02*
D03*
X93161D02*
D03*
D59*
X-42500Y121937D02*
D03*
D60*
X93706Y110643D02*
D03*
X85565Y104836D02*
D03*
X77424Y99029D02*
D03*
X69282Y93222D02*
D03*
X61141Y87415D02*
D03*
X53000Y81608D02*
D03*
X44859Y75801D02*
D03*
X36718Y69994D02*
D03*
X77948Y12192D02*
D03*
X86089Y17999D02*
D03*
X94230Y23806D02*
D03*
X102371Y29613D02*
D03*
X110512Y35420D02*
D03*
X118654Y41227D02*
D03*
X126795Y47034D02*
D03*
D61*
X134936Y52841D02*
D03*
D62*
X-156653Y-17008D02*
D03*
Y17008D02*
D03*
X-141693Y-17008D02*
D03*
Y17008D02*
D03*
D63*
X17323Y78740D02*
D03*
X-2756Y787D02*
D03*
X25197Y-2362D02*
D03*
X3150Y1340D02*
D03*
X7087Y1658D02*
D03*
X21654Y14567D02*
D03*
X29134Y1181D02*
D03*
X55000Y-20591D02*
D03*
X-29528Y-37402D02*
D03*
X-31496Y-15748D02*
D03*
X1575Y-33071D02*
D03*
X-19291Y-4724D02*
D03*
X25197Y-22274D02*
D03*
X22441Y-25364D02*
D03*
X-3937Y-30315D02*
D03*
X-11191Y-24016D02*
D03*
X4331Y-41339D02*
D03*
X-15347Y-35433D02*
D03*
X7480Y-67323D02*
D03*
X-16535Y-42126D02*
D03*
X-6693Y-52195D02*
D03*
X-17717Y-52362D02*
D03*
X-24803Y-22835D02*
D03*
X-46457Y-27559D02*
D03*
X-46850Y-35433D02*
D03*
X-13780Y-11417D02*
D03*
X-21260Y-19291D02*
D03*
X-36220Y-27559D02*
D03*
X-41732Y-35433D02*
D03*
Y-27559D02*
D03*
X-36220Y-35433D02*
D03*
X-20866Y-49606D02*
D03*
X-43307Y-62992D02*
D03*
X-44882Y-49606D02*
D03*
X-48425Y-57480D02*
D03*
X-36220Y-71653D02*
D03*
X-32677Y-69291D02*
D03*
X-2240Y-106177D02*
D03*
X16929Y-108661D02*
D03*
X5118Y-123622D02*
D03*
Y-119291D02*
D03*
X-5118Y-123622D02*
D03*
Y-119291D02*
D03*
X-48425Y-10236D02*
D03*
X-64173Y6693D02*
D03*
X-66929Y9449D02*
D03*
X-75984Y-40157D02*
D03*
X-59055Y-17717D02*
D03*
X-79134Y-37402D02*
D03*
X-37402Y-101181D02*
D03*
X-40551Y-98425D02*
D03*
X-43307Y-95669D02*
D03*
X-46063Y-92913D02*
D03*
X-95602Y28673D02*
D03*
X-83071Y13386D02*
D03*
X-96555Y19783D02*
D03*
X-98819Y79134D02*
D03*
X-113779Y26378D02*
D03*
X-137402Y-21654D02*
D03*
X-136221Y26378D02*
D03*
X-146457Y27953D02*
D03*
X-134843Y-10827D02*
D03*
Y10827D02*
D03*
X-127559Y61417D02*
D03*
Y54331D02*
D03*
X-109843D02*
D03*
Y61417D02*
D03*
X-97244Y105118D02*
D03*
X-129134Y46850D02*
D03*
X-115354Y41339D02*
D03*
X-140945Y52362D02*
D03*
Y48425D02*
D03*
X6299Y-11811D02*
D03*
X38189Y-75984D02*
D03*
X25197Y-76772D02*
D03*
X23622Y-83858D02*
D03*
X23525Y-60053D02*
D03*
X33071Y-51181D02*
D03*
X38189Y-51968D02*
D03*
X7480Y-5118D02*
D03*
X-19783Y-67224D02*
D03*
X-17717Y-71260D02*
D03*
X-22047Y-63386D02*
D03*
X-20079Y-59055D02*
D03*
X-9055Y-66929D02*
D03*
X14961Y-32283D02*
D03*
X-29134Y5906D02*
D03*
X-42913Y27559D02*
D03*
X-40945Y39764D02*
D03*
X-102756Y35433D02*
D03*
X-30709Y54331D02*
D03*
X-9055Y27953D02*
D03*
X-15748Y29528D02*
D03*
X-2362Y9843D02*
D03*
X0Y34646D02*
D03*
X-31484Y27559D02*
D03*
X-4724Y50000D02*
D03*
X-16929Y69685D02*
D03*
X8268Y103150D02*
D03*
X27559Y88976D02*
D03*
X-24803Y-3937D02*
D03*
X17323Y93307D02*
D03*
X-134646Y35039D02*
D03*
X-45276Y-13386D02*
D03*
D64*
X1Y141724D02*
D03*
Y-142724D02*
D03*
D65*
Y78732D02*
D03*
Y-79732D02*
D03*
M02*
