G04*
G04 #@! TF.GenerationSoftware,Altium Limited,CircuitStudio,1.5.2 (30)*
G04*
G04 Layer_Color=13948096*
%FSLAX25Y25*%
%MOIN*%
G70*
G01*
G75*
%ADD68C,0.00591*%
%ADD69C,0.00394*%
%ADD165C,0.00984*%
G36*
X78349Y-7977D02*
X77522Y-8567D01*
X76641Y-7331D01*
X75483Y-7118D01*
X75722Y-9851D01*
X74651Y-10615D01*
X74494Y-6944D01*
X71804Y-6455D01*
X72920Y-5659D01*
X75896Y-6286D01*
X74596Y-4464D01*
X75423Y-3874D01*
X78349Y-7977D01*
D02*
G37*
G36*
X33022Y-121245D02*
X31571D01*
Y-118392D01*
X33022D01*
Y-121245D01*
D02*
G37*
G36*
X74220Y-10922D02*
X73393Y-11512D01*
X72172Y-9801D01*
X72008Y-9918D01*
X71905Y-9991D01*
X71827Y-10060D01*
X71759Y-10115D01*
X71708Y-10166D01*
X71670Y-10206D01*
X71645Y-10237D01*
X71626Y-10257D01*
X71625Y-10265D01*
X71588Y-10318D01*
X71563Y-10376D01*
X71538Y-10435D01*
X71524Y-10491D01*
X71512Y-10540D01*
X71498Y-10577D01*
X71497Y-10604D01*
X71496Y-10612D01*
X71489Y-10657D01*
X71487Y-10712D01*
X71485Y-10774D01*
X71481Y-10844D01*
X71479Y-10992D01*
X71477Y-11149D01*
X71480Y-11294D01*
X71477Y-11356D01*
X71484Y-11412D01*
X71484Y-11459D01*
X71482Y-11494D01*
X71486Y-11518D01*
X71484Y-11526D01*
X71521Y-12847D01*
X70530Y-13554D01*
X70465Y-12400D01*
X70455Y-12273D01*
X70454Y-12160D01*
X70449Y-12049D01*
X70446Y-11951D01*
X70442Y-11860D01*
X70444Y-11778D01*
X70444Y-11704D01*
X70444Y-11637D01*
X70445Y-11583D01*
X70450Y-11532D01*
X70453Y-11490D01*
X70455Y-11455D01*
X70459Y-11432D01*
X70458Y-11413D01*
X70460Y-11397D01*
X70480Y-11283D01*
X70508Y-11163D01*
X70542Y-11051D01*
X70578Y-10951D01*
X70609Y-10862D01*
X70635Y-10796D01*
X70644Y-10770D01*
X70654Y-10756D01*
X70656Y-10741D01*
X70661Y-10738D01*
X70550Y-10790D01*
X70441Y-10834D01*
X70338Y-10868D01*
X70239Y-10898D01*
X70141Y-10921D01*
X70052Y-10938D01*
X69972Y-10948D01*
X69893Y-10950D01*
X69822Y-10954D01*
X69760Y-10951D01*
X69705Y-10950D01*
X69658Y-10950D01*
X69620Y-10944D01*
X69598Y-10940D01*
X69582Y-10937D01*
X69575Y-10936D01*
X69485Y-10913D01*
X69400Y-10879D01*
X69320Y-10842D01*
X69242Y-10798D01*
X69170Y-10755D01*
X69104Y-10708D01*
X68984Y-10606D01*
X68933Y-10562D01*
X68886Y-10515D01*
X68849Y-10474D01*
X68817Y-10437D01*
X68790Y-10409D01*
X68774Y-10387D01*
X68761Y-10369D01*
X68758Y-10365D01*
X68672Y-10225D01*
X68604Y-10092D01*
X68556Y-9959D01*
X68521Y-9844D01*
X68510Y-9791D01*
X68499Y-9738D01*
X68490Y-9698D01*
X68489Y-9658D01*
X68482Y-9630D01*
X68481Y-9610D01*
X68484Y-9595D01*
X68481Y-9590D01*
X68482Y-9442D01*
X68502Y-9300D01*
X68530Y-9180D01*
X68564Y-9068D01*
X68607Y-8977D01*
X68624Y-8945D01*
X68641Y-8912D01*
X68657Y-8888D01*
X68664Y-8869D01*
X68670Y-8859D01*
X68674Y-8855D01*
X68719Y-8796D01*
X68773Y-8731D01*
X68836Y-8659D01*
X68905Y-8597D01*
X69045Y-8463D01*
X69196Y-8336D01*
X69264Y-8281D01*
X69332Y-8226D01*
X69394Y-8181D01*
X69444Y-8139D01*
X69488Y-8107D01*
X69520Y-8085D01*
X69542Y-8069D01*
X69551Y-8063D01*
X71293Y-6820D01*
X74220Y-10922D01*
D02*
G37*
G36*
X-47212Y138047D02*
X-48708D01*
Y133859D01*
X-49724D01*
Y138047D01*
X-51209D01*
Y138898D01*
X-47212D01*
Y138047D01*
D02*
G37*
G36*
X82950Y1086D02*
X83073Y1073D01*
X83171Y1049D01*
X83250Y1032D01*
X83276Y1024D01*
X83295Y1017D01*
X83310Y1014D01*
X83313Y1010D01*
X83444Y949D01*
X83561Y878D01*
X83665Y798D01*
X83751Y725D01*
X83818Y659D01*
X83848Y627D01*
X83867Y600D01*
X83887Y581D01*
X83900Y563D01*
X83907Y554D01*
X83910Y550D01*
X83969Y458D01*
X84016Y364D01*
X84058Y267D01*
X84090Y175D01*
X84109Y82D01*
X84129Y-11D01*
X84138Y-99D01*
X84143Y-182D01*
X84150Y-258D01*
X84146Y-328D01*
X84144Y-390D01*
X84135Y-443D01*
X84132Y-485D01*
X84127Y-516D01*
X84123Y-539D01*
X84122Y-546D01*
X84100Y-629D01*
X84066Y-713D01*
X84024Y-804D01*
X83981Y-895D01*
X83873Y-1072D01*
X83762Y-1246D01*
X83707Y-1319D01*
X83656Y-1388D01*
X83609Y-1455D01*
X83561Y-1510D01*
X83526Y-1555D01*
X83501Y-1586D01*
X83486Y-1610D01*
X83477Y-1617D01*
X83399Y-1706D01*
X83331Y-1788D01*
X83268Y-1860D01*
X83214Y-1925D01*
X83164Y-1987D01*
X83120Y-2039D01*
X83081Y-2087D01*
X83050Y-2129D01*
X83021Y-2163D01*
X83001Y-2191D01*
X82981Y-2219D01*
X82966Y-2236D01*
X82956Y-2250D01*
X82947Y-2256D01*
X82941Y-2267D01*
X82888Y-2352D01*
X82845Y-2423D01*
X82818Y-2489D01*
X82792Y-2547D01*
X82785Y-2593D01*
X82775Y-2627D01*
X82771Y-2650D01*
X82770Y-2657D01*
X82768Y-2719D01*
X82774Y-2775D01*
X82792Y-2829D01*
X82807Y-2879D01*
X82825Y-2913D01*
X82840Y-2943D01*
X82856Y-2965D01*
X82859Y-2970D01*
X82887Y-3010D01*
X82925Y-3043D01*
X83001Y-3103D01*
X83087Y-3149D01*
X83164Y-3181D01*
X83231Y-3200D01*
X83292Y-3210D01*
X83330Y-3217D01*
X83341Y-3223D01*
X83345Y-3219D01*
X83408Y-3222D01*
X83471Y-3217D01*
X83597Y-3187D01*
X83722Y-3145D01*
X83832Y-3093D01*
X83931Y-3043D01*
X83969Y-3022D01*
X84005Y-2997D01*
X84035Y-2982D01*
X84057Y-2967D01*
X84070Y-2957D01*
X84075Y-2954D01*
X84202Y-2850D01*
X84306Y-2742D01*
X84389Y-2642D01*
X84453Y-2543D01*
X84476Y-2500D01*
X84494Y-2460D01*
X84516Y-2425D01*
X84528Y-2396D01*
X84537Y-2370D01*
X84544Y-2351D01*
X84542Y-2339D01*
X84546Y-2336D01*
X84558Y-2267D01*
X84565Y-2202D01*
X84560Y-2064D01*
X84541Y-1924D01*
X84511Y-1798D01*
X84474Y-1690D01*
X84462Y-1645D01*
X84446Y-1603D01*
X84431Y-1573D01*
X84420Y-1548D01*
X84415Y-1531D01*
X84412Y-1527D01*
X85273Y-1033D01*
X85344Y-1170D01*
X85403Y-1309D01*
X85448Y-1438D01*
X85486Y-1565D01*
X85512Y-1687D01*
X85536Y-1805D01*
X85545Y-1912D01*
X85551Y-2015D01*
X85556Y-2106D01*
X85554Y-2187D01*
X85545Y-2260D01*
X85543Y-2323D01*
X85535Y-2368D01*
X85529Y-2406D01*
X85525Y-2429D01*
X85524Y-2437D01*
X85484Y-2559D01*
X85433Y-2676D01*
X85374Y-2792D01*
X85305Y-2901D01*
X85233Y-3007D01*
X85154Y-3103D01*
X85075Y-3199D01*
X84990Y-3287D01*
X84911Y-3364D01*
X84836Y-3437D01*
X84766Y-3500D01*
X84707Y-3549D01*
X84654Y-3587D01*
X84617Y-3620D01*
X84591Y-3639D01*
X84582Y-3645D01*
X84484Y-3715D01*
X84387Y-3777D01*
X84288Y-3835D01*
X84201Y-3883D01*
X84112Y-3927D01*
X84030Y-3972D01*
X83954Y-4006D01*
X83879Y-4033D01*
X83816Y-4057D01*
X83757Y-4079D01*
X83707Y-4102D01*
X83662Y-4114D01*
X83629Y-4124D01*
X83604Y-4128D01*
X83588Y-4133D01*
X83583Y-4136D01*
X83410Y-4166D01*
X83248Y-4174D01*
X83098Y-4160D01*
X82967Y-4146D01*
X82857Y-4124D01*
X82813Y-4109D01*
X82772Y-4098D01*
X82746Y-4090D01*
X82720Y-4081D01*
X82704Y-4079D01*
X82701Y-4075D01*
X82625Y-4042D01*
X82549Y-4002D01*
X82418Y-3921D01*
X82303Y-3836D01*
X82208Y-3749D01*
X82167Y-3711D01*
X82130Y-3677D01*
X82097Y-3641D01*
X82074Y-3610D01*
X82054Y-3590D01*
X82038Y-3568D01*
X82032Y-3559D01*
X82029Y-3555D01*
X81939Y-3411D01*
X81865Y-3269D01*
X81813Y-3139D01*
X81791Y-3080D01*
X81773Y-3027D01*
X81762Y-2974D01*
X81750Y-2929D01*
X81741Y-2888D01*
X81735Y-2852D01*
X81733Y-2820D01*
X81728Y-2804D01*
X81730Y-2789D01*
X81727Y-2784D01*
X81727Y-2643D01*
X81743Y-2505D01*
X81767Y-2380D01*
X81794Y-2267D01*
X81829Y-2175D01*
X81857Y-2101D01*
X81873Y-2076D01*
X81880Y-2058D01*
X81883Y-2043D01*
X81887Y-2040D01*
X81926Y-1972D01*
X81966Y-1896D01*
X82018Y-1819D01*
X82070Y-1742D01*
X82182Y-1588D01*
X82297Y-1439D01*
X82351Y-1374D01*
X82405Y-1308D01*
X82445Y-1252D01*
X82489Y-1201D01*
X82523Y-1164D01*
X82548Y-1132D01*
X82562Y-1115D01*
X82571Y-1109D01*
X82659Y-1006D01*
X82738Y-910D01*
X82807Y-820D01*
X82868Y-736D01*
X82924Y-663D01*
X82970Y-596D01*
X83008Y-536D01*
X83039Y-487D01*
X83067Y-440D01*
X83090Y-397D01*
X83107Y-365D01*
X83115Y-339D01*
X83126Y-317D01*
X83129Y-302D01*
X83135Y-291D01*
X83146Y-223D01*
X83149Y-160D01*
X83135Y-103D01*
X83124Y-51D01*
X83111Y-13D01*
X83093Y21D01*
X83080Y39D01*
X83077Y43D01*
X83031Y98D01*
X82979Y134D01*
X82929Y166D01*
X82877Y182D01*
X82836Y193D01*
X82798Y200D01*
X82775Y203D01*
X82768Y205D01*
X82648Y193D01*
X82531Y170D01*
X82414Y127D01*
X82312Y81D01*
X82222Y30D01*
X82183Y9D01*
X82149Y-9D01*
X82126Y-25D01*
X82109Y-37D01*
X82095Y-47D01*
X82091Y-50D01*
X81969Y-143D01*
X81875Y-237D01*
X81802Y-323D01*
X81746Y-403D01*
X81707Y-471D01*
X81683Y-522D01*
X81674Y-556D01*
X81668Y-566D01*
X81647Y-669D01*
X81649Y-775D01*
X81662Y-879D01*
X81682Y-972D01*
X81707Y-1055D01*
X81721Y-1092D01*
X81731Y-1125D01*
X81739Y-1146D01*
X81752Y-1164D01*
X81754Y-1176D01*
X81757Y-1180D01*
X80908Y-1739D01*
X80844Y-1630D01*
X80787Y-1523D01*
X80743Y-1414D01*
X80714Y-1307D01*
X80688Y-1205D01*
X80670Y-1104D01*
X80658Y-1012D01*
X80649Y-924D01*
X80651Y-842D01*
X80651Y-768D01*
X80651Y-702D01*
X80660Y-648D01*
X80667Y-603D01*
X80669Y-568D01*
X80676Y-549D01*
X80678Y-542D01*
X80709Y-426D01*
X80758Y-316D01*
X80817Y-201D01*
X80882Y-94D01*
X80953Y3D01*
X81032Y100D01*
X81113Y192D01*
X81190Y273D01*
X81266Y354D01*
X81344Y423D01*
X81409Y483D01*
X81472Y535D01*
X81518Y574D01*
X81558Y603D01*
X81585Y622D01*
X81589Y625D01*
X81594Y628D01*
X81770Y747D01*
X81852Y792D01*
X81938Y841D01*
X82019Y878D01*
X82092Y917D01*
X82159Y945D01*
X82227Y972D01*
X82293Y993D01*
X82347Y1011D01*
X82389Y1027D01*
X82434Y1040D01*
X82462Y1046D01*
X82491Y1053D01*
X82503Y1055D01*
X82507Y1059D01*
X82664Y1083D01*
X82818Y1093D01*
X82950Y1086D01*
D02*
G37*
G36*
X82181Y-5244D02*
X81354Y-5834D01*
X80251Y-4287D01*
X79713Y-4670D01*
X79610Y-4743D01*
X79510Y-4809D01*
X79421Y-4872D01*
X79333Y-4928D01*
X79254Y-4977D01*
X79180Y-5024D01*
X79110Y-5067D01*
X79046Y-5099D01*
X78994Y-5130D01*
X78946Y-5157D01*
X78903Y-5181D01*
X78869Y-5199D01*
X78843Y-5210D01*
X78826Y-5223D01*
X78813Y-5225D01*
X78809Y-5228D01*
X78713Y-5263D01*
X78614Y-5293D01*
X78521Y-5313D01*
X78436Y-5326D01*
X78356Y-5336D01*
X78298Y-5338D01*
X78258Y-5339D01*
X78250Y-5338D01*
X78246Y-5341D01*
X78126Y-5333D01*
X78007Y-5317D01*
X77902Y-5291D01*
X77804Y-5267D01*
X77723Y-5238D01*
X77662Y-5208D01*
X77636Y-5200D01*
X77617Y-5193D01*
X77609Y-5191D01*
X77606Y-5187D01*
X77489Y-5116D01*
X77377Y-5035D01*
X77279Y-4944D01*
X77192Y-4859D01*
X77152Y-4813D01*
X77119Y-4777D01*
X77086Y-4740D01*
X77060Y-4712D01*
X77040Y-4685D01*
X77028Y-4667D01*
X77018Y-4654D01*
X77015Y-4650D01*
X76956Y-4558D01*
X76897Y-4465D01*
X76854Y-4376D01*
X76813Y-4291D01*
X76780Y-4207D01*
X76755Y-4124D01*
X76736Y-4051D01*
X76717Y-3977D01*
X76704Y-3912D01*
X76698Y-3857D01*
X76687Y-3804D01*
X76687Y-3757D01*
X76684Y-3725D01*
X76685Y-3698D01*
X76683Y-3686D01*
X76684Y-3678D01*
X76688Y-3589D01*
X76702Y-3505D01*
X76719Y-3426D01*
X76740Y-3343D01*
X76788Y-3202D01*
X76843Y-3082D01*
X76894Y-2985D01*
X76920Y-2947D01*
X76942Y-2911D01*
X76958Y-2886D01*
X76973Y-2869D01*
X76983Y-2855D01*
X76987Y-2852D01*
X77030Y-2808D01*
X77078Y-2754D01*
X77138Y-2697D01*
X77211Y-2639D01*
X77288Y-2577D01*
X77361Y-2512D01*
X77527Y-2387D01*
X77604Y-2325D01*
X77675Y-2274D01*
X77743Y-2219D01*
X77805Y-2175D01*
X77854Y-2140D01*
X77894Y-2111D01*
X77916Y-2096D01*
X77925Y-2089D01*
X79254Y-1141D01*
X82181Y-5244D01*
D02*
G37*
G36*
X-139054Y-29396D02*
X-137401D01*
Y-30530D01*
X-139054D01*
Y-32162D01*
X-140153D01*
Y-30530D01*
X-141806D01*
Y-29396D01*
X-140153D01*
Y-27764D01*
X-139054D01*
Y-29396D01*
D02*
G37*
G36*
X28750Y-113833D02*
X35039D01*
Y-115358D01*
X28750D01*
Y-117588D01*
X27471D01*
Y-111586D01*
X28750D01*
Y-113833D01*
D02*
G37*
G36*
X35039Y-105329D02*
X33317Y-105961D01*
Y-108986D01*
X35039Y-109651D01*
Y-111315D01*
X27471Y-108281D01*
Y-106658D01*
X35039Y-103714D01*
Y-105329D01*
D02*
G37*
G36*
Y-99425D02*
Y-99688D01*
X35031Y-99925D01*
Y-100139D01*
Y-100327D01*
X35023Y-100499D01*
Y-100647D01*
X35015Y-100778D01*
Y-100893D01*
X35007Y-100983D01*
Y-101065D01*
X34998Y-101131D01*
Y-101180D01*
X34990Y-101221D01*
Y-101246D01*
Y-101254D01*
Y-101262D01*
X34957Y-101483D01*
X34908Y-101680D01*
X34851Y-101861D01*
X34785Y-102008D01*
X34728Y-102123D01*
X34703Y-102172D01*
X34687Y-102213D01*
X34662Y-102246D01*
X34646Y-102271D01*
X34638Y-102279D01*
Y-102287D01*
X34523Y-102435D01*
X34392Y-102566D01*
X34260Y-102681D01*
X34137Y-102771D01*
X34031Y-102845D01*
X33941Y-102902D01*
X33908Y-102918D01*
X33883Y-102935D01*
X33867Y-102943D01*
X33859D01*
X33670Y-103025D01*
X33490Y-103082D01*
X33326Y-103132D01*
X33170Y-103156D01*
X33039Y-103173D01*
X32981Y-103181D01*
X32940Y-103189D01*
X32727D01*
X32612Y-103173D01*
X32391Y-103132D01*
X32202Y-103066D01*
X32030Y-103000D01*
X31964Y-102968D01*
X31899Y-102935D01*
X31841Y-102902D01*
X31792Y-102869D01*
X31759Y-102845D01*
X31735Y-102828D01*
X31718Y-102820D01*
X31710Y-102812D01*
X31538Y-102664D01*
X31399Y-102492D01*
X31276Y-102312D01*
X31185Y-102148D01*
X31112Y-101992D01*
X31087Y-101926D01*
X31062Y-101869D01*
X31046Y-101820D01*
X31030Y-101787D01*
X31021Y-101762D01*
Y-101754D01*
X30931Y-101926D01*
X30825Y-102082D01*
X30710Y-102213D01*
X30603Y-102328D01*
X30505Y-102418D01*
X30431Y-102484D01*
X30398Y-102500D01*
X30374Y-102517D01*
X30365Y-102533D01*
X30357D01*
X30185Y-102631D01*
X30021Y-102697D01*
X29857Y-102746D01*
X29701Y-102787D01*
X29570Y-102804D01*
X29521Y-102812D01*
X29472D01*
X29431Y-102820D01*
X29381D01*
X29201Y-102812D01*
X29037Y-102787D01*
X28881Y-102746D01*
X28750Y-102705D01*
X28643Y-102656D01*
X28561Y-102623D01*
X28537Y-102607D01*
X28512Y-102590D01*
X28504Y-102582D01*
X28496D01*
X28356Y-102492D01*
X28233Y-102394D01*
X28127Y-102295D01*
X28028Y-102205D01*
X27963Y-102123D01*
X27905Y-102057D01*
X27873Y-102016D01*
X27864Y-102008D01*
Y-102000D01*
X27782Y-101869D01*
X27717Y-101729D01*
X27659Y-101598D01*
X27618Y-101475D01*
X27586Y-101369D01*
X27569Y-101287D01*
X27561Y-101254D01*
X27553Y-101229D01*
Y-101221D01*
Y-101213D01*
X27536Y-101123D01*
X27528Y-101032D01*
X27504Y-100819D01*
X27487Y-100598D01*
X27479Y-100376D01*
Y-100278D01*
X27471Y-100180D01*
Y-100098D01*
Y-100024D01*
Y-99958D01*
Y-99917D01*
Y-99884D01*
Y-99876D01*
Y-96850D01*
X35039D01*
Y-99425D01*
D02*
G37*
G36*
X-128346Y-30603D02*
X-130722D01*
Y-29394D01*
X-128346D01*
Y-30603D01*
D02*
G37*
G36*
X3185Y-64279D02*
X-3588D01*
Y-50961D01*
X3185D01*
Y-64279D01*
D02*
G37*
G36*
X2429Y56664D02*
X8964D01*
Y52262D01*
X2429D01*
Y45646D01*
X-2109D01*
Y52262D01*
X-8643D01*
Y56664D01*
X-2109D01*
Y63280D01*
X2429D01*
Y56664D01*
D02*
G37*
G36*
X-47212Y102613D02*
X-48708D01*
Y98426D01*
X-49724D01*
Y102613D01*
X-51209D01*
Y103465D01*
X-47212D01*
Y102613D01*
D02*
G37*
G36*
X35433Y117899D02*
X33711Y117268D01*
Y114242D01*
X35433Y113578D01*
Y111913D01*
X27865Y114947D01*
Y116571D01*
X35433Y119515D01*
Y117899D01*
D02*
G37*
G36*
X-41971Y98426D02*
X-43046D01*
X-43467Y99572D01*
X-45482D01*
X-45924Y98426D01*
X-47032D01*
X-45012Y103465D01*
X-43931D01*
X-41971Y98426D01*
D02*
G37*
G36*
X-52967Y101363D02*
X-51646D01*
Y100457D01*
X-52967D01*
Y99152D01*
X-53846D01*
Y100457D01*
X-55168D01*
Y101363D01*
X-53846D01*
Y102668D01*
X-52967D01*
Y101363D01*
D02*
G37*
G36*
X-37401Y98426D02*
X-39290D01*
X-39448Y98431D01*
X-39716D01*
X-39830Y98436D01*
X-39929D01*
X-40016Y98442D01*
X-40093D01*
X-40153Y98447D01*
X-40207D01*
X-40251Y98453D01*
X-40284D01*
X-40311Y98458D01*
X-40338D01*
X-40486Y98480D01*
X-40617Y98513D01*
X-40737Y98551D01*
X-40835Y98595D01*
X-40912Y98633D01*
X-40944Y98650D01*
X-40972Y98660D01*
X-40993Y98677D01*
X-41010Y98688D01*
X-41015Y98693D01*
X-41021D01*
X-41119Y98770D01*
X-41206Y98857D01*
X-41283Y98944D01*
X-41343Y99026D01*
X-41392Y99097D01*
X-41430Y99157D01*
X-41441Y99179D01*
X-41452Y99195D01*
X-41458Y99206D01*
Y99212D01*
X-41512Y99337D01*
X-41550Y99458D01*
X-41583Y99567D01*
X-41600Y99670D01*
X-41610Y99758D01*
X-41616Y99796D01*
X-41621Y99823D01*
Y99851D01*
Y99867D01*
Y99878D01*
Y99883D01*
Y99965D01*
X-41610Y100042D01*
X-41583Y100189D01*
X-41539Y100315D01*
X-41496Y100429D01*
X-41474Y100473D01*
X-41452Y100517D01*
X-41430Y100555D01*
X-41408Y100588D01*
X-41392Y100610D01*
X-41381Y100626D01*
X-41376Y100637D01*
X-41370Y100642D01*
X-41272Y100757D01*
X-41157Y100850D01*
X-41037Y100932D01*
X-40928Y100992D01*
X-40824Y101041D01*
X-40780Y101057D01*
X-40742Y101074D01*
X-40710Y101085D01*
X-40688Y101095D01*
X-40671Y101101D01*
X-40666D01*
X-40780Y101161D01*
X-40884Y101232D01*
X-40972Y101309D01*
X-41048Y101380D01*
X-41108Y101445D01*
X-41152Y101494D01*
X-41163Y101516D01*
X-41174Y101532D01*
X-41185Y101538D01*
Y101543D01*
X-41250Y101658D01*
X-41294Y101767D01*
X-41326Y101876D01*
X-41354Y101980D01*
X-41365Y102067D01*
X-41370Y102100D01*
Y102133D01*
X-41376Y102160D01*
Y102177D01*
Y102188D01*
Y102193D01*
X-41370Y102313D01*
X-41354Y102422D01*
X-41326Y102526D01*
X-41299Y102613D01*
X-41267Y102684D01*
X-41245Y102739D01*
X-41234Y102755D01*
X-41223Y102772D01*
X-41217Y102777D01*
Y102783D01*
X-41157Y102875D01*
X-41092Y102957D01*
X-41026Y103028D01*
X-40966Y103094D01*
X-40912Y103138D01*
X-40868Y103176D01*
X-40841Y103198D01*
X-40835Y103203D01*
X-40830D01*
X-40742Y103258D01*
X-40650Y103301D01*
X-40562Y103340D01*
X-40480Y103367D01*
X-40409Y103389D01*
X-40355Y103400D01*
X-40333Y103405D01*
X-40316Y103411D01*
X-40306D01*
X-40245Y103421D01*
X-40185Y103427D01*
X-40043Y103443D01*
X-39896Y103454D01*
X-39749Y103460D01*
X-39683D01*
X-39617Y103465D01*
X-37401D01*
Y98426D01*
D02*
G37*
G36*
X35433Y123803D02*
Y123541D01*
X35425Y123303D01*
Y123090D01*
Y122901D01*
X35417Y122729D01*
Y122581D01*
X35408Y122450D01*
Y122335D01*
X35400Y122245D01*
Y122163D01*
X35392Y122098D01*
Y122048D01*
X35384Y122007D01*
Y121983D01*
Y121975D01*
Y121966D01*
X35351Y121745D01*
X35302Y121548D01*
X35245Y121368D01*
X35179Y121220D01*
X35122Y121105D01*
X35097Y121056D01*
X35081Y121015D01*
X35056Y120982D01*
X35039Y120958D01*
X35031Y120949D01*
Y120941D01*
X34916Y120794D01*
X34785Y120663D01*
X34654Y120548D01*
X34531Y120457D01*
X34424Y120384D01*
X34334Y120326D01*
X34301Y120310D01*
X34277Y120294D01*
X34260Y120285D01*
X34252D01*
X34064Y120203D01*
X33883Y120146D01*
X33719Y120097D01*
X33564Y120072D01*
X33432Y120056D01*
X33375Y120048D01*
X33334Y120039D01*
X33121D01*
X33006Y120056D01*
X32785Y120097D01*
X32596Y120162D01*
X32424Y120228D01*
X32358Y120261D01*
X32293Y120294D01*
X32235Y120326D01*
X32186Y120359D01*
X32153Y120384D01*
X32129Y120400D01*
X32112Y120408D01*
X32104Y120417D01*
X31932Y120564D01*
X31792Y120736D01*
X31669Y120917D01*
X31579Y121081D01*
X31505Y121237D01*
X31481Y121302D01*
X31456Y121360D01*
X31440Y121409D01*
X31423Y121442D01*
X31415Y121466D01*
Y121474D01*
X31325Y121302D01*
X31218Y121146D01*
X31104Y121015D01*
X30997Y120900D01*
X30898Y120810D01*
X30825Y120745D01*
X30792Y120728D01*
X30767Y120712D01*
X30759Y120695D01*
X30751D01*
X30579Y120597D01*
X30415Y120531D01*
X30251Y120482D01*
X30095Y120441D01*
X29964Y120425D01*
X29915Y120417D01*
X29865D01*
X29824Y120408D01*
X29775D01*
X29595Y120417D01*
X29431Y120441D01*
X29275Y120482D01*
X29144Y120523D01*
X29037Y120572D01*
X28955Y120605D01*
X28931Y120622D01*
X28906Y120638D01*
X28898Y120646D01*
X28890D01*
X28750Y120736D01*
X28627Y120835D01*
X28521Y120933D01*
X28422Y121023D01*
X28357Y121105D01*
X28299Y121171D01*
X28266Y121212D01*
X28258Y121220D01*
Y121228D01*
X28176Y121360D01*
X28111Y121499D01*
X28053Y121630D01*
X28012Y121753D01*
X27979Y121860D01*
X27963Y121942D01*
X27955Y121975D01*
X27946Y121999D01*
Y122007D01*
Y122016D01*
X27930Y122106D01*
X27922Y122196D01*
X27897Y122409D01*
X27881Y122631D01*
X27873Y122852D01*
Y122950D01*
X27865Y123049D01*
Y123131D01*
Y123205D01*
Y123270D01*
Y123311D01*
Y123344D01*
Y123352D01*
Y126378D01*
X35433D01*
Y123803D01*
D02*
G37*
G36*
X-37401Y133859D02*
X-39290D01*
X-39448Y133864D01*
X-39716D01*
X-39830Y133870D01*
X-39929D01*
X-40016Y133875D01*
X-40093D01*
X-40153Y133880D01*
X-40207D01*
X-40251Y133886D01*
X-40284D01*
X-40311Y133891D01*
X-40338D01*
X-40486Y133913D01*
X-40617Y133946D01*
X-40737Y133984D01*
X-40835Y134028D01*
X-40912Y134066D01*
X-40944Y134082D01*
X-40972Y134093D01*
X-40993Y134110D01*
X-41010Y134121D01*
X-41015Y134126D01*
X-41021D01*
X-41119Y134203D01*
X-41206Y134290D01*
X-41283Y134377D01*
X-41343Y134459D01*
X-41392Y134530D01*
X-41430Y134590D01*
X-41441Y134612D01*
X-41452Y134628D01*
X-41458Y134640D01*
Y134645D01*
X-41512Y134771D01*
X-41550Y134891D01*
X-41583Y135000D01*
X-41600Y135103D01*
X-41610Y135191D01*
X-41616Y135229D01*
X-41621Y135256D01*
Y135284D01*
Y135300D01*
Y135311D01*
Y135317D01*
Y135398D01*
X-41610Y135475D01*
X-41583Y135622D01*
X-41539Y135748D01*
X-41496Y135863D01*
X-41474Y135906D01*
X-41452Y135950D01*
X-41430Y135988D01*
X-41408Y136021D01*
X-41392Y136043D01*
X-41381Y136059D01*
X-41376Y136070D01*
X-41370Y136075D01*
X-41272Y136190D01*
X-41157Y136283D01*
X-41037Y136365D01*
X-40928Y136425D01*
X-40824Y136474D01*
X-40780Y136490D01*
X-40742Y136507D01*
X-40710Y136518D01*
X-40688Y136529D01*
X-40671Y136534D01*
X-40666D01*
X-40780Y136594D01*
X-40884Y136665D01*
X-40972Y136742D01*
X-41048Y136812D01*
X-41108Y136878D01*
X-41152Y136927D01*
X-41163Y136949D01*
X-41174Y136965D01*
X-41185Y136971D01*
Y136976D01*
X-41250Y137091D01*
X-41294Y137200D01*
X-41326Y137309D01*
X-41354Y137413D01*
X-41365Y137501D01*
X-41370Y137533D01*
Y137566D01*
X-41376Y137593D01*
Y137610D01*
Y137621D01*
Y137626D01*
X-41370Y137746D01*
X-41354Y137855D01*
X-41326Y137959D01*
X-41299Y138047D01*
X-41267Y138118D01*
X-41245Y138172D01*
X-41234Y138188D01*
X-41223Y138205D01*
X-41217Y138210D01*
Y138216D01*
X-41157Y138309D01*
X-41092Y138391D01*
X-41026Y138461D01*
X-40966Y138527D01*
X-40912Y138571D01*
X-40868Y138609D01*
X-40841Y138631D01*
X-40835Y138636D01*
X-40830D01*
X-40742Y138691D01*
X-40650Y138734D01*
X-40562Y138773D01*
X-40480Y138800D01*
X-40409Y138822D01*
X-40355Y138833D01*
X-40333Y138838D01*
X-40316Y138844D01*
X-40306D01*
X-40245Y138855D01*
X-40185Y138860D01*
X-40043Y138876D01*
X-39896Y138887D01*
X-39749Y138893D01*
X-39683D01*
X-39617Y138898D01*
X-37401D01*
Y133859D01*
D02*
G37*
G36*
X-41971D02*
X-43046D01*
X-43467Y135005D01*
X-45482D01*
X-45924Y133859D01*
X-47032D01*
X-45012Y138898D01*
X-43931D01*
X-41971Y133859D01*
D02*
G37*
G36*
X32383Y103000D02*
X34343D01*
Y101680D01*
X32383D01*
Y99695D01*
X31021D01*
Y101680D01*
X29062D01*
Y103000D01*
X31021D01*
Y104984D01*
X32383D01*
Y103000D01*
D02*
G37*
G36*
X-51744Y135202D02*
X-53644D01*
Y136168D01*
X-51744D01*
Y135202D01*
D02*
G37*
G36*
X29144Y109396D02*
X35433D01*
Y107871D01*
X29144D01*
Y105640D01*
X27865D01*
Y111643D01*
X29144D01*
Y109396D01*
D02*
G37*
%LPC*%
G36*
X30874Y124853D02*
X29127D01*
Y123975D01*
Y123778D01*
Y123606D01*
Y123451D01*
X29136Y123311D01*
Y123196D01*
Y123090D01*
X29144Y122991D01*
Y122918D01*
Y122852D01*
X29152Y122795D01*
Y122754D01*
Y122721D01*
X29160Y122696D01*
Y122680D01*
Y122672D01*
X29185Y122532D01*
X29217Y122417D01*
X29258Y122319D01*
X29308Y122237D01*
X29349Y122171D01*
X29390Y122122D01*
X29414Y122098D01*
X29423Y122089D01*
X29513Y122024D01*
X29603Y121975D01*
X29701Y121942D01*
X29792Y121917D01*
X29865Y121901D01*
X29931Y121893D01*
X29988D01*
X30119Y121901D01*
X30234Y121925D01*
X30341Y121966D01*
X30423Y122007D01*
X30497Y122048D01*
X30546Y122089D01*
X30579Y122114D01*
X30587Y122122D01*
X30661Y122212D01*
X30718Y122311D01*
X30767Y122417D01*
X30800Y122516D01*
X30825Y122598D01*
X30841Y122672D01*
X30849Y122721D01*
Y122729D01*
Y122737D01*
Y122786D01*
X30858Y122852D01*
Y122926D01*
X30866Y123008D01*
Y123188D01*
X30874Y123377D01*
Y123557D01*
Y123639D01*
Y123713D01*
Y123770D01*
Y123811D01*
Y123844D01*
Y123852D01*
Y124853D01*
D02*
G37*
G36*
X34154D02*
X32137D01*
Y123623D01*
Y123434D01*
X32145Y123262D01*
Y123106D01*
X32153Y122967D01*
X32161Y122844D01*
X32169Y122729D01*
X32186Y122631D01*
X32194Y122549D01*
X32202Y122475D01*
X32219Y122417D01*
X32227Y122368D01*
X32235Y122327D01*
X32243Y122294D01*
Y122278D01*
X32252Y122262D01*
X32301Y122155D01*
X32350Y122056D01*
X32407Y121975D01*
X32465Y121909D01*
X32514Y121852D01*
X32555Y121819D01*
X32588Y121794D01*
X32596Y121786D01*
X32686Y121729D01*
X32785Y121688D01*
X32883Y121655D01*
X32973Y121638D01*
X33047Y121622D01*
X33112Y121614D01*
X33170D01*
X33309Y121622D01*
X33441Y121647D01*
X33547Y121688D01*
X33637Y121720D01*
X33711Y121761D01*
X33768Y121802D01*
X33801Y121827D01*
X33810Y121835D01*
X33891Y121917D01*
X33957Y122016D01*
X34006Y122106D01*
X34047Y122196D01*
X34080Y122270D01*
X34097Y122335D01*
X34113Y122376D01*
Y122393D01*
X34121Y122442D01*
X34129Y122499D01*
Y122573D01*
X34137Y122647D01*
X34146Y122819D01*
Y123000D01*
X34154Y123172D01*
Y123246D01*
Y123311D01*
Y123360D01*
Y123409D01*
Y123434D01*
Y123442D01*
Y124853D01*
D02*
G37*
G36*
X32432Y116800D02*
X29627Y115775D01*
X32432Y114726D01*
Y116800D01*
D02*
G37*
G36*
X32038Y-106428D02*
X29234Y-107453D01*
X32038Y-108503D01*
Y-106428D01*
D02*
G37*
G36*
X-38416Y138057D02*
X-39350D01*
X-39443Y138052D01*
X-39590D01*
X-39656Y138047D01*
X-39749D01*
X-39787Y138041D01*
X-39836D01*
X-39852Y138036D01*
X-39869D01*
X-39961Y138019D01*
X-40038Y137997D01*
X-40104Y137970D01*
X-40158Y137937D01*
X-40202Y137910D01*
X-40235Y137883D01*
X-40251Y137866D01*
X-40256Y137861D01*
X-40300Y137801D01*
X-40333Y137741D01*
X-40355Y137675D01*
X-40371Y137615D01*
X-40382Y137566D01*
X-40387Y137522D01*
Y137495D01*
Y137484D01*
X-40382Y137397D01*
X-40366Y137320D01*
X-40338Y137249D01*
X-40311Y137195D01*
X-40284Y137146D01*
X-40256Y137113D01*
X-40240Y137091D01*
X-40235Y137085D01*
X-40174Y137036D01*
X-40109Y136998D01*
X-40038Y136965D01*
X-39972Y136944D01*
X-39918Y136927D01*
X-39869Y136916D01*
X-39836Y136911D01*
X-39792D01*
X-39749Y136905D01*
X-39700D01*
X-39645Y136900D01*
X-39525D01*
X-39399Y136894D01*
X-38416D01*
Y138057D01*
D02*
G37*
G36*
X-44461Y137724D02*
X-45159Y135857D01*
X-43778D01*
X-44461Y137724D01*
D02*
G37*
G36*
X-38416Y100620D02*
X-39361D01*
X-39476Y100615D01*
X-39579D01*
X-39672Y100610D01*
X-39754Y100604D01*
X-39830Y100599D01*
X-39896Y100588D01*
X-39951Y100582D01*
X-40000Y100577D01*
X-40038Y100566D01*
X-40071Y100560D01*
X-40098Y100555D01*
X-40120Y100549D01*
X-40131D01*
X-40142Y100544D01*
X-40213Y100511D01*
X-40278Y100479D01*
X-40333Y100440D01*
X-40376Y100402D01*
X-40415Y100369D01*
X-40437Y100342D01*
X-40453Y100320D01*
X-40458Y100315D01*
X-40497Y100255D01*
X-40524Y100189D01*
X-40546Y100124D01*
X-40557Y100064D01*
X-40568Y100014D01*
X-40573Y99971D01*
Y99944D01*
Y99933D01*
X-40568Y99840D01*
X-40551Y99752D01*
X-40524Y99681D01*
X-40502Y99621D01*
X-40475Y99572D01*
X-40448Y99534D01*
X-40431Y99512D01*
X-40426Y99507D01*
X-40371Y99452D01*
X-40306Y99408D01*
X-40245Y99376D01*
X-40185Y99348D01*
X-40136Y99326D01*
X-40093Y99316D01*
X-40065Y99305D01*
X-40054D01*
X-40022Y99299D01*
X-39983Y99294D01*
X-39934D01*
X-39885Y99288D01*
X-39770Y99283D01*
X-39650D01*
X-39536Y99277D01*
X-38416D01*
Y100620D01*
D02*
G37*
G36*
Y102624D02*
X-39350D01*
X-39443Y102619D01*
X-39590D01*
X-39656Y102613D01*
X-39749D01*
X-39787Y102608D01*
X-39836D01*
X-39852Y102603D01*
X-39869D01*
X-39961Y102586D01*
X-40038Y102564D01*
X-40104Y102537D01*
X-40158Y102504D01*
X-40202Y102477D01*
X-40235Y102450D01*
X-40251Y102433D01*
X-40256Y102428D01*
X-40300Y102368D01*
X-40333Y102308D01*
X-40355Y102242D01*
X-40371Y102182D01*
X-40382Y102133D01*
X-40387Y102089D01*
Y102062D01*
Y102051D01*
X-40382Y101964D01*
X-40366Y101887D01*
X-40338Y101816D01*
X-40311Y101762D01*
X-40284Y101713D01*
X-40256Y101680D01*
X-40240Y101658D01*
X-40235Y101653D01*
X-40174Y101603D01*
X-40109Y101565D01*
X-40038Y101532D01*
X-39972Y101511D01*
X-39918Y101494D01*
X-39869Y101483D01*
X-39836Y101478D01*
X-39792D01*
X-39749Y101472D01*
X-39700D01*
X-39645Y101467D01*
X-39525D01*
X-39399Y101461D01*
X-38416D01*
Y102624D01*
D02*
G37*
G36*
X-44461Y102291D02*
X-45159Y100424D01*
X-43778D01*
X-44461Y102291D01*
D02*
G37*
G36*
X30480Y-98376D02*
X28734D01*
Y-99253D01*
Y-99450D01*
Y-99622D01*
Y-99778D01*
X28742Y-99917D01*
Y-100032D01*
Y-100139D01*
X28750Y-100237D01*
Y-100311D01*
Y-100376D01*
X28758Y-100434D01*
Y-100475D01*
Y-100508D01*
X28766Y-100532D01*
Y-100549D01*
Y-100557D01*
X28791Y-100696D01*
X28824Y-100811D01*
X28865Y-100909D01*
X28914Y-100991D01*
X28955Y-101057D01*
X28996Y-101106D01*
X29021Y-101131D01*
X29029Y-101139D01*
X29119Y-101205D01*
X29209Y-101254D01*
X29308Y-101287D01*
X29398Y-101311D01*
X29472Y-101328D01*
X29537Y-101336D01*
X29595D01*
X29726Y-101328D01*
X29841Y-101303D01*
X29947Y-101262D01*
X30029Y-101221D01*
X30103Y-101180D01*
X30152Y-101139D01*
X30185Y-101114D01*
X30193Y-101106D01*
X30267Y-101016D01*
X30324Y-100918D01*
X30374Y-100811D01*
X30406Y-100713D01*
X30431Y-100631D01*
X30447Y-100557D01*
X30456Y-100508D01*
Y-100499D01*
Y-100491D01*
Y-100442D01*
X30464Y-100376D01*
Y-100303D01*
X30472Y-100221D01*
Y-100040D01*
X30480Y-99852D01*
Y-99671D01*
Y-99589D01*
Y-99515D01*
Y-99458D01*
Y-99417D01*
Y-99384D01*
Y-99376D01*
Y-98376D01*
D02*
G37*
G36*
X33760D02*
X31743D01*
Y-99606D01*
Y-99794D01*
X31751Y-99966D01*
Y-100122D01*
X31759Y-100262D01*
X31768Y-100385D01*
X31776Y-100499D01*
X31792Y-100598D01*
X31800Y-100680D01*
X31809Y-100754D01*
X31825Y-100811D01*
X31833Y-100860D01*
X31841Y-100901D01*
X31850Y-100934D01*
Y-100950D01*
X31858Y-100967D01*
X31907Y-101073D01*
X31956Y-101172D01*
X32014Y-101254D01*
X32071Y-101319D01*
X32120Y-101377D01*
X32161Y-101410D01*
X32194Y-101434D01*
X32202Y-101442D01*
X32292Y-101500D01*
X32391Y-101541D01*
X32489Y-101574D01*
X32579Y-101590D01*
X32653Y-101606D01*
X32719Y-101615D01*
X32776D01*
X32916Y-101606D01*
X33047Y-101582D01*
X33153Y-101541D01*
X33244Y-101508D01*
X33317Y-101467D01*
X33375Y-101426D01*
X33408Y-101401D01*
X33416Y-101393D01*
X33498Y-101311D01*
X33563Y-101213D01*
X33613Y-101123D01*
X33654Y-101032D01*
X33686Y-100959D01*
X33703Y-100893D01*
X33719Y-100852D01*
Y-100836D01*
X33727Y-100786D01*
X33736Y-100729D01*
Y-100655D01*
X33744Y-100581D01*
X33752Y-100409D01*
Y-100229D01*
X33760Y-100057D01*
Y-99983D01*
Y-99917D01*
Y-99868D01*
Y-99819D01*
Y-99794D01*
Y-99786D01*
Y-98376D01*
D02*
G37*
G36*
X70961Y-8103D02*
X70316Y-8563D01*
X70227Y-8626D01*
X70143Y-8686D01*
X70072Y-8737D01*
X70013Y-8786D01*
X69955Y-8827D01*
X69906Y-8862D01*
X69865Y-8898D01*
X69829Y-8924D01*
X69798Y-8946D01*
X69779Y-8966D01*
X69761Y-8979D01*
X69744Y-8991D01*
X69729Y-9008D01*
X69725Y-9012D01*
X69666Y-9080D01*
X69615Y-9150D01*
X69578Y-9210D01*
X69555Y-9273D01*
X69536Y-9321D01*
X69529Y-9359D01*
X69524Y-9389D01*
X69523Y-9397D01*
X69525Y-9476D01*
X69537Y-9548D01*
X69553Y-9617D01*
X69577Y-9680D01*
X69603Y-9735D01*
X69624Y-9774D01*
X69643Y-9800D01*
X69647Y-9805D01*
X69650Y-9809D01*
X69702Y-9873D01*
X69755Y-9929D01*
X69806Y-9973D01*
X69851Y-10008D01*
X69895Y-10030D01*
X69927Y-10048D01*
X69949Y-10059D01*
X69956Y-10060D01*
X70023Y-10079D01*
X70084Y-10090D01*
X70147Y-10092D01*
X70202Y-10086D01*
X70246Y-10081D01*
X70282Y-10076D01*
X70303Y-10068D01*
X70315Y-10066D01*
X70353Y-10052D01*
X70404Y-10029D01*
X70456Y-9999D01*
X70512Y-9966D01*
X70639Y-9889D01*
X70774Y-9806D01*
X70836Y-9761D01*
X70894Y-9720D01*
X70950Y-9686D01*
X70999Y-9652D01*
X71035Y-9626D01*
X71066Y-9604D01*
X71084Y-9591D01*
X71093Y-9585D01*
X71706Y-9148D01*
X70961Y-8103D01*
D02*
G37*
G36*
X-38416Y136054D02*
X-39361D01*
X-39476Y136048D01*
X-39579D01*
X-39672Y136043D01*
X-39754Y136037D01*
X-39830Y136032D01*
X-39896Y136021D01*
X-39951Y136015D01*
X-40000Y136010D01*
X-40038Y135999D01*
X-40071Y135994D01*
X-40098Y135988D01*
X-40120Y135983D01*
X-40131D01*
X-40142Y135977D01*
X-40213Y135944D01*
X-40278Y135912D01*
X-40333Y135873D01*
X-40376Y135835D01*
X-40415Y135802D01*
X-40437Y135775D01*
X-40453Y135753D01*
X-40458Y135748D01*
X-40497Y135688D01*
X-40524Y135622D01*
X-40546Y135557D01*
X-40557Y135497D01*
X-40568Y135448D01*
X-40573Y135404D01*
Y135377D01*
Y135366D01*
X-40568Y135273D01*
X-40551Y135185D01*
X-40524Y135115D01*
X-40502Y135054D01*
X-40475Y135005D01*
X-40448Y134967D01*
X-40431Y134945D01*
X-40426Y134940D01*
X-40371Y134885D01*
X-40306Y134842D01*
X-40245Y134809D01*
X-40185Y134781D01*
X-40136Y134760D01*
X-40093Y134749D01*
X-40065Y134738D01*
X-40054D01*
X-40022Y134732D01*
X-39983Y134727D01*
X-39934D01*
X-39885Y134721D01*
X-39770Y134716D01*
X-39650D01*
X-39536Y134710D01*
X-38416D01*
Y136054D01*
D02*
G37*
G36*
X78922Y-2424D02*
X78522Y-2710D01*
X78442Y-2767D01*
X78366Y-2821D01*
X78303Y-2873D01*
X78245Y-2914D01*
X78195Y-2956D01*
X78146Y-2991D01*
X78105Y-3027D01*
X78065Y-3056D01*
X78037Y-3083D01*
X78013Y-3106D01*
X77991Y-3122D01*
X77977Y-3139D01*
X77957Y-3159D01*
X77948Y-3166D01*
X77890Y-3234D01*
X77842Y-3308D01*
X77804Y-3376D01*
X77781Y-3439D01*
X77764Y-3499D01*
X77751Y-3548D01*
X77746Y-3578D01*
X77745Y-3586D01*
X77742Y-3675D01*
X77755Y-3760D01*
X77773Y-3841D01*
X77801Y-3908D01*
X77827Y-3963D01*
X77850Y-4014D01*
X77869Y-4041D01*
X77872Y-4045D01*
X77875Y-4050D01*
X77927Y-4113D01*
X77980Y-4169D01*
X78036Y-4210D01*
X78086Y-4242D01*
X78132Y-4269D01*
X78169Y-4283D01*
X78193Y-4299D01*
X78201Y-4300D01*
X78272Y-4324D01*
X78344Y-4332D01*
X78414Y-4336D01*
X78477Y-4338D01*
X78528Y-4335D01*
X78569Y-4326D01*
X78593Y-4323D01*
X78605Y-4321D01*
X78647Y-4304D01*
X78696Y-4289D01*
X78744Y-4262D01*
X78803Y-4233D01*
X78920Y-4170D01*
X79029Y-4098D01*
X79135Y-4030D01*
X79182Y-4002D01*
X79223Y-3974D01*
X79258Y-3948D01*
X79280Y-3933D01*
X79298Y-3920D01*
X79303Y-3917D01*
X79756Y-3593D01*
X78922Y-2424D01*
D02*
G37*
%LPD*%
D68*
X55030Y33503D02*
X55778Y34150D01*
X56374Y34939D01*
X56793Y35835D01*
X57017Y36798D01*
X57035Y37787D01*
X56846Y38758D01*
X56460Y39669D01*
X55892Y40479D01*
X55169Y41153D01*
X54321Y41661D01*
X53385Y41982D01*
X52403Y42102D01*
X51418Y42014D01*
X50473Y41723D01*
X49609Y41241D01*
X-140157Y12992D02*
X-140646Y12124D01*
X-141101Y11237D01*
X-141521Y10334D01*
X-141906Y9414D01*
X-142254Y8480D01*
X-142566Y7534D01*
X-142841Y6576D01*
X-143078Y5608D01*
X-143278Y4631D01*
X-143439Y3647D01*
X-143562Y2658D01*
X-143646Y1665D01*
X-143691Y670D01*
X-143698Y-327D01*
X-143666Y-1323D01*
X-143595Y-2317D01*
X-143485Y-3308D01*
X-143337Y-4294D01*
X-143151Y-5273D01*
X-142927Y-6244D01*
X-142665Y-7205D01*
X-142365Y-8156D01*
X-142029Y-9095D01*
X-141657Y-10019D01*
X-141249Y-10928D01*
X-140806Y-11821D01*
X-140328Y-12696D01*
X143702Y0D02*
X143682Y999D01*
X143624Y1996D01*
X143526Y2990D01*
X143390Y3979D01*
X143216Y4962D01*
X143003Y5938D01*
X142753Y6905D01*
X142464Y7861D01*
X142139Y8805D01*
X141777Y9736D01*
X141380Y10652D01*
X140946Y11552D01*
X140478Y12434D01*
X139976Y13297D01*
X139441Y14140D01*
X138873Y14961D01*
X138273Y15760D01*
X137643Y16534D01*
X136983Y17284D01*
X136294Y18007D01*
X135578Y18703D01*
X134835Y19370D01*
X134066Y20008D01*
X133274Y20615D01*
X132458Y21191D01*
X131620Y21735D01*
X130762Y22245D01*
X129884Y22722D01*
X128989Y23164D01*
X128077Y23571D01*
X127150Y23942D01*
X126209Y24276D01*
X125255Y24573D01*
X124291Y24834D01*
X123318Y25056D01*
X122336Y25240D01*
X121348Y25385D01*
X120355Y25492D01*
X119359Y25561D01*
X118361Y25590D01*
X117362Y25580D01*
X116365Y25531D01*
X115370Y25444D01*
X114379Y25317D01*
X113394Y25153D01*
X112417Y24949D01*
X111448Y24708D01*
X110489Y24429D01*
X109541Y24113D01*
X108607Y23761D01*
X107687Y23372D01*
X106783Y22947D01*
X105897Y22488D01*
X105029Y21994D01*
X104180Y21467D01*
X103354Y20907D01*
X102549Y20315D01*
X101768Y19693D01*
X101012Y19040D01*
X100283Y18359D01*
X99580Y17649D01*
X98905Y16913D01*
X98260Y16150D01*
X97645Y15363D01*
X97061Y14553D01*
X96510Y13721D01*
X95991Y12868D01*
X95505Y11995D01*
X95055Y11104D01*
X94639Y10196D01*
X94259Y9272D01*
X93916Y8335D01*
X93609Y7384D01*
X93339Y6423D01*
X93108Y5451D01*
X92914Y4471D01*
X92759Y3485D01*
X92642Y2493D01*
X92564Y1498D01*
X92525Y500D01*
Y-499D01*
X92564Y-1497D01*
X92642Y-2492D01*
X92759Y-3484D01*
X92914Y-4471D01*
X93108Y-5450D01*
X93339Y-6422D01*
X93609Y-7383D01*
X93916Y-8334D01*
X94259Y-9271D01*
X94639Y-10195D01*
X95055Y-11103D01*
X95505Y-11994D01*
X95991Y-12867D01*
X96509Y-13720D01*
X97061Y-14552D01*
X97645Y-15363D01*
X98260Y-16149D01*
X98905Y-16912D01*
X99580Y-17648D01*
X100283Y-18358D01*
X101012Y-19039D01*
X101768Y-19692D01*
X102549Y-20315D01*
X103353Y-20906D01*
X104180Y-21466D01*
X105028Y-21993D01*
X105896Y-22487D01*
X106783Y-22946D01*
X107687Y-23371D01*
X108607Y-23760D01*
X109541Y-24113D01*
X110488Y-24429D01*
X111447Y-24707D01*
X112417Y-24949D01*
X113394Y-25152D01*
X114379Y-25317D01*
X115370Y-25443D01*
X116365Y-25530D01*
X117362Y-25579D01*
X118361Y-25589D01*
X119359Y-25560D01*
X120355Y-25492D01*
X121348Y-25385D01*
X122336Y-25239D01*
X123318Y-25055D01*
X124291Y-24833D01*
X125255Y-24573D01*
X126209Y-24275D01*
X127149Y-23941D01*
X128077Y-23570D01*
X128989Y-23163D01*
X129884Y-22721D01*
X130762Y-22244D01*
X131620Y-21734D01*
X132458Y-21190D01*
X133274Y-20614D01*
X134066Y-20007D01*
X134835Y-19369D01*
X135578Y-18702D01*
X136294Y-18006D01*
X136983Y-17283D01*
X137643Y-16534D01*
X138273Y-15759D01*
X138873Y-14961D01*
X139441Y-14139D01*
X139976Y-13296D01*
X140478Y-12433D01*
X140946Y-11551D01*
X141379Y-10651D01*
X141777Y-9735D01*
X142139Y-8804D01*
X142464Y-7860D01*
X142753Y-6904D01*
X143003Y-5937D01*
X143216Y-4962D01*
X143390Y-3978D01*
X143526Y-2989D01*
X143624Y-1995D01*
X143682Y-998D01*
X143702Y0D01*
X-136791Y-17489D02*
X-136093Y-18206D01*
X-135367Y-18895D01*
X-134615Y-19556D01*
X-133838Y-20186D01*
X-133037Y-20786D01*
X-132212Y-21353D01*
X-131367Y-21889D01*
X-130501Y-22390D01*
X-129616Y-22858D01*
X-128713Y-23290D01*
X-127794Y-23687D01*
X-126861Y-24047D01*
X-125914Y-24371D01*
X-124955Y-24658D01*
X-123985Y-24906D01*
X-123007Y-25117D01*
X-122021Y-25289D01*
X-121029Y-25423D01*
X-120033Y-25518D01*
X-119034Y-25574D01*
X-118033Y-25590D01*
X-117032Y-25567D01*
X-116033Y-25506D01*
X-115038Y-25405D01*
X-114047Y-25265D01*
X-113062Y-25087D01*
X-112084Y-24871D01*
X-111117Y-24616D01*
X-110159Y-24324D01*
X-109214Y-23994D01*
X-108283Y-23628D01*
X-107367Y-23226D01*
X-106467Y-22788D01*
X-105584Y-22316D01*
X-104721Y-21809D01*
X-103879Y-21269D01*
X-103058Y-20696D01*
X-102260Y-20091D01*
X-101487Y-19456D01*
X-100739Y-18791D01*
X-100017Y-18098D01*
X-99323Y-17377D01*
X-98658Y-16629D01*
X-98023Y-15855D01*
X-97418Y-15058D01*
X-96845Y-14237D01*
X-96305Y-13395D01*
X-95798Y-12532D01*
X-95325Y-11650D01*
X-94887Y-10750D01*
X-94484Y-9834D01*
X-94118Y-8903D01*
X-93788Y-7958D01*
X-93495Y-7001D01*
X-93240Y-6033D01*
X-93023Y-5056D01*
X-92845Y-4071D01*
X-92705Y-3080D01*
X-92604Y-2084D01*
X-92542Y-1085D01*
X-92519Y-85D01*
X-92535Y916D01*
X-92591Y1915D01*
X-92685Y2912D01*
X-92818Y3903D01*
X-92990Y4889D01*
X-93201Y5868D01*
X-93449Y6837D01*
X-93735Y7796D01*
X-94059Y8743D01*
X-94419Y9677D01*
X-94815Y10596D01*
X-95248Y11499D01*
X-95715Y12384D01*
X-96216Y13250D01*
X-96751Y14096D01*
X-97318Y14920D01*
X-97918Y15722D01*
X-98548Y16500D01*
X-99208Y17252D01*
X-99897Y17978D01*
X-100614Y18676D01*
X-101358Y19346D01*
X-102127Y19986D01*
X-102920Y20596D01*
X-103737Y21174D01*
X-104576Y21720D01*
X-105436Y22232D01*
X-106315Y22711D01*
X-107212Y23155D01*
X-108126Y23563D01*
X-109055Y23935D01*
X-109998Y24271D01*
X-110953Y24570D01*
X-111919Y24831D01*
X-112895Y25054D01*
X-113878Y25239D01*
X-114868Y25385D01*
X-115863Y25492D01*
X-116862Y25561D01*
X-117862Y25590D01*
X-118863Y25580D01*
X-119863Y25531D01*
X-120860Y25443D01*
X-121852Y25316D01*
X-122839Y25150D01*
X-123819Y24946D01*
X-124790Y24703D01*
X-125751Y24423D01*
X-126700Y24106D01*
X-127636Y23752D01*
X-128558Y23361D01*
X-129463Y22934D01*
X-130351Y22473D01*
X-131220Y21977D01*
X-132070Y21448D01*
X-132898Y20885D01*
X-133703Y20291D01*
X-134485Y19666D01*
X-135241Y19011D01*
X-135971Y18326D01*
X-136674Y17614D01*
X-136674Y17613D01*
X69292Y-25984D02*
Y-21653D01*
X48820D02*
X69292D01*
X44095Y-30315D02*
Y-26378D01*
X48820Y-35039D02*
X69292D01*
Y-30708D01*
X65355Y-35039D02*
X69292Y-32283D01*
X55861Y73495D02*
X87475Y28345D01*
X55861Y73495D02*
X104236Y107367D01*
X87475Y28345D02*
X135850Y62217D01*
X27478Y72846D02*
X95203Y120267D01*
X77158Y1896D02*
X144883Y49317D01*
X27478Y72846D02*
X77158Y1896D01*
X95203Y120267D02*
X144883Y49317D01*
X25763Y73168D02*
X34470Y79265D01*
X25763Y73168D02*
X33215Y62526D01*
X-44468Y131386D02*
X-35019D01*
Y125481D02*
Y131386D01*
X-67696Y124300D02*
X-55491D01*
Y119575D02*
Y124300D01*
X-67696Y119575D02*
X-55491D01*
X-67696Y116426D02*
X-55491D01*
Y111701D02*
Y116426D01*
X-67696Y111701D02*
X-55491D01*
X-67696Y105796D02*
X-36200D01*
X-67696D02*
Y130205D01*
X-36200D01*
Y105796D02*
Y130205D01*
X67830Y-17037D02*
X73317Y-24730D01*
X67830Y-17037D02*
X72638Y-13608D01*
X85488Y-29589D02*
X92575Y-39525D01*
X85488Y-29589D02*
X89334Y-26845D01*
X96421Y-36782D01*
X91898Y-25016D02*
X98986Y-34953D01*
X91898Y-25016D02*
X95745Y-22273D01*
X102832Y-32209D01*
X89350Y-3138D02*
X107640Y-28780D01*
X87767Y-42954D02*
X107640Y-28780D01*
X69478Y-17313D02*
X87767Y-42954D01*
X69478Y-17313D02*
X89350Y-3138D01*
X-22833Y-67527D02*
X-11810D01*
X22836Y-136819D02*
Y-67527D01*
X11812D02*
X22836D01*
X-22833Y-136819D02*
X-7873D01*
Y-148236D02*
Y-136819D01*
X-22833D02*
Y-67527D01*
X7875Y-148236D02*
Y-136819D01*
X22836D01*
X-7873Y-148236D02*
X7875D01*
X-7873Y147237D02*
X7875D01*
Y135819D02*
X22836D01*
X7875D02*
Y147237D01*
X-22833Y66528D02*
Y135819D01*
X-7873D02*
Y147237D01*
X-22833Y135819D02*
X-7873D01*
X11812Y66528D02*
X22836D01*
Y135819D01*
X-22833Y66528D02*
X-11810D01*
D69*
X-145275Y-44586D02*
X-142224D01*
X-145275D02*
Y-41929D01*
X-144645Y-43976D02*
X-124645D01*
X-144645Y-33976D02*
X-124645D01*
X-144645Y-43976D02*
Y-33976D01*
X-124645Y-43976D02*
Y-33976D01*
X-144586Y-41929D02*
X-142519Y-43996D01*
D165*
X21655Y-65460D02*
Y62493D01*
X-21652Y-65460D02*
Y62493D01*
M02*
