G04*
G04 #@! TF.GenerationSoftware,Altium Limited,CircuitStudio,1.5.2 (30)*
G04*
G04 Layer_Physical_Order=3*
G04 Layer_Color=56745*
%FSLAX25Y25*%
%MOIN*%
G70*
G01*
G75*
%ADD63C,0.03150*%
G36*
X7501Y152667D02*
X14983Y152115D01*
X22429Y151196D01*
X29820Y149914D01*
X37140Y148270D01*
X44371Y146269D01*
X51494Y143916D01*
X58494Y141216D01*
X65353Y138175D01*
X72054Y134802D01*
X78582Y131105D01*
X84920Y127091D01*
X91054Y122771D01*
X96968Y118155D01*
X102649Y113255D01*
X108082Y108082D01*
X113255Y102648D01*
X118156Y96968D01*
X122771Y91053D01*
X127091Y84920D01*
X131105Y78581D01*
X134803Y72054D01*
X138176Y65352D01*
X141216Y58494D01*
X143916Y51494D01*
X146270Y44370D01*
X148270Y37140D01*
X149914Y29820D01*
X151197Y22428D01*
X152115Y14982D01*
X152667Y7500D01*
X152851Y0D01*
X152667Y-7500D01*
X152115Y-14982D01*
X151197Y-22427D01*
X149914Y-29819D01*
X148270Y-37139D01*
X146270Y-44370D01*
X143916Y-51493D01*
X141216Y-58493D01*
X138176Y-65352D01*
X134803Y-72053D01*
X131105Y-78580D01*
X127091Y-84919D01*
X122771Y-91053D01*
X118156Y-96967D01*
X113255Y-102648D01*
X108082Y-108081D01*
X102649Y-113254D01*
X96968Y-118155D01*
X91054Y-122770D01*
X84920Y-127090D01*
X78582Y-131104D01*
X72054Y-134802D01*
X65353Y-138175D01*
X58494Y-141215D01*
X51494Y-143915D01*
X44371Y-146268D01*
X37140Y-148269D01*
X29820Y-149913D01*
X22429Y-151196D01*
X14983Y-152114D01*
X7501Y-152666D01*
X1Y-152850D01*
X-7499Y-152666D01*
X-14981Y-152114D01*
X-22427Y-151196D01*
X-29819Y-149913D01*
X-37139Y-148269D01*
X-44369Y-146268D01*
X-51493Y-143915D01*
X-58492Y-141215D01*
X-65351Y-138175D01*
X-72052Y-134802D01*
X-78580Y-131104D01*
X-84918Y-127090D01*
X-91052Y-122770D01*
X-96966Y-118155D01*
X-102647Y-113254D01*
X-108081Y-108081D01*
X-113254Y-102648D01*
X-118154Y-96967D01*
X-122770Y-91053D01*
X-127090Y-84919D01*
X-131103Y-78580D01*
X-134801Y-72053D01*
X-138174Y-65352D01*
X-141215Y-58493D01*
X-143915Y-51493D01*
X-146268Y-44370D01*
X-148269Y-37139D01*
X-149913Y-29819D01*
X-150854Y-24396D01*
X-150834Y-24367D01*
X-150766Y-24022D01*
X-150834Y-23676D01*
X-151030Y-23383D01*
X-153399Y-21014D01*
X-153691Y-20819D01*
X-154037Y-20750D01*
X-160513D01*
Y-18444D01*
X-160013Y-18292D01*
X-159734Y-18711D01*
X-158952Y-19233D01*
X-158031Y-19416D01*
X-155275D01*
X-154353Y-19233D01*
X-153572Y-18711D01*
X-153050Y-17929D01*
X-152866Y-17007D01*
X-153050Y-16086D01*
X-153572Y-15304D01*
X-154353Y-14782D01*
X-155275Y-14599D01*
X-158031D01*
X-158952Y-14782D01*
X-159734Y-15304D01*
X-160013Y-15723D01*
X-160513Y-15571D01*
Y15572D01*
X-160013Y15724D01*
X-159734Y15305D01*
X-158952Y14783D01*
X-158031Y14600D01*
X-155275D01*
X-154353Y14783D01*
X-153572Y15305D01*
X-153050Y16087D01*
X-152866Y17008D01*
X-153050Y17930D01*
X-153572Y18711D01*
X-154353Y19233D01*
X-155275Y19417D01*
X-158031D01*
X-158952Y19233D01*
X-159734Y18711D01*
X-160013Y18293D01*
X-160513Y18445D01*
Y20751D01*
X-154037D01*
X-153691Y20820D01*
X-153399Y21015D01*
X-151030Y23384D01*
X-150834Y23677D01*
X-150766Y24022D01*
X-150834Y24368D01*
X-150854Y24397D01*
X-149913Y29820D01*
X-148269Y37140D01*
X-146268Y44370D01*
X-143915Y51494D01*
X-143397Y52835D01*
X-142936Y52882D01*
X-142877Y52865D01*
X-142943Y52403D01*
X-142951Y52363D01*
X-142798Y51595D01*
X-142363Y50943D01*
X-141991Y50695D01*
Y50093D01*
X-142363Y49845D01*
X-142798Y49194D01*
X-142951Y48426D01*
X-142798Y47657D01*
X-142363Y47006D01*
X-141712Y46571D01*
X-140944Y46418D01*
X-140176Y46571D01*
X-139525Y47006D01*
X-139090Y47657D01*
X-138937Y48426D01*
X-139090Y49194D01*
X-139525Y49845D01*
X-139897Y50093D01*
Y50695D01*
X-139525Y50943D01*
X-139090Y51595D01*
X-138937Y52363D01*
X-139090Y53131D01*
X-139525Y53782D01*
X-140176Y54217D01*
X-140944Y54370D01*
X-141712Y54217D01*
X-142363Y53782D01*
X-142417Y53702D01*
X-142684Y53315D01*
X-142750Y53348D01*
X-143071Y53680D01*
X-141215Y58494D01*
X-138174Y65352D01*
X-134801Y72054D01*
X-131103Y78581D01*
X-127090Y84920D01*
X-122770Y91053D01*
X-118154Y96968D01*
X-113254Y102648D01*
X-108081Y108082D01*
X-102647Y113255D01*
X-96966Y118155D01*
X-91052Y122771D01*
X-84918Y127091D01*
X-78580Y131105D01*
X-72052Y134802D01*
X-65351Y138175D01*
X-58492Y141216D01*
X-51493Y143916D01*
X-44369Y146269D01*
X-37139Y148270D01*
X-29819Y149914D01*
X-22427Y151196D01*
X-14981Y152115D01*
X-7499Y152667D01*
X1Y152851D01*
X7501Y152667D01*
D02*
G37*
%LPC*%
G36*
X46694Y-21956D02*
X45779Y-22138D01*
X45003Y-22656D01*
X44485Y-23431D01*
X44303Y-24346D01*
X44485Y-25261D01*
X45003Y-26036D01*
X45779Y-26555D01*
X46694Y-26737D01*
X47609Y-26555D01*
X48384Y-26036D01*
X48902Y-25261D01*
X49084Y-24346D01*
X48902Y-23431D01*
X48384Y-22656D01*
X47609Y-22138D01*
X46694Y-21956D01*
D02*
G37*
G36*
X-36220Y-25552D02*
X-36988Y-25704D01*
X-37639Y-26139D01*
X-38074Y-26791D01*
X-38227Y-27559D01*
X-38074Y-28327D01*
X-37639Y-28978D01*
X-36988Y-29413D01*
X-36220Y-29566D01*
X-35452Y-29413D01*
X-34800Y-28978D01*
X-34365Y-28327D01*
X-34213Y-27559D01*
X-34365Y-26791D01*
X-34800Y-26139D01*
X-35452Y-25704D01*
X-36220Y-25552D01*
D02*
G37*
G36*
X-46456D02*
X-47224Y-25704D01*
X-47875Y-26139D01*
X-48310Y-26791D01*
X-48463Y-27559D01*
X-48310Y-28327D01*
X-47875Y-28978D01*
X-47224Y-29413D01*
X-46456Y-29566D01*
X-45688Y-29413D01*
X-45037Y-28978D01*
X-44602Y-28327D01*
X-44449Y-27559D01*
X-44602Y-26791D01*
X-45037Y-26139D01*
X-45688Y-25704D01*
X-46456Y-25552D01*
D02*
G37*
G36*
X-41732D02*
X-42500Y-25704D01*
X-43151Y-26139D01*
X-43586Y-26791D01*
X-43739Y-27559D01*
X-43586Y-28327D01*
X-43151Y-28978D01*
X-42500Y-29413D01*
X-41732Y-29566D01*
X-40963Y-29413D01*
X-40312Y-28978D01*
X-39877Y-28327D01*
X-39724Y-27559D01*
X-39877Y-26791D01*
X-40312Y-26139D01*
X-40963Y-25704D01*
X-41732Y-25552D01*
D02*
G37*
G36*
X56694Y-19647D02*
X55926Y-19800D01*
X55274Y-20235D01*
X54839Y-20886D01*
X54687Y-21654D01*
X54839Y-22422D01*
X55274Y-23074D01*
X55926Y-23509D01*
X56694Y-23661D01*
X57462Y-23509D01*
X58113Y-23074D01*
X58548Y-22422D01*
X58701Y-21654D01*
X58548Y-20886D01*
X58113Y-20235D01*
X57462Y-19800D01*
X56694Y-19647D01*
D02*
G37*
G36*
X-137401Y-19646D02*
X-138169Y-19799D01*
X-138820Y-20234D01*
X-139255Y-20885D01*
X-139408Y-21653D01*
X-139255Y-22421D01*
X-138820Y-23072D01*
X-138169Y-23507D01*
X-137401Y-23660D01*
X-136633Y-23507D01*
X-135982Y-23072D01*
X-135547Y-22421D01*
X-135394Y-21653D01*
X-135547Y-20885D01*
X-135982Y-20234D01*
X-136633Y-19799D01*
X-137401Y-19646D01*
D02*
G37*
G36*
X61694Y-19764D02*
X60926Y-19917D01*
X60274Y-20352D01*
X59839Y-21003D01*
X59687Y-21771D01*
X59839Y-22539D01*
X60274Y-23190D01*
X60926Y-23625D01*
X61694Y-23778D01*
X62462Y-23625D01*
X63113Y-23190D01*
X63548Y-22539D01*
X63701Y-21771D01*
X63548Y-21003D01*
X63113Y-20352D01*
X62462Y-19917D01*
X61694Y-19764D01*
D02*
G37*
G36*
X-24802Y-20827D02*
X-25570Y-20980D01*
X-26222Y-21415D01*
X-26657Y-22066D01*
X-26809Y-22834D01*
X-26657Y-23602D01*
X-26222Y-24253D01*
X-25570Y-24689D01*
X-24802Y-24841D01*
X-24034Y-24689D01*
X-23383Y-24253D01*
X-22948Y-23602D01*
X-22795Y-22834D01*
X-22948Y-22066D01*
X-23383Y-21415D01*
X-24034Y-20980D01*
X-24802Y-20827D01*
D02*
G37*
G36*
X25198Y-20266D02*
X24430Y-20419D01*
X23778Y-20854D01*
X23343Y-21505D01*
X23191Y-22273D01*
X23343Y-23041D01*
X23778Y-23693D01*
X24430Y-24128D01*
X25198Y-24280D01*
X25966Y-24128D01*
X26617Y-23693D01*
X27052Y-23041D01*
X27205Y-22273D01*
X27052Y-21505D01*
X26617Y-20854D01*
X25966Y-20419D01*
X25198Y-20266D01*
D02*
G37*
G36*
X53937Y-32245D02*
X53169Y-32398D01*
X52518Y-32833D01*
X52083Y-33484D01*
X51930Y-34252D01*
X52083Y-35020D01*
X52518Y-35671D01*
X53169Y-36106D01*
X53937Y-36259D01*
X54705Y-36106D01*
X55356Y-35671D01*
X55791Y-35020D01*
X55944Y-34252D01*
X55791Y-33484D01*
X55356Y-32833D01*
X54705Y-32398D01*
X53937Y-32245D01*
D02*
G37*
G36*
X59055D02*
X58287Y-32398D01*
X57636Y-32833D01*
X57201Y-33484D01*
X57048Y-34252D01*
X57201Y-35020D01*
X57636Y-35671D01*
X58287Y-36106D01*
X59055Y-36259D01*
X59823Y-36106D01*
X60474Y-35671D01*
X60909Y-35020D01*
X61062Y-34252D01*
X60909Y-33484D01*
X60474Y-32833D01*
X59823Y-32398D01*
X59055Y-32245D01*
D02*
G37*
G36*
X-36220Y-33426D02*
X-36988Y-33578D01*
X-37639Y-34014D01*
X-38074Y-34665D01*
X-38227Y-35433D01*
X-38074Y-36201D01*
X-37639Y-36852D01*
X-36988Y-37287D01*
X-36220Y-37440D01*
X-35452Y-37287D01*
X-34800Y-36852D01*
X-34365Y-36201D01*
X-34213Y-35433D01*
X-34365Y-34665D01*
X-34800Y-34014D01*
X-35452Y-33578D01*
X-36220Y-33426D01*
D02*
G37*
G36*
X-15346D02*
X-16114Y-33578D01*
X-16765Y-34014D01*
X-17200Y-34665D01*
X-17353Y-35433D01*
X-17200Y-36201D01*
X-16765Y-36852D01*
X-16114Y-37287D01*
X-15346Y-37440D01*
X-14578Y-37287D01*
X-13927Y-36852D01*
X-13492Y-36201D01*
X-13339Y-35433D01*
X-13492Y-34665D01*
X-13927Y-34014D01*
X-14578Y-33578D01*
X-15346Y-33426D01*
D02*
G37*
G36*
X1576Y-31063D02*
X807Y-31216D01*
X156Y-31651D01*
X-279Y-32302D01*
X-432Y-33070D01*
X-279Y-33838D01*
X156Y-34490D01*
X807Y-34925D01*
X1576Y-35078D01*
X2344Y-34925D01*
X2995Y-34490D01*
X3430Y-33838D01*
X3583Y-33070D01*
X3430Y-32302D01*
X2995Y-31651D01*
X2344Y-31216D01*
X1576Y-31063D01*
D02*
G37*
G36*
X-3936Y-28308D02*
X-4704Y-28460D01*
X-5355Y-28895D01*
X-5790Y-29546D01*
X-5943Y-30315D01*
X-5790Y-31083D01*
X-5355Y-31734D01*
X-4704Y-32169D01*
X-3936Y-32322D01*
X-3168Y-32169D01*
X-2517Y-31734D01*
X-2082Y-31083D01*
X-1929Y-30315D01*
X-2082Y-29546D01*
X-2517Y-28895D01*
X-3168Y-28460D01*
X-3936Y-28308D01*
D02*
G37*
G36*
X66694Y-25956D02*
X65779Y-26138D01*
X65003Y-26656D01*
X64485Y-27431D01*
X64303Y-28346D01*
X64485Y-29261D01*
X65003Y-30036D01*
X65779Y-30555D01*
X66694Y-30737D01*
X67608Y-30555D01*
X68384Y-30036D01*
X68902Y-29261D01*
X69084Y-28346D01*
X68902Y-27431D01*
X68384Y-26656D01*
X67608Y-26138D01*
X66694Y-25956D01*
D02*
G37*
G36*
X46694Y-29956D02*
X45779Y-30138D01*
X45003Y-30656D01*
X44485Y-31431D01*
X44303Y-32346D01*
X44485Y-33261D01*
X45003Y-34036D01*
X45779Y-34554D01*
X46694Y-34736D01*
X47609Y-34554D01*
X48384Y-34036D01*
X48902Y-33261D01*
X49084Y-32346D01*
X48902Y-31431D01*
X48384Y-30656D01*
X47609Y-30138D01*
X46694Y-29956D01*
D02*
G37*
G36*
X14961Y-30276D02*
X14193Y-30429D01*
X13542Y-30864D01*
X13107Y-31515D01*
X12954Y-32283D01*
X13107Y-33051D01*
X13542Y-33702D01*
X14193Y-34137D01*
X14961Y-34290D01*
X15730Y-34137D01*
X16381Y-33702D01*
X16816Y-33051D01*
X16969Y-32283D01*
X16816Y-31515D01*
X16381Y-30864D01*
X15730Y-30429D01*
X14961Y-30276D01*
D02*
G37*
G36*
X-35432Y-17678D02*
X-36200Y-17830D01*
X-36852Y-18265D01*
X-37287Y-18917D01*
X-37439Y-19685D01*
X-37287Y-20453D01*
X-36852Y-21104D01*
X-36200Y-21539D01*
X-35432Y-21692D01*
X-34664Y-21539D01*
X-34013Y-21104D01*
X-33578Y-20453D01*
X-33425Y-19685D01*
X-33578Y-18917D01*
X-34013Y-18265D01*
X-34664Y-17830D01*
X-35432Y-17678D01*
D02*
G37*
G36*
X-52361Y-4292D02*
X-53130Y-4445D01*
X-53781Y-4880D01*
X-54216Y-5531D01*
X-54369Y-6299D01*
X-54216Y-7067D01*
X-53781Y-7718D01*
X-53130Y-8153D01*
X-52361Y-8306D01*
X-51593Y-8153D01*
X-50942Y-7718D01*
X-50507Y-7067D01*
X-50354Y-6299D01*
X-50507Y-5531D01*
X-50942Y-4880D01*
X-51593Y-4445D01*
X-52361Y-4292D01*
D02*
G37*
G36*
X7481Y-3111D02*
X6713Y-3263D01*
X6062Y-3698D01*
X5627Y-4350D01*
X5474Y-5118D01*
X5627Y-5886D01*
X6062Y-6537D01*
X6713Y-6972D01*
X7481Y-7125D01*
X8249Y-6972D01*
X8900Y-6537D01*
X9335Y-5886D01*
X9488Y-5118D01*
X9335Y-4350D01*
X8900Y-3698D01*
X8249Y-3263D01*
X7481Y-3111D01*
D02*
G37*
G36*
X-72835Y-6068D02*
X-73526Y-6205D01*
X-74112Y-6597D01*
X-74503Y-7183D01*
X-74641Y-7874D01*
X-74503Y-8565D01*
X-74112Y-9151D01*
X-73526Y-9543D01*
X-72835Y-9680D01*
X-72143Y-9543D01*
X-71557Y-9151D01*
X-71166Y-8565D01*
X-71028Y-7874D01*
X-71166Y-7183D01*
X-71557Y-6597D01*
X-72143Y-6205D01*
X-72835Y-6068D01*
D02*
G37*
G36*
X-66929D02*
X-67620Y-6205D01*
X-68206Y-6597D01*
X-68598Y-7183D01*
X-68735Y-7874D01*
X-68598Y-8565D01*
X-68206Y-9151D01*
X-67620Y-9543D01*
X-66929Y-9680D01*
X-66238Y-9543D01*
X-65652Y-9151D01*
X-65260Y-8565D01*
X-65123Y-7874D01*
X-65260Y-7183D01*
X-65652Y-6597D01*
X-66238Y-6205D01*
X-66929Y-6068D01*
D02*
G37*
G36*
X-19291Y-2717D02*
X-20059Y-2870D01*
X-20710Y-3305D01*
X-21145Y-3956D01*
X-21298Y-4724D01*
X-21145Y-5492D01*
X-20710Y-6143D01*
X-20059Y-6578D01*
X-19291Y-6731D01*
X-18522Y-6578D01*
X-17871Y-6143D01*
X-17436Y-5492D01*
X-17284Y-4724D01*
X-17436Y-3956D01*
X-17871Y-3305D01*
X-18522Y-2870D01*
X-19291Y-2717D01*
D02*
G37*
G36*
X-76772Y-2131D02*
X-77463Y-2268D01*
X-78049Y-2660D01*
X-78440Y-3246D01*
X-78578Y-3937D01*
X-78440Y-4628D01*
X-78049Y-5214D01*
X-77463Y-5606D01*
X-76772Y-5743D01*
X-76080Y-5606D01*
X-75494Y-5214D01*
X-75103Y-4628D01*
X-74965Y-3937D01*
X-75103Y-3246D01*
X-75494Y-2660D01*
X-76080Y-2268D01*
X-76772Y-2131D01*
D02*
G37*
G36*
X-62992D02*
X-63683Y-2268D01*
X-64269Y-2660D01*
X-64661Y-3246D01*
X-64798Y-3937D01*
X-64661Y-4628D01*
X-64269Y-5214D01*
X-63683Y-5606D01*
X-62992Y-5743D01*
X-62301Y-5606D01*
X-61715Y-5214D01*
X-61323Y-4628D01*
X-61186Y-3937D01*
X-61323Y-3246D01*
X-61715Y-2660D01*
X-62301Y-2268D01*
X-62992Y-2131D01*
D02*
G37*
G36*
X-118110Y6726D02*
X-119422Y6596D01*
X-120683Y6214D01*
X-121846Y5592D01*
X-122865Y4756D01*
X-123701Y3737D01*
X-124323Y2574D01*
X-124706Y1312D01*
X-124835Y0D01*
X-124706Y-1312D01*
X-124323Y-2573D01*
X-123701Y-3736D01*
X-122865Y-4755D01*
X-121846Y-5592D01*
X-120683Y-6213D01*
X-119422Y-6596D01*
X-118110Y-6725D01*
X-116797Y-6596D01*
X-115536Y-6213D01*
X-114373Y-5592D01*
X-113354Y-4755D01*
X-112518Y-3736D01*
X-111896Y-2573D01*
X-111513Y-1312D01*
X-111384Y0D01*
X-111513Y1312D01*
X-111896Y2574D01*
X-112518Y3737D01*
X-113354Y4756D01*
X-114373Y5592D01*
X-115536Y6214D01*
X-116797Y6596D01*
X-118110Y6726D01*
D02*
G37*
G36*
X118111D02*
X116799Y6596D01*
X115537Y6214D01*
X114375Y5592D01*
X113356Y4756D01*
X112519Y3737D01*
X111898Y2574D01*
X111515Y1312D01*
X111386Y0D01*
X111515Y-1312D01*
X111898Y-2573D01*
X112519Y-3736D01*
X113356Y-4755D01*
X114375Y-5592D01*
X115537Y-6213D01*
X116799Y-6596D01*
X118111Y-6725D01*
X119423Y-6596D01*
X120685Y-6213D01*
X121847Y-5592D01*
X122866Y-4755D01*
X123703Y-3736D01*
X124324Y-2573D01*
X124707Y-1312D01*
X124836Y0D01*
X124707Y1312D01*
X124324Y2574D01*
X123703Y3737D01*
X122866Y4756D01*
X121847Y5592D01*
X120685Y6214D01*
X119423Y6596D01*
X118111Y6726D01*
D02*
G37*
G36*
X-134842Y-8819D02*
X-135610Y-8972D01*
X-136261Y-9407D01*
X-136696Y-10058D01*
X-136849Y-10826D01*
X-136696Y-11594D01*
X-136261Y-12246D01*
X-135610Y-12681D01*
X-134842Y-12833D01*
X-134074Y-12681D01*
X-133423Y-12246D01*
X-132987Y-11594D01*
X-132835Y-10826D01*
X-132987Y-10058D01*
X-133423Y-9407D01*
X-134074Y-8972D01*
X-134842Y-8819D01*
D02*
G37*
G36*
X-140314Y-14599D02*
X-143070D01*
X-143992Y-14782D01*
X-144773Y-15304D01*
X-145295Y-16086D01*
X-145479Y-17007D01*
X-145295Y-17929D01*
X-144773Y-18711D01*
X-143992Y-19233D01*
X-143070Y-19416D01*
X-140314D01*
X-139392Y-19233D01*
X-138611Y-18711D01*
X-138089Y-17929D01*
X-137906Y-17007D01*
X-138089Y-16086D01*
X-138611Y-15304D01*
X-139392Y-14782D01*
X-140314Y-14599D01*
D02*
G37*
G36*
X-31495Y-13741D02*
X-32263Y-13893D01*
X-32915Y-14328D01*
X-33350Y-14980D01*
X-33502Y-15748D01*
X-33350Y-16516D01*
X-32915Y-17167D01*
X-32263Y-17602D01*
X-31495Y-17755D01*
X-30727Y-17602D01*
X-30076Y-17167D01*
X-29641Y-16516D01*
X-29488Y-15748D01*
X-29641Y-14980D01*
X-30076Y-14328D01*
X-30727Y-13893D01*
X-31495Y-13741D01*
D02*
G37*
G36*
X80407Y-14409D02*
X79781Y-14428D01*
X79210Y-14686D01*
X77287Y-16057D01*
X76857Y-16514D01*
X76635Y-17099D01*
X76654Y-17726D01*
X76912Y-18297D01*
X78284Y-20220D01*
X78740Y-20649D01*
X79326Y-20871D01*
X79952Y-20852D01*
X80523Y-20595D01*
X82446Y-19223D01*
X82876Y-18767D01*
X83097Y-18181D01*
X83078Y-17555D01*
X82821Y-16983D01*
X81449Y-15060D01*
X80993Y-14631D01*
X80407Y-14409D01*
D02*
G37*
G36*
X-59054Y-15709D02*
X-59822Y-15862D01*
X-60474Y-16297D01*
X-60909Y-16948D01*
X-61061Y-17716D01*
X-60909Y-18484D01*
X-60474Y-19135D01*
X-59822Y-19570D01*
X-59054Y-19723D01*
X-58286Y-19570D01*
X-57635Y-19135D01*
X-57200Y-18484D01*
X-57047Y-17716D01*
X-57200Y-16948D01*
X-57635Y-16297D01*
X-58286Y-15862D01*
X-59054Y-15709D01*
D02*
G37*
G36*
X86010Y-10301D02*
X85303Y-10464D01*
X84663Y-10805D01*
X84132Y-11300D01*
X83747Y-11915D01*
X83535Y-12609D01*
X83510Y-13334D01*
X83673Y-14041D01*
X84014Y-14682D01*
X84509Y-15213D01*
X85124Y-15597D01*
X85818Y-15809D01*
X86543Y-15835D01*
X87250Y-15671D01*
X87891Y-15331D01*
X88422Y-14836D01*
X88806Y-14220D01*
X89018Y-13526D01*
X89044Y-12801D01*
X88880Y-12094D01*
X88540Y-11453D01*
X88045Y-10923D01*
X87429Y-10538D01*
X86736Y-10326D01*
X86010Y-10301D01*
D02*
G37*
G36*
X-70866Y-10005D02*
X-71557Y-10142D01*
X-72143Y-10534D01*
X-72535Y-11120D01*
X-72672Y-11811D01*
X-72535Y-12502D01*
X-72143Y-13088D01*
X-71557Y-13480D01*
X-70866Y-13617D01*
X-70175Y-13480D01*
X-69589Y-13088D01*
X-69197Y-12502D01*
X-69060Y-11811D01*
X-69197Y-11120D01*
X-69589Y-10534D01*
X-70175Y-10142D01*
X-70866Y-10005D01*
D02*
G37*
G36*
X-13779Y-9410D02*
X-14547Y-9563D01*
X-15198Y-9998D01*
X-15633Y-10649D01*
X-15786Y-11417D01*
X-15633Y-12185D01*
X-15198Y-12836D01*
X-14547Y-13271D01*
X-13779Y-13424D01*
X-13011Y-13271D01*
X-12359Y-12836D01*
X-11925Y-12185D01*
X-11772Y-11417D01*
X-11925Y-10649D01*
X-12359Y-9998D01*
X-13011Y-9563D01*
X-13779Y-9410D01*
D02*
G37*
G36*
X-48424Y-8229D02*
X-49193Y-8382D01*
X-49844Y-8817D01*
X-50279Y-9468D01*
X-50432Y-10236D01*
X-50279Y-11004D01*
X-49844Y-11655D01*
X-49193Y-12090D01*
X-48424Y-12243D01*
X-47656Y-12090D01*
X-47271Y-11833D01*
X-47271Y-11833D01*
X-47154Y-11754D01*
X-47152Y-11756D01*
X-47140Y-11768D01*
X-47120Y-11788D01*
X-46827Y-12081D01*
X-46807Y-12101D01*
X-46795Y-12113D01*
X-46793Y-12115D01*
X-46872Y-12232D01*
D01*
X-47129Y-12617D01*
X-47282Y-13385D01*
X-47129Y-14153D01*
X-46694Y-14805D01*
X-46043Y-15240D01*
X-45275Y-15393D01*
X-44507Y-15240D01*
X-43856Y-14805D01*
X-43420Y-14153D01*
X-43268Y-13385D01*
X-43420Y-12617D01*
X-43856Y-11966D01*
X-44507Y-11531D01*
X-45275Y-11378D01*
X-46043Y-11531D01*
X-46428Y-11789D01*
X-46428Y-11789D01*
X-46545Y-11867D01*
X-46547Y-11865D01*
X-46559Y-11853D01*
X-46579Y-11833D01*
X-46872Y-11540D01*
X-46892Y-11520D01*
X-46904Y-11508D01*
X-46906Y-11507D01*
X-46828Y-11389D01*
D01*
X-46570Y-11004D01*
X-46417Y-10236D01*
X-46570Y-9468D01*
X-47005Y-8817D01*
X-47656Y-8382D01*
X-48424Y-8229D01*
D02*
G37*
G36*
X6300Y-9804D02*
X5532Y-9956D01*
X4881Y-10391D01*
X4446Y-11043D01*
X4293Y-11811D01*
X4446Y-12579D01*
X4881Y-13230D01*
X5532Y-13665D01*
X6300Y-13818D01*
X7068Y-13665D01*
X7719Y-13230D01*
X8154Y-12579D01*
X8307Y-11811D01*
X8154Y-11043D01*
X7719Y-10391D01*
X7068Y-9956D01*
X6300Y-9804D01*
D02*
G37*
G36*
X48280Y-63391D02*
X46893Y-63573D01*
X45600Y-64109D01*
X44490Y-64961D01*
X43638Y-66071D01*
X43102Y-67364D01*
X42919Y-68752D01*
Y-72689D01*
X43102Y-74076D01*
X43638Y-75369D01*
X44490Y-76479D01*
X45600Y-77331D01*
X46893Y-77867D01*
X48280Y-78049D01*
X49668Y-77867D01*
X50961Y-77331D01*
X52071Y-76479D01*
X52923Y-75369D01*
X53458Y-74076D01*
X53641Y-72689D01*
Y-68752D01*
X53458Y-67364D01*
X52923Y-66071D01*
X52071Y-64961D01*
X50961Y-64109D01*
X49668Y-63573D01*
X48280Y-63391D01*
D02*
G37*
G36*
X93162D02*
X91775Y-63573D01*
X90482Y-64109D01*
X89372Y-64961D01*
X88520Y-66071D01*
X87984Y-67364D01*
X87801Y-68752D01*
Y-72689D01*
X87984Y-74076D01*
X88520Y-75369D01*
X89372Y-76479D01*
X90482Y-77331D01*
X91775Y-77867D01*
X93162Y-78049D01*
X94550Y-77867D01*
X95843Y-77331D01*
X96953Y-76479D01*
X97805Y-75369D01*
X98340Y-74076D01*
X98523Y-72689D01*
Y-68752D01*
X98340Y-67364D01*
X97805Y-66071D01*
X96953Y-64961D01*
X95843Y-64109D01*
X94550Y-63573D01*
X93162Y-63391D01*
D02*
G37*
G36*
X1Y-69465D02*
X-1233Y-69587D01*
X-2421Y-69947D01*
X-3515Y-70532D01*
X-4474Y-71319D01*
X-5262Y-72278D01*
X-5847Y-73373D01*
X-6207Y-74560D01*
X-6328Y-75795D01*
X-6207Y-77030D01*
X-5847Y-78217D01*
X-5262Y-79312D01*
X-4474Y-80271D01*
X-3515Y-81058D01*
X-2421Y-81643D01*
X-1233Y-82003D01*
X1Y-82125D01*
X1236Y-82003D01*
X2424Y-81643D01*
X3518Y-81058D01*
X4477Y-80271D01*
X5264Y-79312D01*
X5849Y-78217D01*
X6210Y-77030D01*
X6331Y-75795D01*
X6210Y-74560D01*
X5849Y-73373D01*
X5264Y-72278D01*
X4477Y-71319D01*
X3518Y-70532D01*
X2424Y-69947D01*
X1236Y-69587D01*
X1Y-69465D01*
D02*
G37*
G36*
X25198Y-74764D02*
X24430Y-74917D01*
X23778Y-75352D01*
X23343Y-76003D01*
X23191Y-76771D01*
X23343Y-77539D01*
X23778Y-78190D01*
X24430Y-78626D01*
X25198Y-78778D01*
X25966Y-78626D01*
X26617Y-78190D01*
X27052Y-77539D01*
X27205Y-76771D01*
X27052Y-76003D01*
X26617Y-75352D01*
X25966Y-74917D01*
X25198Y-74764D01*
D02*
G37*
G36*
X-36220Y-69646D02*
X-36988Y-69799D01*
X-37639Y-70234D01*
X-38074Y-70885D01*
X-38227Y-71653D01*
X-38074Y-72421D01*
X-37639Y-73072D01*
X-36988Y-73507D01*
X-36220Y-73660D01*
X-35452Y-73507D01*
X-34800Y-73072D01*
X-34365Y-72421D01*
X-34213Y-71653D01*
X-34365Y-70885D01*
X-34800Y-70234D01*
X-35452Y-69799D01*
X-36220Y-69646D01*
D02*
G37*
G36*
X7087Y-62953D02*
X6319Y-63106D01*
X5668Y-63541D01*
X5233Y-64192D01*
X5080Y-64960D01*
X5233Y-65728D01*
X5668Y-66379D01*
X6319Y-66815D01*
X7087Y-66967D01*
X7856Y-66815D01*
X8507Y-66379D01*
X8942Y-65728D01*
X9094Y-64960D01*
X8942Y-64192D01*
X8507Y-63541D01*
X7856Y-63106D01*
X7087Y-62953D01*
D02*
G37*
G36*
X-22047Y-61378D02*
X-22815Y-61531D01*
X-23466Y-61966D01*
X-23901Y-62617D01*
X-24054Y-63385D01*
X-23901Y-64153D01*
X-23466Y-64805D01*
X-22815Y-65240D01*
X-22047Y-65393D01*
X-21278Y-65240D01*
X-20627Y-64805D01*
X-20192Y-64153D01*
X-20039Y-63385D01*
X-20192Y-62617D01*
X-20627Y-61966D01*
X-21278Y-61531D01*
X-22047Y-61378D01*
D02*
G37*
G36*
X-17716Y-69252D02*
X-18484Y-69405D01*
X-19135Y-69840D01*
X-19570Y-70491D01*
X-19723Y-71259D01*
X-19570Y-72027D01*
X-19135Y-72679D01*
X-18484Y-73114D01*
X-17716Y-73267D01*
X-16948Y-73114D01*
X-16296Y-72679D01*
X-15861Y-72027D01*
X-15709Y-71259D01*
X-15861Y-70491D01*
X-16296Y-69840D01*
X-16948Y-69405D01*
X-17716Y-69252D01*
D02*
G37*
G36*
X-7480Y-63347D02*
X-8248Y-63500D01*
X-8899Y-63935D01*
X-9334Y-64586D01*
X-9487Y-65354D01*
X-9334Y-66122D01*
X-8899Y-66773D01*
X-8248Y-67208D01*
X-7480Y-67361D01*
X-6712Y-67208D01*
X-6060Y-66773D01*
X-5625Y-66122D01*
X-5472Y-65354D01*
X-5625Y-64586D01*
X-6060Y-63935D01*
X-6712Y-63500D01*
X-7480Y-63347D01*
D02*
G37*
G36*
X23623Y-81851D02*
X22855Y-82004D01*
X22204Y-82439D01*
X21768Y-83090D01*
X21616Y-83858D01*
X21768Y-84626D01*
X22204Y-85277D01*
X22855Y-85712D01*
X23623Y-85865D01*
X24391Y-85712D01*
X25042Y-85277D01*
X25477Y-84626D01*
X25630Y-83858D01*
X25477Y-83090D01*
X25042Y-82439D01*
X24391Y-82004D01*
X23623Y-81851D01*
D02*
G37*
G36*
X5119Y-117284D02*
X4351Y-117437D01*
X3700Y-117872D01*
X3265Y-118523D01*
X3112Y-119291D01*
X3265Y-120059D01*
X3700Y-120710D01*
X4351Y-121145D01*
X4633Y-121201D01*
Y-121711D01*
X4351Y-121767D01*
X3700Y-122202D01*
X3265Y-122854D01*
X3112Y-123622D01*
X3265Y-124390D01*
X3700Y-125041D01*
X4351Y-125476D01*
X5119Y-125629D01*
X5887Y-125476D01*
X6538Y-125041D01*
X6973Y-124390D01*
X7126Y-123622D01*
X6973Y-122854D01*
X6538Y-122202D01*
X5887Y-121767D01*
X5605Y-121711D01*
Y-121201D01*
X5887Y-121145D01*
X6538Y-120710D01*
X6973Y-120059D01*
X7126Y-119291D01*
X6973Y-118523D01*
X6538Y-117872D01*
X5887Y-117437D01*
X5119Y-117284D01*
D02*
G37*
G36*
X16930Y-106654D02*
X16162Y-106807D01*
X15511Y-107242D01*
X15076Y-107893D01*
X14923Y-108661D01*
X15076Y-109429D01*
X15511Y-110080D01*
X16162Y-110515D01*
X16930Y-110668D01*
X17698Y-110515D01*
X18349Y-110080D01*
X18784Y-109429D01*
X18937Y-108661D01*
X18784Y-107893D01*
X18349Y-107242D01*
X17698Y-106807D01*
X16930Y-106654D01*
D02*
G37*
G36*
X1Y-132457D02*
X-1233Y-132579D01*
X-2421Y-132939D01*
X-3515Y-133524D01*
X-4474Y-134311D01*
X-5262Y-135270D01*
X-5847Y-136365D01*
X-6207Y-137552D01*
X-6328Y-138787D01*
X-6207Y-140022D01*
X-5847Y-141209D01*
X-5262Y-142304D01*
X-4474Y-143263D01*
X-3515Y-144050D01*
X-2421Y-144635D01*
X-1233Y-144995D01*
X1Y-145117D01*
X1236Y-144995D01*
X2424Y-144635D01*
X3518Y-144050D01*
X4477Y-143263D01*
X5264Y-142304D01*
X5849Y-141209D01*
X6210Y-140022D01*
X6331Y-138787D01*
X6210Y-137552D01*
X5849Y-136365D01*
X5264Y-135270D01*
X4477Y-134311D01*
X3518Y-133524D01*
X2424Y-132939D01*
X1236Y-132579D01*
X1Y-132457D01*
D02*
G37*
G36*
X-5117Y-117284D02*
X-5885Y-117437D01*
X-6537Y-117872D01*
X-6972Y-118523D01*
X-7124Y-119291D01*
X-6972Y-120059D01*
X-6537Y-120710D01*
X-5885Y-121145D01*
X-5603Y-121201D01*
Y-121711D01*
X-5885Y-121767D01*
X-6537Y-122202D01*
X-6972Y-122854D01*
X-7124Y-123622D01*
X-6972Y-124390D01*
X-6537Y-125041D01*
X-5885Y-125476D01*
X-5117Y-125629D01*
X-4349Y-125476D01*
X-3698Y-125041D01*
X-3263Y-124390D01*
X-3110Y-123622D01*
X-3263Y-122854D01*
X-3698Y-122202D01*
X-4349Y-121767D01*
X-4632Y-121711D01*
Y-121201D01*
X-4349Y-121145D01*
X-3698Y-120710D01*
X-3263Y-120059D01*
X-3110Y-119291D01*
X-3263Y-118523D01*
X-3698Y-117872D01*
X-4349Y-117437D01*
X-5117Y-117284D01*
D02*
G37*
G36*
X-102361Y-96032D02*
X-103596Y-96154D01*
X-104784Y-96514D01*
X-105878Y-97099D01*
X-106837Y-97886D01*
X-107624Y-98845D01*
X-108209Y-99940D01*
X-108570Y-101127D01*
X-108691Y-102362D01*
X-108570Y-103597D01*
X-108209Y-104784D01*
X-107624Y-105878D01*
X-106837Y-106838D01*
X-105878Y-107625D01*
X-104784Y-108210D01*
X-103596Y-108570D01*
X-102361Y-108692D01*
X-101127Y-108570D01*
X-99939Y-108210D01*
X-98845Y-107625D01*
X-97886Y-106838D01*
X-97098Y-105878D01*
X-96513Y-104784D01*
X-96153Y-103597D01*
X-96032Y-102362D01*
X-96153Y-101127D01*
X-96513Y-99940D01*
X-97098Y-98845D01*
X-97886Y-97886D01*
X-98845Y-97099D01*
X-99939Y-96514D01*
X-101127Y-96154D01*
X-102361Y-96032D01*
D02*
G37*
G36*
X60879Y-94507D02*
X59902Y-94635D01*
X58992Y-95012D01*
X58211Y-95612D01*
X57612Y-96393D01*
X57235Y-97303D01*
X57106Y-98279D01*
X57235Y-99256D01*
X57612Y-100165D01*
X58211Y-100947D01*
X58992Y-101546D01*
X59902Y-101923D01*
X60879Y-102051D01*
X61855Y-101923D01*
X62765Y-101546D01*
X63546Y-100947D01*
X64146Y-100165D01*
X64523Y-99256D01*
X64651Y-98279D01*
X64523Y-97303D01*
X64146Y-96393D01*
X63546Y-95612D01*
X62765Y-95012D01*
X61855Y-94635D01*
X60879Y-94507D01*
D02*
G37*
G36*
X80564D02*
X79587Y-94635D01*
X78678Y-95012D01*
X77896Y-95612D01*
X77297Y-96393D01*
X76920Y-97303D01*
X76791Y-98279D01*
X76920Y-99256D01*
X77297Y-100165D01*
X77896Y-100947D01*
X78678Y-101546D01*
X79587Y-101923D01*
X80564Y-102051D01*
X81540Y-101923D01*
X82450Y-101546D01*
X83231Y-100947D01*
X83831Y-100165D01*
X84208Y-99256D01*
X84336Y-98279D01*
X84208Y-97303D01*
X83831Y-96393D01*
X83231Y-95612D01*
X82450Y-95012D01*
X81540Y-94635D01*
X80564Y-94507D01*
D02*
G37*
G36*
X-2239Y-104170D02*
X-3008Y-104323D01*
X-3659Y-104758D01*
X-4094Y-105409D01*
X-4247Y-106177D01*
X-4094Y-106945D01*
X-3659Y-107596D01*
X-3008Y-108031D01*
X-2239Y-108184D01*
X-1471Y-108031D01*
X-820Y-107596D01*
X-385Y-106945D01*
X-232Y-106177D01*
X-385Y-105409D01*
X-820Y-104758D01*
X-1471Y-104323D01*
X-2239Y-104170D01*
D02*
G37*
G36*
X-46062Y-90906D02*
X-46830Y-91059D01*
X-47481Y-91494D01*
X-47916Y-92145D01*
X-48069Y-92913D01*
X-47916Y-93681D01*
X-47481Y-94332D01*
X-46830Y-94767D01*
X-46062Y-94920D01*
X-45658Y-94840D01*
X-45233Y-95265D01*
X-45313Y-95669D01*
X-45161Y-96437D01*
X-44725Y-97088D01*
X-44074Y-97523D01*
X-43306Y-97676D01*
X-42902Y-97596D01*
X-42477Y-98021D01*
X-42557Y-98425D01*
X-42405Y-99193D01*
X-41970Y-99844D01*
X-41319Y-100279D01*
X-40550Y-100432D01*
X-39782Y-100279D01*
X-39687Y-100215D01*
X-39633Y-100240D01*
X-39282Y-100546D01*
X-39408Y-101181D01*
X-39255Y-101949D01*
X-38820Y-102600D01*
X-38169Y-103035D01*
X-37401Y-103188D01*
X-36633Y-103035D01*
X-35982Y-102600D01*
X-35546Y-101949D01*
X-35394Y-101181D01*
X-35546Y-100413D01*
X-35982Y-99761D01*
X-36633Y-99326D01*
X-37401Y-99174D01*
X-38169Y-99326D01*
X-38264Y-99390D01*
X-38318Y-99366D01*
X-38670Y-99060D01*
X-38543Y-98425D01*
X-38696Y-97657D01*
X-39131Y-97006D01*
X-39782Y-96570D01*
X-40550Y-96418D01*
X-40954Y-96498D01*
X-41380Y-96073D01*
X-41299Y-95669D01*
X-41452Y-94901D01*
X-41887Y-94250D01*
X-42538Y-93815D01*
X-43306Y-93662D01*
X-43710Y-93742D01*
X-44135Y-93317D01*
X-44055Y-92913D01*
X-44208Y-92145D01*
X-44643Y-91494D01*
X-45294Y-91059D01*
X-46062Y-90906D01*
D02*
G37*
G36*
X-137972Y-35195D02*
X-141318D01*
X-142125Y-35356D01*
X-142808Y-35813D01*
X-143265Y-36496D01*
X-143426Y-37303D01*
Y-40649D01*
X-143265Y-41456D01*
X-142808Y-42139D01*
X-142125Y-42596D01*
X-141318Y-42757D01*
X-137972D01*
X-137165Y-42596D01*
X-136481Y-42139D01*
X-136025Y-41456D01*
X-135864Y-40649D01*
Y-37303D01*
X-136025Y-36496D01*
X-136481Y-35813D01*
X-137165Y-35356D01*
X-137972Y-35195D01*
D02*
G37*
G36*
X-129645Y-35204D02*
X-130621Y-35332D01*
X-131531Y-35709D01*
X-132312Y-36309D01*
X-132912Y-37090D01*
X-133289Y-38000D01*
X-133417Y-38976D01*
X-133289Y-39952D01*
X-132912Y-40862D01*
X-132312Y-41644D01*
X-131531Y-42243D01*
X-130621Y-42620D01*
X-129645Y-42748D01*
X-128668Y-42620D01*
X-127759Y-42243D01*
X-126977Y-41644D01*
X-126378Y-40862D01*
X-126001Y-39952D01*
X-125873Y-38976D01*
X-126001Y-38000D01*
X-126378Y-37090D01*
X-126977Y-36309D01*
X-127759Y-35709D01*
X-128668Y-35332D01*
X-129645Y-35204D01*
D02*
G37*
G36*
X80564Y-37420D02*
X79587Y-37549D01*
X78678Y-37925D01*
X77896Y-38525D01*
X77297Y-39306D01*
X76920Y-40216D01*
X76791Y-41192D01*
X76920Y-42169D01*
X77297Y-43079D01*
X77896Y-43860D01*
X78678Y-44460D01*
X79587Y-44836D01*
X80564Y-44965D01*
X81540Y-44836D01*
X82450Y-44460D01*
X83231Y-43860D01*
X83831Y-43079D01*
X84208Y-42169D01*
X84336Y-41192D01*
X84208Y-40216D01*
X83831Y-39306D01*
X83231Y-38525D01*
X82450Y-37925D01*
X81540Y-37549D01*
X80564Y-37420D01*
D02*
G37*
G36*
X-23621Y-39331D02*
X-24389Y-39484D01*
X-25041Y-39919D01*
X-25476Y-40570D01*
X-25628Y-41338D01*
X-25476Y-42106D01*
X-25041Y-42757D01*
X-24389Y-43192D01*
X-23621Y-43345D01*
X-22853Y-43192D01*
X-22202Y-42757D01*
X-21767Y-42106D01*
X-21614Y-41338D01*
X-21767Y-40570D01*
X-22202Y-39919D01*
X-22853Y-39484D01*
X-23621Y-39331D01*
D02*
G37*
G36*
X51575Y-38544D02*
X50807Y-38697D01*
X50156Y-39132D01*
X49720Y-39783D01*
X49568Y-40551D01*
X49720Y-41319D01*
X50156Y-41970D01*
X50807Y-42406D01*
X51575Y-42558D01*
X52343Y-42406D01*
X52994Y-41970D01*
X53429Y-41319D01*
X53582Y-40551D01*
X53429Y-39783D01*
X52994Y-39132D01*
X52343Y-38697D01*
X51575Y-38544D01*
D02*
G37*
G36*
X-46850Y-33426D02*
X-47618Y-33578D01*
X-48269Y-34014D01*
X-48704Y-34665D01*
X-48857Y-35433D01*
X-48704Y-36201D01*
X-48269Y-36852D01*
X-47618Y-37287D01*
X-46850Y-37440D01*
X-46082Y-37287D01*
X-45430Y-36852D01*
X-44995Y-36201D01*
X-44842Y-35433D01*
X-44995Y-34665D01*
X-45430Y-34014D01*
X-46082Y-33578D01*
X-46850Y-33426D01*
D02*
G37*
G36*
X-41732D02*
X-42500Y-33578D01*
X-43151Y-34014D01*
X-43586Y-34665D01*
X-43739Y-35433D01*
X-43586Y-36201D01*
X-43151Y-36852D01*
X-42500Y-37287D01*
X-41732Y-37440D01*
X-40963Y-37287D01*
X-40312Y-36852D01*
X-39877Y-36201D01*
X-39724Y-35433D01*
X-39877Y-34665D01*
X-40312Y-34014D01*
X-40963Y-33578D01*
X-41732Y-33426D01*
D02*
G37*
G36*
X-81102Y-32245D02*
X-81870Y-32397D01*
X-82521Y-32832D01*
X-82956Y-33483D01*
X-83109Y-34252D01*
X-82956Y-35020D01*
X-82521Y-35671D01*
X-81870Y-36106D01*
X-81102Y-36259D01*
X-80921Y-36223D01*
X-80594Y-36633D01*
X-80747Y-37401D01*
X-80594Y-38169D01*
X-80159Y-38820D01*
X-79507Y-39255D01*
X-78739Y-39408D01*
X-77971Y-39255D01*
X-77320Y-38820D01*
X-76885Y-38169D01*
X-76732Y-37401D01*
X-76885Y-36633D01*
X-77320Y-35982D01*
X-77971Y-35547D01*
X-78739Y-35394D01*
X-78920Y-35430D01*
X-79247Y-35020D01*
X-79094Y-34252D01*
X-79247Y-33483D01*
X-79682Y-32832D01*
X-80334Y-32397D01*
X-81102Y-32245D01*
D02*
G37*
G36*
X-29527Y-35394D02*
X-30295Y-35547D01*
X-30946Y-35982D01*
X-31381Y-36633D01*
X-31534Y-37401D01*
X-31381Y-38169D01*
X-30946Y-38820D01*
X-30295Y-39255D01*
X-29527Y-39408D01*
X-28759Y-39255D01*
X-28108Y-38820D01*
X-27672Y-38169D01*
X-27520Y-37401D01*
X-27672Y-36633D01*
X-28108Y-35982D01*
X-28759Y-35547D01*
X-29527Y-35394D01*
D02*
G37*
G36*
X70721Y-37420D02*
X69745Y-37549D01*
X68835Y-37925D01*
X68054Y-38525D01*
X67454Y-39306D01*
X67077Y-40216D01*
X66949Y-41192D01*
X67077Y-42169D01*
X67454Y-43079D01*
X68054Y-43860D01*
X68835Y-44460D01*
X69745Y-44836D01*
X70721Y-44965D01*
X71698Y-44836D01*
X72607Y-44460D01*
X73389Y-43860D01*
X73988Y-43079D01*
X74365Y-42169D01*
X74494Y-41192D01*
X74365Y-40216D01*
X73988Y-39306D01*
X73389Y-38525D01*
X72607Y-37925D01*
X71698Y-37549D01*
X70721Y-37420D01*
D02*
G37*
G36*
X23526Y-58045D02*
X22758Y-58198D01*
X22107Y-58633D01*
X21672Y-59284D01*
X21519Y-60052D01*
X21672Y-60821D01*
X22107Y-61472D01*
X22758Y-61907D01*
X23526Y-62059D01*
X24294Y-61907D01*
X24945Y-61472D01*
X25380Y-60821D01*
X25533Y-60052D01*
X25380Y-59284D01*
X24945Y-58633D01*
X24294Y-58198D01*
X23526Y-58045D01*
D02*
G37*
G36*
X-20078Y-57048D02*
X-20846Y-57200D01*
X-21497Y-57635D01*
X-21932Y-58287D01*
X-22085Y-59055D01*
X-21932Y-59823D01*
X-21497Y-60474D01*
X-20846Y-60909D01*
X-20078Y-61062D01*
X-19310Y-60909D01*
X-18659Y-60474D01*
X-18224Y-59823D01*
X-18071Y-59055D01*
X-18224Y-58287D01*
X-18659Y-57635D01*
X-19310Y-57200D01*
X-20078Y-57048D01*
D02*
G37*
G36*
X-43306Y-60985D02*
X-44074Y-61137D01*
X-44725Y-61572D01*
X-45161Y-62224D01*
X-45313Y-62992D01*
X-45161Y-63760D01*
X-44725Y-64411D01*
X-44074Y-64846D01*
X-43306Y-64999D01*
X-42538Y-64846D01*
X-41887Y-64411D01*
X-41452Y-63760D01*
X-41299Y-62992D01*
X-41452Y-62224D01*
X-41887Y-61572D01*
X-42538Y-61137D01*
X-43306Y-60985D01*
D02*
G37*
G36*
X-11023Y-58229D02*
X-11791Y-58381D01*
X-12442Y-58817D01*
X-12877Y-59468D01*
X-13030Y-60236D01*
X-12877Y-61004D01*
X-12442Y-61655D01*
X-11791Y-62090D01*
X-11023Y-62243D01*
X-10255Y-62090D01*
X-9604Y-61655D01*
X-9169Y-61004D01*
X-9016Y-60236D01*
X-9169Y-59468D01*
X-9604Y-58817D01*
X-10255Y-58381D01*
X-11023Y-58229D01*
D02*
G37*
G36*
X-20865Y-47599D02*
X-21633Y-47752D01*
X-22285Y-48187D01*
X-22720Y-48838D01*
X-22872Y-49606D01*
X-22720Y-50374D01*
X-22285Y-51025D01*
X-21913Y-51274D01*
Y-51875D01*
X-22285Y-52124D01*
X-22720Y-52775D01*
X-22872Y-53543D01*
X-22720Y-54311D01*
X-22285Y-54962D01*
X-21633Y-55397D01*
X-20865Y-55550D01*
X-20097Y-55397D01*
X-19446Y-54962D01*
X-19011Y-54311D01*
X-18858Y-53543D01*
X-19011Y-52775D01*
X-19446Y-52124D01*
X-19818Y-51875D01*
Y-51274D01*
X-19446Y-51025D01*
X-19011Y-50374D01*
X-18858Y-49606D01*
X-19011Y-48838D01*
X-19446Y-48187D01*
X-20097Y-47752D01*
X-20865Y-47599D01*
D02*
G37*
G36*
X-44881D02*
X-45649Y-47752D01*
X-46300Y-48187D01*
X-46735Y-48838D01*
X-46888Y-49606D01*
X-46735Y-50374D01*
X-46300Y-51025D01*
X-45649Y-51460D01*
X-44881Y-51613D01*
X-44113Y-51460D01*
X-43462Y-51025D01*
X-43027Y-50374D01*
X-42874Y-49606D01*
X-43027Y-48838D01*
X-43462Y-48187D01*
X-44113Y-47752D01*
X-44881Y-47599D01*
D02*
G37*
G36*
X60879Y-37420D02*
X59902Y-37549D01*
X58992Y-37925D01*
X58211Y-38525D01*
X57612Y-39306D01*
X57235Y-40216D01*
X57106Y-41192D01*
X57235Y-42169D01*
X57612Y-43079D01*
X58211Y-43860D01*
X58992Y-44460D01*
X59902Y-44836D01*
X60879Y-44965D01*
X61855Y-44836D01*
X62765Y-44460D01*
X63546Y-43860D01*
X64146Y-43079D01*
X64523Y-42169D01*
X64651Y-41192D01*
X64523Y-40216D01*
X64146Y-39306D01*
X63546Y-38525D01*
X62765Y-37925D01*
X61855Y-37549D01*
X60879Y-37420D01*
D02*
G37*
G36*
X-6692Y-50188D02*
X-7460Y-50340D01*
X-8111Y-50775D01*
X-8546Y-51427D01*
X-8699Y-52195D01*
X-8546Y-52963D01*
X-8111Y-53614D01*
X-7460Y-54049D01*
X-6692Y-54202D01*
X-5924Y-54049D01*
X-5273Y-53614D01*
X-4838Y-52963D01*
X-4685Y-52195D01*
X-4838Y-51427D01*
X-5273Y-50775D01*
X-5924Y-50340D01*
X-6692Y-50188D01*
D02*
G37*
G36*
X33072Y-49174D02*
X32304Y-49326D01*
X31652Y-49762D01*
X31217Y-50413D01*
X31065Y-51181D01*
X31217Y-51949D01*
X31652Y-52600D01*
X32304Y-53035D01*
X33072Y-53188D01*
X33840Y-53035D01*
X34491Y-52600D01*
X34926Y-51949D01*
X35079Y-51181D01*
X34926Y-50413D01*
X34491Y-49762D01*
X33840Y-49326D01*
X33072Y-49174D01*
D02*
G37*
G36*
X25198Y-355D02*
X24430Y-508D01*
X23778Y-943D01*
X23343Y-1594D01*
X23191Y-2362D01*
X23343Y-3130D01*
X23778Y-3781D01*
X24430Y-4216D01*
X25198Y-4369D01*
X25966Y-4216D01*
X26617Y-3781D01*
X27052Y-3130D01*
X27205Y-2362D01*
X27052Y-1594D01*
X26617Y-943D01*
X25966Y-508D01*
X25198Y-355D01*
D02*
G37*
G36*
X-109842Y63425D02*
X-110610Y63272D01*
X-111261Y62837D01*
X-111696Y62186D01*
X-111849Y61418D01*
X-111696Y60650D01*
X-111261Y59999D01*
X-110610Y59563D01*
X-109842Y59411D01*
X-109074Y59563D01*
X-108423Y59999D01*
X-107987Y60650D01*
X-107835Y61418D01*
X-107987Y62186D01*
X-108423Y62837D01*
X-109074Y63272D01*
X-109842Y63425D01*
D02*
G37*
G36*
X-93161Y78050D02*
X-94548Y77868D01*
X-95841Y77332D01*
X-96951Y76480D01*
X-97803Y75370D01*
X-98339Y74077D01*
X-98522Y72689D01*
Y68752D01*
X-98339Y67365D01*
X-97803Y66072D01*
X-96951Y64962D01*
X-95841Y64110D01*
X-94548Y63574D01*
X-93161Y63392D01*
X-91773Y63574D01*
X-90480Y64110D01*
X-89370Y64962D01*
X-88518Y66072D01*
X-87982Y67365D01*
X-87800Y68752D01*
Y72689D01*
X-87982Y74077D01*
X-88518Y75370D01*
X-89370Y76480D01*
X-90480Y77332D01*
X-91773Y77868D01*
X-93161Y78050D01*
D02*
G37*
G36*
X-30708Y56338D02*
X-31476Y56185D01*
X-32127Y55750D01*
X-32562Y55099D01*
X-32715Y54331D01*
X-32562Y53563D01*
X-32127Y52912D01*
X-31476Y52477D01*
X-30708Y52324D01*
X-29940Y52477D01*
X-29289Y52912D01*
X-28854Y53563D01*
X-28701Y54331D01*
X-28854Y55099D01*
X-29289Y55750D01*
X-29940Y56185D01*
X-30708Y56338D01*
D02*
G37*
G36*
X-127558Y63425D02*
X-128326Y63272D01*
X-128978Y62837D01*
X-129413Y62186D01*
X-129565Y61418D01*
X-129413Y60650D01*
X-128978Y59999D01*
X-128326Y59563D01*
X-127558Y59411D01*
X-126790Y59563D01*
X-126139Y59999D01*
X-125704Y60650D01*
X-125551Y61418D01*
X-125704Y62186D01*
X-126139Y62837D01*
X-126790Y63272D01*
X-127558Y63425D01*
D02*
G37*
G36*
X-48279Y78050D02*
X-49666Y77868D01*
X-50959Y77332D01*
X-52069Y76480D01*
X-52921Y75370D01*
X-53457Y74077D01*
X-53640Y72689D01*
Y68752D01*
X-53457Y67365D01*
X-52921Y66072D01*
X-52069Y64962D01*
X-50959Y64110D01*
X-49666Y63574D01*
X-48279Y63392D01*
X-46891Y63574D01*
X-45598Y64110D01*
X-44488Y64962D01*
X-43636Y66072D01*
X-43101Y67365D01*
X-42918Y68752D01*
Y72689D01*
X-43101Y74077D01*
X-43636Y75370D01*
X-44488Y76480D01*
X-45598Y77332D01*
X-46891Y77868D01*
X-48279Y78050D01*
D02*
G37*
G36*
X1Y81125D02*
X-1233Y81004D01*
X-2421Y80643D01*
X-3515Y80059D01*
X-4474Y79271D01*
X-5262Y78312D01*
X-5847Y77218D01*
X-6207Y76030D01*
X-6328Y74796D01*
X-6207Y73561D01*
X-5847Y72373D01*
X-5262Y71279D01*
X-4474Y70320D01*
X-3515Y69533D01*
X-2421Y68948D01*
X-1233Y68588D01*
X1Y68466D01*
X1236Y68588D01*
X2424Y68948D01*
X3518Y69533D01*
X4477Y70320D01*
X5264Y71279D01*
X5849Y72373D01*
X6210Y73561D01*
X6331Y74796D01*
X6210Y76030D01*
X5849Y77218D01*
X5264Y78312D01*
X4477Y79271D01*
X3518Y80059D01*
X2424Y80643D01*
X1236Y81004D01*
X1Y81125D01*
D02*
G37*
G36*
X45046Y79185D02*
X44185Y78994D01*
X43404Y78587D01*
X42754Y77992D01*
X42281Y77249D01*
X42016Y76408D01*
X41977Y75528D01*
X42168Y74668D01*
X42575Y73886D01*
X43170Y73236D01*
X43913Y72763D01*
X44754Y72498D01*
X45634Y72460D01*
X46494Y72650D01*
X47276Y73057D01*
X47925Y73652D01*
X48399Y74396D01*
X48664Y75236D01*
X48702Y76116D01*
X48512Y76977D01*
X48105Y77758D01*
X47510Y78408D01*
X46766Y78881D01*
X45926Y79146D01*
X45046Y79185D01*
D02*
G37*
G36*
X37842Y74020D02*
X37098Y74004D01*
X36417Y73704D01*
X33999Y72011D01*
X33484Y71473D01*
X33214Y70780D01*
X33231Y70036D01*
X33530Y69355D01*
X35224Y66936D01*
X35761Y66422D01*
X36455Y66152D01*
X37198Y66169D01*
X37879Y66468D01*
X40298Y68162D01*
X40813Y68699D01*
X41082Y69393D01*
X41066Y70136D01*
X40766Y70817D01*
X39073Y73236D01*
X38535Y73751D01*
X37842Y74020D01*
D02*
G37*
G36*
X-16928Y71693D02*
X-17696Y71540D01*
X-18348Y71105D01*
X-18783Y70454D01*
X-18935Y69685D01*
X-18783Y68917D01*
X-18348Y68266D01*
X-17696Y67831D01*
X-16928Y67678D01*
X-16160Y67831D01*
X-15509Y68266D01*
X-15074Y68917D01*
X-14921Y69685D01*
X-15074Y70454D01*
X-15509Y71105D01*
X-16160Y71540D01*
X-16928Y71693D01*
D02*
G37*
G36*
X-109842Y56338D02*
X-110610Y56185D01*
X-111261Y55750D01*
X-111696Y55099D01*
X-111849Y54331D01*
X-111696Y53563D01*
X-111261Y52912D01*
X-110610Y52477D01*
X-109842Y52324D01*
X-109074Y52477D01*
X-108423Y52912D01*
X-107987Y53563D01*
X-107835Y54331D01*
X-107987Y55099D01*
X-108423Y55750D01*
X-109074Y56185D01*
X-109842Y56338D01*
D02*
G37*
G36*
X-80562Y46934D02*
X-81539Y46806D01*
X-82448Y46429D01*
X-83230Y45829D01*
X-83829Y45048D01*
X-84206Y44138D01*
X-84335Y43162D01*
X-84206Y42185D01*
X-83829Y41276D01*
X-83230Y40494D01*
X-82448Y39895D01*
X-81539Y39518D01*
X-80562Y39389D01*
X-79586Y39518D01*
X-78676Y39895D01*
X-77895Y40494D01*
X-77295Y41276D01*
X-76918Y42185D01*
X-76790Y43162D01*
X-76918Y44138D01*
X-77295Y45048D01*
X-77895Y45829D01*
X-78676Y46429D01*
X-79586Y46806D01*
X-80562Y46934D01*
D02*
G37*
G36*
X-60877D02*
X-61853Y46806D01*
X-62763Y46429D01*
X-63545Y45829D01*
X-64144Y45048D01*
X-64521Y44138D01*
X-64650Y43162D01*
X-64521Y42185D01*
X-64144Y41276D01*
X-63545Y40494D01*
X-62763Y39895D01*
X-61853Y39518D01*
X-60877Y39389D01*
X-59901Y39518D01*
X-58991Y39895D01*
X-58210Y40494D01*
X-57610Y41276D01*
X-57233Y42185D01*
X-57105Y43162D01*
X-57233Y44138D01*
X-57610Y45048D01*
X-58210Y45829D01*
X-58991Y46429D01*
X-59901Y46806D01*
X-60877Y46934D01*
D02*
G37*
G36*
X-40944Y41771D02*
X-41712Y41618D01*
X-42363Y41183D01*
X-42798Y40532D01*
X-42951Y39764D01*
X-42798Y38996D01*
X-42363Y38345D01*
X-41712Y37910D01*
X-40944Y37757D01*
X-40176Y37910D01*
X-39525Y38345D01*
X-39090Y38996D01*
X-38937Y39764D01*
X-39090Y40532D01*
X-39525Y41183D01*
X-40176Y41618D01*
X-40944Y41771D01*
D02*
G37*
G36*
X-115354Y43346D02*
X-116122Y43193D01*
X-116773Y42758D01*
X-117208Y42107D01*
X-117361Y41339D01*
X-117208Y40571D01*
X-116773Y39920D01*
X-116122Y39485D01*
X-115354Y39332D01*
X-114585Y39485D01*
X-113934Y39920D01*
X-113499Y40571D01*
X-113347Y41339D01*
X-113499Y42107D01*
X-113934Y42758D01*
X-114585Y43193D01*
X-115354Y43346D01*
D02*
G37*
G36*
X126727Y49703D02*
X125867Y49513D01*
X125085Y49106D01*
X124436Y48511D01*
X123962Y47767D01*
X123697Y46927D01*
X123659Y46047D01*
X123850Y45187D01*
X124257Y44405D01*
X124852Y43755D01*
X125595Y43282D01*
X126435Y43017D01*
X127316Y42979D01*
X128176Y43169D01*
X128957Y43576D01*
X129607Y44171D01*
X130080Y44915D01*
X130345Y45755D01*
X130384Y46635D01*
X130193Y47495D01*
X129786Y48277D01*
X129191Y48927D01*
X128448Y49400D01*
X127608Y49665D01*
X126727Y49703D01*
D02*
G37*
G36*
X134919Y55439D02*
X134058Y55249D01*
X133277Y54842D01*
X132627Y54246D01*
X132154Y53503D01*
X131889Y52663D01*
X131850Y51783D01*
X132041Y50922D01*
X132448Y50141D01*
X133043Y49491D01*
X133786Y49018D01*
X134627Y48753D01*
X135507Y48714D01*
X136367Y48905D01*
X137149Y49312D01*
X137799Y49907D01*
X138272Y50650D01*
X138537Y51491D01*
X138575Y52371D01*
X138385Y53231D01*
X137978Y54013D01*
X137382Y54663D01*
X136639Y55136D01*
X135799Y55401D01*
X134919Y55439D01*
D02*
G37*
G36*
X-127558Y56338D02*
X-128326Y56185D01*
X-128978Y55750D01*
X-129413Y55099D01*
X-129565Y54331D01*
X-129413Y53563D01*
X-128978Y52912D01*
X-128326Y52477D01*
X-127558Y52324D01*
X-126790Y52477D01*
X-126139Y52912D01*
X-125704Y53563D01*
X-125551Y54331D01*
X-125704Y55099D01*
X-126139Y55750D01*
X-126790Y56185D01*
X-127558Y56338D01*
D02*
G37*
G36*
X-129133Y48858D02*
X-129901Y48705D01*
X-130552Y48270D01*
X-130987Y47619D01*
X-131140Y46851D01*
X-130987Y46083D01*
X-130552Y45432D01*
X-129901Y44997D01*
X-129133Y44844D01*
X-128365Y44997D01*
X-127714Y45432D01*
X-127279Y46083D01*
X-127126Y46851D01*
X-127279Y47619D01*
X-127714Y48270D01*
X-128365Y48705D01*
X-129133Y48858D01*
D02*
G37*
G36*
X-4724Y52008D02*
X-5492Y51855D01*
X-6143Y51420D01*
X-6578Y50769D01*
X-6731Y50000D01*
X-6578Y49232D01*
X-6143Y48581D01*
X-5492Y48146D01*
X-4724Y47993D01*
X-3956Y48146D01*
X-3304Y48581D01*
X-2869Y49232D01*
X-2717Y50000D01*
X-2869Y50769D01*
X-3304Y51420D01*
X-3956Y51855D01*
X-4724Y52008D01*
D02*
G37*
G36*
X86003Y107863D02*
X85143Y107673D01*
X84361Y107266D01*
X83712Y106670D01*
X83238Y105927D01*
X82973Y105087D01*
X82935Y104207D01*
X83126Y103346D01*
X83533Y102565D01*
X84128Y101915D01*
X84871Y101442D01*
X85711Y101177D01*
X86592Y101138D01*
X87452Y101329D01*
X88234Y101736D01*
X88883Y102331D01*
X89356Y103074D01*
X89622Y103915D01*
X89660Y104795D01*
X89469Y105655D01*
X89062Y106437D01*
X88467Y107087D01*
X87724Y107560D01*
X86884Y107825D01*
X86003Y107863D01*
D02*
G37*
G36*
X8269Y105157D02*
X7500Y105004D01*
X6849Y104569D01*
X6414Y103918D01*
X6261Y103150D01*
X6414Y102382D01*
X6849Y101731D01*
X7500Y101296D01*
X8269Y101143D01*
X9037Y101296D01*
X9688Y101731D01*
X10123Y102382D01*
X10276Y103150D01*
X10123Y103918D01*
X9688Y104569D01*
X9037Y105004D01*
X8269Y105157D01*
D02*
G37*
G36*
X-70720Y104021D02*
X-71696Y103892D01*
X-72606Y103515D01*
X-73387Y102916D01*
X-73987Y102135D01*
X-74364Y101225D01*
X-74492Y100248D01*
X-74364Y99272D01*
X-73987Y98362D01*
X-73387Y97581D01*
X-72606Y96981D01*
X-71696Y96605D01*
X-70720Y96476D01*
X-69743Y96605D01*
X-68834Y96981D01*
X-68052Y97581D01*
X-67453Y98362D01*
X-67076Y99272D01*
X-66947Y100248D01*
X-67076Y101225D01*
X-67453Y102135D01*
X-68052Y102916D01*
X-68834Y103515D01*
X-69743Y103892D01*
X-70720Y104021D01*
D02*
G37*
G36*
X-60877D02*
X-61853Y103892D01*
X-62763Y103515D01*
X-63545Y102916D01*
X-64144Y102135D01*
X-64521Y101225D01*
X-64650Y100248D01*
X-64521Y99272D01*
X-64144Y98362D01*
X-63545Y97581D01*
X-62763Y96981D01*
X-61853Y96605D01*
X-60877Y96476D01*
X-59901Y96605D01*
X-58991Y96981D01*
X-58210Y97581D01*
X-57610Y98362D01*
X-57233Y99272D01*
X-57105Y100248D01*
X-57233Y101225D01*
X-57610Y102135D01*
X-58210Y102916D01*
X-58991Y103515D01*
X-59901Y103892D01*
X-60877Y104021D01*
D02*
G37*
G36*
X37009Y107127D02*
X36241Y106974D01*
X35590Y106539D01*
X35155Y105888D01*
X35002Y105120D01*
X35155Y104351D01*
X35590Y103700D01*
X36241Y103265D01*
X37009Y103112D01*
X37777Y103265D01*
X38429Y103700D01*
X38864Y104351D01*
X39016Y105120D01*
X38864Y105888D01*
X38429Y106539D01*
X37777Y106974D01*
X37009Y107127D01*
D02*
G37*
G36*
X-41318Y124724D02*
X-43680D01*
X-44295Y124602D01*
X-44816Y124254D01*
X-45164Y123733D01*
X-45286Y123118D01*
Y120756D01*
X-45164Y120142D01*
X-44816Y119621D01*
X-44295Y119273D01*
X-43680Y119151D01*
X-41318D01*
X-40704Y119273D01*
X-40183Y119621D01*
X-39835Y120142D01*
X-39713Y120756D01*
Y123118D01*
X-39835Y123733D01*
X-40183Y124254D01*
X-40704Y124602D01*
X-41318Y124724D01*
D02*
G37*
G36*
X1Y144117D02*
X-1233Y143996D01*
X-2421Y143636D01*
X-3515Y143051D01*
X-4474Y142264D01*
X-5262Y141304D01*
X-5847Y140210D01*
X-6207Y139023D01*
X-6328Y137788D01*
X-6207Y136553D01*
X-5847Y135365D01*
X-5262Y134271D01*
X-4474Y133312D01*
X-3515Y132525D01*
X-2421Y131940D01*
X-1233Y131580D01*
X1Y131458D01*
X1236Y131580D01*
X2424Y131940D01*
X3518Y132525D01*
X4477Y133312D01*
X5264Y134271D01*
X5849Y135365D01*
X6210Y136553D01*
X6331Y137788D01*
X6210Y139023D01*
X5849Y140210D01*
X5264Y141304D01*
X4477Y142264D01*
X3518Y143051D01*
X2424Y143636D01*
X1236Y143996D01*
X1Y144117D01*
D02*
G37*
G36*
X94195Y113599D02*
X93335Y113408D01*
X92553Y113002D01*
X91903Y112406D01*
X91430Y111663D01*
X91165Y110823D01*
X91127Y109942D01*
X91317Y109082D01*
X91724Y108301D01*
X92319Y107651D01*
X93063Y107177D01*
X93903Y106913D01*
X94783Y106874D01*
X95643Y107065D01*
X96425Y107472D01*
X97075Y108067D01*
X97548Y108810D01*
X97813Y109651D01*
X97851Y110531D01*
X97661Y111391D01*
X97254Y112173D01*
X96659Y112822D01*
X95915Y113296D01*
X95075Y113561D01*
X94195Y113599D01*
D02*
G37*
G36*
X-42499Y116843D02*
X-43219Y116748D01*
X-43889Y116471D01*
X-44465Y116029D01*
X-44906Y115453D01*
X-45184Y114783D01*
X-45279Y114063D01*
X-45184Y113344D01*
X-44906Y112674D01*
X-44465Y112098D01*
X-43889Y111656D01*
X-43219Y111378D01*
X-42499Y111284D01*
X-41780Y111378D01*
X-41109Y111656D01*
X-40534Y112098D01*
X-40092Y112674D01*
X-39814Y113344D01*
X-39720Y114063D01*
X-39814Y114783D01*
X-40092Y115453D01*
X-40534Y116029D01*
X-41109Y116471D01*
X-41780Y116748D01*
X-42499Y116843D01*
D02*
G37*
G36*
X-80562Y104021D02*
X-81539Y103892D01*
X-82448Y103515D01*
X-83230Y102916D01*
X-83829Y102135D01*
X-84206Y101225D01*
X-84335Y100248D01*
X-84206Y99272D01*
X-83829Y98362D01*
X-83230Y97581D01*
X-82448Y96981D01*
X-81539Y96605D01*
X-80562Y96476D01*
X-79586Y96605D01*
X-78676Y96981D01*
X-77895Y97581D01*
X-77295Y98362D01*
X-76918Y99272D01*
X-76790Y100248D01*
X-76918Y101225D01*
X-77295Y102135D01*
X-77895Y102916D01*
X-78676Y103515D01*
X-79586Y103892D01*
X-80562Y104021D01*
D02*
G37*
G36*
X53237Y84920D02*
X52377Y84730D01*
X51595Y84323D01*
X50946Y83727D01*
X50472Y82984D01*
X50207Y82144D01*
X50169Y81264D01*
X50360Y80403D01*
X50766Y79622D01*
X51362Y78972D01*
X52105Y78499D01*
X52945Y78234D01*
X53825Y78195D01*
X54686Y78386D01*
X55467Y78793D01*
X56117Y79388D01*
X56590Y80131D01*
X56855Y80972D01*
X56894Y81852D01*
X56703Y82712D01*
X56296Y83494D01*
X55701Y84143D01*
X54958Y84617D01*
X54118Y84882D01*
X53237Y84920D01*
D02*
G37*
G36*
X61429Y90656D02*
X60568Y90465D01*
X59787Y90058D01*
X59137Y89463D01*
X58664Y88720D01*
X58399Y87880D01*
X58360Y86999D01*
X58551Y86139D01*
X58958Y85358D01*
X59553Y84708D01*
X60296Y84234D01*
X61137Y83969D01*
X62017Y83931D01*
X62877Y84122D01*
X63659Y84529D01*
X64309Y85124D01*
X64782Y85867D01*
X65047Y86707D01*
X65085Y87588D01*
X64895Y88448D01*
X64488Y89230D01*
X63893Y89879D01*
X63149Y90353D01*
X62309Y90618D01*
X61429Y90656D01*
D02*
G37*
G36*
X17324Y80748D02*
X16556Y80595D01*
X15904Y80160D01*
X15469Y79509D01*
X15316Y78741D01*
X15469Y77973D01*
X15904Y77321D01*
X16556Y76886D01*
X17324Y76733D01*
X18092Y76886D01*
X18743Y77321D01*
X19178Y77973D01*
X19331Y78741D01*
X19178Y79509D01*
X18743Y80160D01*
X18092Y80595D01*
X17324Y80748D01*
D02*
G37*
G36*
X-98818Y81141D02*
X-99586Y80989D01*
X-100237Y80554D01*
X-100672Y79902D01*
X-100825Y79134D01*
X-100672Y78366D01*
X-100237Y77715D01*
X-99586Y77280D01*
X-98818Y77127D01*
X-98050Y77280D01*
X-97399Y77715D01*
X-96964Y78366D01*
X-96811Y79134D01*
X-96964Y79902D01*
X-97399Y80554D01*
X-98050Y80989D01*
X-98818Y81141D01*
D02*
G37*
G36*
X27560Y90984D02*
X26792Y90831D01*
X26141Y90396D01*
X25706Y89745D01*
X25553Y88977D01*
X25706Y88209D01*
X26141Y87558D01*
X26792Y87122D01*
X27560Y86970D01*
X28328Y87122D01*
X28979Y87558D01*
X29414Y88209D01*
X29567Y88977D01*
X29414Y89745D01*
X28979Y90396D01*
X28328Y90831D01*
X27560Y90984D01*
D02*
G37*
G36*
X77812Y102128D02*
X76951Y101937D01*
X76170Y101530D01*
X75520Y100935D01*
X75047Y100192D01*
X74782Y99351D01*
X74743Y98471D01*
X74934Y97611D01*
X75341Y96829D01*
X75936Y96179D01*
X76679Y95706D01*
X77520Y95441D01*
X78400Y95403D01*
X79260Y95593D01*
X80042Y96000D01*
X80692Y96596D01*
X81165Y97339D01*
X81430Y98179D01*
X81468Y99059D01*
X81278Y99919D01*
X80871Y100701D01*
X80275Y101351D01*
X79532Y101824D01*
X78692Y102089D01*
X77812Y102128D01*
D02*
G37*
G36*
X102363Y108692D02*
X101128Y108571D01*
X99941Y108211D01*
X98846Y107625D01*
X97887Y106838D01*
X97100Y105879D01*
X96515Y104785D01*
X96155Y103597D01*
X96033Y102363D01*
X96155Y101128D01*
X96515Y99940D01*
X97100Y98846D01*
X97887Y97887D01*
X98846Y97100D01*
X99941Y96515D01*
X101128Y96154D01*
X102363Y96033D01*
X103598Y96154D01*
X104785Y96515D01*
X105880Y97100D01*
X106839Y97887D01*
X107626Y98846D01*
X108211Y99940D01*
X108571Y101128D01*
X108693Y102363D01*
X108571Y103597D01*
X108211Y104785D01*
X107626Y105879D01*
X106839Y106838D01*
X105880Y107625D01*
X104785Y108211D01*
X103598Y108571D01*
X102363Y108692D01*
D02*
G37*
G36*
X69620Y96392D02*
X68760Y96201D01*
X67978Y95794D01*
X67329Y95199D01*
X66855Y94456D01*
X66590Y93615D01*
X66552Y92735D01*
X66743Y91875D01*
X67150Y91093D01*
X67745Y90444D01*
X68488Y89970D01*
X69328Y89705D01*
X70209Y89667D01*
X71069Y89858D01*
X71850Y90264D01*
X72500Y90860D01*
X72974Y91603D01*
X73238Y92443D01*
X73277Y93323D01*
X73086Y94184D01*
X72679Y94965D01*
X72084Y95615D01*
X71341Y96088D01*
X70500Y96353D01*
X69620Y96392D01*
D02*
G37*
G36*
X13780Y97283D02*
X13012Y97130D01*
X12361Y96695D01*
X11926Y96044D01*
X11773Y95276D01*
X11926Y94508D01*
X12361Y93857D01*
X13012Y93422D01*
X13780Y93269D01*
X14548Y93422D01*
X15200Y93857D01*
X15635Y94508D01*
X15787Y95276D01*
X15635Y96044D01*
X15200Y96695D01*
X14548Y97130D01*
X13780Y97283D01*
D02*
G37*
G36*
X-68898Y11649D02*
X-69589Y11511D01*
X-70175Y11120D01*
X-70566Y10534D01*
X-70704Y9843D01*
X-70566Y9151D01*
X-70175Y8565D01*
X-69589Y8174D01*
X-68898Y8036D01*
X-68206Y8174D01*
X-67620Y8565D01*
X-67229Y9151D01*
X-67091Y9843D01*
X-67229Y10534D01*
X-67620Y11120D01*
X-68206Y11511D01*
X-68898Y11649D01*
D02*
G37*
G36*
X77578Y15289D02*
X76718Y15098D01*
X75936Y14691D01*
X75287Y14096D01*
X74813Y13353D01*
X74548Y12513D01*
X74510Y11632D01*
X74700Y10772D01*
X75107Y9990D01*
X75703Y9341D01*
X76446Y8867D01*
X77286Y8602D01*
X78166Y8564D01*
X79027Y8755D01*
X79808Y9162D01*
X80458Y9757D01*
X80931Y10500D01*
X81196Y11340D01*
X81235Y12221D01*
X81044Y13081D01*
X80637Y13862D01*
X80042Y14512D01*
X79299Y14986D01*
X78458Y15250D01*
X77578Y15289D01*
D02*
G37*
G36*
X-2361Y11850D02*
X-3130Y11697D01*
X-3781Y11262D01*
X-4216Y10611D01*
X-4369Y9843D01*
X-4216Y9075D01*
X-3781Y8424D01*
X-3130Y7989D01*
X-2361Y7836D01*
X-1593Y7989D01*
X-942Y8424D01*
X-507Y9075D01*
X-354Y9843D01*
X-507Y10611D01*
X-942Y11262D01*
X-1593Y11697D01*
X-2361Y11850D01*
D02*
G37*
G36*
X-76772Y11649D02*
X-77463Y11511D01*
X-78049Y11120D01*
X-78440Y10534D01*
X-78578Y9843D01*
X-78440Y9151D01*
X-78049Y8565D01*
X-77463Y8174D01*
X-76772Y8036D01*
X-76080Y8174D01*
X-75494Y8565D01*
X-75103Y9151D01*
X-74965Y9843D01*
X-75103Y10534D01*
X-75494Y11120D01*
X-76080Y11511D01*
X-76772Y11649D01*
D02*
G37*
G36*
X36220Y12637D02*
X35452Y12484D01*
X34801Y12049D01*
X34366Y11398D01*
X34213Y10630D01*
X34366Y9862D01*
X34801Y9211D01*
X35452Y8776D01*
X36220Y8623D01*
X36988Y8776D01*
X37640Y9211D01*
X38075Y9862D01*
X38227Y10630D01*
X38075Y11398D01*
X37640Y12049D01*
X36988Y12484D01*
X36220Y12637D01*
D02*
G37*
G36*
X-72835Y15586D02*
X-73526Y15448D01*
X-74112Y15057D01*
X-74503Y14471D01*
X-74641Y13780D01*
X-74503Y13088D01*
X-74112Y12502D01*
X-73526Y12111D01*
X-72835Y11973D01*
X-72143Y12111D01*
X-71557Y12502D01*
X-71166Y13088D01*
X-71028Y13780D01*
X-71166Y14471D01*
X-71557Y15057D01*
X-72143Y15448D01*
X-72835Y15586D01*
D02*
G37*
G36*
X-66929D02*
X-67620Y15448D01*
X-68206Y15057D01*
X-68598Y14471D01*
X-68735Y13780D01*
X-68598Y13088D01*
X-68206Y12502D01*
X-67620Y12111D01*
X-66929Y11973D01*
X-66238Y12111D01*
X-65652Y12502D01*
X-65260Y13088D01*
X-65123Y13780D01*
X-65260Y14471D01*
X-65652Y15057D01*
X-66238Y15448D01*
X-66929Y15586D01*
D02*
G37*
G36*
X-134842Y12834D02*
X-135610Y12682D01*
X-136261Y12246D01*
X-136696Y11595D01*
X-136849Y10827D01*
X-136696Y10059D01*
X-136261Y9408D01*
X-135610Y8973D01*
X-134842Y8820D01*
X-134074Y8973D01*
X-133423Y9408D01*
X-132987Y10059D01*
X-132835Y10827D01*
X-132987Y11595D01*
X-133423Y12246D01*
X-134074Y12682D01*
X-134842Y12834D01*
D02*
G37*
G36*
X-30709Y13818D02*
X-31477Y13665D01*
X-32128Y13230D01*
X-32563Y12579D01*
X-32716Y11811D01*
X-32563Y11043D01*
X-32128Y10392D01*
X-31477Y9957D01*
X-30709Y9804D01*
X-29941Y9957D01*
X-29289Y10392D01*
X-28854Y11043D01*
X-28702Y11811D01*
X-28854Y12579D01*
X-29289Y13230D01*
X-29941Y13665D01*
X-30709Y13818D01*
D02*
G37*
G36*
X-59449Y7712D02*
X-60140Y7574D01*
X-60726Y7183D01*
X-61118Y6597D01*
X-61255Y5906D01*
X-61140Y5324D01*
Y5324D01*
X-61119Y5218D01*
X-61118Y5214D01*
X-61118Y5214D01*
X-61143Y5198D01*
X-61493Y4973D01*
X-61510Y4962D01*
X-61532Y4948D01*
X-61535Y4945D01*
X-61599Y5041D01*
X-61599Y5041D01*
X-61715Y5214D01*
X-62301Y5606D01*
X-62992Y5743D01*
X-63683Y5606D01*
X-64269Y5214D01*
X-64661Y4628D01*
X-64798Y3937D01*
X-64661Y3246D01*
X-64269Y2660D01*
X-63683Y2268D01*
X-62992Y2131D01*
X-62301Y2268D01*
X-61715Y2660D01*
X-61323Y3246D01*
X-61186Y3937D01*
X-61301Y4518D01*
Y4518D01*
X-61322Y4624D01*
X-61323Y4628D01*
X-61323Y4628D01*
X-61298Y4644D01*
X-60948Y4870D01*
X-60931Y4881D01*
X-60909Y4895D01*
X-60906Y4897D01*
X-60842Y4801D01*
X-60842Y4801D01*
X-60726Y4628D01*
X-60140Y4237D01*
X-59449Y4099D01*
X-58758Y4237D01*
X-58171Y4628D01*
X-57780Y5214D01*
X-57643Y5906D01*
X-57780Y6597D01*
X-58171Y7183D01*
X-58758Y7574D01*
X-59449Y7712D01*
D02*
G37*
G36*
X-2755Y2795D02*
X-3523Y2642D01*
X-4174Y2207D01*
X-4609Y1556D01*
X-4762Y788D01*
X-4609Y20D01*
X-4174Y-631D01*
X-3523Y-1067D01*
X-2755Y-1219D01*
X-1987Y-1067D01*
X-1336Y-631D01*
X-901Y20D01*
X-748Y788D01*
X-901Y1556D01*
X-1336Y2207D01*
X-1987Y2642D01*
X-2755Y2795D01*
D02*
G37*
G36*
X3150Y3348D02*
X2382Y3195D01*
X1731Y2760D01*
X1296Y2108D01*
X1143Y1340D01*
X1296Y572D01*
X1731Y-79D01*
X2382Y-514D01*
X3150Y-667D01*
X3918Y-514D01*
X4570Y-79D01*
X5005Y572D01*
X5158Y1340D01*
X5005Y2108D01*
X4570Y2760D01*
X3918Y3195D01*
X3150Y3348D01*
D02*
G37*
G36*
X-80709Y1806D02*
X-81400Y1669D01*
X-81986Y1277D01*
X-82377Y691D01*
X-82515Y0D01*
X-82377Y-691D01*
X-81986Y-1277D01*
X-81400Y-1669D01*
X-80709Y-1806D01*
X-80017Y-1669D01*
X-79431Y-1277D01*
X-79040Y-691D01*
X-78902Y0D01*
X-79040Y691D01*
X-79431Y1277D01*
X-80017Y1669D01*
X-80709Y1806D01*
D02*
G37*
G36*
X-59055D02*
X-59746Y1669D01*
X-60332Y1277D01*
X-60724Y691D01*
X-60861Y0D01*
X-60724Y-691D01*
X-60332Y-1277D01*
X-59746Y-1669D01*
X-59055Y-1806D01*
X-58364Y-1669D01*
X-57778Y-1277D01*
X-57386Y-691D01*
X-57249Y0D01*
X-57386Y691D01*
X-57778Y1277D01*
X-58364Y1669D01*
X-59055Y1806D01*
D02*
G37*
G36*
X-84646Y3775D02*
X-85337Y3637D01*
X-85923Y3246D01*
X-86314Y2660D01*
X-86452Y1969D01*
X-86314Y1277D01*
X-85923Y691D01*
X-85337Y300D01*
X-84646Y162D01*
X-83954Y300D01*
X-83368Y691D01*
X-82977Y1277D01*
X-82839Y1969D01*
X-82977Y2660D01*
X-83368Y3246D01*
X-83954Y3637D01*
X-84646Y3775D01*
D02*
G37*
G36*
X-40001Y8069D02*
X-40769Y7916D01*
X-41420Y7481D01*
X-41855Y6830D01*
X-42008Y6062D01*
X-41855Y5294D01*
X-41420Y4643D01*
X-40769Y4208D01*
X-40001Y4055D01*
X-39233Y4208D01*
X-38582Y4643D01*
X-38146Y5294D01*
X-37994Y6062D01*
X-38146Y6830D01*
X-38582Y7481D01*
X-39233Y7916D01*
X-40001Y8069D01*
D02*
G37*
G36*
X-80709Y7712D02*
X-81400Y7574D01*
X-81986Y7183D01*
X-82377Y6597D01*
X-82515Y5906D01*
X-82377Y5214D01*
X-81986Y4628D01*
X-81400Y4237D01*
X-80709Y4099D01*
X-80017Y4237D01*
X-79431Y4628D01*
X-79040Y5214D01*
X-78902Y5906D01*
X-79040Y6597D01*
X-79431Y7183D01*
X-80017Y7574D01*
X-80709Y7712D01*
D02*
G37*
G36*
X37121Y5664D02*
X36353Y5511D01*
X35702Y5076D01*
X35267Y4425D01*
X35114Y3657D01*
X35267Y2888D01*
X35702Y2237D01*
X36353Y1802D01*
X37121Y1650D01*
X37889Y1802D01*
X38540Y2237D01*
X38975Y2888D01*
X39128Y3657D01*
X38975Y4425D01*
X38540Y5076D01*
X37889Y5511D01*
X37121Y5664D01*
D02*
G37*
G36*
X-24802Y5945D02*
X-25570Y5792D01*
X-26222Y5357D01*
X-26657Y4705D01*
X-26809Y3937D01*
X-26657Y3169D01*
X-26222Y2518D01*
X-25570Y2083D01*
X-24802Y1930D01*
X-24034Y2083D01*
X-23383Y2518D01*
X-22948Y3169D01*
X-22795Y3937D01*
X-22948Y4705D01*
X-23383Y5357D01*
X-24034Y5792D01*
X-24802Y5945D01*
D02*
G37*
G36*
X-95602Y30681D02*
X-96370Y30528D01*
X-97021Y30093D01*
X-97456Y29442D01*
X-97609Y28674D01*
X-97456Y27906D01*
X-97021Y27254D01*
X-96370Y26819D01*
X-95602Y26667D01*
X-94833Y26819D01*
X-94182Y27254D01*
X-93747Y27906D01*
X-93594Y28674D01*
X-93747Y29442D01*
X-94182Y30093D01*
X-94833Y30528D01*
X-95602Y30681D01*
D02*
G37*
G36*
X25198Y30973D02*
X24430Y30820D01*
X23778Y30385D01*
X23343Y29734D01*
X23191Y28966D01*
X23343Y28198D01*
X23778Y27547D01*
X24430Y27112D01*
X25198Y26959D01*
X25966Y27112D01*
X26617Y27547D01*
X27052Y28198D01*
X27205Y28966D01*
X27052Y29734D01*
X26617Y30385D01*
X25966Y30820D01*
X25198Y30973D01*
D02*
G37*
G36*
X-146456Y29960D02*
X-147224Y29807D01*
X-147875Y29372D01*
X-148310Y28721D01*
X-148463Y27953D01*
X-148310Y27185D01*
X-147875Y26534D01*
X-147224Y26099D01*
X-146456Y25946D01*
X-145688Y26099D01*
X-145037Y26534D01*
X-144602Y27185D01*
X-144449Y27953D01*
X-144602Y28721D01*
X-145037Y29372D01*
X-145688Y29807D01*
X-146456Y29960D01*
D02*
G37*
G36*
X-9054D02*
X-9822Y29807D01*
X-10474Y29372D01*
X-10909Y28721D01*
X-11061Y27953D01*
X-10909Y27185D01*
X-10474Y26534D01*
X-9822Y26099D01*
X-9054Y25946D01*
X-8286Y26099D01*
X-7635Y26534D01*
X-7200Y27185D01*
X-7047Y27953D01*
X-7200Y28721D01*
X-7635Y29372D01*
X-8286Y29807D01*
X-9054Y29960D01*
D02*
G37*
G36*
X110344Y38232D02*
X109484Y38041D01*
X108702Y37634D01*
X108053Y37039D01*
X107579Y36296D01*
X107314Y35456D01*
X107276Y34575D01*
X107467Y33715D01*
X107873Y32934D01*
X108469Y32284D01*
X109212Y31810D01*
X110052Y31545D01*
X110933Y31507D01*
X111793Y31698D01*
X112574Y32105D01*
X113224Y32700D01*
X113697Y33443D01*
X113962Y34283D01*
X114001Y35164D01*
X113810Y36024D01*
X113403Y36805D01*
X112808Y37455D01*
X112065Y37929D01*
X111224Y38194D01*
X110344Y38232D01*
D02*
G37*
G36*
X-102755Y37440D02*
X-103523Y37288D01*
X-104174Y36853D01*
X-104609Y36202D01*
X-104762Y35434D01*
X-104609Y34665D01*
X-104174Y34014D01*
X-103523Y33579D01*
X-102755Y33426D01*
X-101987Y33579D01*
X-101336Y34014D01*
X-100901Y34665D01*
X-100748Y35434D01*
X-100901Y36202D01*
X-101336Y36853D01*
X-101987Y37288D01*
X-102755Y37440D01*
D02*
G37*
G36*
X118536Y43968D02*
X117675Y43777D01*
X116894Y43370D01*
X116244Y42775D01*
X115771Y42032D01*
X115506Y41191D01*
X115467Y40311D01*
X115658Y39451D01*
X116065Y38669D01*
X116660Y38020D01*
X117403Y37546D01*
X118244Y37281D01*
X119124Y37243D01*
X119984Y37433D01*
X120766Y37840D01*
X121415Y38436D01*
X121889Y39179D01*
X122154Y40019D01*
X122192Y40900D01*
X122002Y41760D01*
X121595Y42541D01*
X121000Y43191D01*
X120256Y43664D01*
X119416Y43929D01*
X118536Y43968D01*
D02*
G37*
G36*
X1Y36653D02*
X-767Y36500D01*
X-1418Y36065D01*
X-1853Y35414D01*
X-2006Y34646D01*
X-1853Y33878D01*
X-1418Y33227D01*
X-767Y32792D01*
X1Y32639D01*
X769Y32792D01*
X1420Y33227D01*
X1855Y33878D01*
X2008Y34646D01*
X1855Y35414D01*
X1420Y36065D01*
X769Y36500D01*
X1Y36653D01*
D02*
G37*
G36*
X-134645Y37047D02*
X-135413Y36894D01*
X-136064Y36459D01*
X-136499Y35808D01*
X-136652Y35040D01*
X-136499Y34272D01*
X-136064Y33621D01*
X-135413Y33185D01*
X-134645Y33033D01*
X-133877Y33185D01*
X-133226Y33621D01*
X-132791Y34272D01*
X-132638Y35040D01*
X-132791Y35808D01*
X-133226Y36459D01*
X-133877Y36894D01*
X-134645Y37047D01*
D02*
G37*
G36*
X102153Y32496D02*
X101292Y32305D01*
X100511Y31899D01*
X99861Y31303D01*
X99388Y30560D01*
X99123Y29720D01*
X99084Y28840D01*
X99275Y27979D01*
X99682Y27198D01*
X100277Y26548D01*
X101020Y26075D01*
X101861Y25810D01*
X102741Y25771D01*
X103601Y25962D01*
X104383Y26369D01*
X105032Y26964D01*
X105506Y27707D01*
X105771Y28548D01*
X105809Y29428D01*
X105619Y30288D01*
X105212Y31070D01*
X104616Y31719D01*
X103873Y32193D01*
X103033Y32458D01*
X102153Y32496D01*
D02*
G37*
G36*
X-140314Y19417D02*
X-143070D01*
X-143992Y19233D01*
X-144773Y18711D01*
X-145295Y17930D01*
X-145479Y17008D01*
X-145295Y16087D01*
X-144773Y15305D01*
X-143992Y14783D01*
X-143070Y14600D01*
X-140314D01*
X-139392Y14783D01*
X-138611Y15305D01*
X-138089Y16087D01*
X-137906Y17008D01*
X-138089Y17930D01*
X-138611Y18711D01*
X-139392Y19233D01*
X-140314Y19417D01*
D02*
G37*
G36*
X-96554Y21791D02*
X-97322Y21638D01*
X-97974Y21203D01*
X-98409Y20552D01*
X-98561Y19784D01*
X-98409Y19016D01*
X-97974Y18365D01*
X-97322Y17930D01*
X-96554Y17777D01*
X-95786Y17930D01*
X-95135Y18365D01*
X-94700Y19016D01*
X-94547Y19784D01*
X-94700Y20552D01*
X-95135Y21203D01*
X-95786Y21638D01*
X-96554Y21791D01*
D02*
G37*
G36*
X21654Y16574D02*
X20886Y16422D01*
X20235Y15987D01*
X19800Y15335D01*
X19647Y14567D01*
X19800Y13799D01*
X20235Y13148D01*
X20886Y12713D01*
X21654Y12560D01*
X22422Y12713D01*
X23074Y13148D01*
X23509Y13799D01*
X23661Y14567D01*
X23509Y15335D01*
X23074Y15987D01*
X22422Y16422D01*
X21654Y16574D01*
D02*
G37*
G36*
X85770Y21025D02*
X84909Y20834D01*
X84128Y20427D01*
X83478Y19832D01*
X83005Y19089D01*
X82740Y18248D01*
X82701Y17368D01*
X82892Y16508D01*
X83299Y15726D01*
X83894Y15077D01*
X84637Y14603D01*
X85478Y14338D01*
X86358Y14300D01*
X87218Y14491D01*
X88000Y14897D01*
X88649Y15493D01*
X89123Y16236D01*
X89388Y17076D01*
X89426Y17956D01*
X89236Y18817D01*
X88829Y19598D01*
X88233Y20248D01*
X87490Y20721D01*
X86650Y20986D01*
X85770Y21025D01*
D02*
G37*
G36*
X93961Y26761D02*
X93101Y26570D01*
X92319Y26163D01*
X91670Y25568D01*
X91196Y24825D01*
X90931Y23984D01*
X90893Y23104D01*
X91084Y22244D01*
X91490Y21462D01*
X92086Y20812D01*
X92829Y20339D01*
X93669Y20074D01*
X94550Y20035D01*
X95410Y20226D01*
X96191Y20633D01*
X96841Y21228D01*
X97314Y21972D01*
X97579Y22812D01*
X97618Y23692D01*
X97427Y24553D01*
X97020Y25334D01*
X96425Y25984D01*
X95682Y26457D01*
X94841Y26722D01*
X93961Y26761D01*
D02*
G37*
G36*
X-113779Y28385D02*
X-114547Y28233D01*
X-115198Y27798D01*
X-115633Y27146D01*
X-115786Y26378D01*
X-115633Y25610D01*
X-115198Y24959D01*
X-114547Y24524D01*
X-113779Y24371D01*
X-113011Y24524D01*
X-112359Y24959D01*
X-111925Y25610D01*
X-111772Y26378D01*
X-111925Y27146D01*
X-112359Y27798D01*
X-113011Y28233D01*
X-113779Y28385D01*
D02*
G37*
G36*
X-31483Y29566D02*
X-32251Y29414D01*
X-32903Y28979D01*
X-33338Y28328D01*
X-33490Y27560D01*
X-33338Y26791D01*
X-32903Y26140D01*
X-32251Y25705D01*
X-31483Y25552D01*
X-30715Y25705D01*
X-30064Y26140D01*
X-29629Y26791D01*
X-29476Y27560D01*
X-29629Y28328D01*
X-30064Y28979D01*
X-30715Y29414D01*
X-31483Y29566D01*
D02*
G37*
G36*
X-66535Y21692D02*
X-67303Y21540D01*
X-67954Y21105D01*
X-68389Y20453D01*
X-68445Y20171D01*
X-68955D01*
X-69011Y20453D01*
X-69446Y21105D01*
X-70097Y21540D01*
X-70865Y21692D01*
X-71633Y21540D01*
X-72285Y21105D01*
X-72720Y20453D01*
X-72872Y19685D01*
X-72720Y18917D01*
X-72285Y18266D01*
X-71633Y17831D01*
X-70865Y17678D01*
X-70097Y17831D01*
X-69446Y18266D01*
X-69011Y18917D01*
X-68955Y19200D01*
X-68445D01*
X-68389Y18917D01*
X-67954Y18266D01*
X-67303Y17831D01*
X-66535Y17678D01*
X-65767Y17831D01*
X-65115Y18266D01*
X-64680Y18917D01*
X-64528Y19685D01*
X-64680Y20453D01*
X-65115Y21105D01*
X-65767Y21540D01*
X-66535Y21692D01*
D02*
G37*
G36*
X-136220Y28385D02*
X-136988Y28233D01*
X-137639Y27798D01*
X-138074Y27146D01*
X-138227Y26378D01*
X-138074Y25610D01*
X-137639Y24959D01*
X-136988Y24524D01*
X-136220Y24371D01*
X-135452Y24524D01*
X-134801Y24959D01*
X-134365Y25610D01*
X-134213Y26378D01*
X-134365Y27146D01*
X-134801Y27798D01*
X-135452Y28233D01*
X-136220Y28385D01*
D02*
G37*
%LPD*%
D63*
X59449Y-7087D02*
D03*
X-16684Y-52511D02*
D03*
X-75590Y-40551D02*
D03*
X-98818Y94095D02*
D03*
X-88976Y10630D02*
D03*
X-15747Y29528D02*
D03*
X-19783Y-67224D02*
D03*
X38190Y-51968D02*
D03*
Y-75984D02*
D03*
X-32676Y-69291D02*
D03*
X-48424Y-57480D02*
D03*
X-21259Y-19291D02*
D03*
X4332Y-41338D02*
D03*
X-11190Y-24015D02*
D03*
X22442Y-25364D02*
D03*
X7087Y1658D02*
D03*
X43307Y11024D02*
D03*
M02*
