G04*
G04 #@! TF.GenerationSoftware,Altium Limited,CircuitStudio,1.5.2 (30)*
G04*
G04 Layer_Color=8150272*
%FSLAX25Y25*%
%MOIN*%
G70*
G01*
G75*
%ADD69C,0.00394*%
%ADD148C,0.00394*%
%ADD149C,0.06299*%
G04:AMPARAMS|DCode=150|XSize=62.99mil|YSize=62.99mil|CornerRadius=16.73mil|HoleSize=0mil|Usage=FLASHONLY|Rotation=305.000|XOffset=0mil|YOffset=0mil|HoleType=Round|Shape=RoundedRectangle|*
%AMROUNDEDRECTD150*
21,1,0.06299,0.02953,0,0,305.0*
21,1,0.02953,0.06299,0,0,305.0*
1,1,0.03347,-0.00363,-0.02056*
1,1,0.03347,-0.02056,0.00363*
1,1,0.03347,0.00363,0.02056*
1,1,0.03347,0.02056,-0.00363*
%
%ADD150ROUNDEDRECTD150*%
%ADD151O,0.07087X0.04331*%
%ADD152C,0.07874*%
%ADD153C,0.05118*%
G04:AMPARAMS|DCode=154|XSize=51.18mil|YSize=51.18mil|CornerRadius=13.78mil|HoleSize=0mil|Usage=FLASHONLY|Rotation=90.000|XOffset=0mil|YOffset=0mil|HoleType=Round|Shape=RoundedRectangle|*
%AMROUNDEDRECTD154*
21,1,0.05118,0.02362,0,0,90.0*
21,1,0.02362,0.05118,0,0,90.0*
1,1,0.02756,0.01181,0.01181*
1,1,0.02756,0.01181,-0.01181*
1,1,0.02756,-0.01181,-0.01181*
1,1,0.02756,-0.01181,0.01181*
%
%ADD154ROUNDEDRECTD154*%
%ADD155C,0.07087*%
%ADD156O,0.10236X0.14173*%
G04:AMPARAMS|DCode=157|XSize=51.18mil|YSize=51.18mil|CornerRadius=13.78mil|HoleSize=0mil|Usage=FLASHONLY|Rotation=215.500|XOffset=0mil|YOffset=0mil|HoleType=Round|Shape=RoundedRectangle|*
%AMROUNDEDRECTD157*
21,1,0.05118,0.02362,0,0,215.5*
21,1,0.02362,0.05118,0,0,215.5*
1,1,0.02756,-0.01647,0.00276*
1,1,0.02756,0.00276,0.01647*
1,1,0.02756,0.01647,-0.00276*
1,1,0.02756,-0.00276,-0.01647*
%
%ADD157ROUNDEDRECTD157*%
%ADD158C,0.12205*%
G04:AMPARAMS|DCode=159|XSize=70.87mil|YSize=70.87mil|CornerRadius=18.7mil|HoleSize=0mil|Usage=FLASHONLY|Rotation=0.000|XOffset=0mil|YOffset=0mil|HoleType=Round|Shape=RoundedRectangle|*
%AMROUNDEDRECTD159*
21,1,0.07087,0.03347,0,0,0.0*
21,1,0.03347,0.07087,0,0,0.0*
1,1,0.03740,0.01673,-0.01673*
1,1,0.03740,-0.01673,-0.01673*
1,1,0.03740,-0.01673,0.01673*
1,1,0.03740,0.01673,0.01673*
%
%ADD159ROUNDEDRECTD159*%
%ADD161O,0.03492X0.03374*%
%ADD162R,0.13398X0.16548*%
%ADD163R,0.20472X0.16142*%
%ADD164R,0.12992X0.16142*%
G36*
X-76356Y-107225D02*
X-76350Y-107245D01*
X-76369Y-107225D01*
X-76363Y-107219D01*
X-76356Y-107225D01*
D02*
G37*
G36*
X-82793Y-94325D02*
X-82797Y-94321D01*
X-82787Y-94311D01*
X-82793Y-94325D01*
D02*
G37*
G36*
X-64199Y-94514D02*
X-64170Y-94524D01*
X-64151Y-94543D01*
X-64112Y-94582D01*
X-64103Y-94592D01*
X-64083Y-94611D01*
X-64045Y-94669D01*
X-64025Y-94688D01*
X-63996Y-94737D01*
X-63948Y-94804D01*
X-63890Y-94901D01*
X-63871Y-94920D01*
X-63842Y-94969D01*
X-63784Y-95046D01*
X-63735Y-95133D01*
X-63726Y-95143D01*
X-63706Y-95181D01*
X-63677Y-95230D01*
X-63629Y-95297D01*
X-63571Y-95375D01*
X-63513Y-95471D01*
X-63378Y-95665D01*
X-63368Y-95674D01*
X-63339Y-95703D01*
X-63310Y-95752D01*
X-63262Y-95819D01*
X-63213Y-95887D01*
X-63146Y-95974D01*
X-63020Y-96157D01*
X-63010Y-96167D01*
X-62981Y-96196D01*
X-62933Y-96245D01*
X-62894Y-96302D01*
X-62885Y-96312D01*
X-62856Y-96341D01*
X-62827Y-96390D01*
X-62788Y-96447D01*
X-62778Y-96457D01*
X-62769Y-96486D01*
X-62720Y-96554D01*
X-62711Y-96564D01*
X-62701Y-96573D01*
X-62643Y-96631D01*
X-62653Y-96641D01*
X-62643Y-96670D01*
X-62633Y-96680D01*
X-62624Y-96689D01*
X-62631Y-96696D01*
X-62595Y-96718D01*
X-62604Y-96728D01*
X-62595Y-96757D01*
X-62585Y-96844D01*
X-62575Y-96853D01*
Y-96873D01*
X-62546Y-96960D01*
X-62537Y-96989D01*
Y-97066D01*
Y-97182D01*
X-62566Y-97327D01*
X-62575Y-97337D01*
Y-97356D01*
X-62614Y-97433D01*
X-62682Y-97540D01*
X-62740Y-97578D01*
X-62798Y-97617D01*
X-62817Y-97636D01*
X-62865Y-97685D01*
X-62894Y-97694D01*
X-62952D01*
X-63281Y-97830D01*
X-63300D01*
X-63368Y-97839D01*
X-63600D01*
X-63755Y-97859D01*
X-63929Y-97878D01*
X-64122Y-97897D01*
X-64315Y-97936D01*
X-64335D01*
X-64402Y-97946D01*
X-64509Y-97975D01*
X-64644D01*
X-64799Y-97994D01*
X-64973Y-98013D01*
X-65369Y-98023D01*
X-65408D01*
X-65514Y-98013D01*
X-65678Y-98004D01*
X-65872Y-97984D01*
X-65881Y-97975D01*
X-65920D01*
X-65958Y-97955D01*
X-66017Y-97936D01*
X-66162Y-97868D01*
X-66229Y-97820D01*
X-66307Y-97762D01*
X-66316Y-97752D01*
X-66326Y-97743D01*
X-66374Y-97694D01*
X-66422Y-97627D01*
X-66471Y-97540D01*
X-66480Y-97511D01*
X-66500Y-97453D01*
X-66529Y-97366D01*
X-66558Y-97259D01*
X-66567Y-97230D01*
X-66597Y-97182D01*
X-66616Y-97105D01*
X-66654Y-97027D01*
X-66664Y-96998D01*
X-66684Y-96940D01*
X-66703Y-96863D01*
X-66722Y-96767D01*
Y-96747D01*
X-66732Y-96680D01*
Y-96583D01*
Y-96486D01*
Y-96467D01*
X-66742Y-96399D01*
Y-96302D01*
Y-96206D01*
Y-96187D01*
Y-96148D01*
X-66751Y-96022D01*
Y-96003D01*
Y-95964D01*
X-66742Y-95838D01*
Y-95819D01*
Y-95800D01*
Y-95742D01*
Y-95723D01*
X-66712Y-95674D01*
X-66703Y-95665D01*
X-66674Y-95616D01*
X-66616Y-95578D01*
X-66529Y-95529D01*
X-66519Y-95520D01*
X-66509Y-95510D01*
X-66452Y-95490D01*
X-66384Y-95442D01*
X-66307Y-95403D01*
X-66297Y-95394D01*
X-66239Y-95375D01*
X-66190Y-95345D01*
X-66123Y-95297D01*
X-66113Y-95288D01*
X-66075Y-95249D01*
X-66017Y-95210D01*
X-65949Y-95181D01*
X-65939Y-95171D01*
X-65920D01*
X-65842Y-95133D01*
X-65746Y-95075D01*
X-65630Y-95036D01*
X-65620Y-95026D01*
X-65601D01*
X-65533Y-94998D01*
X-65427Y-94949D01*
X-65311Y-94891D01*
X-65301Y-94882D01*
X-65253Y-94872D01*
X-65185Y-94843D01*
X-65118Y-94814D01*
X-65108Y-94804D01*
X-65050Y-94785D01*
X-64992Y-94746D01*
X-64924Y-94717D01*
X-64915Y-94708D01*
X-64866Y-94698D01*
X-64808Y-94679D01*
X-64731Y-94659D01*
X-64721Y-94650D01*
X-64673Y-94640D01*
X-64615Y-94621D01*
X-64547Y-94592D01*
X-64538Y-94582D01*
X-64509Y-94572D01*
X-64470Y-94553D01*
X-64393Y-94534D01*
X-64373D01*
X-64335Y-94514D01*
X-64267Y-94505D01*
X-64209D01*
X-64199Y-94514D01*
D02*
G37*
G36*
X-68839Y-89159D02*
X-68820Y-89140D01*
X-68810Y-89149D01*
X-68771D01*
X-68723Y-89159D01*
X-68655Y-89169D01*
X-68636D01*
X-68588Y-89159D01*
X-68530D01*
X-68481Y-89149D01*
X-68472Y-89159D01*
X-68423Y-89169D01*
X-68346Y-89188D01*
X-68249Y-89208D01*
X-68095D01*
X-68017Y-89227D01*
X-67988Y-89236D01*
X-67950Y-89256D01*
X-67930D01*
X-67882Y-89285D01*
X-67795Y-89294D01*
X-67785Y-89285D01*
X-67766D01*
X-67698Y-89314D01*
X-67669Y-89324D01*
X-67582Y-89333D01*
X-67563D01*
X-67515Y-89362D01*
X-67428Y-89391D01*
X-67350Y-89430D01*
X-67331D01*
X-67283Y-89459D01*
X-67205Y-89498D01*
X-67118Y-89526D01*
X-67089Y-89536D01*
X-67012Y-89556D01*
X-67002Y-89565D01*
X-66983D01*
X-66944Y-89584D01*
X-66915Y-89613D01*
X-66877D01*
X-66838Y-89633D01*
X-66790Y-89662D01*
X-66780Y-89671D01*
X-66751Y-89681D01*
X-66684Y-89749D01*
X-66674Y-89758D01*
X-66654D01*
X-66597Y-89797D01*
X-66490Y-89846D01*
X-66384Y-89913D01*
X-66374Y-89923D01*
X-66355D01*
X-66287Y-89971D01*
X-66190Y-90029D01*
X-66075Y-90106D01*
X-66065Y-90116D01*
X-66055Y-90126D01*
X-66017Y-90145D01*
X-65978Y-90184D01*
X-65872Y-90271D01*
X-65727Y-90396D01*
X-65562Y-90541D01*
X-65378Y-90706D01*
X-65185Y-90899D01*
X-64992Y-91092D01*
X-64982Y-91102D01*
X-64973Y-91112D01*
X-64944Y-91141D01*
X-64915Y-91189D01*
X-64808Y-91295D01*
X-64692Y-91450D01*
X-64557Y-91624D01*
X-64412Y-91827D01*
X-64277Y-92059D01*
X-64141Y-92291D01*
X-64132Y-92301D01*
X-64122Y-92310D01*
X-64074Y-92397D01*
X-64006Y-92504D01*
X-63938Y-92629D01*
X-63929Y-92639D01*
Y-92658D01*
X-63890Y-92736D01*
X-63832Y-92852D01*
X-63784Y-92977D01*
X-63774Y-92987D01*
X-63764Y-93016D01*
X-63726Y-93055D01*
X-63697Y-93103D01*
X-63687Y-93113D01*
X-63677Y-93142D01*
X-63668Y-93171D01*
Y-93229D01*
X-63658Y-93238D01*
X-63639Y-93258D01*
X-63629Y-93306D01*
X-63600Y-93374D01*
X-63590Y-93383D01*
Y-93422D01*
X-63581Y-93470D01*
Y-93509D01*
Y-93528D01*
X-63561Y-93586D01*
X-63532Y-93673D01*
X-63513Y-93770D01*
Y-93789D01*
X-63503Y-93838D01*
X-63474Y-93905D01*
X-63465Y-93992D01*
X-63455Y-94021D01*
X-63445Y-94089D01*
X-63436Y-94118D01*
X-63445Y-94205D01*
X-63436Y-94215D01*
Y-94253D01*
X-63445Y-94263D01*
Y-94282D01*
X-63455Y-94582D01*
X-63542Y-95171D01*
X-63552Y-95162D01*
Y-95143D01*
X-63600Y-95075D01*
X-63658Y-94978D01*
X-63726Y-94872D01*
X-63735Y-94862D01*
Y-94843D01*
X-63784Y-94775D01*
X-63851Y-94669D01*
X-63938Y-94563D01*
X-63948Y-94553D01*
X-63967Y-94534D01*
X-64006Y-94495D01*
X-64035Y-94447D01*
X-64045Y-94437D01*
X-64074Y-94408D01*
X-64103Y-94379D01*
X-64161Y-94360D01*
X-64180D01*
X-64209Y-94350D01*
X-64248Y-94369D01*
X-64257Y-94360D01*
X-64286Y-94369D01*
X-64354Y-94379D01*
X-64373D01*
X-64422Y-94389D01*
X-64489Y-94418D01*
X-64567Y-94456D01*
X-64586D01*
X-64634Y-94485D01*
X-64702Y-94514D01*
X-64789Y-94543D01*
X-64818Y-94553D01*
X-64905Y-94563D01*
X-65001Y-94601D01*
X-65127Y-94650D01*
X-65137Y-94659D01*
X-65156D01*
X-65233Y-94698D01*
X-65340Y-94746D01*
X-65465Y-94795D01*
X-65495Y-94804D01*
X-65562Y-94833D01*
X-65649Y-94882D01*
X-65755Y-94930D01*
X-65785Y-94940D01*
X-65833Y-94969D01*
X-65930Y-95007D01*
X-66017Y-95056D01*
X-66036D01*
X-66075Y-95075D01*
X-66132Y-95113D01*
X-66181Y-95162D01*
X-66190Y-95171D01*
X-66229Y-95191D01*
X-66277Y-95220D01*
X-66345Y-95249D01*
X-66355Y-95258D01*
X-66403Y-95288D01*
X-66461Y-95326D01*
X-66529Y-95375D01*
X-66548D01*
X-66597Y-95403D01*
X-66654Y-95442D01*
X-66722Y-95490D01*
X-66751Y-95500D01*
X-66809Y-95539D01*
X-66838Y-95548D01*
X-66867Y-95578D01*
Y-95597D01*
X-66877Y-95665D01*
Y-95703D01*
X-66867Y-95752D01*
Y-95771D01*
X-66877Y-95819D01*
X-66887Y-95906D01*
X-66896Y-95993D01*
Y-96013D01*
X-66906Y-96061D01*
Y-96138D01*
X-66896Y-96225D01*
Y-96245D01*
Y-96302D01*
Y-96399D01*
Y-96515D01*
Y-96535D01*
X-66887Y-96602D01*
X-66877Y-96689D01*
X-66867Y-96795D01*
Y-96815D01*
X-66848Y-96873D01*
X-66828Y-96950D01*
X-66799Y-97056D01*
Y-97076D01*
X-66770Y-97124D01*
X-66742Y-97211D01*
X-66712Y-97298D01*
X-66703Y-97308D01*
X-66693Y-97337D01*
X-66674Y-97375D01*
X-66654Y-97433D01*
X-66606Y-97559D01*
X-66539Y-97704D01*
X-66529Y-97714D01*
Y-97733D01*
X-66500Y-97762D01*
X-66461Y-97801D01*
X-66365Y-97897D01*
X-66220Y-98004D01*
X-66210Y-98013D01*
X-66181Y-98023D01*
X-66152Y-98052D01*
X-66094Y-98071D01*
X-65958Y-98129D01*
X-65872Y-98139D01*
X-65785Y-98149D01*
X-65475D01*
X-65320Y-98168D01*
X-65330Y-98178D01*
X-65340Y-98187D01*
X-65408Y-98236D01*
X-65417Y-98245D01*
X-65446Y-98255D01*
X-65465Y-98274D01*
X-65485D01*
X-65495Y-98284D01*
X-65523Y-98313D01*
X-65572Y-98342D01*
X-65630Y-98381D01*
X-65640Y-98390D01*
X-65678Y-98410D01*
X-65775Y-98448D01*
X-65785Y-98458D01*
X-65804D01*
X-65862Y-98497D01*
X-65968Y-98545D01*
X-66065Y-98603D01*
X-66094Y-98613D01*
X-66152Y-98632D01*
X-66249Y-98671D01*
X-66355Y-98719D01*
X-66365Y-98729D01*
X-66394Y-98738D01*
X-66442Y-98748D01*
X-66500Y-98787D01*
X-66509Y-98796D01*
X-66539Y-98806D01*
X-66587Y-98816D01*
X-66635Y-98825D01*
X-66693Y-98864D01*
X-66867Y-98922D01*
X-67215Y-98999D01*
X-67379Y-99048D01*
X-67399D01*
X-67476Y-99067D01*
X-67486Y-99057D01*
X-67515Y-99067D01*
X-67573Y-99086D01*
X-67592D01*
X-67660Y-99096D01*
X-67756Y-99135D01*
X-67853Y-99193D01*
X-67872Y-99212D01*
X-67921Y-99260D01*
X-67979Y-99318D01*
X-68017Y-99415D01*
X-68027Y-99425D01*
Y-99463D01*
X-68046Y-99579D01*
Y-99618D01*
X-68056Y-99705D01*
X-68046Y-99715D01*
X-68037Y-99744D01*
X-68027Y-99773D01*
X-68017Y-99840D01*
Y-99860D01*
X-68027Y-99889D01*
X-68017Y-99937D01*
X-67998Y-99976D01*
X-67988Y-100005D01*
X-67969Y-100082D01*
X-67950Y-100198D01*
X-67911Y-100333D01*
X-67901Y-100343D01*
Y-100362D01*
X-67882Y-100440D01*
X-67843Y-100556D01*
X-67814Y-100681D01*
X-67805Y-100691D01*
X-67795Y-100720D01*
X-67785Y-100768D01*
X-67756Y-100836D01*
X-67747Y-100846D01*
X-67737Y-100875D01*
X-67727Y-100923D01*
X-67737Y-100971D01*
X-67718Y-100991D01*
X-67689Y-101039D01*
X-67650Y-101116D01*
X-67621Y-101242D01*
X-67611Y-101271D01*
Y-101348D01*
X-67592Y-101445D01*
X-67563Y-101551D01*
X-67553Y-101580D01*
X-67534Y-101657D01*
X-67524Y-101667D01*
Y-101687D01*
Y-101783D01*
X-67476Y-102025D01*
X-67505Y-102054D01*
X-67495Y-102064D01*
X-67476Y-102083D01*
X-67457Y-102121D01*
X-67447Y-102170D01*
Y-102208D01*
Y-102247D01*
X-67418Y-102547D01*
X-67408Y-102808D01*
X-67379Y-102837D01*
X-67408Y-102963D01*
X-67379Y-103030D01*
X-67408Y-103078D01*
X-67379Y-103262D01*
X-67389Y-103252D01*
X-67408Y-103272D01*
X-67389Y-103291D01*
X-67379Y-103320D01*
Y-103359D01*
Y-103378D01*
X-67408Y-103426D01*
X-67399Y-103436D01*
X-67389Y-103465D01*
X-67379Y-103513D01*
Y-103571D01*
X-67389Y-103581D01*
Y-103620D01*
X-67408Y-103697D01*
X-67437Y-103726D01*
X-67408Y-103736D01*
X-67437Y-103919D01*
X-67457Y-104132D01*
X-67553Y-104615D01*
X-67602Y-104625D01*
Y-104644D01*
X-67592Y-104673D01*
Y-104751D01*
X-67611Y-104828D01*
X-67621Y-104838D01*
X-67640Y-104896D01*
X-67660Y-104954D01*
X-67689Y-105021D01*
X-67698Y-105031D01*
X-67708Y-105060D01*
X-67727Y-105118D01*
X-67747Y-105176D01*
X-67814Y-105340D01*
X-67882Y-105524D01*
X-67892Y-105534D01*
X-67901Y-105563D01*
X-67921Y-105621D01*
X-67940Y-105679D01*
X-68008Y-105843D01*
X-68095Y-106027D01*
X-68104Y-106056D01*
X-68153Y-106123D01*
X-68211Y-106239D01*
X-68298Y-106384D01*
X-68414Y-106558D01*
X-68539Y-106742D01*
X-68704Y-106945D01*
X-68868Y-107148D01*
X-68878Y-107158D01*
X-68887Y-107167D01*
X-68916Y-107196D01*
X-68955Y-107235D01*
X-69052Y-107332D01*
X-69177Y-107457D01*
X-69322Y-107602D01*
X-69506Y-107747D01*
X-69699Y-107902D01*
X-69893Y-108037D01*
X-69902Y-108047D01*
X-69951Y-108076D01*
X-70028Y-108115D01*
X-70134Y-108163D01*
X-70241Y-108230D01*
X-70376Y-108289D01*
X-70656Y-108414D01*
X-70676D01*
X-70724Y-108443D01*
X-70801Y-108463D01*
X-70898Y-108501D01*
X-71014Y-108540D01*
X-71149Y-108579D01*
X-71459Y-108656D01*
X-71468Y-108666D01*
X-71507D01*
X-71555Y-108675D01*
X-71613Y-108695D01*
X-71777Y-108723D01*
X-71971Y-108762D01*
X-71990D01*
X-72019Y-108772D01*
X-72135D01*
X-72299Y-108801D01*
X-72483Y-108810D01*
X-72541D01*
X-72609Y-108820D01*
X-72676Y-108830D01*
X-72734D01*
X-72802Y-108820D01*
X-72870Y-108810D01*
X-72879Y-108859D01*
X-72909Y-108849D01*
X-72986Y-108830D01*
X-73276Y-108810D01*
X-74175Y-108492D01*
X-74397Y-108346D01*
X-74996Y-108076D01*
X-75006Y-108066D01*
X-75016Y-108056D01*
X-75035Y-108076D01*
X-75083Y-108028D01*
X-75151Y-108018D01*
X-75190Y-107999D01*
X-75396Y-107836D01*
X-75402Y-107805D01*
X-75417Y-107820D01*
X-75460Y-107786D01*
X-75499Y-107805D01*
X-75518Y-107786D01*
X-75557Y-107747D01*
X-75634Y-107689D01*
X-75721Y-107622D01*
X-75731Y-107612D01*
X-75741Y-107602D01*
X-75808Y-107573D01*
X-75895Y-107525D01*
X-75992Y-107486D01*
X-76002Y-107476D01*
X-76011Y-107467D01*
X-76050Y-107428D01*
X-76060Y-107419D01*
X-76069Y-107409D01*
X-76108Y-107390D01*
X-76147D01*
X-76356Y-107225D01*
X-76359Y-107216D01*
X-76363Y-107219D01*
X-76417Y-107177D01*
X-76427Y-107167D01*
X-76466Y-107148D01*
X-76475Y-107138D01*
X-76514Y-107100D01*
X-76524Y-107090D01*
X-76562Y-107071D01*
X-76611Y-107042D01*
X-76659Y-106993D01*
X-76669Y-106984D01*
X-76698Y-106955D01*
X-76736Y-106916D01*
X-76765Y-106887D01*
X-76775Y-106877D01*
X-76794D01*
X-76833Y-106858D01*
X-76881Y-106829D01*
X-76891Y-106819D01*
X-76910Y-106800D01*
X-76939Y-106771D01*
X-76968Y-106742D01*
X-76988Y-106723D01*
X-77026Y-106684D01*
X-77084Y-106645D01*
X-77152Y-106578D01*
X-77171Y-106558D01*
X-77210Y-106520D01*
X-77258Y-106471D01*
X-77326Y-106423D01*
X-77336Y-106413D01*
X-77355D01*
X-77403Y-106384D01*
X-77413Y-106375D01*
X-77423Y-106365D01*
X-77451Y-106355D01*
X-77626Y-106181D01*
X-77645Y-106201D01*
X-77606Y-106239D01*
X-77626Y-106220D01*
X-77664Y-106181D01*
X-77722Y-106123D01*
X-77799Y-106065D01*
X-77819Y-106046D01*
X-77867Y-106017D01*
X-77935Y-105969D01*
X-78003Y-105901D01*
X-78012Y-105891D01*
X-78022Y-105882D01*
X-78080Y-105824D01*
X-78157Y-105746D01*
X-78263Y-105640D01*
X-78379Y-105505D01*
X-78525Y-105360D01*
X-78815Y-105050D01*
X-78834Y-105031D01*
X-78882Y-104983D01*
X-78960Y-104886D01*
X-79066Y-104780D01*
X-79182Y-104664D01*
X-79317Y-104509D01*
X-79462Y-104345D01*
X-79607Y-104180D01*
X-79617Y-104171D01*
X-79646Y-104122D01*
X-79694Y-104074D01*
X-79752Y-104016D01*
X-79771Y-103997D01*
X-79810Y-103958D01*
X-79868Y-103900D01*
X-79926Y-103823D01*
X-79936Y-103813D01*
X-79965Y-103784D01*
X-79994Y-103736D01*
X-80042Y-103687D01*
X-80100Y-103610D01*
X-80158Y-103533D01*
X-80293Y-103359D01*
X-80303Y-103349D01*
X-80322Y-103310D01*
X-80361Y-103272D01*
X-80409Y-103204D01*
X-80458Y-103136D01*
X-80525Y-103050D01*
X-80661Y-102875D01*
X-80670Y-102866D01*
X-80709Y-102827D01*
X-80738Y-102779D01*
X-80786Y-102711D01*
X-80806Y-102692D01*
X-80844Y-102653D01*
X-80893Y-102605D01*
X-80960Y-102557D01*
X-80970Y-102547D01*
X-80980Y-102537D01*
X-80989Y-102508D01*
X-80999Y-102498D01*
X-81018Y-102479D01*
X-81047Y-102470D01*
Y-102450D01*
X-81057Y-102421D01*
X-81076Y-102383D01*
X-81115Y-102324D01*
X-81125Y-102315D01*
X-81154Y-102286D01*
X-81192Y-102247D01*
X-81231Y-102228D01*
X-81250Y-102208D01*
X-81347Y-102112D01*
Y-102093D01*
X-81357Y-102064D01*
X-81376Y-102025D01*
X-81415Y-101967D01*
X-81424Y-101957D01*
X-81453Y-101928D01*
X-81511Y-101831D01*
X-81521Y-101822D01*
X-81540Y-101803D01*
X-81560Y-101764D01*
X-81608Y-101716D01*
X-81695Y-101590D01*
X-81801Y-101464D01*
X-81811Y-101454D01*
X-81830Y-101435D01*
X-81859Y-101387D01*
X-81898Y-101348D01*
X-81985Y-101223D01*
X-82091Y-101078D01*
X-82101Y-101068D01*
X-82120Y-101029D01*
X-82149Y-100962D01*
X-82207Y-100884D01*
X-82227Y-100865D01*
X-82256Y-100817D01*
X-82294Y-100778D01*
X-82333Y-100739D01*
X-82497Y-100440D01*
X-82778Y-99927D01*
X-82758Y-99908D01*
X-82778Y-99889D01*
X-82807Y-99840D01*
X-82855Y-99773D01*
X-82903Y-99686D01*
X-82913Y-99657D01*
X-82932Y-99599D01*
X-82981Y-99512D01*
X-83019Y-99415D01*
Y-99396D01*
X-83039Y-99357D01*
X-83077Y-99299D01*
X-83106Y-99231D01*
X-83116Y-99222D01*
X-83135Y-99183D01*
X-83174Y-99125D01*
X-83203Y-99057D01*
X-83213Y-99028D01*
X-83242Y-98980D01*
X-83280Y-98903D01*
X-83309Y-98816D01*
X-83319Y-98787D01*
X-83329Y-98738D01*
X-83358Y-98651D01*
X-83367Y-98564D01*
Y-98545D01*
X-83396Y-98497D01*
X-83416Y-98419D01*
X-83445Y-98332D01*
Y-98313D01*
X-83464Y-98255D01*
Y-98178D01*
X-83445Y-98100D01*
X-83474Y-98110D01*
X-83503Y-98023D01*
X-83474Y-97994D01*
X-83483Y-97984D01*
X-83493Y-97975D01*
Y-97955D01*
Y-97897D01*
X-83522Y-97830D01*
X-83512Y-97627D01*
X-83551Y-97588D01*
X-83512Y-97491D01*
X-83522Y-97482D01*
X-83532Y-97472D01*
X-83551Y-97433D01*
Y-97395D01*
Y-97375D01*
X-83561Y-97346D01*
X-83570Y-97240D01*
Y-97221D01*
Y-97143D01*
X-83561Y-97056D01*
X-83551Y-96950D01*
X-83541Y-96921D01*
X-83532Y-96853D01*
X-83522Y-96747D01*
X-83503Y-96631D01*
Y-96612D01*
X-83512Y-96583D01*
X-83503Y-96477D01*
Y-96457D01*
X-83493Y-96428D01*
X-83474Y-96390D01*
X-83445Y-96341D01*
Y-96283D01*
X-83435Y-96215D01*
Y-96196D01*
Y-96157D01*
Y-96100D01*
X-83416Y-96022D01*
X-83406Y-95993D01*
X-83396Y-95945D01*
X-83391Y-95930D01*
X-83396Y-95925D01*
X-83387Y-95916D01*
X-83377Y-95887D01*
X-83348Y-95838D01*
X-83358Y-95829D01*
X-83367Y-95819D01*
Y-95800D01*
X-83358Y-95771D01*
X-83348Y-95761D01*
Y-95742D01*
X-83329Y-95723D01*
X-83338Y-95713D01*
Y-95693D01*
X-83329Y-95684D01*
X-83309Y-95665D01*
X-83296Y-95613D01*
X-83300Y-95616D01*
X-83290Y-95587D01*
X-83296Y-95613D01*
X-83280Y-95597D01*
X-83290Y-95587D01*
X-83280Y-95558D01*
X-83290Y-95510D01*
X-83280Y-95461D01*
Y-95442D01*
X-83271Y-95413D01*
X-83242Y-95365D01*
X-83203Y-95326D01*
X-83222D01*
X-83213Y-95316D01*
X-83203Y-95307D01*
Y-95288D01*
Y-95268D01*
X-83193Y-95258D01*
X-83126Y-95152D01*
X-83164D01*
X-83135Y-95123D01*
X-83155D01*
X-83126Y-95113D01*
X-83145D01*
X-83155Y-95085D01*
X-83106Y-95036D01*
X-83116Y-95026D01*
X-83106Y-95017D01*
D01*
X-83097Y-95007D01*
X-83106Y-95017D01*
X-83097Y-95026D01*
Y-95007D01*
X-83068Y-94978D01*
X-83077Y-94969D01*
Y-94949D01*
Y-94930D01*
X-83058Y-94891D01*
X-83048Y-94882D01*
X-83039Y-94853D01*
X-83000Y-94795D01*
X-83010Y-94804D01*
X-83019Y-94795D01*
X-82971Y-94746D01*
X-82981Y-94737D01*
X-82952Y-94708D01*
Y-94650D01*
X-82942Y-94659D01*
Y-94640D01*
Y-94621D01*
X-82923Y-94582D01*
X-82903Y-94563D01*
X-82894Y-94553D01*
X-82884Y-94524D01*
X-82836Y-94476D01*
X-82855D01*
X-82807Y-94427D01*
X-82845Y-94408D01*
X-82797Y-94379D01*
X-82807Y-94369D01*
X-82816Y-94379D01*
X-82793Y-94325D01*
X-82778Y-94340D01*
Y-94282D01*
X-82739Y-94263D01*
X-82768Y-94273D01*
X-82758Y-94263D01*
X-82749Y-94253D01*
X-82739Y-94244D01*
X-82749Y-94234D01*
X-82739Y-94224D01*
X-82720D01*
X-82729Y-94215D01*
X-82720Y-94205D01*
X-82691Y-94195D01*
X-82681Y-94186D01*
X-82691Y-94176D01*
X-82710Y-94157D01*
X-82652Y-94137D01*
X-82671Y-94118D01*
X-82662Y-94108D01*
X-82671Y-94099D01*
X-82633Y-94079D01*
X-82652D01*
X-82642Y-94070D01*
X-82623Y-94050D01*
X-82613Y-94041D01*
X-82623Y-94050D01*
D01*
X-82642Y-94031D01*
X-82633Y-94021D01*
X-82594Y-94002D01*
X-82584Y-93992D01*
X-82575Y-93983D01*
X-82565Y-93973D01*
X-82584Y-93954D01*
X-82536Y-93925D01*
X-82546Y-93915D01*
X-82536Y-93905D01*
X-82555Y-93886D01*
X-82468Y-93799D01*
X-82488Y-93818D01*
X-82497Y-93809D01*
X-82314Y-93606D01*
X-82256Y-93451D01*
X-82178Y-93412D01*
X-82217D01*
X-82130Y-93325D01*
X-82072Y-93248D01*
X-82082Y-93238D01*
X-82072Y-93229D01*
X-82062Y-93219D01*
X-82033Y-93209D01*
Y-93190D01*
Y-93171D01*
X-82024Y-93161D01*
X-82014Y-93151D01*
X-81985Y-93142D01*
Y-93122D01*
Y-93103D01*
X-81975Y-93093D01*
X-81917Y-93074D01*
X-81850Y-92948D01*
X-81637Y-92697D01*
X-81579Y-92678D01*
X-81598Y-92658D01*
X-81569Y-92629D01*
X-81540Y-92600D01*
X-81444Y-92504D01*
X-81337Y-92397D01*
X-81328Y-92388D01*
X-81308Y-92368D01*
X-81279Y-92339D01*
X-81250Y-92310D01*
X-81154Y-92214D01*
X-81047Y-92107D01*
X-81038Y-92098D01*
X-81009Y-92069D01*
X-80970Y-92030D01*
X-80922Y-91982D01*
X-80912Y-91972D01*
X-80883Y-91943D01*
X-80835Y-91914D01*
X-80786Y-91904D01*
X-80777Y-91895D01*
X-80748Y-91866D01*
X-80709Y-91827D01*
X-80651Y-91788D01*
X-80641Y-91779D01*
X-80603Y-91740D01*
X-80545Y-91701D01*
X-80496Y-91653D01*
X-80487Y-91643D01*
X-80477Y-91634D01*
X-80409Y-91585D01*
X-80322Y-91518D01*
X-80216Y-91450D01*
X-80206Y-91440D01*
X-80197Y-91431D01*
X-80129Y-91382D01*
X-80042Y-91315D01*
X-79936Y-91247D01*
X-79916Y-91228D01*
X-79858Y-91189D01*
X-79781Y-91131D01*
X-79675Y-91063D01*
X-79530Y-90976D01*
X-79385Y-90889D01*
X-79066Y-90706D01*
X-79046Y-90687D01*
X-78988Y-90667D01*
X-78901Y-90619D01*
X-78786Y-90561D01*
X-78641Y-90493D01*
X-78476Y-90425D01*
X-78109Y-90290D01*
X-78099Y-90280D01*
X-78051Y-90271D01*
X-77993Y-90251D01*
X-77906Y-90223D01*
X-77684Y-90174D01*
X-77432Y-90136D01*
X-77413D01*
X-77364Y-90126D01*
X-77307D01*
X-77220Y-90116D01*
X-76988D01*
X-76727Y-90165D01*
X-76698Y-90174D01*
X-76640Y-90193D01*
X-76533Y-90223D01*
X-76408Y-90271D01*
X-76272Y-90348D01*
X-76118Y-90445D01*
X-75982Y-90561D01*
X-75847Y-90696D01*
X-75828Y-90715D01*
X-75799Y-90764D01*
X-75731Y-90851D01*
X-75673Y-90967D01*
X-75596Y-91102D01*
X-75518Y-91257D01*
X-75451Y-91440D01*
X-75393Y-91634D01*
Y-91653D01*
X-75383Y-91701D01*
X-75354Y-91769D01*
X-75344Y-91856D01*
Y-91875D01*
X-75325Y-91914D01*
X-75306Y-92049D01*
X-75296Y-92078D01*
X-75277Y-92136D01*
X-75267Y-92165D01*
X-75277Y-92214D01*
X-75257Y-92233D01*
X-75248Y-92281D01*
Y-92301D01*
X-75219Y-92349D01*
X-75209Y-92359D01*
Y-92397D01*
X-75190Y-92494D01*
X-75180Y-92504D01*
Y-92542D01*
X-75161Y-92639D01*
X-75151Y-92649D01*
X-75161Y-92678D01*
X-75141Y-92716D01*
X-75132Y-92784D01*
X-75083Y-92929D01*
X-75045Y-93103D01*
X-75035Y-93113D01*
X-75025Y-93142D01*
X-75016Y-93190D01*
X-75006Y-93238D01*
X-74967Y-93393D01*
X-74909Y-93567D01*
X-74900Y-93577D01*
X-74890Y-93625D01*
X-74871Y-93683D01*
X-74832Y-93760D01*
X-74822Y-93770D01*
X-74813Y-93818D01*
X-74793Y-93876D01*
X-74803Y-93944D01*
X-74793Y-93954D01*
X-74764Y-93983D01*
X-74726Y-94041D01*
X-74697Y-94128D01*
Y-94147D01*
X-74677Y-94205D01*
X-74648Y-94273D01*
X-74619Y-94340D01*
X-74610Y-94350D01*
X-74600Y-94379D01*
X-74581Y-94418D01*
X-74542Y-94456D01*
X-74532Y-94466D01*
X-74494Y-94485D01*
X-74416Y-94543D01*
X-74407Y-94553D01*
X-74397Y-94563D01*
X-74368Y-94592D01*
X-74320Y-94621D01*
X-74223Y-94717D01*
X-74107Y-94814D01*
X-74097Y-94824D01*
X-74078Y-94843D01*
X-74049Y-94853D01*
X-74001Y-94882D01*
X-73894Y-94969D01*
X-73769Y-95036D01*
X-73759Y-95046D01*
X-73730Y-95056D01*
X-73633Y-95094D01*
X-73614D01*
X-73585Y-95104D01*
X-73527Y-95085D01*
X-73459Y-95075D01*
X-73450Y-95065D01*
X-73421Y-95036D01*
X-73392Y-95007D01*
X-73363Y-94959D01*
Y-94940D01*
X-73353Y-94911D01*
X-73343Y-94862D01*
Y-94804D01*
X-73353Y-94795D01*
X-73343Y-94766D01*
X-73353Y-94679D01*
X-73372Y-94563D01*
X-73382Y-94418D01*
X-73392Y-94408D01*
X-73382Y-94379D01*
X-73392Y-94292D01*
X-73411Y-94176D01*
X-73430Y-94041D01*
Y-94021D01*
X-73440Y-93954D01*
Y-93857D01*
X-73450Y-93731D01*
Y-93577D01*
X-73440Y-93412D01*
X-73421Y-93064D01*
Y-93045D01*
X-73411Y-92977D01*
X-73392Y-92881D01*
X-73372Y-92765D01*
X-73343Y-92620D01*
X-73305Y-92465D01*
X-73198Y-92127D01*
Y-92107D01*
X-73179Y-92069D01*
X-73160Y-91991D01*
X-73131Y-91924D01*
Y-91904D01*
X-73102Y-91856D01*
X-73082Y-91798D01*
X-73044Y-91721D01*
Y-91701D01*
X-73034Y-91672D01*
X-73005Y-91605D01*
X-72996Y-91595D01*
X-72986Y-91566D01*
X-72957Y-91537D01*
X-72918Y-91498D01*
X-72928Y-91489D01*
Y-91469D01*
X-72918Y-91440D01*
X-72899Y-91402D01*
X-72889Y-91392D01*
X-72870Y-91353D01*
X-72812Y-91276D01*
X-72802Y-91266D01*
X-72783Y-91228D01*
X-72734Y-91179D01*
X-72696Y-91121D01*
X-72686Y-91112D01*
X-72657Y-91063D01*
X-72619Y-90986D01*
X-72570Y-90918D01*
X-72561Y-90909D01*
X-72551Y-90880D01*
X-72493Y-90802D01*
X-72483Y-90793D01*
X-72464Y-90754D01*
X-72425Y-90715D01*
X-72386Y-90677D01*
Y-90657D01*
X-72377Y-90648D01*
X-72348Y-90619D01*
X-72338Y-90609D01*
X-72319Y-90590D01*
X-72271Y-90541D01*
X-72251Y-90522D01*
X-72212Y-90483D01*
X-72145Y-90416D01*
X-72067Y-90338D01*
X-72058Y-90329D01*
X-72048Y-90319D01*
X-72000Y-90271D01*
X-71942Y-90213D01*
X-71864Y-90155D01*
X-71932Y-90223D01*
X-71826Y-90155D01*
X-71844Y-90136D01*
X-71855Y-90145D01*
X-71845Y-90136D01*
X-71844Y-90136D01*
X-71604Y-89933D01*
X-71594Y-89942D01*
X-71604Y-89952D01*
X-71623Y-89971D01*
X-71594Y-89942D01*
D01*
X-71565Y-89913D01*
X-71517Y-89884D01*
X-71400Y-89788D01*
X-71236Y-89701D01*
X-71227Y-89691D01*
X-71198Y-89681D01*
X-71149Y-89652D01*
X-71091Y-89633D01*
X-70946Y-89565D01*
X-70772Y-89488D01*
X-70763Y-89478D01*
X-70734Y-89468D01*
X-70685Y-89439D01*
X-70608Y-89420D01*
X-70598Y-89411D01*
X-70550Y-89401D01*
X-70492Y-89381D01*
X-70444Y-89391D01*
X-70434Y-89381D01*
X-70424Y-89372D01*
X-70386Y-89353D01*
X-70366D01*
X-70318Y-89324D01*
X-70308Y-89314D01*
X-70270D01*
X-70212Y-89294D01*
X-70134Y-89275D01*
X-70115D01*
X-70076Y-89256D01*
X-70018D01*
X-69960Y-89275D01*
X-69951Y-89266D01*
X-69941Y-89256D01*
X-69902Y-89236D01*
X-69825D01*
X-69690Y-89217D01*
X-69680Y-89208D01*
X-69670Y-89198D01*
X-69622Y-89188D01*
X-69574Y-89179D01*
X-69554D01*
X-69525Y-89169D01*
X-69487Y-89188D01*
X-69458Y-89198D01*
X-69342Y-89159D01*
X-69245Y-89140D01*
X-69148Y-89159D01*
X-68849Y-89130D01*
X-68839Y-89159D01*
D02*
G37*
G36*
X-81618Y-92678D02*
X-81627Y-92687D01*
X-81598Y-92658D01*
X-81618Y-92678D01*
D02*
G37*
G36*
X-75396Y-107836D02*
X-75393Y-107853D01*
X-75422Y-107825D01*
X-75417Y-107820D01*
X-75396Y-107836D01*
D02*
G37*
%LPC*%
G36*
X-62643Y-96689D02*
X-62633Y-96699D01*
X-62631Y-96696D01*
X-62643Y-96689D01*
D02*
G37*
G36*
X-82642Y-94089D02*
X-82662Y-94108D01*
D01*
X-82642Y-94089D01*
D02*
G37*
G36*
X-68636Y-91779D02*
X-68829D01*
X-68897Y-91788D01*
X-68984Y-91817D01*
X-69090Y-91846D01*
X-69206Y-91904D01*
X-69322Y-91982D01*
X-69429Y-92088D01*
X-69525Y-92223D01*
X-69535Y-92233D01*
Y-92252D01*
X-69583Y-92320D01*
X-69622Y-92417D01*
X-69641Y-92533D01*
Y-92552D01*
X-69651Y-92620D01*
X-69641Y-92726D01*
X-69622Y-92842D01*
Y-92881D01*
X-69612Y-92968D01*
X-69603Y-92997D01*
X-69564Y-93055D01*
X-69554Y-93064D01*
X-69545Y-93093D01*
X-69496Y-93161D01*
X-69487Y-93171D01*
X-69467Y-93190D01*
X-69409Y-93248D01*
X-69400Y-93277D01*
X-69371Y-93325D01*
X-69351Y-93345D01*
X-69322Y-93393D01*
X-69303D01*
X-69274Y-93403D01*
X-69255D01*
X-69206Y-93412D01*
X-69197Y-93422D01*
X-69177Y-93441D01*
X-69168Y-93451D01*
X-69129Y-93490D01*
X-69110D01*
X-69061Y-93499D01*
X-69042D01*
X-68994Y-93490D01*
X-68965Y-93499D01*
X-68936Y-93528D01*
X-68916D01*
X-68868Y-93538D01*
X-68810D01*
X-68742Y-93528D01*
X-68655Y-93519D01*
X-68549Y-93490D01*
X-68433Y-93451D01*
X-68327Y-93403D01*
X-68201Y-93335D01*
X-68191Y-93325D01*
X-68143Y-93296D01*
X-68095Y-93248D01*
X-68027Y-93180D01*
X-67969Y-93103D01*
X-67911Y-92987D01*
X-67863Y-92881D01*
X-67843Y-92745D01*
Y-92726D01*
X-67834Y-92697D01*
Y-92639D01*
Y-92581D01*
Y-92562D01*
X-67843Y-92513D01*
X-67863Y-92397D01*
Y-92378D01*
X-67882Y-92339D01*
X-67930Y-92252D01*
X-67940Y-92243D01*
X-67959Y-92204D01*
X-67988Y-92156D01*
X-68017Y-92107D01*
X-68037Y-92088D01*
X-68075Y-92049D01*
X-68133Y-91991D01*
X-68220Y-91924D01*
X-68336Y-91866D01*
X-68472Y-91808D01*
X-68636Y-91779D01*
D02*
G37*
G36*
X-83377Y-95906D02*
X-83387Y-95916D01*
X-83391Y-95930D01*
X-83377Y-95945D01*
Y-95906D01*
D02*
G37*
G36*
X-83338Y-95732D02*
Y-95771D01*
X-83319Y-95752D01*
X-83338Y-95732D01*
D02*
G37*
%LPD*%
D69*
X-76915Y-84092D02*
X-78213Y-85391D01*
X-79512D01*
Y-84092D01*
X-78213Y-82794D01*
X-82110D02*
X-80811Y-84092D01*
Y-81495D01*
X-80486Y-81170D01*
X-79837D01*
X-79187Y-81820D01*
Y-82469D01*
X-82759Y-82144D02*
X-82434Y-81820D01*
X-82759Y-81495D01*
X-83084Y-81820D01*
X-82759Y-82144D01*
Y-78898D02*
Y-78248D01*
X-83408Y-77599D01*
X-84058D01*
X-85356Y-78898D01*
Y-79547D01*
X-84707Y-80196D01*
X-84058D01*
X-82759Y-78898D01*
X-88513Y-93094D02*
X-87214Y-94392D01*
Y-91795D01*
X-86890Y-91470D01*
X-86240D01*
X-85591Y-92119D01*
Y-92769D01*
X-87539Y-90821D02*
Y-90171D01*
X-88188Y-89522D01*
X-88838D01*
X-90137Y-90821D01*
Y-91470D01*
X-89487Y-92119D01*
X-88838D01*
X-87539Y-90821D01*
X-92409Y-89197D02*
X-91111Y-90496D01*
Y-87899D01*
X-90786Y-87574D01*
X-90137D01*
X-89487Y-88223D01*
Y-88873D01*
X-94357Y-87249D02*
X-93059Y-88548D01*
Y-85950D01*
X-92734Y-85626D01*
X-92085D01*
X-91435Y-86275D01*
Y-86925D01*
X-94033Y-85626D02*
X-95332Y-84327D01*
Y-83028D02*
Y-82379D01*
X-95981Y-81730D01*
X-96630D01*
X-97929Y-83028D01*
Y-83678D01*
X-97280Y-84327D01*
X-96630D01*
X-95332Y-83028D01*
X-98254Y-79457D02*
X-97929Y-80431D01*
Y-81730D01*
X-98578Y-82379D01*
X-99228D01*
X-99877Y-81730D01*
Y-81080D01*
X-99552Y-80756D01*
X-98903D01*
X-97929Y-81730D01*
X-99877Y-79782D02*
X-101176Y-78483D01*
X-102799Y-78807D02*
X-103448Y-78158D01*
X-103124Y-78483D01*
X-101176Y-76535D01*
Y-77184D01*
X-102799Y-75561D02*
Y-74911D01*
X-103448Y-74262D01*
X-104098D01*
X-104423Y-74587D01*
Y-75236D01*
X-105072D01*
X-105397Y-75561D01*
Y-76210D01*
X-104747Y-76859D01*
X-104098D01*
X-103773Y-76535D01*
Y-75885D01*
X-103124D01*
X-102799Y-75561D01*
X-103773Y-75885D02*
X-104423Y-75236D01*
X-108319Y-73288D02*
Y-70691D01*
X-111566Y-66145D02*
X-110267Y-67444D01*
X-111241Y-68418D01*
X-111890Y-67768D01*
X-111241Y-68418D01*
X-112215Y-69392D01*
X-112864Y-66145D02*
X-114163Y-67444D01*
X-113514Y-66794D01*
Y-66145D01*
Y-65496D01*
X-113838Y-65171D01*
X-117085Y-64521D02*
X-116436Y-65171D01*
X-115787D01*
X-115137Y-64521D01*
Y-63872D01*
X-115787Y-63223D01*
X-116436D01*
X-116761Y-63547D01*
X-115462Y-64846D01*
X-118059Y-63547D02*
X-118709Y-62898D01*
X-118384Y-63223D01*
X-117085Y-61924D01*
X-116761Y-62249D01*
X-117735Y-59976D02*
X-119683Y-61924D01*
X-120657Y-60950D01*
Y-60301D01*
X-120332Y-59976D01*
X-120007Y-59651D01*
X-119358D01*
X-118384Y-60625D01*
X-120332Y-58677D02*
X-121306Y-59651D01*
X-121955D01*
X-122930Y-58677D01*
X-121631Y-57379D01*
X-122280Y-56729D02*
X-123579Y-58028D01*
X-122930Y-57379D01*
Y-56729D01*
Y-56080D01*
X-123254Y-55755D01*
X-126826Y-56080D02*
X-127150Y-55755D01*
Y-55106D01*
X-125527Y-53482D01*
X-124553Y-54456D01*
Y-55106D01*
X-125202Y-55755D01*
X-125852D01*
X-126826Y-54781D01*
X-83039Y-90216D02*
X-81090Y-88268D01*
X-82389D01*
Y-86970D01*
X-84337Y-88918D01*
X-84013Y-86645D02*
X-84662Y-85996D01*
X-85311D01*
X-86285Y-86970D01*
X-85311Y-87944D01*
X-84662D01*
Y-87294D01*
X-85636Y-86320D01*
Y-85022D02*
X-86935Y-86320D01*
X-86285Y-85671D01*
Y-85022D01*
Y-84372D01*
X-86610Y-84048D01*
X-88883Y-84372D02*
X-89532Y-83723D01*
X-89208Y-84048D01*
X-87909Y-82749D01*
X-87584Y-83073D01*
X-89208Y-81450D02*
X-90182Y-82424D01*
X-90831D01*
X-91805Y-81450D01*
X-90506Y-80151D01*
X-92454Y-80801D02*
X-93428Y-79827D01*
Y-79177D01*
X-92779D01*
X-92130Y-79827D01*
X-91480D01*
Y-79177D01*
X-92454Y-78203D01*
X-94402Y-74956D02*
X-95701Y-73658D01*
X-95052Y-74307D01*
X-97000Y-76255D01*
X-99273Y-73982D02*
X-98623Y-74632D01*
X-97974D01*
X-97325Y-73982D01*
Y-73333D01*
X-97974Y-72684D01*
X-98623D01*
X-98948Y-73008D01*
X-97649Y-74307D01*
X-98948Y-71060D02*
X-99273Y-71385D01*
X-98948Y-71710D01*
X-99597Y-71060D01*
X-99273Y-71385D01*
X-100247Y-72359D01*
X-100896D01*
Y-69762D02*
X-101546Y-69112D01*
X-102195D01*
X-103169Y-70086D01*
X-102195Y-71060D01*
X-101546D01*
Y-70411D01*
X-102520Y-69437D01*
Y-68138D02*
X-103818Y-69437D01*
X-103169Y-68787D01*
Y-68138D01*
Y-67489D01*
X-103494Y-67164D01*
X-105117Y-64242D02*
X-107065Y-66190D01*
X-106091Y-67164D01*
X-105442D01*
X-104792Y-66515D01*
Y-65865D01*
X-105766Y-64891D01*
X-74687Y-81865D02*
X-73388Y-80566D01*
Y-79267D01*
X-74687D01*
X-75986Y-80566D01*
X-75012Y-79592D01*
X-73713Y-80891D01*
X-76635Y-79917D02*
X-77284Y-79267D01*
X-76960Y-79592D01*
X-75012Y-77644D01*
X-74687Y-77969D01*
X-77284Y-76670D02*
X-77934Y-76020D01*
X-78583D01*
X-79557Y-76995D01*
X-78583Y-77969D01*
X-77934D01*
Y-77319D01*
X-78908Y-76345D01*
Y-75046D02*
X-80207Y-76345D01*
X-79557Y-75696D01*
Y-75046D01*
Y-74397D01*
X-79882Y-74072D01*
X-82155Y-74397D02*
X-80856Y-73098D01*
X-81181Y-72774D01*
X-81830D01*
X-82804Y-73748D01*
X-81830Y-72774D01*
Y-72124D01*
X-82479D01*
X-83453Y-73098D01*
X-85726Y-67579D02*
X-85077D01*
X-84427Y-68228D01*
Y-68878D01*
X-85726Y-70176D01*
X-86375D01*
X-87025Y-69527D01*
Y-68878D01*
X-87999Y-68553D02*
X-88648Y-67903D01*
X-88324Y-68228D01*
X-86375Y-66280D01*
X-86051Y-66605D01*
X-89947D02*
X-90596Y-65955D01*
Y-65306D01*
X-89947Y-64657D01*
X-89298D01*
X-88648Y-65306D01*
Y-65955D01*
X-89298Y-66605D01*
X-89947D01*
X-91570Y-62384D02*
X-90596Y-63358D01*
Y-64007D01*
X-91246Y-64657D01*
X-91895D01*
X-92869Y-63683D01*
X-93519Y-63033D02*
X-91570Y-61085D01*
X-92869Y-62384D02*
X-93194Y-60760D01*
X-92869Y-62384D02*
X-94493Y-62059D01*
X-96441Y-58163D02*
X-97739Y-56864D01*
X-101311Y-55241D02*
X-99363Y-53293D01*
X-100337Y-52319D01*
X-100986D01*
X-101636Y-52968D01*
Y-53617D01*
X-100662Y-54592D01*
X-102934Y-50371D02*
X-102285D01*
X-101636Y-51020D01*
Y-51669D01*
X-102934Y-52968D01*
X-103584D01*
X-104233Y-52319D01*
Y-51669D01*
X-103259Y-49397D02*
X-105207Y-51345D01*
X-106181Y-50371D01*
Y-49721D01*
X-105856Y-49397D01*
X-105207D01*
X-104233Y-50371D01*
X-105207Y-49397D01*
Y-48747D01*
X-104882Y-48423D01*
X-104233D01*
X-103259Y-49397D01*
X-107155Y-45500D02*
X-109103Y-47449D01*
X-110077Y-46474D01*
Y-45825D01*
X-109753Y-45500D01*
X-109103D01*
X-108129Y-46474D01*
X-109103Y-45500D01*
Y-44851D01*
X-108779Y-44526D01*
X-108129D01*
X-107155Y-45500D01*
X-110077Y-42578D02*
X-109428Y-43228D01*
Y-43877D01*
X-110727Y-45176D01*
X-111376D01*
X-112025Y-44526D01*
Y-43877D01*
X-110727Y-42578D01*
X-110077D01*
X-111051Y-41604D02*
X-112350Y-40306D01*
X-111701Y-40955D01*
X-113649Y-42903D01*
D148*
X66694Y-28346D02*
D03*
X46694Y-24346D02*
D03*
Y-32346D02*
D03*
D149*
X94489Y110237D02*
D03*
X86298Y104501D02*
D03*
X78106Y98765D02*
D03*
X69914Y93029D02*
D03*
X61723Y87294D02*
D03*
X53531Y81558D02*
D03*
X45340Y75822D02*
D03*
X77872Y11926D02*
D03*
X86064Y17662D02*
D03*
X94255Y23398D02*
D03*
X102447Y29134D02*
D03*
X110638Y34870D02*
D03*
X118830Y40605D02*
D03*
X127021Y46341D02*
D03*
X135213Y52077D02*
D03*
D150*
X37148Y70086D02*
D03*
D151*
X-141692Y17008D02*
D03*
Y-17007D02*
D03*
X-156653Y17008D02*
D03*
Y-17007D02*
D03*
D152*
X102363Y102363D02*
D03*
X-102361Y-102362D02*
D03*
D153*
X-42499Y114063D02*
D03*
X86277Y-13068D02*
D03*
D154*
X-42499Y121937D02*
D03*
D155*
X80564Y-41192D02*
D03*
X60879D02*
D03*
X70721D02*
D03*
X80564Y-98279D02*
D03*
X60879D02*
D03*
X-60877Y100248D02*
D03*
X-80562D02*
D03*
X-70720D02*
D03*
X-60877Y43162D02*
D03*
X-80562D02*
D03*
X-129645Y-38976D02*
D03*
D156*
X93162Y-70720D02*
D03*
X48280D02*
D03*
X-48279Y70721D02*
D03*
X-93161D02*
D03*
D157*
X79866Y-17640D02*
D03*
D158*
X118111Y0D02*
D03*
X-118110D02*
D03*
D159*
X-139645Y-38976D02*
D03*
D161*
X61694Y-30846D02*
D03*
Y-25846D02*
D03*
X56694Y-30846D02*
D03*
Y-25846D02*
D03*
X51694Y-30846D02*
D03*
Y-25846D02*
D03*
D162*
X1Y137788D02*
D03*
D163*
Y74796D02*
D03*
Y-75795D02*
D03*
D164*
Y-138787D02*
D03*
M02*
