G04*
G04 #@! TF.GenerationSoftware,Altium Limited,CircuitStudio,1.5.2 (30)*
G04*
G04 Layer_Color=8150272*
%FSLAX25Y25*%
%MOIN*%
G70*
G01*
G75*
%ADD41C,0.00394*%
%ADD73C,0.07874*%
%ADD74C,0.00394*%
%ADD75C,0.05315*%
%ADD76R,0.05315X0.05315*%
%ADD77C,0.10236*%
G04:AMPARAMS|DCode=78|XSize=259.84mil|YSize=259.84mil|CornerRadius=14.76mil|HoleSize=0mil|Usage=FLASHONLY|Rotation=180.000|XOffset=0mil|YOffset=0mil|HoleType=Round|Shape=RoundedRectangle|*
%AMROUNDEDRECTD78*
21,1,0.25984,0.23031,0,0,180.0*
21,1,0.23031,0.25984,0,0,180.0*
1,1,0.02953,-0.11516,0.11516*
1,1,0.02953,0.11516,0.11516*
1,1,0.02953,0.11516,-0.11516*
1,1,0.02953,-0.11516,-0.11516*
%
%ADD78ROUNDEDRECTD78*%
%ADD79C,0.04331*%
G04:AMPARAMS|DCode=80|XSize=27.56mil|YSize=78.74mil|CornerRadius=7.87mil|HoleSize=0mil|Usage=FLASHONLY|Rotation=135.000|XOffset=0mil|YOffset=0mil|HoleType=Round|Shape=RoundedRectangle|*
%AMROUNDEDRECTD80*
21,1,0.02756,0.06299,0,0,135.0*
21,1,0.01181,0.07874,0,0,135.0*
1,1,0.01575,0.01810,0.02645*
1,1,0.01575,0.02645,0.01810*
1,1,0.01575,-0.01810,-0.02645*
1,1,0.01575,-0.02645,-0.01810*
%
%ADD80ROUNDEDRECTD80*%
G04:AMPARAMS|DCode=81|XSize=86.61mil|YSize=114.17mil|CornerRadius=22.64mil|HoleSize=0mil|Usage=FLASHONLY|Rotation=135.000|XOffset=0mil|YOffset=0mil|HoleType=Round|Shape=RoundedRectangle|*
%AMROUNDEDRECTD81*
21,1,0.08661,0.06890,0,0,135.0*
21,1,0.04134,0.11417,0,0,135.0*
1,1,0.04528,0.00974,0.03897*
1,1,0.04528,0.03897,0.00974*
1,1,0.04528,-0.00974,-0.03897*
1,1,0.04528,-0.03897,-0.00974*
%
%ADD81ROUNDEDRECTD81*%
G36*
X51442Y-88684D02*
X51592D01*
X51784Y-88711D01*
X52003Y-88739D01*
X52249Y-88780D01*
X52508Y-88848D01*
X52768Y-88916D01*
X52795D01*
X52891Y-88944D01*
X53014Y-88971D01*
X53151Y-89012D01*
X53164D01*
X53178Y-89026D01*
X53260Y-89053D01*
X53383Y-89094D01*
X53506Y-89149D01*
X53520D01*
X53547Y-89162D01*
X53602D01*
X53657Y-89176D01*
X53670D01*
X53698Y-89190D01*
X53725Y-89204D01*
X53766Y-89245D01*
X53807D01*
X53848Y-89272D01*
X53916Y-89299D01*
X53930D01*
X53957Y-89327D01*
X53998Y-89354D01*
X54026Y-89381D01*
X54039Y-89395D01*
X54094Y-89422D01*
X54176Y-89463D01*
X54258Y-89518D01*
X54272Y-89532D01*
X54313Y-89559D01*
X54381Y-89586D01*
X54449Y-89641D01*
X54477Y-89655D01*
X54532Y-89696D01*
X54559Y-89709D01*
X54614Y-89778D01*
X54627D01*
X54655Y-89805D01*
Y-89819D01*
X54668Y-89832D01*
X54873Y-90051D01*
X55229Y-90530D01*
X55215D01*
X55201Y-90516D01*
X55119Y-90502D01*
X55010Y-90475D01*
X54887Y-90447D01*
X54873D01*
X54860Y-90434D01*
X54777Y-90420D01*
X54655Y-90393D01*
X54518Y-90379D01*
X54422D01*
X54367Y-90365D01*
X54272D01*
X54217Y-90393D01*
X54203Y-90406D01*
X54176Y-90420D01*
X54162Y-90461D01*
X54149D01*
X54135Y-90488D01*
X54094Y-90543D01*
X54080Y-90557D01*
X54053Y-90598D01*
X54026Y-90666D01*
X53998Y-90748D01*
X53985Y-90762D01*
X53971Y-90816D01*
X53944Y-90885D01*
X53903Y-90967D01*
X53889Y-90994D01*
X53834Y-91063D01*
X53793Y-91158D01*
X53739Y-91281D01*
Y-91295D01*
X53725Y-91309D01*
X53698Y-91391D01*
X53657Y-91500D01*
X53602Y-91623D01*
X53588Y-91650D01*
X53561Y-91719D01*
X53534Y-91815D01*
X53493Y-91924D01*
X53479Y-91951D01*
X53465Y-92006D01*
X53424Y-92102D01*
X53397Y-92197D01*
X53383Y-92211D01*
X53369Y-92252D01*
X53356Y-92320D01*
Y-92389D01*
Y-92402D01*
X53342Y-92443D01*
X53329Y-92498D01*
X53301Y-92566D01*
Y-92580D01*
X53288Y-92635D01*
X53274Y-92703D01*
X53260Y-92785D01*
X53246Y-92799D01*
X53233Y-92853D01*
X53219Y-92922D01*
X53206Y-93004D01*
X53192Y-93031D01*
X53178Y-93099D01*
X53164Y-93127D01*
Y-93168D01*
X53178Y-93182D01*
X53219Y-93236D01*
X53246Y-93264D01*
X53288Y-93291D01*
X53301Y-93305D01*
X53329Y-93345D01*
X53383Y-93414D01*
X53438Y-93482D01*
X53452Y-93496D01*
X53479Y-93537D01*
X53534Y-93592D01*
X53602Y-93646D01*
X53616Y-93660D01*
X53657Y-93701D01*
X53725Y-93769D01*
X53807Y-93851D01*
X53821Y-93865D01*
X53875Y-93906D01*
X53944Y-93961D01*
X54026Y-94029D01*
X54039Y-94043D01*
X54094Y-94070D01*
X54162Y-94111D01*
X54258Y-94166D01*
X54272Y-94179D01*
X54326Y-94193D01*
X54409Y-94234D01*
X54491Y-94275D01*
X54504D01*
X54532Y-94289D01*
X54572Y-94302D01*
X54627Y-94330D01*
X54750Y-94384D01*
X54901Y-94439D01*
X54914D01*
X54928Y-94453D01*
X55160D01*
X55338Y-94425D01*
X55352D01*
X55379Y-94412D01*
X55420D01*
X55475Y-94384D01*
X55611Y-94330D01*
X55680Y-94275D01*
X55748Y-94220D01*
X55762Y-94207D01*
X55775Y-94193D01*
X55857Y-94111D01*
X55967Y-94002D01*
X56090Y-93906D01*
Y-93920D01*
Y-93933D01*
X56076Y-94015D01*
Y-94029D01*
X56063Y-94056D01*
Y-94084D01*
X56049Y-94097D01*
Y-94111D01*
Y-94152D01*
X56035Y-94207D01*
X56021Y-94275D01*
Y-94289D01*
X56008Y-94330D01*
X55967Y-94425D01*
Y-94439D01*
X55953Y-94453D01*
X55940Y-94521D01*
X55898Y-94630D01*
X55871Y-94740D01*
X55857Y-94767D01*
X55830Y-94822D01*
X55789Y-94918D01*
X55748Y-95027D01*
Y-95041D01*
X55734Y-95068D01*
X55707Y-95109D01*
X55693Y-95177D01*
Y-95191D01*
X55680Y-95218D01*
X55652Y-95259D01*
X55625Y-95300D01*
X55611Y-95369D01*
X55529Y-95533D01*
X55338Y-95833D01*
X55256Y-95984D01*
X55242Y-95998D01*
X55201Y-96066D01*
X55188D01*
X55174Y-96093D01*
X55147Y-96148D01*
X55133Y-96162D01*
X55092Y-96216D01*
X55051Y-96312D01*
X55024Y-96421D01*
Y-96449D01*
Y-96517D01*
Y-96599D01*
X55065Y-96695D01*
Y-96708D01*
X55092Y-96736D01*
X55160Y-96831D01*
X55188Y-96859D01*
X55242Y-96927D01*
X55256D01*
X55283Y-96941D01*
X55311Y-96954D01*
X55365Y-96995D01*
X55379Y-97009D01*
X55393Y-97036D01*
X55434Y-97064D01*
X55475Y-97077D01*
X55502Y-97091D01*
X55570Y-97132D01*
X55666Y-97200D01*
X55789Y-97269D01*
X55803D01*
X55817Y-97282D01*
X55885Y-97324D01*
X55994Y-97378D01*
X56103Y-97447D01*
X56117D01*
X56145Y-97460D01*
X56186Y-97487D01*
X56254Y-97515D01*
X56268D01*
X56295Y-97528D01*
X56336Y-97556D01*
X56363Y-97597D01*
X56391D01*
X56445Y-97610D01*
X56527Y-97638D01*
X56637Y-97706D01*
X56664Y-97720D01*
X56719Y-97775D01*
X56801Y-97829D01*
X56896Y-97884D01*
X56924Y-97898D01*
X56992Y-97939D01*
X57006D01*
X57019Y-97952D01*
X57088Y-98021D01*
X57293Y-98157D01*
Y-98198D01*
X57334D01*
X57375Y-98212D01*
X57416Y-98239D01*
X57443Y-98267D01*
X57471Y-98294D01*
X57703Y-98485D01*
X57894Y-98663D01*
X57935D01*
X58004Y-98773D01*
X58072Y-98800D01*
X58086Y-98855D01*
X58236Y-98964D01*
X58222D01*
Y-98991D01*
X58250D01*
X58277Y-99005D01*
X58304Y-99032D01*
X58318Y-99046D01*
X58332Y-99101D01*
X58345D01*
X58373Y-99114D01*
X58414Y-99142D01*
X58455Y-99183D01*
Y-99196D01*
X58482Y-99224D01*
X58523Y-99292D01*
Y-99333D01*
X58551Y-99319D01*
X58660Y-99470D01*
X58797Y-99634D01*
X59070Y-100044D01*
X59043Y-100085D01*
X59056Y-100099D01*
X59084Y-100112D01*
X59138Y-100167D01*
X59179Y-100235D01*
Y-100249D01*
X59207Y-100303D01*
X59234Y-100358D01*
X59261Y-100427D01*
Y-100440D01*
X59275Y-100468D01*
X59302Y-100522D01*
X59330Y-100577D01*
X59398Y-100741D01*
X59480Y-100919D01*
Y-100932D01*
X59494Y-100960D01*
X59521Y-101014D01*
X59548Y-101069D01*
X59617Y-101233D01*
X59685Y-101425D01*
X59699Y-101452D01*
X59712Y-101534D01*
X59753Y-101657D01*
X59794Y-101821D01*
X59835Y-102026D01*
X59877Y-102245D01*
X59904Y-102504D01*
X59931Y-102764D01*
Y-102778D01*
Y-102792D01*
Y-102832D01*
Y-102887D01*
Y-103024D01*
Y-103202D01*
Y-103407D01*
X59904Y-103639D01*
X59877Y-103885D01*
X59835Y-104118D01*
Y-104131D01*
X59822Y-104186D01*
X59794Y-104268D01*
X59753Y-104377D01*
X59726Y-104500D01*
X59671Y-104637D01*
X59562Y-104924D01*
X59548Y-104938D01*
X59535Y-104992D01*
X59494Y-105061D01*
X59453Y-105156D01*
X59398Y-105266D01*
X59330Y-105389D01*
X59166Y-105662D01*
Y-105676D01*
X59138Y-105703D01*
X59111Y-105744D01*
X59084Y-105799D01*
X58988Y-105936D01*
X58878Y-106100D01*
X58865Y-106113D01*
X58851Y-106141D01*
X58824Y-106168D01*
X58769Y-106223D01*
X58674Y-106359D01*
X58551Y-106496D01*
X58537Y-106510D01*
X58509Y-106537D01*
X58468Y-106592D01*
X58427Y-106646D01*
X58414Y-106660D01*
X58386Y-106687D01*
X58332Y-106728D01*
X58277Y-106769D01*
X58304Y-106810D01*
X58277Y-106824D01*
X58209Y-106865D01*
X57990Y-107056D01*
X57129Y-107467D01*
X56869Y-107521D01*
X56254Y-107754D01*
X56227D01*
Y-107781D01*
X56158D01*
X56103Y-107822D01*
X56063Y-107836D01*
X55802Y-107867D01*
X55817Y-107877D01*
X55775D01*
Y-107870D01*
X55721Y-107877D01*
X55707Y-107918D01*
X55625D01*
X55529Y-107931D01*
X55420Y-107945D01*
X55393D01*
X55324Y-107972D01*
X55229Y-108000D01*
X55133Y-108041D01*
X55024D01*
X54983Y-108054D01*
X54955Y-108082D01*
X54691Y-108114D01*
X54709Y-108123D01*
X54682D01*
Y-108115D01*
X54614Y-108123D01*
X54600D01*
X54559Y-108136D01*
X54477D01*
X54436Y-108150D01*
X54381Y-108164D01*
X54149D01*
X54135Y-108177D01*
X54094Y-108191D01*
X54039Y-108205D01*
X53834D01*
X53766Y-108219D01*
X53520D01*
X53438Y-108232D01*
X53424D01*
X53411Y-108246D01*
X53356Y-108259D01*
X53329D01*
X53301Y-108273D01*
X53055D01*
Y-108300D01*
X52946D01*
X52850Y-108314D01*
X52823D01*
X52768Y-108328D01*
X52686Y-108342D01*
X52221D01*
X52044Y-108328D01*
X51838D01*
X51415Y-108314D01*
X51319D01*
X51196Y-108300D01*
X50882D01*
X50677Y-108287D01*
X50458Y-108273D01*
X50239Y-108259D01*
X50225D01*
X50171Y-108246D01*
X49856D01*
X49761Y-108232D01*
X49706D01*
X49651Y-108219D01*
X49583D01*
X49487Y-108205D01*
X49392Y-108191D01*
X49173Y-108164D01*
X49159D01*
X49118Y-108150D01*
X49064D01*
X48981Y-108136D01*
X48899Y-108123D01*
X48790Y-108109D01*
X48571Y-108082D01*
X48503D01*
X48448Y-108068D01*
X48366Y-108054D01*
X48216D01*
X48134Y-108068D01*
X48107D01*
X48079Y-108054D01*
X48038D01*
X48011Y-108068D01*
X47997Y-108054D01*
X47970Y-108041D01*
X47929Y-108027D01*
X47861Y-108013D01*
X47751D01*
X47710Y-108027D01*
X47546D01*
X47532Y-108013D01*
X47505Y-108000D01*
X47464Y-107986D01*
X47396Y-107972D01*
X47341D01*
X47232Y-107945D01*
X47191D01*
X47150Y-107931D01*
X47081D01*
X46931Y-107904D01*
X46767Y-107890D01*
X46726D01*
X46671Y-107877D01*
X46617D01*
X46466Y-107849D01*
X46288Y-107822D01*
X46275D01*
X46234Y-107808D01*
X46165Y-107781D01*
X46070Y-107767D01*
X46042D01*
X45988Y-107754D01*
X45878D01*
X45550Y-107658D01*
X44990Y-107494D01*
Y-107467D01*
X44962D01*
X44908Y-107453D01*
X44826Y-107439D01*
X44730Y-107412D01*
X44703Y-107398D01*
X44648Y-107371D01*
X44552Y-107344D01*
X44457Y-107303D01*
X44443Y-107289D01*
X44402Y-107275D01*
X44334Y-107262D01*
X44265Y-107234D01*
X44252D01*
X44211Y-107221D01*
X44142Y-107207D01*
X44074Y-107179D01*
X44047Y-107166D01*
X43992Y-107152D01*
X43910Y-107125D01*
X43828Y-107084D01*
X43801Y-107070D01*
X43760Y-107043D01*
X43677Y-107002D01*
X43609Y-106947D01*
X43595Y-106933D01*
X43541Y-106920D01*
X43472Y-106879D01*
X43390Y-106838D01*
X43377Y-106824D01*
X43322Y-106797D01*
X43267Y-106742D01*
X43226Y-106674D01*
X43213Y-106701D01*
X43131Y-106660D01*
Y-106619D01*
X43103D01*
X43090Y-106605D01*
X43049Y-106564D01*
X42980Y-106537D01*
X42844Y-106387D01*
X42789D01*
X42748Y-106291D01*
X42721D01*
X42680Y-106277D01*
X42652Y-106250D01*
X42639Y-106236D01*
X42611Y-106223D01*
X42529Y-106154D01*
X42516Y-106141D01*
X42461Y-106086D01*
X42406Y-106018D01*
X42338Y-105936D01*
X42324Y-105908D01*
X42283Y-105853D01*
X42215Y-105772D01*
X42147Y-105676D01*
X42133Y-105662D01*
X42105Y-105649D01*
X42037Y-105567D01*
X42023Y-105553D01*
X42010Y-105526D01*
X41996Y-105484D01*
X41982Y-105430D01*
X41941Y-105389D01*
X41900Y-105334D01*
X41887Y-105320D01*
X41859Y-105293D01*
X41818Y-105252D01*
X41777Y-105184D01*
X41764Y-105156D01*
X41736Y-105115D01*
X41730Y-105102D01*
X41723D01*
Y-105088D01*
X41709Y-105061D01*
X41695Y-105006D01*
X41668D01*
X41654Y-104992D01*
X41641Y-104965D01*
Y-104951D01*
X41627Y-104938D01*
Y-104910D01*
X41613D01*
X41600Y-104897D01*
Y-104883D01*
Y-104856D01*
X41572Y-104810D01*
Y-104787D01*
X41559D01*
X41545Y-104760D01*
X41504Y-104733D01*
X41477Y-104692D01*
X41463Y-104678D01*
X41449Y-104651D01*
X41436Y-104596D01*
Y-104541D01*
X41422Y-104555D01*
Y-104541D01*
Y-104528D01*
X41408Y-104514D01*
X41395Y-104500D01*
Y-104487D01*
X41367Y-104364D01*
X41340Y-104391D01*
Y-104350D01*
X41326Y-104364D01*
X41340Y-104336D01*
X41326Y-104350D01*
X41299Y-104336D01*
Y-104268D01*
X41285D01*
Y-104254D01*
X41299D01*
X41285Y-104241D01*
Y-104200D01*
X41272D01*
X41258Y-104186D01*
X41244Y-104172D01*
X41231Y-104131D01*
Y-104118D01*
X41217Y-104090D01*
X41203Y-104022D01*
Y-104035D01*
X41190D01*
Y-103967D01*
X41176D01*
Y-103926D01*
X41135Y-103885D01*
X41149D01*
X41135Y-103871D01*
X41121Y-103858D01*
X41107Y-103817D01*
Y-103789D01*
Y-103776D01*
X41094Y-103748D01*
Y-103680D01*
X41080Y-103694D01*
Y-103625D01*
X41039Y-103639D01*
X41053Y-103584D01*
X41039D01*
Y-103598D01*
X41017Y-103543D01*
X41012D01*
Y-103530D01*
X41017Y-103543D01*
X41039D01*
X40998Y-103502D01*
X41012Y-103461D01*
X40998Y-103489D01*
Y-103475D01*
Y-103461D01*
Y-103448D01*
X40984D01*
Y-103434D01*
X40998Y-103420D01*
X40984D01*
Y-103407D01*
X40998Y-103379D01*
Y-103366D01*
X40957D01*
X40984Y-103311D01*
X40957D01*
Y-103297D01*
X40944D01*
X40957Y-103256D01*
X40944Y-103270D01*
Y-103256D01*
Y-103229D01*
X40916D01*
Y-103215D01*
X40930Y-103174D01*
Y-103161D01*
Y-103147D01*
Y-103133D01*
X40903D01*
X40916Y-103078D01*
X40903D01*
Y-103065D01*
X40875D01*
Y-102969D01*
X40861D01*
X40848Y-102696D01*
X40780Y-102545D01*
X40807Y-102463D01*
X40780Y-102491D01*
Y-102368D01*
X40766Y-102272D01*
X40752D01*
Y-102258D01*
Y-102245D01*
X40766Y-102217D01*
X40752Y-102204D01*
X40738Y-102190D01*
Y-102176D01*
Y-102163D01*
X40752Y-102135D01*
X40738Y-102122D01*
X40725Y-102108D01*
Y-102094D01*
X40752Y-102040D01*
X40711Y-101903D01*
X40684Y-101575D01*
X40711Y-101520D01*
X40684D01*
Y-101479D01*
Y-101438D01*
Y-101301D01*
Y-101151D01*
Y-101137D01*
Y-101110D01*
Y-101069D01*
Y-101028D01*
Y-100891D01*
Y-100741D01*
Y-100727D01*
Y-100686D01*
Y-100632D01*
Y-100563D01*
Y-100550D01*
Y-100509D01*
X40697Y-100454D01*
X40725Y-100413D01*
Y-100399D01*
Y-100358D01*
Y-100303D01*
X40738Y-100235D01*
Y-100222D01*
Y-100167D01*
X40752Y-100099D01*
Y-100030D01*
Y-100016D01*
Y-100003D01*
X40766Y-99921D01*
X40780Y-99811D01*
X40807Y-99688D01*
Y-99675D01*
Y-99661D01*
X40821Y-99579D01*
X40834Y-99470D01*
X40861Y-99347D01*
Y-99319D01*
X40875Y-99251D01*
X40889Y-99155D01*
X40916Y-99032D01*
X40957Y-98868D01*
X40998Y-98704D01*
X41094Y-98349D01*
Y-98321D01*
X41121Y-98267D01*
X41149Y-98171D01*
X41190Y-98048D01*
X41244Y-97898D01*
X41313Y-97734D01*
X41477Y-97378D01*
Y-97364D01*
X41504Y-97324D01*
X41531Y-97269D01*
X41572Y-97187D01*
X41695Y-96995D01*
X41846Y-96790D01*
X41859Y-96777D01*
X41887Y-96736D01*
X41928Y-96695D01*
X41982Y-96626D01*
X42064Y-96544D01*
X42147Y-96462D01*
X42365Y-96312D01*
X42393Y-96298D01*
X42447Y-96271D01*
X42543Y-96216D01*
X42666Y-96162D01*
X42816Y-96121D01*
X42994Y-96079D01*
X43172Y-96066D01*
X43390D01*
X43445Y-96079D01*
X43554Y-96093D01*
X43677Y-96134D01*
X43828Y-96175D01*
X43992Y-96230D01*
X44170Y-96312D01*
X44347Y-96408D01*
X44361Y-96421D01*
X44402Y-96449D01*
X44470Y-96476D01*
X44539Y-96531D01*
X44552Y-96544D01*
X44593Y-96558D01*
X44703Y-96640D01*
X44730Y-96654D01*
X44785Y-96681D01*
X44812Y-96695D01*
X44840Y-96736D01*
X44867D01*
X44908Y-96763D01*
X44921Y-96777D01*
X44976Y-96790D01*
X44990D01*
X45017Y-96818D01*
X45099Y-96872D01*
X45113D01*
X45140Y-96900D01*
X45222Y-96954D01*
X45236D01*
X45250Y-96982D01*
X45291Y-96995D01*
X45345Y-97036D01*
X45482Y-97105D01*
X45632Y-97200D01*
X45646D01*
X45673Y-97214D01*
X45714Y-97241D01*
X45755Y-97269D01*
X45892Y-97351D01*
X46056Y-97433D01*
X46070D01*
X46111Y-97460D01*
X46165Y-97487D01*
X46248Y-97515D01*
X46261D01*
X46302Y-97542D01*
X46357Y-97570D01*
X46398Y-97624D01*
X46453D01*
X46521Y-97638D01*
X46603Y-97679D01*
X46617Y-97693D01*
X46671Y-97720D01*
X46740Y-97747D01*
X46808Y-97775D01*
X46822D01*
X46849Y-97788D01*
X46890Y-97802D01*
X46958D01*
X46999Y-97788D01*
X47095Y-97775D01*
X47163D01*
X47218Y-97761D01*
X47355D01*
X47505Y-97747D01*
X47546D01*
X47574Y-97734D01*
X47628Y-97720D01*
X47765Y-97706D01*
X47901Y-97665D01*
X47915D01*
X47943Y-97651D01*
X48038Y-97610D01*
X48052Y-97597D01*
X48079Y-97583D01*
X48107Y-97528D01*
X48148Y-97474D01*
Y-97460D01*
Y-97419D01*
Y-97378D01*
X48134Y-97324D01*
X48120Y-97310D01*
X48107Y-97282D01*
X48079Y-97241D01*
X48038Y-97200D01*
X48025D01*
X48011Y-97173D01*
X47943Y-97118D01*
X47847Y-97050D01*
X47738Y-96954D01*
X47724D01*
X47710Y-96927D01*
X47642Y-96872D01*
X47546Y-96804D01*
X47437Y-96722D01*
X47423Y-96708D01*
X47368Y-96667D01*
X47300Y-96599D01*
X47204Y-96517D01*
X47095Y-96408D01*
X46986Y-96285D01*
X46753Y-96025D01*
X46740Y-96011D01*
X46699Y-95956D01*
X46644Y-95875D01*
X46575Y-95779D01*
X46494Y-95656D01*
X46411Y-95519D01*
X46248Y-95205D01*
X46234Y-95191D01*
X46220Y-95150D01*
X46179Y-95082D01*
X46152Y-95013D01*
X46138Y-95000D01*
X46124Y-94945D01*
X46097Y-94890D01*
X46070Y-94808D01*
X46056Y-94794D01*
X46042Y-94767D01*
X46015Y-94699D01*
Y-94685D01*
X46001Y-94658D01*
Y-94617D01*
Y-94562D01*
X45988D01*
X45974Y-94548D01*
X45960Y-94521D01*
X45947Y-94480D01*
Y-94466D01*
X45933Y-94425D01*
X45919Y-94330D01*
Y-94316D01*
X45906Y-94275D01*
Y-94207D01*
X45892Y-94138D01*
Y-94125D01*
X45878Y-94070D01*
X45851Y-93988D01*
X45837Y-93906D01*
Y-93892D01*
X45824Y-93865D01*
X45810Y-93769D01*
Y-93756D01*
X45796Y-93715D01*
Y-93660D01*
Y-93605D01*
X45783Y-93592D01*
Y-93578D01*
Y-93537D01*
Y-93523D01*
Y-93496D01*
Y-93427D01*
Y-93400D01*
Y-93345D01*
Y-93250D01*
Y-93140D01*
Y-93127D01*
Y-93113D01*
Y-93045D01*
Y-92963D01*
X45796Y-92867D01*
Y-92963D01*
X45824Y-92840D01*
X45798D01*
X45824Y-92525D01*
X45837D01*
Y-92484D01*
X45851Y-92430D01*
X45865Y-92279D01*
X45919Y-92102D01*
Y-92088D01*
X45933Y-92061D01*
X45947Y-92006D01*
X45974Y-91951D01*
X46029Y-91801D01*
X46097Y-91623D01*
Y-91609D01*
X46111Y-91582D01*
X46124Y-91527D01*
X46165Y-91459D01*
Y-91445D01*
X46193Y-91404D01*
X46220Y-91350D01*
X46261Y-91322D01*
Y-91309D01*
Y-91295D01*
X46275Y-91254D01*
X46288Y-91240D01*
X46302Y-91186D01*
Y-91172D01*
X46330Y-91145D01*
X46357Y-91090D01*
X46398Y-91022D01*
X46411Y-91008D01*
X46425Y-90967D01*
X46466Y-90926D01*
X46521Y-90899D01*
Y-90885D01*
Y-90871D01*
X46534Y-90830D01*
X46548Y-90816D01*
X46589Y-90776D01*
X46671Y-90666D01*
Y-90653D01*
Y-90639D01*
X46699Y-90598D01*
X46726Y-90557D01*
X46740Y-90543D01*
X46753Y-90516D01*
X46794Y-90502D01*
X46822Y-90488D01*
X46876Y-90379D01*
X46931Y-90297D01*
X47013Y-90242D01*
X47204Y-90010D01*
X47232Y-90024D01*
Y-89996D01*
X47245D01*
X47273Y-89969D01*
X47314Y-89942D01*
X47368Y-89901D01*
X47382Y-89887D01*
X47409Y-89846D01*
X47450Y-89805D01*
X47478Y-89764D01*
X47491D01*
X47532Y-89737D01*
X47601Y-89696D01*
X47683Y-89641D01*
X47697Y-89627D01*
X47738Y-89586D01*
X47792Y-89532D01*
X47861Y-89491D01*
X47888Y-89477D01*
X47929Y-89463D01*
X47943Y-89450D01*
X47997Y-89436D01*
X48066Y-89381D01*
Y-89368D01*
X48079Y-89354D01*
X48148Y-89327D01*
X48175Y-89313D01*
X48243Y-89258D01*
X48257Y-89245D01*
X48312Y-89231D01*
X48394Y-89190D01*
X48476Y-89162D01*
X48489Y-89149D01*
X48544Y-89135D01*
X48626Y-89108D01*
X48708Y-89067D01*
X48735Y-89053D01*
X48804Y-89012D01*
X48817D01*
X48831Y-88998D01*
X48872Y-88985D01*
X48913D01*
X48927Y-88971D01*
X48941Y-88957D01*
X48981Y-88944D01*
X49036Y-88930D01*
X49050D01*
X49077Y-88916D01*
X49187D01*
X49200Y-88903D01*
X49268Y-88889D01*
X49378Y-88848D01*
X49501Y-88821D01*
X49515D01*
X49528Y-88807D01*
X49610Y-88793D01*
X49720Y-88766D01*
X49856Y-88739D01*
X49884D01*
X49925Y-88725D01*
X49979D01*
X50116Y-88711D01*
X50308Y-88698D01*
X50526Y-88684D01*
X50772Y-88670D01*
X51387D01*
X51442Y-88684D01*
D02*
G37*
G36*
X17131Y25335D02*
Y24535D01*
Y23735D01*
Y22935D01*
X13931D01*
Y23735D01*
Y24535D01*
Y25335D01*
Y26135D01*
X17131D01*
Y25335D01*
D02*
G37*
G36*
X45796Y-92853D02*
Y-92840D01*
X45798D01*
X45796Y-92853D01*
D02*
G37*
G36*
X41572Y-104810D02*
Y-104815D01*
X41559Y-104787D01*
X41572Y-104810D01*
D02*
G37*
G36*
X54518Y-90530D02*
X54545D01*
X54600Y-90543D01*
X54682Y-90557D01*
X54791Y-90584D01*
X54819D01*
X54873Y-90598D01*
X54969Y-90611D01*
X55065Y-90639D01*
X55078D01*
X55119Y-90653D01*
X55174Y-90666D01*
X55256Y-90680D01*
X55352Y-90693D01*
X55461Y-90721D01*
X55693Y-90762D01*
X55748D01*
X55803Y-90776D01*
X55885Y-90789D01*
X55967Y-90803D01*
X56076Y-90816D01*
X56295Y-90858D01*
X56418D01*
X56486Y-90871D01*
X56541D01*
X56596Y-90885D01*
X56664Y-90899D01*
X56678D01*
X56705Y-90912D01*
X56787Y-90926D01*
X56896D01*
Y-90940D01*
X56924Y-90953D01*
X56951D01*
Y-90964D01*
X56937Y-90967D01*
X56951D01*
Y-90964D01*
X56992Y-90953D01*
Y-90967D01*
X57019Y-90981D01*
X57088Y-91035D01*
X57101D01*
X57115Y-91049D01*
X57197Y-91090D01*
X57225Y-91104D01*
X57279Y-91158D01*
X57361Y-91240D01*
X57443Y-91363D01*
Y-91377D01*
X57457Y-91391D01*
X57484Y-91473D01*
X57512Y-91596D01*
X57498Y-91664D01*
X57484Y-91732D01*
Y-91760D01*
Y-91828D01*
X57471Y-91856D01*
X57429Y-91896D01*
X57293Y-92225D01*
X57279Y-92238D01*
X57238Y-92293D01*
X57170Y-92361D01*
X57074Y-92457D01*
X56978Y-92580D01*
X56869Y-92717D01*
X56746Y-92867D01*
X56637Y-93031D01*
X56623Y-93045D01*
X56582Y-93099D01*
X56527Y-93195D01*
X56432Y-93291D01*
X56336Y-93414D01*
X56227Y-93550D01*
X55953Y-93838D01*
X55940Y-93851D01*
X55926Y-93865D01*
X55844Y-93933D01*
X55721Y-94043D01*
X55570Y-94166D01*
X55557D01*
X55529Y-94193D01*
X55488Y-94207D01*
X55434Y-94234D01*
X55283Y-94289D01*
X55201Y-94302D01*
X55106Y-94316D01*
X55010D01*
X54928Y-94302D01*
X54832Y-94275D01*
X54805Y-94261D01*
X54750Y-94234D01*
X54668Y-94193D01*
X54572Y-94138D01*
X54545Y-94125D01*
X54491Y-94111D01*
X54422Y-94070D01*
X54340Y-94043D01*
X54313Y-94029D01*
X54258Y-94002D01*
X54190Y-93961D01*
X54108Y-93906D01*
X54094Y-93892D01*
X54039Y-93851D01*
X53971Y-93783D01*
X53903Y-93715D01*
X53889Y-93701D01*
X53834Y-93660D01*
X53766Y-93592D01*
X53698Y-93523D01*
X53684Y-93510D01*
X53657Y-93482D01*
X53561Y-93400D01*
X53547Y-93387D01*
X53520Y-93359D01*
X53438Y-93264D01*
X53424Y-93250D01*
X53411Y-93236D01*
X53369Y-93195D01*
X53356Y-93182D01*
X53342Y-93127D01*
Y-93113D01*
X53329Y-93058D01*
X53342Y-92990D01*
X53369Y-92894D01*
Y-92881D01*
Y-92867D01*
X53397Y-92812D01*
X53411Y-92730D01*
X53438Y-92648D01*
Y-92635D01*
X53465Y-92580D01*
X53479Y-92525D01*
X53493Y-92443D01*
Y-92430D01*
Y-92375D01*
X53506Y-92307D01*
X53534Y-92238D01*
Y-92225D01*
X53547Y-92211D01*
X53575Y-92129D01*
X53602Y-92019D01*
X53657Y-91910D01*
Y-91896D01*
X53670Y-91883D01*
X53698Y-91815D01*
X53739Y-91705D01*
X53780Y-91582D01*
Y-91568D01*
X53807Y-91527D01*
X53834Y-91459D01*
X53862Y-91391D01*
Y-91377D01*
X53889Y-91322D01*
X53903Y-91254D01*
X53930Y-91186D01*
Y-91172D01*
X53957Y-91131D01*
X53985Y-91076D01*
X54026Y-91008D01*
Y-90994D01*
X54053Y-90953D01*
X54080Y-90899D01*
X54108Y-90830D01*
Y-90816D01*
X54121Y-90789D01*
X54135Y-90748D01*
X54176Y-90680D01*
X54190Y-90666D01*
X54203Y-90625D01*
X54244Y-90570D01*
X54285Y-90530D01*
X54299D01*
X54326Y-90516D01*
X54449D01*
X54518Y-90530D01*
D02*
G37*
G36*
X20331Y28535D02*
Y27735D01*
Y26935D01*
Y26135D01*
X17131D01*
Y26935D01*
Y27735D01*
Y28535D01*
Y29335D01*
X20331D01*
Y28535D01*
D02*
G37*
G36*
X23531Y47735D02*
Y46935D01*
Y46135D01*
Y45335D01*
X20331D01*
Y46135D01*
Y46935D01*
Y47735D01*
Y48535D01*
X23531D01*
Y47735D01*
D02*
G37*
G36*
X36331D02*
Y46935D01*
Y46135D01*
Y45335D01*
Y44535D01*
Y43735D01*
Y42935D01*
Y42135D01*
Y41335D01*
Y40535D01*
Y39735D01*
Y38935D01*
Y38135D01*
Y37335D01*
Y36535D01*
Y35735D01*
Y34935D01*
Y34135D01*
Y33335D01*
Y32535D01*
Y31735D01*
Y30935D01*
Y30135D01*
Y29335D01*
Y28535D01*
Y27735D01*
Y26935D01*
Y26135D01*
Y25335D01*
Y24535D01*
Y23735D01*
Y22935D01*
Y22135D01*
Y21335D01*
Y20535D01*
Y19735D01*
Y18935D01*
Y18135D01*
Y17335D01*
Y16535D01*
X4331D01*
Y17335D01*
Y18135D01*
Y18935D01*
Y19735D01*
X10731D01*
Y20535D01*
Y21335D01*
Y22135D01*
Y22935D01*
X4331D01*
Y23735D01*
Y24535D01*
Y25335D01*
Y26135D01*
X10731D01*
Y25335D01*
Y24535D01*
Y23735D01*
Y22935D01*
X13931D01*
Y22135D01*
Y21335D01*
Y20535D01*
Y19735D01*
X26731D01*
Y20535D01*
Y21335D01*
Y22135D01*
Y22935D01*
X23531D01*
Y23735D01*
Y24535D01*
Y25335D01*
Y26135D01*
Y26935D01*
Y27735D01*
Y28535D01*
Y29335D01*
X20331D01*
Y30135D01*
Y30935D01*
Y31735D01*
Y32535D01*
Y33335D01*
Y34135D01*
Y34935D01*
Y35735D01*
X17131D01*
Y34935D01*
Y34135D01*
Y33335D01*
Y32535D01*
X13931D01*
Y33335D01*
Y34135D01*
Y34935D01*
Y35735D01*
Y36535D01*
Y37335D01*
Y38135D01*
Y38935D01*
X10731D01*
Y38135D01*
Y37335D01*
Y36535D01*
Y35735D01*
X4331D01*
Y36535D01*
Y37335D01*
Y38135D01*
Y38935D01*
X7531D01*
Y39735D01*
Y40535D01*
Y41335D01*
Y42135D01*
X4331D01*
Y42935D01*
Y43735D01*
Y44535D01*
Y45335D01*
X7531D01*
Y46135D01*
Y46935D01*
Y47735D01*
Y48535D01*
X10731D01*
Y47735D01*
Y46935D01*
Y46135D01*
Y45335D01*
X13931D01*
Y46135D01*
Y46935D01*
Y47735D01*
Y48535D01*
X17131D01*
Y47735D01*
Y46935D01*
Y46135D01*
Y45335D01*
X20331D01*
Y44535D01*
Y43735D01*
Y42935D01*
Y42135D01*
X17131D01*
Y41335D01*
Y40535D01*
Y39735D01*
Y38935D01*
X23531D01*
Y39735D01*
Y40535D01*
Y41335D01*
Y42135D01*
X26731D01*
Y42935D01*
Y43735D01*
Y44535D01*
Y45335D01*
Y46135D01*
Y46935D01*
Y47735D01*
Y48535D01*
X29931D01*
Y47735D01*
Y46935D01*
Y46135D01*
Y45335D01*
X33131D01*
Y46135D01*
Y46935D01*
Y47735D01*
Y48535D01*
X36331D01*
Y47735D01*
D02*
G37*
G36*
X13931Y31735D02*
Y30935D01*
Y30135D01*
Y29335D01*
X4331D01*
Y30135D01*
Y30935D01*
Y31735D01*
Y32535D01*
X13931D01*
Y31735D01*
D02*
G37*
%LPC*%
G36*
X41723Y-105074D02*
Y-105088D01*
X41730Y-105102D01*
X41750D01*
X41723Y-105074D01*
D02*
G37*
G36*
X41654Y-104924D02*
X41627D01*
X41654Y-104951D01*
Y-104924D01*
D02*
G37*
G36*
X54682Y-108109D02*
Y-108115D01*
X54691Y-108114D01*
X54682Y-108109D01*
D02*
G37*
G36*
X55775Y-107849D02*
Y-107870D01*
X55802Y-107867D01*
X55775Y-107849D01*
D02*
G37*
G36*
X49897Y-91527D02*
X49733D01*
X49624Y-91541D01*
X49501Y-91582D01*
X49364Y-91637D01*
X49227Y-91732D01*
X49104Y-91856D01*
X49091Y-91869D01*
X49050Y-91924D01*
X49009Y-92006D01*
X48954Y-92102D01*
X48913Y-92225D01*
X48886Y-92361D01*
Y-92512D01*
X48913Y-92676D01*
Y-92689D01*
X48927Y-92703D01*
X48941Y-92785D01*
X48981Y-92881D01*
X49050Y-92976D01*
X49064Y-92990D01*
X49104Y-93045D01*
X49187Y-93113D01*
X49282Y-93182D01*
X49310Y-93209D01*
X49378Y-93264D01*
X49405Y-93277D01*
X49474Y-93291D01*
X49487D01*
X49515Y-93305D01*
X49597Y-93318D01*
X49720D01*
X49747Y-93332D01*
X49802Y-93345D01*
X49829D01*
X49884Y-93359D01*
X49897Y-93345D01*
X49925Y-93332D01*
X49938Y-93318D01*
X49979Y-93291D01*
X50089D01*
X50102Y-93277D01*
X50143Y-93250D01*
X50157Y-93236D01*
X50184Y-93195D01*
X50212Y-93182D01*
X50253D01*
X50266Y-93168D01*
X50308Y-93140D01*
X50321Y-93127D01*
X50349Y-93099D01*
X50389Y-93045D01*
X50444Y-92976D01*
X50499Y-92881D01*
X50554Y-92771D01*
X50595Y-92662D01*
X50635Y-92525D01*
Y-92512D01*
X50649Y-92457D01*
Y-92389D01*
Y-92293D01*
X50635Y-92197D01*
X50595Y-92074D01*
X50554Y-91965D01*
X50472Y-91856D01*
X50458Y-91842D01*
X50444Y-91815D01*
X50403Y-91773D01*
X50362Y-91732D01*
X50349Y-91719D01*
X50308Y-91691D01*
X50212Y-91623D01*
X50198Y-91609D01*
X50157Y-91596D01*
X50061Y-91568D01*
X50048D01*
X50007Y-91555D01*
X49952Y-91541D01*
X49897Y-91527D01*
D02*
G37*
G36*
X33131Y42135D02*
X29931D01*
Y41335D01*
Y40535D01*
Y39735D01*
Y38935D01*
Y38135D01*
Y37335D01*
Y36535D01*
Y35735D01*
Y34935D01*
Y34135D01*
Y33335D01*
Y32535D01*
X33131D01*
Y33335D01*
Y34135D01*
Y34935D01*
Y35735D01*
Y36535D01*
Y37335D01*
Y38135D01*
Y38935D01*
Y39735D01*
Y40535D01*
Y41335D01*
Y42135D01*
D02*
G37*
G36*
X26731Y32535D02*
X23531D01*
Y31735D01*
Y30935D01*
Y30135D01*
Y29335D01*
X26731D01*
Y28535D01*
Y27735D01*
Y26935D01*
Y26135D01*
X29931D01*
Y26935D01*
Y27735D01*
Y28535D01*
Y29335D01*
X26731D01*
Y30135D01*
Y30935D01*
Y31735D01*
Y32535D01*
D02*
G37*
G36*
X33131Y22935D02*
X29931D01*
Y22135D01*
Y21335D01*
Y20535D01*
Y19735D01*
X33131D01*
Y20535D01*
Y21335D01*
Y22135D01*
Y22935D01*
D02*
G37*
%LPD*%
D41*
X37795Y-93702D02*
Y-95538D01*
X36877Y-96457D01*
X35959Y-95538D01*
Y-93702D01*
X33204Y-96457D02*
X35040D01*
X33204Y-94620D01*
Y-94161D01*
X33663Y-93702D01*
X34581D01*
X35040Y-94161D01*
X32285Y-96457D02*
Y-95998D01*
X31826D01*
Y-96457D01*
X32285D01*
X29989Y-94161D02*
X29530Y-93702D01*
X28612D01*
X28153Y-94161D01*
Y-95998D01*
X28612Y-96457D01*
X29530D01*
X29989Y-95998D01*
Y-94161D01*
X35959Y-108268D02*
X37795D01*
X35959Y-106431D01*
Y-105972D01*
X36418Y-105513D01*
X37336D01*
X37795Y-105972D01*
X35040D02*
X34581Y-105513D01*
X33663D01*
X33204Y-105972D01*
Y-107808D01*
X33663Y-108268D01*
X34581D01*
X35040Y-107808D01*
Y-105972D01*
X30449Y-108268D02*
X32285D01*
X30449Y-106431D01*
Y-105972D01*
X30908Y-105513D01*
X31826D01*
X32285Y-105972D01*
X27694Y-108268D02*
X29530D01*
X27694Y-106431D01*
Y-105972D01*
X28153Y-105513D01*
X29071D01*
X29530Y-105972D01*
X26775Y-106890D02*
X24938D01*
X24020Y-105972D02*
X23561Y-105513D01*
X22643D01*
X22184Y-105972D01*
Y-107808D01*
X22643Y-108268D01*
X23561D01*
X24020Y-107808D01*
Y-105972D01*
X19429Y-105513D02*
X20347Y-105972D01*
X21265Y-106890D01*
Y-107808D01*
X20806Y-108268D01*
X19888D01*
X19429Y-107808D01*
Y-107349D01*
X19888Y-106890D01*
X21265D01*
X18510D02*
X16673D01*
X15755Y-108268D02*
X14837D01*
X15296D01*
Y-105513D01*
X15755Y-105972D01*
X13459D02*
X13000Y-105513D01*
X12082D01*
X11623Y-105972D01*
Y-106431D01*
X12082Y-106890D01*
X11623Y-107349D01*
Y-107808D01*
X12082Y-108268D01*
X13000D01*
X13459Y-107808D01*
Y-107349D01*
X13000Y-106890D01*
X13459Y-106431D01*
Y-105972D01*
X13000Y-106890D02*
X12082D01*
X7949Y-108268D02*
X6112Y-106431D01*
X603Y-105513D02*
X2439D01*
Y-106890D01*
X1521D01*
X2439D01*
Y-108268D01*
X-316Y-106431D02*
Y-108268D01*
Y-107349D01*
X-775Y-106890D01*
X-1234Y-106431D01*
X-1693D01*
X-4448Y-108268D02*
X-3530D01*
X-3071Y-107808D01*
Y-106890D01*
X-3530Y-106431D01*
X-4448D01*
X-4907Y-106890D01*
Y-107349D01*
X-3071D01*
X-5826Y-108268D02*
X-6744D01*
X-6285D01*
Y-106431D01*
X-5826D01*
X-8122Y-105513D02*
Y-108268D01*
X-9499D01*
X-9958Y-107808D01*
Y-107349D01*
Y-106890D01*
X-9499Y-106431D01*
X-8122D01*
X-10877D02*
Y-107808D01*
X-11336Y-108268D01*
X-12713D01*
Y-106431D01*
X-13632D02*
Y-108268D01*
Y-107349D01*
X-14091Y-106890D01*
X-14550Y-106431D01*
X-15009D01*
X-17305Y-109186D02*
X-17764D01*
X-18224Y-108727D01*
Y-106431D01*
X-16846D01*
X-16387Y-106890D01*
Y-107808D01*
X-16846Y-108268D01*
X-18224D01*
X37795Y-102362D02*
Y-99607D01*
X36877Y-100525D01*
X35959Y-99607D01*
Y-102362D01*
X34581Y-100525D02*
X33663D01*
X33204Y-100985D01*
Y-102362D01*
X34581D01*
X35040Y-101903D01*
X34581Y-101444D01*
X33204D01*
X32285Y-100525D02*
Y-102362D01*
Y-101444D01*
X31826Y-100985D01*
X31367Y-100525D01*
X30908D01*
X29530Y-102362D02*
X28612D01*
X29071D01*
Y-100525D01*
X29530D01*
X27234D02*
Y-101903D01*
X26775Y-102362D01*
X25398D01*
Y-100525D01*
X24479Y-102362D02*
X23102D01*
X22643Y-101903D01*
X23102Y-101444D01*
X24020D01*
X24479Y-100985D01*
X24020Y-100525D01*
X22643D01*
X18969Y-99607D02*
X17133D01*
X18051D01*
Y-102362D01*
X14837D02*
X15755D01*
X16214Y-101903D01*
Y-100985D01*
X15755Y-100525D01*
X14837D01*
X14378Y-100985D01*
Y-101444D01*
X16214D01*
X13000Y-100066D02*
Y-100525D01*
X13459D01*
X12541D01*
X13000D01*
Y-101903D01*
X12541Y-102362D01*
X10704Y-100525D02*
X9786D01*
X9327Y-100985D01*
Y-102362D01*
X10704D01*
X11163Y-101903D01*
X10704Y-101444D01*
X9327D01*
X8408Y-100525D02*
Y-102362D01*
Y-101444D01*
X7949Y-100985D01*
X7490Y-100525D01*
X7031D01*
X3817Y-99607D02*
Y-102362D01*
X5194D01*
X5653Y-101903D01*
Y-100985D01*
X5194Y-100525D01*
X3817D01*
X37795Y-90551D02*
Y-88714D01*
X36877Y-87796D01*
X35959Y-88714D01*
Y-90551D01*
Y-89174D01*
X37795D01*
X35040Y-90551D02*
X34122D01*
X34581D01*
Y-87796D01*
X35040D01*
X32285Y-88714D02*
X31367D01*
X30908Y-89174D01*
Y-90551D01*
X32285D01*
X32744Y-90092D01*
X32285Y-89633D01*
X30908D01*
X29989Y-88714D02*
Y-90551D01*
Y-89633D01*
X29530Y-89174D01*
X29071Y-88714D01*
X28612D01*
X27234Y-90551D02*
Y-88714D01*
X26775D01*
X26316Y-89174D01*
Y-90551D01*
Y-89174D01*
X25857Y-88714D01*
X25398Y-89174D01*
Y-90551D01*
X19888Y-88255D02*
X20347Y-87796D01*
X21265D01*
X21724Y-88255D01*
Y-90092D01*
X21265Y-90551D01*
X20347D01*
X19888Y-90092D01*
X18969Y-90551D02*
X18051D01*
X18510D01*
Y-87796D01*
X18969D01*
X16214Y-90551D02*
X15296D01*
X14837Y-90092D01*
Y-89174D01*
X15296Y-88714D01*
X16214D01*
X16673Y-89174D01*
Y-90092D01*
X16214Y-90551D01*
X12082Y-88714D02*
X13459D01*
X13918Y-89174D01*
Y-90092D01*
X13459Y-90551D01*
X12082D01*
X11163D02*
Y-87796D01*
Y-89633D02*
X9786Y-88714D01*
X11163Y-89633D02*
X9786Y-90551D01*
X5653Y-89174D02*
X3817D01*
X143Y-90551D02*
Y-87796D01*
X-1234D01*
X-1693Y-88255D01*
Y-89174D01*
X-1234Y-89633D01*
X143D01*
X-4448Y-88255D02*
X-3989Y-87796D01*
X-3071D01*
X-2612Y-88255D01*
Y-90092D01*
X-3071Y-90551D01*
X-3989D01*
X-4448Y-90092D01*
X-5367Y-87796D02*
Y-90551D01*
X-6744D01*
X-7203Y-90092D01*
Y-89633D01*
X-6744Y-89174D01*
X-5367D01*
X-6744D01*
X-7203Y-88714D01*
Y-88255D01*
X-6744Y-87796D01*
X-5367D01*
X-10877D02*
X-12713D01*
X-11795D01*
Y-90551D01*
X-15009Y-87796D02*
X-14091D01*
X-13632Y-88255D01*
Y-90092D01*
X-14091Y-90551D01*
X-15009D01*
X-15469Y-90092D01*
Y-88255D01*
X-15009Y-87796D01*
X-16387Y-90551D02*
Y-87796D01*
X-17764D01*
X-18224Y-88255D01*
Y-89174D01*
X-17764Y-89633D01*
X-16387D01*
D73*
X-73622Y122835D02*
D03*
X50394Y-130315D02*
D03*
D74*
X59055Y125984D02*
D03*
X-59055D02*
D03*
X0Y-118110D02*
D03*
X118110Y0D02*
D03*
X-118110D02*
D03*
D75*
X-95000Y110039D02*
D03*
X-85000D02*
D03*
X-75000D02*
D03*
X-65000D02*
D03*
X-55000D02*
D03*
X-45000D02*
D03*
X-35000D02*
D03*
X-25000D02*
D03*
X-15000D02*
D03*
X-5000D02*
D03*
X5000D02*
D03*
X15000D02*
D03*
X25000D02*
D03*
X35000D02*
D03*
X45000D02*
D03*
X55000D02*
D03*
X65000D02*
D03*
X75000D02*
D03*
X85000D02*
D03*
X95000D02*
D03*
Y-20039D02*
D03*
X85000D02*
D03*
X75000D02*
D03*
X65000D02*
D03*
X55000D02*
D03*
X45000D02*
D03*
X35000D02*
D03*
X25000D02*
D03*
X15000D02*
D03*
X5000D02*
D03*
X-5000D02*
D03*
X-15000D02*
D03*
X-25000D02*
D03*
X-35000D02*
D03*
X-45000D02*
D03*
X-55000D02*
D03*
X-65000D02*
D03*
X-75000D02*
D03*
X-85000D02*
D03*
D76*
X-95000D02*
D03*
D77*
X-78740Y45000D02*
D03*
X78740D02*
D03*
D78*
X-31496Y133465D02*
D03*
X0D02*
D03*
X31496D02*
D03*
D79*
X-125984Y-33858D02*
D03*
X-15614Y117066D02*
D03*
X-146457Y23228D02*
D03*
X-129134Y24409D02*
D03*
X-125197Y34252D02*
D03*
X130709Y39764D02*
D03*
X79921Y68898D02*
D03*
X-50000Y-88189D02*
D03*
X-83071Y-118504D02*
D03*
X43307Y-31496D02*
D03*
X-94095Y-106693D02*
D03*
X27953Y-56693D02*
D03*
X49606Y122047D02*
D03*
X16142Y116535D02*
D03*
X-125984Y44094D02*
D03*
X-103937Y-101575D02*
D03*
X-91339Y-111417D02*
D03*
X-87008Y-114173D02*
D03*
X-59449Y-70079D02*
D03*
X-15748Y-61417D02*
D03*
X70472Y-51575D02*
D03*
X96457Y-42520D02*
D03*
X113779Y89370D02*
D03*
D80*
X-126503Y-62473D02*
D03*
X-123719Y-65257D02*
D03*
X-120935Y-68041D02*
D03*
X-118151Y-70825D02*
D03*
X-115367Y-73609D02*
D03*
X-112583Y-76393D02*
D03*
X-109800Y-79177D02*
D03*
X-107016Y-81961D02*
D03*
X-104232Y-84745D02*
D03*
X-101448Y-87529D02*
D03*
X-98664Y-90312D02*
D03*
X-95880Y-93096D02*
D03*
X-93096Y-95880D02*
D03*
X-90312Y-98664D02*
D03*
X-87529Y-101448D02*
D03*
X-84745Y-104232D02*
D03*
X-81961Y-107016D02*
D03*
X-79177Y-109800D02*
D03*
X-76393Y-112583D02*
D03*
X-73609Y-115367D02*
D03*
X-70825Y-118151D02*
D03*
X-68041Y-120935D02*
D03*
X-65257Y-123719D02*
D03*
X-62473Y-126503D02*
D03*
D81*
X-128730Y-47162D02*
D03*
X-47162Y-128730D02*
D03*
M02*
