G04*
G04 #@! TF.GenerationSoftware,Altium Limited,CircuitStudio,1.5.2 (30)*
G04*
G04 Layer_Physical_Order=2*
G04 Layer_Color=16765976*
%FSLAX25Y25*%
%MOIN*%
G70*
G01*
G75*
%ADD27C,0.00787*%
%ADD35C,0.03150*%
%ADD36C,0.02756*%
G36*
X7500Y152666D02*
X14982Y152114D01*
X22428Y151196D01*
X29820Y149913D01*
X37140Y148270D01*
X44370Y146269D01*
X51494Y143915D01*
X58493Y141215D01*
X65352Y138175D01*
X72053Y134802D01*
X78581Y131104D01*
X84919Y127091D01*
X91053Y122771D01*
X96967Y118155D01*
X101119Y114574D01*
X100944Y114105D01*
X-100915Y114130D01*
X-101089Y114599D01*
X-96967Y118155D01*
X-91053Y122771D01*
X-84919Y127091D01*
X-78581Y131104D01*
X-72053Y134802D01*
X-65352Y138175D01*
X-58493Y141215D01*
X-51494Y143915D01*
X-44370Y146269D01*
X-37140Y148270D01*
X-29820Y149913D01*
X-22428Y151196D01*
X-14982Y152114D01*
X-7500Y152666D01*
X0Y152850D01*
X7500Y152666D01*
D02*
G37*
G36*
X-101900Y113715D02*
X-101503Y113584D01*
X-101491Y113575D01*
X-101483Y113563D01*
X-101365Y113484D01*
X-101250Y113401D01*
X-101235Y113397D01*
X-101223Y113389D01*
X-101083Y113361D01*
X-100945Y113328D01*
X-100930Y113331D01*
X-100915Y113328D01*
X-95726Y113327D01*
X-95693Y112827D01*
X-95745Y112820D01*
X-96439Y112533D01*
X-97036Y112075D01*
X-97493Y111479D01*
X-97781Y110784D01*
X-97879Y110039D01*
X-97781Y109294D01*
X-97493Y108600D01*
X-97036Y108004D01*
X-96439Y107546D01*
X-95745Y107258D01*
X-95000Y107160D01*
X-94255Y107258D01*
X-93560Y107546D01*
X-92964Y108004D01*
X-92507Y108600D01*
X-92219Y109294D01*
X-92121Y110039D01*
X-92219Y110784D01*
X-92507Y111479D01*
X-92964Y112075D01*
X-93560Y112533D01*
X-94255Y112820D01*
X-94305Y112827D01*
X-94272Y113327D01*
X-85736Y113326D01*
X-85703Y112826D01*
X-85745Y112820D01*
X-86440Y112533D01*
X-87036Y112075D01*
X-87493Y111479D01*
X-87781Y110784D01*
X-87879Y110039D01*
X-87781Y109294D01*
X-87493Y108600D01*
X-87036Y108004D01*
X-86440Y107546D01*
X-85745Y107258D01*
X-85000Y107160D01*
X-84255Y107258D01*
X-83561Y107546D01*
X-82964Y108004D01*
X-82507Y108600D01*
X-82219Y109294D01*
X-82121Y110039D01*
X-82219Y110784D01*
X-82507Y111479D01*
X-82964Y112075D01*
X-83561Y112533D01*
X-84255Y112820D01*
X-84296Y112826D01*
X-84263Y113326D01*
X-75745Y113324D01*
X-75713Y112824D01*
X-75745Y112820D01*
X-76439Y112533D01*
X-77036Y112075D01*
X-77493Y111479D01*
X-77781Y110784D01*
X-77879Y110039D01*
X-77781Y109294D01*
X-77493Y108600D01*
X-77036Y108004D01*
X-76439Y107546D01*
X-75745Y107258D01*
X-75000Y107160D01*
X-74255Y107258D01*
X-73561Y107546D01*
X-72964Y108004D01*
X-72507Y108600D01*
X-72219Y109294D01*
X-72121Y110039D01*
X-72219Y110784D01*
X-72507Y111479D01*
X-72964Y112075D01*
X-73561Y112533D01*
X-74255Y112820D01*
X-74286Y112824D01*
X-74253Y113324D01*
X-65755Y113323D01*
X-65722Y112823D01*
X-65745Y112820D01*
X-66439Y112533D01*
X-67036Y112075D01*
X-67493Y111479D01*
X-67781Y110784D01*
X-67879Y110039D01*
X-67781Y109294D01*
X-67493Y108600D01*
X-67036Y108004D01*
X-66439Y107546D01*
X-65745Y107258D01*
X-65000Y107160D01*
X-64255Y107258D01*
X-63560Y107546D01*
X-62964Y108004D01*
X-62507Y108600D01*
X-62219Y109294D01*
X-62121Y110039D01*
X-62219Y110784D01*
X-62507Y111479D01*
X-62964Y112075D01*
X-63560Y112533D01*
X-64255Y112820D01*
X-64277Y112823D01*
X-64244Y113323D01*
X-55764Y113322D01*
X-55732Y112822D01*
X-55745Y112820D01*
X-56440Y112533D01*
X-57036Y112075D01*
X-57493Y111479D01*
X-57781Y110784D01*
X-57879Y110039D01*
X-57781Y109294D01*
X-57493Y108600D01*
X-57036Y108004D01*
X-56440Y107546D01*
X-55745Y107258D01*
X-55000Y107160D01*
X-54255Y107258D01*
X-53561Y107546D01*
X-52964Y108004D01*
X-52507Y108600D01*
X-52219Y109294D01*
X-52121Y110039D01*
X-52219Y110784D01*
X-52507Y111479D01*
X-52964Y112075D01*
X-53561Y112533D01*
X-54255Y112820D01*
X-54267Y112822D01*
X-54234Y113322D01*
X-45774Y113321D01*
X-45741Y112821D01*
X-45745Y112820D01*
X-46439Y112533D01*
X-47036Y112075D01*
X-47493Y111479D01*
X-47781Y110784D01*
X-47879Y110039D01*
X-47781Y109294D01*
X-47493Y108600D01*
X-47036Y108004D01*
X-46439Y107546D01*
X-45745Y107258D01*
X-45000Y107160D01*
X-44255Y107258D01*
X-43560Y107546D01*
X-42964Y108004D01*
X-42507Y108600D01*
X-42219Y109294D01*
X-42121Y110039D01*
X-42219Y110784D01*
X-42507Y111479D01*
X-42964Y112075D01*
X-43560Y112533D01*
X-44255Y112820D01*
X-44258Y112821D01*
X-44225Y113321D01*
X-35783Y113320D01*
X-35745Y112820D01*
X-36439Y112533D01*
X-37036Y112075D01*
X-37493Y111479D01*
X-37781Y110784D01*
X-37879Y110039D01*
X-37781Y109294D01*
X-37493Y108600D01*
X-37036Y108004D01*
X-36439Y107546D01*
X-35745Y107258D01*
X-35000Y107160D01*
X-34255Y107258D01*
X-33560Y107546D01*
X-32964Y108004D01*
X-32507Y108600D01*
X-32219Y109294D01*
X-32121Y110039D01*
X-32219Y110784D01*
X-32507Y111479D01*
X-32964Y112075D01*
X-33560Y112533D01*
X-34255Y112820D01*
X-34215Y113319D01*
X-25793Y113318D01*
X-25745Y112820D01*
X-26439Y112533D01*
X-27036Y112075D01*
X-27493Y111479D01*
X-27781Y110784D01*
X-27879Y110039D01*
X-27781Y109294D01*
X-27493Y108600D01*
X-27036Y108004D01*
X-26439Y107546D01*
X-25745Y107258D01*
X-25000Y107160D01*
X-24255Y107258D01*
X-23561Y107546D01*
X-22964Y108004D01*
X-22507Y108600D01*
X-22219Y109294D01*
X-22121Y110039D01*
X-22219Y110784D01*
X-22507Y111479D01*
X-22964Y112075D01*
X-23561Y112533D01*
X-24255Y112820D01*
X-24206Y113318D01*
X-15802Y113317D01*
X-15745Y112820D01*
X-16440Y112533D01*
X-17036Y112075D01*
X-17493Y111479D01*
X-17781Y110784D01*
X-17879Y110039D01*
X-17781Y109294D01*
X-17493Y108600D01*
X-17036Y108004D01*
X-16440Y107546D01*
X-15745Y107258D01*
X-15000Y107160D01*
X-14255Y107258D01*
X-13561Y107546D01*
X-12964Y108004D01*
X-12507Y108600D01*
X-12219Y109294D01*
X-12121Y110039D01*
X-12219Y110784D01*
X-12507Y111479D01*
X-12964Y112075D01*
X-13561Y112533D01*
X-14255Y112820D01*
X-14196Y113317D01*
X-5811Y113316D01*
X-5745Y112820D01*
X-6440Y112533D01*
X-7036Y112075D01*
X-7493Y111479D01*
X-7781Y110784D01*
X-7879Y110039D01*
X-7781Y109294D01*
X-7493Y108600D01*
X-7036Y108004D01*
X-6440Y107546D01*
X-5745Y107258D01*
X-5000Y107160D01*
X-4255Y107258D01*
X-3560Y107546D01*
X-2964Y108004D01*
X-2507Y108600D01*
X-2219Y109294D01*
X-2121Y110039D01*
X-2219Y110784D01*
X-2507Y111479D01*
X-2964Y112075D01*
X-3560Y112533D01*
X-4255Y112820D01*
X-4189Y113316D01*
X4187Y113314D01*
X4255Y112820D01*
X3560Y112533D01*
X2964Y112075D01*
X2507Y111479D01*
X2219Y110784D01*
X2121Y110039D01*
X2219Y109294D01*
X2507Y108600D01*
X2964Y108004D01*
X3560Y107546D01*
X4255Y107258D01*
X5000Y107160D01*
X5745Y107258D01*
X6440Y107546D01*
X7036Y108004D01*
X7493Y108600D01*
X7781Y109294D01*
X7879Y110039D01*
X7781Y110784D01*
X7493Y111479D01*
X7036Y112075D01*
X6440Y112533D01*
X5745Y112820D01*
X5813Y113314D01*
X14185Y113313D01*
X14255Y112820D01*
X13561Y112533D01*
X12964Y112075D01*
X12507Y111479D01*
X12219Y110784D01*
X12121Y110039D01*
X12219Y109294D01*
X12507Y108600D01*
X12964Y108004D01*
X13561Y107546D01*
X14255Y107258D01*
X15000Y107160D01*
X15745Y107258D01*
X16440Y107546D01*
X17036Y108004D01*
X17493Y108600D01*
X17781Y109294D01*
X17879Y110039D01*
X17781Y110784D01*
X17493Y111479D01*
X17036Y112075D01*
X16440Y112533D01*
X15745Y112820D01*
X15815Y113313D01*
X24183Y113312D01*
X24255Y112820D01*
X23561Y112533D01*
X22964Y112075D01*
X22507Y111479D01*
X22219Y110784D01*
X22121Y110039D01*
X22219Y109294D01*
X22507Y108600D01*
X22964Y108004D01*
X23561Y107546D01*
X24255Y107258D01*
X25000Y107160D01*
X25745Y107258D01*
X26439Y107546D01*
X27036Y108004D01*
X27493Y108600D01*
X27781Y109294D01*
X27879Y110039D01*
X27781Y110784D01*
X27493Y111479D01*
X27036Y112075D01*
X26439Y112533D01*
X25745Y112820D01*
X25818Y113312D01*
X34181Y113311D01*
X34255Y112820D01*
X33560Y112533D01*
X32964Y112075D01*
X32507Y111479D01*
X32219Y110784D01*
X32121Y110039D01*
X32219Y109294D01*
X32507Y108600D01*
X32964Y108004D01*
X33560Y107546D01*
X34255Y107258D01*
X35000Y107160D01*
X35745Y107258D01*
X36439Y107546D01*
X37036Y108004D01*
X37493Y108600D01*
X37781Y109294D01*
X37879Y110039D01*
X37781Y110784D01*
X37493Y111479D01*
X37036Y112075D01*
X36439Y112533D01*
X35745Y112820D01*
X35820Y113311D01*
X44178Y113310D01*
X44255Y112820D01*
X43560Y112533D01*
X42964Y112075D01*
X42507Y111479D01*
X42219Y110784D01*
X42121Y110039D01*
X42219Y109294D01*
X42507Y108600D01*
X42964Y108004D01*
X43560Y107546D01*
X44255Y107258D01*
X45000Y107160D01*
X45745Y107258D01*
X46439Y107546D01*
X47036Y108004D01*
X47493Y108600D01*
X47781Y109294D01*
X47879Y110039D01*
X47781Y110784D01*
X47493Y111479D01*
X47036Y112075D01*
X46439Y112533D01*
X45745Y112820D01*
X45822Y113309D01*
X54176Y113308D01*
X54255Y112820D01*
X53561Y112533D01*
X52964Y112075D01*
X52507Y111479D01*
X52219Y110784D01*
X52121Y110039D01*
X52219Y109294D01*
X52507Y108600D01*
X52964Y108004D01*
X53561Y107546D01*
X54255Y107258D01*
X55000Y107160D01*
X55745Y107258D01*
X56440Y107546D01*
X57036Y108004D01*
X57493Y108600D01*
X57781Y109294D01*
X57879Y110039D01*
X57781Y110784D01*
X57493Y111479D01*
X57036Y112075D01*
X56440Y112533D01*
X55745Y112820D01*
X55824Y113308D01*
X64174Y113307D01*
X64255Y112820D01*
X63560Y112533D01*
X62964Y112075D01*
X62507Y111479D01*
X62219Y110784D01*
X62121Y110039D01*
X62219Y109294D01*
X62507Y108600D01*
X62964Y108004D01*
X63560Y107546D01*
X64255Y107258D01*
X65000Y107160D01*
X65745Y107258D01*
X66439Y107546D01*
X67036Y108004D01*
X67493Y108600D01*
X67781Y109294D01*
X67879Y110039D01*
X67781Y110784D01*
X67493Y111479D01*
X67036Y112075D01*
X66439Y112533D01*
X65745Y112820D01*
X65826Y113307D01*
X74172Y113306D01*
X74255Y112820D01*
X73561Y112533D01*
X72964Y112075D01*
X72507Y111479D01*
X72219Y110784D01*
X72121Y110039D01*
X72219Y109294D01*
X72507Y108600D01*
X72964Y108004D01*
X73561Y107546D01*
X74255Y107258D01*
X75000Y107160D01*
X75745Y107258D01*
X76439Y107546D01*
X77036Y108004D01*
X77493Y108600D01*
X77781Y109294D01*
X77879Y110039D01*
X77781Y110784D01*
X77493Y111479D01*
X77036Y112075D01*
X76439Y112533D01*
X75745Y112820D01*
X75828Y113305D01*
X84170Y113304D01*
X84255Y112820D01*
X83561Y112533D01*
X82964Y112075D01*
X82507Y111479D01*
X82219Y110784D01*
X82121Y110039D01*
X82219Y109294D01*
X82507Y108600D01*
X82964Y108004D01*
X83561Y107546D01*
X84255Y107258D01*
X85000Y107160D01*
X85745Y107258D01*
X86440Y107546D01*
X87036Y108004D01*
X87493Y108600D01*
X87781Y109294D01*
X87879Y110039D01*
X87781Y110784D01*
X87493Y111479D01*
X87036Y112075D01*
X86440Y112533D01*
X85745Y112820D01*
X85831Y113304D01*
X94168Y113303D01*
X94255Y112820D01*
X93560Y112533D01*
X92964Y112075D01*
X92507Y111479D01*
X92219Y110784D01*
X92121Y110039D01*
X92219Y109294D01*
X92507Y108600D01*
X92964Y108004D01*
X93560Y107546D01*
X94255Y107258D01*
X95000Y107160D01*
X95745Y107258D01*
X96439Y107546D01*
X97036Y108004D01*
X97493Y108600D01*
X97781Y109294D01*
X97879Y110039D01*
X97781Y110784D01*
X97493Y111479D01*
X97036Y112075D01*
X96439Y112533D01*
X95745Y112820D01*
X95833Y113303D01*
X100944Y113302D01*
X100959Y113305D01*
X100974Y113303D01*
X101112Y113336D01*
X101252Y113363D01*
X101264Y113372D01*
X101279Y113375D01*
X101394Y113458D01*
X101512Y113537D01*
X101521Y113550D01*
X101533Y113559D01*
X101930Y113689D01*
X102088Y113694D01*
X102160Y113676D01*
X102648Y113255D01*
X108081Y108081D01*
X113255Y102648D01*
X118155Y96967D01*
X122771Y91053D01*
X127091Y84919D01*
X131104Y78581D01*
X134802Y72053D01*
X138175Y65352D01*
X141215Y58493D01*
X143915Y51494D01*
X146269Y44370D01*
X148270Y37140D01*
X149913Y29820D01*
X151196Y22428D01*
X152114Y14982D01*
X152666Y7500D01*
X152850Y0D01*
X152666Y-7500D01*
X152114Y-14982D01*
X151196Y-22428D01*
X149913Y-29820D01*
X148270Y-37140D01*
X146269Y-44370D01*
X143915Y-51494D01*
X141215Y-58493D01*
X138175Y-65352D01*
X134802Y-72053D01*
X131104Y-78581D01*
X127091Y-84919D01*
X122771Y-91053D01*
X118155Y-96967D01*
X113255Y-102648D01*
X108081Y-108081D01*
X102648Y-113255D01*
X96967Y-118155D01*
X91053Y-122771D01*
X84919Y-127091D01*
X78581Y-131104D01*
X72053Y-134802D01*
X65352Y-138175D01*
X58493Y-141215D01*
X51494Y-143915D01*
X44370Y-146269D01*
X37140Y-148270D01*
X29820Y-149913D01*
X22428Y-151196D01*
X14982Y-152114D01*
X7500Y-152666D01*
X0Y-152850D01*
X-7500Y-152666D01*
X-14982Y-152114D01*
X-22428Y-151196D01*
X-29820Y-149913D01*
X-37140Y-148270D01*
X-44370Y-146269D01*
X-51494Y-143915D01*
X-58493Y-141215D01*
X-65352Y-138175D01*
X-72053Y-134802D01*
X-78581Y-131104D01*
X-84919Y-127091D01*
X-91053Y-122771D01*
X-96967Y-118155D01*
X-102648Y-113255D01*
X-108081Y-108081D01*
X-113255Y-102648D01*
X-118155Y-96967D01*
X-122771Y-91053D01*
X-127091Y-84919D01*
X-131104Y-78581D01*
X-134802Y-72053D01*
X-138175Y-65352D01*
X-141215Y-58493D01*
X-143915Y-51494D01*
X-146269Y-44370D01*
X-148270Y-37140D01*
X-149913Y-29820D01*
X-151196Y-22428D01*
X-152114Y-14982D01*
X-152666Y-7500D01*
X-152850Y0D01*
X-152666Y7500D01*
X-152114Y14982D01*
X-151196Y22428D01*
X-149913Y29820D01*
X-148270Y37140D01*
X-146269Y44370D01*
X-143915Y51494D01*
X-141215Y58493D01*
X-138175Y65352D01*
X-134802Y72053D01*
X-131104Y78581D01*
X-127091Y84919D01*
X-122771Y91053D01*
X-118155Y96967D01*
X-113255Y102648D01*
X-108081Y108081D01*
X-102648Y113255D01*
X-102131Y113701D01*
X-102059Y113719D01*
X-101900Y113715D01*
D02*
G37*
%LPC*%
G36*
X-5000Y-17160D02*
X-5745Y-17258D01*
X-6440Y-17546D01*
X-7036Y-18004D01*
X-7493Y-18600D01*
X-7781Y-19294D01*
X-7879Y-20039D01*
X-7781Y-20785D01*
X-7493Y-21479D01*
X-7036Y-22075D01*
X-6440Y-22533D01*
X-5745Y-22820D01*
X-5000Y-22918D01*
X-4255Y-22820D01*
X-3560Y-22533D01*
X-2964Y-22075D01*
X-2507Y-21479D01*
X-2219Y-20785D01*
X-2121Y-20039D01*
X-2219Y-19294D01*
X-2507Y-18600D01*
X-2964Y-18004D01*
X-3560Y-17546D01*
X-4255Y-17258D01*
X-5000Y-17160D01*
D02*
G37*
G36*
X-15000D02*
X-15745Y-17258D01*
X-16440Y-17546D01*
X-17036Y-18004D01*
X-17493Y-18600D01*
X-17781Y-19294D01*
X-17879Y-20039D01*
X-17781Y-20785D01*
X-17493Y-21479D01*
X-17036Y-22075D01*
X-16440Y-22533D01*
X-15745Y-22820D01*
X-15000Y-22918D01*
X-14255Y-22820D01*
X-13561Y-22533D01*
X-12964Y-22075D01*
X-12507Y-21479D01*
X-12219Y-20785D01*
X-12121Y-20039D01*
X-12219Y-19294D01*
X-12507Y-18600D01*
X-12964Y-18004D01*
X-13561Y-17546D01*
X-14255Y-17258D01*
X-15000Y-17160D01*
D02*
G37*
G36*
X5000D02*
X4255Y-17258D01*
X3560Y-17546D01*
X2964Y-18004D01*
X2507Y-18600D01*
X2219Y-19294D01*
X2121Y-20039D01*
X2219Y-20785D01*
X2507Y-21479D01*
X2964Y-22075D01*
X3560Y-22533D01*
X4255Y-22820D01*
X5000Y-22918D01*
X5745Y-22820D01*
X6440Y-22533D01*
X7036Y-22075D01*
X7493Y-21479D01*
X7781Y-20785D01*
X7879Y-20039D01*
X7781Y-19294D01*
X7493Y-18600D01*
X7036Y-18004D01*
X6440Y-17546D01*
X5745Y-17258D01*
X5000Y-17160D01*
D02*
G37*
G36*
X15000D02*
X14255Y-17258D01*
X13561Y-17546D01*
X12964Y-18004D01*
X12507Y-18600D01*
X12219Y-19294D01*
X12121Y-20039D01*
X12219Y-20785D01*
X12507Y-21479D01*
X12964Y-22075D01*
X13561Y-22533D01*
X14255Y-22820D01*
X15000Y-22918D01*
X15745Y-22820D01*
X16440Y-22533D01*
X17036Y-22075D01*
X17493Y-21479D01*
X17781Y-20785D01*
X17879Y-20039D01*
X17781Y-19294D01*
X17493Y-18600D01*
X17036Y-18004D01*
X16440Y-17546D01*
X15745Y-17258D01*
X15000Y-17160D01*
D02*
G37*
G36*
X25000D02*
X24255Y-17258D01*
X23561Y-17546D01*
X22964Y-18004D01*
X22507Y-18600D01*
X22219Y-19294D01*
X22121Y-20039D01*
X22219Y-20785D01*
X22507Y-21479D01*
X22964Y-22075D01*
X23561Y-22533D01*
X24255Y-22820D01*
X25000Y-22918D01*
X25745Y-22820D01*
X26439Y-22533D01*
X27036Y-22075D01*
X27493Y-21479D01*
X27781Y-20785D01*
X27879Y-20039D01*
X27781Y-19294D01*
X27493Y-18600D01*
X27036Y-18004D01*
X26439Y-17546D01*
X25745Y-17258D01*
X25000Y-17160D01*
D02*
G37*
G36*
X-25000D02*
X-25745Y-17258D01*
X-26439Y-17546D01*
X-27036Y-18004D01*
X-27493Y-18600D01*
X-27781Y-19294D01*
X-27879Y-20039D01*
X-27781Y-20785D01*
X-27493Y-21479D01*
X-27036Y-22075D01*
X-26439Y-22533D01*
X-25745Y-22820D01*
X-25000Y-22918D01*
X-24255Y-22820D01*
X-23561Y-22533D01*
X-22964Y-22075D01*
X-22507Y-21479D01*
X-22219Y-20785D01*
X-22121Y-20039D01*
X-22219Y-19294D01*
X-22507Y-18600D01*
X-22964Y-18004D01*
X-23561Y-17546D01*
X-24255Y-17258D01*
X-25000Y-17160D01*
D02*
G37*
G36*
X-65000D02*
X-65745Y-17258D01*
X-66439Y-17546D01*
X-67036Y-18004D01*
X-67493Y-18600D01*
X-67781Y-19294D01*
X-67879Y-20039D01*
X-67781Y-20785D01*
X-67493Y-21479D01*
X-67036Y-22075D01*
X-66439Y-22533D01*
X-65745Y-22820D01*
X-65000Y-22918D01*
X-64255Y-22820D01*
X-63560Y-22533D01*
X-62964Y-22075D01*
X-62507Y-21479D01*
X-62219Y-20785D01*
X-62121Y-20039D01*
X-62219Y-19294D01*
X-62507Y-18600D01*
X-62964Y-18004D01*
X-63560Y-17546D01*
X-64255Y-17258D01*
X-65000Y-17160D01*
D02*
G37*
G36*
X-75000D02*
X-75745Y-17258D01*
X-76439Y-17546D01*
X-77036Y-18004D01*
X-77493Y-18600D01*
X-77781Y-19294D01*
X-77879Y-20039D01*
X-77781Y-20785D01*
X-77493Y-21479D01*
X-77036Y-22075D01*
X-76439Y-22533D01*
X-75745Y-22820D01*
X-75000Y-22918D01*
X-74255Y-22820D01*
X-73561Y-22533D01*
X-72964Y-22075D01*
X-72507Y-21479D01*
X-72219Y-20785D01*
X-72121Y-20039D01*
X-72219Y-19294D01*
X-72507Y-18600D01*
X-72964Y-18004D01*
X-73561Y-17546D01*
X-74255Y-17258D01*
X-75000Y-17160D01*
D02*
G37*
G36*
X-85000D02*
X-85745Y-17258D01*
X-86440Y-17546D01*
X-87036Y-18004D01*
X-87493Y-18600D01*
X-87781Y-19294D01*
X-87879Y-20039D01*
X-87781Y-20785D01*
X-87493Y-21479D01*
X-87036Y-22075D01*
X-86440Y-22533D01*
X-85745Y-22820D01*
X-85000Y-22918D01*
X-84255Y-22820D01*
X-83561Y-22533D01*
X-82964Y-22075D01*
X-82507Y-21479D01*
X-82219Y-20785D01*
X-82121Y-20039D01*
X-82219Y-19294D01*
X-82507Y-18600D01*
X-82964Y-18004D01*
X-83561Y-17546D01*
X-84255Y-17258D01*
X-85000Y-17160D01*
D02*
G37*
G36*
X-35000D02*
X-35745Y-17258D01*
X-36439Y-17546D01*
X-37036Y-18004D01*
X-37493Y-18600D01*
X-37781Y-19294D01*
X-37879Y-20039D01*
X-37781Y-20785D01*
X-37493Y-21479D01*
X-37036Y-22075D01*
X-36439Y-22533D01*
X-35745Y-22820D01*
X-35000Y-22918D01*
X-34255Y-22820D01*
X-33560Y-22533D01*
X-32964Y-22075D01*
X-32507Y-21479D01*
X-32219Y-20785D01*
X-32121Y-20039D01*
X-32219Y-19294D01*
X-32507Y-18600D01*
X-32964Y-18004D01*
X-33560Y-17546D01*
X-34255Y-17258D01*
X-35000Y-17160D01*
D02*
G37*
G36*
X-45000D02*
X-45745Y-17258D01*
X-46439Y-17546D01*
X-47036Y-18004D01*
X-47493Y-18600D01*
X-47781Y-19294D01*
X-47879Y-20039D01*
X-47781Y-20785D01*
X-47493Y-21479D01*
X-47036Y-22075D01*
X-46439Y-22533D01*
X-45745Y-22820D01*
X-45000Y-22918D01*
X-44255Y-22820D01*
X-43560Y-22533D01*
X-42964Y-22075D01*
X-42507Y-21479D01*
X-42219Y-20785D01*
X-42121Y-20039D01*
X-42219Y-19294D01*
X-42507Y-18600D01*
X-42964Y-18004D01*
X-43560Y-17546D01*
X-44255Y-17258D01*
X-45000Y-17160D01*
D02*
G37*
G36*
X-55000D02*
X-55745Y-17258D01*
X-56440Y-17546D01*
X-57036Y-18004D01*
X-57493Y-18600D01*
X-57781Y-19294D01*
X-57879Y-20039D01*
X-57781Y-20785D01*
X-57493Y-21479D01*
X-57036Y-22075D01*
X-56440Y-22533D01*
X-55745Y-22820D01*
X-55000Y-22918D01*
X-54255Y-22820D01*
X-53561Y-22533D01*
X-52964Y-22075D01*
X-52507Y-21479D01*
X-52219Y-20785D01*
X-52121Y-20039D01*
X-52219Y-19294D01*
X-52507Y-18600D01*
X-52964Y-18004D01*
X-53561Y-17546D01*
X-54255Y-17258D01*
X-55000Y-17160D01*
D02*
G37*
G36*
X35000D02*
X34255Y-17258D01*
X33560Y-17546D01*
X32964Y-18004D01*
X32507Y-18600D01*
X32219Y-19294D01*
X32121Y-20039D01*
X32219Y-20785D01*
X32507Y-21479D01*
X32964Y-22075D01*
X33560Y-22533D01*
X34255Y-22820D01*
X35000Y-22918D01*
X35745Y-22820D01*
X36439Y-22533D01*
X37036Y-22075D01*
X37493Y-21479D01*
X37781Y-20785D01*
X37879Y-20039D01*
X37781Y-19294D01*
X37493Y-18600D01*
X37036Y-18004D01*
X36439Y-17546D01*
X35745Y-17258D01*
X35000Y-17160D01*
D02*
G37*
G36*
X94882Y-10985D02*
X94114Y-11138D01*
X93463Y-11573D01*
X93028Y-12224D01*
X92875Y-12992D01*
X93028Y-13760D01*
X93463Y-14411D01*
X94114Y-14846D01*
X94882Y-14999D01*
X95650Y-14846D01*
X96301Y-14411D01*
X96736Y-13760D01*
X96889Y-12992D01*
X96736Y-12224D01*
X96301Y-11573D01*
X95650Y-11138D01*
X94882Y-10985D01*
D02*
G37*
G36*
X140945Y-18272D02*
X140254Y-18410D01*
X139668Y-18801D01*
X139466D01*
X138880Y-18410D01*
X138189Y-18272D01*
X137498Y-18410D01*
X137188Y-18617D01*
X136811Y-18763D01*
X136434Y-18617D01*
X136124Y-18410D01*
X135433Y-18272D01*
X134742Y-18410D01*
X134156Y-18801D01*
X133954D01*
X133368Y-18410D01*
X132677Y-18272D01*
X131986Y-18410D01*
X131676Y-18617D01*
X131299Y-18763D01*
X130922Y-18617D01*
X130613Y-18410D01*
X129921Y-18272D01*
X129230Y-18410D01*
X128644Y-18801D01*
X128252Y-19387D01*
X128115Y-20079D01*
X128252Y-20770D01*
X128644Y-21356D01*
X128715Y-21404D01*
Y-21904D01*
X128644Y-21951D01*
X128252Y-22537D01*
X128115Y-23228D01*
X128252Y-23920D01*
X128644Y-24506D01*
X128715Y-24553D01*
Y-25053D01*
X128644Y-25101D01*
X128252Y-25687D01*
X128115Y-26378D01*
X128252Y-27069D01*
X128644Y-27655D01*
X129230Y-28047D01*
X129921Y-28184D01*
X130613Y-28047D01*
X130922Y-27840D01*
X131400Y-27655D01*
X131986Y-28047D01*
X132677Y-28184D01*
X133368Y-28047D01*
X133678Y-27840D01*
X134055Y-27694D01*
X134432Y-27840D01*
X134742Y-28047D01*
X135433Y-28184D01*
X136124Y-28047D01*
X136710Y-27655D01*
X136912D01*
X137498Y-28047D01*
X138189Y-28184D01*
X138880Y-28047D01*
X139190Y-27840D01*
X139567Y-27694D01*
X139944Y-27840D01*
X140254Y-28047D01*
X140945Y-28184D01*
X141636Y-28047D01*
X142222Y-27655D01*
X142614Y-27069D01*
X142751Y-26378D01*
X142614Y-25687D01*
X142222Y-25101D01*
X142151Y-25053D01*
Y-24553D01*
X142222Y-24506D01*
X142614Y-23920D01*
X142751Y-23228D01*
X142614Y-22537D01*
X142222Y-21951D01*
X142151Y-21904D01*
Y-21404D01*
X142222Y-21356D01*
X142614Y-20770D01*
X142751Y-20079D01*
X142614Y-19387D01*
X142222Y-18801D01*
X141636Y-18410D01*
X140945Y-18272D01*
D02*
G37*
G36*
X-92146Y-17185D02*
X-97854D01*
Y-22894D01*
X-92146D01*
Y-17185D01*
D02*
G37*
G36*
X-118110Y6725D02*
X-119422Y6596D01*
X-120684Y6213D01*
X-121847Y5592D01*
X-122866Y4755D01*
X-123702Y3736D01*
X-124324Y2574D01*
X-124706Y1312D01*
X-124836Y0D01*
X-124706Y-1312D01*
X-124324Y-2574D01*
X-123702Y-3736D01*
X-122866Y-4755D01*
X-121847Y-5592D01*
X-120684Y-6213D01*
X-119422Y-6596D01*
X-118110Y-6725D01*
X-116798Y-6596D01*
X-115537Y-6213D01*
X-114374Y-5592D01*
X-113355Y-4755D01*
X-112518Y-3736D01*
X-111897Y-2574D01*
X-111514Y-1312D01*
X-111385Y0D01*
X-111514Y1312D01*
X-111897Y2574D01*
X-112518Y3736D01*
X-113355Y4755D01*
X-114374Y5592D01*
X-115537Y6213D01*
X-116798Y6596D01*
X-118110Y6725D01*
D02*
G37*
G36*
X116929Y-9410D02*
X116161Y-9563D01*
X115510Y-9998D01*
X115075Y-10649D01*
X114922Y-11417D01*
X115075Y-12185D01*
X115510Y-12836D01*
X116161Y-13272D01*
X116929Y-13424D01*
X117697Y-13272D01*
X118348Y-12836D01*
X118783Y-12185D01*
X118936Y-11417D01*
X118783Y-10649D01*
X118348Y-9998D01*
X117697Y-9563D01*
X116929Y-9410D01*
D02*
G37*
G36*
X110236D02*
X109468Y-9563D01*
X108817Y-9998D01*
X108382Y-10649D01*
X108229Y-11417D01*
X108382Y-12185D01*
X108817Y-12836D01*
X109468Y-13272D01*
X110236Y-13424D01*
X111004Y-13272D01*
X111655Y-12836D01*
X112091Y-12185D01*
X112243Y-11417D01*
X112091Y-10649D01*
X111655Y-9998D01*
X111004Y-9563D01*
X110236Y-9410D01*
D02*
G37*
G36*
X65000Y-17160D02*
X64255Y-17258D01*
X63560Y-17546D01*
X62964Y-18004D01*
X62507Y-18600D01*
X62219Y-19294D01*
X62121Y-20039D01*
X62219Y-20785D01*
X62507Y-21479D01*
X62964Y-22075D01*
X63560Y-22533D01*
X64255Y-22820D01*
X65000Y-22918D01*
X65745Y-22820D01*
X66439Y-22533D01*
X67036Y-22075D01*
X67493Y-21479D01*
X67781Y-20785D01*
X67879Y-20039D01*
X67781Y-19294D01*
X67493Y-18600D01*
X67036Y-18004D01*
X66439Y-17546D01*
X65745Y-17258D01*
X65000Y-17160D01*
D02*
G37*
G36*
X55000D02*
X54255Y-17258D01*
X53561Y-17546D01*
X52964Y-18004D01*
X52507Y-18600D01*
X52219Y-19294D01*
X52121Y-20039D01*
X52219Y-20785D01*
X52507Y-21479D01*
X52964Y-22075D01*
X53561Y-22533D01*
X54255Y-22820D01*
X55000Y-22918D01*
X55745Y-22820D01*
X56440Y-22533D01*
X57036Y-22075D01*
X57493Y-21479D01*
X57781Y-20785D01*
X57879Y-20039D01*
X57781Y-19294D01*
X57493Y-18600D01*
X57036Y-18004D01*
X56440Y-17546D01*
X55745Y-17258D01*
X55000Y-17160D01*
D02*
G37*
G36*
X45000D02*
X44255Y-17258D01*
X43560Y-17546D01*
X42964Y-18004D01*
X42507Y-18600D01*
X42219Y-19294D01*
X42121Y-20039D01*
X42219Y-20785D01*
X42507Y-21479D01*
X42964Y-22075D01*
X43560Y-22533D01*
X44255Y-22820D01*
X45000Y-22918D01*
X45745Y-22820D01*
X46439Y-22533D01*
X47036Y-22075D01*
X47493Y-21479D01*
X47781Y-20785D01*
X47879Y-20039D01*
X47781Y-19294D01*
X47493Y-18600D01*
X47036Y-18004D01*
X46439Y-17546D01*
X45745Y-17258D01*
X45000Y-17160D01*
D02*
G37*
G36*
X95000D02*
X94255Y-17258D01*
X93560Y-17546D01*
X92964Y-18004D01*
X92507Y-18600D01*
X92219Y-19294D01*
X92121Y-20039D01*
X92219Y-20785D01*
X92507Y-21479D01*
X92964Y-22075D01*
X93560Y-22533D01*
X94255Y-22820D01*
X95000Y-22918D01*
X95745Y-22820D01*
X96439Y-22533D01*
X97036Y-22075D01*
X97493Y-21479D01*
X97781Y-20785D01*
X97879Y-20039D01*
X97781Y-19294D01*
X97493Y-18600D01*
X97036Y-18004D01*
X96439Y-17546D01*
X95745Y-17258D01*
X95000Y-17160D01*
D02*
G37*
G36*
X85000D02*
X84255Y-17258D01*
X83561Y-17546D01*
X82964Y-18004D01*
X82507Y-18600D01*
X82219Y-19294D01*
X82121Y-20039D01*
X82219Y-20785D01*
X82507Y-21479D01*
X82964Y-22075D01*
X83561Y-22533D01*
X84255Y-22820D01*
X85000Y-22918D01*
X85745Y-22820D01*
X86440Y-22533D01*
X87036Y-22075D01*
X87493Y-21479D01*
X87781Y-20785D01*
X87879Y-20039D01*
X87781Y-19294D01*
X87493Y-18600D01*
X87036Y-18004D01*
X86440Y-17546D01*
X85745Y-17258D01*
X85000Y-17160D01*
D02*
G37*
G36*
X75000D02*
X74255Y-17258D01*
X73561Y-17546D01*
X72964Y-18004D01*
X72507Y-18600D01*
X72219Y-19294D01*
X72121Y-20039D01*
X72219Y-20785D01*
X72507Y-21479D01*
X72964Y-22075D01*
X73561Y-22533D01*
X74255Y-22820D01*
X75000Y-22918D01*
X75745Y-22820D01*
X76439Y-22533D01*
X77036Y-22075D01*
X77493Y-21479D01*
X77781Y-20785D01*
X77879Y-20039D01*
X77781Y-19294D01*
X77493Y-18600D01*
X77036Y-18004D01*
X76439Y-17546D01*
X75745Y-17258D01*
X75000Y-17160D01*
D02*
G37*
G36*
X-68504Y-75158D02*
X-69272Y-75311D01*
X-69923Y-75746D01*
X-70358Y-76397D01*
X-70511Y-77165D01*
X-70358Y-77933D01*
X-69923Y-78585D01*
X-69272Y-79020D01*
X-68504Y-79172D01*
X-67736Y-79020D01*
X-67085Y-78585D01*
X-66650Y-77933D01*
X-66497Y-77165D01*
X-66650Y-76397D01*
X-67085Y-75746D01*
X-67736Y-75311D01*
X-68504Y-75158D01*
D02*
G37*
G36*
X-15748Y-75552D02*
X-16516Y-75705D01*
X-17167Y-76140D01*
X-17602Y-76791D01*
X-17755Y-77559D01*
X-17602Y-78327D01*
X-17167Y-78978D01*
X-16516Y-79413D01*
X-15748Y-79566D01*
X-14980Y-79413D01*
X-14329Y-78978D01*
X-13894Y-78327D01*
X-13741Y-77559D01*
X-13894Y-76791D01*
X-14329Y-76140D01*
X-14980Y-75705D01*
X-15748Y-75552D01*
D02*
G37*
G36*
X-52362Y-81458D02*
X-53130Y-81610D01*
X-53781Y-82045D01*
X-54216Y-82696D01*
X-54369Y-83465D01*
X-54216Y-84233D01*
X-53781Y-84884D01*
X-53130Y-85319D01*
X-52362Y-85472D01*
X-51594Y-85319D01*
X-50943Y-84884D01*
X-50508Y-84233D01*
X-50355Y-83465D01*
X-50508Y-82696D01*
X-50943Y-82045D01*
X-51594Y-81610D01*
X-52362Y-81458D01*
D02*
G37*
G36*
X105531Y-69666D02*
X104763Y-69819D01*
X104112Y-70254D01*
X103677Y-70905D01*
X103524Y-71673D01*
X103677Y-72441D01*
X104112Y-73092D01*
X104763Y-73527D01*
X105531Y-73680D01*
X106299Y-73527D01*
X106950Y-73092D01*
X107385Y-72441D01*
X107538Y-71673D01*
X107385Y-70905D01*
X106950Y-70254D01*
X106299Y-69819D01*
X105531Y-69666D01*
D02*
G37*
G36*
X70866Y-72796D02*
X70098Y-72949D01*
X69447Y-73384D01*
X69012Y-74035D01*
X68859Y-74803D01*
X69012Y-75571D01*
X69447Y-76222D01*
X70098Y-76657D01*
X70866Y-76810D01*
X71634Y-76657D01*
X72285Y-76222D01*
X72720Y-75571D01*
X72873Y-74803D01*
X72720Y-74035D01*
X72285Y-73384D01*
X71634Y-72949D01*
X70866Y-72796D01*
D02*
G37*
G36*
X27559Y-74765D02*
X26791Y-74917D01*
X26140Y-75352D01*
X25705Y-76004D01*
X25552Y-76772D01*
X25705Y-77540D01*
X26140Y-78191D01*
X26791Y-78626D01*
X27559Y-78779D01*
X28327Y-78626D01*
X28978Y-78191D01*
X29413Y-77540D01*
X29566Y-76772D01*
X29413Y-76004D01*
X28978Y-75352D01*
X28327Y-74917D01*
X27559Y-74765D01*
D02*
G37*
G36*
X-99606Y-106261D02*
X-100374Y-106413D01*
X-101025Y-106849D01*
X-101461Y-107500D01*
X-101613Y-108268D01*
X-101461Y-109036D01*
X-101025Y-109687D01*
X-100374Y-110122D01*
X-99606Y-110275D01*
X-98838Y-110122D01*
X-98187Y-109687D01*
X-97752Y-109036D01*
X-97599Y-108268D01*
X-97752Y-107500D01*
X-98187Y-106849D01*
X-98838Y-106413D01*
X-99606Y-106261D01*
D02*
G37*
G36*
X0Y-111385D02*
X-1312Y-111514D01*
X-2574Y-111897D01*
X-3736Y-112518D01*
X-4755Y-113355D01*
X-5592Y-114374D01*
X-6213Y-115537D01*
X-6596Y-116798D01*
X-6725Y-118110D01*
X-6596Y-119422D01*
X-6213Y-120684D01*
X-5592Y-121847D01*
X-4755Y-122866D01*
X-3736Y-123702D01*
X-2574Y-124324D01*
X-1312Y-124706D01*
X0Y-124836D01*
X1312Y-124706D01*
X2574Y-124324D01*
X3736Y-123702D01*
X4755Y-122866D01*
X5592Y-121847D01*
X6213Y-120684D01*
X6596Y-119422D01*
X6725Y-118110D01*
X6596Y-116798D01*
X6213Y-115537D01*
X5592Y-114374D01*
X4755Y-113355D01*
X3736Y-112518D01*
X2574Y-111897D01*
X1312Y-111514D01*
X0Y-111385D01*
D02*
G37*
G36*
X50394Y-123985D02*
X49159Y-124107D01*
X47971Y-124467D01*
X46877Y-125052D01*
X45918Y-125839D01*
X45131Y-126798D01*
X44546Y-127893D01*
X44186Y-129080D01*
X44064Y-130315D01*
X44186Y-131550D01*
X44546Y-132737D01*
X45131Y-133832D01*
X45918Y-134791D01*
X46877Y-135578D01*
X47971Y-136163D01*
X49159Y-136523D01*
X50394Y-136645D01*
X51629Y-136523D01*
X52816Y-136163D01*
X53910Y-135578D01*
X54870Y-134791D01*
X55657Y-133832D01*
X56242Y-132737D01*
X56602Y-131550D01*
X56723Y-130315D01*
X56602Y-129080D01*
X56242Y-127893D01*
X55657Y-126798D01*
X54870Y-125839D01*
X53910Y-125052D01*
X52816Y-124467D01*
X51629Y-124107D01*
X50394Y-123985D01*
D02*
G37*
G36*
X-80315Y-92087D02*
X-81083Y-92240D01*
X-81734Y-92675D01*
X-82169Y-93326D01*
X-82322Y-94095D01*
X-82169Y-94863D01*
X-81734Y-95514D01*
X-81083Y-95949D01*
X-80315Y-96102D01*
X-79547Y-95949D01*
X-78896Y-95514D01*
X-78461Y-94863D01*
X-78308Y-94095D01*
X-78461Y-93326D01*
X-78896Y-92675D01*
X-79547Y-92240D01*
X-80315Y-92087D01*
D02*
G37*
G36*
X-64961Y-93662D02*
X-65729Y-93815D01*
X-66380Y-94250D01*
X-66815Y-94901D01*
X-66968Y-95669D01*
X-66815Y-96437D01*
X-66380Y-97088D01*
X-65729Y-97524D01*
X-64961Y-97676D01*
X-64193Y-97524D01*
X-63541Y-97088D01*
X-63106Y-96437D01*
X-62954Y-95669D01*
X-63106Y-94901D01*
X-63541Y-94250D01*
X-64193Y-93815D01*
X-64961Y-93662D01*
D02*
G37*
G36*
X-76772Y-96024D02*
X-77540Y-96177D01*
X-78191Y-96612D01*
X-78626Y-97263D01*
X-78779Y-98032D01*
X-78626Y-98800D01*
X-78191Y-99451D01*
X-77540Y-99886D01*
X-76772Y-100039D01*
X-76004Y-99886D01*
X-75352Y-99451D01*
X-74917Y-98800D01*
X-74765Y-98032D01*
X-74917Y-97263D01*
X-75352Y-96612D01*
X-76004Y-96177D01*
X-76772Y-96024D01*
D02*
G37*
G36*
X-69685Y-68465D02*
X-70453Y-68618D01*
X-71104Y-69053D01*
X-71539Y-69704D01*
X-71692Y-70472D01*
X-71539Y-71241D01*
X-71104Y-71892D01*
X-70453Y-72327D01*
X-69685Y-72479D01*
X-68917Y-72327D01*
X-68266Y-71892D01*
X-67831Y-71241D01*
X-67678Y-70472D01*
X-67831Y-69704D01*
X-68266Y-69053D01*
X-68917Y-68618D01*
X-69685Y-68465D01*
D02*
G37*
G36*
X-78740Y-27520D02*
X-79508Y-27673D01*
X-80159Y-28108D01*
X-80594Y-28760D01*
X-80747Y-29528D01*
X-80594Y-30296D01*
X-80159Y-30947D01*
X-79508Y-31382D01*
X-78740Y-31535D01*
X-77972Y-31382D01*
X-77321Y-30947D01*
X-76886Y-30296D01*
X-76733Y-29528D01*
X-76886Y-28760D01*
X-77321Y-28108D01*
X-77972Y-27673D01*
X-78740Y-27520D01*
D02*
G37*
G36*
X105512Y-42875D02*
X104744Y-43028D01*
X104093Y-43463D01*
X103657Y-44114D01*
X103505Y-44882D01*
X103657Y-45650D01*
X104093Y-46301D01*
X104744Y-46736D01*
X105512Y-46889D01*
X106280Y-46736D01*
X106931Y-46301D01*
X107366Y-45650D01*
X107519Y-44882D01*
X107366Y-44114D01*
X106931Y-43463D01*
X106280Y-43028D01*
X105512Y-42875D01*
D02*
G37*
G36*
X101575Y-46024D02*
X100807Y-46177D01*
X100156Y-46612D01*
X99721Y-47263D01*
X99568Y-48031D01*
X99721Y-48800D01*
X100156Y-49451D01*
X100807Y-49886D01*
X101575Y-50039D01*
X102343Y-49886D01*
X102994Y-49451D01*
X103429Y-48800D01*
X103582Y-48031D01*
X103429Y-47263D01*
X102994Y-46612D01*
X102343Y-46177D01*
X101575Y-46024D01*
D02*
G37*
G36*
X78740Y-27520D02*
X77972Y-27673D01*
X77321Y-28108D01*
X76886Y-28760D01*
X76733Y-29528D01*
X76886Y-30296D01*
X77321Y-30947D01*
X77972Y-31382D01*
X78740Y-31535D01*
X79508Y-31382D01*
X80159Y-30947D01*
X80594Y-30296D01*
X80747Y-29528D01*
X80594Y-28760D01*
X80159Y-28108D01*
X79508Y-27673D01*
X78740Y-27520D01*
D02*
G37*
G36*
X29528D02*
X28760Y-27673D01*
X28108Y-28108D01*
X27673Y-28760D01*
X27520Y-29528D01*
X27673Y-30296D01*
X28108Y-30947D01*
X28760Y-31382D01*
X29528Y-31535D01*
X30296Y-31382D01*
X30947Y-30947D01*
X31382Y-30296D01*
X31535Y-29528D01*
X31382Y-28760D01*
X30947Y-28108D01*
X30296Y-27673D01*
X29528Y-27520D01*
D02*
G37*
G36*
X-29528D02*
X-30296Y-27673D01*
X-30947Y-28108D01*
X-31382Y-28760D01*
X-31535Y-29528D01*
X-31382Y-30296D01*
X-30947Y-30947D01*
X-30296Y-31382D01*
X-29528Y-31535D01*
X-28760Y-31382D01*
X-28108Y-30947D01*
X-27673Y-30296D01*
X-27520Y-29528D01*
X-27673Y-28760D01*
X-28108Y-28108D01*
X-28760Y-27673D01*
X-29528Y-27520D01*
D02*
G37*
G36*
X-131890Y-55867D02*
X-132658Y-56020D01*
X-133309Y-56455D01*
X-133744Y-57106D01*
X-133897Y-57874D01*
X-133744Y-58642D01*
X-133309Y-59293D01*
X-132658Y-59728D01*
X-131890Y-59881D01*
X-131122Y-59728D01*
X-130471Y-59293D01*
X-130035Y-58642D01*
X-129883Y-57874D01*
X-130035Y-57106D01*
X-130471Y-56455D01*
X-131122Y-56020D01*
X-131890Y-55867D01*
D02*
G37*
G36*
X-107087Y-56654D02*
X-107855Y-56807D01*
X-108506Y-57242D01*
X-108941Y-57893D01*
X-109094Y-58661D01*
X-108941Y-59430D01*
X-108506Y-60081D01*
X-107855Y-60516D01*
X-107087Y-60668D01*
X-106318Y-60516D01*
X-105667Y-60081D01*
X-105232Y-59430D01*
X-105079Y-58661D01*
X-105232Y-57893D01*
X-105667Y-57242D01*
X-106318Y-56807D01*
X-107087Y-56654D01*
D02*
G37*
G36*
X-101181Y-62984D02*
X-101949Y-63136D01*
X-102600Y-63571D01*
X-103035Y-64223D01*
X-103188Y-64991D01*
X-103035Y-65759D01*
X-102600Y-66410D01*
X-101949Y-66845D01*
X-101181Y-66998D01*
X-100413Y-66845D01*
X-99762Y-66410D01*
X-99327Y-65759D01*
X-99174Y-64991D01*
X-99327Y-64223D01*
X-99762Y-63571D01*
X-100413Y-63136D01*
X-101181Y-62984D01*
D02*
G37*
G36*
X-112205Y-51143D02*
X-112973Y-51295D01*
X-113624Y-51730D01*
X-113873Y-52103D01*
X-114474D01*
X-114723Y-51730D01*
X-115374Y-51295D01*
X-116142Y-51143D01*
X-116910Y-51295D01*
X-117561Y-51730D01*
X-117810Y-52103D01*
X-118411D01*
X-118659Y-51730D01*
X-119311Y-51295D01*
X-120079Y-51143D01*
X-120847Y-51295D01*
X-121498Y-51730D01*
X-121933Y-52381D01*
X-122086Y-53150D01*
X-121933Y-53918D01*
X-121498Y-54569D01*
X-120847Y-55004D01*
X-120079Y-55157D01*
X-119311Y-55004D01*
X-118659Y-54569D01*
X-118411Y-54197D01*
X-117810D01*
X-117561Y-54569D01*
X-116910Y-55004D01*
X-116142Y-55157D01*
X-115374Y-55004D01*
X-114723Y-54569D01*
X-114474Y-54197D01*
X-113873D01*
X-113624Y-54569D01*
X-112973Y-55004D01*
X-112205Y-55157D01*
X-111437Y-55004D01*
X-110785Y-54569D01*
X-110350Y-53918D01*
X-110198Y-53150D01*
X-110350Y-52381D01*
X-110785Y-51730D01*
X-111437Y-51295D01*
X-112205Y-51143D01*
D02*
G37*
G36*
X-100394D02*
X-101162Y-51295D01*
X-101813Y-51730D01*
X-102248Y-52381D01*
X-102401Y-53150D01*
X-102248Y-53918D01*
X-101813Y-54569D01*
X-101162Y-55004D01*
X-100394Y-55157D01*
X-99626Y-55004D01*
X-98975Y-54569D01*
X-98539Y-53918D01*
X-98387Y-53150D01*
X-98539Y-52381D01*
X-98975Y-51730D01*
X-99626Y-51295D01*
X-100394Y-51143D01*
D02*
G37*
G36*
X-137402Y-54686D02*
X-138170Y-54839D01*
X-138821Y-55274D01*
X-139256Y-55925D01*
X-139409Y-56693D01*
X-139256Y-57461D01*
X-138821Y-58112D01*
X-138170Y-58547D01*
X-137402Y-58700D01*
X-136634Y-58547D01*
X-135982Y-58112D01*
X-135547Y-57461D01*
X-135395Y-56693D01*
X-135547Y-55925D01*
X-135982Y-55274D01*
X-136634Y-54839D01*
X-137402Y-54686D01*
D02*
G37*
G36*
X118110Y6725D02*
X116798Y6596D01*
X115537Y6213D01*
X114374Y5592D01*
X113355Y4755D01*
X112518Y3736D01*
X111897Y2574D01*
X111514Y1312D01*
X111385Y0D01*
X111514Y-1312D01*
X111897Y-2574D01*
X112518Y-3736D01*
X113355Y-4755D01*
X114374Y-5592D01*
X115537Y-6213D01*
X116798Y-6596D01*
X118110Y-6725D01*
X119422Y-6596D01*
X120684Y-6213D01*
X121847Y-5592D01*
X122866Y-4755D01*
X123702Y-3736D01*
X124324Y-2574D01*
X124706Y-1312D01*
X124836Y0D01*
X124706Y1312D01*
X124324Y2574D01*
X123702Y3736D01*
X122866Y4755D01*
X121847Y5592D01*
X120684Y6213D01*
X119422Y6596D01*
X118110Y6725D01*
D02*
G37*
G36*
X-69685Y72479D02*
X-70453Y72327D01*
X-71104Y71892D01*
X-71539Y71241D01*
X-71692Y70472D01*
X-71539Y69704D01*
X-71104Y69053D01*
X-70453Y68618D01*
X-69685Y68465D01*
X-68917Y68618D01*
X-68266Y69053D01*
X-67831Y69704D01*
X-67678Y70472D01*
X-67831Y71241D01*
X-68266Y71892D01*
X-68917Y72327D01*
X-69685Y72479D01*
D02*
G37*
G36*
X83071Y66574D02*
X82303Y66421D01*
X81652Y65986D01*
X81217Y65335D01*
X81064Y64567D01*
X81217Y63799D01*
X81652Y63148D01*
X82303Y62713D01*
X83071Y62560D01*
X83839Y62713D01*
X84490Y63148D01*
X84925Y63799D01*
X85078Y64567D01*
X84925Y65335D01*
X84490Y65986D01*
X83839Y66421D01*
X83071Y66574D01*
D02*
G37*
G36*
X-127165Y64212D02*
X-127933Y64059D01*
X-128585Y63624D01*
X-129020Y62973D01*
X-129172Y62205D01*
X-129020Y61437D01*
X-128585Y60786D01*
X-127933Y60350D01*
X-127165Y60198D01*
X-126397Y60350D01*
X-125746Y60786D01*
X-125311Y61437D01*
X-125158Y62205D01*
X-125311Y62973D01*
X-125746Y63624D01*
X-126397Y64059D01*
X-127165Y64212D01*
D02*
G37*
G36*
X120079Y75428D02*
X119387Y75291D01*
X118801Y74899D01*
X118600D01*
X118014Y75291D01*
X117323Y75428D01*
X116632Y75291D01*
X116046Y74899D01*
X115844D01*
X115258Y75291D01*
X114567Y75428D01*
X113876Y75291D01*
X113290Y74899D01*
X113088D01*
X112502Y75291D01*
X111811Y75428D01*
X111120Y75291D01*
X110534Y74899D01*
X110332D01*
X109746Y75291D01*
X109055Y75428D01*
X108364Y75291D01*
X107778Y74899D01*
X107386Y74313D01*
X107249Y73622D01*
X107386Y72931D01*
X107778Y72345D01*
X107849Y72297D01*
Y71797D01*
X107778Y71750D01*
X107386Y71164D01*
X107249Y70472D01*
X107386Y69781D01*
X107775Y69200D01*
X107849Y69082D01*
Y68713D01*
X107775Y68596D01*
X107386Y68014D01*
X107249Y67323D01*
X107386Y66632D01*
X107778Y66045D01*
X108364Y65654D01*
X109055Y65517D01*
X109746Y65654D01*
X110056Y65861D01*
X110534Y66045D01*
X111120Y65654D01*
X111811Y65517D01*
X112502Y65654D01*
X112812Y65861D01*
X113189Y66007D01*
X113566Y65861D01*
X113876Y65654D01*
X114567Y65517D01*
X115258Y65654D01*
X115844Y66045D01*
X116046D01*
X116632Y65654D01*
X117323Y65517D01*
X118014Y65654D01*
X118324Y65861D01*
X118701Y66007D01*
X119078Y65861D01*
X119387Y65654D01*
X120079Y65517D01*
X120770Y65654D01*
X121356Y66045D01*
X121748Y66632D01*
X121885Y67323D01*
X121748Y68014D01*
X121356Y68600D01*
X121285Y68648D01*
Y69148D01*
X121356Y69195D01*
X121748Y69781D01*
X121885Y70472D01*
X121748Y71164D01*
X121356Y71750D01*
X121285Y71797D01*
Y72297D01*
X121356Y72345D01*
X121748Y72931D01*
X121885Y73622D01*
X121748Y74313D01*
X121356Y74899D01*
X120770Y75291D01*
X120079Y75428D01*
D02*
G37*
G36*
X126378Y78798D02*
X125610Y78646D01*
X124959Y78211D01*
X124524Y77559D01*
X124371Y76791D01*
X124524Y76023D01*
X124959Y75372D01*
X125610Y74937D01*
X126378Y74784D01*
X127146Y74937D01*
X127797Y75372D01*
X128232Y76023D01*
X128385Y76791D01*
X128232Y77559D01*
X127797Y78211D01*
X127146Y78646D01*
X126378Y78798D01*
D02*
G37*
G36*
X-94587Y75531D02*
X-95355Y75378D01*
X-96006Y74943D01*
X-96441Y74292D01*
X-96594Y73524D01*
X-96441Y72756D01*
X-96006Y72104D01*
X-95355Y71669D01*
X-94587Y71517D01*
X-93818Y71669D01*
X-93167Y72104D01*
X-92732Y72756D01*
X-92580Y73524D01*
X-92732Y74292D01*
X-93167Y74943D01*
X-93818Y75378D01*
X-94587Y75531D01*
D02*
G37*
G36*
X103543Y45314D02*
X102775Y45161D01*
X102124Y44726D01*
X101875Y44354D01*
X101274D01*
X101025Y44726D01*
X100374Y45161D01*
X99606Y45314D01*
X98838Y45161D01*
X98187Y44726D01*
X97752Y44075D01*
X97599Y43307D01*
X97752Y42539D01*
X98187Y41888D01*
X98838Y41453D01*
X99606Y41300D01*
X100374Y41453D01*
X101025Y41888D01*
X101274Y42260D01*
X101875D01*
X102124Y41888D01*
X102775Y41453D01*
X103543Y41300D01*
X104311Y41453D01*
X104963Y41888D01*
X105398Y42539D01*
X105550Y43307D01*
X105398Y44075D01*
X104963Y44726D01*
X104311Y45161D01*
X103543Y45314D01*
D02*
G37*
G36*
X-98622Y47086D02*
X-99390Y46933D01*
X-100041Y46498D01*
X-100476Y45847D01*
X-100629Y45079D01*
X-100476Y44311D01*
X-100041Y43659D01*
X-99390Y43224D01*
X-98622Y43072D01*
X-97854Y43224D01*
X-97203Y43659D01*
X-96768Y44311D01*
X-96615Y45079D01*
X-96768Y45847D01*
X-97203Y46498D01*
X-97854Y46933D01*
X-98622Y47086D01*
D02*
G37*
G36*
X116535Y46889D02*
X115767Y46736D01*
X115116Y46301D01*
X114681Y45650D01*
X114528Y44882D01*
X114681Y44114D01*
X115116Y43463D01*
X115767Y43028D01*
X116535Y42875D01*
X117304Y43028D01*
X117955Y43463D01*
X118390Y44114D01*
X118543Y44882D01*
X118390Y45650D01*
X117955Y46301D01*
X117304Y46736D01*
X116535Y46889D01*
D02*
G37*
G36*
X93799Y60373D02*
X93031Y60220D01*
X92380Y59785D01*
X91945Y59134D01*
X91792Y58366D01*
X91945Y57598D01*
X92380Y56947D01*
X93031Y56512D01*
X93799Y56359D01*
X94567Y56512D01*
X95218Y56947D01*
X95653Y57598D01*
X95806Y58366D01*
X95653Y59134D01*
X95218Y59785D01*
X94567Y60220D01*
X93799Y60373D01*
D02*
G37*
G36*
X-126772Y59487D02*
X-127540Y59335D01*
X-128191Y58899D01*
X-128626Y58248D01*
X-128779Y57480D01*
X-128626Y56712D01*
X-128191Y56061D01*
X-127540Y55626D01*
X-126772Y55473D01*
X-126004Y55626D01*
X-125352Y56061D01*
X-124917Y56712D01*
X-124765Y57480D01*
X-124917Y58248D01*
X-125352Y58899D01*
X-126004Y59335D01*
X-126772Y59487D01*
D02*
G37*
G36*
X-91732Y50432D02*
X-92500Y50279D01*
X-93151Y49844D01*
X-93587Y49193D01*
X-93739Y48425D01*
X-93587Y47657D01*
X-93151Y47006D01*
X-92500Y46571D01*
X-91732Y46418D01*
X-90964Y46571D01*
X-90313Y47006D01*
X-89878Y47657D01*
X-89725Y48425D01*
X-89878Y49193D01*
X-90313Y49844D01*
X-90964Y50279D01*
X-91732Y50432D01*
D02*
G37*
G36*
X117323Y89802D02*
X116555Y89650D01*
X115904Y89214D01*
X115469Y88563D01*
X115316Y87795D01*
X115469Y87027D01*
X115904Y86376D01*
X116555Y85941D01*
X117323Y85788D01*
X118091Y85941D01*
X118742Y86376D01*
X119177Y87027D01*
X119330Y87795D01*
X119177Y88563D01*
X118742Y89214D01*
X118091Y89650D01*
X117323Y89802D01*
D02*
G37*
G36*
X47244Y128779D02*
X46476Y128626D01*
X45825Y128191D01*
X45390Y127540D01*
X45237Y126772D01*
X45390Y126004D01*
X45825Y125352D01*
X46476Y124917D01*
X47244Y124765D01*
X48012Y124917D01*
X48663Y125352D01*
X49098Y126004D01*
X49251Y126772D01*
X49098Y127540D01*
X48663Y128191D01*
X48012Y128626D01*
X47244Y128779D01*
D02*
G37*
G36*
X15748D02*
X14980Y128626D01*
X14329Y128191D01*
X13894Y127540D01*
X13741Y126772D01*
X13894Y126004D01*
X14329Y125352D01*
X14980Y124917D01*
X15748Y124765D01*
X16516Y124917D01*
X17167Y125352D01*
X17602Y126004D01*
X17755Y126772D01*
X17602Y127540D01*
X17167Y128191D01*
X16516Y128626D01*
X15748Y128779D01*
D02*
G37*
G36*
X59055Y134289D02*
X57925Y134141D01*
X56871Y133704D01*
X55966Y133010D01*
X55272Y132105D01*
X54836Y131052D01*
X54687Y129921D01*
Y122047D01*
X54836Y120917D01*
X55272Y119863D01*
X55966Y118958D01*
X56871Y118264D01*
X57925Y117828D01*
X59055Y117679D01*
X60186Y117828D01*
X61239Y118264D01*
X62144Y118958D01*
X62838Y119863D01*
X63274Y120917D01*
X63423Y122047D01*
Y129921D01*
X63274Y131052D01*
X62838Y132105D01*
X62144Y133010D01*
X61239Y133704D01*
X60186Y134141D01*
X59055Y134289D01*
D02*
G37*
G36*
X47244Y135510D02*
X46476Y135357D01*
X45825Y134922D01*
X45390Y134271D01*
X45237Y133503D01*
X45390Y132735D01*
X45825Y132084D01*
X46476Y131649D01*
X47244Y131496D01*
X48012Y131649D01*
X48663Y132084D01*
X49098Y132735D01*
X49251Y133503D01*
X49098Y134271D01*
X48663Y134922D01*
X48012Y135357D01*
X47244Y135510D01*
D02*
G37*
G36*
X15748Y135078D02*
X14980Y134925D01*
X14329Y134490D01*
X13894Y133839D01*
X13741Y133071D01*
X13894Y132303D01*
X14329Y131652D01*
X14980Y131217D01*
X15748Y131064D01*
X16516Y131217D01*
X17167Y131652D01*
X17602Y132303D01*
X17755Y133071D01*
X17602Y133839D01*
X17167Y134490D01*
X16516Y134925D01*
X15748Y135078D01*
D02*
G37*
G36*
X-15748Y134684D02*
X-16516Y134531D01*
X-17167Y134096D01*
X-17602Y133445D01*
X-17755Y132677D01*
X-17602Y131909D01*
X-17167Y131258D01*
X-16516Y130823D01*
X-16234Y130767D01*
Y130257D01*
X-16516Y130201D01*
X-17167Y129766D01*
X-17602Y129114D01*
X-17755Y128347D01*
X-17602Y127578D01*
X-17167Y126927D01*
X-16516Y126492D01*
X-15748Y126339D01*
X-14980Y126492D01*
X-14329Y126927D01*
X-13894Y127578D01*
X-13741Y128347D01*
X-13894Y129114D01*
X-14329Y129766D01*
X-14980Y130201D01*
X-15262Y130257D01*
Y130767D01*
X-14980Y130823D01*
X-14329Y131258D01*
X-13894Y131909D01*
X-13741Y132677D01*
X-13894Y133445D01*
X-14329Y134096D01*
X-14980Y134531D01*
X-15748Y134684D01*
D02*
G37*
G36*
X-29528Y120117D02*
X-30296Y119965D01*
X-30947Y119529D01*
X-31382Y118878D01*
X-31535Y118110D01*
X-31382Y117342D01*
X-30947Y116691D01*
X-30296Y116256D01*
X-29528Y116103D01*
X-28760Y116256D01*
X-28108Y116691D01*
X-27673Y117342D01*
X-27520Y118110D01*
X-27673Y118878D01*
X-28108Y119529D01*
X-28760Y119965D01*
X-29528Y120117D01*
D02*
G37*
G36*
X-39370D02*
X-40138Y119965D01*
X-40789Y119529D01*
X-41224Y118878D01*
X-41377Y118110D01*
X-41224Y117342D01*
X-40789Y116691D01*
X-40138Y116256D01*
X-39370Y116103D01*
X-38602Y116256D01*
X-37951Y116691D01*
X-37516Y117342D01*
X-37363Y118110D01*
X-37516Y118878D01*
X-37951Y119529D01*
X-38602Y119965D01*
X-39370Y120117D01*
D02*
G37*
G36*
X106693Y98070D02*
X105925Y97917D01*
X105274Y97482D01*
X104839Y96831D01*
X104686Y96063D01*
X104839Y95295D01*
X105274Y94644D01*
X105646Y94395D01*
Y93794D01*
X105274Y93545D01*
X104839Y92894D01*
X104686Y92126D01*
X104839Y91358D01*
X105274Y90707D01*
X105925Y90272D01*
X106693Y90119D01*
X107461Y90272D01*
X108112Y90707D01*
X108547Y91358D01*
X108700Y92126D01*
X108547Y92894D01*
X108112Y93545D01*
X107740Y93794D01*
Y94395D01*
X108112Y94644D01*
X108547Y95295D01*
X108700Y96063D01*
X108547Y96831D01*
X108112Y97482D01*
X107461Y97917D01*
X106693Y98070D01*
D02*
G37*
G36*
X-59055Y134289D02*
X-60186Y134141D01*
X-61239Y133704D01*
X-62144Y133010D01*
X-62838Y132105D01*
X-63274Y131052D01*
X-63423Y129921D01*
Y122047D01*
X-63274Y120917D01*
X-62838Y119863D01*
X-62144Y118958D01*
X-61239Y118264D01*
X-60186Y117828D01*
X-59055Y117679D01*
X-57925Y117828D01*
X-56871Y118264D01*
X-55966Y118958D01*
X-55272Y119863D01*
X-54836Y120917D01*
X-54687Y122047D01*
Y129921D01*
X-54836Y131052D01*
X-55272Y132105D01*
X-55966Y133010D01*
X-56871Y133704D01*
X-57925Y134141D01*
X-59055Y134289D01*
D02*
G37*
G36*
X-73622Y129164D02*
X-74857Y129043D01*
X-76044Y128682D01*
X-77139Y128098D01*
X-78098Y127310D01*
X-78885Y126351D01*
X-79470Y125257D01*
X-79830Y124069D01*
X-79952Y122835D01*
X-79830Y121600D01*
X-79470Y120412D01*
X-78885Y119318D01*
X-78098Y118359D01*
X-77139Y117572D01*
X-76044Y116987D01*
X-74857Y116627D01*
X-73622Y116505D01*
X-72387Y116627D01*
X-71200Y116987D01*
X-70105Y117572D01*
X-69146Y118359D01*
X-68359Y119318D01*
X-67774Y120412D01*
X-67414Y121600D01*
X-67292Y122835D01*
X-67414Y124069D01*
X-67774Y125257D01*
X-68359Y126351D01*
X-69146Y127310D01*
X-70105Y128098D01*
X-71200Y128682D01*
X-72387Y129043D01*
X-73622Y129164D01*
D02*
G37*
G36*
X-49606Y120511D02*
X-50374Y120358D01*
X-51025Y119923D01*
X-51461Y119272D01*
X-51613Y118504D01*
X-51461Y117736D01*
X-51025Y117085D01*
X-50374Y116650D01*
X-49606Y116497D01*
X-48838Y116650D01*
X-48187Y117085D01*
X-47752Y117736D01*
X-47599Y118504D01*
X-47752Y119272D01*
X-48187Y119923D01*
X-48838Y120358D01*
X-49606Y120511D01*
D02*
G37*
G36*
X-129528Y50826D02*
X-130296Y50673D01*
X-130947Y50238D01*
X-131382Y49587D01*
X-131535Y48819D01*
X-131382Y48051D01*
X-130947Y47400D01*
X-130710Y47242D01*
X-130702Y47032D01*
X-130772Y46681D01*
X-131341Y46301D01*
X-131775Y45650D01*
X-131928Y44882D01*
X-131775Y44114D01*
X-131341Y43463D01*
X-130689Y43028D01*
X-129921Y42875D01*
X-129153Y43028D01*
X-128502Y43463D01*
X-128067Y44114D01*
X-127914Y44882D01*
X-128067Y45650D01*
X-128502Y46301D01*
X-128738Y46459D01*
X-128747Y46669D01*
X-128677Y47019D01*
X-128108Y47400D01*
X-127673Y48051D01*
X-127521Y48819D01*
X-127673Y49587D01*
X-128108Y50238D01*
X-128760Y50673D01*
X-129528Y50826D01*
D02*
G37*
G36*
X-132677Y14212D02*
X-133445Y14059D01*
X-134096Y13624D01*
X-134531Y12973D01*
X-134684Y12205D01*
X-134531Y11437D01*
X-134096Y10785D01*
X-133445Y10350D01*
X-132677Y10198D01*
X-131909Y10350D01*
X-131258Y10785D01*
X-130823Y11437D01*
X-130670Y12205D01*
X-130823Y12973D01*
X-131258Y13624D01*
X-131909Y14059D01*
X-132677Y14212D01*
D02*
G37*
G36*
X64961Y13424D02*
X64193Y13272D01*
X63541Y12836D01*
X63106Y12185D01*
X62954Y11417D01*
X63106Y10649D01*
X63541Y9998D01*
X64193Y9563D01*
X64961Y9410D01*
X65729Y9563D01*
X66380Y9998D01*
X66815Y10649D01*
X66968Y11417D01*
X66815Y12185D01*
X66380Y12836D01*
X65729Y13272D01*
X64961Y13424D01*
D02*
G37*
G36*
X-138976Y12243D02*
X-139744Y12090D01*
X-140396Y11655D01*
X-140831Y11004D01*
X-140983Y10236D01*
X-140831Y9468D01*
X-140396Y8817D01*
X-139744Y8382D01*
X-138976Y8229D01*
X-138208Y8382D01*
X-137557Y8817D01*
X-137122Y9468D01*
X-136969Y10236D01*
X-137122Y11004D01*
X-137557Y11655D01*
X-138208Y12090D01*
X-138976Y12243D01*
D02*
G37*
G36*
X94193Y21003D02*
X93425Y20850D01*
X92774Y20415D01*
X92339Y19764D01*
X92186Y18996D01*
X92339Y18228D01*
X92774Y17577D01*
X93425Y17142D01*
X94193Y16989D01*
X94961Y17142D01*
X95612Y17577D01*
X96047Y18228D01*
X96200Y18996D01*
X96047Y19764D01*
X95612Y20415D01*
X94961Y20850D01*
X94193Y21003D01*
D02*
G37*
G36*
X-115748Y23661D02*
X-116516Y23508D01*
X-117167Y23073D01*
X-117602Y22422D01*
X-117755Y21654D01*
X-117602Y20886D01*
X-117167Y20234D01*
X-116659Y19895D01*
X-116713Y19374D01*
X-117364Y18939D01*
X-117799Y18288D01*
X-117952Y17520D01*
X-117799Y16752D01*
X-117364Y16101D01*
X-116713Y15665D01*
X-115945Y15513D01*
X-115177Y15665D01*
X-114526Y16101D01*
X-114091Y16752D01*
X-113938Y17520D01*
X-114091Y18288D01*
X-114526Y18939D01*
X-115034Y19279D01*
X-114980Y19799D01*
X-114329Y20234D01*
X-113894Y20886D01*
X-113741Y21654D01*
X-113894Y22422D01*
X-114329Y23073D01*
X-114980Y23508D01*
X-115748Y23661D01*
D02*
G37*
G36*
X-129134Y18542D02*
X-129902Y18390D01*
X-130553Y17955D01*
X-130988Y17303D01*
X-131141Y16535D01*
X-130988Y15767D01*
X-130553Y15116D01*
X-129902Y14681D01*
X-129134Y14528D01*
X-128366Y14681D01*
X-127715Y15116D01*
X-127280Y15767D01*
X-127127Y16535D01*
X-127280Y17303D01*
X-127715Y17955D01*
X-128366Y18390D01*
X-129134Y18542D01*
D02*
G37*
G36*
X134252Y4369D02*
X133484Y4216D01*
X132833Y3781D01*
X132398Y3130D01*
X132245Y2362D01*
X132398Y1594D01*
X132833Y943D01*
X133484Y508D01*
X134252Y355D01*
X135020Y508D01*
X135671Y943D01*
X136106Y1594D01*
X136259Y2362D01*
X136106Y3130D01*
X135671Y3781D01*
X135020Y4216D01*
X134252Y4369D01*
D02*
G37*
G36*
X146850Y432D02*
X146082Y280D01*
X145431Y-156D01*
X144996Y-807D01*
X144843Y-1575D01*
X144996Y-2343D01*
X145431Y-2994D01*
X146082Y-3429D01*
X146850Y-3582D01*
X147618Y-3429D01*
X148270Y-2994D01*
X148705Y-2343D01*
X148857Y-1575D01*
X148705Y-807D01*
X148270Y-156D01*
X147618Y280D01*
X146850Y432D01*
D02*
G37*
G36*
X84646D02*
X83878Y280D01*
X83227Y-156D01*
X82791Y-807D01*
X82639Y-1575D01*
X82791Y-2343D01*
X83227Y-2994D01*
X83878Y-3429D01*
X84646Y-3582D01*
X85414Y-3429D01*
X86065Y-2994D01*
X86500Y-2343D01*
X86653Y-1575D01*
X86500Y-807D01*
X86065Y-156D01*
X85414Y280D01*
X84646Y432D01*
D02*
G37*
G36*
X-50787Y11456D02*
X-51556Y11303D01*
X-52207Y10868D01*
X-52642Y10217D01*
X-52794Y9449D01*
X-52642Y8681D01*
X-52207Y8030D01*
X-51556Y7594D01*
X-50787Y7442D01*
X-50019Y7594D01*
X-49368Y8030D01*
X-48933Y8681D01*
X-48780Y9449D01*
X-48933Y10217D01*
X-49368Y10868D01*
X-50019Y11303D01*
X-50787Y11456D01*
D02*
G37*
G36*
X-131496Y7913D02*
X-132264Y7760D01*
X-132915Y7325D01*
X-133350Y6674D01*
X-133503Y5906D01*
X-133350Y5137D01*
X-132915Y4486D01*
X-132264Y4051D01*
X-131496Y3898D01*
X-130728Y4051D01*
X-130077Y4486D01*
X-129642Y5137D01*
X-129489Y5906D01*
X-129642Y6674D01*
X-130077Y7325D01*
X-130728Y7760D01*
X-131496Y7913D01*
D02*
G37*
G36*
X74803Y6731D02*
X74035Y6579D01*
X73384Y6144D01*
X72949Y5492D01*
X72796Y4724D01*
X72949Y3956D01*
X73384Y3305D01*
X74035Y2870D01*
X74803Y2717D01*
X75571Y2870D01*
X76222Y3305D01*
X76657Y3956D01*
X76810Y4724D01*
X76657Y5492D01*
X76222Y6144D01*
X75571Y6579D01*
X74803Y6731D01*
D02*
G37*
G36*
X84646Y27991D02*
X83878Y27839D01*
X83227Y27404D01*
X82791Y26752D01*
X82639Y25984D01*
X82791Y25216D01*
X83227Y24565D01*
X83878Y24130D01*
X84646Y23977D01*
X85414Y24130D01*
X86065Y24565D01*
X86500Y25216D01*
X86653Y25984D01*
X86500Y26752D01*
X86065Y27404D01*
X85414Y27839D01*
X84646Y27991D01*
D02*
G37*
G36*
X-129528Y41771D02*
X-130296Y41618D01*
X-130947Y41183D01*
X-131382Y40532D01*
X-131535Y39764D01*
X-131382Y38996D01*
X-130947Y38345D01*
X-130296Y37909D01*
X-129528Y37757D01*
X-128760Y37909D01*
X-128108Y38345D01*
X-127673Y38996D01*
X-127521Y39764D01*
X-127673Y40532D01*
X-128108Y41183D01*
X-128760Y41618D01*
X-129528Y41771D01*
D02*
G37*
G36*
X120472Y33696D02*
X119781Y33559D01*
X119195Y33167D01*
X118994D01*
X118408Y33559D01*
X117717Y33696D01*
X117025Y33559D01*
X116716Y33352D01*
X116339Y33206D01*
X115961Y33352D01*
X115652Y33559D01*
X114961Y33696D01*
X114269Y33559D01*
X113683Y33167D01*
X113482D01*
X112896Y33559D01*
X112205Y33696D01*
X111513Y33559D01*
X111204Y33352D01*
X110827Y33206D01*
X110450Y33352D01*
X110140Y33559D01*
X109449Y33696D01*
X108758Y33559D01*
X108171Y33167D01*
X107780Y32581D01*
X107642Y31890D01*
X107780Y31198D01*
X108169Y30617D01*
X108243Y30500D01*
Y30130D01*
X108169Y30013D01*
X107780Y29431D01*
X107642Y28740D01*
X107780Y28049D01*
X108169Y27467D01*
X108243Y27350D01*
Y26981D01*
X108169Y26864D01*
X107780Y26282D01*
X107642Y25591D01*
X107780Y24899D01*
X108171Y24313D01*
X108758Y23922D01*
X109449Y23784D01*
X110140Y23922D01*
X110450Y24128D01*
X110927Y24313D01*
X111513Y23922D01*
X112205Y23784D01*
X112896Y23922D01*
X113206Y24128D01*
X113583Y24274D01*
X113960Y24128D01*
X114269Y23922D01*
X114961Y23784D01*
X115652Y23922D01*
X116238Y24313D01*
X116439D01*
X117025Y23922D01*
X117717Y23784D01*
X118408Y23922D01*
X118717Y24128D01*
X119095Y24274D01*
X119472Y24128D01*
X119781Y23922D01*
X120472Y23784D01*
X121164Y23922D01*
X121750Y24313D01*
X122141Y24899D01*
X122279Y25591D01*
X122141Y26282D01*
X121753Y26864D01*
X121679Y26981D01*
Y27350D01*
X121753Y27467D01*
X122141Y28049D01*
X122279Y28740D01*
X122141Y29431D01*
X121753Y30013D01*
X121679Y30130D01*
Y30500D01*
X121753Y30617D01*
X122141Y31198D01*
X122279Y31890D01*
X122141Y32581D01*
X121750Y33167D01*
X121164Y33559D01*
X120472Y33696D01*
D02*
G37*
G36*
X135335Y34783D02*
X134567Y34630D01*
X133915Y34195D01*
X133480Y33544D01*
X133328Y32776D01*
X133480Y32008D01*
X133915Y31356D01*
X134567Y30921D01*
X135335Y30768D01*
X136103Y30921D01*
X136754Y31356D01*
X137189Y32008D01*
X137342Y32776D01*
X137189Y33544D01*
X136754Y34195D01*
X136103Y34630D01*
X135335Y34783D01*
D02*
G37*
G36*
X-94882Y44527D02*
X-95650Y44374D01*
X-96301Y43939D01*
X-96736Y43288D01*
X-96889Y42520D01*
X-96736Y41752D01*
X-96301Y41100D01*
X-95650Y40665D01*
X-94882Y40513D01*
X-94114Y40665D01*
X-93463Y41100D01*
X-93028Y41752D01*
X-92875Y42520D01*
X-93028Y43288D01*
X-93463Y43939D01*
X-94114Y44374D01*
X-94882Y44527D01*
D02*
G37*
G36*
X78740Y50361D02*
X77353Y50178D01*
X76060Y49643D01*
X74950Y48791D01*
X74098Y47680D01*
X73562Y46387D01*
X73379Y45000D01*
X73562Y43613D01*
X74098Y42320D01*
X74950Y41209D01*
X76060Y40357D01*
X77353Y39822D01*
X78740Y39639D01*
X80128Y39822D01*
X81421Y40357D01*
X82531Y41209D01*
X83383Y42320D01*
X83918Y43613D01*
X84101Y45000D01*
X83918Y46387D01*
X83383Y47680D01*
X82531Y48791D01*
X81421Y49643D01*
X80128Y50178D01*
X78740Y50361D01*
D02*
G37*
G36*
X-78740D02*
X-80128Y50178D01*
X-81421Y49643D01*
X-82531Y48791D01*
X-83383Y47680D01*
X-83918Y46387D01*
X-84101Y45000D01*
X-83918Y43613D01*
X-83383Y42320D01*
X-82531Y41209D01*
X-81421Y40357D01*
X-80128Y39822D01*
X-78740Y39639D01*
X-77353Y39822D01*
X-76060Y40357D01*
X-74950Y41209D01*
X-74098Y42320D01*
X-73562Y43613D01*
X-73379Y45000D01*
X-73562Y46387D01*
X-74098Y47680D01*
X-74950Y48791D01*
X-76060Y49643D01*
X-77353Y50178D01*
X-78740Y50361D01*
D02*
G37*
G36*
X-113386Y31928D02*
X-114154Y31776D01*
X-114805Y31341D01*
X-115240Y30689D01*
X-115393Y29921D01*
X-115240Y29153D01*
X-114805Y28502D01*
X-114154Y28067D01*
X-113386Y27914D01*
X-112618Y28067D01*
X-111967Y28502D01*
X-111531Y29153D01*
X-111379Y29921D01*
X-111531Y30689D01*
X-111967Y31341D01*
X-112618Y31776D01*
X-113386Y31928D01*
D02*
G37*
G36*
X-37795Y29960D02*
X-38563Y29807D01*
X-39215Y29372D01*
X-39650Y28721D01*
X-39802Y27953D01*
X-39650Y27185D01*
X-39215Y26534D01*
X-38563Y26098D01*
X-37795Y25946D01*
X-37027Y26098D01*
X-36376Y26534D01*
X-35941Y27185D01*
X-35788Y27953D01*
X-35941Y28721D01*
X-36376Y29372D01*
X-37027Y29807D01*
X-37795Y29960D01*
D02*
G37*
G36*
X-116929Y28779D02*
X-117697Y28626D01*
X-118348Y28191D01*
X-118783Y27540D01*
X-118936Y26772D01*
X-118783Y26004D01*
X-118348Y25352D01*
X-117697Y24917D01*
X-116929Y24765D01*
X-116161Y24917D01*
X-115510Y25352D01*
X-115075Y26004D01*
X-114922Y26772D01*
X-115075Y27540D01*
X-115510Y28191D01*
X-116161Y28626D01*
X-116929Y28779D01*
D02*
G37*
G36*
X81102Y34291D02*
X80334Y34138D01*
X79683Y33703D01*
X79248Y33051D01*
X79095Y32283D01*
X79248Y31515D01*
X79683Y30864D01*
X80334Y30429D01*
X81102Y30276D01*
X81870Y30429D01*
X82522Y30864D01*
X82957Y31515D01*
X83109Y32283D01*
X82957Y33051D01*
X82522Y33703D01*
X81870Y34138D01*
X81102Y34291D01*
D02*
G37*
G36*
X-94095Y32322D02*
X-94863Y32169D01*
X-95514Y31734D01*
X-95949Y31083D01*
X-96102Y30315D01*
X-95949Y29547D01*
X-95514Y28896D01*
X-94863Y28461D01*
X-94095Y28308D01*
X-93326Y28461D01*
X-92675Y28896D01*
X-92240Y29547D01*
X-92087Y30315D01*
X-92240Y31083D01*
X-92675Y31734D01*
X-93326Y32169D01*
X-94095Y32322D01*
D02*
G37*
G36*
X-129528Y36259D02*
X-130296Y36106D01*
X-130947Y35671D01*
X-131382Y35020D01*
X-131535Y34252D01*
X-131382Y33484D01*
X-130947Y32833D01*
X-130801Y32735D01*
X-130906Y32204D01*
X-131083Y32169D01*
X-131734Y31734D01*
X-132169Y31083D01*
X-132322Y30315D01*
X-132169Y29547D01*
X-131734Y28896D01*
X-131083Y28461D01*
X-130315Y28308D01*
X-129547Y28461D01*
X-128896Y28896D01*
X-128461Y29547D01*
X-128308Y30315D01*
X-128461Y31083D01*
X-128896Y31734D01*
X-129042Y31832D01*
X-128936Y32362D01*
X-128760Y32398D01*
X-128108Y32833D01*
X-127673Y33484D01*
X-127521Y34252D01*
X-127673Y35020D01*
X-128108Y35671D01*
X-128760Y36106D01*
X-129528Y36259D01*
D02*
G37*
%LPD*%
D27*
X-27953Y-95276D02*
X-27559Y-95669D01*
D35*
X-59842Y4724D02*
D03*
X-22441Y18504D02*
D03*
X-28346Y-62205D02*
D03*
X86614Y-95669D02*
D03*
X90945Y87795D02*
D03*
X50394Y86614D02*
D03*
X11417Y98425D02*
D03*
X-146063Y4724D02*
D03*
X-19291Y-132677D02*
D03*
X62205Y-118898D02*
D03*
X25197Y-132677D02*
D03*
X-50394Y-33858D02*
D03*
X-94095Y-39764D02*
D03*
X-99606Y-28740D02*
D03*
X-128347Y-12205D02*
D03*
X29528Y-3543D02*
D03*
X-4331Y30315D02*
D03*
X21654Y59842D02*
D03*
X51181Y33071D02*
D03*
X62992Y61024D02*
D03*
X127953Y49213D02*
D03*
X-73228Y-125984D02*
D03*
X-75984Y-123228D02*
D03*
X-70079Y-128740D02*
D03*
X125591Y-68504D02*
D03*
X125197Y-43701D02*
D03*
X-146260Y28150D02*
D03*
X-70866Y-95276D02*
D03*
X-27559Y-95669D02*
D03*
X15748Y-95276D02*
D03*
X59055D02*
D03*
X102362D02*
D03*
X94488Y-74803D02*
D03*
X51181D02*
D03*
X7874D02*
D03*
X-35433D02*
D03*
X-78740D02*
D03*
X134252Y62992D02*
D03*
X127953Y53150D02*
D03*
X138189Y24803D02*
D03*
Y16929D02*
D03*
X142913Y-40551D02*
D03*
X112992Y-23622D02*
D03*
X138976Y6299D02*
D03*
X-66929Y-131102D02*
D03*
X-57480Y-122835D02*
D03*
X-60236Y-120079D02*
D03*
X-65748Y-114567D02*
D03*
X-62992Y-117323D02*
D03*
X112992Y-17717D02*
D03*
X-45276Y101181D02*
D03*
X-16535Y100787D02*
D03*
X-11417Y96063D02*
D03*
D36*
X-41339Y143701D02*
D03*
X-37402D02*
D03*
X-33465D02*
D03*
X-29528D02*
D03*
X-25591D02*
D03*
X-21654D02*
D03*
Y129921D02*
D03*
Y125984D02*
D03*
Y122835D02*
D03*
X-25591D02*
D03*
X-29134D02*
D03*
X-33465D02*
D03*
X-41339Y139764D02*
D03*
Y135827D02*
D03*
Y131890D02*
D03*
Y127953D02*
D03*
Y124016D02*
D03*
X-9843D02*
D03*
Y127953D02*
D03*
Y131890D02*
D03*
Y135827D02*
D03*
Y139764D02*
D03*
X-1969Y122835D02*
D03*
X2362D02*
D03*
X5906D02*
D03*
X9843D02*
D03*
Y125984D02*
D03*
Y129921D02*
D03*
Y143701D02*
D03*
X5906D02*
D03*
X1969D02*
D03*
X-1969D02*
D03*
X-5906D02*
D03*
X-9843D02*
D03*
X21654Y124016D02*
D03*
Y127953D02*
D03*
Y131890D02*
D03*
Y135827D02*
D03*
Y139764D02*
D03*
X29528Y122835D02*
D03*
X33858D02*
D03*
X37402D02*
D03*
X41339D02*
D03*
Y125984D02*
D03*
Y129921D02*
D03*
Y143701D02*
D03*
X37402D02*
D03*
X33465D02*
D03*
X29528D02*
D03*
X25591D02*
D03*
X21654D02*
D03*
X114567Y70472D02*
D03*
Y73622D02*
D03*
X117323D02*
D03*
X109055D02*
D03*
X111811D02*
D03*
Y70472D02*
D03*
X109055D02*
D03*
X117323D02*
D03*
X117323Y67323D02*
D03*
X120079D02*
D03*
X111811Y67323D02*
D03*
X114567Y67323D02*
D03*
X114961Y25591D02*
D03*
X112205Y25591D02*
D03*
X120472Y25591D02*
D03*
X117717D02*
D03*
X117717Y28740D02*
D03*
X109449D02*
D03*
X112205D02*
D03*
Y31890D02*
D03*
X109449D02*
D03*
X117717D02*
D03*
X114961D02*
D03*
Y28740D02*
D03*
X135433Y-26378D02*
D03*
X132677Y-26378D02*
D03*
X140945Y-26378D02*
D03*
X138189D02*
D03*
X138189Y-23228D02*
D03*
X129921D02*
D03*
X132677D02*
D03*
Y-20079D02*
D03*
X129921D02*
D03*
X138189D02*
D03*
X135433D02*
D03*
Y-23228D02*
D03*
X-21654Y137795D02*
D03*
X9843D02*
D03*
X40945D02*
D03*
X-33496Y131858D02*
D03*
X-29496D02*
D03*
X-31496Y130858D02*
D03*
X-33496Y128858D02*
D03*
X-29496D02*
D03*
X-31496Y127858D02*
D03*
Y139858D02*
D03*
X-33496Y138858D02*
D03*
X-29496D02*
D03*
X-31496Y136858D02*
D03*
X-33496Y135858D02*
D03*
X-29496D02*
D03*
X-31496Y133858D02*
D03*
X0D02*
D03*
X2000Y135858D02*
D03*
X-2000D02*
D03*
X0Y136858D02*
D03*
X2000Y138858D02*
D03*
X-2000D02*
D03*
X0Y139858D02*
D03*
Y127858D02*
D03*
X2000Y128858D02*
D03*
X-2000D02*
D03*
X0Y130858D02*
D03*
X2000Y131858D02*
D03*
X-2000D02*
D03*
X29496D02*
D03*
X33496D02*
D03*
X31496Y130858D02*
D03*
X29496Y128858D02*
D03*
X33496D02*
D03*
X31496Y127858D02*
D03*
Y139858D02*
D03*
X29496Y138858D02*
D03*
X33496D02*
D03*
X31496Y136858D02*
D03*
X29496Y135858D02*
D03*
X33496D02*
D03*
X31496Y133858D02*
D03*
M02*
