G04*
G04 #@! TF.GenerationSoftware,Altium Limited,CircuitStudio,1.5.2 (30)*
G04*
G04 Layer_Color=13948096*
%FSLAX25Y25*%
%MOIN*%
G70*
G01*
G75*
%ADD40C,0.00591*%
D40*
X-130400Y-62473D02*
X-125946Y-58019D01*
X-128173Y-54122D02*
X-124832Y-57463D01*
X-57463Y-124832D02*
X-54122Y-128173D01*
X-124276Y-42430D02*
X-112583Y-30737D01*
X-30737Y-112583D01*
X-42430Y-124276D02*
X-30737Y-112583D01*
X79134Y-44096D02*
X76510D01*
X77822D01*
Y-48031D01*
X75198D02*
Y-44096D01*
X73230D01*
X72574Y-44752D01*
Y-46064D01*
X73230Y-46720D01*
X75198D01*
X68639Y-44096D02*
X71262D01*
Y-46064D01*
X69950Y-45408D01*
X69295D01*
X68639Y-46064D01*
Y-47376D01*
X69295Y-48031D01*
X70606D01*
X71262Y-47376D01*
X67327Y-44752D02*
X66671Y-44096D01*
X65359D01*
X64703Y-44752D01*
Y-47376D01*
X65359Y-48031D01*
X66671D01*
X67327Y-47376D01*
Y-44752D01*
X63391D02*
X62735Y-44096D01*
X61423D01*
X60767Y-44752D01*
Y-47376D01*
X61423Y-48031D01*
X62735D01*
X63391Y-47376D01*
Y-44752D01*
X36220Y-49214D02*
X33597D01*
X34909D01*
Y-53150D01*
X32285D02*
Y-49214D01*
X30317D01*
X29661Y-49870D01*
Y-51182D01*
X30317Y-51838D01*
X32285D01*
X25725Y-49214D02*
X28349D01*
Y-51182D01*
X27037Y-50526D01*
X26381D01*
X25725Y-51182D01*
Y-52494D01*
X26381Y-53150D01*
X27693D01*
X28349Y-52494D01*
X24413Y-49870D02*
X23757Y-49214D01*
X22445D01*
X21789Y-49870D01*
Y-52494D01*
X22445Y-53150D01*
X23757D01*
X24413Y-52494D01*
Y-49870D01*
X20478Y-53150D02*
X19166D01*
X19821D01*
Y-49214D01*
X20478Y-49870D01*
X-6693Y-54332D02*
X-9317D01*
X-8005D01*
Y-58268D01*
X-10629D02*
Y-54332D01*
X-12596D01*
X-13252Y-54988D01*
Y-56300D01*
X-12596Y-56956D01*
X-10629D01*
X-17188Y-54332D02*
X-14564D01*
Y-56300D01*
X-15876Y-55644D01*
X-16532D01*
X-17188Y-56300D01*
Y-57612D01*
X-16532Y-58268D01*
X-15220D01*
X-14564Y-57612D01*
X-18500Y-54988D02*
X-19156Y-54332D01*
X-20468D01*
X-21124Y-54988D01*
Y-57612D01*
X-20468Y-58268D01*
X-19156D01*
X-18500Y-57612D01*
Y-54988D01*
X-25060Y-58268D02*
X-22436D01*
X-25060Y-55644D01*
Y-54988D01*
X-24404Y-54332D01*
X-23092D01*
X-22436Y-54988D01*
X-13780Y-118112D02*
X-16403D01*
X-15091D01*
Y-122047D01*
X-17715D02*
Y-118112D01*
X-19683D01*
X-20339Y-118767D01*
Y-120079D01*
X-19683Y-120735D01*
X-17715D01*
X-24275Y-118112D02*
X-21651D01*
Y-120079D01*
X-22963Y-119423D01*
X-23619D01*
X-24275Y-120079D01*
Y-121391D01*
X-23619Y-122047D01*
X-22307D01*
X-21651Y-121391D01*
X-25587Y-118767D02*
X-26243Y-118112D01*
X-27555D01*
X-28211Y-118767D01*
Y-121391D01*
X-27555Y-122047D01*
X-26243D01*
X-25587Y-121391D01*
Y-118767D01*
X-29522D02*
X-30178Y-118112D01*
X-31490D01*
X-32146Y-118767D01*
Y-119423D01*
X-31490Y-120079D01*
X-30834D01*
X-31490D01*
X-32146Y-120735D01*
Y-121391D01*
X-31490Y-122047D01*
X-30178D01*
X-29522Y-121391D01*
X-11811Y-125986D02*
X-14435D01*
X-13123D01*
Y-129921D01*
X-15747D02*
Y-125986D01*
X-17715D01*
X-18371Y-126641D01*
Y-127953D01*
X-17715Y-128609D01*
X-15747D01*
X-22306Y-125986D02*
X-19682D01*
Y-127953D01*
X-20994Y-127297D01*
X-21650D01*
X-22306Y-127953D01*
Y-129265D01*
X-21650Y-129921D01*
X-20338D01*
X-19682Y-129265D01*
X-23618Y-126641D02*
X-24274Y-125986D01*
X-25586D01*
X-26242Y-126641D01*
Y-129265D01*
X-25586Y-129921D01*
X-24274D01*
X-23618Y-129265D01*
Y-126641D01*
X-29522Y-129921D02*
Y-125986D01*
X-27554Y-127953D01*
X-30178D01*
X52756Y-24017D02*
X50132D01*
X51444D01*
Y-27953D01*
X48820D02*
Y-24017D01*
X46852D01*
X46196Y-24673D01*
Y-25985D01*
X46852Y-26641D01*
X48820D01*
X42261Y-24017D02*
X44884D01*
Y-25985D01*
X43573Y-25329D01*
X42917D01*
X42261Y-25985D01*
Y-27297D01*
X42917Y-27953D01*
X44229D01*
X44884Y-27297D01*
X40949Y-24673D02*
X40293Y-24017D01*
X38981D01*
X38325Y-24673D01*
Y-27297D01*
X38981Y-27953D01*
X40293D01*
X40949Y-27297D01*
Y-24673D01*
X34389Y-24017D02*
X37013D01*
Y-25985D01*
X35701Y-25329D01*
X35045D01*
X34389Y-25985D01*
Y-27297D01*
X35045Y-27953D01*
X36357D01*
X37013Y-27297D01*
X1575Y-131497D02*
X-1049D01*
X263D01*
Y-135433D01*
X-2361D02*
Y-131497D01*
X-4329D01*
X-4985Y-132153D01*
Y-133465D01*
X-4329Y-134121D01*
X-2361D01*
X-8920Y-131497D02*
X-6297D01*
Y-133465D01*
X-7609Y-132809D01*
X-8264D01*
X-8920Y-133465D01*
Y-134777D01*
X-8264Y-135433D01*
X-6953D01*
X-6297Y-134777D01*
X-10232Y-132153D02*
X-10888Y-131497D01*
X-12200D01*
X-12856Y-132153D01*
Y-134777D01*
X-12200Y-135433D01*
X-10888D01*
X-10232Y-134777D01*
Y-132153D01*
X-16792Y-131497D02*
X-15480Y-132153D01*
X-14168Y-133465D01*
Y-134777D01*
X-14824Y-135433D01*
X-16136D01*
X-16792Y-134777D01*
Y-134121D01*
X-16136Y-133465D01*
X-14168D01*
X2362Y-138190D02*
X-262D01*
X1050D01*
Y-142126D01*
X-1574D02*
Y-138190D01*
X-3541D01*
X-4197Y-138846D01*
Y-140158D01*
X-3541Y-140814D01*
X-1574D01*
X-8133Y-138190D02*
X-5509D01*
Y-140158D01*
X-6821Y-139502D01*
X-7477D01*
X-8133Y-140158D01*
Y-141470D01*
X-7477Y-142126D01*
X-6165D01*
X-5509Y-141470D01*
X-9445Y-138846D02*
X-10101Y-138190D01*
X-11413D01*
X-12069Y-138846D01*
Y-141470D01*
X-11413Y-142126D01*
X-10101D01*
X-9445Y-141470D01*
Y-138846D01*
X-13381Y-138190D02*
X-16005D01*
Y-138846D01*
X-13381Y-141470D01*
Y-142126D01*
X2756Y-144883D02*
X132D01*
X1444D01*
Y-148819D01*
X-1180D02*
Y-144883D01*
X-3148D01*
X-3804Y-145539D01*
Y-146851D01*
X-3148Y-147507D01*
X-1180D01*
X-7739Y-144883D02*
X-5116D01*
Y-146851D01*
X-6427Y-146195D01*
X-7083D01*
X-7739Y-146851D01*
Y-148163D01*
X-7083Y-148819D01*
X-5771D01*
X-5116Y-148163D01*
X-9051Y-145539D02*
X-9707Y-144883D01*
X-11019D01*
X-11675Y-145539D01*
Y-148163D01*
X-11019Y-148819D01*
X-9707D01*
X-9051Y-148163D01*
Y-145539D01*
X-12987D02*
X-13643Y-144883D01*
X-14955D01*
X-15611Y-145539D01*
Y-146195D01*
X-14955Y-146851D01*
X-15611Y-147507D01*
Y-148163D01*
X-14955Y-148819D01*
X-13643D01*
X-12987Y-148163D01*
Y-147507D01*
X-13643Y-146851D01*
X-12987Y-146195D01*
Y-145539D01*
X-13643Y-146851D02*
X-14955D01*
X-27953Y-85434D02*
X-30577D01*
X-29265D01*
Y-89370D01*
X-31888D02*
Y-85434D01*
X-33856D01*
X-34512Y-86090D01*
Y-87402D01*
X-33856Y-88058D01*
X-31888D01*
X-38448Y-85434D02*
X-35824D01*
Y-87402D01*
X-37136Y-86746D01*
X-37792D01*
X-38448Y-87402D01*
Y-88714D01*
X-37792Y-89370D01*
X-36480D01*
X-35824Y-88714D01*
X-39760Y-86090D02*
X-40416Y-85434D01*
X-41728D01*
X-42384Y-86090D01*
Y-88714D01*
X-41728Y-89370D01*
X-40416D01*
X-39760Y-88714D01*
Y-86090D01*
X-43696Y-88714D02*
X-44352Y-89370D01*
X-45664D01*
X-46319Y-88714D01*
Y-86090D01*
X-45664Y-85434D01*
X-44352D01*
X-43696Y-86090D01*
Y-86746D01*
X-44352Y-87402D01*
X-46319D01*
X-39370Y-58663D02*
X-41994D01*
X-40682D01*
Y-62598D01*
X-43306D02*
Y-58663D01*
X-45274D01*
X-45930Y-59319D01*
Y-60631D01*
X-45274Y-61286D01*
X-43306D01*
X-49865Y-58663D02*
X-47242D01*
Y-60631D01*
X-48553Y-59975D01*
X-49209D01*
X-49865Y-60631D01*
Y-61942D01*
X-49209Y-62598D01*
X-47897D01*
X-47242Y-61942D01*
X-51177Y-62598D02*
X-52489D01*
X-51833D01*
Y-58663D01*
X-51177Y-59319D01*
X-54457D02*
X-55113Y-58663D01*
X-56425D01*
X-57081Y-59319D01*
Y-61942D01*
X-56425Y-62598D01*
X-55113D01*
X-54457Y-61942D01*
Y-59319D01*
X104724Y-35041D02*
X102101D01*
X103412D01*
Y-38976D01*
X100789D02*
Y-35041D01*
X98821D01*
X98165Y-35697D01*
Y-37009D01*
X98821Y-37664D01*
X100789D01*
X94229Y-35041D02*
X96853D01*
Y-37009D01*
X95541Y-36353D01*
X94885D01*
X94229Y-37009D01*
Y-38320D01*
X94885Y-38976D01*
X96197D01*
X96853Y-38320D01*
X92917Y-38976D02*
X91605D01*
X92261D01*
Y-35041D01*
X92917Y-35697D01*
X89637Y-38976D02*
X88326D01*
X88981D01*
Y-35041D01*
X89637Y-35697D01*
X87795Y76770D02*
X85172D01*
X86483D01*
Y72835D01*
X83859D02*
Y76770D01*
X81892D01*
X81236Y76114D01*
Y74803D01*
X81892Y74147D01*
X83859D01*
X77300Y76770D02*
X79924D01*
Y74803D01*
X78612Y75459D01*
X77956D01*
X77300Y74803D01*
Y73491D01*
X77956Y72835D01*
X79268D01*
X79924Y73491D01*
X75988Y72835D02*
X74676D01*
X75332D01*
Y76770D01*
X75988Y76114D01*
X70085Y72835D02*
X72708D01*
X70085Y75459D01*
Y76114D01*
X70740Y76770D01*
X72052D01*
X72708Y76114D01*
X137795Y48030D02*
X135171D01*
X136483D01*
Y44094D01*
X133860D02*
Y48030D01*
X131892D01*
X131236Y47374D01*
Y46062D01*
X131892Y45406D01*
X133860D01*
X127300Y48030D02*
X129924D01*
Y46062D01*
X128612Y46718D01*
X127956D01*
X127300Y46062D01*
Y44750D01*
X127956Y44094D01*
X129268D01*
X129924Y44750D01*
X125988Y44094D02*
X124676D01*
X125332D01*
Y48030D01*
X125988Y47374D01*
X122708D02*
X122052Y48030D01*
X120740D01*
X120085Y47374D01*
Y46718D01*
X120740Y46062D01*
X121396D01*
X120740D01*
X120085Y45406D01*
Y44750D01*
X120740Y44094D01*
X122052D01*
X122708Y44750D01*
X-107874Y50786D02*
X-110498D01*
X-109186D01*
Y46850D01*
X-111810D02*
Y50786D01*
X-113778D01*
X-114434Y50130D01*
Y48818D01*
X-113778Y48162D01*
X-111810D01*
X-118369Y50786D02*
X-115745D01*
Y48818D01*
X-117057Y49474D01*
X-117713D01*
X-118369Y48818D01*
Y47506D01*
X-117713Y46850D01*
X-116402D01*
X-115745Y47506D01*
X-119681Y46850D02*
X-120993D01*
X-120337D01*
Y50786D01*
X-119681Y50130D01*
X-124929Y46850D02*
Y50786D01*
X-122961Y48818D01*
X-125585D01*
X125197Y85038D02*
X122573D01*
X123885D01*
Y81102D01*
X121261D02*
Y85038D01*
X119293D01*
X118637Y84382D01*
Y83070D01*
X119293Y82414D01*
X121261D01*
X114701Y85038D02*
X117325D01*
Y83070D01*
X116014Y83726D01*
X115357D01*
X114701Y83070D01*
Y81758D01*
X115357Y81102D01*
X116669D01*
X117325Y81758D01*
X113390Y81102D02*
X112078D01*
X112734D01*
Y85038D01*
X113390Y84382D01*
X107486Y85038D02*
X110110D01*
Y83070D01*
X108798Y83726D01*
X108142D01*
X107486Y83070D01*
Y81758D01*
X108142Y81102D01*
X109454D01*
X110110Y81758D01*
X32677Y143700D02*
X30053D01*
X31365D01*
Y139764D01*
X28741D02*
Y143700D01*
X26774D01*
X26118Y143044D01*
Y141732D01*
X26774Y141076D01*
X28741D01*
X22182Y143700D02*
X24806D01*
Y141732D01*
X23494Y142388D01*
X22838D01*
X22182Y141732D01*
Y140420D01*
X22838Y139764D01*
X24150D01*
X24806Y140420D01*
X20870Y139764D02*
X19558D01*
X20214D01*
Y143700D01*
X20870Y143044D01*
X14966Y143700D02*
X16278Y143044D01*
X17590Y141732D01*
Y140420D01*
X16934Y139764D01*
X15622D01*
X14966Y140420D01*
Y141076D01*
X15622Y141732D01*
X17590D01*
X-105905Y38975D02*
X-108529D01*
X-107217D01*
Y35039D01*
X-109841D02*
Y38975D01*
X-111809D01*
X-112465Y38319D01*
Y37007D01*
X-111809Y36351D01*
X-109841D01*
X-116401Y38975D02*
X-113777D01*
Y37007D01*
X-115089Y37663D01*
X-115745D01*
X-116401Y37007D01*
Y35695D01*
X-115745Y35039D01*
X-114433D01*
X-113777Y35695D01*
X-117713Y35039D02*
X-119025D01*
X-118369D01*
Y38975D01*
X-117713Y38319D01*
X-120993Y38975D02*
X-123616D01*
Y38319D01*
X-120993Y35695D01*
Y35039D01*
X-130709Y33463D02*
X-133333D01*
X-132021D01*
Y29528D01*
X-134644D02*
Y33463D01*
X-136612D01*
X-137268Y32807D01*
Y31495D01*
X-136612Y30839D01*
X-134644D01*
X-141204Y33463D02*
X-138580D01*
Y31495D01*
X-139892Y32151D01*
X-140548D01*
X-141204Y31495D01*
Y30184D01*
X-140548Y29528D01*
X-139236D01*
X-138580Y30184D01*
X-142516Y29528D02*
X-143828D01*
X-143172D01*
Y33463D01*
X-142516Y32807D01*
X-145796D02*
X-146452Y33463D01*
X-147764D01*
X-148419Y32807D01*
Y32151D01*
X-147764Y31495D01*
X-148419Y30839D01*
Y30184D01*
X-147764Y29528D01*
X-146452D01*
X-145796Y30184D01*
Y30839D01*
X-146452Y31495D01*
X-145796Y32151D01*
Y32807D01*
X-146452Y31495D02*
X-147764D01*
X-131890Y18896D02*
X-134514D01*
X-133202D01*
Y14961D01*
X-135826D02*
Y18896D01*
X-137793D01*
X-138449Y18240D01*
Y16928D01*
X-137793Y16273D01*
X-135826D01*
X-142385Y18896D02*
X-139761D01*
Y16928D01*
X-141073Y17584D01*
X-141729D01*
X-142385Y16928D01*
Y15617D01*
X-141729Y14961D01*
X-140417D01*
X-139761Y15617D01*
X-143697Y14961D02*
X-145009D01*
X-144353D01*
Y18896D01*
X-143697Y18240D01*
X-146977Y15617D02*
X-147633Y14961D01*
X-148945D01*
X-149601Y15617D01*
Y18240D01*
X-148945Y18896D01*
X-147633D01*
X-146977Y18240D01*
Y17584D01*
X-147633Y16928D01*
X-149601D01*
X3543Y150786D02*
X919D01*
X2231D01*
Y146850D01*
X-392D02*
Y150786D01*
X-2360D01*
X-3016Y150130D01*
Y148818D01*
X-2360Y148162D01*
X-392D01*
X-6952Y150786D02*
X-4328D01*
Y148818D01*
X-5640Y149474D01*
X-6296D01*
X-6952Y148818D01*
Y147506D01*
X-6296Y146850D01*
X-4984D01*
X-4328Y147506D01*
X-10888Y146850D02*
X-8264D01*
X-10888Y149474D01*
Y150130D01*
X-10232Y150786D01*
X-8920D01*
X-8264Y150130D01*
X-12200D02*
X-12856Y150786D01*
X-14167D01*
X-14823Y150130D01*
Y147506D01*
X-14167Y146850D01*
X-12856D01*
X-12200Y147506D01*
Y150130D01*
X-19291Y141731D02*
X-21915D01*
X-20603D01*
Y137795D01*
X-23227D02*
Y141731D01*
X-25195D01*
X-25851Y141075D01*
Y139763D01*
X-25195Y139107D01*
X-23227D01*
X-29787Y141731D02*
X-27163D01*
Y139763D01*
X-28475Y140419D01*
X-29131D01*
X-29787Y139763D01*
Y138451D01*
X-29131Y137795D01*
X-27819D01*
X-27163Y138451D01*
X-33722Y137795D02*
X-31099D01*
X-33722Y140419D01*
Y141075D01*
X-33066Y141731D01*
X-31754D01*
X-31099Y141075D01*
X-35034Y137795D02*
X-36346D01*
X-35690D01*
Y141731D01*
X-35034Y141075D01*
M02*
