G04*
G04 #@! TF.GenerationSoftware,Altium Limited,CircuitStudio,1.5.2 (30)*
G04*
G04 Layer_Color=20142*
%FSLAX25Y25*%
%MOIN*%
G70*
G01*
G75*
G04:AMPARAMS|DCode=58|XSize=62.99mil|YSize=14.96mil|CornerRadius=4.72mil|HoleSize=0mil|Usage=FLASHONLY|Rotation=0.000|XOffset=0mil|YOffset=0mil|HoleType=Round|Shape=RoundedRectangle|*
%AMROUNDEDRECTD58*
21,1,0.06299,0.00551,0,0,0.0*
21,1,0.05354,0.01496,0,0,0.0*
1,1,0.00945,0.02677,-0.00276*
1,1,0.00945,-0.02677,-0.00276*
1,1,0.00945,-0.02677,0.00276*
1,1,0.00945,0.02677,0.00276*
%
%ADD58ROUNDEDRECTD58*%
G04:AMPARAMS|DCode=59|XSize=27.56mil|YSize=27.56mil|CornerRadius=7.87mil|HoleSize=0mil|Usage=FLASHONLY|Rotation=0.000|XOffset=0mil|YOffset=0mil|HoleType=Round|Shape=RoundedRectangle|*
%AMROUNDEDRECTD59*
21,1,0.02756,0.01181,0,0,0.0*
21,1,0.01181,0.02756,0,0,0.0*
1,1,0.01575,0.00591,-0.00591*
1,1,0.01575,-0.00591,-0.00591*
1,1,0.01575,-0.00591,0.00591*
1,1,0.01575,0.00591,0.00591*
%
%ADD59ROUNDEDRECTD59*%
G04:AMPARAMS|DCode=60|XSize=45.28mil|YSize=74.8mil|CornerRadius=12.3mil|HoleSize=0mil|Usage=FLASHONLY|Rotation=90.000|XOffset=0mil|YOffset=0mil|HoleType=Round|Shape=RoundedRectangle|*
%AMROUNDEDRECTD60*
21,1,0.04528,0.05020,0,0,90.0*
21,1,0.02067,0.07480,0,0,90.0*
1,1,0.02461,0.02510,0.01034*
1,1,0.02461,0.02510,-0.01034*
1,1,0.02461,-0.02510,-0.01034*
1,1,0.02461,-0.02510,0.01034*
%
%ADD60ROUNDEDRECTD60*%
G04:AMPARAMS|DCode=61|XSize=27.56mil|YSize=27.56mil|CornerRadius=7.87mil|HoleSize=0mil|Usage=FLASHONLY|Rotation=90.000|XOffset=0mil|YOffset=0mil|HoleType=Round|Shape=RoundedRectangle|*
%AMROUNDEDRECTD61*
21,1,0.02756,0.01181,0,0,90.0*
21,1,0.01181,0.02756,0,0,90.0*
1,1,0.01575,0.00591,0.00591*
1,1,0.01575,0.00591,-0.00591*
1,1,0.01575,-0.00591,-0.00591*
1,1,0.01575,-0.00591,0.00591*
%
%ADD61ROUNDEDRECTD61*%
G04:AMPARAMS|DCode=62|XSize=45.28mil|YSize=74.8mil|CornerRadius=12.3mil|HoleSize=0mil|Usage=FLASHONLY|Rotation=0.000|XOffset=0mil|YOffset=0mil|HoleType=Round|Shape=RoundedRectangle|*
%AMROUNDEDRECTD62*
21,1,0.04528,0.05020,0,0,0.0*
21,1,0.02067,0.07480,0,0,0.0*
1,1,0.02461,0.01034,-0.02510*
1,1,0.02461,-0.01034,-0.02510*
1,1,0.02461,-0.01034,0.02510*
1,1,0.02461,0.01034,0.02510*
%
%ADD62ROUNDEDRECTD62*%
G04:AMPARAMS|DCode=63|XSize=62.99mil|YSize=62.99mil|CornerRadius=16.73mil|HoleSize=0mil|Usage=FLASHONLY|Rotation=180.000|XOffset=0mil|YOffset=0mil|HoleType=Round|Shape=RoundedRectangle|*
%AMROUNDEDRECTD63*
21,1,0.06299,0.02953,0,0,180.0*
21,1,0.02953,0.06299,0,0,180.0*
1,1,0.03347,-0.01476,0.01476*
1,1,0.03347,0.01476,0.01476*
1,1,0.03347,0.01476,-0.01476*
1,1,0.03347,-0.01476,-0.01476*
%
%ADD63ROUNDEDRECTD63*%
G04:AMPARAMS|DCode=64|XSize=33.47mil|YSize=43.31mil|CornerRadius=9.35mil|HoleSize=0mil|Usage=FLASHONLY|Rotation=0.000|XOffset=0mil|YOffset=0mil|HoleType=Round|Shape=RoundedRectangle|*
%AMROUNDEDRECTD64*
21,1,0.03347,0.02461,0,0,0.0*
21,1,0.01476,0.04331,0,0,0.0*
1,1,0.01870,0.00738,-0.01230*
1,1,0.01870,-0.00738,-0.01230*
1,1,0.01870,-0.00738,0.01230*
1,1,0.01870,0.00738,0.01230*
%
%ADD64ROUNDEDRECTD64*%
G04:AMPARAMS|DCode=65|XSize=57.09mil|YSize=35.43mil|CornerRadius=9.84mil|HoleSize=0mil|Usage=FLASHONLY|Rotation=90.000|XOffset=0mil|YOffset=0mil|HoleType=Round|Shape=RoundedRectangle|*
%AMROUNDEDRECTD65*
21,1,0.05709,0.01575,0,0,90.0*
21,1,0.03740,0.03543,0,0,90.0*
1,1,0.01969,0.00787,0.01870*
1,1,0.01969,0.00787,-0.01870*
1,1,0.01969,-0.00787,-0.01870*
1,1,0.01969,-0.00787,0.01870*
%
%ADD65ROUNDEDRECTD65*%
G04:AMPARAMS|DCode=66|XSize=57.09mil|YSize=35.43mil|CornerRadius=9.84mil|HoleSize=0mil|Usage=FLASHONLY|Rotation=0.000|XOffset=0mil|YOffset=0mil|HoleType=Round|Shape=RoundedRectangle|*
%AMROUNDEDRECTD66*
21,1,0.05709,0.01575,0,0,0.0*
21,1,0.03740,0.03543,0,0,0.0*
1,1,0.01969,0.01870,-0.00787*
1,1,0.01969,-0.01870,-0.00787*
1,1,0.01969,-0.01870,0.00787*
1,1,0.01969,0.01870,0.00787*
%
%ADD66ROUNDEDRECTD66*%
%ADD67R,0.06094X0.04094*%
G04:AMPARAMS|DCode=68|XSize=27.94mil|YSize=11.94mil|CornerRadius=3.97mil|HoleSize=0mil|Usage=FLASHONLY|Rotation=90.000|XOffset=0mil|YOffset=0mil|HoleType=Round|Shape=RoundedRectangle|*
%AMROUNDEDRECTD68*
21,1,0.02794,0.00400,0,0,90.0*
21,1,0.02000,0.01194,0,0,90.0*
1,1,0.00794,0.00200,0.01000*
1,1,0.00794,0.00200,-0.01000*
1,1,0.00794,-0.00200,-0.01000*
1,1,0.00794,-0.00200,0.01000*
%
%ADD68ROUNDEDRECTD68*%
%ADD69R,0.14173X0.10630*%
G04:AMPARAMS|DCode=70|XSize=64.96mil|YSize=27.56mil|CornerRadius=7.87mil|HoleSize=0mil|Usage=FLASHONLY|Rotation=270.000|XOffset=0mil|YOffset=0mil|HoleType=Round|Shape=RoundedRectangle|*
%AMROUNDEDRECTD70*
21,1,0.06496,0.01181,0,0,270.0*
21,1,0.04921,0.02756,0,0,270.0*
1,1,0.01575,-0.00591,-0.02461*
1,1,0.01575,-0.00591,0.02461*
1,1,0.01575,0.00591,0.02461*
1,1,0.01575,0.00591,-0.02461*
%
%ADD70ROUNDEDRECTD70*%
G04:AMPARAMS|DCode=71|XSize=23.62mil|YSize=133.86mil|CornerRadius=6.89mil|HoleSize=0mil|Usage=FLASHONLY|Rotation=180.000|XOffset=0mil|YOffset=0mil|HoleType=Round|Shape=RoundedRectangle|*
%AMROUNDEDRECTD71*
21,1,0.02362,0.12008,0,0,180.0*
21,1,0.00984,0.13386,0,0,180.0*
1,1,0.01378,-0.00492,0.06004*
1,1,0.01378,0.00492,0.06004*
1,1,0.01378,0.00492,-0.06004*
1,1,0.01378,-0.00492,-0.06004*
%
%ADD71ROUNDEDRECTD71*%
G04:AMPARAMS|DCode=72|XSize=55.12mil|YSize=133.86mil|CornerRadius=4.53mil|HoleSize=0mil|Usage=FLASHONLY|Rotation=180.000|XOffset=0mil|YOffset=0mil|HoleType=Round|Shape=RoundedRectangle|*
%AMROUNDEDRECTD72*
21,1,0.05512,0.12480,0,0,180.0*
21,1,0.04606,0.13386,0,0,180.0*
1,1,0.00906,-0.02303,0.06240*
1,1,0.00906,0.02303,0.06240*
1,1,0.00906,0.02303,-0.06240*
1,1,0.00906,-0.02303,-0.06240*
%
%ADD72ROUNDEDRECTD72*%
%ADD73C,0.10236*%
%ADD74R,0.05315X0.05315*%
%ADD75C,0.05315*%
%ADD76C,0.00394*%
%ADD77C,0.07874*%
G36*
X-136130Y-35100D02*
Y-35105D01*
X-136144Y-35078D01*
X-136130Y-35100D01*
D02*
G37*
G36*
X-121886Y-38167D02*
X-121927D01*
Y-38160D01*
X-121900Y-38157D01*
X-121886Y-38167D01*
D02*
G37*
G36*
X-122993Y-38413D02*
X-123021D01*
Y-38405D01*
X-123012Y-38404D01*
X-122993Y-38413D01*
D02*
G37*
G36*
X-136685Y-33834D02*
X-136690D01*
Y-33820D01*
X-136685Y-33834D01*
D02*
G37*
G36*
X-126260Y-18974D02*
X-126110D01*
X-125918Y-19002D01*
X-125700Y-19029D01*
X-125454Y-19070D01*
X-125194Y-19139D01*
X-124934Y-19207D01*
X-124907D01*
X-124811Y-19234D01*
X-124688Y-19262D01*
X-124551Y-19302D01*
X-124538D01*
X-124524Y-19316D01*
X-124442Y-19343D01*
X-124319Y-19385D01*
X-124196Y-19439D01*
X-124182D01*
X-124155Y-19453D01*
X-124100D01*
X-124046Y-19466D01*
X-124032D01*
X-124005Y-19480D01*
X-123977Y-19494D01*
X-123936Y-19535D01*
X-123895D01*
X-123854Y-19562D01*
X-123786Y-19590D01*
X-123772D01*
X-123745Y-19617D01*
X-123704Y-19644D01*
X-123677Y-19672D01*
X-123663Y-19685D01*
X-123608Y-19713D01*
X-123526Y-19754D01*
X-123444Y-19808D01*
X-123431Y-19822D01*
X-123390Y-19849D01*
X-123321Y-19877D01*
X-123253Y-19931D01*
X-123225Y-19945D01*
X-123171Y-19986D01*
X-123143Y-20000D01*
X-123089Y-20068D01*
X-123075D01*
X-123048Y-20095D01*
Y-20109D01*
X-123034Y-20123D01*
X-122829Y-20341D01*
X-122474Y-20820D01*
X-122487D01*
X-122501Y-20806D01*
X-122583Y-20793D01*
X-122692Y-20765D01*
X-122816Y-20738D01*
X-122829D01*
X-122843Y-20724D01*
X-122925Y-20710D01*
X-123048Y-20683D01*
X-123185Y-20670D01*
X-123280D01*
X-123335Y-20656D01*
X-123431D01*
X-123485Y-20683D01*
X-123499Y-20697D01*
X-123526Y-20710D01*
X-123540Y-20752D01*
X-123554D01*
X-123567Y-20779D01*
X-123608Y-20833D01*
X-123622Y-20847D01*
X-123649Y-20888D01*
X-123677Y-20957D01*
X-123704Y-21039D01*
X-123718Y-21052D01*
X-123731Y-21107D01*
X-123759Y-21175D01*
X-123800Y-21257D01*
X-123813Y-21285D01*
X-123868Y-21353D01*
X-123909Y-21449D01*
X-123964Y-21572D01*
Y-21585D01*
X-123977Y-21599D01*
X-124005Y-21681D01*
X-124046Y-21790D01*
X-124100Y-21914D01*
X-124114Y-21941D01*
X-124141Y-22009D01*
X-124169Y-22105D01*
X-124210Y-22214D01*
X-124223Y-22242D01*
X-124237Y-22296D01*
X-124278Y-22392D01*
X-124305Y-22488D01*
X-124319Y-22501D01*
X-124333Y-22542D01*
X-124346Y-22611D01*
Y-22679D01*
Y-22693D01*
X-124360Y-22734D01*
X-124374Y-22788D01*
X-124401Y-22857D01*
Y-22870D01*
X-124415Y-22925D01*
X-124428Y-22993D01*
X-124442Y-23075D01*
X-124456Y-23089D01*
X-124469Y-23144D01*
X-124483Y-23212D01*
X-124497Y-23294D01*
X-124511Y-23322D01*
X-124524Y-23390D01*
X-124538Y-23417D01*
Y-23458D01*
X-124524Y-23472D01*
X-124483Y-23527D01*
X-124456Y-23554D01*
X-124415Y-23581D01*
X-124401Y-23595D01*
X-124374Y-23636D01*
X-124319Y-23704D01*
X-124265Y-23773D01*
X-124251Y-23786D01*
X-124223Y-23827D01*
X-124169Y-23882D01*
X-124100Y-23937D01*
X-124087Y-23950D01*
X-124046Y-23991D01*
X-123977Y-24060D01*
X-123895Y-24142D01*
X-123882Y-24155D01*
X-123827Y-24196D01*
X-123759Y-24251D01*
X-123677Y-24319D01*
X-123663Y-24333D01*
X-123608Y-24360D01*
X-123540Y-24401D01*
X-123444Y-24456D01*
X-123431Y-24470D01*
X-123376Y-24483D01*
X-123294Y-24524D01*
X-123212Y-24565D01*
X-123198D01*
X-123171Y-24579D01*
X-123130Y-24593D01*
X-123075Y-24620D01*
X-122952Y-24675D01*
X-122802Y-24730D01*
X-122788D01*
X-122774Y-24743D01*
X-122542D01*
X-122364Y-24716D01*
X-122351D01*
X-122323Y-24702D01*
X-122282D01*
X-122228Y-24675D01*
X-122091Y-24620D01*
X-122023Y-24565D01*
X-121954Y-24511D01*
X-121941Y-24497D01*
X-121927Y-24483D01*
X-121845Y-24401D01*
X-121736Y-24292D01*
X-121613Y-24196D01*
Y-24210D01*
Y-24224D01*
X-121626Y-24306D01*
Y-24319D01*
X-121640Y-24347D01*
Y-24374D01*
X-121653Y-24388D01*
Y-24401D01*
Y-24442D01*
X-121667Y-24497D01*
X-121681Y-24565D01*
Y-24579D01*
X-121695Y-24620D01*
X-121736Y-24716D01*
Y-24730D01*
X-121749Y-24743D01*
X-121763Y-24812D01*
X-121804Y-24921D01*
X-121831Y-25030D01*
X-121845Y-25058D01*
X-121872Y-25112D01*
X-121913Y-25208D01*
X-121954Y-25317D01*
Y-25331D01*
X-121968Y-25358D01*
X-121995Y-25399D01*
X-122009Y-25468D01*
Y-25481D01*
X-122023Y-25509D01*
X-122050Y-25550D01*
X-122077Y-25591D01*
X-122091Y-25659D01*
X-122173Y-25823D01*
X-122364Y-26124D01*
X-122446Y-26274D01*
X-122460Y-26288D01*
X-122501Y-26356D01*
X-122515D01*
X-122528Y-26384D01*
X-122556Y-26438D01*
X-122569Y-26452D01*
X-122610Y-26507D01*
X-122651Y-26602D01*
X-122679Y-26712D01*
Y-26739D01*
Y-26807D01*
Y-26889D01*
X-122638Y-26985D01*
Y-26999D01*
X-122610Y-27026D01*
X-122542Y-27122D01*
X-122515Y-27149D01*
X-122460Y-27217D01*
X-122446D01*
X-122419Y-27231D01*
X-122392Y-27245D01*
X-122337Y-27286D01*
X-122323Y-27299D01*
X-122310Y-27327D01*
X-122269Y-27354D01*
X-122228Y-27368D01*
X-122200Y-27382D01*
X-122132Y-27422D01*
X-122036Y-27491D01*
X-121913Y-27559D01*
X-121900D01*
X-121886Y-27573D01*
X-121818Y-27614D01*
X-121708Y-27668D01*
X-121599Y-27737D01*
X-121585D01*
X-121558Y-27751D01*
X-121517Y-27778D01*
X-121449Y-27805D01*
X-121435D01*
X-121407Y-27819D01*
X-121366Y-27846D01*
X-121339Y-27887D01*
X-121312D01*
X-121257Y-27901D01*
X-121175Y-27928D01*
X-121066Y-27997D01*
X-121038Y-28010D01*
X-120984Y-28065D01*
X-120902Y-28120D01*
X-120806Y-28174D01*
X-120779Y-28188D01*
X-120710Y-28229D01*
X-120697D01*
X-120683Y-28243D01*
X-120615Y-28311D01*
X-120410Y-28448D01*
Y-28489D01*
X-120369D01*
X-120327Y-28502D01*
X-120287Y-28530D01*
X-120259Y-28557D01*
X-120232Y-28584D01*
X-119999Y-28776D01*
X-119808Y-28953D01*
X-119767D01*
X-119699Y-29063D01*
X-119630Y-29090D01*
X-119617Y-29145D01*
X-119466Y-29254D01*
X-119480D01*
Y-29282D01*
X-119453D01*
X-119425Y-29295D01*
X-119398Y-29323D01*
X-119384Y-29336D01*
X-119371Y-29391D01*
X-119357D01*
X-119330Y-29405D01*
X-119289Y-29432D01*
X-119248Y-29473D01*
Y-29487D01*
X-119220Y-29514D01*
X-119179Y-29582D01*
Y-29623D01*
X-119152Y-29610D01*
X-119043Y-29760D01*
X-118906Y-29924D01*
X-118632Y-30334D01*
X-118660Y-30375D01*
X-118646Y-30389D01*
X-118619Y-30402D01*
X-118564Y-30457D01*
X-118523Y-30526D01*
Y-30539D01*
X-118496Y-30594D01*
X-118468Y-30649D01*
X-118441Y-30717D01*
Y-30731D01*
X-118427Y-30758D01*
X-118400Y-30813D01*
X-118373Y-30867D01*
X-118304Y-31031D01*
X-118222Y-31209D01*
Y-31223D01*
X-118209Y-31250D01*
X-118181Y-31305D01*
X-118154Y-31359D01*
X-118086Y-31523D01*
X-118017Y-31715D01*
X-118004Y-31742D01*
X-117990Y-31824D01*
X-117949Y-31947D01*
X-117908Y-32111D01*
X-117867Y-32316D01*
X-117826Y-32535D01*
X-117799Y-32795D01*
X-117771Y-33055D01*
Y-33068D01*
Y-33082D01*
Y-33123D01*
Y-33178D01*
Y-33314D01*
Y-33492D01*
Y-33697D01*
X-117799Y-33929D01*
X-117826Y-34176D01*
X-117867Y-34408D01*
Y-34422D01*
X-117881Y-34476D01*
X-117908Y-34558D01*
X-117949Y-34668D01*
X-117976Y-34791D01*
X-118031Y-34927D01*
X-118140Y-35214D01*
X-118154Y-35228D01*
X-118168Y-35283D01*
X-118209Y-35351D01*
X-118250Y-35447D01*
X-118304Y-35556D01*
X-118373Y-35679D01*
X-118537Y-35953D01*
Y-35966D01*
X-118564Y-35994D01*
X-118591Y-36035D01*
X-118619Y-36089D01*
X-118714Y-36226D01*
X-118824Y-36390D01*
X-118837Y-36404D01*
X-118851Y-36431D01*
X-118878Y-36458D01*
X-118933Y-36513D01*
X-119029Y-36650D01*
X-119152Y-36786D01*
X-119166Y-36800D01*
X-119193Y-36827D01*
X-119234Y-36882D01*
X-119275Y-36937D01*
X-119289Y-36950D01*
X-119316Y-36978D01*
X-119371Y-37019D01*
X-119425Y-37060D01*
X-119398Y-37101D01*
X-119425Y-37115D01*
X-119494Y-37156D01*
X-119712Y-37347D01*
X-120574Y-37757D01*
X-120833Y-37812D01*
X-121449Y-38044D01*
X-121476D01*
Y-38071D01*
X-121544D01*
X-121599Y-38112D01*
X-121640Y-38126D01*
X-121900Y-38157D01*
X-121927Y-38140D01*
Y-38160D01*
X-121982Y-38167D01*
X-121995Y-38208D01*
X-122077D01*
X-122173Y-38222D01*
X-122282Y-38235D01*
X-122310D01*
X-122378Y-38263D01*
X-122474Y-38290D01*
X-122569Y-38331D01*
X-122679D01*
X-122720Y-38345D01*
X-122747Y-38372D01*
X-123012Y-38404D01*
X-123021Y-38399D01*
Y-38405D01*
X-123089Y-38413D01*
X-123102D01*
X-123143Y-38427D01*
X-123225D01*
X-123267Y-38440D01*
X-123321Y-38454D01*
X-123554D01*
X-123567Y-38468D01*
X-123608Y-38482D01*
X-123663Y-38495D01*
X-123868D01*
X-123936Y-38509D01*
X-124182D01*
X-124265Y-38522D01*
X-124278D01*
X-124292Y-38536D01*
X-124346Y-38550D01*
X-124374D01*
X-124401Y-38563D01*
X-124647D01*
Y-38591D01*
X-124757D01*
X-124852Y-38605D01*
X-124880D01*
X-124934Y-38618D01*
X-125016Y-38632D01*
X-125481D01*
X-125659Y-38618D01*
X-125864D01*
X-126288Y-38605D01*
X-126383D01*
X-126506Y-38591D01*
X-126821D01*
X-127026Y-38577D01*
X-127244Y-38563D01*
X-127463Y-38550D01*
X-127477D01*
X-127532Y-38536D01*
X-127846D01*
X-127942Y-38522D01*
X-127996D01*
X-128051Y-38509D01*
X-128119D01*
X-128215Y-38495D01*
X-128311Y-38482D01*
X-128530Y-38454D01*
X-128543D01*
X-128584Y-38440D01*
X-128639D01*
X-128721Y-38427D01*
X-128803Y-38413D01*
X-128912Y-38399D01*
X-129131Y-38372D01*
X-129199D01*
X-129254Y-38359D01*
X-129336Y-38345D01*
X-129486D01*
X-129568Y-38359D01*
X-129596D01*
X-129623Y-38345D01*
X-129664D01*
X-129692Y-38359D01*
X-129705Y-38345D01*
X-129733Y-38331D01*
X-129773Y-38317D01*
X-129842Y-38304D01*
X-129951D01*
X-129992Y-38317D01*
X-130156D01*
X-130170Y-38304D01*
X-130197Y-38290D01*
X-130238Y-38276D01*
X-130307Y-38263D01*
X-130361D01*
X-130471Y-38235D01*
X-130512D01*
X-130553Y-38222D01*
X-130621D01*
X-130771Y-38194D01*
X-130935Y-38181D01*
X-130976D01*
X-131031Y-38167D01*
X-131086D01*
X-131236Y-38140D01*
X-131414Y-38112D01*
X-131428D01*
X-131469Y-38099D01*
X-131537Y-38071D01*
X-131633Y-38058D01*
X-131660D01*
X-131715Y-38044D01*
X-131824D01*
X-132152Y-37948D01*
X-132712Y-37784D01*
Y-37757D01*
X-132740D01*
X-132795Y-37743D01*
X-132877Y-37730D01*
X-132972Y-37702D01*
X-133000Y-37689D01*
X-133054Y-37661D01*
X-133150Y-37634D01*
X-133246Y-37593D01*
X-133259Y-37579D01*
X-133300Y-37566D01*
X-133369Y-37552D01*
X-133437Y-37525D01*
X-133451D01*
X-133492Y-37511D01*
X-133560Y-37497D01*
X-133628Y-37470D01*
X-133656Y-37456D01*
X-133710Y-37443D01*
X-133792Y-37415D01*
X-133874Y-37374D01*
X-133902Y-37361D01*
X-133943Y-37333D01*
X-134025Y-37292D01*
X-134093Y-37238D01*
X-134107Y-37224D01*
X-134162Y-37210D01*
X-134230Y-37169D01*
X-134312Y-37128D01*
X-134326Y-37115D01*
X-134380Y-37087D01*
X-134435Y-37032D01*
X-134476Y-36964D01*
X-134490Y-36992D01*
X-134572Y-36950D01*
Y-36909D01*
X-134599D01*
X-134613Y-36896D01*
X-134654Y-36855D01*
X-134722Y-36827D01*
X-134859Y-36677D01*
X-134913D01*
X-134954Y-36581D01*
X-134982D01*
X-135023Y-36568D01*
X-135050Y-36540D01*
X-135064Y-36527D01*
X-135091Y-36513D01*
X-135173Y-36445D01*
X-135187Y-36431D01*
X-135241Y-36376D01*
X-135296Y-36308D01*
X-135364Y-36226D01*
X-135378Y-36199D01*
X-135419Y-36144D01*
X-135487Y-36062D01*
X-135556Y-35966D01*
X-135570Y-35953D01*
X-135597Y-35939D01*
X-135665Y-35857D01*
X-135679Y-35843D01*
X-135693Y-35816D01*
X-135706Y-35775D01*
X-135720Y-35720D01*
X-135761Y-35679D01*
X-135802Y-35625D01*
X-135816Y-35611D01*
X-135843Y-35583D01*
X-135884Y-35543D01*
X-135925Y-35474D01*
X-135939Y-35447D01*
X-135966Y-35406D01*
X-135973Y-35392D01*
X-135980D01*
Y-35378D01*
X-135993Y-35351D01*
X-136007Y-35296D01*
X-136034D01*
X-136048Y-35283D01*
X-136062Y-35255D01*
Y-35242D01*
X-136075Y-35228D01*
Y-35201D01*
X-136089D01*
X-136103Y-35187D01*
Y-35173D01*
Y-35146D01*
X-136130Y-35100D01*
Y-35078D01*
X-136144D01*
X-136157Y-35050D01*
X-136198Y-35023D01*
X-136226Y-34982D01*
X-136239Y-34968D01*
X-136253Y-34941D01*
X-136267Y-34886D01*
Y-34832D01*
X-136280Y-34845D01*
Y-34832D01*
Y-34818D01*
X-136294Y-34804D01*
X-136308Y-34791D01*
Y-34777D01*
X-136335Y-34654D01*
X-136362Y-34681D01*
Y-34640D01*
X-136376Y-34654D01*
X-136362Y-34627D01*
X-136376Y-34640D01*
X-136403Y-34627D01*
Y-34558D01*
X-136417D01*
Y-34545D01*
X-136403D01*
X-136417Y-34531D01*
Y-34490D01*
X-136431D01*
X-136444Y-34476D01*
X-136458Y-34462D01*
X-136472Y-34422D01*
Y-34408D01*
X-136485Y-34380D01*
X-136499Y-34312D01*
Y-34326D01*
X-136513D01*
Y-34258D01*
X-136527D01*
Y-34216D01*
X-136567Y-34176D01*
X-136554D01*
X-136567Y-34162D01*
X-136581Y-34148D01*
X-136595Y-34107D01*
Y-34080D01*
Y-34066D01*
X-136609Y-34039D01*
Y-33970D01*
X-136622Y-33984D01*
Y-33916D01*
X-136663Y-33929D01*
X-136650Y-33875D01*
X-136663D01*
Y-33888D01*
X-136685Y-33834D01*
X-136663D01*
X-136704Y-33793D01*
X-136690Y-33752D01*
X-136704Y-33779D01*
Y-33765D01*
Y-33752D01*
Y-33738D01*
X-136718D01*
Y-33724D01*
X-136704Y-33711D01*
X-136718D01*
Y-33697D01*
X-136704Y-33670D01*
Y-33656D01*
X-136745D01*
X-136718Y-33601D01*
X-136745D01*
Y-33588D01*
X-136759D01*
X-136745Y-33547D01*
X-136759Y-33560D01*
Y-33547D01*
Y-33519D01*
X-136786D01*
Y-33506D01*
X-136773Y-33465D01*
Y-33451D01*
Y-33437D01*
Y-33424D01*
X-136800D01*
X-136786Y-33369D01*
X-136800D01*
Y-33355D01*
X-136827D01*
Y-33260D01*
X-136841D01*
X-136855Y-32986D01*
X-136923Y-32836D01*
X-136896Y-32754D01*
X-136923Y-32781D01*
Y-32658D01*
X-136937Y-32562D01*
X-136950D01*
Y-32549D01*
Y-32535D01*
X-136937Y-32508D01*
X-136950Y-32494D01*
X-136964Y-32480D01*
Y-32467D01*
Y-32453D01*
X-136950Y-32426D01*
X-136964Y-32412D01*
X-136978Y-32398D01*
Y-32385D01*
X-136950Y-32330D01*
X-136991Y-32193D01*
X-137019Y-31865D01*
X-136991Y-31811D01*
X-137019D01*
Y-31769D01*
Y-31729D01*
Y-31592D01*
Y-31441D01*
Y-31428D01*
Y-31400D01*
Y-31359D01*
Y-31318D01*
Y-31182D01*
Y-31031D01*
Y-31018D01*
Y-30977D01*
Y-30922D01*
Y-30854D01*
Y-30840D01*
Y-30799D01*
X-137005Y-30744D01*
X-136978Y-30703D01*
Y-30690D01*
Y-30649D01*
Y-30594D01*
X-136964Y-30526D01*
Y-30512D01*
Y-30457D01*
X-136950Y-30389D01*
Y-30321D01*
Y-30307D01*
Y-30293D01*
X-136937Y-30211D01*
X-136923Y-30102D01*
X-136896Y-29979D01*
Y-29965D01*
Y-29951D01*
X-136882Y-29869D01*
X-136868Y-29760D01*
X-136841Y-29637D01*
Y-29610D01*
X-136827Y-29541D01*
X-136813Y-29446D01*
X-136786Y-29323D01*
X-136745Y-29159D01*
X-136704Y-28995D01*
X-136609Y-28639D01*
Y-28612D01*
X-136581Y-28557D01*
X-136554Y-28461D01*
X-136513Y-28338D01*
X-136458Y-28188D01*
X-136390Y-28024D01*
X-136226Y-27668D01*
Y-27655D01*
X-136198Y-27614D01*
X-136171Y-27559D01*
X-136130Y-27477D01*
X-136007Y-27286D01*
X-135857Y-27081D01*
X-135843Y-27067D01*
X-135816Y-27026D01*
X-135775Y-26985D01*
X-135720Y-26917D01*
X-135638Y-26835D01*
X-135556Y-26753D01*
X-135337Y-26602D01*
X-135310Y-26589D01*
X-135255Y-26561D01*
X-135160Y-26507D01*
X-135036Y-26452D01*
X-134886Y-26411D01*
X-134708Y-26370D01*
X-134531Y-26356D01*
X-134312D01*
X-134257Y-26370D01*
X-134148Y-26384D01*
X-134025Y-26425D01*
X-133874Y-26466D01*
X-133710Y-26520D01*
X-133533Y-26602D01*
X-133355Y-26698D01*
X-133341Y-26712D01*
X-133300Y-26739D01*
X-133232Y-26766D01*
X-133164Y-26821D01*
X-133150Y-26835D01*
X-133109Y-26848D01*
X-133000Y-26930D01*
X-132972Y-26944D01*
X-132918Y-26971D01*
X-132890Y-26985D01*
X-132863Y-27026D01*
X-132836D01*
X-132795Y-27053D01*
X-132781Y-27067D01*
X-132726Y-27081D01*
X-132712D01*
X-132685Y-27108D01*
X-132603Y-27163D01*
X-132589D01*
X-132562Y-27190D01*
X-132480Y-27245D01*
X-132466D01*
X-132453Y-27272D01*
X-132412Y-27286D01*
X-132357Y-27327D01*
X-132220Y-27395D01*
X-132070Y-27491D01*
X-132056D01*
X-132029Y-27505D01*
X-131988Y-27532D01*
X-131947Y-27559D01*
X-131810Y-27641D01*
X-131646Y-27723D01*
X-131633D01*
X-131592Y-27751D01*
X-131537Y-27778D01*
X-131455Y-27805D01*
X-131441D01*
X-131400Y-27833D01*
X-131345Y-27860D01*
X-131305Y-27915D01*
X-131250D01*
X-131182Y-27928D01*
X-131099Y-27969D01*
X-131086Y-27983D01*
X-131031Y-28010D01*
X-130963Y-28038D01*
X-130894Y-28065D01*
X-130881D01*
X-130853Y-28079D01*
X-130812Y-28092D01*
X-130744D01*
X-130703Y-28079D01*
X-130607Y-28065D01*
X-130539D01*
X-130484Y-28051D01*
X-130348D01*
X-130197Y-28038D01*
X-130156D01*
X-130129Y-28024D01*
X-130074Y-28010D01*
X-129938Y-27997D01*
X-129801Y-27956D01*
X-129787D01*
X-129760Y-27942D01*
X-129664Y-27901D01*
X-129650Y-27887D01*
X-129623Y-27874D01*
X-129596Y-27819D01*
X-129555Y-27764D01*
Y-27751D01*
Y-27709D01*
Y-27668D01*
X-129568Y-27614D01*
X-129582Y-27600D01*
X-129596Y-27573D01*
X-129623Y-27532D01*
X-129664Y-27491D01*
X-129678D01*
X-129692Y-27463D01*
X-129760Y-27409D01*
X-129856Y-27340D01*
X-129965Y-27245D01*
X-129979D01*
X-129992Y-27217D01*
X-130061Y-27163D01*
X-130156Y-27094D01*
X-130266Y-27012D01*
X-130279Y-26999D01*
X-130334Y-26958D01*
X-130402Y-26889D01*
X-130498Y-26807D01*
X-130607Y-26698D01*
X-130717Y-26575D01*
X-130949Y-26315D01*
X-130963Y-26302D01*
X-131004Y-26247D01*
X-131059Y-26165D01*
X-131127Y-26069D01*
X-131209Y-25946D01*
X-131291Y-25809D01*
X-131455Y-25495D01*
X-131469Y-25481D01*
X-131482Y-25440D01*
X-131523Y-25372D01*
X-131551Y-25304D01*
X-131564Y-25290D01*
X-131578Y-25235D01*
X-131605Y-25181D01*
X-131633Y-25099D01*
X-131646Y-25085D01*
X-131660Y-25058D01*
X-131687Y-24989D01*
Y-24975D01*
X-131701Y-24948D01*
Y-24907D01*
Y-24852D01*
X-131715D01*
X-131728Y-24839D01*
X-131742Y-24812D01*
X-131756Y-24770D01*
Y-24757D01*
X-131769Y-24716D01*
X-131783Y-24620D01*
Y-24607D01*
X-131797Y-24565D01*
Y-24497D01*
X-131810Y-24429D01*
Y-24415D01*
X-131824Y-24360D01*
X-131851Y-24278D01*
X-131865Y-24196D01*
Y-24183D01*
X-131879Y-24155D01*
X-131892Y-24060D01*
Y-24046D01*
X-131906Y-24005D01*
Y-23950D01*
Y-23896D01*
X-131920Y-23882D01*
Y-23868D01*
Y-23827D01*
Y-23814D01*
Y-23786D01*
Y-23718D01*
Y-23691D01*
Y-23636D01*
Y-23540D01*
Y-23431D01*
Y-23417D01*
Y-23404D01*
Y-23335D01*
Y-23253D01*
X-131906Y-23157D01*
Y-23253D01*
X-131879Y-23130D01*
X-131905D01*
X-131906Y-23144D01*
Y-23130D01*
X-131905D01*
X-131879Y-22816D01*
X-131865D01*
Y-22775D01*
X-131851Y-22720D01*
X-131838Y-22570D01*
X-131783Y-22392D01*
Y-22378D01*
X-131769Y-22351D01*
X-131756Y-22296D01*
X-131728Y-22242D01*
X-131674Y-22091D01*
X-131605Y-21914D01*
Y-21900D01*
X-131592Y-21872D01*
X-131578Y-21818D01*
X-131537Y-21749D01*
Y-21736D01*
X-131510Y-21695D01*
X-131482Y-21640D01*
X-131441Y-21613D01*
Y-21599D01*
Y-21585D01*
X-131428Y-21544D01*
X-131414Y-21531D01*
X-131400Y-21476D01*
Y-21462D01*
X-131373Y-21435D01*
X-131345Y-21380D01*
X-131305Y-21312D01*
X-131291Y-21298D01*
X-131277Y-21257D01*
X-131236Y-21216D01*
X-131182Y-21189D01*
Y-21175D01*
Y-21162D01*
X-131168Y-21121D01*
X-131154Y-21107D01*
X-131113Y-21066D01*
X-131031Y-20957D01*
Y-20943D01*
Y-20929D01*
X-131004Y-20888D01*
X-130976Y-20847D01*
X-130963Y-20833D01*
X-130949Y-20806D01*
X-130908Y-20793D01*
X-130881Y-20779D01*
X-130826Y-20670D01*
X-130771Y-20587D01*
X-130689Y-20533D01*
X-130498Y-20300D01*
X-130471Y-20314D01*
Y-20287D01*
X-130457D01*
X-130430Y-20259D01*
X-130389Y-20232D01*
X-130334Y-20191D01*
X-130320Y-20177D01*
X-130293Y-20136D01*
X-130252Y-20095D01*
X-130225Y-20054D01*
X-130211D01*
X-130170Y-20027D01*
X-130102Y-19986D01*
X-130019Y-19931D01*
X-130006Y-19918D01*
X-129965Y-19877D01*
X-129910Y-19822D01*
X-129842Y-19781D01*
X-129815Y-19767D01*
X-129773Y-19754D01*
X-129760Y-19740D01*
X-129705Y-19726D01*
X-129637Y-19672D01*
Y-19658D01*
X-129623Y-19644D01*
X-129555Y-19617D01*
X-129527Y-19603D01*
X-129459Y-19549D01*
X-129445Y-19535D01*
X-129391Y-19521D01*
X-129309Y-19480D01*
X-129227Y-19453D01*
X-129213Y-19439D01*
X-129158Y-19425D01*
X-129076Y-19398D01*
X-128994Y-19357D01*
X-128967Y-19343D01*
X-128899Y-19302D01*
X-128885D01*
X-128871Y-19289D01*
X-128830Y-19275D01*
X-128789D01*
X-128776Y-19262D01*
X-128762Y-19248D01*
X-128721Y-19234D01*
X-128666Y-19220D01*
X-128653D01*
X-128625Y-19207D01*
X-128516D01*
X-128502Y-19193D01*
X-128434Y-19180D01*
X-128324Y-19139D01*
X-128201Y-19111D01*
X-128188D01*
X-128174Y-19097D01*
X-128092Y-19084D01*
X-127983Y-19056D01*
X-127846Y-19029D01*
X-127819D01*
X-127778Y-19015D01*
X-127723D01*
X-127586Y-19002D01*
X-127395Y-18988D01*
X-127176Y-18974D01*
X-126930Y-18961D01*
X-126315D01*
X-126260Y-18974D01*
D02*
G37*
G36*
X-123185Y-20820D02*
X-123157D01*
X-123102Y-20833D01*
X-123021Y-20847D01*
X-122911Y-20875D01*
X-122884D01*
X-122829Y-20888D01*
X-122733Y-20902D01*
X-122638Y-20929D01*
X-122624D01*
X-122583Y-20943D01*
X-122528Y-20957D01*
X-122446Y-20970D01*
X-122351Y-20984D01*
X-122241Y-21011D01*
X-122009Y-21052D01*
X-121954D01*
X-121900Y-21066D01*
X-121818Y-21080D01*
X-121736Y-21093D01*
X-121626Y-21107D01*
X-121407Y-21148D01*
X-121284D01*
X-121216Y-21162D01*
X-121161D01*
X-121107Y-21175D01*
X-121038Y-21189D01*
X-121025D01*
X-120997Y-21203D01*
X-120915Y-21216D01*
X-120806D01*
Y-21230D01*
X-120779Y-21244D01*
X-120751D01*
Y-21254D01*
X-120765Y-21257D01*
X-120751D01*
Y-21254D01*
X-120710Y-21244D01*
Y-21257D01*
X-120683Y-21271D01*
X-120615Y-21326D01*
X-120601D01*
X-120587Y-21339D01*
X-120505Y-21380D01*
X-120478Y-21394D01*
X-120423Y-21449D01*
X-120341Y-21531D01*
X-120259Y-21654D01*
Y-21667D01*
X-120246Y-21681D01*
X-120218Y-21763D01*
X-120191Y-21886D01*
X-120204Y-21955D01*
X-120218Y-22023D01*
Y-22050D01*
Y-22118D01*
X-120232Y-22146D01*
X-120273Y-22187D01*
X-120410Y-22515D01*
X-120423Y-22529D01*
X-120464Y-22583D01*
X-120533Y-22652D01*
X-120628Y-22747D01*
X-120724Y-22870D01*
X-120833Y-23007D01*
X-120956Y-23157D01*
X-121066Y-23322D01*
X-121079Y-23335D01*
X-121120Y-23390D01*
X-121175Y-23485D01*
X-121271Y-23581D01*
X-121366Y-23704D01*
X-121476Y-23841D01*
X-121749Y-24128D01*
X-121763Y-24142D01*
X-121776Y-24155D01*
X-121859Y-24224D01*
X-121982Y-24333D01*
X-122132Y-24456D01*
X-122146D01*
X-122173Y-24483D01*
X-122214Y-24497D01*
X-122269Y-24524D01*
X-122419Y-24579D01*
X-122501Y-24593D01*
X-122597Y-24607D01*
X-122692D01*
X-122774Y-24593D01*
X-122870Y-24565D01*
X-122898Y-24552D01*
X-122952Y-24524D01*
X-123034Y-24483D01*
X-123130Y-24429D01*
X-123157Y-24415D01*
X-123212Y-24401D01*
X-123280Y-24360D01*
X-123362Y-24333D01*
X-123390Y-24319D01*
X-123444Y-24292D01*
X-123513Y-24251D01*
X-123595Y-24196D01*
X-123608Y-24183D01*
X-123663Y-24142D01*
X-123731Y-24073D01*
X-123800Y-24005D01*
X-123813Y-23991D01*
X-123868Y-23950D01*
X-123936Y-23882D01*
X-124005Y-23814D01*
X-124018Y-23800D01*
X-124046Y-23773D01*
X-124141Y-23691D01*
X-124155Y-23677D01*
X-124182Y-23650D01*
X-124265Y-23554D01*
X-124278Y-23540D01*
X-124292Y-23527D01*
X-124333Y-23485D01*
X-124346Y-23472D01*
X-124360Y-23417D01*
Y-23404D01*
X-124374Y-23349D01*
X-124360Y-23280D01*
X-124333Y-23185D01*
Y-23171D01*
Y-23157D01*
X-124305Y-23103D01*
X-124292Y-23021D01*
X-124265Y-22939D01*
Y-22925D01*
X-124237Y-22870D01*
X-124223Y-22816D01*
X-124210Y-22734D01*
Y-22720D01*
Y-22665D01*
X-124196Y-22597D01*
X-124169Y-22529D01*
Y-22515D01*
X-124155Y-22501D01*
X-124128Y-22419D01*
X-124100Y-22310D01*
X-124046Y-22200D01*
Y-22187D01*
X-124032Y-22173D01*
X-124005Y-22105D01*
X-123964Y-21995D01*
X-123923Y-21872D01*
Y-21859D01*
X-123895Y-21818D01*
X-123868Y-21749D01*
X-123841Y-21681D01*
Y-21667D01*
X-123813Y-21613D01*
X-123800Y-21544D01*
X-123772Y-21476D01*
Y-21462D01*
X-123745Y-21421D01*
X-123718Y-21367D01*
X-123677Y-21298D01*
Y-21285D01*
X-123649Y-21244D01*
X-123622Y-21189D01*
X-123595Y-21121D01*
Y-21107D01*
X-123581Y-21080D01*
X-123567Y-21039D01*
X-123526Y-20970D01*
X-123513Y-20957D01*
X-123499Y-20915D01*
X-123458Y-20861D01*
X-123417Y-20820D01*
X-123403D01*
X-123376Y-20806D01*
X-123253D01*
X-123185Y-20820D01*
D02*
G37*
%LPC*%
G36*
X-127805Y-21818D02*
X-127969D01*
X-128078Y-21831D01*
X-128201Y-21872D01*
X-128338Y-21927D01*
X-128475Y-22023D01*
X-128598Y-22146D01*
X-128612Y-22160D01*
X-128653Y-22214D01*
X-128694Y-22296D01*
X-128748Y-22392D01*
X-128789Y-22515D01*
X-128817Y-22652D01*
Y-22802D01*
X-128789Y-22966D01*
Y-22980D01*
X-128776Y-22993D01*
X-128762Y-23075D01*
X-128721Y-23171D01*
X-128653Y-23267D01*
X-128639Y-23280D01*
X-128598Y-23335D01*
X-128516Y-23404D01*
X-128420Y-23472D01*
X-128393Y-23499D01*
X-128324Y-23554D01*
X-128297Y-23568D01*
X-128229Y-23581D01*
X-128215D01*
X-128188Y-23595D01*
X-128106Y-23608D01*
X-127983D01*
X-127955Y-23622D01*
X-127901Y-23636D01*
X-127873D01*
X-127819Y-23650D01*
X-127805Y-23636D01*
X-127778Y-23622D01*
X-127764Y-23608D01*
X-127723Y-23581D01*
X-127614D01*
X-127600Y-23568D01*
X-127559Y-23540D01*
X-127545Y-23527D01*
X-127518Y-23485D01*
X-127491Y-23472D01*
X-127450D01*
X-127436Y-23458D01*
X-127395Y-23431D01*
X-127381Y-23417D01*
X-127354Y-23390D01*
X-127313Y-23335D01*
X-127258Y-23267D01*
X-127204Y-23171D01*
X-127149Y-23062D01*
X-127108Y-22952D01*
X-127067Y-22816D01*
Y-22802D01*
X-127053Y-22747D01*
Y-22679D01*
Y-22583D01*
X-127067Y-22488D01*
X-127108Y-22365D01*
X-127149Y-22255D01*
X-127231Y-22146D01*
X-127244Y-22132D01*
X-127258Y-22105D01*
X-127299Y-22064D01*
X-127340Y-22023D01*
X-127354Y-22009D01*
X-127395Y-21982D01*
X-127491Y-21914D01*
X-127504Y-21900D01*
X-127545Y-21886D01*
X-127641Y-21859D01*
X-127655D01*
X-127696Y-21845D01*
X-127750Y-21831D01*
X-127805Y-21818D01*
D02*
G37*
G36*
X-136048Y-35214D02*
X-136075D01*
X-136048Y-35242D01*
Y-35214D01*
D02*
G37*
G36*
X-135980Y-35365D02*
Y-35378D01*
X-135973Y-35392D01*
X-135952D01*
X-135980Y-35365D01*
D02*
G37*
%LPD*%
D58*
X-106299Y60827D02*
D03*
Y58858D02*
D03*
Y56890D02*
D03*
Y54921D02*
D03*
Y52953D02*
D03*
Y50984D02*
D03*
Y49016D02*
D03*
Y47047D02*
D03*
Y45079D02*
D03*
Y43110D02*
D03*
Y41142D02*
D03*
Y39173D02*
D03*
Y37205D02*
D03*
Y35236D02*
D03*
Y33268D02*
D03*
Y31299D02*
D03*
Y29331D02*
D03*
Y27362D02*
D03*
Y25394D02*
D03*
Y23425D02*
D03*
Y21457D02*
D03*
Y19488D02*
D03*
Y17520D02*
D03*
Y15551D02*
D03*
X-136221D02*
D03*
Y17520D02*
D03*
Y19488D02*
D03*
Y21457D02*
D03*
Y23425D02*
D03*
Y25394D02*
D03*
Y27362D02*
D03*
Y29331D02*
D03*
Y31299D02*
D03*
Y33268D02*
D03*
Y35236D02*
D03*
Y37205D02*
D03*
Y39173D02*
D03*
Y41142D02*
D03*
Y43110D02*
D03*
Y45079D02*
D03*
Y47047D02*
D03*
Y49016D02*
D03*
Y50984D02*
D03*
Y52953D02*
D03*
Y54921D02*
D03*
Y56890D02*
D03*
Y58858D02*
D03*
Y60827D02*
D03*
D59*
X138878Y-1575D02*
D03*
X143012D02*
D03*
X138878Y-5512D02*
D03*
X143012D02*
D03*
X125098Y-51181D02*
D03*
X129232D02*
D03*
X125098Y-55118D02*
D03*
X129232D02*
D03*
X-146161Y39764D02*
D03*
X-142028D02*
D03*
X125886Y-72047D02*
D03*
X130020D02*
D03*
X125886Y-75984D02*
D03*
X130020D02*
D03*
X143012Y2362D02*
D03*
X138878D02*
D03*
X111319Y-51575D02*
D03*
X115453D02*
D03*
X-93602Y-74803D02*
D03*
X-97736D02*
D03*
X-50295D02*
D03*
X-54429D02*
D03*
X-6988D02*
D03*
X-11122D02*
D03*
X36319D02*
D03*
X32185D02*
D03*
X111319Y-76772D02*
D03*
X115453D02*
D03*
X79626Y-74803D02*
D03*
X75492D02*
D03*
D60*
X120866Y-18996D02*
D03*
Y-29035D02*
D03*
X130709Y21161D02*
D03*
Y11122D02*
D03*
D61*
X131102Y28642D02*
D03*
Y32776D02*
D03*
X127559Y28642D02*
D03*
Y32776D02*
D03*
X126378Y68799D02*
D03*
Y72933D02*
D03*
X129921Y68799D02*
D03*
Y72933D02*
D03*
X111811Y-43602D02*
D03*
Y-47736D02*
D03*
Y-68405D02*
D03*
Y-72539D02*
D03*
X-142520Y24311D02*
D03*
Y28445D02*
D03*
Y36319D02*
D03*
Y32185D02*
D03*
X-146063D02*
D03*
Y36319D02*
D03*
X-139370Y6004D02*
D03*
Y1870D02*
D03*
X-135827Y6004D02*
D03*
Y1870D02*
D03*
D62*
X121949Y50394D02*
D03*
X111909D02*
D03*
D63*
X-102362Y-101378D02*
D03*
X-70866D02*
D03*
Y-83661D02*
D03*
X-102362D02*
D03*
X-59055Y-101378D02*
D03*
X-27559D02*
D03*
Y-83661D02*
D03*
X-59055D02*
D03*
X-15748Y-101378D02*
D03*
X15748D02*
D03*
Y-83661D02*
D03*
X-15748D02*
D03*
X27559Y-101378D02*
D03*
X59055D02*
D03*
Y-83661D02*
D03*
X27559D02*
D03*
X70866Y-101378D02*
D03*
X102362D02*
D03*
Y-83661D02*
D03*
X70866D02*
D03*
D64*
X-83661Y-74803D02*
D03*
X-89567D02*
D03*
X-40354D02*
D03*
X-46260D02*
D03*
X2953D02*
D03*
X-2953D02*
D03*
X46260D02*
D03*
X40354D02*
D03*
X89567D02*
D03*
X83661D02*
D03*
D65*
X-98425Y18996D02*
D03*
Y32185D02*
D03*
Y73524D02*
D03*
Y60335D02*
D03*
X98425Y32185D02*
D03*
Y18996D02*
D03*
Y58366D02*
D03*
Y71555D02*
D03*
D66*
X72146Y-29528D02*
D03*
X85335D02*
D03*
X36122D02*
D03*
X22933D02*
D03*
X-36122D02*
D03*
X-22933D02*
D03*
X-72146D02*
D03*
X-85335D02*
D03*
D67*
X119291Y-43701D02*
D03*
Y-68504D02*
D03*
D68*
X116142Y-39651D02*
D03*
X117717D02*
D03*
X119291D02*
D03*
X120866D02*
D03*
X122441D02*
D03*
X122441Y-47751D02*
D03*
X120866D02*
D03*
X119291D02*
D03*
X117717D02*
D03*
X116142D02*
D03*
X116142Y-64454D02*
D03*
X117717D02*
D03*
X119291D02*
D03*
X120866D02*
D03*
X122441D02*
D03*
X122441Y-72554D02*
D03*
X120866D02*
D03*
X119291D02*
D03*
X117717D02*
D03*
X116142D02*
D03*
D69*
X114567Y70472D02*
D03*
X135827Y-23228D02*
D03*
X114961Y28740D02*
D03*
D70*
X122067Y59842D02*
D03*
X117067D02*
D03*
X112067D02*
D03*
X107067D02*
D03*
Y81102D02*
D03*
X112067D02*
D03*
X117067D02*
D03*
X122067D02*
D03*
X143327Y-33858D02*
D03*
X138327D02*
D03*
X133327D02*
D03*
X128327D02*
D03*
Y-12598D02*
D03*
X133327D02*
D03*
X138327D02*
D03*
X143327D02*
D03*
X122461Y18110D02*
D03*
X117461D02*
D03*
X112461D02*
D03*
X107461D02*
D03*
Y39370D02*
D03*
X112461D02*
D03*
X117461D02*
D03*
X122461D02*
D03*
D71*
X-37008Y133858D02*
D03*
X-25984D02*
D03*
X5512D02*
D03*
X-5512D02*
D03*
X25984D02*
D03*
X37008D02*
D03*
D72*
X-31496D02*
D03*
X0D02*
D03*
X31496D02*
D03*
D73*
X78740Y45000D02*
D03*
X-78740D02*
D03*
D74*
X-95000Y-20039D02*
D03*
D75*
X-85000D02*
D03*
X-75000D02*
D03*
X-65000D02*
D03*
X-55000D02*
D03*
X-45000D02*
D03*
X-35000D02*
D03*
X-25000D02*
D03*
X-15000D02*
D03*
X-5000D02*
D03*
X5000D02*
D03*
X15000D02*
D03*
X25000D02*
D03*
X35000D02*
D03*
X45000D02*
D03*
X55000D02*
D03*
X65000D02*
D03*
X75000D02*
D03*
X85000D02*
D03*
X95000D02*
D03*
Y110039D02*
D03*
X85000D02*
D03*
X75000D02*
D03*
X65000D02*
D03*
X55000D02*
D03*
X45000D02*
D03*
X35000D02*
D03*
X25000D02*
D03*
X15000D02*
D03*
X5000D02*
D03*
X-5000D02*
D03*
X-15000D02*
D03*
X-25000D02*
D03*
X-35000D02*
D03*
X-45000D02*
D03*
X-55000D02*
D03*
X-65000D02*
D03*
X-75000D02*
D03*
X-85000D02*
D03*
X-95000D02*
D03*
D76*
X-118110Y0D02*
D03*
X118110D02*
D03*
X0Y-118110D02*
D03*
X-59055Y125984D02*
D03*
X59055D02*
D03*
D77*
X50394Y-130315D02*
D03*
X-73622Y122835D02*
D03*
M02*
