G04*
G04 #@! TF.GenerationSoftware,Altium Limited,CircuitStudio,1.5.2 (30)*
G04*
G04 Layer_Physical_Order=3*
G04 Layer_Color=56745*
%FSLAX25Y25*%
%MOIN*%
G70*
G01*
G75*
%ADD26C,0.01181*%
%ADD29C,0.02362*%
%ADD36C,0.03150*%
G36*
X7500Y152666D02*
X14982Y152114D01*
X22428Y151196D01*
X29820Y149913D01*
X37140Y148270D01*
X44370Y146269D01*
X51494Y143915D01*
X58493Y141215D01*
X65352Y138175D01*
X72053Y134802D01*
X78581Y131104D01*
X84919Y127091D01*
X91053Y122771D01*
X96967Y118155D01*
X102648Y113255D01*
X108081Y108081D01*
X113255Y102648D01*
X118155Y96967D01*
X122771Y91053D01*
X127091Y84919D01*
X131104Y78581D01*
X134802Y72053D01*
X138175Y65352D01*
X141215Y58493D01*
X143915Y51494D01*
X146269Y44370D01*
X148270Y37140D01*
X149913Y29820D01*
X151196Y22428D01*
X152114Y14982D01*
X152666Y7500D01*
X152850Y0D01*
X152666Y-7500D01*
X152114Y-14982D01*
X151196Y-22428D01*
X149913Y-29820D01*
X148270Y-37140D01*
X146269Y-44370D01*
X143915Y-51494D01*
X141215Y-58493D01*
X138175Y-65352D01*
X134802Y-72053D01*
X131104Y-78581D01*
X127091Y-84919D01*
X122771Y-91053D01*
X118155Y-96967D01*
X113255Y-102648D01*
X108081Y-108081D01*
X102648Y-113255D01*
X96967Y-118155D01*
X91053Y-122771D01*
X84919Y-127091D01*
X78581Y-131104D01*
X72053Y-134802D01*
X65352Y-138175D01*
X58493Y-141215D01*
X51494Y-143915D01*
X44370Y-146269D01*
X37140Y-148270D01*
X29820Y-149913D01*
X22428Y-151196D01*
X14982Y-152114D01*
X7500Y-152666D01*
X0Y-152850D01*
X-7500Y-152666D01*
X-14982Y-152114D01*
X-22428Y-151196D01*
X-29820Y-149913D01*
X-37140Y-148270D01*
X-44370Y-146269D01*
X-51494Y-143915D01*
X-58493Y-141215D01*
X-65352Y-138175D01*
X-72053Y-134802D01*
X-78581Y-131104D01*
X-84919Y-127091D01*
X-91053Y-122771D01*
X-96967Y-118155D01*
X-102648Y-113255D01*
X-108081Y-108081D01*
X-113255Y-102648D01*
X-118155Y-96967D01*
X-122771Y-91053D01*
X-127091Y-84919D01*
X-131104Y-78581D01*
X-134802Y-72053D01*
X-138175Y-65352D01*
X-141215Y-58493D01*
X-143915Y-51494D01*
X-146269Y-44370D01*
X-148270Y-37140D01*
X-149913Y-29820D01*
X-151196Y-22428D01*
X-152114Y-14982D01*
X-152666Y-7500D01*
X-152850Y0D01*
X-152666Y7500D01*
X-152114Y14982D01*
X-151196Y22428D01*
X-149913Y29820D01*
X-148270Y37140D01*
X-146269Y44370D01*
X-143915Y51494D01*
X-141215Y58493D01*
X-138175Y65352D01*
X-134802Y72053D01*
X-131104Y78581D01*
X-127091Y84919D01*
X-122771Y91053D01*
X-118155Y96967D01*
X-113255Y102648D01*
X-108081Y108081D01*
X-102648Y113255D01*
X-96967Y118155D01*
X-91053Y122771D01*
X-84919Y127091D01*
X-78581Y131104D01*
X-72053Y134802D01*
X-65352Y138175D01*
X-58493Y141215D01*
X-51494Y143915D01*
X-44370Y146269D01*
X-37140Y148270D01*
X-29820Y149913D01*
X-22428Y151196D01*
X-14982Y152114D01*
X-7500Y152666D01*
X0Y152850D01*
X7500Y152666D01*
D02*
G37*
%LPC*%
G36*
X-35000Y-17160D02*
X-35745Y-17258D01*
X-36439Y-17546D01*
X-37036Y-18004D01*
X-37493Y-18600D01*
X-37781Y-19294D01*
X-37879Y-20039D01*
X-37781Y-20785D01*
X-37493Y-21479D01*
X-37036Y-22075D01*
X-36439Y-22533D01*
X-35745Y-22820D01*
X-35000Y-22918D01*
X-34255Y-22820D01*
X-33560Y-22533D01*
X-32964Y-22075D01*
X-32507Y-21479D01*
X-32219Y-20785D01*
X-32121Y-20039D01*
X-32219Y-19294D01*
X-32507Y-18600D01*
X-32964Y-18004D01*
X-33560Y-17546D01*
X-34255Y-17258D01*
X-35000Y-17160D01*
D02*
G37*
G36*
X-25000D02*
X-25745Y-17258D01*
X-26439Y-17546D01*
X-27036Y-18004D01*
X-27493Y-18600D01*
X-27781Y-19294D01*
X-27879Y-20039D01*
X-27781Y-20785D01*
X-27493Y-21479D01*
X-27036Y-22075D01*
X-26439Y-22533D01*
X-25745Y-22820D01*
X-25000Y-22918D01*
X-24255Y-22820D01*
X-23561Y-22533D01*
X-22964Y-22075D01*
X-22507Y-21479D01*
X-22219Y-20785D01*
X-22121Y-20039D01*
X-22219Y-19294D01*
X-22507Y-18600D01*
X-22964Y-18004D01*
X-23561Y-17546D01*
X-24255Y-17258D01*
X-25000Y-17160D01*
D02*
G37*
G36*
X-45000D02*
X-45745Y-17258D01*
X-46439Y-17546D01*
X-47036Y-18004D01*
X-47493Y-18600D01*
X-47781Y-19294D01*
X-47879Y-20039D01*
X-47781Y-20785D01*
X-47493Y-21479D01*
X-47036Y-22075D01*
X-46439Y-22533D01*
X-45745Y-22820D01*
X-45000Y-22918D01*
X-44255Y-22820D01*
X-43560Y-22533D01*
X-42964Y-22075D01*
X-42507Y-21479D01*
X-42219Y-20785D01*
X-42121Y-20039D01*
X-42219Y-19294D01*
X-42507Y-18600D01*
X-42964Y-18004D01*
X-43560Y-17546D01*
X-44255Y-17258D01*
X-45000Y-17160D01*
D02*
G37*
G36*
X-65000D02*
X-65745Y-17258D01*
X-66439Y-17546D01*
X-67036Y-18004D01*
X-67493Y-18600D01*
X-67781Y-19294D01*
X-67879Y-20039D01*
X-67781Y-20785D01*
X-67493Y-21479D01*
X-67036Y-22075D01*
X-66439Y-22533D01*
X-65745Y-22820D01*
X-65000Y-22918D01*
X-64255Y-22820D01*
X-63560Y-22533D01*
X-62964Y-22075D01*
X-62507Y-21479D01*
X-62219Y-20785D01*
X-62121Y-20039D01*
X-62219Y-19294D01*
X-62507Y-18600D01*
X-62964Y-18004D01*
X-63560Y-17546D01*
X-64255Y-17258D01*
X-65000Y-17160D01*
D02*
G37*
G36*
X-55000D02*
X-55745Y-17258D01*
X-56440Y-17546D01*
X-57036Y-18004D01*
X-57493Y-18600D01*
X-57781Y-19294D01*
X-57879Y-20039D01*
X-57781Y-20785D01*
X-57493Y-21479D01*
X-57036Y-22075D01*
X-56440Y-22533D01*
X-55745Y-22820D01*
X-55000Y-22918D01*
X-54255Y-22820D01*
X-53561Y-22533D01*
X-52964Y-22075D01*
X-52507Y-21479D01*
X-52219Y-20785D01*
X-52121Y-20039D01*
X-52219Y-19294D01*
X-52507Y-18600D01*
X-52964Y-18004D01*
X-53561Y-17546D01*
X-54255Y-17258D01*
X-55000Y-17160D01*
D02*
G37*
G36*
X-15000D02*
X-15745Y-17258D01*
X-16440Y-17546D01*
X-17036Y-18004D01*
X-17493Y-18600D01*
X-17781Y-19294D01*
X-17879Y-20039D01*
X-17781Y-20785D01*
X-17493Y-21479D01*
X-17036Y-22075D01*
X-16440Y-22533D01*
X-15745Y-22820D01*
X-15000Y-22918D01*
X-14255Y-22820D01*
X-13561Y-22533D01*
X-12964Y-22075D01*
X-12507Y-21479D01*
X-12219Y-20785D01*
X-12121Y-20039D01*
X-12219Y-19294D01*
X-12507Y-18600D01*
X-12964Y-18004D01*
X-13561Y-17546D01*
X-14255Y-17258D01*
X-15000Y-17160D01*
D02*
G37*
G36*
X25000D02*
X24255Y-17258D01*
X23561Y-17546D01*
X22964Y-18004D01*
X22507Y-18600D01*
X22219Y-19294D01*
X22121Y-20039D01*
X22219Y-20785D01*
X22507Y-21479D01*
X22964Y-22075D01*
X23561Y-22533D01*
X24255Y-22820D01*
X25000Y-22918D01*
X25745Y-22820D01*
X26439Y-22533D01*
X27036Y-22075D01*
X27493Y-21479D01*
X27781Y-20785D01*
X27879Y-20039D01*
X27781Y-19294D01*
X27493Y-18600D01*
X27036Y-18004D01*
X26439Y-17546D01*
X25745Y-17258D01*
X25000Y-17160D01*
D02*
G37*
G36*
X35000D02*
X34255Y-17258D01*
X33560Y-17546D01*
X32964Y-18004D01*
X32507Y-18600D01*
X32219Y-19294D01*
X32121Y-20039D01*
X32219Y-20785D01*
X32507Y-21479D01*
X32964Y-22075D01*
X33560Y-22533D01*
X34255Y-22820D01*
X35000Y-22918D01*
X35745Y-22820D01*
X36439Y-22533D01*
X37036Y-22075D01*
X37493Y-21479D01*
X37781Y-20785D01*
X37879Y-20039D01*
X37781Y-19294D01*
X37493Y-18600D01*
X37036Y-18004D01*
X36439Y-17546D01*
X35745Y-17258D01*
X35000Y-17160D01*
D02*
G37*
G36*
X15000D02*
X14255Y-17258D01*
X13561Y-17546D01*
X12964Y-18004D01*
X12507Y-18600D01*
X12219Y-19294D01*
X12121Y-20039D01*
X12219Y-20785D01*
X12507Y-21479D01*
X12964Y-22075D01*
X13561Y-22533D01*
X14255Y-22820D01*
X15000Y-22918D01*
X15745Y-22820D01*
X16440Y-22533D01*
X17036Y-22075D01*
X17493Y-21479D01*
X17781Y-20785D01*
X17879Y-20039D01*
X17781Y-19294D01*
X17493Y-18600D01*
X17036Y-18004D01*
X16440Y-17546D01*
X15745Y-17258D01*
X15000Y-17160D01*
D02*
G37*
G36*
X-5000D02*
X-5745Y-17258D01*
X-6440Y-17546D01*
X-7036Y-18004D01*
X-7493Y-18600D01*
X-7781Y-19294D01*
X-7879Y-20039D01*
X-7781Y-20785D01*
X-7493Y-21479D01*
X-7036Y-22075D01*
X-6440Y-22533D01*
X-5745Y-22820D01*
X-5000Y-22918D01*
X-4255Y-22820D01*
X-3560Y-22533D01*
X-2964Y-22075D01*
X-2507Y-21479D01*
X-2219Y-20785D01*
X-2121Y-20039D01*
X-2219Y-19294D01*
X-2507Y-18600D01*
X-2964Y-18004D01*
X-3560Y-17546D01*
X-4255Y-17258D01*
X-5000Y-17160D01*
D02*
G37*
G36*
X5000D02*
X4255Y-17258D01*
X3560Y-17546D01*
X2964Y-18004D01*
X2507Y-18600D01*
X2219Y-19294D01*
X2121Y-20039D01*
X2219Y-20785D01*
X2507Y-21479D01*
X2964Y-22075D01*
X3560Y-22533D01*
X4255Y-22820D01*
X5000Y-22918D01*
X5745Y-22820D01*
X6440Y-22533D01*
X7036Y-22075D01*
X7493Y-21479D01*
X7781Y-20785D01*
X7879Y-20039D01*
X7781Y-19294D01*
X7493Y-18600D01*
X7036Y-18004D01*
X6440Y-17546D01*
X5745Y-17258D01*
X5000Y-17160D01*
D02*
G37*
G36*
X-29528Y-27520D02*
X-30296Y-27673D01*
X-30947Y-28108D01*
X-31382Y-28760D01*
X-31535Y-29528D01*
X-31382Y-30296D01*
X-30947Y-30947D01*
X-30296Y-31382D01*
X-29528Y-31535D01*
X-28760Y-31382D01*
X-28108Y-30947D01*
X-27673Y-30296D01*
X-27520Y-29528D01*
X-27673Y-28760D01*
X-28108Y-28108D01*
X-28760Y-27673D01*
X-29528Y-27520D01*
D02*
G37*
G36*
X29528D02*
X28760Y-27673D01*
X28108Y-28108D01*
X27673Y-28760D01*
X27520Y-29528D01*
X27673Y-30296D01*
X28108Y-30947D01*
X28760Y-31382D01*
X29528Y-31535D01*
X30296Y-31382D01*
X30947Y-30947D01*
X31382Y-30296D01*
X31535Y-29528D01*
X31382Y-28760D01*
X30947Y-28108D01*
X30296Y-27673D01*
X29528Y-27520D01*
D02*
G37*
G36*
X-78740D02*
X-79508Y-27673D01*
X-80159Y-28108D01*
X-80594Y-28760D01*
X-80747Y-29528D01*
X-80594Y-30296D01*
X-80159Y-30947D01*
X-79508Y-31382D01*
X-78740Y-31535D01*
X-77972Y-31382D01*
X-77321Y-30947D01*
X-76886Y-30296D01*
X-76733Y-29528D01*
X-76886Y-28760D01*
X-77321Y-28108D01*
X-77972Y-27673D01*
X-78740Y-27520D01*
D02*
G37*
G36*
X-94095Y-37757D02*
X-94863Y-37909D01*
X-95514Y-38345D01*
X-95949Y-38996D01*
X-96102Y-39764D01*
X-95949Y-40532D01*
X-95514Y-41183D01*
X-94863Y-41618D01*
X-94095Y-41771D01*
X-93326Y-41618D01*
X-92675Y-41183D01*
X-92240Y-40532D01*
X-92087Y-39764D01*
X-92240Y-38996D01*
X-92675Y-38345D01*
X-93326Y-37909D01*
X-94095Y-37757D01*
D02*
G37*
G36*
X-50394Y-31851D02*
X-51162Y-32004D01*
X-51813Y-32439D01*
X-52248Y-33090D01*
X-52401Y-33858D01*
X-52248Y-34626D01*
X-51813Y-35278D01*
X-51162Y-35713D01*
X-50394Y-35865D01*
X-49626Y-35713D01*
X-48974Y-35278D01*
X-48539Y-34626D01*
X-48387Y-33858D01*
X-48539Y-33090D01*
X-48974Y-32439D01*
X-49626Y-32004D01*
X-50394Y-31851D01*
D02*
G37*
G36*
X78740Y-27520D02*
X77972Y-27673D01*
X77321Y-28108D01*
X76886Y-28760D01*
X76733Y-29528D01*
X76886Y-30296D01*
X77321Y-30947D01*
X77972Y-31382D01*
X78740Y-31535D01*
X79508Y-31382D01*
X80159Y-30947D01*
X80594Y-30296D01*
X80747Y-29528D01*
X80594Y-28760D01*
X80159Y-28108D01*
X79508Y-27673D01*
X78740Y-27520D01*
D02*
G37*
G36*
X126378Y-21615D02*
X125610Y-21768D01*
X124959Y-22203D01*
X124524Y-22854D01*
X124371Y-23622D01*
X124524Y-24390D01*
X124959Y-25041D01*
X125610Y-25476D01*
X126378Y-25629D01*
X127146Y-25476D01*
X127797Y-25041D01*
X128232Y-24390D01*
X128385Y-23622D01*
X128232Y-22854D01*
X127797Y-22203D01*
X127146Y-21768D01*
X126378Y-21615D01*
D02*
G37*
G36*
X-75000Y-17160D02*
X-75745Y-17258D01*
X-76439Y-17546D01*
X-77036Y-18004D01*
X-77493Y-18600D01*
X-77781Y-19294D01*
X-77879Y-20039D01*
X-77781Y-20785D01*
X-77493Y-21479D01*
X-77036Y-22075D01*
X-76439Y-22533D01*
X-75745Y-22820D01*
X-75000Y-22918D01*
X-74255Y-22820D01*
X-73561Y-22533D01*
X-72964Y-22075D01*
X-72507Y-21479D01*
X-72219Y-20785D01*
X-72121Y-20039D01*
X-72219Y-19294D01*
X-72507Y-18600D01*
X-72964Y-18004D01*
X-73561Y-17546D01*
X-74255Y-17258D01*
X-75000Y-17160D01*
D02*
G37*
G36*
X113386Y-22009D02*
X112618Y-22162D01*
X111967Y-22596D01*
X111531Y-23248D01*
X111379Y-24016D01*
X111531Y-24784D01*
X111967Y-25435D01*
X112618Y-25870D01*
X113386Y-26023D01*
X114154Y-25870D01*
X114805Y-25435D01*
X115240Y-24784D01*
X115393Y-24016D01*
X115240Y-23248D01*
X114805Y-22596D01*
X114154Y-22162D01*
X113386Y-22009D01*
D02*
G37*
G36*
X-99606Y-26733D02*
X-100374Y-26886D01*
X-101025Y-27321D01*
X-101461Y-27972D01*
X-101613Y-28740D01*
X-101461Y-29508D01*
X-101025Y-30159D01*
X-100374Y-30595D01*
X-99606Y-30747D01*
X-98838Y-30595D01*
X-98187Y-30159D01*
X-97752Y-29508D01*
X-97599Y-28740D01*
X-97752Y-27972D01*
X-98187Y-27321D01*
X-98838Y-26886D01*
X-99606Y-26733D01*
D02*
G37*
G36*
X145669Y-24371D02*
X144901Y-24524D01*
X144250Y-24959D01*
X143815Y-25610D01*
X143662Y-26378D01*
X143815Y-27146D01*
X144250Y-27797D01*
X144901Y-28232D01*
X145669Y-28385D01*
X146437Y-28232D01*
X147089Y-27797D01*
X147524Y-27146D01*
X147676Y-26378D01*
X147524Y-25610D01*
X147089Y-24959D01*
X146437Y-24524D01*
X145669Y-24371D01*
D02*
G37*
G36*
X45000Y-17160D02*
X44255Y-17258D01*
X43560Y-17546D01*
X42964Y-18004D01*
X42507Y-18600D01*
X42219Y-19294D01*
X42121Y-20039D01*
X42219Y-20785D01*
X42507Y-21479D01*
X42964Y-22075D01*
X43560Y-22533D01*
X44255Y-22820D01*
X45000Y-22918D01*
X45745Y-22820D01*
X46439Y-22533D01*
X47036Y-22075D01*
X47493Y-21479D01*
X47781Y-20785D01*
X47879Y-20039D01*
X47781Y-19294D01*
X47493Y-18600D01*
X47036Y-18004D01*
X46439Y-17546D01*
X45745Y-17258D01*
X45000Y-17160D01*
D02*
G37*
G36*
X84646Y432D02*
X83878Y280D01*
X83227Y-156D01*
X82791Y-807D01*
X82639Y-1575D01*
X82791Y-2343D01*
X83227Y-2994D01*
X83878Y-3429D01*
X84646Y-3582D01*
X85414Y-3429D01*
X86065Y-2994D01*
X86500Y-2343D01*
X86653Y-1575D01*
X86500Y-807D01*
X86065Y-156D01*
X85414Y280D01*
X84646Y432D01*
D02*
G37*
G36*
X146063Y476D02*
X146005Y465D01*
X145289Y-14D01*
X144811Y-730D01*
X144799Y-787D01*
X146063D01*
Y476D01*
D02*
G37*
G36*
X148901Y-2362D02*
X147638D01*
Y-3626D01*
X147695Y-3615D01*
X148412Y-3136D01*
X148890Y-2420D01*
X148901Y-2362D01*
D02*
G37*
G36*
X134252Y-749D02*
X133484Y-902D01*
X132833Y-1337D01*
X132398Y-1988D01*
X132245Y-2756D01*
X132398Y-3524D01*
X132833Y-4175D01*
X133484Y-4610D01*
X134252Y-4763D01*
X135020Y-4610D01*
X135671Y-4175D01*
X136106Y-3524D01*
X136259Y-2756D01*
X136106Y-1988D01*
X135671Y-1337D01*
X135020Y-902D01*
X134252Y-749D01*
D02*
G37*
G36*
X146063Y-2362D02*
X144799D01*
X144811Y-2420D01*
X145289Y-3136D01*
X146005Y-3615D01*
X146063Y-3626D01*
Y-2362D01*
D02*
G37*
G36*
X147638Y476D02*
Y-787D01*
X148901D01*
X148890Y-730D01*
X148412Y-14D01*
X147695Y465D01*
X147638Y476D01*
D02*
G37*
G36*
X74803Y6731D02*
X74035Y6579D01*
X73384Y6144D01*
X72949Y5492D01*
X72796Y4724D01*
X72949Y3956D01*
X73384Y3305D01*
X74035Y2870D01*
X74803Y2717D01*
X75571Y2870D01*
X76222Y3305D01*
X76657Y3956D01*
X76810Y4724D01*
X76657Y5492D01*
X76222Y6144D01*
X75571Y6579D01*
X74803Y6731D01*
D02*
G37*
G36*
X-50787Y11456D02*
X-51556Y11303D01*
X-52207Y10868D01*
X-52642Y10217D01*
X-52794Y9449D01*
X-52642Y8681D01*
X-52207Y8030D01*
X-51556Y7594D01*
X-50787Y7442D01*
X-50019Y7594D01*
X-49368Y8030D01*
X-48933Y8681D01*
X-48780Y9449D01*
X-48933Y10217D01*
X-49368Y10868D01*
X-50019Y11303D01*
X-50787Y11456D01*
D02*
G37*
G36*
X-59842Y6731D02*
X-60611Y6579D01*
X-61262Y6144D01*
X-61697Y5492D01*
X-61850Y4724D01*
X-61697Y3956D01*
X-61262Y3305D01*
X-60611Y2870D01*
X-59842Y2717D01*
X-59074Y2870D01*
X-58423Y3305D01*
X-57988Y3956D01*
X-57836Y4724D01*
X-57988Y5492D01*
X-58423Y6144D01*
X-59074Y6579D01*
X-59842Y6731D01*
D02*
G37*
G36*
X138976Y5944D02*
X138208Y5791D01*
X137557Y5356D01*
X137122Y4705D01*
X136969Y3937D01*
X137122Y3169D01*
X137557Y2518D01*
X138208Y2083D01*
X138976Y1930D01*
X139744Y2083D01*
X140396Y2518D01*
X140831Y3169D01*
X140983Y3937D01*
X140831Y4705D01*
X140396Y5356D01*
X139744Y5791D01*
X138976Y5944D01*
D02*
G37*
G36*
X-146063Y6731D02*
X-146831Y6579D01*
X-147482Y6144D01*
X-147917Y5492D01*
X-148070Y4724D01*
X-147917Y3956D01*
X-147482Y3305D01*
X-146831Y2870D01*
X-146063Y2717D01*
X-145295Y2870D01*
X-144644Y3305D01*
X-144209Y3956D01*
X-144056Y4724D01*
X-144209Y5492D01*
X-144644Y6144D01*
X-145295Y6579D01*
X-146063Y6731D01*
D02*
G37*
G36*
X85000Y-17160D02*
X84255Y-17258D01*
X83561Y-17546D01*
X82964Y-18004D01*
X82507Y-18600D01*
X82219Y-19294D01*
X82121Y-20039D01*
X82219Y-20785D01*
X82507Y-21479D01*
X82964Y-22075D01*
X83561Y-22533D01*
X84255Y-22820D01*
X85000Y-22918D01*
X85745Y-22820D01*
X86440Y-22533D01*
X87036Y-22075D01*
X87493Y-21479D01*
X87781Y-20785D01*
X87879Y-20039D01*
X87781Y-19294D01*
X87493Y-18600D01*
X87036Y-18004D01*
X86440Y-17546D01*
X85745Y-17258D01*
X85000Y-17160D01*
D02*
G37*
G36*
X95000D02*
X94255Y-17258D01*
X93560Y-17546D01*
X92964Y-18004D01*
X92507Y-18600D01*
X92219Y-19294D01*
X92121Y-20039D01*
X92219Y-20785D01*
X92507Y-21479D01*
X92964Y-22075D01*
X93560Y-22533D01*
X94255Y-22820D01*
X95000Y-22918D01*
X95745Y-22820D01*
X96439Y-22533D01*
X97036Y-22075D01*
X97493Y-21479D01*
X97781Y-20785D01*
X97879Y-20039D01*
X97781Y-19294D01*
X97493Y-18600D01*
X97036Y-18004D01*
X96439Y-17546D01*
X95745Y-17258D01*
X95000Y-17160D01*
D02*
G37*
G36*
X75000D02*
X74255Y-17258D01*
X73561Y-17546D01*
X72964Y-18004D01*
X72507Y-18600D01*
X72219Y-19294D01*
X72121Y-20039D01*
X72219Y-20785D01*
X72507Y-21479D01*
X72964Y-22075D01*
X73561Y-22533D01*
X74255Y-22820D01*
X75000Y-22918D01*
X75745Y-22820D01*
X76439Y-22533D01*
X77036Y-22075D01*
X77493Y-21479D01*
X77781Y-20785D01*
X77879Y-20039D01*
X77781Y-19294D01*
X77493Y-18600D01*
X77036Y-18004D01*
X76439Y-17546D01*
X75745Y-17258D01*
X75000Y-17160D01*
D02*
G37*
G36*
X55000D02*
X54255Y-17258D01*
X53561Y-17546D01*
X52964Y-18004D01*
X52507Y-18600D01*
X52219Y-19294D01*
X52121Y-20039D01*
X52219Y-20785D01*
X52507Y-21479D01*
X52964Y-22075D01*
X53561Y-22533D01*
X54255Y-22820D01*
X55000Y-22918D01*
X55745Y-22820D01*
X56440Y-22533D01*
X57036Y-22075D01*
X57493Y-21479D01*
X57781Y-20785D01*
X57879Y-20039D01*
X57781Y-19294D01*
X57493Y-18600D01*
X57036Y-18004D01*
X56440Y-17546D01*
X55745Y-17258D01*
X55000Y-17160D01*
D02*
G37*
G36*
X65000D02*
X64255Y-17258D01*
X63560Y-17546D01*
X62964Y-18004D01*
X62507Y-18600D01*
X62219Y-19294D01*
X62121Y-20039D01*
X62219Y-20785D01*
X62507Y-21479D01*
X62964Y-22075D01*
X63560Y-22533D01*
X64255Y-22820D01*
X65000Y-22918D01*
X65745Y-22820D01*
X66439Y-22533D01*
X67036Y-22075D01*
X67493Y-21479D01*
X67781Y-20785D01*
X67879Y-20039D01*
X67781Y-19294D01*
X67493Y-18600D01*
X67036Y-18004D01*
X66439Y-17546D01*
X65745Y-17258D01*
X65000Y-17160D01*
D02*
G37*
G36*
X145669Y-18465D02*
X144901Y-18618D01*
X144250Y-19053D01*
X143815Y-19704D01*
X143662Y-20472D01*
X143815Y-21240D01*
X144250Y-21892D01*
X144901Y-22327D01*
X145669Y-22479D01*
X146437Y-22327D01*
X147089Y-21892D01*
X147524Y-21240D01*
X147676Y-20472D01*
X147524Y-19704D01*
X147089Y-19053D01*
X146437Y-18618D01*
X145669Y-18465D01*
D02*
G37*
G36*
X118110Y6725D02*
X116798Y6596D01*
X115537Y6213D01*
X114374Y5592D01*
X113355Y4755D01*
X112518Y3736D01*
X111897Y2574D01*
X111514Y1312D01*
X111385Y0D01*
X111514Y-1312D01*
X111897Y-2574D01*
X112518Y-3736D01*
X113355Y-4755D01*
X114374Y-5592D01*
X115537Y-6213D01*
X116798Y-6596D01*
X118110Y-6725D01*
X119422Y-6596D01*
X120684Y-6213D01*
X121847Y-5592D01*
X122866Y-4755D01*
X123702Y-3736D01*
X124324Y-2574D01*
X124706Y-1312D01*
X124836Y0D01*
X124706Y1312D01*
X124324Y2574D01*
X123702Y3736D01*
X122866Y4755D01*
X121847Y5592D01*
X120684Y6213D01*
X119422Y6596D01*
X118110Y6725D01*
D02*
G37*
G36*
X29528Y-1536D02*
X28760Y-1689D01*
X28108Y-2124D01*
X27673Y-2775D01*
X27520Y-3543D01*
X27673Y-4311D01*
X28108Y-4963D01*
X28760Y-5398D01*
X29528Y-5550D01*
X30296Y-5398D01*
X30947Y-4963D01*
X31382Y-4311D01*
X31535Y-3543D01*
X31382Y-2775D01*
X30947Y-2124D01*
X30296Y-1689D01*
X29528Y-1536D01*
D02*
G37*
G36*
X-118110Y6725D02*
X-119422Y6596D01*
X-120684Y6213D01*
X-121847Y5592D01*
X-122866Y4755D01*
X-123702Y3736D01*
X-124324Y2574D01*
X-124706Y1312D01*
X-124836Y0D01*
X-124706Y-1312D01*
X-124324Y-2574D01*
X-123702Y-3736D01*
X-122866Y-4755D01*
X-121847Y-5592D01*
X-120684Y-6213D01*
X-119422Y-6596D01*
X-118110Y-6725D01*
X-116798Y-6596D01*
X-115537Y-6213D01*
X-114374Y-5592D01*
X-113355Y-4755D01*
X-112518Y-3736D01*
X-111897Y-2574D01*
X-111514Y-1312D01*
X-111385Y0D01*
X-111514Y1312D01*
X-111897Y2574D01*
X-112518Y3736D01*
X-113355Y4755D01*
X-114374Y5592D01*
X-115537Y6213D01*
X-116798Y6596D01*
X-118110Y6725D01*
D02*
G37*
G36*
X94882Y-10985D02*
X94114Y-11138D01*
X93463Y-11573D01*
X93028Y-12224D01*
X92875Y-12992D01*
X93028Y-13760D01*
X93463Y-14411D01*
X94114Y-14846D01*
X94882Y-14999D01*
X95650Y-14846D01*
X96301Y-14411D01*
X96736Y-13760D01*
X96889Y-12992D01*
X96736Y-12224D01*
X96301Y-11573D01*
X95650Y-11138D01*
X94882Y-10985D01*
D02*
G37*
G36*
X-128347Y-10198D02*
X-129114Y-10350D01*
X-129766Y-10785D01*
X-130201Y-11437D01*
X-130353Y-12205D01*
X-130201Y-12973D01*
X-129766Y-13624D01*
X-129114Y-14059D01*
X-128347Y-14212D01*
X-127578Y-14059D01*
X-126927Y-13624D01*
X-126492Y-12973D01*
X-126339Y-12205D01*
X-126492Y-11437D01*
X-126927Y-10785D01*
X-127578Y-10350D01*
X-128347Y-10198D01*
D02*
G37*
G36*
X-81890Y-92875D02*
X-82658Y-93028D01*
X-83309Y-93463D01*
X-83744Y-94114D01*
X-83897Y-94882D01*
X-83744Y-95650D01*
X-83309Y-96301D01*
X-82658Y-96736D01*
X-81890Y-96889D01*
X-81122Y-96736D01*
X-80471Y-96301D01*
X-80036Y-95650D01*
X-79883Y-94882D01*
X-80036Y-94114D01*
X-80471Y-93463D01*
X-81122Y-93028D01*
X-81890Y-92875D01*
D02*
G37*
G36*
X-74016Y-89725D02*
X-74784Y-89878D01*
X-75435Y-90313D01*
X-75870Y-90964D01*
X-76023Y-91732D01*
X-75870Y-92500D01*
X-75435Y-93151D01*
X-74784Y-93587D01*
X-74016Y-93739D01*
X-73248Y-93587D01*
X-72597Y-93151D01*
X-72162Y-92500D01*
X-72009Y-91732D01*
X-72162Y-90964D01*
X-72597Y-90313D01*
X-73248Y-89878D01*
X-74016Y-89725D01*
D02*
G37*
G36*
X102362Y-93269D02*
X101594Y-93421D01*
X100943Y-93856D01*
X100508Y-94507D01*
X100355Y-95276D01*
X100508Y-96044D01*
X100943Y-96695D01*
X101594Y-97130D01*
X102362Y-97283D01*
X103130Y-97130D01*
X103781Y-96695D01*
X104217Y-96044D01*
X104369Y-95276D01*
X104217Y-94507D01*
X103781Y-93856D01*
X103130Y-93421D01*
X102362Y-93269D01*
D02*
G37*
G36*
X15748D02*
X14980Y-93421D01*
X14329Y-93856D01*
X13894Y-94507D01*
X13741Y-95276D01*
X13894Y-96044D01*
X14329Y-96695D01*
X14980Y-97130D01*
X15748Y-97283D01*
X16516Y-97130D01*
X17167Y-96695D01*
X17602Y-96044D01*
X17755Y-95276D01*
X17602Y-94507D01*
X17167Y-93856D01*
X16516Y-93421D01*
X15748Y-93269D01*
D02*
G37*
G36*
X59055D02*
X58287Y-93421D01*
X57636Y-93856D01*
X57201Y-94507D01*
X57048Y-95276D01*
X57201Y-96044D01*
X57636Y-96695D01*
X58287Y-97130D01*
X59055Y-97283D01*
X59823Y-97130D01*
X60474Y-96695D01*
X60909Y-96044D01*
X61062Y-95276D01*
X60909Y-94507D01*
X60474Y-93856D01*
X59823Y-93421D01*
X59055Y-93269D01*
D02*
G37*
G36*
X-46457Y-78308D02*
X-47225Y-78461D01*
X-47876Y-78896D01*
X-48311Y-79547D01*
X-48464Y-80315D01*
X-48311Y-81083D01*
X-47876Y-81734D01*
X-47225Y-82169D01*
X-46457Y-82322D01*
X-45689Y-82169D01*
X-45037Y-81734D01*
X-44602Y-81083D01*
X-44450Y-80315D01*
X-44602Y-79547D01*
X-45037Y-78896D01*
X-45689Y-78461D01*
X-46457Y-78308D01*
D02*
G37*
G36*
X-78740Y-72796D02*
X-79508Y-72949D01*
X-80159Y-73384D01*
X-80594Y-74035D01*
X-80747Y-74803D01*
X-80594Y-75571D01*
X-80159Y-76222D01*
X-79508Y-76657D01*
X-78740Y-76810D01*
X-77972Y-76657D01*
X-77321Y-76222D01*
X-76886Y-75571D01*
X-76733Y-74803D01*
X-76886Y-74035D01*
X-77321Y-73384D01*
X-77972Y-72949D01*
X-78740Y-72796D01*
D02*
G37*
G36*
X-35433D02*
X-36201Y-72949D01*
X-36852Y-73384D01*
X-37287Y-74035D01*
X-37440Y-74803D01*
X-37287Y-75571D01*
X-36852Y-76222D01*
X-36201Y-76657D01*
X-35433Y-76810D01*
X-34665Y-76657D01*
X-34014Y-76222D01*
X-33579Y-75571D01*
X-33426Y-74803D01*
X-33579Y-74035D01*
X-34014Y-73384D01*
X-34665Y-72949D01*
X-35433Y-72796D01*
D02*
G37*
G36*
X-60630Y-74371D02*
X-61398Y-74524D01*
X-62049Y-74959D01*
X-62484Y-75610D01*
X-62637Y-76378D01*
X-62484Y-77146D01*
X-62049Y-77797D01*
X-61398Y-78232D01*
X-60630Y-78385D01*
X-59862Y-78232D01*
X-59211Y-77797D01*
X-58776Y-77146D01*
X-58623Y-76378D01*
X-58776Y-75610D01*
X-59211Y-74959D01*
X-59862Y-74524D01*
X-60630Y-74371D01*
D02*
G37*
G36*
X-15748Y-75946D02*
X-16516Y-76099D01*
X-17167Y-76534D01*
X-17602Y-77185D01*
X-17755Y-77953D01*
X-17602Y-78721D01*
X-17167Y-79372D01*
X-16516Y-79807D01*
X-15748Y-79960D01*
X-14980Y-79807D01*
X-14329Y-79372D01*
X-13894Y-78721D01*
X-13741Y-77953D01*
X-13894Y-77185D01*
X-14329Y-76534D01*
X-14980Y-76099D01*
X-15748Y-75946D01*
D02*
G37*
G36*
X27559Y-74765D02*
X26791Y-74917D01*
X26140Y-75352D01*
X25705Y-76004D01*
X25552Y-76772D01*
X25705Y-77540D01*
X26140Y-78191D01*
X26791Y-78626D01*
X27559Y-78779D01*
X28327Y-78626D01*
X28978Y-78191D01*
X29413Y-77540D01*
X29566Y-76772D01*
X29413Y-76004D01*
X28978Y-75352D01*
X28327Y-74917D01*
X27559Y-74765D01*
D02*
G37*
G36*
X0Y-111385D02*
X-1312Y-111514D01*
X-2574Y-111897D01*
X-3736Y-112518D01*
X-4755Y-113355D01*
X-5592Y-114374D01*
X-6213Y-115537D01*
X-6596Y-116798D01*
X-6725Y-118110D01*
X-6596Y-119422D01*
X-6213Y-120684D01*
X-5592Y-121847D01*
X-4755Y-122866D01*
X-3736Y-123702D01*
X-2574Y-124324D01*
X-1312Y-124706D01*
X0Y-124836D01*
X1312Y-124706D01*
X2574Y-124324D01*
X3736Y-123702D01*
X4755Y-122866D01*
X5592Y-121847D01*
X6213Y-120684D01*
X6596Y-119422D01*
X6725Y-118110D01*
X6596Y-116798D01*
X6213Y-115537D01*
X5592Y-114374D01*
X4755Y-113355D01*
X3736Y-112518D01*
X2574Y-111897D01*
X1312Y-111514D01*
X0Y-111385D01*
D02*
G37*
G36*
X62205Y-116891D02*
X61437Y-117043D01*
X60786Y-117478D01*
X60350Y-118130D01*
X60198Y-118898D01*
X60350Y-119666D01*
X60786Y-120317D01*
X61437Y-120752D01*
X62205Y-120905D01*
X62973Y-120752D01*
X63624Y-120317D01*
X64059Y-119666D01*
X64212Y-118898D01*
X64059Y-118130D01*
X63624Y-117478D01*
X62973Y-117043D01*
X62205Y-116891D01*
D02*
G37*
G36*
X33071Y-121221D02*
X32303Y-121374D01*
X31652Y-121809D01*
X31217Y-122460D01*
X31064Y-123228D01*
X31217Y-123996D01*
X31652Y-124648D01*
X32303Y-125083D01*
X33071Y-125235D01*
X33839Y-125083D01*
X34490Y-124648D01*
X34925Y-123996D01*
X35078Y-123228D01*
X34925Y-122460D01*
X34490Y-121809D01*
X33839Y-121374D01*
X33071Y-121221D01*
D02*
G37*
G36*
X50394Y-123985D02*
X49159Y-124107D01*
X47971Y-124467D01*
X46877Y-125052D01*
X45918Y-125839D01*
X45131Y-126798D01*
X44546Y-127893D01*
X44186Y-129080D01*
X44064Y-130315D01*
X44186Y-131550D01*
X44546Y-132737D01*
X45131Y-133832D01*
X45918Y-134791D01*
X46877Y-135578D01*
X47971Y-136163D01*
X49159Y-136523D01*
X50394Y-136645D01*
X51629Y-136523D01*
X52816Y-136163D01*
X53910Y-135578D01*
X54870Y-134791D01*
X55657Y-133832D01*
X56242Y-132737D01*
X56602Y-131550D01*
X56723Y-130315D01*
X56602Y-129080D01*
X56242Y-127893D01*
X55657Y-126798D01*
X54870Y-125839D01*
X53910Y-125052D01*
X52816Y-124467D01*
X51629Y-124107D01*
X50394Y-123985D01*
D02*
G37*
G36*
X-19291Y-130670D02*
X-20059Y-130823D01*
X-20711Y-131258D01*
X-21146Y-131909D01*
X-21298Y-132677D01*
X-21146Y-133445D01*
X-20711Y-134096D01*
X-20059Y-134531D01*
X-19291Y-134684D01*
X-18523Y-134531D01*
X-17872Y-134096D01*
X-17437Y-133445D01*
X-17284Y-132677D01*
X-17437Y-131909D01*
X-17872Y-131258D01*
X-18523Y-130823D01*
X-19291Y-130670D01*
D02*
G37*
G36*
X-43307Y-104292D02*
X-44075Y-104445D01*
X-44726Y-104880D01*
X-45161Y-105531D01*
X-45314Y-106299D01*
X-45161Y-107067D01*
X-44726Y-107718D01*
X-44354Y-107967D01*
Y-108568D01*
X-44726Y-108817D01*
X-45161Y-109468D01*
X-45314Y-110236D01*
X-45161Y-111004D01*
X-44726Y-111655D01*
X-44354Y-111904D01*
Y-112505D01*
X-44726Y-112754D01*
X-45161Y-113405D01*
X-45314Y-114173D01*
X-45161Y-114941D01*
X-44726Y-115592D01*
X-44354Y-115841D01*
Y-116442D01*
X-44726Y-116691D01*
X-45161Y-117342D01*
X-45314Y-118110D01*
X-45161Y-118878D01*
X-44726Y-119529D01*
X-44075Y-119965D01*
X-43307Y-120117D01*
X-42539Y-119965D01*
X-41888Y-119529D01*
X-41453Y-118878D01*
X-41300Y-118110D01*
X-41453Y-117342D01*
X-41888Y-116691D01*
X-42260Y-116442D01*
Y-115841D01*
X-41888Y-115592D01*
X-41453Y-114941D01*
X-41300Y-114173D01*
X-41453Y-113405D01*
X-41888Y-112754D01*
X-42260Y-112505D01*
Y-111904D01*
X-41888Y-111655D01*
X-41453Y-111004D01*
X-41300Y-110236D01*
X-41453Y-109468D01*
X-41888Y-108817D01*
X-42260Y-108568D01*
Y-107967D01*
X-41888Y-107718D01*
X-41453Y-107067D01*
X-41300Y-106299D01*
X-41453Y-105531D01*
X-41888Y-104880D01*
X-42539Y-104445D01*
X-43307Y-104292D01*
D02*
G37*
G36*
X86614Y-93662D02*
X85846Y-93815D01*
X85195Y-94250D01*
X84760Y-94901D01*
X84607Y-95669D01*
X84760Y-96437D01*
X85195Y-97088D01*
X85846Y-97524D01*
X86614Y-97676D01*
X87382Y-97524D01*
X88033Y-97088D01*
X88468Y-96437D01*
X88621Y-95669D01*
X88468Y-94901D01*
X88033Y-94250D01*
X87382Y-93815D01*
X86614Y-93662D01*
D02*
G37*
G36*
X-70866Y-93269D02*
X-71634Y-93421D01*
X-72285Y-93856D01*
X-72720Y-94507D01*
X-72873Y-95276D01*
X-72720Y-96044D01*
X-72285Y-96695D01*
X-71634Y-97130D01*
X-70866Y-97283D01*
X-70098Y-97130D01*
X-69447Y-96695D01*
X-69012Y-96044D01*
X-68859Y-95276D01*
X-69012Y-94507D01*
X-69447Y-93856D01*
X-70098Y-93421D01*
X-70866Y-93269D01*
D02*
G37*
G36*
X-27559Y-93662D02*
X-28327Y-93815D01*
X-28978Y-94250D01*
X-29413Y-94901D01*
X-29566Y-95669D01*
X-29413Y-96437D01*
X-28978Y-97088D01*
X-28327Y-97524D01*
X-27559Y-97676D01*
X-26791Y-97524D01*
X-26140Y-97088D01*
X-25705Y-96437D01*
X-25552Y-95669D01*
X-25705Y-94901D01*
X-26140Y-94250D01*
X-26791Y-93815D01*
X-27559Y-93662D01*
D02*
G37*
G36*
X-99606Y-106261D02*
X-100374Y-106413D01*
X-101025Y-106849D01*
X-101461Y-107500D01*
X-101613Y-108268D01*
X-101461Y-109036D01*
X-101025Y-109687D01*
X-100374Y-110122D01*
X-99606Y-110275D01*
X-98838Y-110122D01*
X-98187Y-109687D01*
X-97752Y-109036D01*
X-97599Y-108268D01*
X-97752Y-107500D01*
X-98187Y-106849D01*
X-98838Y-106413D01*
X-99606Y-106261D01*
D02*
G37*
G36*
X-64961Y-93662D02*
X-65729Y-93815D01*
X-66380Y-94250D01*
X-66815Y-94901D01*
X-66968Y-95669D01*
X-66815Y-96437D01*
X-66380Y-97088D01*
X-65729Y-97524D01*
X-64961Y-97676D01*
X-64193Y-97524D01*
X-63541Y-97088D01*
X-63106Y-96437D01*
X-62954Y-95669D01*
X-63106Y-94901D01*
X-63541Y-94250D01*
X-64193Y-93815D01*
X-64961Y-93662D01*
D02*
G37*
G36*
X7874Y-72796D02*
X7106Y-72949D01*
X6455Y-73384D01*
X6020Y-74035D01*
X5867Y-74803D01*
X6020Y-75571D01*
X6455Y-76222D01*
X7106Y-76657D01*
X7874Y-76810D01*
X8642Y-76657D01*
X9293Y-76222D01*
X9728Y-75571D01*
X9881Y-74803D01*
X9728Y-74035D01*
X9293Y-73384D01*
X8642Y-72949D01*
X7874Y-72796D01*
D02*
G37*
G36*
X-33858Y-56654D02*
X-34626Y-56807D01*
X-35278Y-57242D01*
X-35713Y-57893D01*
X-35865Y-58661D01*
X-35713Y-59430D01*
X-35278Y-60081D01*
X-34626Y-60516D01*
X-33858Y-60668D01*
X-33090Y-60516D01*
X-32439Y-60081D01*
X-32004Y-59430D01*
X-31851Y-58661D01*
X-32004Y-57893D01*
X-32439Y-57242D01*
X-33090Y-56807D01*
X-33858Y-56654D01*
D02*
G37*
G36*
X113779Y-51536D02*
X113012Y-51689D01*
X112360Y-52124D01*
X111925Y-52775D01*
X111773Y-53543D01*
X111925Y-54311D01*
X112360Y-54962D01*
X113012Y-55398D01*
X113779Y-55550D01*
X114548Y-55398D01*
X115199Y-54962D01*
X115634Y-54311D01*
X115787Y-53543D01*
X115634Y-52775D01*
X115199Y-52124D01*
X114548Y-51689D01*
X113779Y-51536D01*
D02*
G37*
G36*
X-100394Y-62940D02*
Y-64203D01*
X-99130D01*
X-99141Y-64146D01*
X-99620Y-63429D01*
X-100336Y-62951D01*
X-100394Y-62940D01*
D02*
G37*
G36*
X0Y-62166D02*
X-768Y-62319D01*
X-1419Y-62754D01*
X-1854Y-63405D01*
X-2007Y-64173D01*
X-1854Y-64941D01*
X-1419Y-65592D01*
X-768Y-66027D01*
X0Y-66180D01*
X768Y-66027D01*
X1419Y-65592D01*
X1854Y-64941D01*
X2007Y-64173D01*
X1854Y-63405D01*
X1419Y-62754D01*
X768Y-62319D01*
X0Y-62166D01*
D02*
G37*
G36*
X-101969Y-62940D02*
X-102026Y-62951D01*
X-102742Y-63429D01*
X-103221Y-64146D01*
X-103232Y-64203D01*
X-101969D01*
Y-62940D01*
D02*
G37*
G36*
X106693Y-50394D02*
X105429D01*
X105441Y-50451D01*
X105919Y-51167D01*
X106635Y-51646D01*
X106693Y-51657D01*
Y-50394D01*
D02*
G37*
G36*
X125197Y-41694D02*
X124429Y-41846D01*
X123778Y-42282D01*
X123343Y-42933D01*
X123190Y-43701D01*
X123343Y-44469D01*
X123778Y-45120D01*
X124429Y-45555D01*
X125197Y-45708D01*
X125965Y-45555D01*
X126616Y-45120D01*
X127051Y-44469D01*
X127204Y-43701D01*
X127051Y-42933D01*
X126616Y-42282D01*
X125965Y-41846D01*
X125197Y-41694D01*
D02*
G37*
G36*
X142913Y-38544D02*
X142145Y-38697D01*
X141494Y-39132D01*
X141059Y-39783D01*
X140906Y-40551D01*
X141059Y-41319D01*
X141494Y-41970D01*
X142145Y-42406D01*
X142913Y-42558D01*
X143682Y-42406D01*
X144333Y-41970D01*
X144768Y-41319D01*
X144921Y-40551D01*
X144768Y-39783D01*
X144333Y-39132D01*
X143682Y-38697D01*
X142913Y-38544D01*
D02*
G37*
G36*
X108268Y-47555D02*
Y-48819D01*
X109531D01*
X109520Y-48761D01*
X109041Y-48045D01*
X108325Y-47567D01*
X108268Y-47555D01*
D02*
G37*
G36*
X109531Y-50394D02*
X108268D01*
Y-51657D01*
X108325Y-51646D01*
X109041Y-51167D01*
X109520Y-50451D01*
X109531Y-50394D01*
D02*
G37*
G36*
X106693Y-47555D02*
X106635Y-47567D01*
X105919Y-48045D01*
X105441Y-48761D01*
X105429Y-48819D01*
X106693D01*
Y-47555D01*
D02*
G37*
G36*
X105512Y-73228D02*
X104248D01*
X104260Y-73286D01*
X104738Y-74002D01*
X105454Y-74481D01*
X105512Y-74492D01*
Y-73228D01*
D02*
G37*
G36*
X108350D02*
X107087D01*
Y-74492D01*
X107144Y-74481D01*
X107860Y-74002D01*
X108339Y-73286D01*
X108350Y-73228D01*
D02*
G37*
G36*
X94488Y-72796D02*
X93720Y-72949D01*
X93069Y-73384D01*
X92634Y-74035D01*
X92481Y-74803D01*
X92634Y-75571D01*
X93069Y-76222D01*
X93720Y-76657D01*
X94488Y-76810D01*
X95256Y-76657D01*
X95907Y-76222D01*
X96342Y-75571D01*
X96495Y-74803D01*
X96342Y-74035D01*
X95907Y-73384D01*
X95256Y-72949D01*
X94488Y-72796D01*
D02*
G37*
G36*
X51181D02*
X50413Y-72949D01*
X49762Y-73384D01*
X49327Y-74035D01*
X49174Y-74803D01*
X49327Y-75571D01*
X49762Y-76222D01*
X50413Y-76657D01*
X51181Y-76810D01*
X51949Y-76657D01*
X52600Y-76222D01*
X53035Y-75571D01*
X53188Y-74803D01*
X53035Y-74035D01*
X52600Y-73384D01*
X51949Y-72949D01*
X51181Y-72796D01*
D02*
G37*
G36*
X70866D02*
X70098Y-72949D01*
X69447Y-73384D01*
X69012Y-74035D01*
X68859Y-74803D01*
X69012Y-75571D01*
X69447Y-76222D01*
X70098Y-76657D01*
X70866Y-76810D01*
X71634Y-76657D01*
X72285Y-76222D01*
X72720Y-75571D01*
X72873Y-74803D01*
X72720Y-74035D01*
X72285Y-73384D01*
X71634Y-72949D01*
X70866Y-72796D01*
D02*
G37*
G36*
X105512Y-70390D02*
X105454Y-70401D01*
X104738Y-70880D01*
X104260Y-71596D01*
X104248Y-71653D01*
X105512D01*
Y-70390D01*
D02*
G37*
G36*
X-101969Y-65778D02*
X-103232D01*
X-103221Y-65835D01*
X-102742Y-66552D01*
X-102026Y-67030D01*
X-101969Y-67042D01*
Y-65778D01*
D02*
G37*
G36*
X-99130D02*
X-100394D01*
Y-67042D01*
X-100336Y-67030D01*
X-99620Y-66552D01*
X-99141Y-65835D01*
X-99130Y-65778D01*
D02*
G37*
G36*
X-64173Y-63741D02*
X-64941Y-63894D01*
X-65592Y-64329D01*
X-66027Y-64980D01*
X-66180Y-65748D01*
X-66027Y-66516D01*
X-65592Y-67167D01*
X-64941Y-67602D01*
X-64173Y-67755D01*
X-63405Y-67602D01*
X-62754Y-67167D01*
X-62319Y-66516D01*
X-62166Y-65748D01*
X-62319Y-64980D01*
X-62754Y-64329D01*
X-63405Y-63894D01*
X-64173Y-63741D01*
D02*
G37*
G36*
X107087Y-70390D02*
Y-71653D01*
X108350D01*
X108339Y-71596D01*
X107860Y-70880D01*
X107144Y-70401D01*
X107087Y-70390D01*
D02*
G37*
G36*
X125591Y-66497D02*
X124822Y-66650D01*
X124171Y-67085D01*
X123736Y-67736D01*
X123583Y-68504D01*
X123736Y-69272D01*
X124171Y-69923D01*
X124822Y-70358D01*
X125591Y-70511D01*
X126359Y-70358D01*
X127010Y-69923D01*
X127445Y-69272D01*
X127598Y-68504D01*
X127445Y-67736D01*
X127010Y-67085D01*
X126359Y-66650D01*
X125591Y-66497D01*
D02*
G37*
G36*
X-75000Y112918D02*
X-75745Y112820D01*
X-76439Y112533D01*
X-77036Y112075D01*
X-77493Y111479D01*
X-77781Y110784D01*
X-77879Y110039D01*
X-77781Y109294D01*
X-77493Y108600D01*
X-77036Y108004D01*
X-76439Y107546D01*
X-75745Y107258D01*
X-75000Y107160D01*
X-74255Y107258D01*
X-73561Y107546D01*
X-72964Y108004D01*
X-72507Y108600D01*
X-72219Y109294D01*
X-72121Y110039D01*
X-72219Y110784D01*
X-72507Y111479D01*
X-72964Y112075D01*
X-73561Y112533D01*
X-74255Y112820D01*
X-75000Y112918D01*
D02*
G37*
G36*
X-65000D02*
X-65745Y112820D01*
X-66439Y112533D01*
X-67036Y112075D01*
X-67493Y111479D01*
X-67781Y110784D01*
X-67879Y110039D01*
X-67781Y109294D01*
X-67493Y108600D01*
X-67036Y108004D01*
X-66439Y107546D01*
X-65745Y107258D01*
X-65000Y107160D01*
X-64255Y107258D01*
X-63560Y107546D01*
X-62964Y108004D01*
X-62507Y108600D01*
X-62219Y109294D01*
X-62121Y110039D01*
X-62219Y110784D01*
X-62507Y111479D01*
X-62964Y112075D01*
X-63560Y112533D01*
X-64255Y112820D01*
X-65000Y112918D01*
D02*
G37*
G36*
X-85000D02*
X-85745Y112820D01*
X-86440Y112533D01*
X-87036Y112075D01*
X-87493Y111479D01*
X-87781Y110784D01*
X-87879Y110039D01*
X-87781Y109294D01*
X-87493Y108600D01*
X-87036Y108004D01*
X-86440Y107546D01*
X-85745Y107258D01*
X-85000Y107160D01*
X-84255Y107258D01*
X-83561Y107546D01*
X-82964Y108004D01*
X-82507Y108600D01*
X-82219Y109294D01*
X-82121Y110039D01*
X-82219Y110784D01*
X-82507Y111479D01*
X-82964Y112075D01*
X-83561Y112533D01*
X-84255Y112820D01*
X-85000Y112918D01*
D02*
G37*
G36*
X11417Y100432D02*
X10649Y100279D01*
X9998Y99844D01*
X9563Y99193D01*
X9410Y98425D01*
X9563Y97657D01*
X9998Y97006D01*
X10649Y96571D01*
X11417Y96418D01*
X12185Y96571D01*
X12836Y97006D01*
X13272Y97657D01*
X13424Y98425D01*
X13272Y99193D01*
X12836Y99844D01*
X12185Y100279D01*
X11417Y100432D01*
D02*
G37*
G36*
X-95000Y112918D02*
X-95745Y112820D01*
X-96439Y112533D01*
X-97036Y112075D01*
X-97493Y111479D01*
X-97781Y110784D01*
X-97879Y110039D01*
X-97781Y109294D01*
X-97493Y108600D01*
X-97036Y108004D01*
X-96439Y107546D01*
X-95745Y107258D01*
X-95000Y107160D01*
X-94255Y107258D01*
X-93560Y107546D01*
X-92964Y108004D01*
X-92507Y108600D01*
X-92219Y109294D01*
X-92121Y110039D01*
X-92219Y110784D01*
X-92507Y111479D01*
X-92964Y112075D01*
X-93560Y112533D01*
X-94255Y112820D01*
X-95000Y112918D01*
D02*
G37*
G36*
X5000D02*
X4255Y112820D01*
X3560Y112533D01*
X2964Y112075D01*
X2507Y111479D01*
X2219Y110784D01*
X2121Y110039D01*
X2219Y109294D01*
X2507Y108600D01*
X2964Y108004D01*
X3560Y107546D01*
X4255Y107258D01*
X5000Y107160D01*
X5745Y107258D01*
X6440Y107546D01*
X7036Y108004D01*
X7493Y108600D01*
X7781Y109294D01*
X7879Y110039D01*
X7781Y110784D01*
X7493Y111479D01*
X7036Y112075D01*
X6440Y112533D01*
X5745Y112820D01*
X5000Y112918D01*
D02*
G37*
G36*
X65000D02*
X64255Y112820D01*
X63560Y112533D01*
X62964Y112075D01*
X62507Y111479D01*
X62219Y110784D01*
X62121Y110039D01*
X62219Y109294D01*
X62507Y108600D01*
X62964Y108004D01*
X63560Y107546D01*
X64255Y107258D01*
X65000Y107160D01*
X65745Y107258D01*
X66439Y107546D01*
X67036Y108004D01*
X67493Y108600D01*
X67781Y109294D01*
X67879Y110039D01*
X67781Y110784D01*
X67493Y111479D01*
X67036Y112075D01*
X66439Y112533D01*
X65745Y112820D01*
X65000Y112918D01*
D02*
G37*
G36*
X75000D02*
X74255Y112820D01*
X73561Y112533D01*
X72964Y112075D01*
X72507Y111479D01*
X72219Y110784D01*
X72121Y110039D01*
X72219Y109294D01*
X72507Y108600D01*
X72964Y108004D01*
X73561Y107546D01*
X74255Y107258D01*
X75000Y107160D01*
X75745Y107258D01*
X76439Y107546D01*
X77036Y108004D01*
X77493Y108600D01*
X77781Y109294D01*
X77879Y110039D01*
X77781Y110784D01*
X77493Y111479D01*
X77036Y112075D01*
X76439Y112533D01*
X75745Y112820D01*
X75000Y112918D01*
D02*
G37*
G36*
X55000D02*
X54255Y112820D01*
X53561Y112533D01*
X52964Y112075D01*
X52507Y111479D01*
X52219Y110784D01*
X52121Y110039D01*
X52219Y109294D01*
X52507Y108600D01*
X52964Y108004D01*
X53561Y107546D01*
X54255Y107258D01*
X55000Y107160D01*
X55745Y107258D01*
X56440Y107546D01*
X57036Y108004D01*
X57493Y108600D01*
X57781Y109294D01*
X57879Y110039D01*
X57781Y110784D01*
X57493Y111479D01*
X57036Y112075D01*
X56440Y112533D01*
X55745Y112820D01*
X55000Y112918D01*
D02*
G37*
G36*
X25000D02*
X24255Y112820D01*
X23561Y112533D01*
X22964Y112075D01*
X22507Y111479D01*
X22219Y110784D01*
X22121Y110039D01*
X22219Y109294D01*
X22507Y108600D01*
X22964Y108004D01*
X23561Y107546D01*
X24255Y107258D01*
X25000Y107160D01*
X25745Y107258D01*
X26439Y107546D01*
X27036Y108004D01*
X27493Y108600D01*
X27781Y109294D01*
X27879Y110039D01*
X27781Y110784D01*
X27493Y111479D01*
X27036Y112075D01*
X26439Y112533D01*
X25745Y112820D01*
X25000Y112918D01*
D02*
G37*
G36*
X35000D02*
X34255Y112820D01*
X33560Y112533D01*
X32964Y112075D01*
X32507Y111479D01*
X32219Y110784D01*
X32121Y110039D01*
X32219Y109294D01*
X32507Y108600D01*
X32964Y108004D01*
X33560Y107546D01*
X34255Y107258D01*
X35000Y107160D01*
X35745Y107258D01*
X36439Y107546D01*
X37036Y108004D01*
X37493Y108600D01*
X37781Y109294D01*
X37879Y110039D01*
X37781Y110784D01*
X37493Y111479D01*
X37036Y112075D01*
X36439Y112533D01*
X35745Y112820D01*
X35000Y112918D01*
D02*
G37*
G36*
X104331Y76023D02*
X103563Y75870D01*
X102911Y75435D01*
X102476Y74784D01*
X102324Y74016D01*
X102476Y73248D01*
X102911Y72597D01*
X103563Y72162D01*
X104331Y72009D01*
X105099Y72162D01*
X105750Y72597D01*
X106185Y73248D01*
X106338Y74016D01*
X106185Y74784D01*
X105750Y75435D01*
X105099Y75870D01*
X104331Y76023D01*
D02*
G37*
G36*
X125591Y76004D02*
X124327D01*
X124338Y75946D01*
X124817Y75230D01*
X125533Y74752D01*
X125591Y74740D01*
Y76004D01*
D02*
G37*
G36*
X-94587Y75531D02*
X-95355Y75378D01*
X-96006Y74943D01*
X-96441Y74292D01*
X-96594Y73524D01*
X-96441Y72756D01*
X-96006Y72104D01*
X-95355Y71669D01*
X-94587Y71517D01*
X-93818Y71669D01*
X-93167Y72104D01*
X-92732Y72756D01*
X-92580Y73524D01*
X-92732Y74292D01*
X-93167Y74943D01*
X-93818Y75378D01*
X-94587Y75531D01*
D02*
G37*
G36*
X104331Y68542D02*
X103563Y68390D01*
X102911Y67955D01*
X102476Y67304D01*
X102324Y66535D01*
X102476Y65767D01*
X102911Y65116D01*
X103563Y64681D01*
X104331Y64528D01*
X105099Y64681D01*
X105750Y65116D01*
X106185Y65767D01*
X106338Y66535D01*
X106185Y67304D01*
X105750Y67955D01*
X105099Y68390D01*
X104331Y68542D01*
D02*
G37*
G36*
X-69685Y72479D02*
X-70453Y72327D01*
X-71104Y71892D01*
X-71539Y71241D01*
X-71692Y70472D01*
X-71539Y69704D01*
X-71104Y69053D01*
X-70453Y68618D01*
X-69685Y68465D01*
X-68917Y68618D01*
X-68266Y69053D01*
X-67831Y69704D01*
X-67678Y70472D01*
X-67831Y71241D01*
X-68266Y71892D01*
X-68917Y72327D01*
X-69685Y72479D01*
D02*
G37*
G36*
X128429Y76004D02*
X127165D01*
Y74740D01*
X127223Y74752D01*
X127939Y75230D01*
X128418Y75946D01*
X128429Y76004D01*
D02*
G37*
G36*
X90945Y89802D02*
X90177Y89650D01*
X89526Y89214D01*
X89091Y88563D01*
X88938Y87795D01*
X89091Y87027D01*
X89526Y86376D01*
X90177Y85941D01*
X90945Y85788D01*
X91713Y85941D01*
X92364Y86376D01*
X92799Y87027D01*
X92952Y87795D01*
X92799Y88563D01*
X92364Y89214D01*
X91713Y89650D01*
X90945Y89802D01*
D02*
G37*
G36*
X117323D02*
X116555Y89650D01*
X115904Y89214D01*
X115469Y88563D01*
X115316Y87795D01*
X115469Y87027D01*
X115904Y86376D01*
X116555Y85941D01*
X117323Y85788D01*
X118091Y85941D01*
X118742Y86376D01*
X119177Y87027D01*
X119330Y87795D01*
X119177Y88563D01*
X118742Y89214D01*
X118091Y89650D01*
X117323Y89802D01*
D02*
G37*
G36*
X50394Y88621D02*
X49626Y88468D01*
X48974Y88033D01*
X48539Y87382D01*
X48387Y86614D01*
X48539Y85846D01*
X48974Y85195D01*
X49626Y84760D01*
X50394Y84607D01*
X51162Y84760D01*
X51813Y85195D01*
X52248Y85846D01*
X52401Y86614D01*
X52248Y87382D01*
X51813Y88033D01*
X51162Y88468D01*
X50394Y88621D01*
D02*
G37*
G36*
X125591Y78843D02*
X125533Y78831D01*
X124817Y78352D01*
X124338Y77636D01*
X124327Y77579D01*
X125591D01*
Y78843D01*
D02*
G37*
G36*
X127165D02*
Y77579D01*
X128429D01*
X128418Y77636D01*
X127939Y78352D01*
X127223Y78831D01*
X127165Y78843D01*
D02*
G37*
G36*
X85000Y112918D02*
X84255Y112820D01*
X83561Y112533D01*
X82964Y112075D01*
X82507Y111479D01*
X82219Y110784D01*
X82121Y110039D01*
X82219Y109294D01*
X82507Y108600D01*
X82964Y108004D01*
X83561Y107546D01*
X84255Y107258D01*
X85000Y107160D01*
X85745Y107258D01*
X86440Y107546D01*
X87036Y108004D01*
X87493Y108600D01*
X87781Y109294D01*
X87879Y110039D01*
X87781Y110784D01*
X87493Y111479D01*
X87036Y112075D01*
X86440Y112533D01*
X85745Y112820D01*
X85000Y112918D01*
D02*
G37*
G36*
X-24409Y145708D02*
X-25177Y145555D01*
X-25829Y145120D01*
X-26264Y144469D01*
X-26417Y143701D01*
X-26264Y142933D01*
X-25829Y142282D01*
X-25177Y141847D01*
X-24409Y141694D01*
X-23641Y141847D01*
X-22990Y142282D01*
X-22555Y142933D01*
X-22402Y143701D01*
X-22555Y144469D01*
X-22990Y145120D01*
X-23641Y145555D01*
X-24409Y145708D01*
D02*
G37*
G36*
X-19291D02*
X-20059Y145555D01*
X-20711Y145120D01*
X-21146Y144469D01*
X-21298Y143701D01*
X-21146Y142933D01*
X-20711Y142282D01*
X-20059Y141847D01*
X-19291Y141694D01*
X-18523Y141847D01*
X-17872Y142282D01*
X-17437Y142933D01*
X-17284Y143701D01*
X-17437Y144469D01*
X-17872Y145120D01*
X-18523Y145555D01*
X-19291Y145708D01*
D02*
G37*
G36*
X-29528D02*
X-30296Y145555D01*
X-30947Y145120D01*
X-31382Y144469D01*
X-31535Y143701D01*
X-31382Y142933D01*
X-30947Y142282D01*
X-30296Y141847D01*
X-29528Y141694D01*
X-28760Y141847D01*
X-28108Y142282D01*
X-27673Y142933D01*
X-27520Y143701D01*
X-27673Y144469D01*
X-28108Y145120D01*
X-28760Y145555D01*
X-29528Y145708D01*
D02*
G37*
G36*
X-12992Y139802D02*
X-13760Y139650D01*
X-14411Y139215D01*
X-14846Y138563D01*
X-14999Y137795D01*
X-14846Y137027D01*
X-14411Y136376D01*
X-14039Y136127D01*
Y135526D01*
X-14411Y135277D01*
X-14846Y134626D01*
X-14999Y133858D01*
X-14846Y133090D01*
X-14411Y132439D01*
X-14039Y132190D01*
Y131589D01*
X-14411Y131341D01*
X-14846Y130689D01*
X-14999Y129921D01*
X-14846Y129153D01*
X-14411Y128502D01*
X-13760Y128067D01*
X-12992Y127914D01*
X-12224Y128067D01*
X-11573Y128502D01*
X-11138Y129153D01*
X-10985Y129921D01*
X-11138Y130689D01*
X-11573Y131341D01*
X-11945Y131589D01*
Y132190D01*
X-11573Y132439D01*
X-11138Y133090D01*
X-10985Y133858D01*
X-11138Y134626D01*
X-11573Y135277D01*
X-11945Y135526D01*
Y136127D01*
X-11573Y136376D01*
X-11138Y137027D01*
X-10985Y137795D01*
X-11138Y138563D01*
X-11573Y139215D01*
X-12224Y139650D01*
X-12992Y139802D01*
D02*
G37*
G36*
X18504D02*
X17736Y139650D01*
X17085Y139215D01*
X16650Y138563D01*
X16497Y137795D01*
X16650Y137027D01*
X17085Y136376D01*
X17457Y136127D01*
Y135526D01*
X17085Y135277D01*
X16650Y134626D01*
X16497Y133858D01*
X16650Y133090D01*
X17085Y132439D01*
X17457Y132190D01*
Y131589D01*
X17085Y131341D01*
X16650Y130689D01*
X16497Y129921D01*
X16650Y129153D01*
X17085Y128502D01*
X17736Y128067D01*
X18504Y127914D01*
X19272Y128067D01*
X19923Y128502D01*
X20358Y129153D01*
X20511Y129921D01*
X20358Y130689D01*
X19923Y131341D01*
X19551Y131589D01*
Y132190D01*
X19923Y132439D01*
X20358Y133090D01*
X20511Y133858D01*
X20358Y134626D01*
X19923Y135277D01*
X19551Y135526D01*
Y136127D01*
X19923Y136376D01*
X20358Y137027D01*
X20511Y137795D01*
X20358Y138563D01*
X19923Y139215D01*
X19272Y139650D01*
X18504Y139802D01*
D02*
G37*
G36*
X1969Y145708D02*
X1200Y145555D01*
X549Y145120D01*
X114Y144469D01*
X-39Y143701D01*
X114Y142933D01*
X549Y142282D01*
X1200Y141847D01*
X1969Y141694D01*
X2737Y141847D01*
X3388Y142282D01*
X3823Y142933D01*
X3976Y143701D01*
X3823Y144469D01*
X3388Y145120D01*
X2737Y145555D01*
X1969Y145708D01*
D02*
G37*
G36*
X38583D02*
X37815Y145555D01*
X37163Y145120D01*
X36728Y144469D01*
X36576Y143701D01*
X36728Y142933D01*
X37163Y142282D01*
X37815Y141847D01*
X38583Y141694D01*
X39351Y141847D01*
X40002Y142282D01*
X40437Y142933D01*
X40590Y143701D01*
X40437Y144469D01*
X40002Y145120D01*
X39351Y145555D01*
X38583Y145708D01*
D02*
G37*
G36*
X43701D02*
X42933Y145555D01*
X42282Y145120D01*
X41846Y144469D01*
X41694Y143701D01*
X41846Y142933D01*
X42282Y142282D01*
X42933Y141847D01*
X43701Y141694D01*
X44469Y141847D01*
X45120Y142282D01*
X45555Y142933D01*
X45708Y143701D01*
X45555Y144469D01*
X45120Y145120D01*
X44469Y145555D01*
X43701Y145708D01*
D02*
G37*
G36*
X33465D02*
X32697Y145555D01*
X32045Y145120D01*
X31610Y144469D01*
X31457Y143701D01*
X31610Y142933D01*
X32045Y142282D01*
X32697Y141847D01*
X33465Y141694D01*
X34233Y141847D01*
X34884Y142282D01*
X35319Y142933D01*
X35472Y143701D01*
X35319Y144469D01*
X34884Y145120D01*
X34233Y145555D01*
X33465Y145708D01*
D02*
G37*
G36*
X7087D02*
X6318Y145555D01*
X5667Y145120D01*
X5232Y144469D01*
X5080Y143701D01*
X5232Y142933D01*
X5667Y142282D01*
X6318Y141847D01*
X7087Y141694D01*
X7855Y141847D01*
X8506Y142282D01*
X8941Y142933D01*
X9094Y143701D01*
X8941Y144469D01*
X8506Y145120D01*
X7855Y145555D01*
X7087Y145708D01*
D02*
G37*
G36*
X12205D02*
X11437Y145555D01*
X10785Y145120D01*
X10350Y144469D01*
X10198Y143701D01*
X10350Y142933D01*
X10785Y142282D01*
X11437Y141847D01*
X12205Y141694D01*
X12973Y141847D01*
X13624Y142282D01*
X14059Y142933D01*
X14212Y143701D01*
X14059Y144469D01*
X13624Y145120D01*
X12973Y145555D01*
X12205Y145708D01*
D02*
G37*
G36*
X43307Y133503D02*
X42539Y133350D01*
X41888Y132915D01*
X41453Y132264D01*
X41300Y131496D01*
X41453Y130728D01*
X41501Y130656D01*
Y128005D01*
X41453Y127933D01*
X41300Y127165D01*
X41453Y126397D01*
X41501Y126326D01*
Y121653D01*
X41638Y120962D01*
X42030Y120376D01*
X47800Y114606D01*
Y111900D01*
X47300Y111731D01*
X47036Y112075D01*
X46439Y112533D01*
X45745Y112820D01*
X45000Y112918D01*
X44255Y112820D01*
X43560Y112533D01*
X42964Y112075D01*
X42507Y111479D01*
X42219Y110784D01*
X42121Y110039D01*
X42219Y109294D01*
X42507Y108600D01*
X42964Y108004D01*
X43560Y107546D01*
X44255Y107258D01*
X45000Y107160D01*
X45745Y107258D01*
X46439Y107546D01*
X47036Y108004D01*
X47300Y108348D01*
X47800Y108178D01*
Y104724D01*
X47937Y104033D01*
X48329Y103447D01*
X52266Y99510D01*
X52852Y99119D01*
X53543Y98981D01*
X101220D01*
X104822Y95380D01*
X104839Y95295D01*
X104887Y95223D01*
Y92966D01*
X104839Y92894D01*
X104686Y92126D01*
X104839Y91358D01*
X105274Y90707D01*
X105925Y90272D01*
X106693Y90119D01*
X107461Y90272D01*
X108112Y90707D01*
X108547Y91358D01*
X108700Y92126D01*
X108547Y92894D01*
X108499Y92966D01*
Y95223D01*
X108547Y95295D01*
X108700Y96063D01*
X108547Y96831D01*
X108112Y97482D01*
X107461Y97917D01*
X107376Y97934D01*
X103246Y102065D01*
X102660Y102456D01*
X101969Y102594D01*
X54291D01*
X51413Y105473D01*
Y115354D01*
X51275Y116046D01*
X50884Y116632D01*
X45114Y122402D01*
Y126326D01*
X45161Y126397D01*
X45314Y127165D01*
X45161Y127933D01*
X45114Y128005D01*
Y130656D01*
X45161Y130728D01*
X45314Y131496D01*
X45161Y132264D01*
X44726Y132915D01*
X44075Y133350D01*
X43307Y133503D01*
D02*
G37*
G36*
X-19685Y122086D02*
X-20453Y121933D01*
X-21104Y121498D01*
X-21539Y120847D01*
X-21556Y120762D01*
X-21750Y120569D01*
X-22141Y119983D01*
X-22279Y119291D01*
Y112003D01*
X-22779Y111833D01*
X-22964Y112075D01*
X-23561Y112533D01*
X-24255Y112820D01*
X-25000Y112918D01*
X-25745Y112820D01*
X-26439Y112533D01*
X-27036Y112075D01*
X-27493Y111479D01*
X-27781Y110784D01*
X-27879Y110039D01*
X-27781Y109294D01*
X-27493Y108600D01*
X-27036Y108004D01*
X-26439Y107546D01*
X-25745Y107258D01*
X-25000Y107160D01*
X-24255Y107258D01*
X-23561Y107546D01*
X-22964Y108004D01*
X-22779Y108245D01*
X-22279Y108076D01*
Y64134D01*
X-28060Y58353D01*
X-28521Y58599D01*
X-28509Y58661D01*
Y118392D01*
X-28108Y118659D01*
X-27673Y119311D01*
X-27520Y120079D01*
X-27673Y120847D01*
X-28108Y121498D01*
X-28760Y121933D01*
X-29528Y122086D01*
X-30296Y121933D01*
X-30947Y121498D01*
X-31382Y120847D01*
X-31399Y120762D01*
X-31592Y120569D01*
X-31984Y119983D01*
X-32121Y119291D01*
Y111798D01*
X-32621Y111628D01*
X-32964Y112075D01*
X-33560Y112533D01*
X-34255Y112820D01*
X-35000Y112918D01*
X-35745Y112820D01*
X-36439Y112533D01*
X-37036Y112075D01*
X-37493Y111479D01*
X-37781Y110784D01*
Y110784D01*
X-37843Y110313D01*
Y110313D01*
X-37843D01*
X-37843Y110312D01*
X-37851Y110251D01*
X-37852Y110251D01*
X-37857Y110251D01*
X-37865Y110252D01*
X-38290Y110280D01*
X-38305Y110281D01*
X-38318Y110282D01*
X-38318D01*
X-38327Y110282D01*
X-38350Y110284D01*
X-38351Y110296D01*
Y110296D01*
Y118392D01*
X-37951Y118659D01*
X-37516Y119311D01*
X-37363Y120079D01*
X-37516Y120847D01*
X-37951Y121498D01*
X-38602Y121933D01*
X-39370Y122086D01*
X-40138Y121933D01*
X-40789Y121498D01*
X-41224Y120847D01*
X-41241Y120762D01*
X-41435Y120569D01*
X-41826Y119983D01*
X-41964Y119291D01*
Y111475D01*
X-42464Y111375D01*
X-42507Y111479D01*
X-42964Y112075D01*
X-43560Y112533D01*
X-44255Y112820D01*
X-45000Y112918D01*
X-45745Y112820D01*
X-46439Y112533D01*
X-47036Y112075D01*
X-47493Y111479D01*
X-47694Y110995D01*
X-48194Y111094D01*
Y118392D01*
X-47793Y118659D01*
X-47358Y119311D01*
X-47205Y120079D01*
X-47358Y120847D01*
X-47793Y121498D01*
X-48445Y121933D01*
X-49213Y122086D01*
X-49981Y121933D01*
X-50632Y121498D01*
X-51067Y120847D01*
X-51084Y120762D01*
X-51277Y120569D01*
X-51669Y119983D01*
X-51806Y119291D01*
Y111094D01*
X-52306Y110995D01*
X-52507Y111479D01*
X-52964Y112075D01*
X-53561Y112533D01*
X-54255Y112820D01*
X-55000Y112918D01*
X-55745Y112820D01*
X-56440Y112533D01*
X-57036Y112075D01*
X-57493Y111479D01*
X-57781Y110784D01*
X-57879Y110039D01*
X-57781Y109294D01*
X-57493Y108600D01*
X-57036Y108004D01*
X-56440Y107546D01*
X-55745Y107258D01*
X-55000Y107160D01*
X-54255Y107258D01*
X-53561Y107546D01*
X-52964Y108004D01*
X-52507Y108600D01*
X-52306Y109084D01*
X-51806Y108984D01*
Y50748D01*
X-121356Y-18801D01*
X-121748Y-19387D01*
X-121885Y-20079D01*
Y-52310D01*
X-121933Y-52381D01*
X-122086Y-53150D01*
X-121933Y-53918D01*
X-121498Y-54569D01*
X-120847Y-55004D01*
X-120079Y-55157D01*
X-119311Y-55004D01*
X-118659Y-54569D01*
X-118411Y-54197D01*
X-117810D01*
X-117561Y-54569D01*
X-116910Y-55004D01*
X-116142Y-55157D01*
X-115374Y-55004D01*
X-114723Y-54569D01*
X-114474Y-54197D01*
X-113873D01*
X-113624Y-54569D01*
X-112973Y-55004D01*
X-112205Y-55157D01*
X-111437Y-55004D01*
X-110785Y-54569D01*
X-110537Y-54197D01*
X-109935D01*
X-109687Y-54569D01*
X-109036Y-55004D01*
X-108268Y-55157D01*
X-107500Y-55004D01*
X-106849Y-54569D01*
X-106413Y-53918D01*
X-106261Y-53150D01*
X-106413Y-52381D01*
X-106461Y-52310D01*
Y-25158D01*
X-98259Y-16956D01*
X-98020Y-17134D01*
X-97949Y-17187D01*
X-97935Y-17198D01*
X-97892Y-17229D01*
X-97883Y-17236D01*
X-97854Y-17258D01*
Y-17348D01*
X-97854Y-17655D01*
Y-17679D01*
Y-17679D01*
Y-22894D01*
X-92146D01*
Y-17185D01*
X-97360D01*
X-97360D01*
X-97385Y-17185D01*
X-97691Y-17185D01*
X-97782D01*
X-97803Y-17156D01*
X-97810Y-17147D01*
X-97842Y-17104D01*
X-97852Y-17090D01*
X-97905Y-17019D01*
X-98084Y-16780D01*
X-19195Y62108D01*
X-18804Y62695D01*
X-18666Y63386D01*
Y118392D01*
X-18266Y118659D01*
X-17831Y119311D01*
X-17678Y120079D01*
X-17831Y120847D01*
X-18266Y121498D01*
X-18917Y121933D01*
X-19685Y122086D01*
D02*
G37*
G36*
X11811Y133503D02*
X11043Y133350D01*
X10392Y132915D01*
X9957Y132264D01*
X9804Y131496D01*
X9957Y130728D01*
X10005Y130656D01*
Y128005D01*
X9957Y127933D01*
X9804Y127165D01*
X9957Y126397D01*
X10392Y125746D01*
X11043Y125311D01*
X11128Y125294D01*
X17879Y118543D01*
Y111798D01*
X17379Y111628D01*
X17036Y112075D01*
X16440Y112533D01*
X15745Y112820D01*
X15000Y112918D01*
X14255Y112820D01*
X13561Y112533D01*
X12964Y112075D01*
X12507Y111479D01*
X12219Y110784D01*
X12121Y110039D01*
X12219Y109294D01*
X12507Y108600D01*
X12964Y108004D01*
X13561Y107546D01*
X14255Y107258D01*
X15000Y107160D01*
X15745Y107258D01*
X16440Y107546D01*
X17036Y108004D01*
X17379Y108451D01*
X17879Y108281D01*
Y105905D01*
X18016Y105214D01*
X18408Y104628D01*
X27857Y95179D01*
X28443Y94788D01*
X29134Y94650D01*
X93740D01*
X97800Y90590D01*
Y44147D01*
X97752Y44075D01*
X97599Y43307D01*
X97752Y42539D01*
X98187Y41888D01*
X98838Y41453D01*
X99606Y41300D01*
X100374Y41453D01*
X100446Y41501D01*
X102703D01*
X102775Y41453D01*
X103543Y41300D01*
X104311Y41453D01*
X104963Y41888D01*
X105398Y42539D01*
X105550Y43307D01*
X105398Y44075D01*
X104963Y44726D01*
X104311Y45161D01*
X103543Y45314D01*
X102775Y45161D01*
X102703Y45113D01*
X101413D01*
Y91339D01*
X101275Y92030D01*
X100884Y92616D01*
X95766Y97734D01*
X95179Y98125D01*
X94488Y98263D01*
X29882D01*
X21491Y106654D01*
Y119291D01*
X21354Y119983D01*
X20962Y120569D01*
X13682Y127849D01*
X13665Y127933D01*
X13617Y128005D01*
Y130656D01*
X13665Y130728D01*
X13818Y131496D01*
X13665Y132264D01*
X13230Y132915D01*
X12579Y133350D01*
X11811Y133503D01*
D02*
G37*
G36*
X95000Y112918D02*
X94255Y112820D01*
X93560Y112533D01*
X92964Y112075D01*
X92507Y111479D01*
X92219Y110784D01*
X92121Y110039D01*
X92219Y109294D01*
X92507Y108600D01*
X92964Y108004D01*
X93560Y107546D01*
X94255Y107258D01*
X95000Y107160D01*
X95745Y107258D01*
X96439Y107546D01*
X97036Y108004D01*
X97493Y108600D01*
X97781Y109294D01*
X97879Y110039D01*
X97781Y110784D01*
X97493Y111479D01*
X97036Y112075D01*
X96439Y112533D01*
X95745Y112820D01*
X95000Y112918D01*
D02*
G37*
G36*
X-19685Y133503D02*
X-20453Y133350D01*
X-21104Y132915D01*
X-21539Y132264D01*
X-21692Y131496D01*
X-21539Y130728D01*
X-21491Y130656D01*
Y128005D01*
X-21539Y127933D01*
X-21692Y127165D01*
X-21539Y126397D01*
X-21104Y125746D01*
X-20453Y125311D01*
X-20369Y125294D01*
X-11649Y116575D01*
Y110284D01*
X-12135Y110252D01*
X-12144Y110251D01*
X-12149Y110251D01*
X-12149Y110251D01*
X-12153Y110284D01*
X-12157Y110313D01*
X-12219Y110784D01*
Y110784D01*
X-12507Y111479D01*
X-12964Y112075D01*
X-13561Y112533D01*
X-14255Y112820D01*
X-15000Y112918D01*
X-15745Y112820D01*
X-16440Y112533D01*
X-17036Y112075D01*
X-17493Y111479D01*
X-17781Y110784D01*
X-17879Y110039D01*
X-17781Y109294D01*
X-17493Y108600D01*
X-17036Y108004D01*
X-16440Y107546D01*
X-15745Y107258D01*
X-15000Y107160D01*
X-14255Y107258D01*
X-13561Y107546D01*
X-12964Y108004D01*
X-12507Y108600D01*
X-12219Y109294D01*
X-12157Y109766D01*
D01*
X-12149Y109828D01*
X-12149Y109828D01*
X-12144Y109827D01*
X-12135Y109827D01*
X-11649Y109795D01*
Y103543D01*
X-11511Y102852D01*
X-11120Y102266D01*
X691Y90455D01*
X1277Y90063D01*
X1969Y89926D01*
X73661D01*
X87170Y76417D01*
Y9843D01*
X87308Y9151D01*
X87699Y8565D01*
X108365Y-12101D01*
X108382Y-12185D01*
X108817Y-12836D01*
X109468Y-13272D01*
X110236Y-13424D01*
X111004Y-13272D01*
X111076Y-13224D01*
X116089D01*
X116161Y-13272D01*
X116929Y-13424D01*
X117697Y-13272D01*
X118348Y-12836D01*
X118783Y-12185D01*
X118936Y-11417D01*
X118783Y-10649D01*
X118348Y-9998D01*
X117697Y-9563D01*
X116929Y-9410D01*
X116161Y-9563D01*
X116089Y-9611D01*
X111076D01*
X111004Y-9563D01*
X110920Y-9546D01*
X90783Y10591D01*
Y77165D01*
X90645Y77857D01*
X90254Y78443D01*
X75687Y93010D01*
X75101Y93401D01*
X74410Y93539D01*
X2717D01*
X-8036Y104291D01*
Y108604D01*
X-7536Y108703D01*
X-7493Y108600D01*
X-7036Y108004D01*
X-6440Y107546D01*
X-5745Y107258D01*
X-5000Y107160D01*
X-4255Y107258D01*
X-3560Y107546D01*
X-2964Y108004D01*
X-2507Y108600D01*
X-2219Y109294D01*
X-2121Y110039D01*
X-2219Y110784D01*
X-2507Y111479D01*
X-2964Y112075D01*
X-3560Y112533D01*
X-4255Y112820D01*
X-5000Y112918D01*
X-5745Y112820D01*
X-6440Y112533D01*
X-7036Y112075D01*
X-7493Y111479D01*
X-7536Y111375D01*
X-8036Y111475D01*
Y117323D01*
X-8174Y118014D01*
X-8565Y118600D01*
X-17814Y127849D01*
X-17831Y127933D01*
X-17879Y128005D01*
Y130656D01*
X-17831Y130728D01*
X-17678Y131496D01*
X-17831Y132264D01*
X-18266Y132915D01*
X-18917Y133350D01*
X-19685Y133503D01*
D02*
G37*
G36*
X-73622Y129164D02*
X-74857Y129043D01*
X-76044Y128682D01*
X-77139Y128098D01*
X-78098Y127310D01*
X-78885Y126351D01*
X-79470Y125257D01*
X-79830Y124069D01*
X-79952Y122835D01*
X-79830Y121600D01*
X-79470Y120412D01*
X-78885Y119318D01*
X-78098Y118359D01*
X-77139Y117572D01*
X-76044Y116987D01*
X-74857Y116627D01*
X-73622Y116505D01*
X-72387Y116627D01*
X-71200Y116987D01*
X-70105Y117572D01*
X-69146Y118359D01*
X-68359Y119318D01*
X-67774Y120412D01*
X-67414Y121600D01*
X-67292Y122835D01*
X-67414Y124069D01*
X-67774Y125257D01*
X-68359Y126351D01*
X-69146Y127310D01*
X-70105Y128098D01*
X-71200Y128682D01*
X-72387Y129043D01*
X-73622Y129164D01*
D02*
G37*
G36*
X-67716Y131535D02*
X-68485Y131382D01*
X-69136Y130947D01*
X-69571Y130296D01*
X-69724Y129528D01*
X-69571Y128760D01*
X-69136Y128108D01*
X-68485Y127673D01*
X-67716Y127521D01*
X-66948Y127673D01*
X-66297Y128108D01*
X-65862Y128760D01*
X-65710Y129528D01*
X-65862Y130296D01*
X-66297Y130947D01*
X-66948Y131382D01*
X-67716Y131535D01*
D02*
G37*
G36*
X-44488Y139802D02*
X-45256Y139650D01*
X-45907Y139215D01*
X-46343Y138563D01*
X-46495Y137795D01*
X-46343Y137027D01*
X-45907Y136376D01*
X-45535Y136127D01*
Y135526D01*
X-45907Y135277D01*
X-46343Y134626D01*
X-46495Y133858D01*
X-46343Y133090D01*
X-45907Y132439D01*
X-45535Y132190D01*
Y131589D01*
X-45907Y131341D01*
X-46343Y130689D01*
X-46495Y129921D01*
X-46343Y129153D01*
X-45907Y128502D01*
X-45256Y128067D01*
X-44488Y127914D01*
X-43720Y128067D01*
X-43069Y128502D01*
X-42634Y129153D01*
X-42481Y129921D01*
X-42634Y130689D01*
X-43069Y131341D01*
X-43441Y131589D01*
Y132190D01*
X-43069Y132439D01*
X-42634Y133090D01*
X-42481Y133858D01*
X-42634Y134626D01*
X-43069Y135277D01*
X-43441Y135526D01*
Y136127D01*
X-43069Y136376D01*
X-42634Y137027D01*
X-42481Y137795D01*
X-42634Y138563D01*
X-43069Y139215D01*
X-43720Y139650D01*
X-44488Y139802D01*
D02*
G37*
G36*
X74803Y124448D02*
X74035Y124295D01*
X73384Y123860D01*
X72949Y123209D01*
X72796Y122441D01*
X72949Y121673D01*
X73384Y121022D01*
X74035Y120587D01*
X74803Y120434D01*
X75571Y120587D01*
X76222Y121022D01*
X76657Y121673D01*
X76810Y122441D01*
X76657Y123209D01*
X76222Y123860D01*
X75571Y124295D01*
X74803Y124448D01*
D02*
G37*
G36*
X-59055Y134289D02*
X-60186Y134141D01*
X-61239Y133704D01*
X-62144Y133010D01*
X-62838Y132105D01*
X-63274Y131052D01*
X-63423Y129921D01*
Y122047D01*
X-63274Y120917D01*
X-62838Y119863D01*
X-62144Y118958D01*
X-61239Y118264D01*
X-60186Y117828D01*
X-59055Y117679D01*
X-57925Y117828D01*
X-56871Y118264D01*
X-55966Y118958D01*
X-55272Y119863D01*
X-54836Y120917D01*
X-54687Y122047D01*
Y129921D01*
X-54836Y131052D01*
X-55272Y132105D01*
X-55966Y133010D01*
X-56871Y133704D01*
X-57925Y134141D01*
X-59055Y134289D01*
D02*
G37*
G36*
X59055D02*
X57925Y134141D01*
X56871Y133704D01*
X55966Y133010D01*
X55272Y132105D01*
X54836Y131052D01*
X54687Y129921D01*
Y122047D01*
X54836Y120917D01*
X55272Y119863D01*
X55966Y118958D01*
X56871Y118264D01*
X57925Y117828D01*
X59055Y117679D01*
X60186Y117828D01*
X61239Y118264D01*
X62144Y118958D01*
X62838Y119863D01*
X63274Y120917D01*
X63423Y122047D01*
Y129921D01*
X63274Y131052D01*
X62838Y132105D01*
X62144Y133010D01*
X61239Y133704D01*
X60186Y134141D01*
X59055Y134289D01*
D02*
G37*
G36*
X83071Y66574D02*
X82303Y66421D01*
X81652Y65986D01*
X81217Y65335D01*
X81064Y64567D01*
X81217Y63799D01*
X81652Y63148D01*
X82303Y62713D01*
X83071Y62560D01*
X83839Y62713D01*
X84490Y63148D01*
X84925Y63799D01*
X85078Y64567D01*
X84925Y65335D01*
X84490Y65986D01*
X83839Y66421D01*
X83071Y66574D01*
D02*
G37*
G36*
X-113386Y31928D02*
X-114154Y31776D01*
X-114805Y31341D01*
X-115240Y30689D01*
X-115393Y29921D01*
X-115240Y29153D01*
X-114805Y28502D01*
X-114154Y28067D01*
X-113386Y27914D01*
X-112618Y28067D01*
X-111967Y28502D01*
X-111531Y29153D01*
X-111379Y29921D01*
X-111531Y30689D01*
X-111967Y31341D01*
X-112618Y31776D01*
X-113386Y31928D01*
D02*
G37*
G36*
X-129528Y36259D02*
X-130296Y36106D01*
X-130947Y35671D01*
X-131382Y35020D01*
X-131535Y34252D01*
X-131382Y33484D01*
X-130947Y32833D01*
X-130801Y32735D01*
X-130906Y32204D01*
X-131083Y32169D01*
X-131734Y31734D01*
X-132169Y31083D01*
X-132322Y30315D01*
X-132169Y29547D01*
X-131734Y28896D01*
X-131083Y28461D01*
X-130315Y28308D01*
X-129547Y28461D01*
X-128896Y28896D01*
X-128461Y29547D01*
X-128308Y30315D01*
X-128461Y31083D01*
X-128896Y31734D01*
X-129042Y31832D01*
X-128936Y32362D01*
X-128760Y32398D01*
X-128108Y32833D01*
X-127673Y33484D01*
X-127521Y34252D01*
X-127673Y35020D01*
X-128108Y35671D01*
X-128760Y36106D01*
X-129528Y36259D01*
D02*
G37*
G36*
X-146260Y30157D02*
X-147028Y30004D01*
X-147679Y29569D01*
X-148114Y28918D01*
X-148267Y28150D01*
X-148114Y27382D01*
X-147679Y26730D01*
X-147028Y26295D01*
X-146260Y26142D01*
X-145492Y26295D01*
X-144841Y26730D01*
X-144405Y27382D01*
X-144253Y28150D01*
X-144405Y28918D01*
X-144841Y29569D01*
X-145492Y30004D01*
X-146260Y30157D01*
D02*
G37*
G36*
X84646Y27991D02*
X83878Y27839D01*
X83227Y27404D01*
X82791Y26752D01*
X82639Y25984D01*
X82791Y25216D01*
X83227Y24565D01*
X83878Y24130D01*
X84646Y23977D01*
X85414Y24130D01*
X86065Y24565D01*
X86500Y25216D01*
X86653Y25984D01*
X86500Y26752D01*
X86065Y27404D01*
X85414Y27839D01*
X84646Y27991D01*
D02*
G37*
G36*
X-116929Y28779D02*
X-117697Y28626D01*
X-118348Y28191D01*
X-118783Y27540D01*
X-118936Y26772D01*
X-118783Y26004D01*
X-118348Y25352D01*
X-117697Y24917D01*
X-116929Y24765D01*
X-116161Y24917D01*
X-115510Y25352D01*
X-115075Y26004D01*
X-114922Y26772D01*
X-115075Y27540D01*
X-115510Y28191D01*
X-116161Y28626D01*
X-116929Y28779D01*
D02*
G37*
G36*
X-94095Y32322D02*
X-94863Y32169D01*
X-95514Y31734D01*
X-95949Y31083D01*
X-96102Y30315D01*
X-95949Y29547D01*
X-95514Y28896D01*
X-94863Y28461D01*
X-94095Y28308D01*
X-93326Y28461D01*
X-92675Y28896D01*
X-92240Y29547D01*
X-92087Y30315D01*
X-92240Y31083D01*
X-92675Y31734D01*
X-93326Y32169D01*
X-94095Y32322D01*
D02*
G37*
G36*
X105118Y34684D02*
X104350Y34532D01*
X103699Y34096D01*
X103264Y33445D01*
X103111Y32677D01*
X103264Y31909D01*
X103699Y31258D01*
X104350Y30823D01*
X105118Y30670D01*
X105886Y30823D01*
X106537Y31258D01*
X106972Y31909D01*
X107125Y32677D01*
X106972Y33445D01*
X106537Y34096D01*
X105886Y34532D01*
X105118Y34684D01*
D02*
G37*
G36*
X134547Y31988D02*
X133283D01*
X133295Y31931D01*
X133774Y31214D01*
X134490Y30736D01*
X134547Y30724D01*
Y31988D01*
D02*
G37*
G36*
X81102Y34291D02*
X80334Y34138D01*
X79683Y33703D01*
X79248Y33051D01*
X79095Y32283D01*
X79248Y31515D01*
X79683Y30864D01*
X80334Y30429D01*
X81102Y30276D01*
X81870Y30429D01*
X82522Y30864D01*
X82957Y31515D01*
X83109Y32283D01*
X82957Y33051D01*
X82522Y33703D01*
X81870Y34138D01*
X81102Y34291D01*
D02*
G37*
G36*
X-4331Y32322D02*
X-5099Y32169D01*
X-5750Y31734D01*
X-6185Y31083D01*
X-6338Y30315D01*
X-6185Y29547D01*
X-5750Y28896D01*
X-5099Y28461D01*
X-4331Y28308D01*
X-3563Y28461D01*
X-2912Y28896D01*
X-2476Y29547D01*
X-2324Y30315D01*
X-2476Y31083D01*
X-2912Y31734D01*
X-3563Y32169D01*
X-4331Y32322D01*
D02*
G37*
G36*
X-37795Y29960D02*
X-38563Y29807D01*
X-39215Y29372D01*
X-39358Y29157D01*
X-46850D01*
X-46850Y29157D01*
X-47311Y29065D01*
X-47702Y28804D01*
X-47702Y28804D01*
X-89828Y-13322D01*
X-90089Y-13712D01*
X-90181Y-14173D01*
X-90181Y-14173D01*
Y-25092D01*
X-101245Y-36156D01*
X-101506Y-36547D01*
X-101598Y-37008D01*
X-101598Y-37008D01*
Y-51587D01*
X-101813Y-51730D01*
X-102248Y-52381D01*
X-102401Y-53150D01*
X-102248Y-53918D01*
X-101813Y-54569D01*
X-101162Y-55004D01*
X-100394Y-55157D01*
X-99626Y-55004D01*
X-98975Y-54569D01*
X-98539Y-53918D01*
X-98387Y-53150D01*
X-98539Y-52381D01*
X-98975Y-51730D01*
X-99190Y-51587D01*
Y-37507D01*
X-88125Y-26442D01*
X-87864Y-26051D01*
X-87772Y-25591D01*
X-87772Y-25591D01*
Y-21937D01*
X-87272Y-21767D01*
X-87036Y-22075D01*
X-86440Y-22533D01*
X-85745Y-22820D01*
X-85000Y-22918D01*
X-84255Y-22820D01*
X-83561Y-22533D01*
X-82964Y-22075D01*
X-82507Y-21479D01*
X-82219Y-20785D01*
X-82121Y-20039D01*
X-82219Y-19294D01*
X-82507Y-18600D01*
X-82964Y-18004D01*
X-83561Y-17546D01*
X-84255Y-17258D01*
X-85000Y-17160D01*
X-85745Y-17258D01*
X-86440Y-17546D01*
X-87036Y-18004D01*
X-87272Y-18312D01*
X-87772Y-18142D01*
Y-14672D01*
X-46352Y26748D01*
X-39358D01*
X-39215Y26534D01*
X-38563Y26098D01*
X-37795Y25946D01*
X-37027Y26098D01*
X-36376Y26534D01*
X-35941Y27185D01*
X-35788Y27953D01*
X-35941Y28721D01*
X-36376Y29372D01*
X-37027Y29807D01*
X-37795Y29960D01*
D02*
G37*
G36*
X138189Y18936D02*
X137421Y18783D01*
X136770Y18348D01*
X136335Y17697D01*
X136182Y16929D01*
X136335Y16161D01*
X136770Y15510D01*
X137421Y15075D01*
X138189Y14922D01*
X138957Y15075D01*
X139608Y15510D01*
X140043Y16161D01*
X140196Y16929D01*
X140043Y17697D01*
X139608Y18348D01*
X138957Y18783D01*
X138189Y18936D01*
D02*
G37*
G36*
X146063Y19330D02*
X145295Y19177D01*
X144644Y18742D01*
X144209Y18091D01*
X144056Y17323D01*
X144209Y16555D01*
X144644Y15904D01*
X145295Y15469D01*
X146063Y15316D01*
X146831Y15469D01*
X147482Y15904D01*
X147917Y16555D01*
X148070Y17323D01*
X147917Y18091D01*
X147482Y18742D01*
X146831Y19177D01*
X146063Y19330D01*
D02*
G37*
G36*
X-129134Y18542D02*
X-129902Y18390D01*
X-130553Y17955D01*
X-130988Y17303D01*
X-131141Y16535D01*
X-130988Y15767D01*
X-130553Y15116D01*
X-129902Y14681D01*
X-129134Y14528D01*
X-128366Y14681D01*
X-127715Y15116D01*
X-127280Y15767D01*
X-127127Y16535D01*
X-127280Y17303D01*
X-127715Y17955D01*
X-128366Y18390D01*
X-129134Y18542D01*
D02*
G37*
G36*
X64961Y13424D02*
X64193Y13272D01*
X63541Y12836D01*
X63106Y12185D01*
X62954Y11417D01*
X63106Y10649D01*
X63541Y9998D01*
X64193Y9563D01*
X64961Y9410D01*
X65729Y9563D01*
X66380Y9998D01*
X66815Y10649D01*
X66968Y11417D01*
X66815Y12185D01*
X66380Y12836D01*
X65729Y13272D01*
X64961Y13424D01*
D02*
G37*
G36*
X-132677Y14212D02*
X-133445Y14059D01*
X-134096Y13624D01*
X-134531Y12973D01*
X-134684Y12205D01*
X-134531Y11437D01*
X-134096Y10785D01*
X-133445Y10350D01*
X-132677Y10198D01*
X-131909Y10350D01*
X-131258Y10785D01*
X-130823Y11437D01*
X-130670Y12205D01*
X-130823Y12973D01*
X-131258Y13624D01*
X-131909Y14059D01*
X-132677Y14212D01*
D02*
G37*
G36*
X-115748Y23661D02*
X-116516Y23508D01*
X-117167Y23073D01*
X-117602Y22422D01*
X-117755Y21654D01*
X-117602Y20886D01*
X-117167Y20234D01*
X-116659Y19895D01*
X-116713Y19374D01*
X-117364Y18939D01*
X-117799Y18288D01*
X-117952Y17520D01*
X-117799Y16752D01*
X-117364Y16101D01*
X-116713Y15665D01*
X-115945Y15513D01*
X-115177Y15665D01*
X-114526Y16101D01*
X-114091Y16752D01*
X-113938Y17520D01*
X-114091Y18288D01*
X-114526Y18939D01*
X-115034Y19279D01*
X-114980Y19799D01*
X-114329Y20234D01*
X-113894Y20886D01*
X-113741Y21654D01*
X-113894Y22422D01*
X-114329Y23073D01*
X-114980Y23508D01*
X-115748Y23661D01*
D02*
G37*
G36*
X124803Y26810D02*
X124035Y26657D01*
X123384Y26222D01*
X122949Y25571D01*
X122796Y24803D01*
X122949Y24035D01*
X123384Y23384D01*
X124035Y22949D01*
X124803Y22796D01*
X125571Y22949D01*
X126222Y23384D01*
X126657Y24035D01*
X126810Y24803D01*
X126657Y25571D01*
X126222Y26222D01*
X125571Y26657D01*
X124803Y26810D01*
D02*
G37*
G36*
X138189D02*
X137421Y26657D01*
X136770Y26222D01*
X136335Y25571D01*
X136182Y24803D01*
X136335Y24035D01*
X136770Y23384D01*
X137421Y22949D01*
X138189Y22796D01*
X138957Y22949D01*
X139608Y23384D01*
X140043Y24035D01*
X140196Y24803D01*
X140043Y25571D01*
X139608Y26222D01*
X138957Y26657D01*
X138189Y26810D01*
D02*
G37*
G36*
X105118Y26417D02*
X104350Y26264D01*
X103699Y25829D01*
X103264Y25177D01*
X103111Y24409D01*
X103264Y23641D01*
X103699Y22990D01*
X104350Y22555D01*
X105118Y22402D01*
X105886Y22555D01*
X106537Y22990D01*
X106972Y23641D01*
X107125Y24409D01*
X106972Y25177D01*
X106537Y25829D01*
X105886Y26264D01*
X105118Y26417D01*
D02*
G37*
G36*
X-22441Y20511D02*
X-23209Y20358D01*
X-23860Y19923D01*
X-24295Y19272D01*
X-24448Y18504D01*
X-24295Y17736D01*
X-23860Y17085D01*
X-23209Y16650D01*
X-22441Y16497D01*
X-21673Y16650D01*
X-21022Y17085D01*
X-20587Y17736D01*
X-20434Y18504D01*
X-20587Y19272D01*
X-21022Y19923D01*
X-21673Y20358D01*
X-22441Y20511D01*
D02*
G37*
G36*
X94193Y21003D02*
X93425Y20850D01*
X92774Y20415D01*
X92339Y19764D01*
X92186Y18996D01*
X92339Y18228D01*
X92774Y17577D01*
X93425Y17142D01*
X94193Y16989D01*
X94961Y17142D01*
X95612Y17577D01*
X96047Y18228D01*
X96200Y18996D01*
X96047Y19764D01*
X95612Y20415D01*
X94961Y20850D01*
X94193Y21003D01*
D02*
G37*
G36*
X137386Y31988D02*
X136122D01*
Y30724D01*
X136179Y30736D01*
X136896Y31214D01*
X137374Y31931D01*
X137386Y31988D01*
D02*
G37*
G36*
X135827Y53188D02*
X135059Y53035D01*
X134408Y52600D01*
X133973Y51949D01*
X133820Y51181D01*
X133973Y50413D01*
X134408Y49762D01*
X135059Y49327D01*
X135827Y49174D01*
X136595Y49327D01*
X137246Y49762D01*
X137681Y50413D01*
X137834Y51181D01*
X137681Y51949D01*
X137246Y52600D01*
X136595Y53035D01*
X135827Y53188D01*
D02*
G37*
G36*
X-126772Y59487D02*
X-127540Y59335D01*
X-128191Y58899D01*
X-128626Y58248D01*
X-128779Y57480D01*
X-128626Y56712D01*
X-128191Y56061D01*
X-127540Y55626D01*
X-126772Y55473D01*
X-126004Y55626D01*
X-125352Y56061D01*
X-124917Y56712D01*
X-124765Y57480D01*
X-124917Y58248D01*
X-125352Y58899D01*
X-126004Y59335D01*
X-126772Y59487D01*
D02*
G37*
G36*
X-91732Y50432D02*
X-92500Y50279D01*
X-93151Y49844D01*
X-93587Y49193D01*
X-93739Y48425D01*
X-93587Y47657D01*
X-93151Y47006D01*
X-92500Y46571D01*
X-91732Y46418D01*
X-90964Y46571D01*
X-90313Y47006D01*
X-89878Y47657D01*
X-89725Y48425D01*
X-89878Y49193D01*
X-90313Y49844D01*
X-90964Y50279D01*
X-91732Y50432D01*
D02*
G37*
G36*
X-98622Y47086D02*
X-99390Y46933D01*
X-100041Y46498D01*
X-100476Y45847D01*
X-100629Y45079D01*
X-100476Y44311D01*
X-100041Y43659D01*
X-99390Y43224D01*
X-98622Y43072D01*
X-97854Y43224D01*
X-97203Y43659D01*
X-96768Y44311D01*
X-96615Y45079D01*
X-96768Y45847D01*
X-97203Y46498D01*
X-97854Y46933D01*
X-98622Y47086D01*
D02*
G37*
G36*
X117323Y48070D02*
X116555Y47917D01*
X115904Y47482D01*
X115469Y46831D01*
X115316Y46063D01*
X115469Y45295D01*
X115904Y44644D01*
X116555Y44209D01*
X117323Y44056D01*
X118091Y44209D01*
X118742Y44644D01*
X119177Y45295D01*
X119330Y46063D01*
X119177Y46831D01*
X118742Y47482D01*
X118091Y47917D01*
X117323Y48070D01*
D02*
G37*
G36*
X93799Y60373D02*
X93031Y60220D01*
X92380Y59785D01*
X91945Y59134D01*
X91792Y58366D01*
X91945Y57598D01*
X92380Y56947D01*
X93031Y56512D01*
X93799Y56359D01*
X94567Y56512D01*
X95218Y56947D01*
X95653Y57598D01*
X95806Y58366D01*
X95653Y59134D01*
X95218Y59785D01*
X94567Y60220D01*
X93799Y60373D01*
D02*
G37*
G36*
X128740Y64999D02*
X127972Y64846D01*
X127321Y64411D01*
X126886Y63760D01*
X126733Y62992D01*
X126886Y62224D01*
X127321Y61573D01*
X127972Y61138D01*
X128740Y60985D01*
X129508Y61138D01*
X130159Y61573D01*
X130595Y62224D01*
X130747Y62992D01*
X130595Y63760D01*
X130159Y64411D01*
X129508Y64846D01*
X128740Y64999D01*
D02*
G37*
G36*
X134252D02*
X133484Y64846D01*
X132833Y64411D01*
X132398Y63760D01*
X132245Y62992D01*
X132398Y62224D01*
X132833Y61573D01*
X133484Y61138D01*
X134252Y60985D01*
X135020Y61138D01*
X135671Y61573D01*
X136106Y62224D01*
X136259Y62992D01*
X136106Y63760D01*
X135671Y64411D01*
X135020Y64846D01*
X134252Y64999D01*
D02*
G37*
G36*
X-127165Y64212D02*
X-127933Y64059D01*
X-128585Y63624D01*
X-129020Y62973D01*
X-129172Y62205D01*
X-129020Y61437D01*
X-128585Y60786D01*
X-127933Y60350D01*
X-127165Y60198D01*
X-126397Y60350D01*
X-125746Y60786D01*
X-125311Y61437D01*
X-125158Y62205D01*
X-125311Y62973D01*
X-125746Y63624D01*
X-126397Y64059D01*
X-127165Y64212D01*
D02*
G37*
G36*
X21654Y61850D02*
X20886Y61697D01*
X20234Y61262D01*
X19799Y60611D01*
X19647Y59842D01*
X19799Y59074D01*
X20234Y58423D01*
X20886Y57988D01*
X21654Y57836D01*
X22422Y57988D01*
X23073Y58423D01*
X23508Y59074D01*
X23661Y59842D01*
X23508Y60611D01*
X23073Y61262D01*
X22422Y61697D01*
X21654Y61850D01*
D02*
G37*
G36*
X62992Y63031D02*
X62224Y62878D01*
X61573Y62443D01*
X61138Y61792D01*
X60985Y61024D01*
X61138Y60256D01*
X61573Y59604D01*
X62224Y59169D01*
X62992Y59017D01*
X63760Y59169D01*
X64411Y59604D01*
X64846Y60256D01*
X64999Y61024D01*
X64846Y61792D01*
X64411Y62443D01*
X63760Y62878D01*
X62992Y63031D01*
D02*
G37*
G36*
X-130315Y38976D02*
X-131579D01*
X-131567Y38919D01*
X-131089Y38203D01*
X-130372Y37724D01*
X-130315Y37713D01*
Y38976D01*
D02*
G37*
G36*
X-127476D02*
X-128740D01*
Y37713D01*
X-128683Y37724D01*
X-127966Y38203D01*
X-127488Y38919D01*
X-127476Y38976D01*
D02*
G37*
G36*
X136122Y34827D02*
Y33563D01*
X137386D01*
X137374Y33621D01*
X136896Y34337D01*
X136179Y34815D01*
X136122Y34827D01*
D02*
G37*
G36*
X51181Y35078D02*
X50413Y34925D01*
X49762Y34490D01*
X49327Y33839D01*
X49174Y33071D01*
X49327Y32303D01*
X49762Y31652D01*
X50413Y31217D01*
X51181Y31064D01*
X51949Y31217D01*
X52600Y31652D01*
X53035Y32303D01*
X53188Y33071D01*
X53035Y33839D01*
X52600Y34490D01*
X51949Y34925D01*
X51181Y35078D01*
D02*
G37*
G36*
X134547Y34827D02*
X134490Y34815D01*
X133774Y34337D01*
X133295Y33621D01*
X133283Y33563D01*
X134547D01*
Y34827D01*
D02*
G37*
G36*
X-78740Y50361D02*
X-80128Y50178D01*
X-81421Y49643D01*
X-82531Y48791D01*
X-83383Y47680D01*
X-83918Y46387D01*
X-84101Y45000D01*
X-83918Y43613D01*
X-83383Y42320D01*
X-82531Y41209D01*
X-81421Y40357D01*
X-80128Y39822D01*
X-78740Y39639D01*
X-77353Y39822D01*
X-76060Y40357D01*
X-74950Y41209D01*
X-74098Y42320D01*
X-73562Y43613D01*
X-73379Y45000D01*
X-73562Y46387D01*
X-74098Y47680D01*
X-74950Y48791D01*
X-76060Y49643D01*
X-77353Y50178D01*
X-78740Y50361D01*
D02*
G37*
G36*
X-128740Y41815D02*
Y40551D01*
X-127476D01*
X-127488Y40609D01*
X-127966Y41325D01*
X-128683Y41804D01*
X-128740Y41815D01*
D02*
G37*
G36*
X-129528Y50826D02*
X-130296Y50673D01*
X-130947Y50238D01*
X-131382Y49587D01*
X-131535Y48819D01*
X-131382Y48051D01*
X-130947Y47400D01*
X-130710Y47242D01*
X-130702Y47032D01*
X-130772Y46681D01*
X-131341Y46301D01*
X-131775Y45650D01*
X-131928Y44882D01*
X-131775Y44114D01*
X-131341Y43463D01*
X-130689Y43028D01*
X-129921Y42875D01*
X-129153Y43028D01*
X-128502Y43463D01*
X-128067Y44114D01*
X-127914Y44882D01*
X-128067Y45650D01*
X-128502Y46301D01*
X-128738Y46459D01*
X-128747Y46669D01*
X-128677Y47019D01*
X-128108Y47400D01*
X-127673Y48051D01*
X-127521Y48819D01*
X-127673Y49587D01*
X-128108Y50238D01*
X-128760Y50673D01*
X-129528Y50826D01*
D02*
G37*
G36*
X-130315Y41815D02*
X-130372Y41804D01*
X-131089Y41325D01*
X-131567Y40609D01*
X-131579Y40551D01*
X-130315D01*
Y41815D01*
D02*
G37*
G36*
X78740Y50361D02*
X77353Y50178D01*
X76060Y49643D01*
X74950Y48791D01*
X74098Y47680D01*
X73562Y46387D01*
X73379Y45000D01*
X73562Y43613D01*
X74098Y42320D01*
X74950Y41209D01*
X76060Y40357D01*
X77353Y39822D01*
X78740Y39639D01*
X80128Y39822D01*
X81421Y40357D01*
X82531Y41209D01*
X83383Y42320D01*
X83918Y43613D01*
X84101Y45000D01*
X83918Y46387D01*
X83383Y47680D01*
X82531Y48791D01*
X81421Y49643D01*
X80128Y50178D01*
X78740Y50361D01*
D02*
G37*
G36*
X-94882Y44527D02*
X-95650Y44374D01*
X-96301Y43939D01*
X-96736Y43288D01*
X-96889Y42520D01*
X-96736Y41752D01*
X-96301Y41100D01*
X-95650Y40665D01*
X-94882Y40513D01*
X-94114Y40665D01*
X-93463Y41100D01*
X-93028Y41752D01*
X-92875Y42520D01*
X-93028Y43288D01*
X-93463Y43939D01*
X-94114Y44374D01*
X-94882Y44527D01*
D02*
G37*
%LPD*%
D26*
X-100394Y-53150D02*
Y-37008D01*
X-88976Y-25591D01*
Y-14173D01*
X-46850Y27953D01*
X-37795D01*
D29*
X-50000Y119291D02*
X-49213Y120079D01*
X-120079Y-53150D02*
Y-20079D01*
X-50000Y50000D01*
Y119291D01*
X-116142Y-53150D02*
Y-22047D01*
X-112205Y-53150D02*
Y-23228D01*
X-116142Y-22047D02*
X-40157Y53937D01*
Y119291D01*
X-39370Y120079D01*
X-112205Y-23228D02*
X-30315Y58661D01*
Y119291D01*
X-29528Y120079D01*
X-20472Y119291D02*
X-19685Y120079D01*
X-108268Y-53150D02*
Y-24409D01*
X-20472Y63386D01*
Y119291D01*
X-19685Y127165D02*
Y131496D01*
Y127165D02*
X-9843Y117323D01*
Y103543D02*
Y117323D01*
X11811Y127165D02*
Y131496D01*
Y127165D02*
X19685Y119291D01*
Y105905D02*
Y119291D01*
X43307Y127165D02*
Y131496D01*
Y121653D02*
Y127165D01*
Y121653D02*
X49606Y115354D01*
Y104724D02*
Y115354D01*
Y104724D02*
X53543Y100787D01*
X101969D01*
X106693Y96063D01*
Y92126D02*
Y96063D01*
X19685Y105905D02*
X29134Y96457D01*
X94488D01*
X99606Y91339D01*
Y43307D02*
Y91339D01*
Y43307D02*
X103543D01*
X-9843Y103543D02*
X1969Y91732D01*
X74410D01*
X88976Y77165D01*
Y9843D02*
Y77165D01*
Y9843D02*
X110236Y-11417D01*
X116929D01*
D36*
X126378Y76791D02*
D03*
X135335Y32776D02*
D03*
X146850Y-1575D02*
D03*
X106299Y-72441D02*
D03*
X107480Y-49606D02*
D03*
X-101181Y-64991D02*
D03*
X-100394Y-53150D02*
D03*
X-37795Y27953D02*
D03*
X-129528Y39764D02*
D03*
X-120079Y-53150D02*
D03*
X-116142D02*
D03*
X-112205D02*
D03*
X-108268D02*
D03*
X-49213Y120079D02*
D03*
X-39370D02*
D03*
X-29528D02*
D03*
X-19685D02*
D03*
Y127165D02*
D03*
Y131496D02*
D03*
X11811D02*
D03*
Y127165D02*
D03*
X43307Y131496D02*
D03*
Y127165D02*
D03*
X106693Y96063D02*
D03*
Y92126D02*
D03*
X99606Y43307D02*
D03*
X103543D02*
D03*
X110236Y-11417D02*
D03*
X116929D02*
D03*
M02*
