G04*
G04 #@! TF.GenerationSoftware,Altium Limited,CircuitStudio,1.5.2 (30)*
G04*
G04 Layer_Color=16770453*
%FSLAX25Y25*%
%MOIN*%
G70*
G01*
G75*
G04:AMPARAMS|DCode=79|XSize=23.23mil|YSize=74.41mil|CornerRadius=5.71mil|HoleSize=0mil|Usage=FLASHONLY|Rotation=135.000|XOffset=0mil|YOffset=0mil|HoleType=Round|Shape=RoundedRectangle|*
%AMROUNDEDRECTD79*
21,1,0.02323,0.06299,0,0,135.0*
21,1,0.01181,0.07441,0,0,135.0*
1,1,0.01142,0.01810,0.02645*
1,1,0.01142,0.02645,0.01810*
1,1,0.01142,-0.01810,-0.02645*
1,1,0.01142,-0.02645,-0.01810*
%
%ADD79ROUNDEDRECTD79*%
G04:AMPARAMS|DCode=80|XSize=82.28mil|YSize=109.84mil|CornerRadius=20.47mil|HoleSize=0mil|Usage=FLASHONLY|Rotation=135.000|XOffset=0mil|YOffset=0mil|HoleType=Round|Shape=RoundedRectangle|*
%AMROUNDEDRECTD80*
21,1,0.08228,0.06890,0,0,135.0*
21,1,0.04134,0.10984,0,0,135.0*
1,1,0.04095,0.00974,0.03897*
1,1,0.04095,0.03897,0.00974*
1,1,0.04095,-0.00974,-0.03897*
1,1,0.04095,-0.03897,-0.00974*
%
%ADD80ROUNDEDRECTD80*%
%ADD81C,0.00000*%
D79*
X-126503Y-62473D02*
D03*
X-123719Y-65257D02*
D03*
X-120935Y-68041D02*
D03*
X-118151Y-70825D02*
D03*
X-115367Y-73609D02*
D03*
X-112583Y-76393D02*
D03*
X-109800Y-79177D02*
D03*
X-107016Y-81961D02*
D03*
X-104232Y-84745D02*
D03*
X-101448Y-87529D02*
D03*
X-98664Y-90312D02*
D03*
X-95880Y-93096D02*
D03*
X-93096Y-95880D02*
D03*
X-90312Y-98664D02*
D03*
X-87529Y-101448D02*
D03*
X-84745Y-104232D02*
D03*
X-81961Y-107016D02*
D03*
X-79177Y-109800D02*
D03*
X-76393Y-112583D02*
D03*
X-73609Y-115367D02*
D03*
X-70825Y-118151D02*
D03*
X-68041Y-120935D02*
D03*
X-65257Y-123719D02*
D03*
X-62473Y-126503D02*
D03*
D80*
X-128730Y-47162D02*
D03*
X-47162Y-128730D02*
D03*
D81*
X-21654Y148031D02*
D03*
X-146457Y23228D02*
D03*
X-128740Y26378D02*
D03*
X-125197Y33858D02*
D03*
X130709Y39764D02*
D03*
X79921Y68898D02*
D03*
X-50394Y-87402D02*
D03*
X-83071Y-118504D02*
D03*
X43307Y-31496D02*
D03*
X-94095Y-106693D02*
D03*
X27953Y-56693D02*
D03*
X21260Y148031D02*
D03*
X7087Y149213D02*
D03*
X-125984Y44094D02*
D03*
X-103937Y-101575D02*
D03*
X-91339Y-111417D02*
D03*
X-87008Y-114173D02*
D03*
X-43701Y-66142D02*
D03*
X-15748Y-61417D02*
D03*
X70472Y-51575D02*
D03*
X96457Y-42520D02*
D03*
X117323Y77559D02*
D03*
M02*
