G04*
G04 #@! TF.GenerationSoftware,Altium Limited,CircuitStudio,1.5.2 (30)*
G04*
G04 Layer_Physical_Order=2*
G04 Layer_Color=16765976*
%FSLAX25Y25*%
%MOIN*%
G70*
G01*
G75*
%ADD29C,0.00787*%
%ADD36C,0.03150*%
G36*
X7500Y152666D02*
X14982Y152114D01*
X22428Y151196D01*
X29820Y149913D01*
X37140Y148270D01*
X44370Y146269D01*
X51494Y143915D01*
X58493Y141215D01*
X65352Y138175D01*
X72053Y134802D01*
X78581Y131104D01*
X84919Y127091D01*
X91053Y122771D01*
X96967Y118155D01*
X102648Y113255D01*
X108081Y108081D01*
X113255Y102648D01*
X118155Y96967D01*
X122771Y91053D01*
X127091Y84919D01*
X131104Y78581D01*
X134802Y72053D01*
X138175Y65352D01*
X141215Y58493D01*
X143915Y51494D01*
X146269Y44370D01*
X148270Y37140D01*
X149913Y29820D01*
X151196Y22428D01*
X152114Y14982D01*
X152666Y7500D01*
X152850Y0D01*
X152666Y-7500D01*
X152114Y-14982D01*
X151196Y-22428D01*
X149913Y-29820D01*
X148270Y-37140D01*
X146269Y-44370D01*
X143915Y-51494D01*
X141215Y-58493D01*
X138175Y-65352D01*
X134802Y-72053D01*
X131104Y-78581D01*
X127091Y-84919D01*
X122771Y-91053D01*
X118155Y-96967D01*
X113255Y-102648D01*
X108081Y-108081D01*
X102648Y-113255D01*
X96967Y-118155D01*
X91053Y-122771D01*
X84919Y-127091D01*
X78581Y-131104D01*
X72053Y-134802D01*
X65352Y-138175D01*
X58493Y-141215D01*
X51494Y-143915D01*
X44370Y-146269D01*
X37140Y-148270D01*
X29820Y-149913D01*
X22428Y-151196D01*
X14982Y-152114D01*
X7500Y-152666D01*
X0Y-152850D01*
X-7500Y-152666D01*
X-14982Y-152114D01*
X-22428Y-151196D01*
X-29820Y-149913D01*
X-37140Y-148270D01*
X-44370Y-146269D01*
X-51494Y-143915D01*
X-58493Y-141215D01*
X-65352Y-138175D01*
X-72053Y-134802D01*
X-78581Y-131104D01*
X-84919Y-127091D01*
X-91053Y-122771D01*
X-96967Y-118155D01*
X-102648Y-113255D01*
X-108081Y-108081D01*
X-113255Y-102648D01*
X-118155Y-96967D01*
X-122771Y-91053D01*
X-127091Y-84919D01*
X-131104Y-78581D01*
X-134802Y-72053D01*
X-138175Y-65352D01*
X-141215Y-58493D01*
X-143915Y-51494D01*
X-146269Y-44370D01*
X-148270Y-37140D01*
X-149913Y-29820D01*
X-151196Y-22428D01*
X-152114Y-14982D01*
X-152666Y-7500D01*
X-152850Y0D01*
X-152666Y7500D01*
X-152114Y14982D01*
X-151196Y22428D01*
X-149913Y29820D01*
X-148270Y37140D01*
X-146269Y44370D01*
X-143915Y51494D01*
X-141215Y58493D01*
X-138175Y65352D01*
X-134802Y72053D01*
X-131104Y78581D01*
X-127091Y84919D01*
X-122771Y91053D01*
X-118155Y96967D01*
X-113255Y102648D01*
X-108081Y108081D01*
X-102648Y113255D01*
X-96967Y118155D01*
X-91053Y122771D01*
X-84919Y127091D01*
X-78581Y131104D01*
X-72053Y134802D01*
X-65352Y138175D01*
X-58493Y141215D01*
X-51494Y143915D01*
X-44370Y146269D01*
X-37140Y148270D01*
X-29820Y149913D01*
X-22428Y151196D01*
X-14982Y152114D01*
X-7500Y152666D01*
X0Y152850D01*
X7500Y152666D01*
D02*
G37*
%LPC*%
G36*
X-100394Y-29528D02*
X-101657D01*
X-101646Y-29585D01*
X-101167Y-30301D01*
X-100451Y-30780D01*
X-100394Y-30791D01*
Y-29528D01*
D02*
G37*
G36*
X78740Y-27520D02*
X77972Y-27673D01*
X77321Y-28108D01*
X76886Y-28760D01*
X76733Y-29528D01*
X76886Y-30296D01*
X77321Y-30947D01*
X77972Y-31382D01*
X78740Y-31535D01*
X79508Y-31382D01*
X80159Y-30947D01*
X80594Y-30296D01*
X80747Y-29528D01*
X80594Y-28760D01*
X80159Y-28108D01*
X79508Y-27673D01*
X78740Y-27520D01*
D02*
G37*
G36*
X-97555Y-29528D02*
X-98819D01*
Y-30791D01*
X-98761Y-30780D01*
X-98045Y-30301D01*
X-97567Y-29585D01*
X-97555Y-29528D01*
D02*
G37*
G36*
X147720Y-27165D02*
X146457D01*
Y-28429D01*
X146514Y-28418D01*
X147230Y-27939D01*
X147709Y-27223D01*
X147720Y-27165D01*
D02*
G37*
G36*
X144882D02*
X143618D01*
X143630Y-27223D01*
X144108Y-27939D01*
X144824Y-28418D01*
X144882Y-28429D01*
Y-27165D01*
D02*
G37*
G36*
X-49606Y-31807D02*
Y-33071D01*
X-48343D01*
X-48354Y-33013D01*
X-48833Y-32297D01*
X-49549Y-31819D01*
X-49606Y-31807D01*
D02*
G37*
G36*
X-51181D02*
X-51239Y-31819D01*
X-51955Y-32297D01*
X-52433Y-33013D01*
X-52445Y-33071D01*
X-51181D01*
Y-31807D01*
D02*
G37*
G36*
X-78740Y-27520D02*
X-79508Y-27673D01*
X-80159Y-28108D01*
X-80594Y-28760D01*
X-80747Y-29528D01*
X-80594Y-30296D01*
X-80159Y-30947D01*
X-79508Y-31382D01*
X-78740Y-31535D01*
X-77972Y-31382D01*
X-77321Y-30947D01*
X-76886Y-30296D01*
X-76733Y-29528D01*
X-76886Y-28760D01*
X-77321Y-28108D01*
X-77972Y-27673D01*
X-78740Y-27520D01*
D02*
G37*
G36*
X29528D02*
X28760Y-27673D01*
X28108Y-28108D01*
X27673Y-28760D01*
X27520Y-29528D01*
X27673Y-30296D01*
X28108Y-30947D01*
X28760Y-31382D01*
X29528Y-31535D01*
X30296Y-31382D01*
X30947Y-30947D01*
X31382Y-30296D01*
X31535Y-29528D01*
X31382Y-28760D01*
X30947Y-28108D01*
X30296Y-27673D01*
X29528Y-27520D01*
D02*
G37*
G36*
X-29528D02*
X-30296Y-27673D01*
X-30947Y-28108D01*
X-31382Y-28760D01*
X-31535Y-29528D01*
X-31382Y-30296D01*
X-30947Y-30947D01*
X-30296Y-31382D01*
X-29528Y-31535D01*
X-28760Y-31382D01*
X-28108Y-30947D01*
X-27673Y-30296D01*
X-27520Y-29528D01*
X-27673Y-28760D01*
X-28108Y-28108D01*
X-28760Y-27673D01*
X-29528Y-27520D01*
D02*
G37*
G36*
X-100394Y-26689D02*
X-100451Y-26700D01*
X-101167Y-27179D01*
X-101646Y-27895D01*
X-101657Y-27953D01*
X-100394D01*
Y-26689D01*
D02*
G37*
G36*
X146457Y-24327D02*
Y-25591D01*
X147720D01*
X147709Y-25533D01*
X147230Y-24817D01*
X146514Y-24338D01*
X146457Y-24327D01*
D02*
G37*
G36*
X144882D02*
X144824Y-24338D01*
X144108Y-24817D01*
X143630Y-25533D01*
X143618Y-25591D01*
X144882D01*
Y-24327D01*
D02*
G37*
G36*
X112598Y-21965D02*
X112541Y-21976D01*
X111825Y-22455D01*
X111346Y-23171D01*
X111335Y-23228D01*
X112598D01*
Y-21965D01*
D02*
G37*
G36*
X-85000Y-17160D02*
X-85745Y-17258D01*
X-86440Y-17546D01*
X-87036Y-18004D01*
X-87493Y-18600D01*
X-87781Y-19294D01*
X-87879Y-20039D01*
X-87781Y-20785D01*
X-87493Y-21479D01*
X-87036Y-22075D01*
X-86440Y-22533D01*
X-85745Y-22820D01*
X-85000Y-22918D01*
X-84255Y-22820D01*
X-83561Y-22533D01*
X-82964Y-22075D01*
X-82507Y-21479D01*
X-82219Y-20785D01*
X-82121Y-20039D01*
X-82219Y-19294D01*
X-82507Y-18600D01*
X-82964Y-18004D01*
X-83561Y-17546D01*
X-84255Y-17258D01*
X-85000Y-17160D01*
D02*
G37*
G36*
X114173Y-21965D02*
Y-23228D01*
X115437D01*
X115426Y-23171D01*
X114947Y-22455D01*
X114231Y-21976D01*
X114173Y-21965D01*
D02*
G37*
G36*
X112598Y-24803D02*
X111335D01*
X111346Y-24861D01*
X111825Y-25577D01*
X112541Y-26055D01*
X112598Y-26067D01*
Y-24803D01*
D02*
G37*
G36*
X-98819Y-26689D02*
Y-27953D01*
X-97555D01*
X-97567Y-27895D01*
X-98045Y-27179D01*
X-98761Y-26700D01*
X-98819Y-26689D01*
D02*
G37*
G36*
X115437Y-24803D02*
X114173D01*
Y-26067D01*
X114231Y-26055D01*
X114947Y-25577D01*
X115426Y-24861D01*
X115437Y-24803D01*
D02*
G37*
G36*
X128429Y-24409D02*
X127165D01*
Y-25673D01*
X127223Y-25662D01*
X127939Y-25183D01*
X128418Y-24467D01*
X128429Y-24409D01*
D02*
G37*
G36*
X125591D02*
X124327D01*
X124338Y-24467D01*
X124817Y-25183D01*
X125533Y-25662D01*
X125591Y-25673D01*
Y-24409D01*
D02*
G37*
G36*
X107480Y-47599D02*
X106712Y-47752D01*
X106061Y-48187D01*
X105626Y-48838D01*
X105473Y-49606D01*
X105626Y-50374D01*
X106061Y-51025D01*
X106712Y-51461D01*
X107480Y-51613D01*
X108248Y-51461D01*
X108899Y-51025D01*
X109335Y-50374D01*
X109487Y-49606D01*
X109335Y-48838D01*
X108899Y-48187D01*
X108248Y-47752D01*
X107480Y-47599D01*
D02*
G37*
G36*
X-108268Y-51143D02*
X-109036Y-51295D01*
X-109687Y-51730D01*
X-109935Y-52103D01*
X-110537D01*
X-110785Y-51730D01*
X-111437Y-51295D01*
X-112205Y-51143D01*
X-112973Y-51295D01*
X-113624Y-51730D01*
X-113873Y-52103D01*
X-114474D01*
X-114723Y-51730D01*
X-115374Y-51295D01*
X-116142Y-51143D01*
X-116910Y-51295D01*
X-117561Y-51730D01*
X-117810Y-52103D01*
X-118411D01*
X-118659Y-51730D01*
X-119311Y-51295D01*
X-120079Y-51143D01*
X-120847Y-51295D01*
X-121498Y-51730D01*
X-121933Y-52381D01*
X-122086Y-53150D01*
X-121933Y-53918D01*
X-121498Y-54569D01*
X-120847Y-55004D01*
X-120079Y-55157D01*
X-119311Y-55004D01*
X-118659Y-54569D01*
X-118411Y-54197D01*
X-117810D01*
X-117561Y-54569D01*
X-116910Y-55004D01*
X-116142Y-55157D01*
X-115374Y-55004D01*
X-114723Y-54569D01*
X-114474Y-54197D01*
X-113873D01*
X-113624Y-54569D01*
X-112973Y-55004D01*
X-112205Y-55157D01*
X-111437Y-55004D01*
X-110785Y-54569D01*
X-110537Y-54197D01*
X-109935D01*
X-109687Y-54569D01*
X-109036Y-55004D01*
X-108268Y-55157D01*
X-107500Y-55004D01*
X-106849Y-54569D01*
X-106413Y-53918D01*
X-106261Y-53150D01*
X-106413Y-52381D01*
X-106849Y-51730D01*
X-107500Y-51295D01*
X-108268Y-51143D01*
D02*
G37*
G36*
X124409Y-44488D02*
X123146D01*
X123157Y-44546D01*
X123636Y-45262D01*
X124352Y-45741D01*
X124409Y-45752D01*
Y-44488D01*
D02*
G37*
G36*
Y-41650D02*
X124352Y-41661D01*
X123636Y-42140D01*
X123157Y-42856D01*
X123146Y-42913D01*
X124409D01*
Y-41650D01*
D02*
G37*
G36*
X127248Y-44488D02*
X125984D01*
Y-45752D01*
X126042Y-45741D01*
X126758Y-45262D01*
X127237Y-44546D01*
X127248Y-44488D01*
D02*
G37*
G36*
X-34646Y-56610D02*
X-34703Y-56622D01*
X-35419Y-57100D01*
X-35898Y-57816D01*
X-35909Y-57874D01*
X-34646D01*
Y-56610D01*
D02*
G37*
G36*
X-31807Y-59449D02*
X-33071D01*
Y-60713D01*
X-33013Y-60701D01*
X-32297Y-60223D01*
X-31819Y-59506D01*
X-31807Y-59449D01*
D02*
G37*
G36*
X-33071Y-56610D02*
Y-57874D01*
X-31807D01*
X-31819Y-57816D01*
X-32297Y-57100D01*
X-33013Y-56622D01*
X-33071Y-56610D01*
D02*
G37*
G36*
X-100394Y-51143D02*
X-101162Y-51295D01*
X-101813Y-51730D01*
X-102248Y-52381D01*
X-102401Y-53150D01*
X-102248Y-53918D01*
X-101813Y-54569D01*
X-101162Y-55004D01*
X-100394Y-55157D01*
X-99626Y-55004D01*
X-98975Y-54569D01*
X-98539Y-53918D01*
X-98387Y-53150D01*
X-98539Y-52381D01*
X-98975Y-51730D01*
X-99626Y-51295D01*
X-100394Y-51143D01*
D02*
G37*
G36*
X113779Y-51536D02*
X113012Y-51689D01*
X112360Y-52124D01*
X111925Y-52775D01*
X111773Y-53543D01*
X111925Y-54311D01*
X112360Y-54962D01*
X113012Y-55398D01*
X113779Y-55550D01*
X114548Y-55398D01*
X115199Y-54962D01*
X115634Y-54311D01*
X115787Y-53543D01*
X115634Y-52775D01*
X115199Y-52124D01*
X114548Y-51689D01*
X113779Y-51536D01*
D02*
G37*
G36*
X125984Y-41650D02*
Y-42913D01*
X127248D01*
X127237Y-42856D01*
X126758Y-42140D01*
X126042Y-41661D01*
X125984Y-41650D01*
D02*
G37*
G36*
X-94882Y-37713D02*
X-94939Y-37724D01*
X-95656Y-38203D01*
X-96134Y-38919D01*
X-96146Y-38976D01*
X-94882D01*
Y-37713D01*
D02*
G37*
G36*
X143701Y-38500D02*
Y-39764D01*
X144965D01*
X144953Y-39706D01*
X144474Y-38990D01*
X143758Y-38511D01*
X143701Y-38500D01*
D02*
G37*
G36*
X-93307Y-37713D02*
Y-38976D01*
X-92043D01*
X-92055Y-38919D01*
X-92533Y-38203D01*
X-93250Y-37724D01*
X-93307Y-37713D01*
D02*
G37*
G36*
X-48343Y-34646D02*
X-49606D01*
Y-35909D01*
X-49549Y-35898D01*
X-48833Y-35419D01*
X-48354Y-34703D01*
X-48343Y-34646D01*
D02*
G37*
G36*
X-51181D02*
X-52445D01*
X-52433Y-34703D01*
X-51955Y-35419D01*
X-51239Y-35898D01*
X-51181Y-35909D01*
Y-34646D01*
D02*
G37*
G36*
X144965Y-41339D02*
X143701D01*
Y-42602D01*
X143758Y-42591D01*
X144474Y-42112D01*
X144953Y-41396D01*
X144965Y-41339D01*
D02*
G37*
G36*
X142126D02*
X140862D01*
X140874Y-41396D01*
X141352Y-42112D01*
X142069Y-42591D01*
X142126Y-42602D01*
Y-41339D01*
D02*
G37*
G36*
X-94882Y-40551D02*
X-96146D01*
X-96134Y-40609D01*
X-95656Y-41325D01*
X-94939Y-41804D01*
X-94882Y-41815D01*
Y-40551D01*
D02*
G37*
G36*
X142126Y-38500D02*
X142069Y-38511D01*
X141352Y-38990D01*
X140874Y-39706D01*
X140862Y-39764D01*
X142126D01*
Y-38500D01*
D02*
G37*
G36*
X-92043Y-40551D02*
X-93307D01*
Y-41815D01*
X-93250Y-41804D01*
X-92533Y-41325D01*
X-92055Y-40609D01*
X-92043Y-40551D01*
D02*
G37*
G36*
X-75000Y-17160D02*
X-75745Y-17258D01*
X-76439Y-17546D01*
X-77036Y-18004D01*
X-77493Y-18600D01*
X-77781Y-19294D01*
X-77879Y-20039D01*
X-77781Y-20785D01*
X-77493Y-21479D01*
X-77036Y-22075D01*
X-76439Y-22533D01*
X-75745Y-22820D01*
X-75000Y-22918D01*
X-74255Y-22820D01*
X-73561Y-22533D01*
X-72964Y-22075D01*
X-72507Y-21479D01*
X-72219Y-20785D01*
X-72121Y-20039D01*
X-72219Y-19294D01*
X-72507Y-18600D01*
X-72964Y-18004D01*
X-73561Y-17546D01*
X-74255Y-17258D01*
X-75000Y-17160D01*
D02*
G37*
G36*
X110236Y-9410D02*
X109468Y-9563D01*
X108817Y-9998D01*
X108382Y-10649D01*
X108229Y-11417D01*
X108382Y-12185D01*
X108817Y-12836D01*
X109468Y-13272D01*
X110236Y-13424D01*
X111004Y-13272D01*
X111655Y-12836D01*
X112091Y-12185D01*
X112243Y-11417D01*
X112091Y-10649D01*
X111655Y-9998D01*
X111004Y-9563D01*
X110236Y-9410D01*
D02*
G37*
G36*
X-126295Y-12992D02*
X-127559D01*
Y-14256D01*
X-127502Y-14244D01*
X-126785Y-13766D01*
X-126307Y-13050D01*
X-126295Y-12992D01*
D02*
G37*
G36*
X116929Y-9410D02*
X116161Y-9563D01*
X115510Y-9998D01*
X115075Y-10649D01*
X114922Y-11417D01*
X115075Y-12185D01*
X115510Y-12836D01*
X116161Y-13272D01*
X116929Y-13424D01*
X117697Y-13272D01*
X118348Y-12836D01*
X118783Y-12185D01*
X118936Y-11417D01*
X118783Y-10649D01*
X118348Y-9998D01*
X117697Y-9563D01*
X116929Y-9410D01*
D02*
G37*
G36*
X-127559Y-10154D02*
Y-11417D01*
X-126295D01*
X-126307Y-11360D01*
X-126785Y-10644D01*
X-127502Y-10165D01*
X-127559Y-10154D01*
D02*
G37*
G36*
X-129134D02*
X-129191Y-10165D01*
X-129908Y-10644D01*
X-130386Y-11360D01*
X-130398Y-11417D01*
X-129134D01*
Y-10154D01*
D02*
G37*
G36*
X144882Y-18421D02*
X144824Y-18433D01*
X144108Y-18911D01*
X143630Y-19628D01*
X143618Y-19685D01*
X144882D01*
Y-18421D01*
D02*
G37*
G36*
X147720Y-21260D02*
X146457D01*
Y-22524D01*
X146514Y-22512D01*
X147230Y-22034D01*
X147709Y-21317D01*
X147720Y-21260D01*
D02*
G37*
G36*
X146457Y-18421D02*
Y-19685D01*
X147720D01*
X147709Y-19628D01*
X147230Y-18911D01*
X146514Y-18433D01*
X146457Y-18421D01*
D02*
G37*
G36*
X-129134Y-12992D02*
X-130398D01*
X-130386Y-13050D01*
X-129908Y-13766D01*
X-129191Y-14244D01*
X-129134Y-14256D01*
Y-12992D01*
D02*
G37*
G36*
X94882Y-10985D02*
X94114Y-11138D01*
X93463Y-11573D01*
X93028Y-12224D01*
X92875Y-12992D01*
X93028Y-13760D01*
X93463Y-14411D01*
X94114Y-14846D01*
X94882Y-14999D01*
X95650Y-14846D01*
X96301Y-14411D01*
X96736Y-13760D01*
X96889Y-12992D01*
X96736Y-12224D01*
X96301Y-11573D01*
X95650Y-11138D01*
X94882Y-10985D01*
D02*
G37*
G36*
X-118110Y6725D02*
X-119422Y6596D01*
X-120684Y6213D01*
X-121847Y5592D01*
X-122866Y4755D01*
X-123702Y3736D01*
X-124324Y2574D01*
X-124706Y1312D01*
X-124836Y0D01*
X-124706Y-1312D01*
X-124324Y-2574D01*
X-123702Y-3736D01*
X-122866Y-4755D01*
X-121847Y-5592D01*
X-120684Y-6213D01*
X-119422Y-6596D01*
X-118110Y-6725D01*
X-116798Y-6596D01*
X-115537Y-6213D01*
X-114374Y-5592D01*
X-113355Y-4755D01*
X-112518Y-3736D01*
X-111897Y-2574D01*
X-111514Y-1312D01*
X-111385Y0D01*
X-111514Y1312D01*
X-111897Y2574D01*
X-112518Y3736D01*
X-113355Y4755D01*
X-114374Y5592D01*
X-115537Y6213D01*
X-116798Y6596D01*
X-118110Y6725D01*
D02*
G37*
G36*
X28740Y-1492D02*
X28683Y-1504D01*
X27966Y-1982D01*
X27488Y-2698D01*
X27476Y-2756D01*
X28740D01*
Y-1492D01*
D02*
G37*
G36*
X146850Y432D02*
X146082Y280D01*
X145431Y-156D01*
X144996Y-807D01*
X144843Y-1575D01*
X144996Y-2343D01*
X145431Y-2994D01*
X146082Y-3429D01*
X146850Y-3582D01*
X147618Y-3429D01*
X148270Y-2994D01*
X148705Y-2343D01*
X148857Y-1575D01*
X148705Y-807D01*
X148270Y-156D01*
X147618Y280D01*
X146850Y432D01*
D02*
G37*
G36*
X30315Y-1492D02*
Y-2756D01*
X31579D01*
X31567Y-2698D01*
X31089Y-1982D01*
X30372Y-1504D01*
X30315Y-1492D01*
D02*
G37*
G36*
X141027Y3150D02*
X139764D01*
Y1886D01*
X139821Y1897D01*
X140538Y2376D01*
X141016Y3092D01*
X141027Y3150D01*
D02*
G37*
G36*
X138189D02*
X136925D01*
X136937Y3092D01*
X137415Y2376D01*
X138131Y1897D01*
X138189Y1886D01*
Y3150D01*
D02*
G37*
G36*
X28740Y-4331D02*
X27476D01*
X27488Y-4388D01*
X27966Y-5104D01*
X28683Y-5583D01*
X28740Y-5594D01*
Y-4331D01*
D02*
G37*
G36*
X118110Y6725D02*
X116798Y6596D01*
X115537Y6213D01*
X114374Y5592D01*
X113355Y4755D01*
X112518Y3736D01*
X111897Y2574D01*
X111514Y1312D01*
X111385Y0D01*
X111514Y-1312D01*
X111897Y-2574D01*
X112518Y-3736D01*
X113355Y-4755D01*
X114374Y-5592D01*
X115537Y-6213D01*
X116798Y-6596D01*
X118110Y-6725D01*
X119422Y-6596D01*
X120684Y-6213D01*
X121847Y-5592D01*
X122866Y-4755D01*
X123702Y-3736D01*
X124324Y-2574D01*
X124706Y-1312D01*
X124836Y0D01*
X124706Y1312D01*
X124324Y2574D01*
X123702Y3736D01*
X122866Y4755D01*
X121847Y5592D01*
X120684Y6213D01*
X119422Y6596D01*
X118110Y6725D01*
D02*
G37*
G36*
X31579Y-4331D02*
X30315D01*
Y-5594D01*
X30372Y-5583D01*
X31089Y-5104D01*
X31567Y-4388D01*
X31579Y-4331D01*
D02*
G37*
G36*
X84646Y432D02*
X83878Y280D01*
X83227Y-156D01*
X82791Y-807D01*
X82639Y-1575D01*
X82791Y-2343D01*
X83227Y-2994D01*
X83878Y-3429D01*
X84646Y-3582D01*
X85414Y-3429D01*
X86065Y-2994D01*
X86500Y-2343D01*
X86653Y-1575D01*
X86500Y-807D01*
X86065Y-156D01*
X85414Y280D01*
X84646Y432D01*
D02*
G37*
G36*
X134252Y-749D02*
X133484Y-902D01*
X132833Y-1337D01*
X132398Y-1988D01*
X132245Y-2756D01*
X132398Y-3524D01*
X132833Y-4175D01*
X133484Y-4610D01*
X134252Y-4763D01*
X135020Y-4610D01*
X135671Y-4175D01*
X136106Y-3524D01*
X136259Y-2756D01*
X136106Y-1988D01*
X135671Y-1337D01*
X135020Y-902D01*
X134252Y-749D01*
D02*
G37*
G36*
X-5000Y-17160D02*
X-5745Y-17258D01*
X-6440Y-17546D01*
X-7036Y-18004D01*
X-7493Y-18600D01*
X-7781Y-19294D01*
X-7879Y-20039D01*
X-7781Y-20785D01*
X-7493Y-21479D01*
X-7036Y-22075D01*
X-6440Y-22533D01*
X-5745Y-22820D01*
X-5000Y-22918D01*
X-4255Y-22820D01*
X-3560Y-22533D01*
X-2964Y-22075D01*
X-2507Y-21479D01*
X-2219Y-20785D01*
X-2121Y-20039D01*
X-2219Y-19294D01*
X-2507Y-18600D01*
X-2964Y-18004D01*
X-3560Y-17546D01*
X-4255Y-17258D01*
X-5000Y-17160D01*
D02*
G37*
G36*
X-15000D02*
X-15745Y-17258D01*
X-16440Y-17546D01*
X-17036Y-18004D01*
X-17493Y-18600D01*
X-17781Y-19294D01*
X-17879Y-20039D01*
X-17781Y-20785D01*
X-17493Y-21479D01*
X-17036Y-22075D01*
X-16440Y-22533D01*
X-15745Y-22820D01*
X-15000Y-22918D01*
X-14255Y-22820D01*
X-13561Y-22533D01*
X-12964Y-22075D01*
X-12507Y-21479D01*
X-12219Y-20785D01*
X-12121Y-20039D01*
X-12219Y-19294D01*
X-12507Y-18600D01*
X-12964Y-18004D01*
X-13561Y-17546D01*
X-14255Y-17258D01*
X-15000Y-17160D01*
D02*
G37*
G36*
X5000D02*
X4255Y-17258D01*
X3560Y-17546D01*
X2964Y-18004D01*
X2507Y-18600D01*
X2219Y-19294D01*
X2121Y-20039D01*
X2219Y-20785D01*
X2507Y-21479D01*
X2964Y-22075D01*
X3560Y-22533D01*
X4255Y-22820D01*
X5000Y-22918D01*
X5745Y-22820D01*
X6440Y-22533D01*
X7036Y-22075D01*
X7493Y-21479D01*
X7781Y-20785D01*
X7879Y-20039D01*
X7781Y-19294D01*
X7493Y-18600D01*
X7036Y-18004D01*
X6440Y-17546D01*
X5745Y-17258D01*
X5000Y-17160D01*
D02*
G37*
G36*
X25000D02*
X24255Y-17258D01*
X23561Y-17546D01*
X22964Y-18004D01*
X22507Y-18600D01*
X22219Y-19294D01*
X22121Y-20039D01*
X22219Y-20785D01*
X22507Y-21479D01*
X22964Y-22075D01*
X23561Y-22533D01*
X24255Y-22820D01*
X25000Y-22918D01*
X25745Y-22820D01*
X26439Y-22533D01*
X27036Y-22075D01*
X27493Y-21479D01*
X27781Y-20785D01*
X27879Y-20039D01*
X27781Y-19294D01*
X27493Y-18600D01*
X27036Y-18004D01*
X26439Y-17546D01*
X25745Y-17258D01*
X25000Y-17160D01*
D02*
G37*
G36*
X15000D02*
X14255Y-17258D01*
X13561Y-17546D01*
X12964Y-18004D01*
X12507Y-18600D01*
X12219Y-19294D01*
X12121Y-20039D01*
X12219Y-20785D01*
X12507Y-21479D01*
X12964Y-22075D01*
X13561Y-22533D01*
X14255Y-22820D01*
X15000Y-22918D01*
X15745Y-22820D01*
X16440Y-22533D01*
X17036Y-22075D01*
X17493Y-21479D01*
X17781Y-20785D01*
X17879Y-20039D01*
X17781Y-19294D01*
X17493Y-18600D01*
X17036Y-18004D01*
X16440Y-17546D01*
X15745Y-17258D01*
X15000Y-17160D01*
D02*
G37*
G36*
X-55000D02*
X-55745Y-17258D01*
X-56440Y-17546D01*
X-57036Y-18004D01*
X-57493Y-18600D01*
X-57781Y-19294D01*
X-57879Y-20039D01*
X-57781Y-20785D01*
X-57493Y-21479D01*
X-57036Y-22075D01*
X-56440Y-22533D01*
X-55745Y-22820D01*
X-55000Y-22918D01*
X-54255Y-22820D01*
X-53561Y-22533D01*
X-52964Y-22075D01*
X-52507Y-21479D01*
X-52219Y-20785D01*
X-52121Y-20039D01*
X-52219Y-19294D01*
X-52507Y-18600D01*
X-52964Y-18004D01*
X-53561Y-17546D01*
X-54255Y-17258D01*
X-55000Y-17160D01*
D02*
G37*
G36*
X-65000D02*
X-65745Y-17258D01*
X-66439Y-17546D01*
X-67036Y-18004D01*
X-67493Y-18600D01*
X-67781Y-19294D01*
X-67879Y-20039D01*
X-67781Y-20785D01*
X-67493Y-21479D01*
X-67036Y-22075D01*
X-66439Y-22533D01*
X-65745Y-22820D01*
X-65000Y-22918D01*
X-64255Y-22820D01*
X-63560Y-22533D01*
X-62964Y-22075D01*
X-62507Y-21479D01*
X-62219Y-20785D01*
X-62121Y-20039D01*
X-62219Y-19294D01*
X-62507Y-18600D01*
X-62964Y-18004D01*
X-63560Y-17546D01*
X-64255Y-17258D01*
X-65000Y-17160D01*
D02*
G37*
G36*
X-45000D02*
X-45745Y-17258D01*
X-46439Y-17546D01*
X-47036Y-18004D01*
X-47493Y-18600D01*
X-47781Y-19294D01*
X-47879Y-20039D01*
X-47781Y-20785D01*
X-47493Y-21479D01*
X-47036Y-22075D01*
X-46439Y-22533D01*
X-45745Y-22820D01*
X-45000Y-22918D01*
X-44255Y-22820D01*
X-43560Y-22533D01*
X-42964Y-22075D01*
X-42507Y-21479D01*
X-42219Y-20785D01*
X-42121Y-20039D01*
X-42219Y-19294D01*
X-42507Y-18600D01*
X-42964Y-18004D01*
X-43560Y-17546D01*
X-44255Y-17258D01*
X-45000Y-17160D01*
D02*
G37*
G36*
X-25000D02*
X-25745Y-17258D01*
X-26439Y-17546D01*
X-27036Y-18004D01*
X-27493Y-18600D01*
X-27781Y-19294D01*
X-27879Y-20039D01*
X-27781Y-20785D01*
X-27493Y-21479D01*
X-27036Y-22075D01*
X-26439Y-22533D01*
X-25745Y-22820D01*
X-25000Y-22918D01*
X-24255Y-22820D01*
X-23561Y-22533D01*
X-22964Y-22075D01*
X-22507Y-21479D01*
X-22219Y-20785D01*
X-22121Y-20039D01*
X-22219Y-19294D01*
X-22507Y-18600D01*
X-22964Y-18004D01*
X-23561Y-17546D01*
X-24255Y-17258D01*
X-25000Y-17160D01*
D02*
G37*
G36*
X-35000D02*
X-35745Y-17258D01*
X-36439Y-17546D01*
X-37036Y-18004D01*
X-37493Y-18600D01*
X-37781Y-19294D01*
X-37879Y-20039D01*
X-37781Y-20785D01*
X-37493Y-21479D01*
X-37036Y-22075D01*
X-36439Y-22533D01*
X-35745Y-22820D01*
X-35000Y-22918D01*
X-34255Y-22820D01*
X-33560Y-22533D01*
X-32964Y-22075D01*
X-32507Y-21479D01*
X-32219Y-20785D01*
X-32121Y-20039D01*
X-32219Y-19294D01*
X-32507Y-18600D01*
X-32964Y-18004D01*
X-33560Y-17546D01*
X-34255Y-17258D01*
X-35000Y-17160D01*
D02*
G37*
G36*
X35000D02*
X34255Y-17258D01*
X33560Y-17546D01*
X32964Y-18004D01*
X32507Y-18600D01*
X32219Y-19294D01*
X32121Y-20039D01*
X32219Y-20785D01*
X32507Y-21479D01*
X32964Y-22075D01*
X33560Y-22533D01*
X34255Y-22820D01*
X35000Y-22918D01*
X35745Y-22820D01*
X36439Y-22533D01*
X37036Y-22075D01*
X37493Y-21479D01*
X37781Y-20785D01*
X37879Y-20039D01*
X37781Y-19294D01*
X37493Y-18600D01*
X37036Y-18004D01*
X36439Y-17546D01*
X35745Y-17258D01*
X35000Y-17160D01*
D02*
G37*
G36*
X-92146Y-17185D02*
X-97854D01*
Y-22894D01*
X-92146D01*
Y-17185D01*
D02*
G37*
G36*
X95000Y-17160D02*
X94255Y-17258D01*
X93560Y-17546D01*
X92964Y-18004D01*
X92507Y-18600D01*
X92219Y-19294D01*
X92121Y-20039D01*
X92219Y-20785D01*
X92507Y-21479D01*
X92964Y-22075D01*
X93560Y-22533D01*
X94255Y-22820D01*
X95000Y-22918D01*
X95745Y-22820D01*
X96439Y-22533D01*
X97036Y-22075D01*
X97493Y-21479D01*
X97781Y-20785D01*
X97879Y-20039D01*
X97781Y-19294D01*
X97493Y-18600D01*
X97036Y-18004D01*
X96439Y-17546D01*
X95745Y-17258D01*
X95000Y-17160D01*
D02*
G37*
G36*
X125591Y-21571D02*
X125533Y-21582D01*
X124817Y-22061D01*
X124338Y-22777D01*
X124327Y-22835D01*
X125591D01*
Y-21571D01*
D02*
G37*
G36*
X144882Y-21260D02*
X143618D01*
X143630Y-21317D01*
X144108Y-22034D01*
X144824Y-22512D01*
X144882Y-22524D01*
Y-21260D01*
D02*
G37*
G36*
X127165Y-21571D02*
Y-22835D01*
X128429D01*
X128418Y-22777D01*
X127939Y-22061D01*
X127223Y-21582D01*
X127165Y-21571D01*
D02*
G37*
G36*
X55000Y-17160D02*
X54255Y-17258D01*
X53561Y-17546D01*
X52964Y-18004D01*
X52507Y-18600D01*
X52219Y-19294D01*
X52121Y-20039D01*
X52219Y-20785D01*
X52507Y-21479D01*
X52964Y-22075D01*
X53561Y-22533D01*
X54255Y-22820D01*
X55000Y-22918D01*
X55745Y-22820D01*
X56440Y-22533D01*
X57036Y-22075D01*
X57493Y-21479D01*
X57781Y-20785D01*
X57879Y-20039D01*
X57781Y-19294D01*
X57493Y-18600D01*
X57036Y-18004D01*
X56440Y-17546D01*
X55745Y-17258D01*
X55000Y-17160D01*
D02*
G37*
G36*
X45000D02*
X44255Y-17258D01*
X43560Y-17546D01*
X42964Y-18004D01*
X42507Y-18600D01*
X42219Y-19294D01*
X42121Y-20039D01*
X42219Y-20785D01*
X42507Y-21479D01*
X42964Y-22075D01*
X43560Y-22533D01*
X44255Y-22820D01*
X45000Y-22918D01*
X45745Y-22820D01*
X46439Y-22533D01*
X47036Y-22075D01*
X47493Y-21479D01*
X47781Y-20785D01*
X47879Y-20039D01*
X47781Y-19294D01*
X47493Y-18600D01*
X47036Y-18004D01*
X46439Y-17546D01*
X45745Y-17258D01*
X45000Y-17160D01*
D02*
G37*
G36*
X65000D02*
X64255Y-17258D01*
X63560Y-17546D01*
X62964Y-18004D01*
X62507Y-18600D01*
X62219Y-19294D01*
X62121Y-20039D01*
X62219Y-20785D01*
X62507Y-21479D01*
X62964Y-22075D01*
X63560Y-22533D01*
X64255Y-22820D01*
X65000Y-22918D01*
X65745Y-22820D01*
X66439Y-22533D01*
X67036Y-22075D01*
X67493Y-21479D01*
X67781Y-20785D01*
X67879Y-20039D01*
X67781Y-19294D01*
X67493Y-18600D01*
X67036Y-18004D01*
X66439Y-17546D01*
X65745Y-17258D01*
X65000Y-17160D01*
D02*
G37*
G36*
X85000D02*
X84255Y-17258D01*
X83561Y-17546D01*
X82964Y-18004D01*
X82507Y-18600D01*
X82219Y-19294D01*
X82121Y-20039D01*
X82219Y-20785D01*
X82507Y-21479D01*
X82964Y-22075D01*
X83561Y-22533D01*
X84255Y-22820D01*
X85000Y-22918D01*
X85745Y-22820D01*
X86440Y-22533D01*
X87036Y-22075D01*
X87493Y-21479D01*
X87781Y-20785D01*
X87879Y-20039D01*
X87781Y-19294D01*
X87493Y-18600D01*
X87036Y-18004D01*
X86440Y-17546D01*
X85745Y-17258D01*
X85000Y-17160D01*
D02*
G37*
G36*
X75000D02*
X74255Y-17258D01*
X73561Y-17546D01*
X72964Y-18004D01*
X72507Y-18600D01*
X72219Y-19294D01*
X72121Y-20039D01*
X72219Y-20785D01*
X72507Y-21479D01*
X72964Y-22075D01*
X73561Y-22533D01*
X74255Y-22820D01*
X75000Y-22918D01*
X75745Y-22820D01*
X76439Y-22533D01*
X77036Y-22075D01*
X77493Y-21479D01*
X77781Y-20785D01*
X77879Y-20039D01*
X77781Y-19294D01*
X77493Y-18600D01*
X77036Y-18004D01*
X76439Y-17546D01*
X75745Y-17258D01*
X75000Y-17160D01*
D02*
G37*
G36*
X-34646Y-59449D02*
X-35909D01*
X-35898Y-59506D01*
X-35419Y-60223D01*
X-34703Y-60701D01*
X-34646Y-60713D01*
Y-59449D01*
D02*
G37*
G36*
X-71653Y-96063D02*
X-72917D01*
X-72906Y-96121D01*
X-72427Y-96837D01*
X-71711Y-97315D01*
X-71653Y-97327D01*
Y-96063D01*
D02*
G37*
G36*
X-64961Y-93662D02*
X-65729Y-93815D01*
X-66380Y-94250D01*
X-66815Y-94901D01*
X-66968Y-95669D01*
X-66815Y-96437D01*
X-66380Y-97088D01*
X-65729Y-97524D01*
X-64961Y-97676D01*
X-64193Y-97524D01*
X-63541Y-97088D01*
X-63106Y-96437D01*
X-62954Y-95669D01*
X-63106Y-94901D01*
X-63541Y-94250D01*
X-64193Y-93815D01*
X-64961Y-93662D01*
D02*
G37*
G36*
X-68815Y-96063D02*
X-70079D01*
Y-97327D01*
X-70021Y-97315D01*
X-69305Y-96837D01*
X-68826Y-96121D01*
X-68815Y-96063D01*
D02*
G37*
G36*
X17799D02*
X16535D01*
Y-97327D01*
X16593Y-97315D01*
X17309Y-96837D01*
X17788Y-96121D01*
X17799Y-96063D01*
D02*
G37*
G36*
X14961D02*
X13697D01*
X13708Y-96121D01*
X14187Y-96837D01*
X14903Y-97315D01*
X14961Y-97327D01*
Y-96063D01*
D02*
G37*
G36*
X-28346Y-96457D02*
X-29610D01*
X-29599Y-96514D01*
X-29120Y-97230D01*
X-28404Y-97709D01*
X-28346Y-97720D01*
Y-96457D01*
D02*
G37*
G36*
X-42520Y-104248D02*
Y-105512D01*
X-41256D01*
X-41267Y-105454D01*
X-41746Y-104738D01*
X-42462Y-104260D01*
X-42520Y-104248D01*
D02*
G37*
G36*
X-25508Y-96457D02*
X-26772D01*
Y-97720D01*
X-26714Y-97709D01*
X-25998Y-97230D01*
X-25519Y-96514D01*
X-25508Y-96457D01*
D02*
G37*
G36*
X88665D02*
X87402D01*
Y-97720D01*
X87459Y-97709D01*
X88175Y-97230D01*
X88654Y-96514D01*
X88665Y-96457D01*
D02*
G37*
G36*
X85827D02*
X84563D01*
X84575Y-96514D01*
X85053Y-97230D01*
X85769Y-97709D01*
X85827Y-97720D01*
Y-96457D01*
D02*
G37*
G36*
X58268Y-96063D02*
X57004D01*
X57015Y-96121D01*
X57494Y-96837D01*
X58210Y-97315D01*
X58268Y-97327D01*
Y-96063D01*
D02*
G37*
G36*
X85827Y-93618D02*
X85769Y-93630D01*
X85053Y-94108D01*
X84575Y-94824D01*
X84563Y-94882D01*
X85827D01*
Y-93618D01*
D02*
G37*
G36*
X-26772D02*
Y-94882D01*
X-25508D01*
X-25519Y-94824D01*
X-25998Y-94108D01*
X-26714Y-93630D01*
X-26772Y-93618D01*
D02*
G37*
G36*
X87402D02*
Y-94882D01*
X88665D01*
X88654Y-94824D01*
X88175Y-94108D01*
X87459Y-93630D01*
X87402Y-93618D01*
D02*
G37*
G36*
X-70079Y-93225D02*
Y-94488D01*
X-68815D01*
X-68826Y-94431D01*
X-69305Y-93714D01*
X-70021Y-93236D01*
X-70079Y-93225D01*
D02*
G37*
G36*
X-71653D02*
X-71711Y-93236D01*
X-72427Y-93714D01*
X-72906Y-94431D01*
X-72917Y-94488D01*
X-71653D01*
Y-93225D01*
D02*
G37*
G36*
X101575Y-96063D02*
X100311D01*
X100322Y-96121D01*
X100801Y-96837D01*
X101517Y-97315D01*
X101575Y-97327D01*
Y-96063D01*
D02*
G37*
G36*
X61106D02*
X59842D01*
Y-97327D01*
X59900Y-97315D01*
X60616Y-96837D01*
X61095Y-96121D01*
X61106Y-96063D01*
D02*
G37*
G36*
X104413D02*
X103150D01*
Y-97327D01*
X103207Y-97315D01*
X103923Y-96837D01*
X104402Y-96121D01*
X104413Y-96063D01*
D02*
G37*
G36*
X-28346Y-93618D02*
X-28404Y-93630D01*
X-29120Y-94108D01*
X-29599Y-94824D01*
X-29610Y-94882D01*
X-28346D01*
Y-93618D01*
D02*
G37*
G36*
X-81890Y-92875D02*
X-82658Y-93028D01*
X-83309Y-93463D01*
X-83744Y-94114D01*
X-83897Y-94882D01*
X-83744Y-95650D01*
X-83309Y-96301D01*
X-82658Y-96736D01*
X-81890Y-96889D01*
X-81122Y-96736D01*
X-80471Y-96301D01*
X-80036Y-95650D01*
X-79883Y-94882D01*
X-80036Y-94114D01*
X-80471Y-93463D01*
X-81122Y-93028D01*
X-81890Y-92875D01*
D02*
G37*
G36*
X35122Y-124016D02*
X33858D01*
Y-125279D01*
X33916Y-125268D01*
X34632Y-124790D01*
X35111Y-124073D01*
X35122Y-124016D01*
D02*
G37*
G36*
X32283D02*
X31020D01*
X31031Y-124073D01*
X31510Y-124790D01*
X32226Y-125268D01*
X32283Y-125279D01*
Y-124016D01*
D02*
G37*
G36*
X0Y-111385D02*
X-1312Y-111514D01*
X-2574Y-111897D01*
X-3736Y-112518D01*
X-4755Y-113355D01*
X-5592Y-114374D01*
X-6213Y-115537D01*
X-6596Y-116798D01*
X-6725Y-118110D01*
X-6596Y-119422D01*
X-6213Y-120684D01*
X-5592Y-121847D01*
X-4755Y-122866D01*
X-3736Y-123702D01*
X-2574Y-124324D01*
X-1312Y-124706D01*
X0Y-124836D01*
X1312Y-124706D01*
X2574Y-124324D01*
X3736Y-123702D01*
X4755Y-122866D01*
X5592Y-121847D01*
X6213Y-120684D01*
X6596Y-119422D01*
X6725Y-118110D01*
X6596Y-116798D01*
X6213Y-115537D01*
X5592Y-114374D01*
X4755Y-113355D01*
X3736Y-112518D01*
X2574Y-111897D01*
X1312Y-111514D01*
X0Y-111385D01*
D02*
G37*
G36*
X33858Y-121177D02*
Y-122441D01*
X35122D01*
X35111Y-122383D01*
X34632Y-121667D01*
X33916Y-121189D01*
X33858Y-121177D01*
D02*
G37*
G36*
X32283D02*
X32226Y-121189D01*
X31510Y-121667D01*
X31031Y-122383D01*
X31020Y-122441D01*
X32283D01*
Y-121177D01*
D02*
G37*
G36*
X-20079Y-133465D02*
X-21342D01*
X-21331Y-133522D01*
X-20853Y-134238D01*
X-20136Y-134717D01*
X-20079Y-134728D01*
Y-133465D01*
D02*
G37*
G36*
X50394Y-123985D02*
X49159Y-124107D01*
X47971Y-124467D01*
X46877Y-125052D01*
X45918Y-125839D01*
X45131Y-126798D01*
X44546Y-127893D01*
X44186Y-129080D01*
X44064Y-130315D01*
X44186Y-131550D01*
X44546Y-132737D01*
X45131Y-133832D01*
X45918Y-134791D01*
X46877Y-135578D01*
X47971Y-136163D01*
X49159Y-136523D01*
X50394Y-136645D01*
X51629Y-136523D01*
X52816Y-136163D01*
X53910Y-135578D01*
X54870Y-134791D01*
X55657Y-133832D01*
X56242Y-132737D01*
X56602Y-131550D01*
X56723Y-130315D01*
X56602Y-129080D01*
X56242Y-127893D01*
X55657Y-126798D01*
X54870Y-125839D01*
X53910Y-125052D01*
X52816Y-124467D01*
X51629Y-124107D01*
X50394Y-123985D01*
D02*
G37*
G36*
X-17240Y-133465D02*
X-18504D01*
Y-134728D01*
X-18447Y-134717D01*
X-17730Y-134238D01*
X-17252Y-133522D01*
X-17240Y-133465D01*
D02*
G37*
G36*
X-18504Y-130626D02*
Y-131890D01*
X-17240D01*
X-17252Y-131832D01*
X-17730Y-131116D01*
X-18447Y-130638D01*
X-18504Y-130626D01*
D02*
G37*
G36*
X-20079D02*
X-20136Y-130638D01*
X-20853Y-131116D01*
X-21331Y-131832D01*
X-21342Y-131890D01*
X-20079D01*
Y-130626D01*
D02*
G37*
G36*
X61417Y-119685D02*
X60154D01*
X60165Y-119743D01*
X60644Y-120459D01*
X61360Y-120937D01*
X61417Y-120949D01*
Y-119685D01*
D02*
G37*
G36*
X-41256Y-111024D02*
X-45358D01*
X-45347Y-111081D01*
X-44868Y-111797D01*
X-44633Y-111955D01*
Y-112455D01*
X-44868Y-112612D01*
X-45347Y-113328D01*
X-45358Y-113386D01*
X-41256D01*
X-41267Y-113328D01*
X-41746Y-112612D01*
X-41982Y-112455D01*
Y-111955D01*
X-41746Y-111797D01*
X-41267Y-111081D01*
X-41256Y-111024D01*
D02*
G37*
G36*
Y-114961D02*
X-45358D01*
X-45347Y-115018D01*
X-44868Y-115734D01*
X-44633Y-115892D01*
Y-116392D01*
X-44868Y-116549D01*
X-45347Y-117265D01*
X-45358Y-117323D01*
X-41256D01*
X-41267Y-117265D01*
X-41746Y-116549D01*
X-41982Y-116392D01*
Y-115892D01*
X-41746Y-115734D01*
X-41267Y-115018D01*
X-41256Y-114961D01*
D02*
G37*
G36*
X-99606Y-106261D02*
X-100374Y-106413D01*
X-101025Y-106849D01*
X-101461Y-107500D01*
X-101613Y-108268D01*
X-101461Y-109036D01*
X-101025Y-109687D01*
X-100374Y-110122D01*
X-99606Y-110275D01*
X-98838Y-110122D01*
X-98187Y-109687D01*
X-97752Y-109036D01*
X-97599Y-108268D01*
X-97752Y-107500D01*
X-98187Y-106849D01*
X-98838Y-106413D01*
X-99606Y-106261D01*
D02*
G37*
G36*
X-44094Y-104248D02*
X-44152Y-104260D01*
X-44868Y-104738D01*
X-45347Y-105454D01*
X-45358Y-105512D01*
X-44094D01*
Y-104248D01*
D02*
G37*
G36*
X-41256Y-107087D02*
X-45358D01*
X-45347Y-107144D01*
X-44868Y-107860D01*
X-44633Y-108018D01*
Y-108518D01*
X-44868Y-108675D01*
X-45347Y-109391D01*
X-45358Y-109449D01*
X-41256D01*
X-41267Y-109391D01*
X-41746Y-108675D01*
X-41982Y-108518D01*
Y-108018D01*
X-41746Y-107860D01*
X-41267Y-107144D01*
X-41256Y-107087D01*
D02*
G37*
G36*
X-44094Y-118898D02*
X-45358D01*
X-45347Y-118955D01*
X-44868Y-119671D01*
X-44152Y-120150D01*
X-44094Y-120161D01*
Y-118898D01*
D02*
G37*
G36*
X64256Y-119685D02*
X62992D01*
Y-120949D01*
X63050Y-120937D01*
X63766Y-120459D01*
X64244Y-119743D01*
X64256Y-119685D01*
D02*
G37*
G36*
X-41256Y-118898D02*
X-42520D01*
Y-120161D01*
X-42462Y-120150D01*
X-41746Y-119671D01*
X-41267Y-118955D01*
X-41256Y-118898D01*
D02*
G37*
G36*
X62992Y-116847D02*
Y-118110D01*
X64256D01*
X64244Y-118053D01*
X63766Y-117336D01*
X63050Y-116858D01*
X62992Y-116847D01*
D02*
G37*
G36*
X61417D02*
X61360Y-116858D01*
X60644Y-117336D01*
X60165Y-118053D01*
X60154Y-118110D01*
X61417D01*
Y-116847D01*
D02*
G37*
G36*
X14961Y-93225D02*
X14903Y-93236D01*
X14187Y-93714D01*
X13708Y-94431D01*
X13697Y-94488D01*
X14961D01*
Y-93225D01*
D02*
G37*
G36*
X8661Y-72752D02*
Y-74016D01*
X9925D01*
X9914Y-73958D01*
X9435Y-73242D01*
X8719Y-72763D01*
X8661Y-72752D01*
D02*
G37*
G36*
X7087D02*
X7029Y-72763D01*
X6313Y-73242D01*
X5834Y-73958D01*
X5823Y-74016D01*
X7087D01*
Y-72752D01*
D02*
G37*
G36*
X50394D02*
X50336Y-72763D01*
X49620Y-73242D01*
X49141Y-73958D01*
X49130Y-74016D01*
X50394D01*
Y-72752D01*
D02*
G37*
G36*
X93701D02*
X93643Y-72763D01*
X92927Y-73242D01*
X92449Y-73958D01*
X92437Y-74016D01*
X93701D01*
Y-72752D01*
D02*
G37*
G36*
X51968D02*
Y-74016D01*
X53232D01*
X53221Y-73958D01*
X52742Y-73242D01*
X52026Y-72763D01*
X51968Y-72752D01*
D02*
G37*
G36*
X-79527D02*
X-79585Y-72763D01*
X-80301Y-73242D01*
X-80780Y-73958D01*
X-80791Y-74016D01*
X-79527D01*
Y-72752D01*
D02*
G37*
G36*
X106299Y-70434D02*
X105531Y-70587D01*
X104880Y-71022D01*
X104445Y-71673D01*
X104292Y-72441D01*
X104445Y-73209D01*
X104880Y-73860D01*
X105531Y-74295D01*
X106299Y-74448D01*
X107067Y-74295D01*
X107718Y-73860D01*
X108153Y-73209D01*
X108306Y-72441D01*
X108153Y-71673D01*
X107718Y-71022D01*
X107067Y-70587D01*
X106299Y-70434D01*
D02*
G37*
G36*
X-77953Y-72752D02*
Y-74016D01*
X-76689D01*
X-76700Y-73958D01*
X-77179Y-73242D01*
X-77895Y-72763D01*
X-77953Y-72752D01*
D02*
G37*
G36*
X-34646D02*
Y-74016D01*
X-33382D01*
X-33393Y-73958D01*
X-33872Y-73242D01*
X-34588Y-72763D01*
X-34646Y-72752D01*
D02*
G37*
G36*
X-36220D02*
X-36278Y-72763D01*
X-36994Y-73242D01*
X-37473Y-73958D01*
X-37484Y-74016D01*
X-36220D01*
Y-72752D01*
D02*
G37*
G36*
X95276D02*
Y-74016D01*
X96539D01*
X96528Y-73958D01*
X96049Y-73242D01*
X95333Y-72763D01*
X95276Y-72752D01*
D02*
G37*
G36*
X-787Y-64961D02*
X-2051D01*
X-2040Y-65018D01*
X-1561Y-65734D01*
X-845Y-66213D01*
X-787Y-66224D01*
Y-64961D01*
D02*
G37*
G36*
X-101181Y-62984D02*
X-101949Y-63136D01*
X-102600Y-63571D01*
X-103035Y-64223D01*
X-103188Y-64991D01*
X-103035Y-65759D01*
X-102600Y-66410D01*
X-101949Y-66845D01*
X-101181Y-66998D01*
X-100413Y-66845D01*
X-99762Y-66410D01*
X-99327Y-65759D01*
X-99174Y-64991D01*
X-99327Y-64223D01*
X-99762Y-63571D01*
X-100413Y-63136D01*
X-101181Y-62984D01*
D02*
G37*
G36*
X2051Y-64961D02*
X787D01*
Y-66224D01*
X845Y-66213D01*
X1561Y-65734D01*
X2040Y-65018D01*
X2051Y-64961D01*
D02*
G37*
G36*
X787Y-62122D02*
Y-63386D01*
X2051D01*
X2040Y-63328D01*
X1561Y-62612D01*
X845Y-62134D01*
X787Y-62122D01*
D02*
G37*
G36*
X-787D02*
X-845Y-62134D01*
X-1561Y-62612D01*
X-2040Y-63328D01*
X-2051Y-63386D01*
X-787D01*
Y-62122D01*
D02*
G37*
G36*
X127642Y-69291D02*
X126378D01*
Y-70555D01*
X126435Y-70544D01*
X127152Y-70065D01*
X127630Y-69349D01*
X127642Y-69291D01*
D02*
G37*
G36*
X124803D02*
X123539D01*
X123551Y-69349D01*
X124029Y-70065D01*
X124746Y-70544D01*
X124803Y-70555D01*
Y-69291D01*
D02*
G37*
G36*
X-64173Y-63741D02*
X-64941Y-63894D01*
X-65592Y-64329D01*
X-66027Y-64980D01*
X-66180Y-65748D01*
X-66027Y-66516D01*
X-65592Y-67167D01*
X-64941Y-67602D01*
X-64173Y-67755D01*
X-63405Y-67602D01*
X-62754Y-67167D01*
X-62319Y-66516D01*
X-62166Y-65748D01*
X-62319Y-64980D01*
X-62754Y-64329D01*
X-63405Y-63894D01*
X-64173Y-63741D01*
D02*
G37*
G36*
X126378Y-66453D02*
Y-67716D01*
X127642D01*
X127630Y-67659D01*
X127152Y-66943D01*
X126435Y-66464D01*
X126378Y-66453D01*
D02*
G37*
G36*
X124803D02*
X124746Y-66464D01*
X124029Y-66943D01*
X123551Y-67659D01*
X123539Y-67716D01*
X124803D01*
Y-66453D01*
D02*
G37*
G36*
X-46457Y-78308D02*
X-47225Y-78461D01*
X-47876Y-78896D01*
X-48311Y-79547D01*
X-48464Y-80315D01*
X-48311Y-81083D01*
X-47876Y-81734D01*
X-47225Y-82169D01*
X-46457Y-82322D01*
X-45689Y-82169D01*
X-45037Y-81734D01*
X-44602Y-81083D01*
X-44450Y-80315D01*
X-44602Y-79547D01*
X-45037Y-78896D01*
X-45689Y-78461D01*
X-46457Y-78308D01*
D02*
G37*
G36*
X-74016Y-89725D02*
X-74784Y-89878D01*
X-75435Y-90313D01*
X-75870Y-90964D01*
X-76023Y-91732D01*
X-75870Y-92500D01*
X-75435Y-93151D01*
X-74784Y-93587D01*
X-74016Y-93739D01*
X-73248Y-93587D01*
X-72597Y-93151D01*
X-72162Y-92500D01*
X-72009Y-91732D01*
X-72162Y-90964D01*
X-72597Y-90313D01*
X-73248Y-89878D01*
X-74016Y-89725D01*
D02*
G37*
G36*
X-15748Y-75946D02*
X-16516Y-76099D01*
X-17167Y-76534D01*
X-17602Y-77185D01*
X-17755Y-77953D01*
X-17602Y-78721D01*
X-17167Y-79372D01*
X-16516Y-79807D01*
X-15748Y-79960D01*
X-14980Y-79807D01*
X-14329Y-79372D01*
X-13894Y-78721D01*
X-13741Y-77953D01*
X-13894Y-77185D01*
X-14329Y-76534D01*
X-14980Y-76099D01*
X-15748Y-75946D01*
D02*
G37*
G36*
X-60630Y-74371D02*
X-61398Y-74524D01*
X-62049Y-74959D01*
X-62484Y-75610D01*
X-62637Y-76378D01*
X-62484Y-77146D01*
X-62049Y-77797D01*
X-61398Y-78232D01*
X-60630Y-78385D01*
X-59862Y-78232D01*
X-59211Y-77797D01*
X-58776Y-77146D01*
X-58623Y-76378D01*
X-58776Y-75610D01*
X-59211Y-74959D01*
X-59862Y-74524D01*
X-60630Y-74371D01*
D02*
G37*
G36*
X27559Y-74765D02*
X26791Y-74917D01*
X26140Y-75352D01*
X25705Y-76004D01*
X25552Y-76772D01*
X25705Y-77540D01*
X26140Y-78191D01*
X26791Y-78626D01*
X27559Y-78779D01*
X28327Y-78626D01*
X28978Y-78191D01*
X29413Y-77540D01*
X29566Y-76772D01*
X29413Y-76004D01*
X28978Y-75352D01*
X28327Y-74917D01*
X27559Y-74765D01*
D02*
G37*
G36*
X58268Y-93225D02*
X58210Y-93236D01*
X57494Y-93714D01*
X57015Y-94431D01*
X57004Y-94488D01*
X58268D01*
Y-93225D01*
D02*
G37*
G36*
X16535D02*
Y-94488D01*
X17799D01*
X17788Y-94431D01*
X17309Y-93714D01*
X16593Y-93236D01*
X16535Y-93225D01*
D02*
G37*
G36*
X59842D02*
Y-94488D01*
X61106D01*
X61095Y-94431D01*
X60616Y-93714D01*
X59900Y-93236D01*
X59842Y-93225D01*
D02*
G37*
G36*
X103150D02*
Y-94488D01*
X104413D01*
X104402Y-94431D01*
X103923Y-93714D01*
X103207Y-93236D01*
X103150Y-93225D01*
D02*
G37*
G36*
X101575D02*
X101517Y-93236D01*
X100801Y-93714D01*
X100322Y-94431D01*
X100311Y-94488D01*
X101575D01*
Y-93225D01*
D02*
G37*
G36*
X-79527Y-75590D02*
X-80791D01*
X-80780Y-75648D01*
X-80301Y-76364D01*
X-79585Y-76843D01*
X-79527Y-76854D01*
Y-75590D01*
D02*
G37*
G36*
X53232D02*
X51968D01*
Y-76854D01*
X52026Y-76843D01*
X52742Y-76364D01*
X53221Y-75648D01*
X53232Y-75590D01*
D02*
G37*
G36*
X50394D02*
X49130D01*
X49141Y-75648D01*
X49620Y-76364D01*
X50336Y-76843D01*
X50394Y-76854D01*
Y-75590D01*
D02*
G37*
G36*
X93701D02*
X92437D01*
X92449Y-75648D01*
X92927Y-76364D01*
X93643Y-76843D01*
X93701Y-76854D01*
Y-75590D01*
D02*
G37*
G36*
X70866Y-72796D02*
X70098Y-72949D01*
X69447Y-73384D01*
X69012Y-74035D01*
X68859Y-74803D01*
X69012Y-75571D01*
X69447Y-76222D01*
X70098Y-76657D01*
X70866Y-76810D01*
X71634Y-76657D01*
X72285Y-76222D01*
X72720Y-75571D01*
X72873Y-74803D01*
X72720Y-74035D01*
X72285Y-73384D01*
X71634Y-72949D01*
X70866Y-72796D01*
D02*
G37*
G36*
X96539Y-75590D02*
X95276D01*
Y-76854D01*
X95333Y-76843D01*
X96049Y-76364D01*
X96528Y-75648D01*
X96539Y-75590D01*
D02*
G37*
G36*
X-36220D02*
X-37484D01*
X-37473Y-75648D01*
X-36994Y-76364D01*
X-36278Y-76843D01*
X-36220Y-76854D01*
Y-75590D01*
D02*
G37*
G36*
X-76689D02*
X-77953D01*
Y-76854D01*
X-77895Y-76843D01*
X-77179Y-76364D01*
X-76700Y-75648D01*
X-76689Y-75590D01*
D02*
G37*
G36*
X-33382D02*
X-34646D01*
Y-76854D01*
X-34588Y-76843D01*
X-33872Y-76364D01*
X-33393Y-75648D01*
X-33382Y-75590D01*
D02*
G37*
G36*
X9925D02*
X8661D01*
Y-76854D01*
X8719Y-76843D01*
X9435Y-76364D01*
X9914Y-75648D01*
X9925Y-75590D01*
D02*
G37*
G36*
X7087D02*
X5823D01*
X5834Y-75648D01*
X6313Y-76364D01*
X7029Y-76843D01*
X7087Y-76854D01*
Y-75590D01*
D02*
G37*
G36*
X49606Y88665D02*
X49549Y88654D01*
X48833Y88175D01*
X48354Y87459D01*
X48343Y87402D01*
X49606D01*
Y88665D01*
D02*
G37*
G36*
X117323Y89802D02*
X116555Y89650D01*
X115904Y89214D01*
X115469Y88563D01*
X115316Y87795D01*
X115469Y87027D01*
X115904Y86376D01*
X116555Y85941D01*
X117323Y85788D01*
X118091Y85941D01*
X118742Y86376D01*
X119177Y87027D01*
X119330Y87795D01*
X119177Y88563D01*
X118742Y89214D01*
X118091Y89650D01*
X117323Y89802D01*
D02*
G37*
G36*
X51181Y88665D02*
Y87402D01*
X52445D01*
X52433Y87459D01*
X51955Y88175D01*
X51239Y88654D01*
X51181Y88665D01*
D02*
G37*
G36*
X91732Y89846D02*
Y88583D01*
X92996D01*
X92985Y88640D01*
X92506Y89356D01*
X91790Y89835D01*
X91732Y89846D01*
D02*
G37*
G36*
X90158D02*
X90100Y89835D01*
X89384Y89356D01*
X88905Y88640D01*
X88894Y88583D01*
X90158D01*
Y89846D01*
D02*
G37*
G36*
X49606Y85827D02*
X48343D01*
X48354Y85769D01*
X48833Y85053D01*
X49549Y84575D01*
X49606Y84563D01*
Y85827D01*
D02*
G37*
G36*
X105118Y76067D02*
Y74803D01*
X106382D01*
X106370Y74861D01*
X105892Y75577D01*
X105176Y76056D01*
X105118Y76067D01*
D02*
G37*
G36*
X52445Y85827D02*
X51181D01*
Y84563D01*
X51239Y84575D01*
X51955Y85053D01*
X52433Y85769D01*
X52445Y85827D01*
D02*
G37*
G36*
X92996Y87008D02*
X91732D01*
Y85744D01*
X91790Y85756D01*
X92506Y86234D01*
X92985Y86950D01*
X92996Y87008D01*
D02*
G37*
G36*
X90158D02*
X88894D01*
X88905Y86950D01*
X89384Y86234D01*
X90100Y85756D01*
X90158Y85744D01*
Y87008D01*
D02*
G37*
G36*
X106693Y98070D02*
X105925Y97917D01*
X105274Y97482D01*
X104839Y96831D01*
X104686Y96063D01*
X104839Y95295D01*
X105274Y94644D01*
X105646Y94395D01*
Y93794D01*
X105274Y93545D01*
X104839Y92894D01*
X104686Y92126D01*
X104839Y91358D01*
X105274Y90707D01*
X105925Y90272D01*
X106693Y90119D01*
X107461Y90272D01*
X108112Y90707D01*
X108547Y91358D01*
X108700Y92126D01*
X108547Y92894D01*
X108112Y93545D01*
X107740Y93794D01*
Y94395D01*
X108112Y94644D01*
X108547Y95295D01*
X108700Y96063D01*
X108547Y96831D01*
X108112Y97482D01*
X107461Y97917D01*
X106693Y98070D01*
D02*
G37*
G36*
X-75000Y112918D02*
X-75745Y112820D01*
X-76439Y112533D01*
X-77036Y112075D01*
X-77493Y111479D01*
X-77781Y110784D01*
X-77879Y110039D01*
X-77781Y109294D01*
X-77493Y108600D01*
X-77036Y108004D01*
X-76439Y107546D01*
X-75745Y107258D01*
X-75000Y107160D01*
X-74255Y107258D01*
X-73561Y107546D01*
X-72964Y108004D01*
X-72507Y108600D01*
X-72219Y109294D01*
X-72121Y110039D01*
X-72219Y110784D01*
X-72507Y111479D01*
X-72964Y112075D01*
X-73561Y112533D01*
X-74255Y112820D01*
X-75000Y112918D01*
D02*
G37*
G36*
X-85000D02*
X-85745Y112820D01*
X-86440Y112533D01*
X-87036Y112075D01*
X-87493Y111479D01*
X-87781Y110784D01*
X-87879Y110039D01*
X-87781Y109294D01*
X-87493Y108600D01*
X-87036Y108004D01*
X-86440Y107546D01*
X-85745Y107258D01*
X-85000Y107160D01*
X-84255Y107258D01*
X-83561Y107546D01*
X-82964Y108004D01*
X-82507Y108600D01*
X-82219Y109294D01*
X-82121Y110039D01*
X-82219Y110784D01*
X-82507Y111479D01*
X-82964Y112075D01*
X-83561Y112533D01*
X-84255Y112820D01*
X-85000Y112918D01*
D02*
G37*
G36*
X-65000D02*
X-65745Y112820D01*
X-66439Y112533D01*
X-67036Y112075D01*
X-67493Y111479D01*
X-67781Y110784D01*
X-67879Y110039D01*
X-67781Y109294D01*
X-67493Y108600D01*
X-67036Y108004D01*
X-66439Y107546D01*
X-65745Y107258D01*
X-65000Y107160D01*
X-64255Y107258D01*
X-63560Y107546D01*
X-62964Y108004D01*
X-62507Y108600D01*
X-62219Y109294D01*
X-62121Y110039D01*
X-62219Y110784D01*
X-62507Y111479D01*
X-62964Y112075D01*
X-63560Y112533D01*
X-64255Y112820D01*
X-65000Y112918D01*
D02*
G37*
G36*
X-45000D02*
X-45745Y112820D01*
X-46439Y112533D01*
X-47036Y112075D01*
X-47493Y111479D01*
X-47781Y110784D01*
X-47879Y110039D01*
X-47781Y109294D01*
X-47493Y108600D01*
X-47036Y108004D01*
X-46439Y107546D01*
X-45745Y107258D01*
X-45000Y107160D01*
X-44255Y107258D01*
X-43560Y107546D01*
X-42964Y108004D01*
X-42507Y108600D01*
X-42219Y109294D01*
X-42121Y110039D01*
X-42219Y110784D01*
X-42507Y111479D01*
X-42964Y112075D01*
X-43560Y112533D01*
X-44255Y112820D01*
X-45000Y112918D01*
D02*
G37*
G36*
X-55000D02*
X-55745Y112820D01*
X-56440Y112533D01*
X-57036Y112075D01*
X-57493Y111479D01*
X-57781Y110784D01*
X-57879Y110039D01*
X-57781Y109294D01*
X-57493Y108600D01*
X-57036Y108004D01*
X-56440Y107546D01*
X-55745Y107258D01*
X-55000Y107160D01*
X-54255Y107258D01*
X-53561Y107546D01*
X-52964Y108004D01*
X-52507Y108600D01*
X-52219Y109294D01*
X-52121Y110039D01*
X-52219Y110784D01*
X-52507Y111479D01*
X-52964Y112075D01*
X-53561Y112533D01*
X-54255Y112820D01*
X-55000Y112918D01*
D02*
G37*
G36*
X13468Y97638D02*
X12205D01*
Y96374D01*
X12262Y96386D01*
X12979Y96864D01*
X13457Y97580D01*
X13468Y97638D01*
D02*
G37*
G36*
X10630D02*
X9366D01*
X9378Y97580D01*
X9856Y96864D01*
X10572Y96386D01*
X10630Y96374D01*
Y97638D01*
D02*
G37*
G36*
Y100476D02*
X10572Y100465D01*
X9856Y99986D01*
X9378Y99270D01*
X9366Y99213D01*
X10630D01*
Y100476D01*
D02*
G37*
G36*
X-95000Y112918D02*
X-95745Y112820D01*
X-96439Y112533D01*
X-97036Y112075D01*
X-97493Y111479D01*
X-97781Y110784D01*
X-97879Y110039D01*
X-97781Y109294D01*
X-97493Y108600D01*
X-97036Y108004D01*
X-96439Y107546D01*
X-95745Y107258D01*
X-95000Y107160D01*
X-94255Y107258D01*
X-93560Y107546D01*
X-92964Y108004D01*
X-92507Y108600D01*
X-92219Y109294D01*
X-92121Y110039D01*
X-92219Y110784D01*
X-92507Y111479D01*
X-92964Y112075D01*
X-93560Y112533D01*
X-94255Y112820D01*
X-95000Y112918D01*
D02*
G37*
G36*
X12205Y100476D02*
Y99213D01*
X13468D01*
X13457Y99270D01*
X12979Y99986D01*
X12262Y100465D01*
X12205Y100476D01*
D02*
G37*
G36*
X103543Y76067D02*
X103486Y76056D01*
X102770Y75577D01*
X102291Y74861D01*
X102280Y74803D01*
X103543D01*
Y76067D01*
D02*
G37*
G36*
X63779Y63075D02*
Y61811D01*
X65043D01*
X65032Y61869D01*
X64553Y62585D01*
X63837Y63063D01*
X63779Y63075D01*
D02*
G37*
G36*
X62205D02*
X62147Y63063D01*
X61431Y62585D01*
X60952Y61869D01*
X60941Y61811D01*
X62205D01*
Y63075D01*
D02*
G37*
G36*
X83071Y66574D02*
X82303Y66421D01*
X81652Y65986D01*
X81217Y65335D01*
X81064Y64567D01*
X81217Y63799D01*
X81652Y63148D01*
X82303Y62713D01*
X83071Y62560D01*
X83839Y62713D01*
X84490Y63148D01*
X84925Y63799D01*
X85078Y64567D01*
X84925Y65335D01*
X84490Y65986D01*
X83839Y66421D01*
X83071Y66574D01*
D02*
G37*
G36*
X129528Y65043D02*
Y63779D01*
X130791D01*
X130780Y63837D01*
X130301Y64553D01*
X129585Y65032D01*
X129528Y65043D01*
D02*
G37*
G36*
X127953D02*
X127895Y65032D01*
X127179Y64553D01*
X126700Y63837D01*
X126689Y63779D01*
X127953D01*
Y65043D01*
D02*
G37*
G36*
Y62205D02*
X126689D01*
X126700Y62147D01*
X127179Y61431D01*
X127895Y60952D01*
X127953Y60941D01*
Y62205D01*
D02*
G37*
G36*
X22441Y61894D02*
Y60630D01*
X23705D01*
X23693Y60687D01*
X23215Y61404D01*
X22498Y61882D01*
X22441Y61894D01*
D02*
G37*
G36*
X130791Y62205D02*
X129528D01*
Y60941D01*
X129585Y60952D01*
X130301Y61431D01*
X130780Y62147D01*
X130791Y62205D01*
D02*
G37*
G36*
X136303D02*
X135039D01*
Y60941D01*
X135097Y60952D01*
X135813Y61431D01*
X136292Y62147D01*
X136303Y62205D01*
D02*
G37*
G36*
X133465D02*
X132201D01*
X132212Y62147D01*
X132691Y61431D01*
X133407Y60952D01*
X133465Y60941D01*
Y62205D01*
D02*
G37*
G36*
Y65043D02*
X133407Y65032D01*
X132691Y64553D01*
X132212Y63837D01*
X132201Y63779D01*
X133465D01*
Y65043D01*
D02*
G37*
G36*
X-94587Y75531D02*
X-95355Y75378D01*
X-96006Y74943D01*
X-96441Y74292D01*
X-96594Y73524D01*
X-96441Y72756D01*
X-96006Y72104D01*
X-95355Y71669D01*
X-94587Y71517D01*
X-93818Y71669D01*
X-93167Y72104D01*
X-92732Y72756D01*
X-92580Y73524D01*
X-92732Y74292D01*
X-93167Y74943D01*
X-93818Y75378D01*
X-94587Y75531D01*
D02*
G37*
G36*
X-69685Y72479D02*
X-70453Y72327D01*
X-71104Y71892D01*
X-71539Y71241D01*
X-71692Y70472D01*
X-71539Y69704D01*
X-71104Y69053D01*
X-70453Y68618D01*
X-69685Y68465D01*
X-68917Y68618D01*
X-68266Y69053D01*
X-67831Y69704D01*
X-67678Y70472D01*
X-67831Y71241D01*
X-68266Y71892D01*
X-68917Y72327D01*
X-69685Y72479D01*
D02*
G37*
G36*
X103543Y73228D02*
X102280D01*
X102291Y73171D01*
X102770Y72455D01*
X103486Y71976D01*
X103543Y71965D01*
Y73228D01*
D02*
G37*
G36*
X126378Y78798D02*
X125610Y78646D01*
X124959Y78211D01*
X124524Y77559D01*
X124371Y76791D01*
X124524Y76023D01*
X124959Y75372D01*
X125610Y74937D01*
X126378Y74784D01*
X127146Y74937D01*
X127797Y75372D01*
X128232Y76023D01*
X128385Y76791D01*
X128232Y77559D01*
X127797Y78211D01*
X127146Y78646D01*
X126378Y78798D01*
D02*
G37*
G36*
X106382Y73228D02*
X105118D01*
Y71965D01*
X105176Y71976D01*
X105892Y72455D01*
X106370Y73171D01*
X106382Y73228D01*
D02*
G37*
G36*
X103543Y65748D02*
X102280D01*
X102291Y65690D01*
X102770Y64974D01*
X103486Y64496D01*
X103543Y64484D01*
Y65748D01*
D02*
G37*
G36*
X135039Y65043D02*
Y63779D01*
X136303D01*
X136292Y63837D01*
X135813Y64553D01*
X135097Y65032D01*
X135039Y65043D01*
D02*
G37*
G36*
X106382Y65748D02*
X105118D01*
Y64484D01*
X105176Y64496D01*
X105892Y64974D01*
X106370Y65690D01*
X106382Y65748D01*
D02*
G37*
G36*
X105118Y68587D02*
Y67323D01*
X106382D01*
X106370Y67380D01*
X105892Y68097D01*
X105176Y68575D01*
X105118Y68587D01*
D02*
G37*
G36*
X103543D02*
X103486Y68575D01*
X102770Y68097D01*
X102291Y67380D01*
X102280Y67323D01*
X103543D01*
Y68587D01*
D02*
G37*
G36*
X-65665Y128740D02*
X-66929D01*
Y127476D01*
X-66872Y127488D01*
X-66155Y127966D01*
X-65677Y128683D01*
X-65665Y128740D01*
D02*
G37*
G36*
X-73622Y129164D02*
X-74857Y129043D01*
X-76044Y128682D01*
X-77139Y128098D01*
X-78098Y127310D01*
X-78885Y126351D01*
X-79470Y125257D01*
X-79830Y124069D01*
X-79952Y122835D01*
X-79830Y121600D01*
X-79470Y120412D01*
X-78885Y119318D01*
X-78098Y118359D01*
X-77139Y117572D01*
X-76044Y116987D01*
X-74857Y116627D01*
X-73622Y116505D01*
X-72387Y116627D01*
X-71200Y116987D01*
X-70105Y117572D01*
X-69146Y118359D01*
X-68359Y119318D01*
X-67774Y120412D01*
X-67414Y121600D01*
X-67292Y122835D01*
X-67414Y124069D01*
X-67774Y125257D01*
X-68359Y126351D01*
X-69086Y127237D01*
X-68747Y127612D01*
X-68561Y127488D01*
X-68504Y127476D01*
Y128740D01*
X-69768D01*
X-69756Y128683D01*
X-69424Y128185D01*
X-69798Y127845D01*
X-70105Y128098D01*
X-71200Y128682D01*
X-72387Y129043D01*
X-73622Y129164D01*
D02*
G37*
G36*
X-44488Y139802D02*
X-45256Y139650D01*
X-45907Y139215D01*
X-46343Y138563D01*
X-46495Y137795D01*
X-46343Y137027D01*
X-45907Y136376D01*
X-45535Y136127D01*
Y135526D01*
X-45907Y135277D01*
X-46343Y134626D01*
X-46495Y133858D01*
X-46343Y133090D01*
X-45907Y132439D01*
X-45535Y132190D01*
Y131589D01*
X-45907Y131341D01*
X-46343Y130689D01*
X-46495Y129921D01*
X-46343Y129153D01*
X-45907Y128502D01*
X-45256Y128067D01*
X-44488Y127914D01*
X-43720Y128067D01*
X-43069Y128502D01*
X-42634Y129153D01*
X-42481Y129921D01*
X-42634Y130689D01*
X-43069Y131341D01*
X-43441Y131589D01*
Y132190D01*
X-43069Y132439D01*
X-42634Y133090D01*
X-42481Y133858D01*
X-42634Y134626D01*
X-43069Y135277D01*
X-43441Y135526D01*
Y136127D01*
X-43069Y136376D01*
X-42634Y137027D01*
X-42481Y137795D01*
X-42634Y138563D01*
X-43069Y139215D01*
X-43720Y139650D01*
X-44488Y139802D01*
D02*
G37*
G36*
X18504D02*
X17736Y139650D01*
X17085Y139215D01*
X16650Y138563D01*
X16497Y137795D01*
X16650Y137027D01*
X17085Y136376D01*
X17457Y136127D01*
Y135526D01*
X17085Y135277D01*
X16650Y134626D01*
X16497Y133858D01*
X16650Y133090D01*
X17085Y132439D01*
X17457Y132190D01*
Y131589D01*
X17085Y131341D01*
X16650Y130689D01*
X16497Y129921D01*
X16650Y129153D01*
X17085Y128502D01*
X17736Y128067D01*
X18504Y127914D01*
X19272Y128067D01*
X19923Y128502D01*
X20358Y129153D01*
X20511Y129921D01*
X20358Y130689D01*
X19923Y131341D01*
X19551Y131589D01*
Y132190D01*
X19923Y132439D01*
X20358Y133090D01*
X20511Y133858D01*
X20358Y134626D01*
X19923Y135277D01*
X19551Y135526D01*
Y136127D01*
X19923Y136376D01*
X20358Y137027D01*
X20511Y137795D01*
X20358Y138563D01*
X19923Y139215D01*
X19272Y139650D01*
X18504Y139802D01*
D02*
G37*
G36*
X-12992D02*
X-13760Y139650D01*
X-14411Y139215D01*
X-14846Y138563D01*
X-14999Y137795D01*
X-14846Y137027D01*
X-14411Y136376D01*
X-14039Y136127D01*
Y135526D01*
X-14411Y135277D01*
X-14846Y134626D01*
X-14999Y133858D01*
X-14846Y133090D01*
X-14411Y132439D01*
X-14039Y132190D01*
Y131589D01*
X-14411Y131341D01*
X-14846Y130689D01*
X-14999Y129921D01*
X-14846Y129153D01*
X-14411Y128502D01*
X-13760Y128067D01*
X-12992Y127914D01*
X-12224Y128067D01*
X-11573Y128502D01*
X-11138Y129153D01*
X-10985Y129921D01*
X-11138Y130689D01*
X-11573Y131341D01*
X-11945Y131589D01*
Y132190D01*
X-11573Y132439D01*
X-11138Y133090D01*
X-10985Y133858D01*
X-11138Y134626D01*
X-11573Y135277D01*
X-11945Y135526D01*
Y136127D01*
X-11573Y136376D01*
X-11138Y137027D01*
X-10985Y137795D01*
X-11138Y138563D01*
X-11573Y139215D01*
X-12224Y139650D01*
X-12992Y139802D01*
D02*
G37*
G36*
X75590Y124492D02*
Y123228D01*
X76854D01*
X76843Y123286D01*
X76364Y124002D01*
X75648Y124481D01*
X75590Y124492D01*
D02*
G37*
G36*
X74016D02*
X73958Y124481D01*
X73242Y124002D01*
X72763Y123286D01*
X72752Y123228D01*
X74016D01*
Y124492D01*
D02*
G37*
G36*
X-19685Y133503D02*
X-20453Y133350D01*
X-21104Y132915D01*
X-21539Y132264D01*
X-21692Y131496D01*
X-21539Y130728D01*
X-21104Y130077D01*
X-20453Y129642D01*
X-20171Y129586D01*
Y129076D01*
X-20453Y129020D01*
X-21104Y128585D01*
X-21539Y127933D01*
X-21692Y127165D01*
X-21539Y126397D01*
X-21104Y125746D01*
X-20453Y125311D01*
X-19685Y125158D01*
X-18917Y125311D01*
X-18266Y125746D01*
X-17831Y126397D01*
X-17678Y127165D01*
X-17831Y127933D01*
X-18266Y128585D01*
X-18917Y129020D01*
X-19199Y129076D01*
Y129586D01*
X-18917Y129642D01*
X-18266Y130077D01*
X-17831Y130728D01*
X-17678Y131496D01*
X-17831Y132264D01*
X-18266Y132915D01*
X-18917Y133350D01*
X-19685Y133503D01*
D02*
G37*
G36*
X43307D02*
X42539Y133350D01*
X41888Y132915D01*
X41453Y132264D01*
X41300Y131496D01*
X41453Y130728D01*
X41888Y130077D01*
X42539Y129642D01*
X42821Y129586D01*
Y129076D01*
X42539Y129020D01*
X41888Y128585D01*
X41453Y127933D01*
X41300Y127165D01*
X41453Y126397D01*
X41888Y125746D01*
X42539Y125311D01*
X43307Y125158D01*
X44075Y125311D01*
X44726Y125746D01*
X45161Y126397D01*
X45314Y127165D01*
X45161Y127933D01*
X44726Y128585D01*
X44075Y129020D01*
X43793Y129076D01*
Y129586D01*
X44075Y129642D01*
X44726Y130077D01*
X45161Y130728D01*
X45314Y131496D01*
X45161Y132264D01*
X44726Y132915D01*
X44075Y133350D01*
X43307Y133503D01*
D02*
G37*
G36*
X11811D02*
X11043Y133350D01*
X10392Y132915D01*
X9957Y132264D01*
X9804Y131496D01*
X9957Y130728D01*
X10392Y130077D01*
X11043Y129642D01*
X11325Y129586D01*
Y129076D01*
X11043Y129020D01*
X10392Y128585D01*
X9957Y127933D01*
X9804Y127165D01*
X9957Y126397D01*
X10392Y125746D01*
X11043Y125311D01*
X11811Y125158D01*
X12579Y125311D01*
X13230Y125746D01*
X13665Y126397D01*
X13818Y127165D01*
X13665Y127933D01*
X13230Y128585D01*
X12579Y129020D01*
X12297Y129076D01*
Y129586D01*
X12579Y129642D01*
X13230Y130077D01*
X13665Y130728D01*
X13818Y131496D01*
X13665Y132264D01*
X13230Y132915D01*
X12579Y133350D01*
X11811Y133503D01*
D02*
G37*
G36*
X-68504Y131579D02*
X-68561Y131567D01*
X-69278Y131089D01*
X-69756Y130372D01*
X-69768Y130315D01*
X-68504D01*
Y131579D01*
D02*
G37*
G36*
X12205Y145708D02*
X11437Y145555D01*
X10785Y145120D01*
X10350Y144469D01*
X10198Y143701D01*
X10350Y142933D01*
X10785Y142282D01*
X11437Y141847D01*
X12205Y141694D01*
X12973Y141847D01*
X13624Y142282D01*
X14059Y142933D01*
X14212Y143701D01*
X14059Y144469D01*
X13624Y145120D01*
X12973Y145555D01*
X12205Y145708D01*
D02*
G37*
G36*
X7087D02*
X6318Y145555D01*
X5667Y145120D01*
X5232Y144469D01*
X5080Y143701D01*
X5232Y142933D01*
X5667Y142282D01*
X6318Y141847D01*
X7087Y141694D01*
X7855Y141847D01*
X8506Y142282D01*
X8941Y142933D01*
X9094Y143701D01*
X8941Y144469D01*
X8506Y145120D01*
X7855Y145555D01*
X7087Y145708D01*
D02*
G37*
G36*
X33465D02*
X32697Y145555D01*
X32045Y145120D01*
X31610Y144469D01*
X31457Y143701D01*
X31610Y142933D01*
X32045Y142282D01*
X32697Y141847D01*
X33465Y141694D01*
X34233Y141847D01*
X34884Y142282D01*
X35319Y142933D01*
X35472Y143701D01*
X35319Y144469D01*
X34884Y145120D01*
X34233Y145555D01*
X33465Y145708D01*
D02*
G37*
G36*
X43701D02*
X42933Y145555D01*
X42282Y145120D01*
X41846Y144469D01*
X41694Y143701D01*
X41846Y142933D01*
X42282Y142282D01*
X42933Y141847D01*
X43701Y141694D01*
X44469Y141847D01*
X45120Y142282D01*
X45555Y142933D01*
X45708Y143701D01*
X45555Y144469D01*
X45120Y145120D01*
X44469Y145555D01*
X43701Y145708D01*
D02*
G37*
G36*
X38583D02*
X37815Y145555D01*
X37163Y145120D01*
X36728Y144469D01*
X36576Y143701D01*
X36728Y142933D01*
X37163Y142282D01*
X37815Y141847D01*
X38583Y141694D01*
X39351Y141847D01*
X40002Y142282D01*
X40437Y142933D01*
X40590Y143701D01*
X40437Y144469D01*
X40002Y145120D01*
X39351Y145555D01*
X38583Y145708D01*
D02*
G37*
G36*
X-29528D02*
X-30296Y145555D01*
X-30947Y145120D01*
X-31382Y144469D01*
X-31535Y143701D01*
X-31382Y142933D01*
X-30947Y142282D01*
X-30296Y141847D01*
X-29528Y141694D01*
X-28760Y141847D01*
X-28108Y142282D01*
X-27673Y142933D01*
X-27520Y143701D01*
X-27673Y144469D01*
X-28108Y145120D01*
X-28760Y145555D01*
X-29528Y145708D01*
D02*
G37*
G36*
X-66929Y131579D02*
Y130315D01*
X-65665D01*
X-65677Y130372D01*
X-66155Y131089D01*
X-66872Y131567D01*
X-66929Y131579D01*
D02*
G37*
G36*
X-24409Y145708D02*
X-25177Y145555D01*
X-25829Y145120D01*
X-26264Y144469D01*
X-26417Y143701D01*
X-26264Y142933D01*
X-25829Y142282D01*
X-25177Y141847D01*
X-24409Y141694D01*
X-23641Y141847D01*
X-22990Y142282D01*
X-22555Y142933D01*
X-22402Y143701D01*
X-22555Y144469D01*
X-22990Y145120D01*
X-23641Y145555D01*
X-24409Y145708D01*
D02*
G37*
G36*
X1969D02*
X1200Y145555D01*
X549Y145120D01*
X114Y144469D01*
X-39Y143701D01*
X114Y142933D01*
X549Y142282D01*
X1200Y141847D01*
X1969Y141694D01*
X2737Y141847D01*
X3388Y142282D01*
X3823Y142933D01*
X3976Y143701D01*
X3823Y144469D01*
X3388Y145120D01*
X2737Y145555D01*
X1969Y145708D01*
D02*
G37*
G36*
X-19291D02*
X-20059Y145555D01*
X-20711Y145120D01*
X-21146Y144469D01*
X-21298Y143701D01*
X-21146Y142933D01*
X-20711Y142282D01*
X-20059Y141847D01*
X-19291Y141694D01*
X-18523Y141847D01*
X-17872Y142282D01*
X-17437Y142933D01*
X-17284Y143701D01*
X-17437Y144469D01*
X-17872Y145120D01*
X-18523Y145555D01*
X-19291Y145708D01*
D02*
G37*
G36*
X76854Y121653D02*
X75590D01*
Y120390D01*
X75648Y120401D01*
X76364Y120880D01*
X76843Y121596D01*
X76854Y121653D01*
D02*
G37*
G36*
X25000Y112918D02*
X24255Y112820D01*
X23561Y112533D01*
X22964Y112075D01*
X22507Y111479D01*
X22219Y110784D01*
X22121Y110039D01*
X22219Y109294D01*
X22507Y108600D01*
X22964Y108004D01*
X23561Y107546D01*
X24255Y107258D01*
X25000Y107160D01*
X25745Y107258D01*
X26439Y107546D01*
X27036Y108004D01*
X27493Y108600D01*
X27781Y109294D01*
X27879Y110039D01*
X27781Y110784D01*
X27493Y111479D01*
X27036Y112075D01*
X26439Y112533D01*
X25745Y112820D01*
X25000Y112918D01*
D02*
G37*
G36*
X15000D02*
X14255Y112820D01*
X13561Y112533D01*
X12964Y112075D01*
X12507Y111479D01*
X12219Y110784D01*
X12121Y110039D01*
X12219Y109294D01*
X12507Y108600D01*
X12964Y108004D01*
X13561Y107546D01*
X14255Y107258D01*
X15000Y107160D01*
X15745Y107258D01*
X16440Y107546D01*
X17036Y108004D01*
X17493Y108600D01*
X17781Y109294D01*
X17879Y110039D01*
X17781Y110784D01*
X17493Y111479D01*
X17036Y112075D01*
X16440Y112533D01*
X15745Y112820D01*
X15000Y112918D01*
D02*
G37*
G36*
X35000D02*
X34255Y112820D01*
X33560Y112533D01*
X32964Y112075D01*
X32507Y111479D01*
X32219Y110784D01*
X32121Y110039D01*
X32219Y109294D01*
X32507Y108600D01*
X32964Y108004D01*
X33560Y107546D01*
X34255Y107258D01*
X35000Y107160D01*
X35745Y107258D01*
X36439Y107546D01*
X37036Y108004D01*
X37493Y108600D01*
X37781Y109294D01*
X37879Y110039D01*
X37781Y110784D01*
X37493Y111479D01*
X37036Y112075D01*
X36439Y112533D01*
X35745Y112820D01*
X35000Y112918D01*
D02*
G37*
G36*
X55000D02*
X54255Y112820D01*
X53561Y112533D01*
X52964Y112075D01*
X52507Y111479D01*
X52219Y110784D01*
X52121Y110039D01*
X52219Y109294D01*
X52507Y108600D01*
X52964Y108004D01*
X53561Y107546D01*
X54255Y107258D01*
X55000Y107160D01*
X55745Y107258D01*
X56440Y107546D01*
X57036Y108004D01*
X57493Y108600D01*
X57781Y109294D01*
X57879Y110039D01*
X57781Y110784D01*
X57493Y111479D01*
X57036Y112075D01*
X56440Y112533D01*
X55745Y112820D01*
X55000Y112918D01*
D02*
G37*
G36*
X45000D02*
X44255Y112820D01*
X43560Y112533D01*
X42964Y112075D01*
X42507Y111479D01*
X42219Y110784D01*
X42121Y110039D01*
X42219Y109294D01*
X42507Y108600D01*
X42964Y108004D01*
X43560Y107546D01*
X44255Y107258D01*
X45000Y107160D01*
X45745Y107258D01*
X46439Y107546D01*
X47036Y108004D01*
X47493Y108600D01*
X47781Y109294D01*
X47879Y110039D01*
X47781Y110784D01*
X47493Y111479D01*
X47036Y112075D01*
X46439Y112533D01*
X45745Y112820D01*
X45000Y112918D01*
D02*
G37*
G36*
X-25000D02*
X-25745Y112820D01*
X-26439Y112533D01*
X-27036Y112075D01*
X-27493Y111479D01*
X-27781Y110784D01*
X-27879Y110039D01*
X-27781Y109294D01*
X-27493Y108600D01*
X-27036Y108004D01*
X-26439Y107546D01*
X-25745Y107258D01*
X-25000Y107160D01*
X-24255Y107258D01*
X-23561Y107546D01*
X-22964Y108004D01*
X-22507Y108600D01*
X-22219Y109294D01*
X-22121Y110039D01*
X-22219Y110784D01*
X-22507Y111479D01*
X-22964Y112075D01*
X-23561Y112533D01*
X-24255Y112820D01*
X-25000Y112918D01*
D02*
G37*
G36*
X-35000D02*
X-35745Y112820D01*
X-36439Y112533D01*
X-37036Y112075D01*
X-37493Y111479D01*
X-37781Y110784D01*
X-37879Y110039D01*
X-37781Y109294D01*
X-37493Y108600D01*
X-37036Y108004D01*
X-36439Y107546D01*
X-35745Y107258D01*
X-35000Y107160D01*
X-34255Y107258D01*
X-33560Y107546D01*
X-32964Y108004D01*
X-32507Y108600D01*
X-32219Y109294D01*
X-32121Y110039D01*
X-32219Y110784D01*
X-32507Y111479D01*
X-32964Y112075D01*
X-33560Y112533D01*
X-34255Y112820D01*
X-35000Y112918D01*
D02*
G37*
G36*
X-15000D02*
X-15745Y112820D01*
X-16440Y112533D01*
X-17036Y112075D01*
X-17493Y111479D01*
X-17781Y110784D01*
X-17879Y110039D01*
X-17781Y109294D01*
X-17493Y108600D01*
X-17036Y108004D01*
X-16440Y107546D01*
X-15745Y107258D01*
X-15000Y107160D01*
X-14255Y107258D01*
X-13561Y107546D01*
X-12964Y108004D01*
X-12507Y108600D01*
X-12219Y109294D01*
X-12121Y110039D01*
X-12219Y110784D01*
X-12507Y111479D01*
X-12964Y112075D01*
X-13561Y112533D01*
X-14255Y112820D01*
X-15000Y112918D01*
D02*
G37*
G36*
X5000D02*
X4255Y112820D01*
X3560Y112533D01*
X2964Y112075D01*
X2507Y111479D01*
X2219Y110784D01*
X2121Y110039D01*
X2219Y109294D01*
X2507Y108600D01*
X2964Y108004D01*
X3560Y107546D01*
X4255Y107258D01*
X5000Y107160D01*
X5745Y107258D01*
X6440Y107546D01*
X7036Y108004D01*
X7493Y108600D01*
X7781Y109294D01*
X7879Y110039D01*
X7781Y110784D01*
X7493Y111479D01*
X7036Y112075D01*
X6440Y112533D01*
X5745Y112820D01*
X5000Y112918D01*
D02*
G37*
G36*
X-5000D02*
X-5745Y112820D01*
X-6440Y112533D01*
X-7036Y112075D01*
X-7493Y111479D01*
X-7781Y110784D01*
X-7879Y110039D01*
X-7781Y109294D01*
X-7493Y108600D01*
X-7036Y108004D01*
X-6440Y107546D01*
X-5745Y107258D01*
X-5000Y107160D01*
X-4255Y107258D01*
X-3560Y107546D01*
X-2964Y108004D01*
X-2507Y108600D01*
X-2219Y109294D01*
X-2121Y110039D01*
X-2219Y110784D01*
X-2507Y111479D01*
X-2964Y112075D01*
X-3560Y112533D01*
X-4255Y112820D01*
X-5000Y112918D01*
D02*
G37*
G36*
X65000D02*
X64255Y112820D01*
X63560Y112533D01*
X62964Y112075D01*
X62507Y111479D01*
X62219Y110784D01*
X62121Y110039D01*
X62219Y109294D01*
X62507Y108600D01*
X62964Y108004D01*
X63560Y107546D01*
X64255Y107258D01*
X65000Y107160D01*
X65745Y107258D01*
X66439Y107546D01*
X67036Y108004D01*
X67493Y108600D01*
X67781Y109294D01*
X67879Y110039D01*
X67781Y110784D01*
X67493Y111479D01*
X67036Y112075D01*
X66439Y112533D01*
X65745Y112820D01*
X65000Y112918D01*
D02*
G37*
G36*
X-39370Y122086D02*
X-40138Y121933D01*
X-40789Y121498D01*
X-41224Y120847D01*
X-41377Y120079D01*
X-41224Y119311D01*
X-40789Y118659D01*
X-40138Y118225D01*
X-39370Y118072D01*
X-38602Y118225D01*
X-37951Y118659D01*
X-37516Y119311D01*
X-37363Y120079D01*
X-37516Y120847D01*
X-37951Y121498D01*
X-38602Y121933D01*
X-39370Y122086D01*
D02*
G37*
G36*
X-49213D02*
X-49981Y121933D01*
X-50632Y121498D01*
X-51067Y120847D01*
X-51220Y120079D01*
X-51067Y119311D01*
X-50632Y118659D01*
X-49981Y118225D01*
X-49213Y118072D01*
X-48445Y118225D01*
X-47793Y118659D01*
X-47358Y119311D01*
X-47205Y120079D01*
X-47358Y120847D01*
X-47793Y121498D01*
X-48445Y121933D01*
X-49213Y122086D01*
D02*
G37*
G36*
X-29528D02*
X-30296Y121933D01*
X-30947Y121498D01*
X-31382Y120847D01*
X-31535Y120079D01*
X-31382Y119311D01*
X-30947Y118659D01*
X-30296Y118225D01*
X-29528Y118072D01*
X-28760Y118225D01*
X-28108Y118659D01*
X-27673Y119311D01*
X-27520Y120079D01*
X-27673Y120847D01*
X-28108Y121498D01*
X-28760Y121933D01*
X-29528Y122086D01*
D02*
G37*
G36*
X74016Y121653D02*
X72752D01*
X72763Y121596D01*
X73242Y120880D01*
X73958Y120401D01*
X74016Y120390D01*
Y121653D01*
D02*
G37*
G36*
X-19685Y122086D02*
X-20453Y121933D01*
X-21104Y121498D01*
X-21539Y120847D01*
X-21692Y120079D01*
X-21539Y119311D01*
X-21104Y118659D01*
X-20453Y118225D01*
X-19685Y118072D01*
X-18917Y118225D01*
X-18266Y118659D01*
X-17831Y119311D01*
X-17678Y120079D01*
X-17831Y120847D01*
X-18266Y121498D01*
X-18917Y121933D01*
X-19685Y122086D01*
D02*
G37*
G36*
X85000Y112918D02*
X84255Y112820D01*
X83561Y112533D01*
X82964Y112075D01*
X82507Y111479D01*
X82219Y110784D01*
X82121Y110039D01*
X82219Y109294D01*
X82507Y108600D01*
X82964Y108004D01*
X83561Y107546D01*
X84255Y107258D01*
X85000Y107160D01*
X85745Y107258D01*
X86440Y107546D01*
X87036Y108004D01*
X87493Y108600D01*
X87781Y109294D01*
X87879Y110039D01*
X87781Y110784D01*
X87493Y111479D01*
X87036Y112075D01*
X86440Y112533D01*
X85745Y112820D01*
X85000Y112918D01*
D02*
G37*
G36*
X75000D02*
X74255Y112820D01*
X73561Y112533D01*
X72964Y112075D01*
X72507Y111479D01*
X72219Y110784D01*
X72121Y110039D01*
X72219Y109294D01*
X72507Y108600D01*
X72964Y108004D01*
X73561Y107546D01*
X74255Y107258D01*
X75000Y107160D01*
X75745Y107258D01*
X76439Y107546D01*
X77036Y108004D01*
X77493Y108600D01*
X77781Y109294D01*
X77879Y110039D01*
X77781Y110784D01*
X77493Y111479D01*
X77036Y112075D01*
X76439Y112533D01*
X75745Y112820D01*
X75000Y112918D01*
D02*
G37*
G36*
X95000D02*
X94255Y112820D01*
X93560Y112533D01*
X92964Y112075D01*
X92507Y111479D01*
X92219Y110784D01*
X92121Y110039D01*
X92219Y109294D01*
X92507Y108600D01*
X92964Y108004D01*
X93560Y107546D01*
X94255Y107258D01*
X95000Y107160D01*
X95745Y107258D01*
X96439Y107546D01*
X97036Y108004D01*
X97493Y108600D01*
X97781Y109294D01*
X97879Y110039D01*
X97781Y110784D01*
X97493Y111479D01*
X97036Y112075D01*
X96439Y112533D01*
X95745Y112820D01*
X95000Y112918D01*
D02*
G37*
G36*
X59055Y134289D02*
X57925Y134141D01*
X56871Y133704D01*
X55966Y133010D01*
X55272Y132105D01*
X54836Y131052D01*
X54687Y129921D01*
Y122047D01*
X54836Y120917D01*
X55272Y119863D01*
X55966Y118958D01*
X56871Y118264D01*
X57925Y117828D01*
X59055Y117679D01*
X60186Y117828D01*
X61239Y118264D01*
X62144Y118958D01*
X62838Y119863D01*
X63274Y120917D01*
X63423Y122047D01*
Y129921D01*
X63274Y131052D01*
X62838Y132105D01*
X62144Y133010D01*
X61239Y133704D01*
X60186Y134141D01*
X59055Y134289D01*
D02*
G37*
G36*
X-59055D02*
X-60186Y134141D01*
X-61239Y133704D01*
X-62144Y133010D01*
X-62838Y132105D01*
X-63274Y131052D01*
X-63423Y129921D01*
Y122047D01*
X-63274Y120917D01*
X-62838Y119863D01*
X-62144Y118958D01*
X-61239Y118264D01*
X-60186Y117828D01*
X-59055Y117679D01*
X-57925Y117828D01*
X-56871Y118264D01*
X-55966Y118958D01*
X-55272Y119863D01*
X-54836Y120917D01*
X-54687Y122047D01*
Y129921D01*
X-54836Y131052D01*
X-55272Y132105D01*
X-55966Y133010D01*
X-56871Y133704D01*
X-57925Y134141D01*
X-59055Y134289D01*
D02*
G37*
G36*
X-21654Y20555D02*
Y19291D01*
X-20390D01*
X-20401Y19349D01*
X-20880Y20065D01*
X-21596Y20544D01*
X-21654Y20555D01*
D02*
G37*
G36*
X-23228D02*
X-23286Y20544D01*
X-24002Y20065D01*
X-24481Y19349D01*
X-24492Y19291D01*
X-23228D01*
Y20555D01*
D02*
G37*
G36*
X104331Y23622D02*
X103067D01*
X103078Y23565D01*
X103557Y22848D01*
X104273Y22370D01*
X104331Y22358D01*
Y23622D01*
D02*
G37*
G36*
X124016Y24016D02*
X122752D01*
X122763Y23958D01*
X123242Y23242D01*
X123958Y22763D01*
X124016Y22752D01*
Y24016D01*
D02*
G37*
G36*
X107169Y23622D02*
X105905D01*
Y22358D01*
X105963Y22370D01*
X106679Y22848D01*
X107158Y23565D01*
X107169Y23622D01*
D02*
G37*
G36*
X137402Y18980D02*
X137344Y18969D01*
X136628Y18490D01*
X136149Y17774D01*
X136138Y17717D01*
X137402D01*
Y18980D01*
D02*
G37*
G36*
X94193Y21003D02*
X93425Y20850D01*
X92774Y20415D01*
X92339Y19764D01*
X92186Y18996D01*
X92339Y18228D01*
X92774Y17577D01*
X93425Y17142D01*
X94193Y16989D01*
X94961Y17142D01*
X95612Y17577D01*
X96047Y18228D01*
X96200Y18996D01*
X96047Y19764D01*
X95612Y20415D01*
X94961Y20850D01*
X94193Y21003D01*
D02*
G37*
G36*
X138976Y18980D02*
Y17717D01*
X140240D01*
X140229Y17774D01*
X139750Y18490D01*
X139034Y18969D01*
X138976Y18980D01*
D02*
G37*
G36*
X146850Y19374D02*
Y18110D01*
X148114D01*
X148103Y18168D01*
X147624Y18884D01*
X146908Y19363D01*
X146850Y19374D01*
D02*
G37*
G36*
X145276D02*
X145218Y19363D01*
X144502Y18884D01*
X144023Y18168D01*
X144012Y18110D01*
X145276D01*
Y19374D01*
D02*
G37*
G36*
X126854Y24016D02*
X125591D01*
Y22752D01*
X125648Y22763D01*
X126364Y23242D01*
X126843Y23958D01*
X126854Y24016D01*
D02*
G37*
G36*
X124016Y26854D02*
X123958Y26843D01*
X123242Y26364D01*
X122763Y25648D01*
X122752Y25591D01*
X124016D01*
Y26854D01*
D02*
G37*
G36*
X105905Y26461D02*
Y25197D01*
X107169D01*
X107158Y25254D01*
X106679Y25971D01*
X105963Y26449D01*
X105905Y26461D01*
D02*
G37*
G36*
X125591Y26854D02*
Y25591D01*
X126854D01*
X126843Y25648D01*
X126364Y26364D01*
X125648Y26843D01*
X125591Y26854D01*
D02*
G37*
G36*
X138976D02*
Y25591D01*
X140240D01*
X140229Y25648D01*
X139750Y26364D01*
X139034Y26843D01*
X138976Y26854D01*
D02*
G37*
G36*
X137402D02*
X137344Y26843D01*
X136628Y26364D01*
X136149Y25648D01*
X136138Y25591D01*
X137402D01*
Y26854D01*
D02*
G37*
G36*
X140240Y24016D02*
X138976D01*
Y22752D01*
X139034Y22763D01*
X139750Y23242D01*
X140229Y23958D01*
X140240Y24016D01*
D02*
G37*
G36*
X137402D02*
X136138D01*
X136149Y23958D01*
X136628Y23242D01*
X137344Y22763D01*
X137402Y22752D01*
Y24016D01*
D02*
G37*
G36*
X84646Y27991D02*
X83878Y27839D01*
X83227Y27404D01*
X82791Y26752D01*
X82639Y25984D01*
X82791Y25216D01*
X83227Y24565D01*
X83878Y24130D01*
X84646Y23977D01*
X85414Y24130D01*
X86065Y24565D01*
X86500Y25216D01*
X86653Y25984D01*
X86500Y26752D01*
X86065Y27404D01*
X85414Y27839D01*
X84646Y27991D01*
D02*
G37*
G36*
X104331Y26461D02*
X104273Y26449D01*
X103557Y25971D01*
X103078Y25254D01*
X103067Y25197D01*
X104331D01*
Y26461D01*
D02*
G37*
G36*
X-116929Y28779D02*
X-117697Y28626D01*
X-118348Y28191D01*
X-118783Y27540D01*
X-118936Y26772D01*
X-118783Y26004D01*
X-118348Y25352D01*
X-117697Y24917D01*
X-116929Y24765D01*
X-116161Y24917D01*
X-115510Y25352D01*
X-115075Y26004D01*
X-114922Y26772D01*
X-115075Y27540D01*
X-115510Y28191D01*
X-116161Y28626D01*
X-116929Y28779D01*
D02*
G37*
G36*
X-20390Y17717D02*
X-21654D01*
Y16453D01*
X-21596Y16464D01*
X-20880Y16943D01*
X-20401Y17659D01*
X-20390Y17717D01*
D02*
G37*
G36*
X139764Y5988D02*
Y4724D01*
X141027D01*
X141016Y4782D01*
X140538Y5498D01*
X139821Y5977D01*
X139764Y5988D01*
D02*
G37*
G36*
X138189D02*
X138131Y5977D01*
X137415Y5498D01*
X136937Y4782D01*
X136925Y4724D01*
X138189D01*
Y5988D01*
D02*
G37*
G36*
X-146850Y6775D02*
X-146908Y6764D01*
X-147624Y6285D01*
X-148103Y5569D01*
X-148114Y5512D01*
X-146850D01*
Y6775D01*
D02*
G37*
G36*
X-60630D02*
X-60687Y6764D01*
X-61404Y6285D01*
X-61882Y5569D01*
X-61894Y5512D01*
X-60630D01*
Y6775D01*
D02*
G37*
G36*
X-145276D02*
Y5512D01*
X-144012D01*
X-144023Y5569D01*
X-144502Y6285D01*
X-145218Y6764D01*
X-145276Y6775D01*
D02*
G37*
G36*
X-144012Y3937D02*
X-145276D01*
Y2673D01*
X-145218Y2685D01*
X-144502Y3163D01*
X-144023Y3880D01*
X-144012Y3937D01*
D02*
G37*
G36*
X-146850D02*
X-148114D01*
X-148103Y3880D01*
X-147624Y3163D01*
X-146908Y2685D01*
X-146850Y2673D01*
Y3937D01*
D02*
G37*
G36*
X-60630D02*
X-61894D01*
X-61882Y3880D01*
X-61404Y3163D01*
X-60687Y2685D01*
X-60630Y2673D01*
Y3937D01*
D02*
G37*
G36*
X74803Y6731D02*
X74035Y6579D01*
X73384Y6144D01*
X72949Y5492D01*
X72796Y4724D01*
X72949Y3956D01*
X73384Y3305D01*
X74035Y2870D01*
X74803Y2717D01*
X75571Y2870D01*
X76222Y3305D01*
X76657Y3956D01*
X76810Y4724D01*
X76657Y5492D01*
X76222Y6144D01*
X75571Y6579D01*
X74803Y6731D01*
D02*
G37*
G36*
X-57791Y3937D02*
X-59055D01*
Y2673D01*
X-58998Y2685D01*
X-58281Y3163D01*
X-57803Y3880D01*
X-57791Y3937D01*
D02*
G37*
G36*
X-59055Y6775D02*
Y5512D01*
X-57791D01*
X-57803Y5569D01*
X-58281Y6285D01*
X-58998Y6764D01*
X-59055Y6775D01*
D02*
G37*
G36*
X145276Y16535D02*
X144012D01*
X144023Y16478D01*
X144502Y15762D01*
X145218Y15283D01*
X145276Y15272D01*
Y16535D01*
D02*
G37*
G36*
X140240Y16142D02*
X138976D01*
Y14878D01*
X139034Y14889D01*
X139750Y15368D01*
X140229Y16084D01*
X140240Y16142D01*
D02*
G37*
G36*
X148114Y16535D02*
X146850D01*
Y15272D01*
X146908Y15283D01*
X147624Y15762D01*
X148103Y16478D01*
X148114Y16535D01*
D02*
G37*
G36*
X-23228Y17717D02*
X-24492D01*
X-24481Y17659D01*
X-24002Y16943D01*
X-23286Y16464D01*
X-23228Y16453D01*
Y17717D01*
D02*
G37*
G36*
X-115748Y23661D02*
X-116516Y23508D01*
X-117167Y23073D01*
X-117602Y22422D01*
X-117755Y21654D01*
X-117602Y20886D01*
X-117167Y20234D01*
X-116659Y19895D01*
X-116713Y19374D01*
X-117364Y18939D01*
X-117799Y18288D01*
X-117952Y17520D01*
X-117799Y16752D01*
X-117364Y16101D01*
X-116713Y15665D01*
X-115945Y15513D01*
X-115177Y15665D01*
X-114526Y16101D01*
X-114091Y16752D01*
X-113938Y17520D01*
X-114091Y18288D01*
X-114526Y18939D01*
X-115034Y19279D01*
X-114980Y19799D01*
X-114329Y20234D01*
X-113894Y20886D01*
X-113741Y21654D01*
X-113894Y22422D01*
X-114329Y23073D01*
X-114980Y23508D01*
X-115748Y23661D01*
D02*
G37*
G36*
X64961Y13424D02*
X64193Y13272D01*
X63541Y12836D01*
X63106Y12185D01*
X62954Y11417D01*
X63106Y10649D01*
X63541Y9998D01*
X64193Y9563D01*
X64961Y9410D01*
X65729Y9563D01*
X66380Y9998D01*
X66815Y10649D01*
X66968Y11417D01*
X66815Y12185D01*
X66380Y12836D01*
X65729Y13272D01*
X64961Y13424D01*
D02*
G37*
G36*
X-50787Y11456D02*
X-51556Y11303D01*
X-52207Y10868D01*
X-52642Y10217D01*
X-52794Y9449D01*
X-52642Y8681D01*
X-52207Y8030D01*
X-51556Y7594D01*
X-50787Y7442D01*
X-50019Y7594D01*
X-49368Y8030D01*
X-48933Y8681D01*
X-48780Y9449D01*
X-48933Y10217D01*
X-49368Y10868D01*
X-50019Y11303D01*
X-50787Y11456D01*
D02*
G37*
G36*
X-132677Y14212D02*
X-133445Y14059D01*
X-134096Y13624D01*
X-134531Y12973D01*
X-134684Y12205D01*
X-134531Y11437D01*
X-134096Y10785D01*
X-133445Y10350D01*
X-132677Y10198D01*
X-131909Y10350D01*
X-131258Y10785D01*
X-130823Y11437D01*
X-130670Y12205D01*
X-130823Y12973D01*
X-131258Y13624D01*
X-131909Y14059D01*
X-132677Y14212D01*
D02*
G37*
G36*
X137402Y16142D02*
X136138D01*
X136149Y16084D01*
X136628Y15368D01*
X137344Y14889D01*
X137402Y14878D01*
Y16142D01*
D02*
G37*
G36*
X-129134Y18542D02*
X-129902Y18390D01*
X-130553Y17955D01*
X-130988Y17303D01*
X-131141Y16535D01*
X-130988Y15767D01*
X-130553Y15116D01*
X-129902Y14681D01*
X-129134Y14528D01*
X-128366Y14681D01*
X-127715Y15116D01*
X-127280Y15767D01*
X-127127Y16535D01*
X-127280Y17303D01*
X-127715Y17955D01*
X-128366Y18390D01*
X-129134Y18542D01*
D02*
G37*
G36*
X117323Y48070D02*
X116555Y47917D01*
X115904Y47482D01*
X115469Y46831D01*
X115316Y46063D01*
X115469Y45295D01*
X115904Y44644D01*
X116555Y44209D01*
X117323Y44056D01*
X118091Y44209D01*
X118742Y44644D01*
X119177Y45295D01*
X119330Y46063D01*
X119177Y46831D01*
X118742Y47482D01*
X118091Y47917D01*
X117323Y48070D01*
D02*
G37*
G36*
X-98622Y47086D02*
X-99390Y46933D01*
X-100041Y46498D01*
X-100476Y45847D01*
X-100629Y45079D01*
X-100476Y44311D01*
X-100041Y43659D01*
X-99390Y43224D01*
X-98622Y43072D01*
X-97854Y43224D01*
X-97203Y43659D01*
X-96768Y44311D01*
X-96615Y45079D01*
X-96768Y45847D01*
X-97203Y46498D01*
X-97854Y46933D01*
X-98622Y47086D01*
D02*
G37*
G36*
X103543Y45314D02*
X102775Y45161D01*
X102124Y44726D01*
X101875Y44354D01*
X101274D01*
X101025Y44726D01*
X100374Y45161D01*
X99606Y45314D01*
X98838Y45161D01*
X98187Y44726D01*
X97752Y44075D01*
X97599Y43307D01*
X97752Y42539D01*
X98187Y41888D01*
X98838Y41453D01*
X99606Y41300D01*
X100374Y41453D01*
X101025Y41888D01*
X101274Y42260D01*
X101875D01*
X102124Y41888D01*
X102775Y41453D01*
X103543Y41300D01*
X104311Y41453D01*
X104963Y41888D01*
X105398Y42539D01*
X105550Y43307D01*
X105398Y44075D01*
X104963Y44726D01*
X104311Y45161D01*
X103543Y45314D01*
D02*
G37*
G36*
X135039Y50394D02*
X133776D01*
X133787Y50336D01*
X134266Y49620D01*
X134982Y49141D01*
X135039Y49130D01*
Y50394D01*
D02*
G37*
G36*
X-91732Y50432D02*
X-92500Y50279D01*
X-93151Y49844D01*
X-93587Y49193D01*
X-93739Y48425D01*
X-93587Y47657D01*
X-93151Y47006D01*
X-92500Y46571D01*
X-91732Y46418D01*
X-90964Y46571D01*
X-90313Y47006D01*
X-89878Y47657D01*
X-89725Y48425D01*
X-89878Y49193D01*
X-90313Y49844D01*
X-90964Y50279D01*
X-91732Y50432D01*
D02*
G37*
G36*
X-78740Y50361D02*
X-80128Y50178D01*
X-81421Y49643D01*
X-82531Y48791D01*
X-83383Y47680D01*
X-83918Y46387D01*
X-84101Y45000D01*
X-83918Y43613D01*
X-83383Y42320D01*
X-82531Y41209D01*
X-81421Y40357D01*
X-80128Y39822D01*
X-78740Y39639D01*
X-77353Y39822D01*
X-76060Y40357D01*
X-74950Y41209D01*
X-74098Y42320D01*
X-73562Y43613D01*
X-73379Y45000D01*
X-73562Y46387D01*
X-74098Y47680D01*
X-74950Y48791D01*
X-76060Y49643D01*
X-77353Y50178D01*
X-78740Y50361D01*
D02*
G37*
G36*
X-129528Y41771D02*
X-130296Y41618D01*
X-130947Y41183D01*
X-131382Y40532D01*
X-131535Y39764D01*
X-131382Y38996D01*
X-130947Y38345D01*
X-130296Y37909D01*
X-129528Y37757D01*
X-128760Y37909D01*
X-128108Y38345D01*
X-127673Y38996D01*
X-127521Y39764D01*
X-127673Y40532D01*
X-128108Y41183D01*
X-128760Y41618D01*
X-129528Y41771D01*
D02*
G37*
G36*
X78740Y50361D02*
X77353Y50178D01*
X76060Y49643D01*
X74950Y48791D01*
X74098Y47680D01*
X73562Y46387D01*
X73379Y45000D01*
X73562Y43613D01*
X74098Y42320D01*
X74950Y41209D01*
X76060Y40357D01*
X77353Y39822D01*
X78740Y39639D01*
X80128Y39822D01*
X81421Y40357D01*
X82531Y41209D01*
X83383Y42320D01*
X83918Y43613D01*
X84101Y45000D01*
X83918Y46387D01*
X83383Y47680D01*
X82531Y48791D01*
X81421Y49643D01*
X80128Y50178D01*
X78740Y50361D01*
D02*
G37*
G36*
X-129528Y50826D02*
X-130296Y50673D01*
X-130947Y50238D01*
X-131382Y49587D01*
X-131535Y48819D01*
X-131382Y48051D01*
X-130947Y47400D01*
X-130710Y47242D01*
X-130702Y47032D01*
X-130772Y46681D01*
X-131341Y46301D01*
X-131775Y45650D01*
X-131928Y44882D01*
X-131775Y44114D01*
X-131341Y43463D01*
X-130689Y43028D01*
X-129921Y42875D01*
X-129153Y43028D01*
X-128502Y43463D01*
X-128067Y44114D01*
X-127914Y44882D01*
X-128067Y45650D01*
X-128502Y46301D01*
X-128738Y46459D01*
X-128747Y46669D01*
X-128677Y47019D01*
X-128108Y47400D01*
X-127673Y48051D01*
X-127521Y48819D01*
X-127673Y49587D01*
X-128108Y50238D01*
X-128760Y50673D01*
X-129528Y50826D01*
D02*
G37*
G36*
X-94882Y44527D02*
X-95650Y44374D01*
X-96301Y43939D01*
X-96736Y43288D01*
X-96889Y42520D01*
X-96736Y41752D01*
X-96301Y41100D01*
X-95650Y40665D01*
X-94882Y40513D01*
X-94114Y40665D01*
X-93463Y41100D01*
X-93028Y41752D01*
X-92875Y42520D01*
X-93028Y43288D01*
X-93463Y43939D01*
X-94114Y44374D01*
X-94882Y44527D01*
D02*
G37*
G36*
X137878Y50394D02*
X136614D01*
Y49130D01*
X136672Y49141D01*
X137388Y49620D01*
X137866Y50336D01*
X137878Y50394D01*
D02*
G37*
G36*
X62205Y60236D02*
X60941D01*
X60952Y60179D01*
X61431Y59462D01*
X62147Y58984D01*
X62205Y58973D01*
Y60236D01*
D02*
G37*
G36*
X23705Y59055D02*
X22441D01*
Y57791D01*
X22498Y57803D01*
X23215Y58281D01*
X23693Y58998D01*
X23705Y59055D01*
D02*
G37*
G36*
X65043Y60236D02*
X63779D01*
Y58973D01*
X63837Y58984D01*
X64553Y59462D01*
X65032Y60179D01*
X65043Y60236D01*
D02*
G37*
G36*
X20866Y61894D02*
X20809Y61882D01*
X20092Y61404D01*
X19614Y60687D01*
X19602Y60630D01*
X20866D01*
Y61894D01*
D02*
G37*
G36*
X-127165Y64212D02*
X-127933Y64059D01*
X-128585Y63624D01*
X-129020Y62973D01*
X-129172Y62205D01*
X-129020Y61437D01*
X-128585Y60786D01*
X-127933Y60350D01*
X-127165Y60198D01*
X-126397Y60350D01*
X-125746Y60786D01*
X-125311Y61437D01*
X-125158Y62205D01*
X-125311Y62973D01*
X-125746Y63624D01*
X-126397Y64059D01*
X-127165Y64212D01*
D02*
G37*
G36*
X136614Y53232D02*
Y51968D01*
X137878D01*
X137866Y52026D01*
X137388Y52742D01*
X136672Y53221D01*
X136614Y53232D01*
D02*
G37*
G36*
X135039D02*
X134982Y53221D01*
X134266Y52742D01*
X133787Y52026D01*
X133776Y51968D01*
X135039D01*
Y53232D01*
D02*
G37*
G36*
X-126772Y59487D02*
X-127540Y59335D01*
X-128191Y58899D01*
X-128626Y58248D01*
X-128779Y57480D01*
X-128626Y56712D01*
X-128191Y56061D01*
X-127540Y55626D01*
X-126772Y55473D01*
X-126004Y55626D01*
X-125352Y56061D01*
X-124917Y56712D01*
X-124765Y57480D01*
X-124917Y58248D01*
X-125352Y58899D01*
X-126004Y59335D01*
X-126772Y59487D01*
D02*
G37*
G36*
X20866Y59055D02*
X19602D01*
X19614Y58998D01*
X20092Y58281D01*
X20809Y57803D01*
X20866Y57791D01*
Y59055D01*
D02*
G37*
G36*
X93799Y60373D02*
X93031Y60220D01*
X92380Y59785D01*
X91945Y59134D01*
X91792Y58366D01*
X91945Y57598D01*
X92380Y56947D01*
X93031Y56512D01*
X93799Y56359D01*
X94567Y56512D01*
X95218Y56947D01*
X95653Y57598D01*
X95806Y58366D01*
X95653Y59134D01*
X95218Y59785D01*
X94567Y60220D01*
X93799Y60373D01*
D02*
G37*
G36*
X51968Y35122D02*
Y33858D01*
X53232D01*
X53221Y33916D01*
X52742Y34632D01*
X52026Y35111D01*
X51968Y35122D01*
D02*
G37*
G36*
X-129528Y36259D02*
X-130296Y36106D01*
X-130947Y35671D01*
X-131382Y35020D01*
X-131535Y34252D01*
X-131382Y33484D01*
X-130947Y32833D01*
X-130801Y32735D01*
X-130906Y32204D01*
X-131083Y32169D01*
X-131734Y31734D01*
X-132169Y31083D01*
X-132322Y30315D01*
X-132169Y29547D01*
X-131734Y28896D01*
X-131083Y28461D01*
X-130315Y28308D01*
X-129547Y28461D01*
X-128896Y28896D01*
X-128461Y29547D01*
X-128308Y30315D01*
X-128461Y31083D01*
X-128896Y31734D01*
X-129042Y31832D01*
X-128936Y32362D01*
X-128760Y32398D01*
X-128108Y32833D01*
X-127673Y33484D01*
X-127521Y34252D01*
X-127673Y35020D01*
X-128108Y35671D01*
X-128760Y36106D01*
X-129528Y36259D01*
D02*
G37*
G36*
X-2280Y29528D02*
X-3543D01*
Y28264D01*
X-3486Y28275D01*
X-2770Y28754D01*
X-2291Y29470D01*
X-2280Y29528D01*
D02*
G37*
G36*
X-94095Y32322D02*
X-94863Y32169D01*
X-95514Y31734D01*
X-95949Y31083D01*
X-96102Y30315D01*
X-95949Y29547D01*
X-95514Y28896D01*
X-94863Y28461D01*
X-94095Y28308D01*
X-93326Y28461D01*
X-92675Y28896D01*
X-92240Y29547D01*
X-92087Y30315D01*
X-92240Y31083D01*
X-92675Y31734D01*
X-93326Y32169D01*
X-94095Y32322D01*
D02*
G37*
G36*
X-145472Y30201D02*
Y28937D01*
X-144209D01*
X-144220Y28995D01*
X-144699Y29711D01*
X-145415Y30189D01*
X-145472Y30201D01*
D02*
G37*
G36*
X-147047D02*
X-147105Y30189D01*
X-147821Y29711D01*
X-148300Y28995D01*
X-148311Y28937D01*
X-147047D01*
Y30201D01*
D02*
G37*
G36*
Y27362D02*
X-148311D01*
X-148300Y27305D01*
X-147821Y26588D01*
X-147105Y26110D01*
X-147047Y26098D01*
Y27362D01*
D02*
G37*
G36*
X-37795Y29960D02*
X-38563Y29807D01*
X-39215Y29372D01*
X-39650Y28721D01*
X-39802Y27953D01*
X-39650Y27185D01*
X-39215Y26534D01*
X-38563Y26098D01*
X-37795Y25946D01*
X-37027Y26098D01*
X-36376Y26534D01*
X-35941Y27185D01*
X-35788Y27953D01*
X-35941Y28721D01*
X-36376Y29372D01*
X-37027Y29807D01*
X-37795Y29960D01*
D02*
G37*
G36*
X-144209Y27362D02*
X-145472D01*
Y26098D01*
X-145415Y26110D01*
X-144699Y26588D01*
X-144220Y27305D01*
X-144209Y27362D01*
D02*
G37*
G36*
X-5118Y29528D02*
X-6382D01*
X-6370Y29470D01*
X-5892Y28754D01*
X-5176Y28275D01*
X-5118Y28264D01*
Y29528D01*
D02*
G37*
G36*
X-113386Y31928D02*
X-114154Y31776D01*
X-114805Y31341D01*
X-115240Y30689D01*
X-115393Y29921D01*
X-115240Y29153D01*
X-114805Y28502D01*
X-114154Y28067D01*
X-113386Y27914D01*
X-112618Y28067D01*
X-111967Y28502D01*
X-111531Y29153D01*
X-111379Y29921D01*
X-111531Y30689D01*
X-111967Y31341D01*
X-112618Y31776D01*
X-113386Y31928D01*
D02*
G37*
G36*
X81102Y34291D02*
X80334Y34138D01*
X79683Y33703D01*
X79248Y33051D01*
X79095Y32283D01*
X79248Y31515D01*
X79683Y30864D01*
X80334Y30429D01*
X81102Y30276D01*
X81870Y30429D01*
X82522Y30864D01*
X82957Y31515D01*
X83109Y32283D01*
X82957Y33051D01*
X82522Y33703D01*
X81870Y34138D01*
X81102Y34291D01*
D02*
G37*
G36*
X-3543Y32366D02*
Y31102D01*
X-2280D01*
X-2291Y31160D01*
X-2770Y31876D01*
X-3486Y32355D01*
X-3543Y32366D01*
D02*
G37*
G36*
X-5118D02*
X-5176Y32355D01*
X-5892Y31876D01*
X-6370Y31160D01*
X-6382Y31102D01*
X-5118D01*
Y32366D01*
D02*
G37*
G36*
X104331Y34728D02*
X104273Y34717D01*
X103557Y34238D01*
X103078Y33522D01*
X103067Y33465D01*
X104331D01*
Y34728D01*
D02*
G37*
G36*
X50394Y35122D02*
X50336Y35111D01*
X49620Y34632D01*
X49141Y33916D01*
X49130Y33858D01*
X50394D01*
Y35122D01*
D02*
G37*
G36*
X105905Y34728D02*
Y33465D01*
X107169D01*
X107158Y33522D01*
X106679Y34238D01*
X105963Y34717D01*
X105905Y34728D01*
D02*
G37*
G36*
X107169Y31890D02*
X105905D01*
Y30626D01*
X105963Y30637D01*
X106679Y31116D01*
X107158Y31832D01*
X107169Y31890D01*
D02*
G37*
G36*
X104331D02*
X103067D01*
X103078Y31832D01*
X103557Y31116D01*
X104273Y30637D01*
X104331Y30626D01*
Y31890D01*
D02*
G37*
G36*
X135335Y34783D02*
X134567Y34630D01*
X133915Y34195D01*
X133480Y33544D01*
X133328Y32776D01*
X133480Y32008D01*
X133915Y31356D01*
X134567Y30921D01*
X135335Y30768D01*
X136103Y30921D01*
X136754Y31356D01*
X137189Y32008D01*
X137342Y32776D01*
X137189Y33544D01*
X136754Y34195D01*
X136103Y34630D01*
X135335Y34783D01*
D02*
G37*
G36*
X53232Y32283D02*
X51968D01*
Y31020D01*
X52026Y31031D01*
X52742Y31510D01*
X53221Y32226D01*
X53232Y32283D01*
D02*
G37*
G36*
X50394D02*
X49130D01*
X49141Y32226D01*
X49620Y31510D01*
X50336Y31031D01*
X50394Y31020D01*
Y32283D01*
D02*
G37*
%LPD*%
D29*
X-27953Y-95276D02*
X-27559Y-95669D01*
D36*
X138976Y3937D02*
D03*
X126378Y-23622D02*
D03*
X113386Y-24016D02*
D03*
X142913Y-40551D02*
D03*
X145669Y-20472D02*
D03*
Y-26378D02*
D03*
X138189Y16929D02*
D03*
Y24803D02*
D03*
X128740Y62992D02*
D03*
X124803Y24803D02*
D03*
X105118Y24409D02*
D03*
Y32677D02*
D03*
X104331Y74016D02*
D03*
Y66535D02*
D03*
X134252Y62992D02*
D03*
X-78740Y-74803D02*
D03*
X-35433D02*
D03*
X7874D02*
D03*
X51181D02*
D03*
X94488D02*
D03*
X102362Y-95276D02*
D03*
X59055D02*
D03*
X15748D02*
D03*
X-27559Y-95669D02*
D03*
X-70866Y-95276D02*
D03*
X-146260Y28150D02*
D03*
X125197Y-43701D02*
D03*
X125591Y-68504D02*
D03*
X-43307Y-118110D02*
D03*
Y-114173D02*
D03*
Y-110236D02*
D03*
Y-106299D02*
D03*
X135827Y51181D02*
D03*
X62992Y61024D02*
D03*
X51181Y33071D02*
D03*
X21654Y59842D02*
D03*
X-4331Y30315D02*
D03*
X29528Y-3543D02*
D03*
X-128347Y-12205D02*
D03*
X-99606Y-28740D02*
D03*
X-94095Y-39764D02*
D03*
X-50394Y-33858D02*
D03*
X0Y-64173D02*
D03*
X33071Y-123228D02*
D03*
X62205Y-118898D02*
D03*
X-19291Y-132677D02*
D03*
X-146063Y4724D02*
D03*
X-67716Y129528D02*
D03*
X74803Y122441D02*
D03*
X11417Y98425D02*
D03*
X50394Y86614D02*
D03*
X90945Y87795D02*
D03*
X146063Y17323D02*
D03*
X86614Y-95669D02*
D03*
X-33858Y-58661D02*
D03*
X-22441Y18504D02*
D03*
X-59842Y4724D02*
D03*
M02*
