G04*
G04 #@! TF.GenerationSoftware,Altium Limited,CircuitStudio,1.5.2 (30)*
G04*
G04 Layer_Physical_Order=3*
G04 Layer_Color=56745*
%FSLAX25Y25*%
%MOIN*%
G70*
G01*
G75*
%ADD26C,0.01181*%
%ADD29C,0.02362*%
%ADD35C,0.03150*%
%ADD36C,0.02756*%
G36*
X7500Y152666D02*
X14982Y152114D01*
X22428Y151196D01*
X29820Y149913D01*
X37140Y148270D01*
X44370Y146269D01*
X51494Y143915D01*
X58493Y141215D01*
X65352Y138175D01*
X72053Y134802D01*
X78581Y131104D01*
X84919Y127091D01*
X91053Y122771D01*
X96967Y118155D01*
X100188Y115377D01*
X100014Y114908D01*
X51766Y114914D01*
X51766Y114914D01*
X51480Y115219D01*
X51413Y115354D01*
Y123228D01*
X51275Y123920D01*
X50884Y124506D01*
X49146Y126243D01*
X49251Y126772D01*
X49098Y127540D01*
X49051Y127611D01*
Y132663D01*
X49098Y132735D01*
X49251Y133503D01*
X49098Y134271D01*
X48663Y134922D01*
X48012Y135357D01*
X47244Y135510D01*
X46476Y135357D01*
X45825Y134922D01*
X45390Y134271D01*
X45237Y133503D01*
X45390Y132735D01*
X45438Y132663D01*
Y127611D01*
X45390Y127540D01*
X45237Y126772D01*
X45390Y126004D01*
X45438Y125932D01*
Y125591D01*
X45575Y124899D01*
X45967Y124313D01*
X47800Y122480D01*
Y115268D01*
X47446Y114915D01*
X21845Y114918D01*
X21845Y114918D01*
X21558Y115223D01*
X21491Y115357D01*
Y119291D01*
X21354Y119983D01*
X20962Y120569D01*
X17554Y123977D01*
Y125932D01*
X17602Y126004D01*
X17755Y126772D01*
X17602Y127540D01*
X17554Y127611D01*
Y132231D01*
X17602Y132303D01*
X17755Y133071D01*
X17602Y133839D01*
X17167Y134490D01*
X16516Y134925D01*
X15748Y135078D01*
X14980Y134925D01*
X14329Y134490D01*
X13894Y133839D01*
X13741Y133071D01*
X13894Y132303D01*
X13942Y132231D01*
Y127611D01*
X13894Y127540D01*
X13741Y126772D01*
X13894Y126004D01*
X13942Y125932D01*
Y123228D01*
X14079Y122537D01*
X14471Y121951D01*
X17879Y118543D01*
Y115272D01*
X17525Y114918D01*
X-7683Y114922D01*
X-7683Y114922D01*
X-7969Y115227D01*
X-8036Y115361D01*
Y117323D01*
X-8174Y118014D01*
X-8565Y118600D01*
X-13942Y123977D01*
Y127507D01*
X-13894Y127578D01*
X-13741Y128347D01*
X-13894Y129114D01*
X-13942Y129186D01*
Y131837D01*
X-13894Y131909D01*
X-13741Y132677D01*
X-13894Y133445D01*
X-14329Y134096D01*
X-14980Y134531D01*
X-15748Y134684D01*
X-16516Y134531D01*
X-17167Y134096D01*
X-17602Y133445D01*
X-17755Y132677D01*
X-17602Y131909D01*
X-17554Y131837D01*
Y129186D01*
X-17602Y129114D01*
X-17755Y128347D01*
X-17602Y127578D01*
X-17554Y127507D01*
Y123228D01*
X-17417Y122537D01*
X-17025Y121951D01*
X-11649Y116575D01*
Y115276D01*
X-12003Y114922D01*
X-28155Y114924D01*
X-28155Y114924D01*
X-28497Y115325D01*
X-28509Y115364D01*
Y116424D01*
X-28108Y116691D01*
X-27673Y117342D01*
X-27520Y118110D01*
X-27673Y118878D01*
X-28108Y119529D01*
X-28760Y119965D01*
X-29528Y120117D01*
X-30296Y119965D01*
X-30556Y119790D01*
X-30612Y119779D01*
X-31199Y119387D01*
X-31592Y118994D01*
X-31984Y118408D01*
X-32121Y117717D01*
Y114476D01*
X-32475Y114122D01*
X-38351Y114123D01*
Y116424D01*
X-37951Y116691D01*
X-37516Y117342D01*
X-37363Y118110D01*
X-37516Y118878D01*
X-37951Y119529D01*
X-38602Y119965D01*
X-39370Y120117D01*
X-40138Y119965D01*
X-40399Y119790D01*
X-40455Y119779D01*
X-41041Y119387D01*
X-41435Y118994D01*
X-41826Y118408D01*
X-41964Y117717D01*
Y114477D01*
X-42317Y114123D01*
X-48194Y114124D01*
Y117080D01*
X-48187Y117085D01*
X-47752Y117736D01*
X-47599Y118504D01*
X-47752Y119272D01*
X-47926Y119533D01*
X-47937Y119589D01*
X-48329Y120175D01*
X-48915Y120566D01*
X-49606Y120704D01*
X-50298Y120566D01*
X-50884Y120175D01*
X-51275Y119589D01*
X-51286Y119533D01*
X-51461Y119272D01*
X-51506Y119046D01*
X-51669Y118801D01*
X-51806Y118110D01*
Y115281D01*
X-52160Y114927D01*
X-99985Y114933D01*
X-100159Y115402D01*
X-96967Y118155D01*
X-91053Y122771D01*
X-84919Y127091D01*
X-78581Y131104D01*
X-72053Y134802D01*
X-65352Y138175D01*
X-58493Y141215D01*
X-51494Y143915D01*
X-44370Y146269D01*
X-37140Y148270D01*
X-29820Y149913D01*
X-22428Y151196D01*
X-14982Y152114D01*
X-7500Y152666D01*
X0Y152850D01*
X7500Y152666D01*
D02*
G37*
G36*
X-51806Y114124D02*
Y111094D01*
X-52306Y110995D01*
X-52507Y111479D01*
X-52964Y112075D01*
X-53561Y112533D01*
X-54255Y112820D01*
X-55000Y112918D01*
X-55745Y112820D01*
X-56440Y112533D01*
X-57036Y112075D01*
X-57493Y111479D01*
X-57781Y110784D01*
X-57879Y110039D01*
X-57781Y109294D01*
X-57493Y108600D01*
X-57036Y108004D01*
X-56440Y107546D01*
X-55745Y107258D01*
X-55000Y107160D01*
X-54255Y107258D01*
X-53561Y107546D01*
X-52964Y108004D01*
X-52507Y108600D01*
X-52306Y109084D01*
X-51806Y108984D01*
Y50748D01*
X-121356Y-18801D01*
X-121748Y-19387D01*
X-121885Y-20079D01*
Y-52310D01*
X-121933Y-52381D01*
X-122086Y-53150D01*
X-121933Y-53918D01*
X-121498Y-54569D01*
X-120847Y-55004D01*
X-120079Y-55157D01*
X-119311Y-55004D01*
X-118659Y-54569D01*
X-118411Y-54197D01*
X-117810D01*
X-117561Y-54569D01*
X-116910Y-55004D01*
X-116142Y-55157D01*
X-115374Y-55004D01*
X-114723Y-54569D01*
X-114474Y-54197D01*
X-113873D01*
X-113624Y-54569D01*
X-112973Y-55004D01*
X-112205Y-55157D01*
X-111437Y-55004D01*
X-110785Y-54569D01*
X-110350Y-53918D01*
X-110198Y-53150D01*
X-110350Y-52381D01*
X-110398Y-52310D01*
Y-23977D01*
X-29038Y57384D01*
X-28646Y57970D01*
X-28509Y58661D01*
Y113768D01*
X-28155Y114121D01*
X-11649Y114119D01*
Y110284D01*
X-12135Y110252D01*
X-12144Y110251D01*
X-12149Y110251D01*
X-12149Y110251D01*
X-12153Y110284D01*
X-12157Y110313D01*
X-12219Y110784D01*
Y110784D01*
X-12507Y111479D01*
X-12964Y112075D01*
X-13561Y112533D01*
X-14255Y112820D01*
X-15000Y112918D01*
X-15745Y112820D01*
X-16440Y112533D01*
X-17036Y112075D01*
X-17493Y111479D01*
X-17781Y110784D01*
X-17879Y110039D01*
X-17781Y109294D01*
X-17493Y108600D01*
X-17036Y108004D01*
X-16440Y107546D01*
X-15745Y107258D01*
X-15000Y107160D01*
X-14255Y107258D01*
X-13561Y107546D01*
X-12964Y108004D01*
X-12507Y108600D01*
X-12219Y109294D01*
X-12157Y109766D01*
D01*
X-12149Y109828D01*
X-12149Y109828D01*
X-12144Y109827D01*
X-12135Y109827D01*
X-11649Y109795D01*
Y103543D01*
X-11511Y102852D01*
X-11120Y102266D01*
X691Y90455D01*
X1277Y90063D01*
X1969Y89926D01*
X73661D01*
X87170Y76417D01*
Y9843D01*
X87308Y9151D01*
X87699Y8565D01*
X108365Y-12101D01*
X108382Y-12185D01*
X108817Y-12836D01*
X109468Y-13272D01*
X110236Y-13424D01*
X111004Y-13272D01*
X111076Y-13224D01*
X116089D01*
X116161Y-13272D01*
X116929Y-13424D01*
X117697Y-13272D01*
X118348Y-12836D01*
X118783Y-12185D01*
X118936Y-11417D01*
X118783Y-10649D01*
X118348Y-9998D01*
X117697Y-9563D01*
X116929Y-9410D01*
X116161Y-9563D01*
X116089Y-9611D01*
X111076D01*
X111004Y-9563D01*
X110920Y-9546D01*
X90783Y10591D01*
Y77165D01*
X90645Y77857D01*
X90254Y78443D01*
X75687Y93010D01*
X75101Y93401D01*
X74410Y93539D01*
X2717D01*
X-8036Y104291D01*
Y108604D01*
X-7536Y108703D01*
X-7493Y108600D01*
X-7036Y108004D01*
X-6440Y107546D01*
X-5745Y107258D01*
X-5000Y107160D01*
X-4255Y107258D01*
X-3560Y107546D01*
X-2964Y108004D01*
X-2507Y108600D01*
X-2219Y109294D01*
X-2121Y110039D01*
X-2219Y110784D01*
X-2507Y111479D01*
X-2964Y112075D01*
X-3560Y112533D01*
X-4255Y112820D01*
X-5000Y112918D01*
X-5745Y112820D01*
X-6440Y112533D01*
X-7036Y112075D01*
X-7493Y111479D01*
X-7536Y111375D01*
X-8036Y111475D01*
Y113765D01*
X-7683Y114119D01*
X17879Y114116D01*
Y111798D01*
X17379Y111628D01*
X17036Y112075D01*
X16440Y112533D01*
X15745Y112820D01*
X15000Y112918D01*
X14255Y112820D01*
X13561Y112533D01*
X12964Y112075D01*
X12507Y111479D01*
X12219Y110784D01*
X12121Y110039D01*
X12219Y109294D01*
X12507Y108600D01*
X12964Y108004D01*
X13561Y107546D01*
X14255Y107258D01*
X15000Y107160D01*
X15745Y107258D01*
X16440Y107546D01*
X17036Y108004D01*
X17379Y108451D01*
X17879Y108281D01*
Y105905D01*
X18016Y105214D01*
X18408Y104628D01*
X27857Y95179D01*
X28443Y94788D01*
X29134Y94650D01*
X93740D01*
X97800Y90590D01*
Y44147D01*
X97752Y44075D01*
X97599Y43307D01*
X97752Y42539D01*
X98187Y41888D01*
X98838Y41453D01*
X99606Y41300D01*
X100374Y41453D01*
X100446Y41501D01*
X102703D01*
X102775Y41453D01*
X103543Y41300D01*
X104311Y41453D01*
X104963Y41888D01*
X105398Y42539D01*
X105550Y43307D01*
X105398Y44075D01*
X104963Y44726D01*
X104311Y45161D01*
X103543Y45314D01*
X102775Y45161D01*
X102703Y45113D01*
X101413D01*
Y91339D01*
X101275Y92030D01*
X100884Y92616D01*
X95766Y97734D01*
X95179Y98125D01*
X94488Y98263D01*
X29882D01*
X21491Y106654D01*
Y113762D01*
X21845Y114115D01*
X47800Y114112D01*
Y111900D01*
X47300Y111731D01*
X47036Y112075D01*
X46439Y112533D01*
X45745Y112820D01*
X45000Y112918D01*
X44255Y112820D01*
X43560Y112533D01*
X42964Y112075D01*
X42507Y111479D01*
X42219Y110784D01*
X42121Y110039D01*
X42219Y109294D01*
X42507Y108600D01*
X42964Y108004D01*
X43560Y107546D01*
X44255Y107258D01*
X45000Y107160D01*
X45745Y107258D01*
X46439Y107546D01*
X47036Y108004D01*
X47300Y108348D01*
X47800Y108178D01*
Y104724D01*
X47937Y104033D01*
X48329Y103447D01*
X52266Y99510D01*
X52852Y99119D01*
X53543Y98981D01*
X101220D01*
X104822Y95380D01*
X104839Y95295D01*
X104887Y95223D01*
Y92966D01*
X104839Y92894D01*
X104686Y92126D01*
X104839Y91358D01*
X105274Y90707D01*
X105925Y90272D01*
X106693Y90119D01*
X107461Y90272D01*
X108112Y90707D01*
X108547Y91358D01*
X108700Y92126D01*
X108547Y92894D01*
X108499Y92966D01*
Y95223D01*
X108547Y95295D01*
X108700Y96063D01*
X108547Y96831D01*
X108112Y97482D01*
X107461Y97917D01*
X107376Y97934D01*
X103246Y102065D01*
X102660Y102456D01*
X101969Y102594D01*
X54291D01*
X51413Y105473D01*
Y113758D01*
X51766Y114111D01*
X101662Y114105D01*
X102648Y113255D01*
X108081Y108081D01*
X113255Y102648D01*
X118155Y96967D01*
X122771Y91053D01*
X127091Y84919D01*
X131104Y78581D01*
X134802Y72053D01*
X138175Y65352D01*
X141215Y58493D01*
X143915Y51494D01*
X146269Y44370D01*
X148270Y37140D01*
X149913Y29820D01*
X151196Y22428D01*
X152114Y14982D01*
X152666Y7500D01*
X152850Y0D01*
X152666Y-7500D01*
X152114Y-14982D01*
X151196Y-22428D01*
X149913Y-29820D01*
X148270Y-37140D01*
X146269Y-44370D01*
X143915Y-51494D01*
X141215Y-58493D01*
X138175Y-65352D01*
X134802Y-72053D01*
X131104Y-78581D01*
X127091Y-84919D01*
X122771Y-91053D01*
X118155Y-96967D01*
X113255Y-102648D01*
X108081Y-108081D01*
X102648Y-113255D01*
X96967Y-118155D01*
X91053Y-122771D01*
X84919Y-127091D01*
X78581Y-131104D01*
X72053Y-134802D01*
X65352Y-138175D01*
X58493Y-141215D01*
X51494Y-143915D01*
X44370Y-146269D01*
X37140Y-148270D01*
X29820Y-149913D01*
X22428Y-151196D01*
X14982Y-152114D01*
X7500Y-152666D01*
X0Y-152850D01*
X-7500Y-152666D01*
X-14982Y-152114D01*
X-22428Y-151196D01*
X-29820Y-149913D01*
X-37140Y-148270D01*
X-44370Y-146269D01*
X-51494Y-143915D01*
X-58493Y-141215D01*
X-65352Y-138175D01*
X-72053Y-134802D01*
X-78581Y-131104D01*
X-84919Y-127091D01*
X-91053Y-122771D01*
X-96967Y-118155D01*
X-102648Y-113255D01*
X-108081Y-108081D01*
X-113255Y-102648D01*
X-118155Y-96967D01*
X-122771Y-91053D01*
X-127091Y-84919D01*
X-131104Y-78581D01*
X-134802Y-72053D01*
X-138175Y-65352D01*
X-141215Y-58493D01*
X-143915Y-51494D01*
X-146269Y-44370D01*
X-148270Y-37140D01*
X-149913Y-29820D01*
X-151196Y-22428D01*
X-152114Y-14982D01*
X-152666Y-7500D01*
X-152850Y0D01*
X-152666Y7500D01*
X-152114Y14982D01*
X-151196Y22428D01*
X-149913Y29820D01*
X-148270Y37140D01*
X-146269Y44370D01*
X-143915Y51494D01*
X-141215Y58493D01*
X-138175Y65352D01*
X-134802Y72053D01*
X-131104Y78581D01*
X-127091Y84919D01*
X-122771Y91053D01*
X-118155Y96967D01*
X-113255Y102648D01*
X-108081Y108081D01*
X-102648Y113255D01*
X-101633Y114131D01*
X-51806Y114124D01*
D02*
G37*
%LPC*%
G36*
X-65000Y-17160D02*
X-65745Y-17258D01*
X-66439Y-17546D01*
X-67036Y-18004D01*
X-67493Y-18600D01*
X-67781Y-19294D01*
X-67879Y-20039D01*
X-67781Y-20785D01*
X-67493Y-21479D01*
X-67036Y-22075D01*
X-66439Y-22533D01*
X-65745Y-22820D01*
X-65000Y-22918D01*
X-64255Y-22820D01*
X-63560Y-22533D01*
X-62964Y-22075D01*
X-62507Y-21479D01*
X-62219Y-20785D01*
X-62121Y-20039D01*
X-62219Y-19294D01*
X-62507Y-18600D01*
X-62964Y-18004D01*
X-63560Y-17546D01*
X-64255Y-17258D01*
X-65000Y-17160D01*
D02*
G37*
G36*
X-55000D02*
X-55745Y-17258D01*
X-56440Y-17546D01*
X-57036Y-18004D01*
X-57493Y-18600D01*
X-57781Y-19294D01*
X-57879Y-20039D01*
X-57781Y-20785D01*
X-57493Y-21479D01*
X-57036Y-22075D01*
X-56440Y-22533D01*
X-55745Y-22820D01*
X-55000Y-22918D01*
X-54255Y-22820D01*
X-53561Y-22533D01*
X-52964Y-22075D01*
X-52507Y-21479D01*
X-52219Y-20785D01*
X-52121Y-20039D01*
X-52219Y-19294D01*
X-52507Y-18600D01*
X-52964Y-18004D01*
X-53561Y-17546D01*
X-54255Y-17258D01*
X-55000Y-17160D01*
D02*
G37*
G36*
X112992Y-21615D02*
X112224Y-21768D01*
X111573Y-22203D01*
X111138Y-22854D01*
X110985Y-23622D01*
X111138Y-24390D01*
X111573Y-25041D01*
X112224Y-25476D01*
X112992Y-25629D01*
X113760Y-25476D01*
X114411Y-25041D01*
X114846Y-24390D01*
X114999Y-23622D01*
X114846Y-22854D01*
X114411Y-22203D01*
X113760Y-21768D01*
X112992Y-21615D01*
D02*
G37*
G36*
X-75000Y-17160D02*
X-75745Y-17258D01*
X-76439Y-17546D01*
X-77036Y-18004D01*
X-77493Y-18600D01*
X-77781Y-19294D01*
X-77879Y-20039D01*
X-77781Y-20785D01*
X-77493Y-21479D01*
X-77036Y-22075D01*
X-76439Y-22533D01*
X-75745Y-22820D01*
X-75000Y-22918D01*
X-74255Y-22820D01*
X-73561Y-22533D01*
X-72964Y-22075D01*
X-72507Y-21479D01*
X-72219Y-20785D01*
X-72121Y-20039D01*
X-72219Y-19294D01*
X-72507Y-18600D01*
X-72964Y-18004D01*
X-73561Y-17546D01*
X-74255Y-17258D01*
X-75000Y-17160D01*
D02*
G37*
G36*
X-25000D02*
X-25745Y-17258D01*
X-26439Y-17546D01*
X-27036Y-18004D01*
X-27493Y-18600D01*
X-27781Y-19294D01*
X-27879Y-20039D01*
X-27781Y-20785D01*
X-27493Y-21479D01*
X-27036Y-22075D01*
X-26439Y-22533D01*
X-25745Y-22820D01*
X-25000Y-22918D01*
X-24255Y-22820D01*
X-23561Y-22533D01*
X-22964Y-22075D01*
X-22507Y-21479D01*
X-22219Y-20785D01*
X-22121Y-20039D01*
X-22219Y-19294D01*
X-22507Y-18600D01*
X-22964Y-18004D01*
X-23561Y-17546D01*
X-24255Y-17258D01*
X-25000Y-17160D01*
D02*
G37*
G36*
X-15000D02*
X-15745Y-17258D01*
X-16440Y-17546D01*
X-17036Y-18004D01*
X-17493Y-18600D01*
X-17781Y-19294D01*
X-17879Y-20039D01*
X-17781Y-20785D01*
X-17493Y-21479D01*
X-17036Y-22075D01*
X-16440Y-22533D01*
X-15745Y-22820D01*
X-15000Y-22918D01*
X-14255Y-22820D01*
X-13561Y-22533D01*
X-12964Y-22075D01*
X-12507Y-21479D01*
X-12219Y-20785D01*
X-12121Y-20039D01*
X-12219Y-19294D01*
X-12507Y-18600D01*
X-12964Y-18004D01*
X-13561Y-17546D01*
X-14255Y-17258D01*
X-15000Y-17160D01*
D02*
G37*
G36*
X-45000D02*
X-45745Y-17258D01*
X-46439Y-17546D01*
X-47036Y-18004D01*
X-47493Y-18600D01*
X-47781Y-19294D01*
X-47879Y-20039D01*
X-47781Y-20785D01*
X-47493Y-21479D01*
X-47036Y-22075D01*
X-46439Y-22533D01*
X-45745Y-22820D01*
X-45000Y-22918D01*
X-44255Y-22820D01*
X-43560Y-22533D01*
X-42964Y-22075D01*
X-42507Y-21479D01*
X-42219Y-20785D01*
X-42121Y-20039D01*
X-42219Y-19294D01*
X-42507Y-18600D01*
X-42964Y-18004D01*
X-43560Y-17546D01*
X-44255Y-17258D01*
X-45000Y-17160D01*
D02*
G37*
G36*
X-35000D02*
X-35745Y-17258D01*
X-36439Y-17546D01*
X-37036Y-18004D01*
X-37493Y-18600D01*
X-37781Y-19294D01*
X-37879Y-20039D01*
X-37781Y-20785D01*
X-37493Y-21479D01*
X-37036Y-22075D01*
X-36439Y-22533D01*
X-35745Y-22820D01*
X-35000Y-22918D01*
X-34255Y-22820D01*
X-33560Y-22533D01*
X-32964Y-22075D01*
X-32507Y-21479D01*
X-32219Y-20785D01*
X-32121Y-20039D01*
X-32219Y-19294D01*
X-32507Y-18600D01*
X-32964Y-18004D01*
X-33560Y-17546D01*
X-34255Y-17258D01*
X-35000Y-17160D01*
D02*
G37*
G36*
X-99606Y-26733D02*
X-100374Y-26886D01*
X-101025Y-27321D01*
X-101461Y-27972D01*
X-101613Y-28740D01*
X-101461Y-29508D01*
X-101025Y-30159D01*
X-100374Y-30595D01*
X-99606Y-30747D01*
X-98838Y-30595D01*
X-98187Y-30159D01*
X-97752Y-29508D01*
X-97599Y-28740D01*
X-97752Y-27972D01*
X-98187Y-27321D01*
X-98838Y-26886D01*
X-99606Y-26733D01*
D02*
G37*
G36*
X-94095Y-37757D02*
X-94863Y-37909D01*
X-95514Y-38345D01*
X-95949Y-38996D01*
X-96102Y-39764D01*
X-95949Y-40532D01*
X-95514Y-41183D01*
X-94863Y-41618D01*
X-94095Y-41771D01*
X-93326Y-41618D01*
X-92675Y-41183D01*
X-92240Y-40532D01*
X-92087Y-39764D01*
X-92240Y-38996D01*
X-92675Y-38345D01*
X-93326Y-37909D01*
X-94095Y-37757D01*
D02*
G37*
G36*
X-50394Y-31851D02*
X-51162Y-32004D01*
X-51813Y-32439D01*
X-52248Y-33090D01*
X-52401Y-33858D01*
X-52248Y-34626D01*
X-51813Y-35278D01*
X-51162Y-35713D01*
X-50394Y-35865D01*
X-49626Y-35713D01*
X-48974Y-35278D01*
X-48539Y-34626D01*
X-48387Y-33858D01*
X-48539Y-33090D01*
X-48974Y-32439D01*
X-49626Y-32004D01*
X-50394Y-31851D01*
D02*
G37*
G36*
X125197Y-41694D02*
X124429Y-41846D01*
X123778Y-42282D01*
X123343Y-42933D01*
X123190Y-43701D01*
X123343Y-44469D01*
X123778Y-45120D01*
X124429Y-45555D01*
X125197Y-45708D01*
X125965Y-45555D01*
X126616Y-45120D01*
X127051Y-44469D01*
X127204Y-43701D01*
X127051Y-42933D01*
X126616Y-42282D01*
X125965Y-41846D01*
X125197Y-41694D01*
D02*
G37*
G36*
X142913Y-38544D02*
X142145Y-38697D01*
X141494Y-39132D01*
X141059Y-39783D01*
X140906Y-40551D01*
X141059Y-41319D01*
X141494Y-41970D01*
X142145Y-42406D01*
X142913Y-42558D01*
X143682Y-42406D01*
X144333Y-41970D01*
X144768Y-41319D01*
X144921Y-40551D01*
X144768Y-39783D01*
X144333Y-39132D01*
X143682Y-38697D01*
X142913Y-38544D01*
D02*
G37*
G36*
X29528Y-27520D02*
X28760Y-27673D01*
X28108Y-28108D01*
X27673Y-28760D01*
X27520Y-29528D01*
X27673Y-30296D01*
X28108Y-30947D01*
X28760Y-31382D01*
X29528Y-31535D01*
X30296Y-31382D01*
X30947Y-30947D01*
X31382Y-30296D01*
X31535Y-29528D01*
X31382Y-28760D01*
X30947Y-28108D01*
X30296Y-27673D01*
X29528Y-27520D01*
D02*
G37*
G36*
X78740D02*
X77972Y-27673D01*
X77321Y-28108D01*
X76886Y-28760D01*
X76733Y-29528D01*
X76886Y-30296D01*
X77321Y-30947D01*
X77972Y-31382D01*
X78740Y-31535D01*
X79508Y-31382D01*
X80159Y-30947D01*
X80594Y-30296D01*
X80747Y-29528D01*
X80594Y-28760D01*
X80159Y-28108D01*
X79508Y-27673D01*
X78740Y-27520D01*
D02*
G37*
G36*
X-78740D02*
X-79508Y-27673D01*
X-80159Y-28108D01*
X-80594Y-28760D01*
X-80747Y-29528D01*
X-80594Y-30296D01*
X-80159Y-30947D01*
X-79508Y-31382D01*
X-78740Y-31535D01*
X-77972Y-31382D01*
X-77321Y-30947D01*
X-76886Y-30296D01*
X-76733Y-29528D01*
X-76886Y-28760D01*
X-77321Y-28108D01*
X-77972Y-27673D01*
X-78740Y-27520D01*
D02*
G37*
G36*
X-29528D02*
X-30296Y-27673D01*
X-30947Y-28108D01*
X-31382Y-28760D01*
X-31535Y-29528D01*
X-31382Y-30296D01*
X-30947Y-30947D01*
X-30296Y-31382D01*
X-29528Y-31535D01*
X-28760Y-31382D01*
X-28108Y-30947D01*
X-27673Y-30296D01*
X-27520Y-29528D01*
X-27673Y-28760D01*
X-28108Y-28108D01*
X-28760Y-27673D01*
X-29528Y-27520D01*
D02*
G37*
G36*
X-92146Y-17185D02*
X-97854D01*
Y-22894D01*
X-92146D01*
Y-17185D01*
D02*
G37*
G36*
X112992Y-15710D02*
X112224Y-15862D01*
X111573Y-16297D01*
X111138Y-16949D01*
X110985Y-17717D01*
X111138Y-18485D01*
X111573Y-19136D01*
X112224Y-19571D01*
X112992Y-19724D01*
X113760Y-19571D01*
X114411Y-19136D01*
X114846Y-18485D01*
X114999Y-17717D01*
X114846Y-16949D01*
X114411Y-16297D01*
X113760Y-15862D01*
X112992Y-15710D01*
D02*
G37*
G36*
X85000Y-17160D02*
X84255Y-17258D01*
X83561Y-17546D01*
X82964Y-18004D01*
X82507Y-18600D01*
X82219Y-19294D01*
X82121Y-20039D01*
X82219Y-20785D01*
X82507Y-21479D01*
X82964Y-22075D01*
X83561Y-22533D01*
X84255Y-22820D01*
X85000Y-22918D01*
X85745Y-22820D01*
X86440Y-22533D01*
X87036Y-22075D01*
X87493Y-21479D01*
X87781Y-20785D01*
X87879Y-20039D01*
X87781Y-19294D01*
X87493Y-18600D01*
X87036Y-18004D01*
X86440Y-17546D01*
X85745Y-17258D01*
X85000Y-17160D01*
D02*
G37*
G36*
X95000D02*
X94255Y-17258D01*
X93560Y-17546D01*
X92964Y-18004D01*
X92507Y-18600D01*
X92219Y-19294D01*
X92121Y-20039D01*
X92219Y-20785D01*
X92507Y-21479D01*
X92964Y-22075D01*
X93560Y-22533D01*
X94255Y-22820D01*
X95000Y-22918D01*
X95745Y-22820D01*
X96439Y-22533D01*
X97036Y-22075D01*
X97493Y-21479D01*
X97781Y-20785D01*
X97879Y-20039D01*
X97781Y-19294D01*
X97493Y-18600D01*
X97036Y-18004D01*
X96439Y-17546D01*
X95745Y-17258D01*
X95000Y-17160D01*
D02*
G37*
G36*
X-128347Y-10198D02*
X-129114Y-10350D01*
X-129766Y-10785D01*
X-130201Y-11437D01*
X-130353Y-12205D01*
X-130201Y-12973D01*
X-129766Y-13624D01*
X-129114Y-14059D01*
X-128347Y-14212D01*
X-127578Y-14059D01*
X-126927Y-13624D01*
X-126492Y-12973D01*
X-126339Y-12205D01*
X-126492Y-11437D01*
X-126927Y-10785D01*
X-127578Y-10350D01*
X-128347Y-10198D01*
D02*
G37*
G36*
X-118110Y6725D02*
X-119422Y6596D01*
X-120684Y6213D01*
X-121847Y5592D01*
X-122866Y4755D01*
X-123702Y3736D01*
X-124324Y2574D01*
X-124706Y1312D01*
X-124836Y0D01*
X-124706Y-1312D01*
X-124324Y-2574D01*
X-123702Y-3736D01*
X-122866Y-4755D01*
X-121847Y-5592D01*
X-120684Y-6213D01*
X-119422Y-6596D01*
X-118110Y-6725D01*
X-116798Y-6596D01*
X-115537Y-6213D01*
X-114374Y-5592D01*
X-113355Y-4755D01*
X-112518Y-3736D01*
X-111897Y-2574D01*
X-111514Y-1312D01*
X-111385Y0D01*
X-111514Y1312D01*
X-111897Y2574D01*
X-112518Y3736D01*
X-113355Y4755D01*
X-114374Y5592D01*
X-115537Y6213D01*
X-116798Y6596D01*
X-118110Y6725D01*
D02*
G37*
G36*
X140945Y-18272D02*
X140254Y-18410D01*
X139668Y-18801D01*
X139466D01*
X138880Y-18410D01*
X138189Y-18272D01*
X137498Y-18410D01*
X137188Y-18617D01*
X136811Y-18763D01*
X136434Y-18617D01*
X136124Y-18410D01*
X135433Y-18272D01*
X134742Y-18410D01*
X134156Y-18801D01*
X133954D01*
X133368Y-18410D01*
X132677Y-18272D01*
X131986Y-18410D01*
X131676Y-18617D01*
X131299Y-18763D01*
X130922Y-18617D01*
X130613Y-18410D01*
X129921Y-18272D01*
X129230Y-18410D01*
X128644Y-18801D01*
X128252Y-19387D01*
X128115Y-20079D01*
X128252Y-20770D01*
X128644Y-21356D01*
X128715Y-21404D01*
Y-21904D01*
X128644Y-21951D01*
X128252Y-22537D01*
X128115Y-23228D01*
X128252Y-23920D01*
X128644Y-24506D01*
X128715Y-24553D01*
Y-25053D01*
X128644Y-25101D01*
X128252Y-25687D01*
X128115Y-26378D01*
X128252Y-27069D01*
X128644Y-27655D01*
X129230Y-28047D01*
X129921Y-28184D01*
X130613Y-28047D01*
X130922Y-27840D01*
X131400Y-27655D01*
X131986Y-28047D01*
X132677Y-28184D01*
X133368Y-28047D01*
X133678Y-27840D01*
X134055Y-27694D01*
X134432Y-27840D01*
X134742Y-28047D01*
X135433Y-28184D01*
X136124Y-28047D01*
X136710Y-27655D01*
X136912D01*
X137498Y-28047D01*
X138189Y-28184D01*
X138880Y-28047D01*
X139190Y-27840D01*
X139567Y-27694D01*
X139944Y-27840D01*
X140254Y-28047D01*
X140945Y-28184D01*
X141636Y-28047D01*
X142222Y-27655D01*
X142614Y-27069D01*
X142751Y-26378D01*
X142614Y-25687D01*
X142222Y-25101D01*
X142151Y-25053D01*
Y-24553D01*
X142222Y-24506D01*
X142614Y-23920D01*
X142751Y-23228D01*
X142614Y-22537D01*
X142222Y-21951D01*
X142151Y-21904D01*
Y-21404D01*
X142222Y-21356D01*
X142614Y-20770D01*
X142751Y-20079D01*
X142614Y-19387D01*
X142222Y-18801D01*
X141636Y-18410D01*
X140945Y-18272D01*
D02*
G37*
G36*
X94882Y-10985D02*
X94114Y-11138D01*
X93463Y-11573D01*
X93028Y-12224D01*
X92875Y-12992D01*
X93028Y-13760D01*
X93463Y-14411D01*
X94114Y-14846D01*
X94882Y-14999D01*
X95650Y-14846D01*
X96301Y-14411D01*
X96736Y-13760D01*
X96889Y-12992D01*
X96736Y-12224D01*
X96301Y-11573D01*
X95650Y-11138D01*
X94882Y-10985D01*
D02*
G37*
G36*
X75000Y-17160D02*
X74255Y-17258D01*
X73561Y-17546D01*
X72964Y-18004D01*
X72507Y-18600D01*
X72219Y-19294D01*
X72121Y-20039D01*
X72219Y-20785D01*
X72507Y-21479D01*
X72964Y-22075D01*
X73561Y-22533D01*
X74255Y-22820D01*
X75000Y-22918D01*
X75745Y-22820D01*
X76439Y-22533D01*
X77036Y-22075D01*
X77493Y-21479D01*
X77781Y-20785D01*
X77879Y-20039D01*
X77781Y-19294D01*
X77493Y-18600D01*
X77036Y-18004D01*
X76439Y-17546D01*
X75745Y-17258D01*
X75000Y-17160D01*
D02*
G37*
G36*
X15000D02*
X14255Y-17258D01*
X13561Y-17546D01*
X12964Y-18004D01*
X12507Y-18600D01*
X12219Y-19294D01*
X12121Y-20039D01*
X12219Y-20785D01*
X12507Y-21479D01*
X12964Y-22075D01*
X13561Y-22533D01*
X14255Y-22820D01*
X15000Y-22918D01*
X15745Y-22820D01*
X16440Y-22533D01*
X17036Y-22075D01*
X17493Y-21479D01*
X17781Y-20785D01*
X17879Y-20039D01*
X17781Y-19294D01*
X17493Y-18600D01*
X17036Y-18004D01*
X16440Y-17546D01*
X15745Y-17258D01*
X15000Y-17160D01*
D02*
G37*
G36*
X25000D02*
X24255Y-17258D01*
X23561Y-17546D01*
X22964Y-18004D01*
X22507Y-18600D01*
X22219Y-19294D01*
X22121Y-20039D01*
X22219Y-20785D01*
X22507Y-21479D01*
X22964Y-22075D01*
X23561Y-22533D01*
X24255Y-22820D01*
X25000Y-22918D01*
X25745Y-22820D01*
X26439Y-22533D01*
X27036Y-22075D01*
X27493Y-21479D01*
X27781Y-20785D01*
X27879Y-20039D01*
X27781Y-19294D01*
X27493Y-18600D01*
X27036Y-18004D01*
X26439Y-17546D01*
X25745Y-17258D01*
X25000Y-17160D01*
D02*
G37*
G36*
X-5000D02*
X-5745Y-17258D01*
X-6440Y-17546D01*
X-7036Y-18004D01*
X-7493Y-18600D01*
X-7781Y-19294D01*
X-7879Y-20039D01*
X-7781Y-20785D01*
X-7493Y-21479D01*
X-7036Y-22075D01*
X-6440Y-22533D01*
X-5745Y-22820D01*
X-5000Y-22918D01*
X-4255Y-22820D01*
X-3560Y-22533D01*
X-2964Y-22075D01*
X-2507Y-21479D01*
X-2219Y-20785D01*
X-2121Y-20039D01*
X-2219Y-19294D01*
X-2507Y-18600D01*
X-2964Y-18004D01*
X-3560Y-17546D01*
X-4255Y-17258D01*
X-5000Y-17160D01*
D02*
G37*
G36*
X5000D02*
X4255Y-17258D01*
X3560Y-17546D01*
X2964Y-18004D01*
X2507Y-18600D01*
X2219Y-19294D01*
X2121Y-20039D01*
X2219Y-20785D01*
X2507Y-21479D01*
X2964Y-22075D01*
X3560Y-22533D01*
X4255Y-22820D01*
X5000Y-22918D01*
X5745Y-22820D01*
X6440Y-22533D01*
X7036Y-22075D01*
X7493Y-21479D01*
X7781Y-20785D01*
X7879Y-20039D01*
X7781Y-19294D01*
X7493Y-18600D01*
X7036Y-18004D01*
X6440Y-17546D01*
X5745Y-17258D01*
X5000Y-17160D01*
D02*
G37*
G36*
X55000D02*
X54255Y-17258D01*
X53561Y-17546D01*
X52964Y-18004D01*
X52507Y-18600D01*
X52219Y-19294D01*
X52121Y-20039D01*
X52219Y-20785D01*
X52507Y-21479D01*
X52964Y-22075D01*
X53561Y-22533D01*
X54255Y-22820D01*
X55000Y-22918D01*
X55745Y-22820D01*
X56440Y-22533D01*
X57036Y-22075D01*
X57493Y-21479D01*
X57781Y-20785D01*
X57879Y-20039D01*
X57781Y-19294D01*
X57493Y-18600D01*
X57036Y-18004D01*
X56440Y-17546D01*
X55745Y-17258D01*
X55000Y-17160D01*
D02*
G37*
G36*
X65000D02*
X64255Y-17258D01*
X63560Y-17546D01*
X62964Y-18004D01*
X62507Y-18600D01*
X62219Y-19294D01*
X62121Y-20039D01*
X62219Y-20785D01*
X62507Y-21479D01*
X62964Y-22075D01*
X63560Y-22533D01*
X64255Y-22820D01*
X65000Y-22918D01*
X65745Y-22820D01*
X66439Y-22533D01*
X67036Y-22075D01*
X67493Y-21479D01*
X67781Y-20785D01*
X67879Y-20039D01*
X67781Y-19294D01*
X67493Y-18600D01*
X67036Y-18004D01*
X66439Y-17546D01*
X65745Y-17258D01*
X65000Y-17160D01*
D02*
G37*
G36*
X35000D02*
X34255Y-17258D01*
X33560Y-17546D01*
X32964Y-18004D01*
X32507Y-18600D01*
X32219Y-19294D01*
X32121Y-20039D01*
X32219Y-20785D01*
X32507Y-21479D01*
X32964Y-22075D01*
X33560Y-22533D01*
X34255Y-22820D01*
X35000Y-22918D01*
X35745Y-22820D01*
X36439Y-22533D01*
X37036Y-22075D01*
X37493Y-21479D01*
X37781Y-20785D01*
X37879Y-20039D01*
X37781Y-19294D01*
X37493Y-18600D01*
X37036Y-18004D01*
X36439Y-17546D01*
X35745Y-17258D01*
X35000Y-17160D01*
D02*
G37*
G36*
X45000D02*
X44255Y-17258D01*
X43560Y-17546D01*
X42964Y-18004D01*
X42507Y-18600D01*
X42219Y-19294D01*
X42121Y-20039D01*
X42219Y-20785D01*
X42507Y-21479D01*
X42964Y-22075D01*
X43560Y-22533D01*
X44255Y-22820D01*
X45000Y-22918D01*
X45745Y-22820D01*
X46439Y-22533D01*
X47036Y-22075D01*
X47493Y-21479D01*
X47781Y-20785D01*
X47879Y-20039D01*
X47781Y-19294D01*
X47493Y-18600D01*
X47036Y-18004D01*
X46439Y-17546D01*
X45745Y-17258D01*
X45000Y-17160D01*
D02*
G37*
G36*
X86614Y-93662D02*
X85846Y-93815D01*
X85195Y-94250D01*
X84760Y-94901D01*
X84607Y-95669D01*
X84760Y-96437D01*
X85195Y-97088D01*
X85846Y-97524D01*
X86614Y-97676D01*
X87382Y-97524D01*
X88033Y-97088D01*
X88468Y-96437D01*
X88621Y-95669D01*
X88468Y-94901D01*
X88033Y-94250D01*
X87382Y-93815D01*
X86614Y-93662D01*
D02*
G37*
G36*
X-70866Y-93269D02*
X-71634Y-93421D01*
X-72285Y-93856D01*
X-72720Y-94507D01*
X-72873Y-95276D01*
X-72720Y-96044D01*
X-72285Y-96695D01*
X-71634Y-97130D01*
X-70866Y-97283D01*
X-70098Y-97130D01*
X-69447Y-96695D01*
X-69012Y-96044D01*
X-68859Y-95276D01*
X-69012Y-94507D01*
X-69447Y-93856D01*
X-70098Y-93421D01*
X-70866Y-93269D01*
D02*
G37*
G36*
X-64961Y-93662D02*
X-65729Y-93815D01*
X-66380Y-94250D01*
X-66815Y-94901D01*
X-66968Y-95669D01*
X-66815Y-96437D01*
X-66380Y-97088D01*
X-65729Y-97524D01*
X-64961Y-97676D01*
X-64193Y-97524D01*
X-63541Y-97088D01*
X-63106Y-96437D01*
X-62954Y-95669D01*
X-63106Y-94901D01*
X-63541Y-94250D01*
X-64193Y-93815D01*
X-64961Y-93662D01*
D02*
G37*
G36*
X-27559D02*
X-28327Y-93815D01*
X-28978Y-94250D01*
X-29413Y-94901D01*
X-29566Y-95669D01*
X-29413Y-96437D01*
X-28978Y-97088D01*
X-28327Y-97524D01*
X-27559Y-97676D01*
X-26791Y-97524D01*
X-26140Y-97088D01*
X-25705Y-96437D01*
X-25552Y-95669D01*
X-25705Y-94901D01*
X-26140Y-94250D01*
X-26791Y-93815D01*
X-27559Y-93662D01*
D02*
G37*
G36*
X102362Y-93269D02*
X101594Y-93421D01*
X100943Y-93856D01*
X100508Y-94507D01*
X100355Y-95276D01*
X100508Y-96044D01*
X100943Y-96695D01*
X101594Y-97130D01*
X102362Y-97283D01*
X103130Y-97130D01*
X103781Y-96695D01*
X104217Y-96044D01*
X104369Y-95276D01*
X104217Y-94507D01*
X103781Y-93856D01*
X103130Y-93421D01*
X102362Y-93269D01*
D02*
G37*
G36*
X-80315Y-92087D02*
X-81083Y-92240D01*
X-81734Y-92675D01*
X-82169Y-93326D01*
X-82322Y-94095D01*
X-82169Y-94863D01*
X-81734Y-95514D01*
X-81083Y-95949D01*
X-80315Y-96102D01*
X-79547Y-95949D01*
X-78896Y-95514D01*
X-78461Y-94863D01*
X-78308Y-94095D01*
X-78461Y-93326D01*
X-78896Y-92675D01*
X-79547Y-92240D01*
X-80315Y-92087D01*
D02*
G37*
G36*
X15748Y-93269D02*
X14980Y-93421D01*
X14329Y-93856D01*
X13894Y-94507D01*
X13741Y-95276D01*
X13894Y-96044D01*
X14329Y-96695D01*
X14980Y-97130D01*
X15748Y-97283D01*
X16516Y-97130D01*
X17167Y-96695D01*
X17602Y-96044D01*
X17755Y-95276D01*
X17602Y-94507D01*
X17167Y-93856D01*
X16516Y-93421D01*
X15748Y-93269D01*
D02*
G37*
G36*
X59055D02*
X58287Y-93421D01*
X57636Y-93856D01*
X57201Y-94507D01*
X57048Y-95276D01*
X57201Y-96044D01*
X57636Y-96695D01*
X58287Y-97130D01*
X59055Y-97283D01*
X59823Y-97130D01*
X60474Y-96695D01*
X60909Y-96044D01*
X61062Y-95276D01*
X60909Y-94507D01*
X60474Y-93856D01*
X59823Y-93421D01*
X59055Y-93269D01*
D02*
G37*
G36*
X-76772Y-96024D02*
X-77540Y-96177D01*
X-78191Y-96612D01*
X-78626Y-97263D01*
X-78779Y-98032D01*
X-78626Y-98800D01*
X-78191Y-99451D01*
X-77540Y-99886D01*
X-76772Y-100039D01*
X-76004Y-99886D01*
X-75352Y-99451D01*
X-74917Y-98800D01*
X-74765Y-98032D01*
X-74917Y-97263D01*
X-75352Y-96612D01*
X-76004Y-96177D01*
X-76772Y-96024D01*
D02*
G37*
G36*
X25197Y-130670D02*
X24429Y-130823D01*
X23778Y-131258D01*
X23343Y-131909D01*
X23190Y-132677D01*
X23343Y-133445D01*
X23778Y-134096D01*
X24429Y-134531D01*
X25197Y-134684D01*
X25965Y-134531D01*
X26616Y-134096D01*
X27051Y-133445D01*
X27204Y-132677D01*
X27051Y-131909D01*
X26616Y-131258D01*
X25965Y-130823D01*
X25197Y-130670D01*
D02*
G37*
G36*
X-75984Y-121221D02*
X-76752Y-121374D01*
X-77403Y-121809D01*
X-77838Y-122460D01*
X-77991Y-123228D01*
X-77838Y-123996D01*
X-77403Y-124648D01*
X-76752Y-125083D01*
X-75984Y-125235D01*
X-75580Y-125155D01*
X-75155Y-125580D01*
X-75235Y-125984D01*
X-75083Y-126752D01*
X-74648Y-127403D01*
X-73996Y-127839D01*
X-73228Y-127991D01*
X-72460Y-127839D01*
X-72365Y-127775D01*
X-72311Y-127799D01*
X-71960Y-128105D01*
X-72086Y-128740D01*
X-71933Y-129508D01*
X-71498Y-130159D01*
X-70847Y-130595D01*
X-70079Y-130747D01*
X-69311Y-130595D01*
X-68900Y-130922D01*
X-68936Y-131102D01*
X-68783Y-131870D01*
X-68348Y-132522D01*
X-67697Y-132957D01*
X-66929Y-133109D01*
X-66161Y-132957D01*
X-65510Y-132522D01*
X-65075Y-131870D01*
X-64922Y-131102D01*
X-65075Y-130334D01*
X-65510Y-129683D01*
X-66161Y-129248D01*
X-66929Y-129095D01*
X-67697Y-129248D01*
X-68108Y-128921D01*
X-68072Y-128740D01*
X-68225Y-127972D01*
X-68660Y-127321D01*
X-69311Y-126886D01*
X-70079Y-126733D01*
X-70847Y-126886D01*
X-70942Y-126950D01*
X-70996Y-126925D01*
X-71348Y-126619D01*
X-71221Y-125984D01*
X-71374Y-125216D01*
X-71809Y-124565D01*
X-72460Y-124130D01*
X-73228Y-123977D01*
X-73632Y-124057D01*
X-74058Y-123632D01*
X-73977Y-123228D01*
X-74130Y-122460D01*
X-74565Y-121809D01*
X-75216Y-121374D01*
X-75984Y-121221D01*
D02*
G37*
G36*
X50394Y-123985D02*
X49159Y-124107D01*
X47971Y-124467D01*
X46877Y-125052D01*
X45918Y-125839D01*
X45131Y-126798D01*
X44546Y-127893D01*
X44186Y-129080D01*
X44064Y-130315D01*
X44186Y-131550D01*
X44546Y-132737D01*
X45131Y-133832D01*
X45918Y-134791D01*
X46877Y-135578D01*
X47971Y-136163D01*
X49159Y-136523D01*
X50394Y-136645D01*
X51629Y-136523D01*
X52816Y-136163D01*
X53910Y-135578D01*
X54870Y-134791D01*
X55657Y-133832D01*
X56242Y-132737D01*
X56602Y-131550D01*
X56723Y-130315D01*
X56602Y-129080D01*
X56242Y-127893D01*
X55657Y-126798D01*
X54870Y-125839D01*
X53910Y-125052D01*
X52816Y-124467D01*
X51629Y-124107D01*
X50394Y-123985D01*
D02*
G37*
G36*
X-19291Y-130670D02*
X-20059Y-130823D01*
X-20711Y-131258D01*
X-21146Y-131909D01*
X-21298Y-132677D01*
X-21146Y-133445D01*
X-20711Y-134096D01*
X-20059Y-134531D01*
X-19291Y-134684D01*
X-18523Y-134531D01*
X-17872Y-134096D01*
X-17437Y-133445D01*
X-17284Y-132677D01*
X-17437Y-131909D01*
X-17872Y-131258D01*
X-18523Y-130823D01*
X-19291Y-130670D01*
D02*
G37*
G36*
X62205Y-116891D02*
X61437Y-117043D01*
X60786Y-117478D01*
X60350Y-118130D01*
X60198Y-118898D01*
X60350Y-119666D01*
X60786Y-120317D01*
X61437Y-120752D01*
X62205Y-120905D01*
X62973Y-120752D01*
X63624Y-120317D01*
X64059Y-119666D01*
X64212Y-118898D01*
X64059Y-118130D01*
X63624Y-117478D01*
X62973Y-117043D01*
X62205Y-116891D01*
D02*
G37*
G36*
X-99606Y-106261D02*
X-100374Y-106413D01*
X-101025Y-106849D01*
X-101461Y-107500D01*
X-101613Y-108268D01*
X-101461Y-109036D01*
X-101025Y-109687D01*
X-100374Y-110122D01*
X-99606Y-110275D01*
X-98838Y-110122D01*
X-98187Y-109687D01*
X-97752Y-109036D01*
X-97599Y-108268D01*
X-97752Y-107500D01*
X-98187Y-106849D01*
X-98838Y-106413D01*
X-99606Y-106261D01*
D02*
G37*
G36*
X-65748Y-112560D02*
X-66516Y-112713D01*
X-67167Y-113148D01*
X-67602Y-113799D01*
X-67755Y-114567D01*
X-67602Y-115335D01*
X-67167Y-115986D01*
X-66516Y-116421D01*
X-65748Y-116574D01*
X-65344Y-116494D01*
X-64919Y-116919D01*
X-64999Y-117323D01*
X-64846Y-118091D01*
X-64411Y-118742D01*
X-63760Y-119177D01*
X-62992Y-119330D01*
X-62588Y-119249D01*
X-62163Y-119675D01*
X-62243Y-120079D01*
X-62090Y-120847D01*
X-61655Y-121498D01*
X-61004Y-121933D01*
X-60236Y-122086D01*
X-59832Y-122005D01*
X-59407Y-122431D01*
X-59487Y-122835D01*
X-59335Y-123603D01*
X-58899Y-124254D01*
X-58248Y-124689D01*
X-57480Y-124842D01*
X-56712Y-124689D01*
X-56061Y-124254D01*
X-55626Y-123603D01*
X-55473Y-122835D01*
X-55626Y-122067D01*
X-56061Y-121415D01*
X-56712Y-120980D01*
X-57480Y-120828D01*
X-57884Y-120908D01*
X-58310Y-120483D01*
X-58229Y-120079D01*
X-58382Y-119311D01*
X-58817Y-118659D01*
X-59468Y-118225D01*
X-60236Y-118072D01*
X-60640Y-118152D01*
X-61065Y-117727D01*
X-60985Y-117323D01*
X-61138Y-116555D01*
X-61573Y-115904D01*
X-62224Y-115469D01*
X-62992Y-115316D01*
X-63396Y-115396D01*
X-63821Y-114971D01*
X-63741Y-114567D01*
X-63894Y-113799D01*
X-64329Y-113148D01*
X-64980Y-112713D01*
X-65748Y-112560D01*
D02*
G37*
G36*
X0Y-111385D02*
X-1312Y-111514D01*
X-2574Y-111897D01*
X-3736Y-112518D01*
X-4755Y-113355D01*
X-5592Y-114374D01*
X-6213Y-115537D01*
X-6596Y-116798D01*
X-6725Y-118110D01*
X-6596Y-119422D01*
X-6213Y-120684D01*
X-5592Y-121847D01*
X-4755Y-122866D01*
X-3736Y-123702D01*
X-2574Y-124324D01*
X-1312Y-124706D01*
X0Y-124836D01*
X1312Y-124706D01*
X2574Y-124324D01*
X3736Y-123702D01*
X4755Y-122866D01*
X5592Y-121847D01*
X6213Y-120684D01*
X6596Y-119422D01*
X6725Y-118110D01*
X6596Y-116798D01*
X6213Y-115537D01*
X5592Y-114374D01*
X4755Y-113355D01*
X3736Y-112518D01*
X2574Y-111897D01*
X1312Y-111514D01*
X0Y-111385D01*
D02*
G37*
G36*
X125591Y-66497D02*
X124822Y-66650D01*
X124171Y-67085D01*
X123736Y-67736D01*
X123583Y-68504D01*
X123736Y-69272D01*
X124171Y-69923D01*
X124822Y-70358D01*
X125591Y-70511D01*
X126359Y-70358D01*
X127010Y-69923D01*
X127445Y-69272D01*
X127598Y-68504D01*
X127445Y-67736D01*
X127010Y-67085D01*
X126359Y-66650D01*
X125591Y-66497D01*
D02*
G37*
G36*
X-28346Y-60198D02*
X-29114Y-60350D01*
X-29766Y-60786D01*
X-30201Y-61437D01*
X-30354Y-62205D01*
X-30201Y-62973D01*
X-29766Y-63624D01*
X-29114Y-64059D01*
X-28346Y-64212D01*
X-27578Y-64059D01*
X-26927Y-63624D01*
X-26492Y-62973D01*
X-26339Y-62205D01*
X-26492Y-61437D01*
X-26927Y-60786D01*
X-27578Y-60350D01*
X-28346Y-60198D01*
D02*
G37*
G36*
X94488Y-72796D02*
X93720Y-72949D01*
X93069Y-73384D01*
X92634Y-74035D01*
X92481Y-74803D01*
X92634Y-75571D01*
X93069Y-76222D01*
X93720Y-76657D01*
X94488Y-76810D01*
X95256Y-76657D01*
X95907Y-76222D01*
X96342Y-75571D01*
X96495Y-74803D01*
X96342Y-74035D01*
X95907Y-73384D01*
X95256Y-72949D01*
X94488Y-72796D01*
D02*
G37*
G36*
X-69685Y-68465D02*
X-70453Y-68618D01*
X-71104Y-69053D01*
X-71539Y-69704D01*
X-71692Y-70472D01*
X-71539Y-71241D01*
X-71104Y-71892D01*
X-70453Y-72327D01*
X-69685Y-72479D01*
X-68917Y-72327D01*
X-68266Y-71892D01*
X-67831Y-71241D01*
X-67678Y-70472D01*
X-67831Y-69704D01*
X-68266Y-69053D01*
X-68917Y-68618D01*
X-69685Y-68465D01*
D02*
G37*
G36*
X-137402Y-54686D02*
X-138170Y-54839D01*
X-138821Y-55274D01*
X-139256Y-55925D01*
X-139409Y-56693D01*
X-139256Y-57461D01*
X-138821Y-58112D01*
X-138170Y-58547D01*
X-137402Y-58700D01*
X-136634Y-58547D01*
X-135982Y-58112D01*
X-135547Y-57461D01*
X-135395Y-56693D01*
X-135547Y-55925D01*
X-135982Y-55274D01*
X-136634Y-54839D01*
X-137402Y-54686D01*
D02*
G37*
G36*
X101575Y-46024D02*
X100807Y-46177D01*
X100156Y-46612D01*
X99721Y-47263D01*
X99568Y-48031D01*
X99721Y-48800D01*
X100156Y-49451D01*
X100807Y-49886D01*
X101575Y-50039D01*
X102343Y-49886D01*
X102994Y-49451D01*
X103429Y-48800D01*
X103582Y-48031D01*
X103429Y-47263D01*
X102994Y-46612D01*
X102343Y-46177D01*
X101575Y-46024D01*
D02*
G37*
G36*
X-107087Y-56654D02*
X-107855Y-56807D01*
X-108506Y-57242D01*
X-108941Y-57893D01*
X-109094Y-58661D01*
X-108941Y-59430D01*
X-108506Y-60081D01*
X-107855Y-60516D01*
X-107087Y-60668D01*
X-106318Y-60516D01*
X-105667Y-60081D01*
X-105232Y-59430D01*
X-105079Y-58661D01*
X-105232Y-57893D01*
X-105667Y-57242D01*
X-106318Y-56807D01*
X-107087Y-56654D01*
D02*
G37*
G36*
X-131890Y-55867D02*
X-132658Y-56020D01*
X-133309Y-56455D01*
X-133744Y-57106D01*
X-133897Y-57874D01*
X-133744Y-58642D01*
X-133309Y-59293D01*
X-132658Y-59728D01*
X-131890Y-59881D01*
X-131122Y-59728D01*
X-130471Y-59293D01*
X-130035Y-58642D01*
X-129883Y-57874D01*
X-130035Y-57106D01*
X-130471Y-56455D01*
X-131122Y-56020D01*
X-131890Y-55867D01*
D02*
G37*
G36*
X70866Y-72796D02*
X70098Y-72949D01*
X69447Y-73384D01*
X69012Y-74035D01*
X68859Y-74803D01*
X69012Y-75571D01*
X69447Y-76222D01*
X70098Y-76657D01*
X70866Y-76810D01*
X71634Y-76657D01*
X72285Y-76222D01*
X72720Y-75571D01*
X72873Y-74803D01*
X72720Y-74035D01*
X72285Y-73384D01*
X71634Y-72949D01*
X70866Y-72796D01*
D02*
G37*
G36*
X-68504Y-75158D02*
X-69272Y-75311D01*
X-69923Y-75746D01*
X-70358Y-76397D01*
X-70511Y-77165D01*
X-70358Y-77933D01*
X-69923Y-78585D01*
X-69272Y-79020D01*
X-68504Y-79172D01*
X-67736Y-79020D01*
X-67085Y-78585D01*
X-66650Y-77933D01*
X-66497Y-77165D01*
X-66650Y-76397D01*
X-67085Y-75746D01*
X-67736Y-75311D01*
X-68504Y-75158D01*
D02*
G37*
G36*
X27559Y-74765D02*
X26791Y-74917D01*
X26140Y-75352D01*
X25705Y-76004D01*
X25552Y-76772D01*
X25705Y-77540D01*
X26140Y-78191D01*
X26791Y-78626D01*
X27559Y-78779D01*
X28327Y-78626D01*
X28978Y-78191D01*
X29413Y-77540D01*
X29566Y-76772D01*
X29413Y-76004D01*
X28978Y-75352D01*
X28327Y-74917D01*
X27559Y-74765D01*
D02*
G37*
G36*
X-52362Y-81458D02*
X-53130Y-81610D01*
X-53781Y-82045D01*
X-54216Y-82696D01*
X-54369Y-83465D01*
X-54216Y-84233D01*
X-53781Y-84884D01*
X-53130Y-85319D01*
X-52362Y-85472D01*
X-51594Y-85319D01*
X-50943Y-84884D01*
X-50508Y-84233D01*
X-50355Y-83465D01*
X-50508Y-82696D01*
X-50943Y-82045D01*
X-51594Y-81610D01*
X-52362Y-81458D01*
D02*
G37*
G36*
X-15748Y-75552D02*
X-16516Y-75705D01*
X-17167Y-76140D01*
X-17602Y-76791D01*
X-17755Y-77559D01*
X-17602Y-78327D01*
X-17167Y-78978D01*
X-16516Y-79413D01*
X-15748Y-79566D01*
X-14980Y-79413D01*
X-14329Y-78978D01*
X-13894Y-78327D01*
X-13741Y-77559D01*
X-13894Y-76791D01*
X-14329Y-76140D01*
X-14980Y-75705D01*
X-15748Y-75552D01*
D02*
G37*
G36*
X7874Y-72796D02*
X7106Y-72949D01*
X6455Y-73384D01*
X6020Y-74035D01*
X5867Y-74803D01*
X6020Y-75571D01*
X6455Y-76222D01*
X7106Y-76657D01*
X7874Y-76810D01*
X8642Y-76657D01*
X9293Y-76222D01*
X9728Y-75571D01*
X9881Y-74803D01*
X9728Y-74035D01*
X9293Y-73384D01*
X8642Y-72949D01*
X7874Y-72796D01*
D02*
G37*
G36*
X51181D02*
X50413Y-72949D01*
X49762Y-73384D01*
X49327Y-74035D01*
X49174Y-74803D01*
X49327Y-75571D01*
X49762Y-76222D01*
X50413Y-76657D01*
X51181Y-76810D01*
X51949Y-76657D01*
X52600Y-76222D01*
X53035Y-75571D01*
X53188Y-74803D01*
X53035Y-74035D01*
X52600Y-73384D01*
X51949Y-72949D01*
X51181Y-72796D01*
D02*
G37*
G36*
X-78740D02*
X-79508Y-72949D01*
X-80159Y-73384D01*
X-80594Y-74035D01*
X-80747Y-74803D01*
X-80594Y-75571D01*
X-80159Y-76222D01*
X-79508Y-76657D01*
X-78740Y-76810D01*
X-77972Y-76657D01*
X-77321Y-76222D01*
X-76886Y-75571D01*
X-76733Y-74803D01*
X-76886Y-74035D01*
X-77321Y-73384D01*
X-77972Y-72949D01*
X-78740Y-72796D01*
D02*
G37*
G36*
X-35433D02*
X-36201Y-72949D01*
X-36852Y-73384D01*
X-37287Y-74035D01*
X-37440Y-74803D01*
X-37287Y-75571D01*
X-36852Y-76222D01*
X-36201Y-76657D01*
X-35433Y-76810D01*
X-34665Y-76657D01*
X-34014Y-76222D01*
X-33579Y-75571D01*
X-33426Y-74803D01*
X-33579Y-74035D01*
X-34014Y-73384D01*
X-34665Y-72949D01*
X-35433Y-72796D01*
D02*
G37*
G36*
X118110Y6725D02*
X116798Y6596D01*
X115537Y6213D01*
X114374Y5592D01*
X113355Y4755D01*
X112518Y3736D01*
X111897Y2574D01*
X111514Y1312D01*
X111385Y0D01*
X111514Y-1312D01*
X111897Y-2574D01*
X112518Y-3736D01*
X113355Y-4755D01*
X114374Y-5592D01*
X115537Y-6213D01*
X116798Y-6596D01*
X118110Y-6725D01*
X119422Y-6596D01*
X120684Y-6213D01*
X121847Y-5592D01*
X122866Y-4755D01*
X123702Y-3736D01*
X124324Y-2574D01*
X124706Y-1312D01*
X124836Y0D01*
X124706Y1312D01*
X124324Y2574D01*
X123702Y3736D01*
X122866Y4755D01*
X121847Y5592D01*
X120684Y6213D01*
X119422Y6596D01*
X118110Y6725D01*
D02*
G37*
G36*
X120079Y75428D02*
X119387Y75291D01*
X119078Y75084D01*
X118701Y74938D01*
X118324Y75084D01*
X118014Y75291D01*
X117323Y75428D01*
X116632Y75291D01*
X116046Y74899D01*
X115844D01*
X115258Y75291D01*
X114567Y75428D01*
X113876Y75291D01*
X113566Y75084D01*
X113189Y74938D01*
X112812Y75084D01*
X112502Y75291D01*
X111811Y75428D01*
X111120Y75291D01*
X110534Y74899D01*
X110332D01*
X109746Y75291D01*
X109055Y75428D01*
X108364Y75291D01*
X107778Y74899D01*
X107386Y74313D01*
X107249Y73622D01*
X107386Y72931D01*
X107778Y72345D01*
X107849Y72297D01*
Y71797D01*
X107778Y71750D01*
X107386Y71164D01*
X107249Y70472D01*
X107386Y69781D01*
X107778Y69195D01*
X107849Y69148D01*
Y68648D01*
X107778Y68600D01*
X107386Y68014D01*
X107249Y67323D01*
X107386Y66632D01*
X107778Y66045D01*
X108364Y65654D01*
X109055Y65517D01*
X109746Y65654D01*
X110056Y65861D01*
X110534Y66045D01*
X111120Y65654D01*
X111811Y65517D01*
X112502Y65654D01*
X112812Y65861D01*
X113189Y66007D01*
X113566Y65861D01*
X113876Y65654D01*
X114567Y65517D01*
X115258Y65654D01*
X115844Y66045D01*
X116046D01*
X116632Y65654D01*
X117323Y65517D01*
X118014Y65654D01*
X118324Y65861D01*
X118701Y66007D01*
X119078Y65861D01*
X119387Y65654D01*
X120079Y65517D01*
X120770Y65654D01*
X121356Y66045D01*
X121748Y66632D01*
X121885Y67323D01*
X121748Y68014D01*
X121356Y68600D01*
X121285Y68648D01*
Y69148D01*
X121356Y69195D01*
X121748Y69781D01*
X121885Y70472D01*
X121748Y71164D01*
X121356Y71750D01*
X121285Y71797D01*
Y72297D01*
X121356Y72345D01*
X121748Y72931D01*
X121885Y73622D01*
X121748Y74313D01*
X121356Y74899D01*
X120770Y75291D01*
X120079Y75428D01*
D02*
G37*
G36*
X50394Y88621D02*
X49626Y88468D01*
X48974Y88033D01*
X48539Y87382D01*
X48387Y86614D01*
X48539Y85846D01*
X48974Y85195D01*
X49626Y84760D01*
X50394Y84607D01*
X51162Y84760D01*
X51813Y85195D01*
X52248Y85846D01*
X52401Y86614D01*
X52248Y87382D01*
X51813Y88033D01*
X51162Y88468D01*
X50394Y88621D01*
D02*
G37*
G36*
X-69685Y72479D02*
X-70453Y72327D01*
X-71104Y71892D01*
X-71539Y71241D01*
X-71692Y70472D01*
X-71539Y69704D01*
X-71104Y69053D01*
X-70453Y68618D01*
X-69685Y68465D01*
X-68917Y68618D01*
X-68266Y69053D01*
X-67831Y69704D01*
X-67678Y70472D01*
X-67831Y71241D01*
X-68266Y71892D01*
X-68917Y72327D01*
X-69685Y72479D01*
D02*
G37*
G36*
X-94587Y75531D02*
X-95355Y75378D01*
X-96006Y74943D01*
X-96441Y74292D01*
X-96594Y73524D01*
X-96441Y72756D01*
X-96006Y72104D01*
X-95355Y71669D01*
X-94587Y71517D01*
X-93818Y71669D01*
X-93167Y72104D01*
X-92732Y72756D01*
X-92580Y73524D01*
X-92732Y74292D01*
X-93167Y74943D01*
X-93818Y75378D01*
X-94587Y75531D01*
D02*
G37*
G36*
X-11417Y98070D02*
X-12185Y97917D01*
X-12836Y97482D01*
X-13272Y96831D01*
X-13424Y96063D01*
X-13272Y95295D01*
X-12836Y94644D01*
X-12185Y94209D01*
X-11417Y94056D01*
X-10649Y94209D01*
X-9998Y94644D01*
X-9563Y95295D01*
X-9410Y96063D01*
X-9563Y96831D01*
X-9998Y97482D01*
X-10649Y97917D01*
X-11417Y98070D01*
D02*
G37*
G36*
X11417Y100432D02*
X10649Y100279D01*
X9998Y99844D01*
X9563Y99193D01*
X9410Y98425D01*
X9563Y97657D01*
X9998Y97006D01*
X10649Y96571D01*
X11417Y96418D01*
X12185Y96571D01*
X12836Y97006D01*
X13272Y97657D01*
X13424Y98425D01*
X13272Y99193D01*
X12836Y99844D01*
X12185Y100279D01*
X11417Y100432D01*
D02*
G37*
G36*
X90945Y89802D02*
X90177Y89650D01*
X89526Y89214D01*
X89091Y88563D01*
X88938Y87795D01*
X89091Y87027D01*
X89526Y86376D01*
X90177Y85941D01*
X90945Y85788D01*
X91713Y85941D01*
X92364Y86376D01*
X92799Y87027D01*
X92952Y87795D01*
X92799Y88563D01*
X92364Y89214D01*
X91713Y89650D01*
X90945Y89802D01*
D02*
G37*
G36*
X117323D02*
X116555Y89650D01*
X115904Y89214D01*
X115469Y88563D01*
X115316Y87795D01*
X115469Y87027D01*
X115904Y86376D01*
X116555Y85941D01*
X117323Y85788D01*
X118091Y85941D01*
X118742Y86376D01*
X119177Y87027D01*
X119330Y87795D01*
X119177Y88563D01*
X118742Y89214D01*
X118091Y89650D01*
X117323Y89802D01*
D02*
G37*
G36*
X83071Y66574D02*
X82303Y66421D01*
X81652Y65986D01*
X81217Y65335D01*
X81064Y64567D01*
X81217Y63799D01*
X81652Y63148D01*
X82303Y62713D01*
X83071Y62560D01*
X83839Y62713D01*
X84490Y63148D01*
X84925Y63799D01*
X85078Y64567D01*
X84925Y65335D01*
X84490Y65986D01*
X83839Y66421D01*
X83071Y66574D01*
D02*
G37*
G36*
X-126772Y59487D02*
X-127540Y59335D01*
X-128191Y58899D01*
X-128626Y58248D01*
X-128779Y57480D01*
X-128626Y56712D01*
X-128191Y56061D01*
X-127540Y55626D01*
X-126772Y55473D01*
X-126004Y55626D01*
X-125352Y56061D01*
X-124917Y56712D01*
X-124765Y57480D01*
X-124917Y58248D01*
X-125352Y58899D01*
X-126004Y59335D01*
X-126772Y59487D01*
D02*
G37*
G36*
X93799Y60373D02*
X93031Y60220D01*
X92380Y59785D01*
X91945Y59134D01*
X91792Y58366D01*
X91945Y57598D01*
X92380Y56947D01*
X93031Y56512D01*
X93799Y56359D01*
X94567Y56512D01*
X95218Y56947D01*
X95653Y57598D01*
X95806Y58366D01*
X95653Y59134D01*
X95218Y59785D01*
X94567Y60220D01*
X93799Y60373D01*
D02*
G37*
G36*
X-91732Y50432D02*
X-92500Y50279D01*
X-93151Y49844D01*
X-93587Y49193D01*
X-93739Y48425D01*
X-93587Y47657D01*
X-93151Y47006D01*
X-92500Y46571D01*
X-91732Y46418D01*
X-90964Y46571D01*
X-90313Y47006D01*
X-89878Y47657D01*
X-89725Y48425D01*
X-89878Y49193D01*
X-90313Y49844D01*
X-90964Y50279D01*
X-91732Y50432D01*
D02*
G37*
G36*
X127953Y55157D02*
X127185Y55004D01*
X126533Y54569D01*
X126099Y53918D01*
X125946Y53150D01*
X126099Y52381D01*
X126533Y51730D01*
X126906Y51482D01*
Y50880D01*
X126533Y50632D01*
X126099Y49981D01*
X125946Y49213D01*
X126099Y48445D01*
X126533Y47793D01*
X127185Y47358D01*
X127953Y47205D01*
X128721Y47358D01*
X129372Y47793D01*
X129807Y48445D01*
X129960Y49213D01*
X129807Y49981D01*
X129372Y50632D01*
X129000Y50880D01*
Y51482D01*
X129372Y51730D01*
X129807Y52381D01*
X129960Y53150D01*
X129807Y53918D01*
X129372Y54569D01*
X128721Y55004D01*
X127953Y55157D01*
D02*
G37*
G36*
X-127165Y64212D02*
X-127933Y64059D01*
X-128585Y63624D01*
X-129020Y62973D01*
X-129172Y62205D01*
X-129020Y61437D01*
X-128585Y60786D01*
X-127933Y60350D01*
X-127165Y60198D01*
X-126397Y60350D01*
X-125746Y60786D01*
X-125311Y61437D01*
X-125158Y62205D01*
X-125311Y62973D01*
X-125746Y63624D01*
X-126397Y64059D01*
X-127165Y64212D01*
D02*
G37*
G36*
X134252Y64999D02*
X133484Y64846D01*
X132833Y64411D01*
X132398Y63760D01*
X132245Y62992D01*
X132398Y62224D01*
X132833Y61573D01*
X133484Y61138D01*
X134252Y60985D01*
X135020Y61138D01*
X135671Y61573D01*
X136106Y62224D01*
X136259Y62992D01*
X136106Y63760D01*
X135671Y64411D01*
X135020Y64846D01*
X134252Y64999D01*
D02*
G37*
G36*
X21654Y61850D02*
X20886Y61697D01*
X20234Y61262D01*
X19799Y60611D01*
X19647Y59842D01*
X19799Y59074D01*
X20234Y58423D01*
X20886Y57988D01*
X21654Y57836D01*
X22422Y57988D01*
X23073Y58423D01*
X23508Y59074D01*
X23661Y59842D01*
X23508Y60611D01*
X23073Y61262D01*
X22422Y61697D01*
X21654Y61850D01*
D02*
G37*
G36*
X62992Y63031D02*
X62224Y62878D01*
X61573Y62443D01*
X61138Y61792D01*
X60985Y61024D01*
X61138Y60256D01*
X61573Y59604D01*
X62224Y59169D01*
X62992Y59017D01*
X63760Y59169D01*
X64411Y59604D01*
X64846Y60256D01*
X64999Y61024D01*
X64846Y61792D01*
X64411Y62443D01*
X63760Y62878D01*
X62992Y63031D01*
D02*
G37*
G36*
X75000Y112918D02*
X74255Y112820D01*
X73561Y112533D01*
X72964Y112075D01*
X72507Y111479D01*
X72219Y110784D01*
X72121Y110039D01*
X72219Y109294D01*
X72507Y108600D01*
X72964Y108004D01*
X73561Y107546D01*
X74255Y107258D01*
X75000Y107160D01*
X75745Y107258D01*
X76439Y107546D01*
X77036Y108004D01*
X77493Y108600D01*
X77781Y109294D01*
X77879Y110039D01*
X77781Y110784D01*
X77493Y111479D01*
X77036Y112075D01*
X76439Y112533D01*
X75745Y112820D01*
X75000Y112918D01*
D02*
G37*
G36*
X85000D02*
X84255Y112820D01*
X83561Y112533D01*
X82964Y112075D01*
X82507Y111479D01*
X82219Y110784D01*
X82121Y110039D01*
X82219Y109294D01*
X82507Y108600D01*
X82964Y108004D01*
X83561Y107546D01*
X84255Y107258D01*
X85000Y107160D01*
X85745Y107258D01*
X86440Y107546D01*
X87036Y108004D01*
X87493Y108600D01*
X87781Y109294D01*
X87879Y110039D01*
X87781Y110784D01*
X87493Y111479D01*
X87036Y112075D01*
X86440Y112533D01*
X85745Y112820D01*
X85000Y112918D01*
D02*
G37*
G36*
X55000D02*
X54255Y112820D01*
X53561Y112533D01*
X52964Y112075D01*
X52507Y111479D01*
X52219Y110784D01*
X52121Y110039D01*
X52219Y109294D01*
X52507Y108600D01*
X52964Y108004D01*
X53561Y107546D01*
X54255Y107258D01*
X55000Y107160D01*
X55745Y107258D01*
X56440Y107546D01*
X57036Y108004D01*
X57493Y108600D01*
X57781Y109294D01*
X57879Y110039D01*
X57781Y110784D01*
X57493Y111479D01*
X57036Y112075D01*
X56440Y112533D01*
X55745Y112820D01*
X55000Y112918D01*
D02*
G37*
G36*
X65000D02*
X64255Y112820D01*
X63560Y112533D01*
X62964Y112075D01*
X62507Y111479D01*
X62219Y110784D01*
X62121Y110039D01*
X62219Y109294D01*
X62507Y108600D01*
X62964Y108004D01*
X63560Y107546D01*
X64255Y107258D01*
X65000Y107160D01*
X65745Y107258D01*
X66439Y107546D01*
X67036Y108004D01*
X67493Y108600D01*
X67781Y109294D01*
X67879Y110039D01*
X67781Y110784D01*
X67493Y111479D01*
X67036Y112075D01*
X66439Y112533D01*
X65745Y112820D01*
X65000Y112918D01*
D02*
G37*
G36*
X-59055Y134289D02*
X-60186Y134141D01*
X-61239Y133704D01*
X-62144Y133010D01*
X-62838Y132105D01*
X-63274Y131052D01*
X-63423Y129921D01*
Y122047D01*
X-63274Y120917D01*
X-62838Y119863D01*
X-62144Y118958D01*
X-61239Y118264D01*
X-60186Y117828D01*
X-59055Y117679D01*
X-57925Y117828D01*
X-56871Y118264D01*
X-55966Y118958D01*
X-55272Y119863D01*
X-54836Y120917D01*
X-54687Y122047D01*
Y129921D01*
X-54836Y131052D01*
X-55272Y132105D01*
X-55966Y133010D01*
X-56871Y133704D01*
X-57925Y134141D01*
X-59055Y134289D01*
D02*
G37*
G36*
X59055D02*
X57925Y134141D01*
X56871Y133704D01*
X55966Y133010D01*
X55272Y132105D01*
X54836Y131052D01*
X54687Y129921D01*
Y122047D01*
X54836Y120917D01*
X55272Y119863D01*
X55966Y118958D01*
X56871Y118264D01*
X57925Y117828D01*
X59055Y117679D01*
X60186Y117828D01*
X61239Y118264D01*
X62144Y118958D01*
X62838Y119863D01*
X63274Y120917D01*
X63423Y122047D01*
Y129921D01*
X63274Y131052D01*
X62838Y132105D01*
X62144Y133010D01*
X61239Y133704D01*
X60186Y134141D01*
X59055Y134289D01*
D02*
G37*
G36*
X95000Y112918D02*
X94255Y112820D01*
X93560Y112533D01*
X92964Y112075D01*
X92507Y111479D01*
X92219Y110784D01*
X92121Y110039D01*
X92219Y109294D01*
X92507Y108600D01*
X92964Y108004D01*
X93560Y107546D01*
X94255Y107258D01*
X95000Y107160D01*
X95745Y107258D01*
X96439Y107546D01*
X97036Y108004D01*
X97493Y108600D01*
X97781Y109294D01*
X97879Y110039D01*
X97781Y110784D01*
X97493Y111479D01*
X97036Y112075D01*
X96439Y112533D01*
X95745Y112820D01*
X95000Y112918D01*
D02*
G37*
G36*
X-73622Y129164D02*
X-74857Y129043D01*
X-76044Y128682D01*
X-77139Y128098D01*
X-78098Y127310D01*
X-78885Y126351D01*
X-79470Y125257D01*
X-79830Y124069D01*
X-79952Y122835D01*
X-79830Y121600D01*
X-79470Y120412D01*
X-78885Y119318D01*
X-78098Y118359D01*
X-77139Y117572D01*
X-76044Y116987D01*
X-74857Y116627D01*
X-73622Y116505D01*
X-72387Y116627D01*
X-71200Y116987D01*
X-70105Y117572D01*
X-69146Y118359D01*
X-68359Y119318D01*
X-67774Y120412D01*
X-67414Y121600D01*
X-67292Y122835D01*
X-67414Y124069D01*
X-67774Y125257D01*
X-68359Y126351D01*
X-69146Y127310D01*
X-70105Y128098D01*
X-71200Y128682D01*
X-72387Y129043D01*
X-73622Y129164D01*
D02*
G37*
G36*
X35000Y112918D02*
X34255Y112820D01*
X33560Y112533D01*
X32964Y112075D01*
X32507Y111479D01*
X32219Y110784D01*
X32121Y110039D01*
X32219Y109294D01*
X32507Y108600D01*
X32964Y108004D01*
X33560Y107546D01*
X34255Y107258D01*
X35000Y107160D01*
X35745Y107258D01*
X36439Y107546D01*
X37036Y108004D01*
X37493Y108600D01*
X37781Y109294D01*
X37879Y110039D01*
X37781Y110784D01*
X37493Y111479D01*
X37036Y112075D01*
X36439Y112533D01*
X35745Y112820D01*
X35000Y112918D01*
D02*
G37*
G36*
X-85000D02*
X-85745Y112820D01*
X-86440Y112533D01*
X-87036Y112075D01*
X-87493Y111479D01*
X-87781Y110784D01*
X-87879Y110039D01*
X-87781Y109294D01*
X-87493Y108600D01*
X-87036Y108004D01*
X-86440Y107546D01*
X-85745Y107258D01*
X-85000Y107160D01*
X-84255Y107258D01*
X-83561Y107546D01*
X-82964Y108004D01*
X-82507Y108600D01*
X-82219Y109294D01*
X-82121Y110039D01*
X-82219Y110784D01*
X-82507Y111479D01*
X-82964Y112075D01*
X-83561Y112533D01*
X-84255Y112820D01*
X-85000Y112918D01*
D02*
G37*
G36*
X-75000D02*
X-75745Y112820D01*
X-76439Y112533D01*
X-77036Y112075D01*
X-77493Y111479D01*
X-77781Y110784D01*
X-77879Y110039D01*
X-77781Y109294D01*
X-77493Y108600D01*
X-77036Y108004D01*
X-76439Y107546D01*
X-75745Y107258D01*
X-75000Y107160D01*
X-74255Y107258D01*
X-73561Y107546D01*
X-72964Y108004D01*
X-72507Y108600D01*
X-72219Y109294D01*
X-72121Y110039D01*
X-72219Y110784D01*
X-72507Y111479D01*
X-72964Y112075D01*
X-73561Y112533D01*
X-74255Y112820D01*
X-75000Y112918D01*
D02*
G37*
G36*
X-16535Y102795D02*
X-17303Y102642D01*
X-17955Y102207D01*
X-18390Y101556D01*
X-18542Y100787D01*
X-18390Y100019D01*
X-17955Y99368D01*
X-17303Y98933D01*
X-16535Y98780D01*
X-15767Y98933D01*
X-15116Y99368D01*
X-14681Y100019D01*
X-14528Y100787D01*
X-14681Y101556D01*
X-15116Y102207D01*
X-15767Y102642D01*
X-16535Y102795D01*
D02*
G37*
G36*
X-95000Y112918D02*
X-95745Y112820D01*
X-96439Y112533D01*
X-97036Y112075D01*
X-97493Y111479D01*
X-97781Y110784D01*
X-97879Y110039D01*
X-97781Y109294D01*
X-97493Y108600D01*
X-97036Y108004D01*
X-96439Y107546D01*
X-95745Y107258D01*
X-95000Y107160D01*
X-94255Y107258D01*
X-93560Y107546D01*
X-92964Y108004D01*
X-92507Y108600D01*
X-92219Y109294D01*
X-92121Y110039D01*
X-92219Y110784D01*
X-92507Y111479D01*
X-92964Y112075D01*
X-93560Y112533D01*
X-94255Y112820D01*
X-95000Y112918D01*
D02*
G37*
G36*
X5000D02*
X4255Y112820D01*
X3560Y112533D01*
X2964Y112075D01*
X2507Y111479D01*
X2219Y110784D01*
X2121Y110039D01*
X2219Y109294D01*
X2507Y108600D01*
X2964Y108004D01*
X3560Y107546D01*
X4255Y107258D01*
X5000Y107160D01*
X5745Y107258D01*
X6440Y107546D01*
X7036Y108004D01*
X7493Y108600D01*
X7781Y109294D01*
X7879Y110039D01*
X7781Y110784D01*
X7493Y111479D01*
X7036Y112075D01*
X6440Y112533D01*
X5745Y112820D01*
X5000Y112918D01*
D02*
G37*
G36*
X25000D02*
X24255Y112820D01*
X23561Y112533D01*
X22964Y112075D01*
X22507Y111479D01*
X22219Y110784D01*
X22121Y110039D01*
X22219Y109294D01*
X22507Y108600D01*
X22964Y108004D01*
X23561Y107546D01*
X24255Y107258D01*
X25000Y107160D01*
X25745Y107258D01*
X26439Y107546D01*
X27036Y108004D01*
X27493Y108600D01*
X27781Y109294D01*
X27879Y110039D01*
X27781Y110784D01*
X27493Y111479D01*
X27036Y112075D01*
X26439Y112533D01*
X25745Y112820D01*
X25000Y112918D01*
D02*
G37*
G36*
X-65000D02*
X-65745Y112820D01*
X-66439Y112533D01*
X-67036Y112075D01*
X-67493Y111479D01*
X-67781Y110784D01*
X-67879Y110039D01*
X-67781Y109294D01*
X-67493Y108600D01*
X-67036Y108004D01*
X-66439Y107546D01*
X-65745Y107258D01*
X-65000Y107160D01*
X-64255Y107258D01*
X-63560Y107546D01*
X-62964Y108004D01*
X-62507Y108600D01*
X-62219Y109294D01*
X-62121Y110039D01*
X-62219Y110784D01*
X-62507Y111479D01*
X-62964Y112075D01*
X-63560Y112533D01*
X-64255Y112820D01*
X-65000Y112918D01*
D02*
G37*
G36*
X-25000D02*
X-25745Y112820D01*
X-26439Y112533D01*
X-27036Y112075D01*
X-27493Y111479D01*
X-27781Y110784D01*
X-27879Y110039D01*
X-27781Y109294D01*
X-27493Y108600D01*
X-27036Y108004D01*
X-26439Y107546D01*
X-25745Y107258D01*
X-25000Y107160D01*
X-24255Y107258D01*
X-23561Y107546D01*
X-22964Y108004D01*
X-22507Y108600D01*
X-22219Y109294D01*
X-22121Y110039D01*
X-22219Y110784D01*
X-22507Y111479D01*
X-22964Y112075D01*
X-23561Y112533D01*
X-24255Y112820D01*
X-25000Y112918D01*
D02*
G37*
G36*
X-98622Y47086D02*
X-99390Y46933D01*
X-100041Y46498D01*
X-100476Y45847D01*
X-100629Y45079D01*
X-100476Y44311D01*
X-100041Y43659D01*
X-99390Y43224D01*
X-98622Y43072D01*
X-97854Y43224D01*
X-97203Y43659D01*
X-96768Y44311D01*
X-96615Y45079D01*
X-96768Y45847D01*
X-97203Y46498D01*
X-97854Y46933D01*
X-98622Y47086D01*
D02*
G37*
G36*
X-132677Y14212D02*
X-133445Y14059D01*
X-134096Y13624D01*
X-134531Y12973D01*
X-134684Y12205D01*
X-134531Y11437D01*
X-134096Y10785D01*
X-133445Y10350D01*
X-132677Y10198D01*
X-131909Y10350D01*
X-131258Y10785D01*
X-130823Y11437D01*
X-130670Y12205D01*
X-130823Y12973D01*
X-131258Y13624D01*
X-131909Y14059D01*
X-132677Y14212D01*
D02*
G37*
G36*
X-129134Y18542D02*
X-129902Y18390D01*
X-130553Y17955D01*
X-130988Y17303D01*
X-131141Y16535D01*
X-130988Y15767D01*
X-130553Y15116D01*
X-129902Y14681D01*
X-129134Y14528D01*
X-128366Y14681D01*
X-127715Y15116D01*
X-127280Y15767D01*
X-127127Y16535D01*
X-127280Y17303D01*
X-127715Y17955D01*
X-128366Y18390D01*
X-129134Y18542D01*
D02*
G37*
G36*
X-138976Y12243D02*
X-139744Y12090D01*
X-140396Y11655D01*
X-140831Y11004D01*
X-140983Y10236D01*
X-140831Y9468D01*
X-140396Y8817D01*
X-139744Y8382D01*
X-138976Y8229D01*
X-138208Y8382D01*
X-137557Y8817D01*
X-137122Y9468D01*
X-136969Y10236D01*
X-137122Y11004D01*
X-137557Y11655D01*
X-138208Y12090D01*
X-138976Y12243D01*
D02*
G37*
G36*
X64961Y13424D02*
X64193Y13272D01*
X63541Y12836D01*
X63106Y12185D01*
X62954Y11417D01*
X63106Y10649D01*
X63541Y9998D01*
X64193Y9563D01*
X64961Y9410D01*
X65729Y9563D01*
X66380Y9998D01*
X66815Y10649D01*
X66968Y11417D01*
X66815Y12185D01*
X66380Y12836D01*
X65729Y13272D01*
X64961Y13424D01*
D02*
G37*
G36*
X-22441Y20511D02*
X-23209Y20358D01*
X-23860Y19923D01*
X-24295Y19272D01*
X-24448Y18504D01*
X-24295Y17736D01*
X-23860Y17085D01*
X-23209Y16650D01*
X-22441Y16497D01*
X-21673Y16650D01*
X-21022Y17085D01*
X-20587Y17736D01*
X-20434Y18504D01*
X-20587Y19272D01*
X-21022Y19923D01*
X-21673Y20358D01*
X-22441Y20511D01*
D02*
G37*
G36*
X94193Y21003D02*
X93425Y20850D01*
X92774Y20415D01*
X92339Y19764D01*
X92186Y18996D01*
X92339Y18228D01*
X92774Y17577D01*
X93425Y17142D01*
X94193Y16989D01*
X94961Y17142D01*
X95612Y17577D01*
X96047Y18228D01*
X96200Y18996D01*
X96047Y19764D01*
X95612Y20415D01*
X94961Y20850D01*
X94193Y21003D01*
D02*
G37*
G36*
X138189Y18936D02*
X137421Y18783D01*
X136770Y18348D01*
X136335Y17697D01*
X136182Y16929D01*
X136335Y16161D01*
X136770Y15510D01*
X137421Y15075D01*
X138189Y14922D01*
X138957Y15075D01*
X139608Y15510D01*
X140043Y16161D01*
X140196Y16929D01*
X140043Y17697D01*
X139608Y18348D01*
X138957Y18783D01*
X138189Y18936D01*
D02*
G37*
G36*
X-115748Y23661D02*
X-116516Y23508D01*
X-117167Y23073D01*
X-117602Y22422D01*
X-117755Y21654D01*
X-117602Y20886D01*
X-117167Y20234D01*
X-116659Y19895D01*
X-116713Y19374D01*
X-117364Y18939D01*
X-117799Y18288D01*
X-117952Y17520D01*
X-117799Y16752D01*
X-117364Y16101D01*
X-116713Y15665D01*
X-115945Y15513D01*
X-115177Y15665D01*
X-114526Y16101D01*
X-114091Y16752D01*
X-113938Y17520D01*
X-114091Y18288D01*
X-114526Y18939D01*
X-115034Y19279D01*
X-114980Y19799D01*
X-114329Y20234D01*
X-113894Y20886D01*
X-113741Y21654D01*
X-113894Y22422D01*
X-114329Y23073D01*
X-114980Y23508D01*
X-115748Y23661D01*
D02*
G37*
G36*
X-50787Y11456D02*
X-51556Y11303D01*
X-52207Y10868D01*
X-52642Y10217D01*
X-52794Y9449D01*
X-52642Y8681D01*
X-52207Y8030D01*
X-51556Y7594D01*
X-50787Y7442D01*
X-50019Y7594D01*
X-49368Y8030D01*
X-48933Y8681D01*
X-48780Y9449D01*
X-48933Y10217D01*
X-49368Y10868D01*
X-50019Y11303D01*
X-50787Y11456D01*
D02*
G37*
G36*
X134252Y4369D02*
X133484Y4216D01*
X132833Y3781D01*
X132398Y3130D01*
X132245Y2362D01*
X132398Y1594D01*
X132833Y943D01*
X133484Y508D01*
X134252Y355D01*
X135020Y508D01*
X135671Y943D01*
X136106Y1594D01*
X136259Y2362D01*
X136106Y3130D01*
X135671Y3781D01*
X135020Y4216D01*
X134252Y4369D01*
D02*
G37*
G36*
X-146063Y6731D02*
X-146831Y6579D01*
X-147482Y6144D01*
X-147917Y5492D01*
X-148070Y4724D01*
X-147917Y3956D01*
X-147482Y3305D01*
X-146831Y2870D01*
X-146063Y2717D01*
X-145295Y2870D01*
X-144644Y3305D01*
X-144209Y3956D01*
X-144056Y4724D01*
X-144209Y5492D01*
X-144644Y6144D01*
X-145295Y6579D01*
X-146063Y6731D01*
D02*
G37*
G36*
X29528Y-1536D02*
X28760Y-1689D01*
X28108Y-2124D01*
X27673Y-2775D01*
X27520Y-3543D01*
X27673Y-4311D01*
X28108Y-4963D01*
X28760Y-5398D01*
X29528Y-5550D01*
X30296Y-5398D01*
X30947Y-4963D01*
X31382Y-4311D01*
X31535Y-3543D01*
X31382Y-2775D01*
X30947Y-2124D01*
X30296Y-1689D01*
X29528Y-1536D01*
D02*
G37*
G36*
X84646Y432D02*
X83878Y280D01*
X83227Y-156D01*
X82791Y-807D01*
X82639Y-1575D01*
X82791Y-2343D01*
X83227Y-2994D01*
X83878Y-3429D01*
X84646Y-3582D01*
X85414Y-3429D01*
X86065Y-2994D01*
X86500Y-2343D01*
X86653Y-1575D01*
X86500Y-807D01*
X86065Y-156D01*
X85414Y280D01*
X84646Y432D01*
D02*
G37*
G36*
X-131496Y7913D02*
X-132264Y7760D01*
X-132915Y7325D01*
X-133350Y6674D01*
X-133503Y5906D01*
X-133350Y5137D01*
X-132915Y4486D01*
X-132264Y4051D01*
X-131496Y3898D01*
X-130728Y4051D01*
X-130077Y4486D01*
X-129642Y5137D01*
X-129489Y5906D01*
X-129642Y6674D01*
X-130077Y7325D01*
X-130728Y7760D01*
X-131496Y7913D01*
D02*
G37*
G36*
X138976Y8306D02*
X138208Y8153D01*
X137557Y7718D01*
X137122Y7067D01*
X136969Y6299D01*
X137122Y5531D01*
X137557Y4880D01*
X138208Y4445D01*
X138976Y4292D01*
X139744Y4445D01*
X140396Y4880D01*
X140831Y5531D01*
X140983Y6299D01*
X140831Y7067D01*
X140396Y7718D01*
X139744Y8153D01*
X138976Y8306D01*
D02*
G37*
G36*
X-59842Y6731D02*
X-60611Y6579D01*
X-61262Y6144D01*
X-61697Y5492D01*
X-61850Y4724D01*
X-61697Y3956D01*
X-61262Y3305D01*
X-60611Y2870D01*
X-59842Y2717D01*
X-59074Y2870D01*
X-58423Y3305D01*
X-57988Y3956D01*
X-57836Y4724D01*
X-57988Y5492D01*
X-58423Y6144D01*
X-59074Y6579D01*
X-59842Y6731D01*
D02*
G37*
G36*
X74803D02*
X74035Y6579D01*
X73384Y6144D01*
X72949Y5492D01*
X72796Y4724D01*
X72949Y3956D01*
X73384Y3305D01*
X74035Y2870D01*
X74803Y2717D01*
X75571Y2870D01*
X76222Y3305D01*
X76657Y3956D01*
X76810Y4724D01*
X76657Y5492D01*
X76222Y6144D01*
X75571Y6579D01*
X74803Y6731D01*
D02*
G37*
G36*
X120472Y33696D02*
X119781Y33559D01*
X119195Y33167D01*
X118994D01*
X118408Y33559D01*
X117717Y33696D01*
X117025Y33559D01*
X116716Y33352D01*
X116339Y33206D01*
X115961Y33352D01*
X115652Y33559D01*
X114961Y33696D01*
X114269Y33559D01*
X113683Y33167D01*
X113482D01*
X112896Y33559D01*
X112205Y33696D01*
X111513Y33559D01*
X111204Y33352D01*
X110827Y33206D01*
X110450Y33352D01*
X110140Y33559D01*
X109449Y33696D01*
X108758Y33559D01*
X108171Y33167D01*
X107780Y32581D01*
X107642Y31890D01*
X107780Y31198D01*
X108171Y30612D01*
X108243Y30565D01*
Y30065D01*
X108171Y30018D01*
X107780Y29431D01*
X107642Y28740D01*
X107780Y28049D01*
X108169Y27467D01*
X108243Y27350D01*
Y26981D01*
X108169Y26864D01*
X107780Y26282D01*
X107642Y25591D01*
X107780Y24899D01*
X108171Y24313D01*
X108758Y23922D01*
X109449Y23784D01*
X110140Y23922D01*
X110450Y24128D01*
X110927Y24313D01*
X111513Y23922D01*
X112205Y23784D01*
X112896Y23922D01*
X113206Y24128D01*
X113583Y24274D01*
X113960Y24128D01*
X114269Y23922D01*
X114961Y23784D01*
X115652Y23922D01*
X116238Y24313D01*
X116439D01*
X117025Y23922D01*
X117717Y23784D01*
X118408Y23922D01*
X118717Y24128D01*
X119095Y24274D01*
X119472Y24128D01*
X119781Y23922D01*
X120472Y23784D01*
X121164Y23922D01*
X121750Y24313D01*
X122141Y24899D01*
X122279Y25591D01*
X122141Y26282D01*
X121753Y26864D01*
X121679Y26981D01*
Y27350D01*
X121753Y27467D01*
X122141Y28049D01*
X122279Y28740D01*
X122141Y29431D01*
X121750Y30018D01*
X121679Y30065D01*
Y30565D01*
X121750Y30612D01*
X122141Y31198D01*
X122279Y31890D01*
X122141Y32581D01*
X121750Y33167D01*
X121164Y33559D01*
X120472Y33696D01*
D02*
G37*
G36*
X-78740Y50361D02*
X-80128Y50178D01*
X-81421Y49643D01*
X-82531Y48791D01*
X-83383Y47680D01*
X-83918Y46387D01*
X-84101Y45000D01*
X-83918Y43613D01*
X-83383Y42320D01*
X-82531Y41209D01*
X-81421Y40357D01*
X-80128Y39822D01*
X-78740Y39639D01*
X-77353Y39822D01*
X-76060Y40357D01*
X-74950Y41209D01*
X-74098Y42320D01*
X-73562Y43613D01*
X-73379Y45000D01*
X-73562Y46387D01*
X-74098Y47680D01*
X-74950Y48791D01*
X-76060Y49643D01*
X-77353Y50178D01*
X-78740Y50361D01*
D02*
G37*
G36*
X81102Y34291D02*
X80334Y34138D01*
X79683Y33703D01*
X79248Y33051D01*
X79095Y32283D01*
X79248Y31515D01*
X79683Y30864D01*
X80334Y30429D01*
X81102Y30276D01*
X81870Y30429D01*
X82522Y30864D01*
X82957Y31515D01*
X83109Y32283D01*
X82957Y33051D01*
X82522Y33703D01*
X81870Y34138D01*
X81102Y34291D01*
D02*
G37*
G36*
X51181Y35078D02*
X50413Y34925D01*
X49762Y34490D01*
X49327Y33839D01*
X49174Y33071D01*
X49327Y32303D01*
X49762Y31652D01*
X50413Y31217D01*
X51181Y31064D01*
X51949Y31217D01*
X52600Y31652D01*
X53035Y32303D01*
X53188Y33071D01*
X53035Y33839D01*
X52600Y34490D01*
X51949Y34925D01*
X51181Y35078D01*
D02*
G37*
G36*
X-129528Y50826D02*
X-130296Y50673D01*
X-130947Y50238D01*
X-131382Y49587D01*
X-131535Y48819D01*
X-131382Y48051D01*
X-130947Y47400D01*
X-130710Y47242D01*
X-130702Y47032D01*
X-130772Y46681D01*
X-131341Y46301D01*
X-131775Y45650D01*
X-131928Y44882D01*
X-131775Y44114D01*
X-131341Y43463D01*
X-130689Y43028D01*
X-129921Y42875D01*
X-129153Y43028D01*
X-128502Y43463D01*
X-128067Y44114D01*
X-127914Y44882D01*
X-128067Y45650D01*
X-128502Y46301D01*
X-128738Y46459D01*
X-128747Y46669D01*
X-128677Y47019D01*
X-128108Y47400D01*
X-127673Y48051D01*
X-127521Y48819D01*
X-127673Y49587D01*
X-128108Y50238D01*
X-128760Y50673D01*
X-129528Y50826D01*
D02*
G37*
G36*
X116535Y46889D02*
X115767Y46736D01*
X115116Y46301D01*
X114681Y45650D01*
X114528Y44882D01*
X114681Y44114D01*
X115116Y43463D01*
X115767Y43028D01*
X116535Y42875D01*
X117304Y43028D01*
X117955Y43463D01*
X118390Y44114D01*
X118543Y44882D01*
X118390Y45650D01*
X117955Y46301D01*
X117304Y46736D01*
X116535Y46889D01*
D02*
G37*
G36*
X78740Y50361D02*
X77353Y50178D01*
X76060Y49643D01*
X74950Y48791D01*
X74098Y47680D01*
X73562Y46387D01*
X73379Y45000D01*
X73562Y43613D01*
X74098Y42320D01*
X74950Y41209D01*
X76060Y40357D01*
X77353Y39822D01*
X78740Y39639D01*
X80128Y39822D01*
X81421Y40357D01*
X82531Y41209D01*
X83383Y42320D01*
X83918Y43613D01*
X84101Y45000D01*
X83918Y46387D01*
X83383Y47680D01*
X82531Y48791D01*
X81421Y49643D01*
X80128Y50178D01*
X78740Y50361D01*
D02*
G37*
G36*
X-94882Y44527D02*
X-95650Y44374D01*
X-96301Y43939D01*
X-96736Y43288D01*
X-96889Y42520D01*
X-96736Y41752D01*
X-96301Y41100D01*
X-95650Y40665D01*
X-94882Y40513D01*
X-94114Y40665D01*
X-93463Y41100D01*
X-93028Y41752D01*
X-92875Y42520D01*
X-93028Y43288D01*
X-93463Y43939D01*
X-94114Y44374D01*
X-94882Y44527D01*
D02*
G37*
G36*
X-37795Y29960D02*
X-38563Y29807D01*
X-39215Y29372D01*
X-39358Y29157D01*
X-46850D01*
X-46850Y29157D01*
X-47311Y29065D01*
X-47702Y28804D01*
X-47702Y28804D01*
X-89828Y-13322D01*
X-90089Y-13712D01*
X-90181Y-14173D01*
X-90181Y-14173D01*
Y-25092D01*
X-101245Y-36156D01*
X-101506Y-36547D01*
X-101598Y-37008D01*
X-101598Y-37008D01*
Y-51587D01*
X-101813Y-51730D01*
X-102248Y-52381D01*
X-102401Y-53150D01*
X-102248Y-53918D01*
X-101813Y-54569D01*
X-101162Y-55004D01*
X-100394Y-55157D01*
X-99626Y-55004D01*
X-98975Y-54569D01*
X-98539Y-53918D01*
X-98387Y-53150D01*
X-98539Y-52381D01*
X-98975Y-51730D01*
X-99190Y-51587D01*
Y-37507D01*
X-88125Y-26442D01*
X-87864Y-26051D01*
X-87772Y-25591D01*
X-87772Y-25591D01*
Y-21937D01*
X-87272Y-21767D01*
X-87036Y-22075D01*
X-86440Y-22533D01*
X-85745Y-22820D01*
X-85000Y-22918D01*
X-84255Y-22820D01*
X-83561Y-22533D01*
X-82964Y-22075D01*
X-82507Y-21479D01*
X-82219Y-20785D01*
X-82121Y-20039D01*
X-82219Y-19294D01*
X-82507Y-18600D01*
X-82964Y-18004D01*
X-83561Y-17546D01*
X-84255Y-17258D01*
X-85000Y-17160D01*
X-85745Y-17258D01*
X-86440Y-17546D01*
X-87036Y-18004D01*
X-87272Y-18312D01*
X-87772Y-18142D01*
Y-14672D01*
X-46352Y26748D01*
X-39358D01*
X-39215Y26534D01*
X-38563Y26098D01*
X-37795Y25946D01*
X-37027Y26098D01*
X-36376Y26534D01*
X-35941Y27185D01*
X-35788Y27953D01*
X-35941Y28721D01*
X-36376Y29372D01*
X-37027Y29807D01*
X-37795Y29960D01*
D02*
G37*
G36*
X-116929Y28779D02*
X-117697Y28626D01*
X-118348Y28191D01*
X-118783Y27540D01*
X-118936Y26772D01*
X-118783Y26004D01*
X-118348Y25352D01*
X-117697Y24917D01*
X-116929Y24765D01*
X-116161Y24917D01*
X-115510Y25352D01*
X-115075Y26004D01*
X-114922Y26772D01*
X-115075Y27540D01*
X-115510Y28191D01*
X-116161Y28626D01*
X-116929Y28779D01*
D02*
G37*
G36*
X-146260Y30157D02*
X-147028Y30004D01*
X-147679Y29569D01*
X-148114Y28918D01*
X-148267Y28150D01*
X-148114Y27382D01*
X-147679Y26730D01*
X-147028Y26295D01*
X-146260Y26142D01*
X-145492Y26295D01*
X-144841Y26730D01*
X-144405Y27382D01*
X-144253Y28150D01*
X-144405Y28918D01*
X-144841Y29569D01*
X-145492Y30004D01*
X-146260Y30157D01*
D02*
G37*
G36*
X138189Y26810D02*
X137421Y26657D01*
X136770Y26222D01*
X136335Y25571D01*
X136182Y24803D01*
X136335Y24035D01*
X136770Y23384D01*
X137421Y22949D01*
X138189Y22796D01*
X138957Y22949D01*
X139608Y23384D01*
X140043Y24035D01*
X140196Y24803D01*
X140043Y25571D01*
X139608Y26222D01*
X138957Y26657D01*
X138189Y26810D01*
D02*
G37*
G36*
X84646Y27991D02*
X83878Y27839D01*
X83227Y27404D01*
X82791Y26752D01*
X82639Y25984D01*
X82791Y25216D01*
X83227Y24565D01*
X83878Y24130D01*
X84646Y23977D01*
X85414Y24130D01*
X86065Y24565D01*
X86500Y25216D01*
X86653Y25984D01*
X86500Y26752D01*
X86065Y27404D01*
X85414Y27839D01*
X84646Y27991D01*
D02*
G37*
G36*
X-129528Y41771D02*
X-130296Y41618D01*
X-130947Y41183D01*
X-131382Y40532D01*
X-131535Y39764D01*
X-131382Y38996D01*
X-130947Y38345D01*
X-130296Y37909D01*
X-129528Y37757D01*
X-128760Y37909D01*
X-128108Y38345D01*
X-127965Y38559D01*
X-104042D01*
X-96051Y30569D01*
X-96102Y30315D01*
X-95949Y29547D01*
X-95514Y28896D01*
X-94863Y28461D01*
X-94095Y28308D01*
X-93326Y28461D01*
X-92675Y28896D01*
X-92240Y29547D01*
X-92087Y30315D01*
X-92240Y31083D01*
X-92675Y31734D01*
X-93326Y32169D01*
X-94095Y32322D01*
X-94348Y32272D01*
X-102692Y40615D01*
X-103083Y40876D01*
X-103543Y40968D01*
X-103543Y40968D01*
X-127965D01*
X-128108Y41183D01*
X-128760Y41618D01*
X-129528Y41771D01*
D02*
G37*
G36*
X-4331Y32322D02*
X-5099Y32169D01*
X-5750Y31734D01*
X-6185Y31083D01*
X-6338Y30315D01*
X-6185Y29547D01*
X-5750Y28896D01*
X-5099Y28461D01*
X-4331Y28308D01*
X-3563Y28461D01*
X-2912Y28896D01*
X-2476Y29547D01*
X-2324Y30315D01*
X-2476Y31083D01*
X-2912Y31734D01*
X-3563Y32169D01*
X-4331Y32322D01*
D02*
G37*
G36*
X-113386Y31928D02*
X-114154Y31776D01*
X-114805Y31341D01*
X-115240Y30689D01*
X-115393Y29921D01*
X-115240Y29153D01*
X-114805Y28502D01*
X-114154Y28067D01*
X-113386Y27914D01*
X-112618Y28067D01*
X-111967Y28502D01*
X-111531Y29153D01*
X-111379Y29921D01*
X-111531Y30689D01*
X-111967Y31341D01*
X-112618Y31776D01*
X-113386Y31928D01*
D02*
G37*
G36*
X-129528Y36259D02*
X-130296Y36106D01*
X-130947Y35671D01*
X-131382Y35020D01*
X-131535Y34252D01*
X-131382Y33484D01*
X-130947Y32833D01*
X-130801Y32735D01*
X-130906Y32204D01*
X-131083Y32169D01*
X-131734Y31734D01*
X-132169Y31083D01*
X-132322Y30315D01*
X-132169Y29547D01*
X-131734Y28896D01*
X-131083Y28461D01*
X-130315Y28308D01*
X-129547Y28461D01*
X-128896Y28896D01*
X-128461Y29547D01*
X-128308Y30315D01*
X-128461Y31083D01*
X-128896Y31734D01*
X-129042Y31832D01*
X-128936Y32362D01*
X-128760Y32398D01*
X-128108Y32833D01*
X-127673Y33484D01*
X-127521Y34252D01*
X-127673Y35020D01*
X-128108Y35671D01*
X-128760Y36106D01*
X-129528Y36259D01*
D02*
G37*
%LPD*%
D26*
X-100394Y-53150D02*
Y-37008D01*
X-88976Y-25591D01*
Y-14173D01*
X-46850Y27953D01*
X-37795D01*
X-129528Y39764D02*
X-103543D01*
X-94095Y30315D01*
D29*
X-120079Y-53150D02*
Y-20079D01*
X-116142Y-53150D02*
Y-22047D01*
X-112205Y-53150D02*
Y-23228D01*
X-116142Y-22047D02*
X-40157Y53937D01*
X-112205Y-23228D02*
X-30315Y58661D01*
X-9843Y103543D02*
Y117323D01*
X19685Y105905D02*
Y119291D01*
X49606Y104724D02*
X53543Y100787D01*
X101969D01*
X106693Y96063D01*
Y92126D02*
Y96063D01*
X19685Y105905D02*
X29134Y96457D01*
X94488D01*
X99606Y91339D01*
Y43307D02*
Y91339D01*
Y43307D02*
X103543D01*
X-9843Y103543D02*
X1969Y91732D01*
X74410D01*
X88976Y77165D01*
Y9843D02*
Y77165D01*
Y9843D02*
X110236Y-11417D01*
X116929D01*
X47244Y125591D02*
X49606Y123228D01*
Y104724D02*
Y123228D01*
X15748Y123228D02*
X19685Y119291D01*
X15748Y123228D02*
Y126772D01*
Y133071D01*
X-15748Y128347D02*
Y132677D01*
Y123228D02*
X-9843Y117323D01*
X-15748Y123228D02*
Y128347D01*
X-49606Y118504D02*
Y118898D01*
X-120079Y-20079D02*
X-50000Y50000D01*
Y118110D01*
X-49606Y118504D01*
X-40157Y53937D02*
Y117717D01*
X-30315Y58661D02*
Y117717D01*
X-40157D02*
X-39764Y118110D01*
X-39370D01*
X-30315Y117717D02*
X-29921Y118110D01*
X-29528D01*
X47244Y126772D02*
Y133503D01*
Y125591D02*
Y126772D01*
D35*
X126378Y76791D02*
D03*
X135335Y32776D02*
D03*
X146850Y-1575D02*
D03*
X-101181Y-64991D02*
D03*
X-100394Y-53150D02*
D03*
X-37795Y27953D02*
D03*
X-129528Y39764D02*
D03*
X-94095Y30315D02*
D03*
X-120079Y-53150D02*
D03*
X-116142D02*
D03*
X-112205D02*
D03*
X106693Y96063D02*
D03*
Y92126D02*
D03*
X99606Y43307D02*
D03*
X103543D02*
D03*
X110236Y-11417D02*
D03*
X116929D02*
D03*
X15748Y126772D02*
D03*
Y133071D02*
D03*
X-15748Y132677D02*
D03*
Y128347D02*
D03*
X-49606Y118504D02*
D03*
X-39370Y118110D02*
D03*
X-29528D02*
D03*
X47244Y133503D02*
D03*
Y126772D02*
D03*
X105531Y-71673D02*
D03*
X105512Y-44882D02*
D03*
D36*
X-41339Y143701D02*
D03*
X-37402D02*
D03*
X-33465D02*
D03*
X-29528D02*
D03*
X-25591D02*
D03*
X-21654D02*
D03*
Y129921D02*
D03*
Y125984D02*
D03*
Y122835D02*
D03*
X-25591D02*
D03*
X-29134D02*
D03*
X-33465D02*
D03*
X-41339Y139764D02*
D03*
Y135827D02*
D03*
Y131890D02*
D03*
Y127953D02*
D03*
Y124016D02*
D03*
X-9843D02*
D03*
Y127953D02*
D03*
Y131890D02*
D03*
Y135827D02*
D03*
Y139764D02*
D03*
X-1969Y122835D02*
D03*
X2362D02*
D03*
X5906D02*
D03*
X9843D02*
D03*
Y125984D02*
D03*
Y129921D02*
D03*
Y143701D02*
D03*
X5906D02*
D03*
X1969D02*
D03*
X-1969D02*
D03*
X-5906D02*
D03*
X-9843D02*
D03*
X21654Y124016D02*
D03*
Y127953D02*
D03*
Y131890D02*
D03*
Y135827D02*
D03*
Y139764D02*
D03*
X29528Y122835D02*
D03*
X33858D02*
D03*
X37402D02*
D03*
X41339D02*
D03*
Y125984D02*
D03*
Y129921D02*
D03*
Y143701D02*
D03*
X37402D02*
D03*
X33465D02*
D03*
X29528D02*
D03*
X25591D02*
D03*
X21654D02*
D03*
X114567Y70472D02*
D03*
Y73622D02*
D03*
X117323D02*
D03*
X109055D02*
D03*
X111811D02*
D03*
Y70472D02*
D03*
X109055D02*
D03*
X117323D02*
D03*
X117323Y67323D02*
D03*
X120079D02*
D03*
X111811Y67323D02*
D03*
X114567Y67323D02*
D03*
X114961Y25591D02*
D03*
X112205Y25591D02*
D03*
X120472Y25591D02*
D03*
X117717D02*
D03*
X117717Y28740D02*
D03*
X109449D02*
D03*
X112205D02*
D03*
Y31890D02*
D03*
X109449D02*
D03*
X117717D02*
D03*
X114961D02*
D03*
Y28740D02*
D03*
X135433Y-26378D02*
D03*
X132677Y-26378D02*
D03*
X140945Y-26378D02*
D03*
X138189D02*
D03*
X138189Y-23228D02*
D03*
X129921D02*
D03*
X132677D02*
D03*
Y-20079D02*
D03*
X129921D02*
D03*
X138189D02*
D03*
X135433D02*
D03*
Y-23228D02*
D03*
X-21654Y137795D02*
D03*
X9843D02*
D03*
X40945D02*
D03*
X-33496Y131858D02*
D03*
X-29496D02*
D03*
X-31496Y130858D02*
D03*
X-33496Y128858D02*
D03*
X-29496D02*
D03*
X-31496Y127858D02*
D03*
Y139858D02*
D03*
X-33496Y138858D02*
D03*
X-29496D02*
D03*
X-31496Y136858D02*
D03*
X-33496Y135858D02*
D03*
X-29496D02*
D03*
X-31496Y133858D02*
D03*
X0D02*
D03*
X2000Y135858D02*
D03*
X-2000D02*
D03*
X0Y136858D02*
D03*
X2000Y138858D02*
D03*
X-2000D02*
D03*
X0Y139858D02*
D03*
Y127858D02*
D03*
X2000Y128858D02*
D03*
X-2000D02*
D03*
X0Y130858D02*
D03*
X2000Y131858D02*
D03*
X-2000D02*
D03*
X29496D02*
D03*
X33496D02*
D03*
X31496Y130858D02*
D03*
X29496Y128858D02*
D03*
X33496D02*
D03*
X31496Y127858D02*
D03*
Y139858D02*
D03*
X29496Y138858D02*
D03*
X33496D02*
D03*
X31496Y136858D02*
D03*
X29496Y135858D02*
D03*
X33496D02*
D03*
X31496Y133858D02*
D03*
M02*
