G04*
G04 #@! TF.GenerationSoftware,Altium Limited,CircuitStudio,1.5.2 (30)*
G04*
G04 Layer_Color=13948096*
%FSLAX25Y25*%
%MOIN*%
G70*
G01*
G75*
%ADD42C,0.00591*%
D42*
X-130400Y-62473D02*
X-125946Y-58019D01*
X-128173Y-54122D02*
X-124832Y-57463D01*
X-57463Y-124832D02*
X-54122Y-128173D01*
X-124276Y-42430D02*
X-112583Y-30737D01*
X-30737Y-112583D01*
X-42430Y-124276D02*
X-30737Y-112583D01*
X-125197Y-25198D02*
X-127821D01*
X-126509D01*
Y-29134D01*
X-129133D02*
Y-25198D01*
X-131100D01*
X-131756Y-25854D01*
Y-27166D01*
X-131100Y-27822D01*
X-129133D01*
X-135692Y-25198D02*
X-133068D01*
Y-27166D01*
X-134380Y-26510D01*
X-135036D01*
X-135692Y-27166D01*
Y-28478D01*
X-135036Y-29134D01*
X-133724D01*
X-133068Y-28478D01*
X-139628Y-29134D02*
X-137004D01*
X-139628Y-26510D01*
Y-25854D01*
X-138972Y-25198D01*
X-137660D01*
X-137004Y-25854D01*
X-143564Y-29134D02*
X-140940D01*
X-143564Y-26510D01*
Y-25854D01*
X-142908Y-25198D01*
X-141596D01*
X-140940Y-25854D01*
X79134Y-44096D02*
X76510D01*
X77822D01*
Y-48031D01*
X75198D02*
Y-44096D01*
X73230D01*
X72574Y-44752D01*
Y-46064D01*
X73230Y-46720D01*
X75198D01*
X68639Y-44096D02*
X71262D01*
Y-46064D01*
X69950Y-45408D01*
X69295D01*
X68639Y-46064D01*
Y-47376D01*
X69295Y-48031D01*
X70606D01*
X71262Y-47376D01*
X67327Y-44752D02*
X66671Y-44096D01*
X65359D01*
X64703Y-44752D01*
Y-47376D01*
X65359Y-48031D01*
X66671D01*
X67327Y-47376D01*
Y-44752D01*
X63391D02*
X62735Y-44096D01*
X61423D01*
X60767Y-44752D01*
Y-47376D01*
X61423Y-48031D01*
X62735D01*
X63391Y-47376D01*
Y-44752D01*
X36220Y-49214D02*
X33597D01*
X34909D01*
Y-53150D01*
X32285D02*
Y-49214D01*
X30317D01*
X29661Y-49870D01*
Y-51182D01*
X30317Y-51838D01*
X32285D01*
X25725Y-49214D02*
X28349D01*
Y-51182D01*
X27037Y-50526D01*
X26381D01*
X25725Y-51182D01*
Y-52494D01*
X26381Y-53150D01*
X27693D01*
X28349Y-52494D01*
X24413Y-49870D02*
X23757Y-49214D01*
X22445D01*
X21789Y-49870D01*
Y-52494D01*
X22445Y-53150D01*
X23757D01*
X24413Y-52494D01*
Y-49870D01*
X20478Y-53150D02*
X19166D01*
X19821D01*
Y-49214D01*
X20478Y-49870D01*
X-6693Y-54332D02*
X-9317D01*
X-8005D01*
Y-58268D01*
X-10629D02*
Y-54332D01*
X-12596D01*
X-13252Y-54988D01*
Y-56300D01*
X-12596Y-56956D01*
X-10629D01*
X-17188Y-54332D02*
X-14564D01*
Y-56300D01*
X-15876Y-55644D01*
X-16532D01*
X-17188Y-56300D01*
Y-57612D01*
X-16532Y-58268D01*
X-15220D01*
X-14564Y-57612D01*
X-18500Y-54988D02*
X-19156Y-54332D01*
X-20468D01*
X-21124Y-54988D01*
Y-57612D01*
X-20468Y-58268D01*
X-19156D01*
X-18500Y-57612D01*
Y-54988D01*
X-25060Y-58268D02*
X-22436D01*
X-25060Y-55644D01*
Y-54988D01*
X-24404Y-54332D01*
X-23092D01*
X-22436Y-54988D01*
X-13780Y-118112D02*
X-16403D01*
X-15091D01*
Y-122047D01*
X-17715D02*
Y-118112D01*
X-19683D01*
X-20339Y-118767D01*
Y-120079D01*
X-19683Y-120735D01*
X-17715D01*
X-24275Y-118112D02*
X-21651D01*
Y-120079D01*
X-22963Y-119423D01*
X-23619D01*
X-24275Y-120079D01*
Y-121391D01*
X-23619Y-122047D01*
X-22307D01*
X-21651Y-121391D01*
X-25587Y-118767D02*
X-26243Y-118112D01*
X-27555D01*
X-28211Y-118767D01*
Y-121391D01*
X-27555Y-122047D01*
X-26243D01*
X-25587Y-121391D01*
Y-118767D01*
X-29522D02*
X-30178Y-118112D01*
X-31490D01*
X-32146Y-118767D01*
Y-119423D01*
X-31490Y-120079D01*
X-30834D01*
X-31490D01*
X-32146Y-120735D01*
Y-121391D01*
X-31490Y-122047D01*
X-30178D01*
X-29522Y-121391D01*
X-11811Y-125986D02*
X-14435D01*
X-13123D01*
Y-129921D01*
X-15747D02*
Y-125986D01*
X-17715D01*
X-18371Y-126641D01*
Y-127953D01*
X-17715Y-128609D01*
X-15747D01*
X-22306Y-125986D02*
X-19682D01*
Y-127953D01*
X-20994Y-127297D01*
X-21650D01*
X-22306Y-127953D01*
Y-129265D01*
X-21650Y-129921D01*
X-20338D01*
X-19682Y-129265D01*
X-23618Y-126641D02*
X-24274Y-125986D01*
X-25586D01*
X-26242Y-126641D01*
Y-129265D01*
X-25586Y-129921D01*
X-24274D01*
X-23618Y-129265D01*
Y-126641D01*
X-29522Y-129921D02*
Y-125986D01*
X-27554Y-127953D01*
X-30178D01*
X52756Y-24017D02*
X50132D01*
X51444D01*
Y-27953D01*
X48820D02*
Y-24017D01*
X46852D01*
X46196Y-24673D01*
Y-25985D01*
X46852Y-26641D01*
X48820D01*
X42261Y-24017D02*
X44884D01*
Y-25985D01*
X43573Y-25329D01*
X42917D01*
X42261Y-25985D01*
Y-27297D01*
X42917Y-27953D01*
X44229D01*
X44884Y-27297D01*
X40949Y-24673D02*
X40293Y-24017D01*
X38981D01*
X38325Y-24673D01*
Y-27297D01*
X38981Y-27953D01*
X40293D01*
X40949Y-27297D01*
Y-24673D01*
X34389Y-24017D02*
X37013D01*
Y-25985D01*
X35701Y-25329D01*
X35045D01*
X34389Y-25985D01*
Y-27297D01*
X35045Y-27953D01*
X36357D01*
X37013Y-27297D01*
X1575Y-131497D02*
X-1049D01*
X263D01*
Y-135433D01*
X-2361D02*
Y-131497D01*
X-4329D01*
X-4985Y-132153D01*
Y-133465D01*
X-4329Y-134121D01*
X-2361D01*
X-8920Y-131497D02*
X-6297D01*
Y-133465D01*
X-7609Y-132809D01*
X-8264D01*
X-8920Y-133465D01*
Y-134777D01*
X-8264Y-135433D01*
X-6953D01*
X-6297Y-134777D01*
X-10232Y-132153D02*
X-10888Y-131497D01*
X-12200D01*
X-12856Y-132153D01*
Y-134777D01*
X-12200Y-135433D01*
X-10888D01*
X-10232Y-134777D01*
Y-132153D01*
X-16792Y-131497D02*
X-15480Y-132153D01*
X-14168Y-133465D01*
Y-134777D01*
X-14824Y-135433D01*
X-16136D01*
X-16792Y-134777D01*
Y-134121D01*
X-16136Y-133465D01*
X-14168D01*
X2362Y-138190D02*
X-262D01*
X1050D01*
Y-142126D01*
X-1574D02*
Y-138190D01*
X-3541D01*
X-4197Y-138846D01*
Y-140158D01*
X-3541Y-140814D01*
X-1574D01*
X-8133Y-138190D02*
X-5509D01*
Y-140158D01*
X-6821Y-139502D01*
X-7477D01*
X-8133Y-140158D01*
Y-141470D01*
X-7477Y-142126D01*
X-6165D01*
X-5509Y-141470D01*
X-9445Y-138846D02*
X-10101Y-138190D01*
X-11413D01*
X-12069Y-138846D01*
Y-141470D01*
X-11413Y-142126D01*
X-10101D01*
X-9445Y-141470D01*
Y-138846D01*
X-13381Y-138190D02*
X-16005D01*
Y-138846D01*
X-13381Y-141470D01*
Y-142126D01*
X2756Y-144883D02*
X132D01*
X1444D01*
Y-148819D01*
X-1180D02*
Y-144883D01*
X-3148D01*
X-3804Y-145539D01*
Y-146851D01*
X-3148Y-147507D01*
X-1180D01*
X-7739Y-144883D02*
X-5116D01*
Y-146851D01*
X-6427Y-146195D01*
X-7083D01*
X-7739Y-146851D01*
Y-148163D01*
X-7083Y-148819D01*
X-5771D01*
X-5116Y-148163D01*
X-9051Y-145539D02*
X-9707Y-144883D01*
X-11019D01*
X-11675Y-145539D01*
Y-148163D01*
X-11019Y-148819D01*
X-9707D01*
X-9051Y-148163D01*
Y-145539D01*
X-12987D02*
X-13643Y-144883D01*
X-14955D01*
X-15611Y-145539D01*
Y-146195D01*
X-14955Y-146851D01*
X-15611Y-147507D01*
Y-148163D01*
X-14955Y-148819D01*
X-13643D01*
X-12987Y-148163D01*
Y-147507D01*
X-13643Y-146851D01*
X-12987Y-146195D01*
Y-145539D01*
X-13643Y-146851D02*
X-14955D01*
X-27559Y-86222D02*
X-30183D01*
X-28871D01*
Y-90158D01*
X-31495D02*
Y-86222D01*
X-33463D01*
X-34119Y-86878D01*
Y-88190D01*
X-33463Y-88846D01*
X-31495D01*
X-38054Y-86222D02*
X-35430D01*
Y-88190D01*
X-36742Y-87534D01*
X-37398D01*
X-38054Y-88190D01*
Y-89502D01*
X-37398Y-90158D01*
X-36086D01*
X-35430Y-89502D01*
X-39366Y-86878D02*
X-40022Y-86222D01*
X-41334D01*
X-41990Y-86878D01*
Y-89502D01*
X-41334Y-90158D01*
X-40022D01*
X-39366Y-89502D01*
Y-86878D01*
X-43302Y-89502D02*
X-43958Y-90158D01*
X-45270D01*
X-45926Y-89502D01*
Y-86878D01*
X-45270Y-86222D01*
X-43958D01*
X-43302Y-86878D01*
Y-87534D01*
X-43958Y-88190D01*
X-45926D01*
X-55118Y-62600D02*
X-57742D01*
X-56430D01*
Y-66535D01*
X-59054D02*
Y-62600D01*
X-61022D01*
X-61678Y-63256D01*
Y-64568D01*
X-61022Y-65223D01*
X-59054D01*
X-65613Y-62600D02*
X-62990D01*
Y-64568D01*
X-64302Y-63912D01*
X-64957D01*
X-65613Y-64568D01*
Y-65879D01*
X-64957Y-66535D01*
X-63646D01*
X-62990Y-65879D01*
X-66925Y-66535D02*
X-68237D01*
X-67581D01*
Y-62600D01*
X-66925Y-63256D01*
X-70205D02*
X-70861Y-62600D01*
X-72173D01*
X-72829Y-63256D01*
Y-65879D01*
X-72173Y-66535D01*
X-70861D01*
X-70205Y-65879D01*
Y-63256D01*
X104724Y-35041D02*
X102101D01*
X103412D01*
Y-38976D01*
X100789D02*
Y-35041D01*
X98821D01*
X98165Y-35697D01*
Y-37009D01*
X98821Y-37664D01*
X100789D01*
X94229Y-35041D02*
X96853D01*
Y-37009D01*
X95541Y-36353D01*
X94885D01*
X94229Y-37009D01*
Y-38320D01*
X94885Y-38976D01*
X96197D01*
X96853Y-38320D01*
X92917Y-38976D02*
X91605D01*
X92261D01*
Y-35041D01*
X92917Y-35697D01*
X89637Y-38976D02*
X88326D01*
X88981D01*
Y-35041D01*
X89637Y-35697D01*
X87795Y76770D02*
X85172D01*
X86483D01*
Y72835D01*
X83859D02*
Y76770D01*
X81892D01*
X81236Y76114D01*
Y74803D01*
X81892Y74147D01*
X83859D01*
X77300Y76770D02*
X79924D01*
Y74803D01*
X78612Y75459D01*
X77956D01*
X77300Y74803D01*
Y73491D01*
X77956Y72835D01*
X79268D01*
X79924Y73491D01*
X75988Y72835D02*
X74676D01*
X75332D01*
Y76770D01*
X75988Y76114D01*
X70085Y72835D02*
X72708D01*
X70085Y75459D01*
Y76114D01*
X70740Y76770D01*
X72052D01*
X72708Y76114D01*
X138189Y47243D02*
X135565D01*
X136877D01*
Y43307D01*
X134253D02*
Y47243D01*
X132285D01*
X131629Y46587D01*
Y45275D01*
X132285Y44619D01*
X134253D01*
X127694Y47243D02*
X130317D01*
Y45275D01*
X129006Y45931D01*
X128350D01*
X127694Y45275D01*
Y43963D01*
X128350Y43307D01*
X129662D01*
X130317Y43963D01*
X126382Y43307D02*
X125070D01*
X125726D01*
Y47243D01*
X126382Y46587D01*
X123102D02*
X122446Y47243D01*
X121134D01*
X120478Y46587D01*
Y45931D01*
X121134Y45275D01*
X121790D01*
X121134D01*
X120478Y44619D01*
Y43963D01*
X121134Y43307D01*
X122446D01*
X123102Y43963D01*
X-107874Y50786D02*
X-110498D01*
X-109186D01*
Y46850D01*
X-111810D02*
Y50786D01*
X-113778D01*
X-114434Y50130D01*
Y48818D01*
X-113778Y48162D01*
X-111810D01*
X-118369Y50786D02*
X-115745D01*
Y48818D01*
X-117057Y49474D01*
X-117713D01*
X-118369Y48818D01*
Y47506D01*
X-117713Y46850D01*
X-116402D01*
X-115745Y47506D01*
X-119681Y46850D02*
X-120993D01*
X-120337D01*
Y50786D01*
X-119681Y50130D01*
X-124929Y46850D02*
Y50786D01*
X-122961Y48818D01*
X-125585D01*
X111024Y86219D02*
X108400D01*
X109712D01*
Y82284D01*
X107088D02*
Y86219D01*
X105120D01*
X104464Y85563D01*
Y84251D01*
X105120Y83595D01*
X107088D01*
X100528Y86219D02*
X103152D01*
Y84251D01*
X101840Y84907D01*
X101184D01*
X100528Y84251D01*
Y82939D01*
X101184Y82284D01*
X102496D01*
X103152Y82939D01*
X99216Y82284D02*
X97904D01*
X98560D01*
Y86219D01*
X99216Y85563D01*
X93313Y86219D02*
X95937D01*
Y84251D01*
X94625Y84907D01*
X93969D01*
X93313Y84251D01*
Y82939D01*
X93969Y82284D01*
X95281D01*
X95937Y82939D01*
X54724Y118896D02*
X52101D01*
X53412D01*
Y114961D01*
X50789D02*
Y118896D01*
X48821D01*
X48165Y118240D01*
Y116929D01*
X48821Y116272D01*
X50789D01*
X44229Y118896D02*
X46853D01*
Y116929D01*
X45541Y117584D01*
X44885D01*
X44229Y116929D01*
Y115617D01*
X44885Y114961D01*
X46197D01*
X46853Y115617D01*
X42917Y114961D02*
X41605D01*
X42261D01*
Y118896D01*
X42917Y118240D01*
X37014Y118896D02*
X38326Y118240D01*
X39637Y116929D01*
Y115617D01*
X38982Y114961D01*
X37670D01*
X37014Y115617D01*
Y116272D01*
X37670Y116929D01*
X39637D01*
X-105905Y39369D02*
X-108529D01*
X-107217D01*
Y35433D01*
X-109841D02*
Y39369D01*
X-111809D01*
X-112465Y38713D01*
Y37401D01*
X-111809Y36745D01*
X-109841D01*
X-116401Y39369D02*
X-113777D01*
Y37401D01*
X-115089Y38057D01*
X-115745D01*
X-116401Y37401D01*
Y36089D01*
X-115745Y35433D01*
X-114433D01*
X-113777Y36089D01*
X-117713Y35433D02*
X-119025D01*
X-118369D01*
Y39369D01*
X-117713Y38713D01*
X-120993Y39369D02*
X-123616D01*
Y38713D01*
X-120993Y36089D01*
Y35433D01*
X-131102Y31495D02*
X-133726D01*
X-132414D01*
Y27559D01*
X-135038D02*
Y31495D01*
X-137006D01*
X-137662Y30839D01*
Y29527D01*
X-137006Y28871D01*
X-135038D01*
X-141598Y31495D02*
X-138974D01*
Y29527D01*
X-140286Y30183D01*
X-140942D01*
X-141598Y29527D01*
Y28215D01*
X-140942Y27559D01*
X-139630D01*
X-138974Y28215D01*
X-142910Y27559D02*
X-144221D01*
X-143565D01*
Y31495D01*
X-142910Y30839D01*
X-146189D02*
X-146845Y31495D01*
X-148157D01*
X-148813Y30839D01*
Y30183D01*
X-148157Y29527D01*
X-148813Y28871D01*
Y28215D01*
X-148157Y27559D01*
X-146845D01*
X-146189Y28215D01*
Y28871D01*
X-146845Y29527D01*
X-146189Y30183D01*
Y30839D01*
X-146845Y29527D02*
X-148157D01*
X-131890Y18896D02*
X-134514D01*
X-133202D01*
Y14961D01*
X-135826D02*
Y18896D01*
X-137793D01*
X-138449Y18240D01*
Y16928D01*
X-137793Y16273D01*
X-135826D01*
X-142385Y18896D02*
X-139761D01*
Y16928D01*
X-141073Y17584D01*
X-141729D01*
X-142385Y16928D01*
Y15617D01*
X-141729Y14961D01*
X-140417D01*
X-139761Y15617D01*
X-143697Y14961D02*
X-145009D01*
X-144353D01*
Y18896D01*
X-143697Y18240D01*
X-146977Y15617D02*
X-147633Y14961D01*
X-148945D01*
X-149601Y15617D01*
Y18240D01*
X-148945Y18896D01*
X-147633D01*
X-146977Y18240D01*
Y17584D01*
X-147633Y16928D01*
X-149601D01*
X12598Y118109D02*
X9975D01*
X11287D01*
Y114173D01*
X8663D02*
Y118109D01*
X6695D01*
X6039Y117453D01*
Y116141D01*
X6695Y115485D01*
X8663D01*
X2103Y118109D02*
X4727D01*
Y116141D01*
X3415Y116797D01*
X2759D01*
X2103Y116141D01*
Y114829D01*
X2759Y114173D01*
X4071D01*
X4727Y114829D01*
X-1833Y114173D02*
X791D01*
X-1833Y116797D01*
Y117453D01*
X-1177Y118109D01*
X135D01*
X791Y117453D01*
X-3145D02*
X-3801Y118109D01*
X-5112D01*
X-5768Y117453D01*
Y114829D01*
X-5112Y114173D01*
X-3801D01*
X-3145Y114829D01*
Y117453D01*
X-18504Y118109D02*
X-21128D01*
X-19816D01*
Y114173D01*
X-22440D02*
Y118109D01*
X-24408D01*
X-25063Y117453D01*
Y116141D01*
X-24408Y115485D01*
X-22440D01*
X-28999Y118109D02*
X-26375D01*
Y116141D01*
X-27687Y116797D01*
X-28343D01*
X-28999Y116141D01*
Y114829D01*
X-28343Y114173D01*
X-27031D01*
X-26375Y114829D01*
X-32935Y114173D02*
X-30311D01*
X-32935Y116797D01*
Y117453D01*
X-32279Y118109D01*
X-30967D01*
X-30311Y117453D01*
X-34247Y114173D02*
X-35559D01*
X-34903D01*
Y118109D01*
X-34247Y117453D01*
M02*
