G04*
G04 #@! TF.GenerationSoftware,Altium Limited,CircuitStudio,1.5.2 (30)*
G04*
G04 Layer_Physical_Order=1*
G04 Layer_Color=11767835*
%FSLAX25Y25*%
%MOIN*%
G70*
G01*
G75*
G04:AMPARAMS|DCode=10|XSize=61.02mil|YSize=23.62mil|CornerRadius=5.91mil|HoleSize=0mil|Usage=FLASHONLY|Rotation=270.000|XOffset=0mil|YOffset=0mil|HoleType=Round|Shape=RoundedRectangle|*
%AMROUNDEDRECTD10*
21,1,0.06102,0.01181,0,0,270.0*
21,1,0.04921,0.02362,0,0,270.0*
1,1,0.01181,-0.00591,-0.02461*
1,1,0.01181,-0.00591,0.02461*
1,1,0.01181,0.00591,0.02461*
1,1,0.01181,0.00591,-0.02461*
%
%ADD10ROUNDEDRECTD10*%
%ADD11R,0.13780X0.10236*%
G04:AMPARAMS|DCode=12|XSize=24mil|YSize=8mil|CornerRadius=2mil|HoleSize=0mil|Usage=FLASHONLY|Rotation=90.000|XOffset=0mil|YOffset=0mil|HoleType=Round|Shape=RoundedRectangle|*
%AMROUNDEDRECTD12*
21,1,0.02400,0.00400,0,0,90.0*
21,1,0.02000,0.00800,0,0,90.0*
1,1,0.00400,0.00200,0.01000*
1,1,0.00400,0.00200,-0.01000*
1,1,0.00400,-0.00200,-0.01000*
1,1,0.00400,-0.00200,0.01000*
%
%ADD12ROUNDEDRECTD12*%
%ADD13R,0.05700X0.03700*%
G04:AMPARAMS|DCode=14|XSize=23.62mil|YSize=23.62mil|CornerRadius=5.91mil|HoleSize=0mil|Usage=FLASHONLY|Rotation=0.000|XOffset=0mil|YOffset=0mil|HoleType=Round|Shape=RoundedRectangle|*
%AMROUNDEDRECTD14*
21,1,0.02362,0.01181,0,0,0.0*
21,1,0.01181,0.02362,0,0,0.0*
1,1,0.01181,0.00591,-0.00591*
1,1,0.01181,-0.00591,-0.00591*
1,1,0.01181,-0.00591,0.00591*
1,1,0.01181,0.00591,0.00591*
%
%ADD14ROUNDEDRECTD14*%
G04:AMPARAMS|DCode=15|XSize=23.62mil|YSize=23.62mil|CornerRadius=5.91mil|HoleSize=0mil|Usage=FLASHONLY|Rotation=90.000|XOffset=0mil|YOffset=0mil|HoleType=Round|Shape=RoundedRectangle|*
%AMROUNDEDRECTD15*
21,1,0.02362,0.01181,0,0,90.0*
21,1,0.01181,0.02362,0,0,90.0*
1,1,0.01181,0.00591,0.00591*
1,1,0.01181,0.00591,-0.00591*
1,1,0.01181,-0.00591,-0.00591*
1,1,0.01181,-0.00591,0.00591*
%
%ADD15ROUNDEDRECTD15*%
G04:AMPARAMS|DCode=16|XSize=53.15mil|YSize=31.5mil|CornerRadius=7.87mil|HoleSize=0mil|Usage=FLASHONLY|Rotation=0.000|XOffset=0mil|YOffset=0mil|HoleType=Round|Shape=RoundedRectangle|*
%AMROUNDEDRECTD16*
21,1,0.05315,0.01575,0,0,0.0*
21,1,0.03740,0.03150,0,0,0.0*
1,1,0.01575,0.01870,-0.00787*
1,1,0.01575,-0.01870,-0.00787*
1,1,0.01575,-0.01870,0.00787*
1,1,0.01575,0.01870,0.00787*
%
%ADD16ROUNDEDRECTD16*%
G04:AMPARAMS|DCode=17|XSize=53.15mil|YSize=31.5mil|CornerRadius=7.87mil|HoleSize=0mil|Usage=FLASHONLY|Rotation=270.000|XOffset=0mil|YOffset=0mil|HoleType=Round|Shape=RoundedRectangle|*
%AMROUNDEDRECTD17*
21,1,0.05315,0.01575,0,0,270.0*
21,1,0.03740,0.03150,0,0,270.0*
1,1,0.01575,-0.00787,-0.01870*
1,1,0.01575,-0.00787,0.01870*
1,1,0.01575,0.00787,0.01870*
1,1,0.01575,0.00787,-0.01870*
%
%ADD17ROUNDEDRECTD17*%
G04:AMPARAMS|DCode=18|XSize=29.53mil|YSize=39.37mil|CornerRadius=7.38mil|HoleSize=0mil|Usage=FLASHONLY|Rotation=0.000|XOffset=0mil|YOffset=0mil|HoleType=Round|Shape=RoundedRectangle|*
%AMROUNDEDRECTD18*
21,1,0.02953,0.02461,0,0,0.0*
21,1,0.01476,0.03937,0,0,0.0*
1,1,0.01476,0.00738,-0.01230*
1,1,0.01476,-0.00738,-0.01230*
1,1,0.01476,-0.00738,0.01230*
1,1,0.01476,0.00738,0.01230*
%
%ADD18ROUNDEDRECTD18*%
G04:AMPARAMS|DCode=19|XSize=59.06mil|YSize=59.06mil|CornerRadius=14.76mil|HoleSize=0mil|Usage=FLASHONLY|Rotation=180.000|XOffset=0mil|YOffset=0mil|HoleType=Round|Shape=RoundedRectangle|*
%AMROUNDEDRECTD19*
21,1,0.05906,0.02953,0,0,180.0*
21,1,0.02953,0.05906,0,0,180.0*
1,1,0.02953,-0.01476,0.01476*
1,1,0.02953,0.01476,0.01476*
1,1,0.02953,0.01476,-0.01476*
1,1,0.02953,-0.01476,-0.01476*
%
%ADD19ROUNDEDRECTD19*%
G04:AMPARAMS|DCode=20|XSize=27.56mil|YSize=125.98mil|CornerRadius=6.89mil|HoleSize=0mil|Usage=FLASHONLY|Rotation=180.000|XOffset=0mil|YOffset=0mil|HoleType=Round|Shape=RoundedRectangle|*
%AMROUNDEDRECTD20*
21,1,0.02756,0.11221,0,0,180.0*
21,1,0.01378,0.12598,0,0,180.0*
1,1,0.01378,-0.00689,0.05610*
1,1,0.01378,0.00689,0.05610*
1,1,0.01378,0.00689,-0.05610*
1,1,0.01378,-0.00689,-0.05610*
%
%ADD20ROUNDEDRECTD20*%
G04:AMPARAMS|DCode=21|XSize=51.18mil|YSize=45.28mil|CornerRadius=11.32mil|HoleSize=0mil|Usage=FLASHONLY|Rotation=0.000|XOffset=0mil|YOffset=0mil|HoleType=Round|Shape=RoundedRectangle|*
%AMROUNDEDRECTD21*
21,1,0.05118,0.02264,0,0,0.0*
21,1,0.02854,0.04528,0,0,0.0*
1,1,0.02264,0.01427,-0.01132*
1,1,0.02264,-0.01427,-0.01132*
1,1,0.02264,-0.01427,0.01132*
1,1,0.02264,0.01427,0.01132*
%
%ADD21ROUNDEDRECTD21*%
G04:AMPARAMS|DCode=22|XSize=41.34mil|YSize=70.87mil|CornerRadius=10.34mil|HoleSize=0mil|Usage=FLASHONLY|Rotation=0.000|XOffset=0mil|YOffset=0mil|HoleType=Round|Shape=RoundedRectangle|*
%AMROUNDEDRECTD22*
21,1,0.04134,0.05020,0,0,0.0*
21,1,0.02067,0.07087,0,0,0.0*
1,1,0.02067,0.01034,-0.02510*
1,1,0.02067,-0.01034,-0.02510*
1,1,0.02067,-0.01034,0.02510*
1,1,0.02067,0.01034,0.02510*
%
%ADD22ROUNDEDRECTD22*%
G04:AMPARAMS|DCode=23|XSize=41.34mil|YSize=70.87mil|CornerRadius=10.34mil|HoleSize=0mil|Usage=FLASHONLY|Rotation=90.000|XOffset=0mil|YOffset=0mil|HoleType=Round|Shape=RoundedRectangle|*
%AMROUNDEDRECTD23*
21,1,0.04134,0.05020,0,0,90.0*
21,1,0.02067,0.07087,0,0,90.0*
1,1,0.02067,0.02510,0.01034*
1,1,0.02067,0.02510,-0.01034*
1,1,0.02067,-0.02510,-0.01034*
1,1,0.02067,-0.02510,0.01034*
%
%ADD23ROUNDEDRECTD23*%
G04:AMPARAMS|DCode=24|XSize=59.06mil|YSize=11.02mil|CornerRadius=2.76mil|HoleSize=0mil|Usage=FLASHONLY|Rotation=0.000|XOffset=0mil|YOffset=0mil|HoleType=Round|Shape=RoundedRectangle|*
%AMROUNDEDRECTD24*
21,1,0.05906,0.00551,0,0,0.0*
21,1,0.05354,0.01102,0,0,0.0*
1,1,0.00551,0.02677,-0.00276*
1,1,0.00551,-0.02677,-0.00276*
1,1,0.00551,-0.02677,0.00276*
1,1,0.00551,0.02677,0.00276*
%
%ADD24ROUNDEDRECTD24*%
%ADD25C,0.01181*%
%ADD26C,0.02362*%
%ADD27C,0.01969*%
%ADD28C,0.01142*%
%ADD29C,0.00787*%
%ADD30R,0.11319X0.13386*%
%ADD31R,0.06673X0.13386*%
%ADD32C,0.03937*%
%ADD33C,0.04921*%
%ADD34R,0.04921X0.04921*%
%ADD35C,0.09843*%
%ADD36C,0.03150*%
G36*
X-16142Y151594D02*
Y144504D01*
X-16449Y144442D01*
X-16709Y144269D01*
X-17223Y144400D01*
X-17252Y144546D01*
X-17730Y145262D01*
X-18447Y145740D01*
X-18504Y145752D01*
Y143701D01*
Y141650D01*
X-18447Y141661D01*
X-17730Y142140D01*
X-17445Y142567D01*
X-16945Y142415D01*
Y124031D01*
X-32628D01*
X-32662Y124371D01*
Y124433D01*
X-32674Y124496D01*
X-32677Y124525D01*
Y124563D01*
X-32671Y124599D01*
X-32525Y124837D01*
X-32447Y124910D01*
X-32303Y124998D01*
X-32283Y124995D01*
Y131890D01*
Y138785D01*
X-32303Y138781D01*
X-32448Y138870D01*
X-32525Y138943D01*
X-32671Y139181D01*
X-32677Y139216D01*
Y139269D01*
X-32662Y139346D01*
Y143701D01*
X-32723Y144008D01*
X-32897Y144269D01*
X-33157Y144442D01*
X-33465Y144504D01*
X-48139D01*
X-48219Y144997D01*
X-44370Y146269D01*
X-37140Y148270D01*
X-29820Y149913D01*
X-22428Y151196D01*
X-16516Y151925D01*
X-16142Y151594D01*
D02*
G37*
G36*
X17693Y-15460D02*
Y-18039D01*
X17193Y-18209D01*
X17036Y-18004D01*
X16440Y-17546D01*
X16204Y-17449D01*
Y-16575D01*
X16204Y-16575D01*
X16113Y-16114D01*
X15852Y-15723D01*
X13056Y-12928D01*
X12666Y-12667D01*
X12205Y-12575D01*
X12205Y-12575D01*
X-682D01*
X-39140Y25882D01*
X-38821Y26271D01*
X-38563Y26098D01*
X-37795Y25946D01*
X-37027Y26098D01*
X-36376Y26534D01*
X-35941Y27185D01*
X-35788Y27953D01*
X-35941Y28721D01*
X-36376Y29372D01*
X-37004Y29792D01*
X-37011Y29829D01*
X-36842Y30292D01*
X-28058D01*
X17693Y-15460D01*
D02*
G37*
G36*
X-123251Y58590D02*
Y30026D01*
X-124711Y28566D01*
X-128557D01*
X-128782Y29066D01*
X-128461Y29547D01*
X-128308Y30315D01*
X-128461Y31083D01*
X-128896Y31734D01*
X-129042Y31832D01*
X-128936Y32362D01*
X-128760Y32398D01*
X-128108Y32833D01*
X-127673Y33484D01*
X-127521Y34252D01*
X-127673Y35020D01*
X-128108Y35671D01*
X-128760Y36106D01*
X-129528Y36259D01*
X-130296Y36106D01*
X-130947Y35671D01*
X-131382Y35020D01*
X-131491Y34472D01*
X-132273D01*
X-132660Y34961D01*
Y35512D01*
X-132727Y35850D01*
X-132828Y36001D01*
X-132925Y36186D01*
X-132913Y36668D01*
D01*
X-132913Y36668D01*
X-132913Y36668D01*
X-132861Y36929D01*
X-132861Y37137D01*
Y37272D01*
X-132861Y37480D01*
X-132913Y37741D01*
X-132913D01*
X-132913Y37742D01*
X-132925Y38224D01*
X-132828Y38409D01*
X-132727Y38560D01*
X-132660Y38898D01*
Y39449D01*
X-132273Y39937D01*
X-131677D01*
X-131535Y39764D01*
X-131382Y38996D01*
X-130947Y38345D01*
X-130296Y37909D01*
X-129528Y37757D01*
X-128760Y37909D01*
X-128108Y38345D01*
X-127673Y38996D01*
X-127521Y39764D01*
X-127673Y40532D01*
X-128108Y41183D01*
X-128760Y41618D01*
X-129528Y41771D01*
X-129781Y41720D01*
X-130054Y41993D01*
X-130147Y42055D01*
X-130219Y42594D01*
X-129939Y42878D01*
X-129921Y42875D01*
X-129153Y43028D01*
X-128502Y43463D01*
X-128067Y44114D01*
X-127914Y44882D01*
X-128067Y45650D01*
X-128502Y46301D01*
X-128738Y46459D01*
X-128747Y46669D01*
X-128677Y47019D01*
X-128108Y47400D01*
X-127673Y48051D01*
X-127521Y48819D01*
X-127673Y49587D01*
X-128108Y50238D01*
X-128760Y50673D01*
X-129528Y50826D01*
X-129781Y50775D01*
X-130187Y51181D01*
X-129070Y52298D01*
X-129070Y52298D01*
X-128809Y52689D01*
X-128717Y53150D01*
Y55949D01*
X-128217Y56100D01*
X-128191Y56061D01*
X-127540Y55626D01*
X-126772Y55473D01*
X-126004Y55626D01*
X-125352Y56061D01*
X-124917Y56712D01*
X-124765Y57480D01*
X-124815Y57734D01*
X-123751Y58797D01*
X-123251Y58590D01*
D02*
G37*
G36*
X7500Y152666D02*
X14982Y152114D01*
X16046Y151983D01*
X16051Y144857D01*
X15698Y144504D01*
X15354D01*
X15047Y144442D01*
X14787Y144269D01*
X14273Y144400D01*
X14244Y144546D01*
X13766Y145262D01*
X13050Y145740D01*
X12992Y145752D01*
Y143701D01*
Y141650D01*
X13050Y141661D01*
X13766Y142140D01*
X14051Y142567D01*
X14551Y142415D01*
Y124819D01*
X13096D01*
X12945Y125319D01*
X13372Y125604D01*
X13851Y126321D01*
X13862Y126378D01*
X9760D01*
X9771Y126321D01*
X10250Y125604D01*
X10677Y125319D01*
X10526Y124819D01*
X8385D01*
X8234Y125319D01*
X8476Y125481D01*
X8857Y126050D01*
X8990Y126722D01*
Y127067D01*
X2624D01*
Y126722D01*
X2757Y126050D01*
X3138Y125481D01*
X3381Y125319D01*
X3229Y124819D01*
X1706D01*
X1554Y125319D01*
X1612Y125357D01*
X1894Y125780D01*
X1994Y126279D01*
Y131102D01*
X0D01*
Y131890D01*
X-787D01*
Y138785D01*
X-807Y138781D01*
X-951Y138870D01*
X-1029Y138943D01*
X-1175Y139181D01*
X-1181Y139216D01*
Y139269D01*
X-1166Y139346D01*
Y143701D01*
X-1227Y144008D01*
X-1401Y144269D01*
X-1661Y144442D01*
X-1969Y144504D01*
X-14985D01*
X-15339Y144857D01*
Y151594D01*
X-15331Y151657D01*
X-15116Y152000D01*
X-14991Y152110D01*
X-14982Y152114D01*
X-7500Y152666D01*
X0Y152850D01*
X7500Y152666D01*
D02*
G37*
G36*
X-53952Y142525D02*
Y116929D01*
X-53900Y116665D01*
X-53908Y116595D01*
X-54187Y116165D01*
X-72187D01*
X-72261Y116665D01*
X-71200Y116987D01*
X-70105Y117572D01*
X-69146Y118359D01*
X-68359Y119318D01*
X-67774Y120412D01*
X-67414Y121600D01*
X-67292Y122835D01*
X-67414Y124069D01*
X-67774Y125257D01*
X-68359Y126351D01*
X-69086Y127237D01*
X-68747Y127612D01*
X-68561Y127488D01*
X-68504Y127476D01*
Y128740D01*
X-69768D01*
X-69756Y128683D01*
X-69424Y128185D01*
X-69798Y127845D01*
X-70105Y128098D01*
X-71200Y128682D01*
X-72387Y129043D01*
X-73622Y129164D01*
X-74857Y129043D01*
X-76044Y128682D01*
X-77139Y128098D01*
X-78098Y127310D01*
X-78885Y126351D01*
X-79470Y125257D01*
X-79830Y124069D01*
X-79952Y122835D01*
X-79830Y121600D01*
X-79470Y120412D01*
X-78885Y119318D01*
X-78098Y118359D01*
X-77139Y117572D01*
X-76044Y116987D01*
X-74983Y116665D01*
X-75057Y116165D01*
X-96063D01*
X-96063Y116165D01*
X-96524Y116073D01*
X-96914Y115812D01*
X-96914Y115812D01*
X-100064Y112663D01*
X-100325Y112272D01*
X-100417Y111811D01*
X-100417Y111811D01*
Y108766D01*
X-130357Y78827D01*
X-130749Y79141D01*
X-127091Y84919D01*
X-122771Y91053D01*
X-118155Y96967D01*
X-113255Y102648D01*
X-108081Y108081D01*
X-102648Y113255D01*
X-96967Y118155D01*
X-91053Y122771D01*
X-84919Y127091D01*
X-78581Y131104D01*
X-72053Y134802D01*
X-65352Y138175D01*
X-58493Y141215D01*
X-54365Y142808D01*
X-53952Y142525D01*
D02*
G37*
G36*
X29528Y139346D02*
X29417Y139324D01*
X29157Y139150D01*
X28983Y138890D01*
X28922Y138583D01*
Y138355D01*
X28422Y138204D01*
X28358Y138299D01*
X27788Y138680D01*
X27116Y138813D01*
X26476D01*
Y135925D01*
Y133037D01*
X27116D01*
X27788Y133171D01*
X28358Y133552D01*
X28422Y133647D01*
X28922Y133495D01*
Y130285D01*
X28422Y130133D01*
X28358Y130228D01*
X27788Y130609D01*
X27116Y130742D01*
X26476D01*
Y127854D01*
Y124966D01*
X27116D01*
X27788Y125100D01*
X28358Y125481D01*
X28422Y125576D01*
X28922Y125424D01*
Y125197D01*
X28983Y124890D01*
X29157Y124629D01*
X29417Y124455D01*
X29528Y124433D01*
Y124016D01*
X53150Y124016D01*
Y117283D01*
X52796Y116929D01*
X-53150Y116929D01*
Y143277D01*
X-52050Y143701D01*
X-33465D01*
Y139346D01*
X-33575Y139324D01*
X-33835Y139150D01*
X-34009Y138890D01*
X-34071Y138583D01*
Y138355D01*
X-34571Y138204D01*
X-34634Y138299D01*
X-35204Y138680D01*
X-35876Y138813D01*
X-36516D01*
Y135925D01*
Y133037D01*
X-35876D01*
X-35204Y133171D01*
X-34634Y133552D01*
X-34571Y133647D01*
X-34071Y133495D01*
Y130285D01*
X-34571Y130133D01*
X-34634Y130228D01*
X-35204Y130609D01*
X-35876Y130742D01*
X-36516D01*
Y127854D01*
Y124966D01*
X-35876D01*
X-35204Y125100D01*
X-34634Y125481D01*
X-34571Y125576D01*
X-34071Y125424D01*
Y125197D01*
X-34009Y124890D01*
X-33835Y124629D01*
X-33575Y124455D01*
X-33465Y124433D01*
Y123228D01*
X-16142D01*
Y143701D01*
X-1969D01*
Y139346D01*
X-2079Y139324D01*
X-2339Y139150D01*
X-2513Y138890D01*
X-2575Y138583D01*
Y138355D01*
X-3074Y138204D01*
X-3138Y138299D01*
X-3708Y138680D01*
X-4380Y138813D01*
X-5020D01*
Y135925D01*
Y133037D01*
X-4380D01*
X-3708Y133171D01*
X-3138Y133552D01*
X-3074Y133647D01*
X-2575Y133495D01*
Y130285D01*
X-3074Y130133D01*
X-3138Y130228D01*
X-3708Y130609D01*
X-4380Y130742D01*
X-5020D01*
Y127854D01*
Y124966D01*
X-4380D01*
X-3708Y125100D01*
X-3138Y125481D01*
X-3074Y125576D01*
X-2575Y125424D01*
Y125197D01*
X-2513Y124890D01*
X-2339Y124629D01*
X-2079Y124455D01*
X-1969Y124433D01*
Y124016D01*
X15354D01*
Y143701D01*
X29528D01*
Y139346D01*
D02*
G37*
G36*
X-90521Y15480D02*
X-90483Y15287D01*
X-90222Y14897D01*
X-89831Y14636D01*
X-89370Y14544D01*
X-49318D01*
X-22070Y-12704D01*
Y-18383D01*
X-22243Y-18469D01*
X-22570Y-18517D01*
X-22964Y-18004D01*
X-23561Y-17546D01*
X-23796Y-17449D01*
Y-16339D01*
X-23887Y-15878D01*
X-24148Y-15487D01*
X-40487Y852D01*
X-40878Y1113D01*
X-41339Y1204D01*
X-41339Y1204D01*
X-86509D01*
X-101707Y16403D01*
X-102098Y16664D01*
X-102559Y16755D01*
X-102559Y16755D01*
X-102566D01*
X-102602Y16775D01*
X-102940Y17244D01*
Y17795D01*
X-102992Y18056D01*
X-103139Y18278D01*
Y18730D01*
X-102992Y18951D01*
X-102940Y19213D01*
Y19764D01*
X-102977Y19953D01*
X-102897Y20154D01*
X-102676Y20453D01*
X-101378D01*
X-100994Y20530D01*
X-100917Y20581D01*
X-100417Y20314D01*
Y17126D01*
X-100325Y16665D01*
X-100064Y16274D01*
X-99673Y16013D01*
X-99213Y15922D01*
X-97638D01*
X-97177Y16013D01*
X-97158Y16026D01*
X-89729Y8597D01*
X-89339Y8336D01*
X-88878Y8245D01*
X-52350D01*
X-52207Y8030D01*
X-51556Y7594D01*
X-50787Y7442D01*
X-50019Y7594D01*
X-49368Y8030D01*
X-48933Y8681D01*
X-48780Y9449D01*
X-48933Y10217D01*
X-49368Y10868D01*
X-50019Y11303D01*
X-50787Y11456D01*
X-51556Y11303D01*
X-52207Y10868D01*
X-52350Y10653D01*
X-88379D01*
X-96434Y18708D01*
Y20685D01*
X-95952Y20911D01*
X-90521Y15480D01*
D02*
G37*
G36*
X22428Y151196D02*
X29820Y149913D01*
X37140Y148270D01*
X44158Y146327D01*
X44042Y145841D01*
X43701Y145909D01*
X42856Y145740D01*
X42140Y145262D01*
X41661Y144546D01*
X41650Y144488D01*
X45752D01*
X45741Y144546D01*
X45262Y145262D01*
X44712Y145629D01*
X44934Y146082D01*
X51494Y143915D01*
X53447Y143162D01*
X53469Y125265D01*
X53350Y125098D01*
X52970Y124819D01*
X44592D01*
X44441Y125319D01*
X44868Y125604D01*
X45347Y126321D01*
X45358Y126378D01*
X41256D01*
X41267Y126321D01*
X41746Y125604D01*
X42173Y125319D01*
X42022Y124819D01*
X39881Y124819D01*
X39730Y125319D01*
X39972Y125481D01*
X40353Y126050D01*
X40486Y126722D01*
Y127067D01*
X34120D01*
Y126722D01*
X34253Y126050D01*
X34634Y125481D01*
X34877Y125319D01*
X34725Y124819D01*
X33202D01*
X33050Y125319D01*
X33108Y125357D01*
X33390Y125780D01*
X33490Y126279D01*
Y131102D01*
X31496D01*
Y131890D01*
X30709D01*
Y138785D01*
X30689Y138781D01*
X30544Y138870D01*
X30468Y138943D01*
X30321Y139181D01*
X30315Y139216D01*
Y139269D01*
X30330Y139346D01*
Y143701D01*
X30269Y144008D01*
X30095Y144269D01*
X29835Y144442D01*
X29528Y144504D01*
X17294D01*
X17206Y144541D01*
X16856Y144856D01*
X16854Y144858D01*
X16849Y151507D01*
X17223Y151838D01*
X22428Y151196D01*
D02*
G37*
G36*
X58493Y141215D02*
X65352Y138175D01*
X72053Y134802D01*
X78581Y131104D01*
X84919Y127091D01*
X91053Y122771D01*
X96967Y118155D01*
X102648Y113255D01*
X108081Y108081D01*
X113255Y102648D01*
X118155Y96967D01*
X122771Y91053D01*
X127091Y84919D01*
X131104Y78581D01*
X134802Y72053D01*
X138175Y65352D01*
X141215Y58493D01*
X143915Y51494D01*
X146269Y44370D01*
X148270Y37140D01*
X149913Y29820D01*
X151196Y22428D01*
X152114Y14982D01*
X152666Y7500D01*
X152850Y0D01*
X152666Y-7500D01*
X152114Y-14982D01*
X151196Y-22428D01*
X149913Y-29820D01*
X148270Y-37140D01*
X146269Y-44370D01*
X143915Y-51494D01*
X141215Y-58493D01*
X138175Y-65352D01*
X134802Y-72053D01*
X132060Y-76893D01*
X131586Y-76717D01*
X131614Y-76575D01*
Y-75394D01*
X131537Y-75010D01*
X131320Y-74684D01*
X131224Y-74620D01*
Y-73412D01*
X131320Y-73347D01*
X131537Y-73022D01*
X131614Y-72638D01*
Y-71457D01*
X131537Y-71073D01*
X131320Y-70747D01*
X130994Y-70530D01*
X130610Y-70453D01*
X129429D01*
X129045Y-70530D01*
X128719Y-70747D01*
X128502Y-71073D01*
X128426Y-71457D01*
Y-72638D01*
X128502Y-73022D01*
X128719Y-73347D01*
X128815Y-73412D01*
Y-74620D01*
X128719Y-74684D01*
X128502Y-75010D01*
X128426Y-75394D01*
Y-76575D01*
X128502Y-76959D01*
X128719Y-77284D01*
X129045Y-77502D01*
X129429Y-77578D01*
X130610D01*
X130994Y-77502D01*
X131230Y-77345D01*
X131633Y-77647D01*
X131104Y-78581D01*
X127091Y-84919D01*
X122771Y-91053D01*
X118155Y-96967D01*
X113255Y-102648D01*
X108081Y-108081D01*
X102648Y-113255D01*
X96967Y-118155D01*
X91053Y-122771D01*
X84919Y-127091D01*
X78581Y-131104D01*
X72053Y-134802D01*
X65352Y-138175D01*
X58493Y-141215D01*
X51494Y-143915D01*
X44370Y-146269D01*
X37140Y-148270D01*
X29820Y-149913D01*
X22428Y-151196D01*
X14982Y-152114D01*
X7500Y-152666D01*
X0Y-152850D01*
X-7500Y-152666D01*
X-14982Y-152114D01*
X-22428Y-151196D01*
X-29820Y-149913D01*
X-37140Y-148270D01*
X-44370Y-146269D01*
X-51494Y-143915D01*
X-58493Y-141215D01*
X-65352Y-138175D01*
X-72053Y-134802D01*
X-78581Y-131104D01*
X-84919Y-127091D01*
X-91053Y-122771D01*
X-96967Y-118155D01*
X-102648Y-113255D01*
X-108081Y-108081D01*
X-113255Y-102648D01*
X-118155Y-96967D01*
X-122771Y-91053D01*
X-127091Y-84919D01*
X-131104Y-78581D01*
X-134802Y-72053D01*
X-138175Y-65352D01*
X-141215Y-58493D01*
X-143915Y-51494D01*
X-146269Y-44370D01*
X-148270Y-37140D01*
X-149913Y-29820D01*
X-151196Y-22428D01*
X-152114Y-14982D01*
X-152666Y-7500D01*
X-152850Y0D01*
X-152666Y7500D01*
X-152114Y14982D01*
X-151196Y22428D01*
X-149913Y29820D01*
X-148270Y37140D01*
X-147964Y38244D01*
X-147464Y38176D01*
Y37468D01*
X-147581Y37293D01*
X-147657Y36909D01*
Y35728D01*
X-147581Y35344D01*
X-147363Y35019D01*
X-147038Y34801D01*
X-146653Y34725D01*
X-145472D01*
X-145088Y34801D01*
X-144763Y35019D01*
X-144547Y35342D01*
X-144536Y35344D01*
X-144047D01*
X-144036Y35342D01*
X-143820Y35019D01*
X-143494Y34801D01*
X-143110Y34725D01*
X-141929D01*
X-141545Y34801D01*
X-141219Y35019D01*
X-141002Y35344D01*
X-140926Y35728D01*
Y35816D01*
X-140741Y36000D01*
X-140168D01*
X-139781Y35512D01*
Y34961D01*
X-139714Y34623D01*
X-139613Y34472D01*
X-139516Y34287D01*
X-139528Y33805D01*
D01*
X-139528Y33804D01*
X-139528Y33804D01*
X-139580Y33543D01*
X-139580Y33335D01*
Y32992D01*
X-139528Y32731D01*
X-139380Y32510D01*
Y32057D01*
X-139528Y31836D01*
X-139580Y31575D01*
Y31024D01*
X-139542Y30834D01*
X-139548Y30730D01*
X-139811Y30286D01*
X-139951Y30258D01*
X-140277Y30040D01*
X-140540Y29777D01*
X-141037Y29826D01*
X-141078Y29887D01*
X-141302Y30037D01*
X-141310Y30058D01*
Y30572D01*
X-141302Y30593D01*
X-141078Y30743D01*
X-140817Y31134D01*
X-140764Y31398D01*
X-142520D01*
Y32185D01*
X-143307D01*
Y33941D01*
X-143571Y33888D01*
X-143962Y33627D01*
X-143991Y33584D01*
X-144592D01*
X-144621Y33627D01*
X-145012Y33888D01*
X-145276Y33941D01*
Y32185D01*
X-146063D01*
Y31398D01*
X-147819D01*
X-147766Y31134D01*
X-147505Y30743D01*
X-147318Y30618D01*
X-147313Y30050D01*
X-147821Y29711D01*
X-148300Y28995D01*
X-148311Y28937D01*
X-146260D01*
Y28150D01*
X-145472D01*
Y26098D01*
X-145415Y26110D01*
X-144699Y26588D01*
X-144492Y26897D01*
X-143962Y27003D01*
X-143571Y26742D01*
X-143110Y26650D01*
X-142065D01*
X-141865Y26287D01*
X-141842Y26162D01*
X-142040Y25905D01*
X-143110D01*
X-143494Y25829D01*
X-143820Y25611D01*
X-144037Y25286D01*
X-144114Y24902D01*
Y23720D01*
X-144037Y23336D01*
X-143820Y23011D01*
X-143494Y22793D01*
X-143110Y22717D01*
X-141929D01*
X-141545Y22793D01*
X-141219Y23011D01*
X-141002Y23336D01*
X-140926Y23720D01*
Y24092D01*
X-140058Y24960D01*
X-139584Y24868D01*
X-139498Y24812D01*
X-139380Y24636D01*
Y24183D01*
X-139528Y23962D01*
X-139580Y23701D01*
Y23150D01*
X-139528Y22888D01*
X-139380Y22667D01*
Y22215D01*
X-139528Y21993D01*
X-139580Y21732D01*
Y21181D01*
X-139528Y20920D01*
X-139380Y20699D01*
Y20246D01*
X-139528Y20025D01*
X-139580Y19764D01*
Y19213D01*
X-139528Y18951D01*
X-139380Y18730D01*
Y18278D01*
X-139528Y18056D01*
X-139580Y17795D01*
Y17244D01*
X-139528Y16983D01*
X-139380Y16762D01*
Y16309D01*
X-139528Y16088D01*
X-139580Y15827D01*
Y15276D01*
X-139528Y15014D01*
X-139380Y14793D01*
X-139159Y14645D01*
X-138898Y14593D01*
X-136877D01*
X-136674Y14457D01*
X-136221Y14367D01*
X-133955D01*
X-133861Y14273D01*
Y13781D01*
X-134096Y13624D01*
X-134531Y12973D01*
X-134684Y12205D01*
X-134531Y11437D01*
X-134096Y10785D01*
X-133445Y10350D01*
X-132677Y10198D01*
X-131909Y10350D01*
X-131258Y10785D01*
X-130823Y11437D01*
X-130670Y12205D01*
X-130823Y12973D01*
X-131258Y13624D01*
X-131493Y13781D01*
Y14764D01*
X-131583Y15217D01*
X-131840Y15601D01*
X-132112Y15874D01*
X-131921Y16335D01*
X-131101D01*
X-130988Y15767D01*
X-130553Y15116D01*
X-129902Y14681D01*
X-129134Y14528D01*
X-128366Y14681D01*
X-127715Y15116D01*
X-127689Y15155D01*
X-127189Y15004D01*
Y11811D01*
X-127189Y11811D01*
X-127097Y11350D01*
X-126836Y10960D01*
X-122899Y7023D01*
X-122899Y7023D01*
X-122508Y6762D01*
X-122047Y6670D01*
X-121163D01*
X-121077Y6570D01*
X-121195Y5940D01*
X-121847Y5592D01*
X-122866Y4755D01*
X-123702Y3736D01*
X-124324Y2574D01*
X-124706Y1312D01*
X-124836Y0D01*
X-124706Y-1312D01*
X-124324Y-2574D01*
X-123702Y-3736D01*
X-122866Y-4755D01*
X-121847Y-5592D01*
X-120684Y-6213D01*
X-119422Y-6596D01*
X-118110Y-6725D01*
X-116798Y-6596D01*
X-115537Y-6213D01*
X-114374Y-5592D01*
X-113355Y-4755D01*
X-112518Y-3736D01*
X-111897Y-2574D01*
X-111514Y-1312D01*
X-111385Y0D01*
X-111514Y1312D01*
X-111897Y2574D01*
X-112518Y3736D01*
X-112851Y4141D01*
X-112480Y4478D01*
X-95340Y-12663D01*
X-94949Y-12924D01*
X-94488Y-13015D01*
X-59554D01*
X-56204Y-16365D01*
Y-17449D01*
X-56440Y-17546D01*
X-57036Y-18004D01*
X-57493Y-18600D01*
X-57781Y-19294D01*
X-57879Y-20039D01*
X-57781Y-20785D01*
X-57493Y-21479D01*
X-57036Y-22075D01*
X-56440Y-22533D01*
X-55745Y-22820D01*
X-55000Y-22918D01*
X-54255Y-22820D01*
X-53561Y-22533D01*
X-52964Y-22075D01*
X-52507Y-21479D01*
X-52219Y-20785D01*
X-52121Y-20039D01*
X-52219Y-19294D01*
X-52507Y-18600D01*
X-52964Y-18004D01*
X-53561Y-17546D01*
X-53796Y-17449D01*
Y-15866D01*
X-53796Y-15866D01*
X-53887Y-15405D01*
X-54149Y-15015D01*
X-54149Y-15015D01*
X-58204Y-10960D01*
X-58594Y-10698D01*
X-59055Y-10607D01*
X-59055Y-10607D01*
X-93989D01*
X-95001Y-9595D01*
X-94986Y-9489D01*
X-94488Y-9078D01*
X-53648D01*
X-46204Y-16522D01*
Y-17449D01*
X-46439Y-17546D01*
X-47036Y-18004D01*
X-47493Y-18600D01*
X-47781Y-19294D01*
X-47879Y-20039D01*
X-47781Y-20785D01*
X-47493Y-21479D01*
X-47036Y-22075D01*
X-46439Y-22533D01*
X-45745Y-22820D01*
X-45000Y-22918D01*
X-44255Y-22820D01*
X-43560Y-22533D01*
X-42964Y-22075D01*
X-42507Y-21479D01*
X-42219Y-20785D01*
X-42121Y-20039D01*
X-42219Y-19294D01*
X-42507Y-18600D01*
X-42964Y-18004D01*
X-43560Y-17546D01*
X-43796Y-17449D01*
Y-16024D01*
X-43887Y-15563D01*
X-43992Y-15406D01*
X-44148Y-15172D01*
X-44148Y-15172D01*
X-52298Y-7023D01*
X-52689Y-6762D01*
X-53150Y-6670D01*
X-53150Y-6670D01*
X-93989D01*
X-95002Y-5658D01*
X-94986Y-5552D01*
X-94488Y-5141D01*
X-47743D01*
X-36204Y-16680D01*
Y-17449D01*
X-36439Y-17546D01*
X-37036Y-18004D01*
X-37493Y-18600D01*
X-37781Y-19294D01*
X-37879Y-20039D01*
X-37781Y-20785D01*
X-37493Y-21479D01*
X-37036Y-22075D01*
X-36439Y-22533D01*
X-35745Y-22820D01*
X-35000Y-22918D01*
X-34255Y-22820D01*
X-33560Y-22533D01*
X-32964Y-22075D01*
X-32507Y-21479D01*
X-32219Y-20785D01*
X-32121Y-20039D01*
X-32219Y-19294D01*
X-32507Y-18600D01*
X-32964Y-18004D01*
X-33560Y-17546D01*
X-33796Y-17449D01*
Y-16181D01*
X-33887Y-15720D01*
X-34148Y-15330D01*
X-34148Y-15330D01*
X-46393Y-3086D01*
X-46783Y-2824D01*
X-47244Y-2733D01*
X-47244Y-2733D01*
X-93989D01*
X-111353Y14631D01*
X-111744Y14892D01*
X-112205Y14984D01*
X-112205Y14984D01*
X-117611D01*
X-118875Y16247D01*
Y21260D01*
X-118966Y21721D01*
X-119227Y22111D01*
X-119313Y22169D01*
X-121208Y24064D01*
X-121342Y24412D01*
X-121205Y24729D01*
X-119399Y26536D01*
X-118860Y26388D01*
X-118783Y26004D01*
X-118348Y25352D01*
X-117697Y24917D01*
X-116929Y24765D01*
X-116161Y24917D01*
X-115510Y25352D01*
X-115366Y25567D01*
X-112599D01*
X-112598Y25567D01*
X-112138Y25659D01*
X-111747Y25920D01*
X-111509Y26158D01*
X-110033D01*
X-109996Y26139D01*
X-109659Y25669D01*
Y25118D01*
X-109607Y24857D01*
X-109459Y24636D01*
Y24183D01*
X-109607Y23962D01*
X-109659Y23701D01*
Y23150D01*
X-109607Y22888D01*
X-109459Y22667D01*
Y22215D01*
X-109607Y21993D01*
X-109659Y21732D01*
Y21181D01*
X-109996Y20712D01*
X-110033Y20692D01*
X-113084D01*
X-113791Y21400D01*
X-113741Y21654D01*
X-113894Y22422D01*
X-114329Y23073D01*
X-114980Y23508D01*
X-115748Y23661D01*
X-116516Y23508D01*
X-117167Y23073D01*
X-117602Y22422D01*
X-117755Y21654D01*
X-117602Y20886D01*
X-117167Y20234D01*
X-116659Y19895D01*
X-116713Y19374D01*
X-117364Y18939D01*
X-117799Y18288D01*
X-117952Y17520D01*
X-117799Y16752D01*
X-117364Y16101D01*
X-116713Y15665D01*
X-115945Y15513D01*
X-115177Y15665D01*
X-114526Y16101D01*
X-114382Y16316D01*
X-110033D01*
X-109996Y16296D01*
X-109659Y15827D01*
Y15276D01*
X-109607Y15014D01*
X-109459Y14793D01*
X-109238Y14645D01*
X-108976Y14593D01*
X-106991D01*
X-106760Y14439D01*
X-106299Y14347D01*
X-103058D01*
X-87859Y-852D01*
X-87859Y-852D01*
X-87625Y-1008D01*
X-87469Y-1113D01*
X-87008Y-1204D01*
X-41837D01*
X-26204Y-16837D01*
Y-17449D01*
X-26439Y-17546D01*
X-27036Y-18004D01*
X-27493Y-18600D01*
X-27781Y-19294D01*
X-27879Y-20039D01*
X-27781Y-20785D01*
X-27493Y-21479D01*
X-27036Y-22075D01*
X-26439Y-22533D01*
X-25745Y-22820D01*
X-25000Y-22918D01*
X-24255Y-22820D01*
X-23561Y-22533D01*
X-22964Y-22075D01*
X-22570Y-21562D01*
X-22243Y-21610D01*
X-22070Y-21696D01*
Y-24409D01*
X-22070Y-24409D01*
X-21979Y-24870D01*
X-21718Y-25261D01*
X-16600Y-30379D01*
X-16600Y-30379D01*
X-16209Y-30640D01*
X-15748Y-30732D01*
X-15748Y-30732D01*
X-0D01*
X0Y-30732D01*
X461Y-30640D01*
X852Y-30379D01*
X5852Y-25379D01*
X5852Y-25379D01*
X6113Y-24988D01*
X6204Y-24528D01*
X6204Y-24528D01*
Y-22630D01*
X6440Y-22533D01*
X7036Y-22075D01*
X7493Y-21479D01*
X7781Y-20785D01*
X7879Y-20039D01*
X7781Y-19294D01*
X7493Y-18600D01*
X7036Y-18004D01*
X6440Y-17546D01*
X5745Y-17258D01*
X5000Y-17160D01*
X4255Y-17258D01*
X3560Y-17546D01*
X2964Y-18004D01*
X2507Y-18600D01*
X2219Y-19294D01*
X2121Y-20039D01*
X2219Y-20785D01*
X2507Y-21479D01*
X2964Y-22075D01*
X3560Y-22533D01*
X3796Y-22630D01*
Y-24029D01*
X-499Y-28323D01*
X-15249D01*
X-16261Y-27311D01*
X-16246Y-27206D01*
X-15748Y-26795D01*
X-15748Y-26795D01*
X-5906D01*
X-5906Y-26795D01*
X-5445Y-26703D01*
X-5054Y-26442D01*
X-4149Y-25537D01*
X-4149Y-25537D01*
X-3992Y-25302D01*
X-3887Y-25146D01*
X-3796Y-24685D01*
Y-22630D01*
X-3560Y-22533D01*
X-2964Y-22075D01*
X-2507Y-21479D01*
X-2219Y-20785D01*
X-2121Y-20039D01*
X-2219Y-19294D01*
X-2507Y-18600D01*
X-2964Y-18004D01*
X-3560Y-17546D01*
X-4255Y-17258D01*
X-5000Y-17160D01*
X-5745Y-17258D01*
X-6440Y-17546D01*
X-7036Y-18004D01*
X-7493Y-18600D01*
X-7781Y-19294D01*
X-7879Y-20039D01*
X-7781Y-20785D01*
X-7493Y-21479D01*
X-7036Y-22075D01*
X-6440Y-22533D01*
X-6204Y-22630D01*
Y-24186D01*
X-6404Y-24386D01*
X-15249D01*
X-16692Y-22943D01*
X-16440Y-22533D01*
X-15745Y-22820D01*
X-15000Y-22918D01*
X-14255Y-22820D01*
X-13561Y-22533D01*
X-12964Y-22075D01*
X-12507Y-21479D01*
X-12219Y-20785D01*
X-12121Y-20039D01*
X-12219Y-19294D01*
X-12507Y-18600D01*
X-12964Y-18004D01*
X-13561Y-17546D01*
X-13796Y-17449D01*
Y-6654D01*
X-13796Y-6654D01*
X-13887Y-6193D01*
X-14149Y-5802D01*
X-44424Y24474D01*
X-44815Y24735D01*
X-45276Y24826D01*
X-45276Y24826D01*
X-89943D01*
X-91009Y25893D01*
X-90818Y26355D01*
X-43018D01*
X-2033Y-14631D01*
X-2033Y-14631D01*
X-1798Y-14787D01*
X-1642Y-14892D01*
X-1181Y-14984D01*
X11706D01*
X13709Y-16987D01*
X13645Y-17511D01*
X13561Y-17546D01*
X12964Y-18004D01*
X12507Y-18600D01*
X12219Y-19294D01*
X12121Y-20039D01*
X12219Y-20785D01*
X12507Y-21479D01*
X12964Y-22075D01*
X13561Y-22533D01*
X14255Y-22820D01*
X15000Y-22918D01*
X15745Y-22820D01*
X16440Y-22533D01*
X17036Y-22075D01*
X17193Y-21870D01*
X17693Y-22039D01*
Y-23622D01*
X17693Y-23622D01*
X17785Y-24083D01*
X18046Y-24474D01*
X20408Y-26836D01*
X20408Y-26836D01*
X20778Y-27083D01*
X20792Y-27176D01*
X20753Y-27597D01*
X20602Y-27628D01*
X20211Y-27889D01*
X19950Y-28279D01*
X19859Y-28740D01*
Y-30315D01*
X19950Y-30776D01*
X20211Y-31166D01*
X20602Y-31427D01*
X21063Y-31519D01*
X21729D01*
Y-37106D01*
X21729Y-37106D01*
X21821Y-37567D01*
X22082Y-37958D01*
X23758Y-39634D01*
X23551Y-40134D01*
X-31785D01*
X-34918Y-37001D01*
Y-31519D01*
X-34252D01*
X-33791Y-31427D01*
X-33400Y-31166D01*
X-33139Y-30776D01*
X-33048Y-30315D01*
Y-28740D01*
X-33139Y-28279D01*
X-33400Y-27889D01*
X-33791Y-27628D01*
X-34252Y-27536D01*
X-37992D01*
X-38453Y-27628D01*
X-38844Y-27889D01*
X-39105Y-28279D01*
X-39196Y-28740D01*
Y-30315D01*
X-39105Y-30776D01*
X-38844Y-31166D01*
X-38453Y-31427D01*
X-37992Y-31519D01*
X-37326D01*
Y-37500D01*
X-37326Y-37500D01*
X-37235Y-37961D01*
X-36974Y-38352D01*
X-33329Y-41997D01*
X-33536Y-42497D01*
X-79816D01*
X-84130Y-38182D01*
Y-31519D01*
X-83465D01*
X-83004Y-31427D01*
X-82613Y-31166D01*
X-82352Y-30776D01*
X-82260Y-30315D01*
Y-28740D01*
X-82352Y-28279D01*
X-82613Y-27889D01*
X-83004Y-27628D01*
X-83465Y-27536D01*
X-87205D01*
X-87666Y-27628D01*
X-88056Y-27889D01*
X-88317Y-28279D01*
X-88409Y-28740D01*
Y-30315D01*
X-88317Y-30776D01*
X-88056Y-31166D01*
X-87666Y-31427D01*
X-87205Y-31519D01*
X-86539D01*
Y-38681D01*
X-86539Y-38681D01*
X-86447Y-39142D01*
X-86186Y-39533D01*
X-81166Y-44552D01*
X-80776Y-44813D01*
X-80315Y-44905D01*
X-80315Y-44905D01*
X82572D01*
X100723Y-63056D01*
X101114Y-63317D01*
X101575Y-63409D01*
X101575Y-63409D01*
X115138D01*
Y-64454D01*
X115215Y-64838D01*
X115299Y-64964D01*
Y-65454D01*
X115429Y-65768D01*
X115451Y-65821D01*
X115451Y-65821D01*
X115487Y-65908D01*
X115827Y-66049D01*
D01*
X115851Y-66521D01*
X115851Y-67021D01*
Y-67717D01*
X119291D01*
X122732D01*
Y-66063D01*
X122732Y-66063D01*
X122732D01*
X122948Y-65971D01*
X123095Y-65908D01*
X123132Y-65821D01*
X123132D01*
X123143Y-65793D01*
X123284Y-65454D01*
Y-63454D01*
X123095Y-62999D01*
X122641Y-62811D01*
X122241D01*
X121870Y-62563D01*
Y-59449D01*
X121793Y-59065D01*
X121576Y-58739D01*
X118867Y-56031D01*
X118829Y-55838D01*
X118568Y-55448D01*
X118177Y-55187D01*
X117717Y-55095D01*
X115989D01*
X115968Y-55041D01*
X115906Y-54595D01*
X116206Y-54395D01*
X117826Y-52775D01*
X118288Y-52966D01*
Y-53150D01*
X118364Y-53534D01*
X118582Y-53859D01*
X120550Y-55828D01*
X120876Y-56045D01*
X121260Y-56122D01*
X123600D01*
X123798Y-56418D01*
X124124Y-56636D01*
X124508Y-56712D01*
X125689D01*
X126073Y-56636D01*
X126399Y-56418D01*
X126616Y-56093D01*
X126692Y-55709D01*
Y-54528D01*
X126616Y-54144D01*
X126399Y-53818D01*
X126073Y-53600D01*
X125689Y-53524D01*
X124508D01*
X124124Y-53600D01*
X123798Y-53818D01*
X123600Y-54115D01*
X121676D01*
X120295Y-52734D01*
Y-49993D01*
X120666Y-49557D01*
X121066D01*
X121375Y-49496D01*
X121636Y-49321D01*
X121648Y-49303D01*
X121787Y-49205D01*
X122241Y-49393D01*
X122641D01*
X123095Y-49205D01*
X123284Y-48751D01*
Y-46751D01*
X123145Y-46417D01*
X123132Y-46384D01*
X123132D01*
X123095Y-46296D01*
X122953Y-46236D01*
X122732Y-46141D01*
X122732D01*
X122732Y-46141D01*
Y-44776D01*
X123232Y-44657D01*
X123636Y-45262D01*
X124352Y-45741D01*
X124409Y-45752D01*
Y-43701D01*
Y-41650D01*
X124352Y-41661D01*
X123636Y-42140D01*
X123232Y-42744D01*
X122732Y-42626D01*
Y-41260D01*
X122732Y-41260D01*
X122732D01*
X122948Y-41168D01*
X123095Y-41105D01*
X123132Y-41018D01*
X123132D01*
X123143Y-40990D01*
X123284Y-40651D01*
Y-38651D01*
X123095Y-38196D01*
X122641Y-38008D01*
X122241D01*
X121870Y-37760D01*
Y-35433D01*
X121793Y-35049D01*
X121576Y-34723D01*
X118876Y-32024D01*
X118877Y-32000D01*
X119145Y-31586D01*
X119649Y-31554D01*
X123231Y-35136D01*
X123817Y-35527D01*
X124508Y-35665D01*
X126733D01*
Y-36319D01*
X126809Y-36703D01*
X127027Y-37029D01*
X127352Y-37246D01*
X127736Y-37322D01*
X128917D01*
X129301Y-37246D01*
X129627Y-37029D01*
X129844Y-36703D01*
X129921Y-36319D01*
Y-35665D01*
X131733D01*
Y-36319D01*
X131809Y-36703D01*
X132027Y-37029D01*
X132352Y-37246D01*
X132736Y-37322D01*
X133917D01*
X134301Y-37246D01*
X134627Y-37029D01*
X134845Y-36703D01*
X134921Y-36319D01*
Y-34661D01*
X134996Y-34549D01*
X135133Y-33858D01*
X134996Y-33167D01*
X134921Y-33055D01*
Y-31398D01*
X134845Y-31014D01*
X134627Y-30688D01*
X134301Y-30470D01*
X133917Y-30394D01*
X132736D01*
X132352Y-30470D01*
X132027Y-30688D01*
X131809Y-31014D01*
X131733Y-31398D01*
Y-32052D01*
X129921D01*
Y-31398D01*
X129844Y-31014D01*
X129627Y-30688D01*
X129301Y-30470D01*
X128917Y-30394D01*
X127736D01*
X127352Y-30470D01*
X127027Y-30688D01*
X126809Y-31014D01*
X126733Y-31398D01*
Y-32052D01*
X125256D01*
X124396Y-31192D01*
X124405Y-31098D01*
X124720Y-30626D01*
X124831Y-30069D01*
Y-28002D01*
X124720Y-27445D01*
X124405Y-26973D01*
X123933Y-26658D01*
X123376Y-26547D01*
X118356D01*
X117799Y-26658D01*
X117327Y-26973D01*
X117012Y-27445D01*
X116901Y-28002D01*
Y-30069D01*
X117003Y-30579D01*
X116982Y-30710D01*
X116785Y-31079D01*
X109554D01*
X107897Y-29422D01*
Y-12370D01*
X108360Y-12201D01*
X108397Y-12208D01*
X108817Y-12836D01*
X109468Y-13272D01*
X110236Y-13424D01*
X111004Y-13272D01*
X111076Y-13224D01*
X116089D01*
X116161Y-13272D01*
X116929Y-13424D01*
X117697Y-13272D01*
X117769Y-13224D01*
X126397D01*
X126733Y-13559D01*
Y-15059D01*
X126809Y-15443D01*
X127027Y-15769D01*
X127352Y-15986D01*
X127736Y-16063D01*
X128917D01*
X129301Y-15986D01*
X129627Y-15769D01*
X129844Y-15443D01*
X129921Y-15059D01*
Y-13402D01*
X129996Y-13290D01*
X130133Y-12598D01*
X129996Y-11907D01*
X129921Y-11795D01*
Y-10138D01*
X129844Y-9754D01*
X129627Y-9428D01*
X129301Y-9211D01*
X128917Y-9134D01*
X127736D01*
X127352Y-9211D01*
X127027Y-9428D01*
X126904Y-9611D01*
X117769D01*
X117697Y-9563D01*
X116929Y-9410D01*
X116161Y-9563D01*
X116089Y-9611D01*
X111076D01*
X111004Y-9563D01*
X110236Y-9410D01*
X109468Y-9563D01*
X108817Y-9998D01*
X108397Y-10627D01*
X108360Y-10633D01*
X107897Y-10464D01*
Y-1969D01*
X107897Y-1969D01*
X107806Y-1508D01*
X107544Y-1117D01*
X107544Y-1117D01*
X85850Y20578D01*
Y24421D01*
X86065Y24565D01*
X86500Y25216D01*
X86653Y25984D01*
X86500Y26752D01*
X86065Y27404D01*
X85414Y27839D01*
X84646Y27991D01*
X83878Y27839D01*
X83227Y27404D01*
X82807Y26775D01*
X82769Y26768D01*
X82307Y26937D01*
Y30721D01*
X82522Y30864D01*
X82957Y31515D01*
X83109Y32283D01*
X82957Y33051D01*
X82522Y33703D01*
X81870Y34138D01*
X81102Y34291D01*
X80334Y34138D01*
X79683Y33703D01*
X79248Y33051D01*
X79095Y32283D01*
X79248Y31515D01*
X79683Y30864D01*
X79898Y30721D01*
Y18898D01*
X79898Y18898D01*
X79990Y18437D01*
X80251Y18046D01*
X103127Y-4829D01*
Y-5441D01*
X102627Y-5648D01*
X78370Y18609D01*
Y33359D01*
X80420Y35410D01*
X82572D01*
X86648Y31334D01*
X87039Y31073D01*
X87500Y30981D01*
X87500Y30981D01*
X96434D01*
Y30315D01*
X96525Y29854D01*
X96786Y29463D01*
X97177Y29202D01*
X97638Y29111D01*
X99213D01*
X99673Y29202D01*
X100064Y29463D01*
X100325Y29854D01*
X100417Y30315D01*
Y34055D01*
X100325Y34516D01*
X100064Y34907D01*
X99673Y35168D01*
X99213Y35259D01*
X97638D01*
X97177Y35168D01*
X96786Y34907D01*
X96525Y34516D01*
X96434Y34055D01*
Y33389D01*
X87999D01*
X83922Y37466D01*
X83532Y37727D01*
X83071Y37818D01*
X83071Y37818D01*
X79921D01*
X79921Y37818D01*
X79460Y37727D01*
X79070Y37466D01*
X79070Y37466D01*
X76314Y34710D01*
X76053Y34319D01*
X75961Y33858D01*
X75961Y33858D01*
Y18181D01*
X75793Y18055D01*
X75483Y17953D01*
X72858Y20578D01*
Y52651D01*
X82817Y62610D01*
X83071Y62560D01*
X83839Y62713D01*
X84490Y63148D01*
X84925Y63799D01*
X85078Y64567D01*
X85027Y64820D01*
X90558Y70351D01*
X96434D01*
Y69685D01*
X96525Y69224D01*
X96786Y68834D01*
X97177Y68572D01*
X97638Y68481D01*
X99213D01*
X99673Y68572D01*
X100064Y68834D01*
X100325Y69224D01*
X100417Y69685D01*
Y73425D01*
X100325Y73886D01*
X100064Y74277D01*
X99673Y74538D01*
X99213Y74629D01*
X97638D01*
X97177Y74538D01*
X96786Y74277D01*
X96525Y73886D01*
X96434Y73425D01*
Y72759D01*
X90059D01*
X90059Y72759D01*
X89598Y72668D01*
X89208Y72407D01*
X83324Y66524D01*
X83071Y66574D01*
X82303Y66421D01*
X81652Y65986D01*
X81217Y65335D01*
X81064Y64567D01*
X81114Y64313D01*
X70802Y54001D01*
X70541Y53610D01*
X70449Y53150D01*
X70449Y53149D01*
Y20079D01*
X70449Y20079D01*
X70541Y19618D01*
X70802Y19227D01*
X98402Y-8373D01*
Y-34646D01*
X98402Y-34646D01*
X98494Y-35107D01*
X98755Y-35497D01*
X102692Y-39434D01*
X102692Y-39434D01*
X103083Y-39695D01*
X103543Y-39787D01*
X114859D01*
X115299Y-40227D01*
Y-40651D01*
X115429Y-40965D01*
X115451Y-41018D01*
X115451Y-41018D01*
X115487Y-41105D01*
X115827Y-41246D01*
D01*
X115851Y-41718D01*
X115851Y-42218D01*
Y-42913D01*
X119291D01*
Y-44488D01*
X115851D01*
Y-46141D01*
X115851Y-46141D01*
X115851D01*
X115635Y-46233D01*
X115487Y-46296D01*
X115451Y-46384D01*
X115451D01*
X115440Y-46411D01*
X115390Y-46532D01*
X113175D01*
X113111Y-46436D01*
X112786Y-46218D01*
X112402Y-46142D01*
X111221D01*
X110836Y-46218D01*
X110511Y-46436D01*
X110447Y-46532D01*
X109350D01*
X108890Y-46624D01*
X108499Y-46885D01*
X108499Y-46885D01*
X107734Y-47650D01*
X107480Y-47599D01*
X106712Y-47752D01*
X106061Y-48187D01*
X105626Y-48838D01*
X105473Y-49606D01*
X105626Y-50374D01*
X106061Y-51025D01*
X106712Y-51461D01*
X107480Y-51613D01*
X108248Y-51461D01*
X108899Y-51025D01*
X109335Y-50374D01*
X109487Y-49606D01*
X109437Y-49353D01*
X109849Y-48941D01*
X110447D01*
X110511Y-49036D01*
X110836Y-49254D01*
X111221Y-49330D01*
X112402D01*
X112786Y-49254D01*
X113111Y-49036D01*
X113175Y-48941D01*
X115378D01*
X115487Y-49205D01*
X115942Y-49393D01*
X116342D01*
X116713Y-49641D01*
Y-50482D01*
X115122Y-52073D01*
X114548Y-51689D01*
X113779Y-51536D01*
X113012Y-51689D01*
X112360Y-52124D01*
X111925Y-52775D01*
X111773Y-53543D01*
X111925Y-54311D01*
X112115Y-54595D01*
X111847Y-55095D01*
X105617D01*
X86285Y-35763D01*
X85894Y-35502D01*
X85433Y-35410D01*
X85433Y-35410D01*
X74908D01*
X73350Y-33852D01*
Y-31519D01*
X74016D01*
X74477Y-31427D01*
X74867Y-31166D01*
X75128Y-30776D01*
X75220Y-30315D01*
Y-28740D01*
X75128Y-28279D01*
X74867Y-27889D01*
X74477Y-27628D01*
X74016Y-27536D01*
X70276D01*
X69815Y-27628D01*
X69424Y-27889D01*
X69163Y-28279D01*
X69071Y-28740D01*
Y-30315D01*
X69163Y-30776D01*
X69424Y-31166D01*
X69815Y-31427D01*
X70276Y-31519D01*
X70941D01*
Y-34350D01*
X70941Y-34350D01*
X71033Y-34811D01*
X71294Y-35202D01*
X73364Y-37272D01*
X73157Y-37772D01*
X25302D01*
X24137Y-36608D01*
Y-31519D01*
X24803D01*
X25264Y-31427D01*
X25655Y-31166D01*
X25916Y-30776D01*
X26007Y-30315D01*
Y-28740D01*
X25916Y-28279D01*
X25655Y-27889D01*
X25355Y-27689D01*
X25417Y-27243D01*
X25438Y-27189D01*
X28575D01*
X28744Y-27651D01*
X28737Y-27689D01*
X28108Y-28108D01*
X27673Y-28760D01*
X27520Y-29528D01*
X27673Y-30296D01*
X28108Y-30947D01*
X28760Y-31382D01*
X29528Y-31535D01*
X30296Y-31382D01*
X30947Y-30947D01*
X31090Y-30732D01*
X33131D01*
X33139Y-30776D01*
X33400Y-31166D01*
X33791Y-31427D01*
X34252Y-31519D01*
X37992D01*
X38453Y-31427D01*
X38844Y-31166D01*
X39105Y-30776D01*
X39196Y-30315D01*
Y-28740D01*
X39105Y-28279D01*
X38844Y-27889D01*
X38645Y-27756D01*
X38720Y-27253D01*
X39055Y-27189D01*
X39516Y-27097D01*
X39907Y-26836D01*
X44020Y-22723D01*
X44255Y-22820D01*
X45000Y-22918D01*
X45745Y-22820D01*
X46439Y-22533D01*
X47036Y-22075D01*
X47493Y-21479D01*
X47781Y-20785D01*
X47879Y-20039D01*
X47781Y-19294D01*
X47493Y-18600D01*
X47036Y-18004D01*
X46439Y-17546D01*
X45745Y-17258D01*
X45000Y-17160D01*
X44255Y-17258D01*
X43560Y-17546D01*
X42964Y-18004D01*
X42507Y-18600D01*
X42219Y-19294D01*
X42121Y-20039D01*
X42219Y-20785D01*
X42317Y-21020D01*
X38556Y-24780D01*
X32616D01*
X32424Y-24318D01*
X34020Y-22723D01*
X34255Y-22820D01*
X35000Y-22918D01*
X35745Y-22820D01*
X36439Y-22533D01*
X37036Y-22075D01*
X37493Y-21479D01*
X37781Y-20785D01*
X37879Y-20039D01*
X37781Y-19294D01*
X37493Y-18600D01*
X37036Y-18004D01*
X36439Y-17546D01*
X35745Y-17258D01*
X35000Y-17160D01*
X34255Y-17258D01*
X33560Y-17546D01*
X32964Y-18004D01*
X32507Y-18600D01*
X32219Y-19294D01*
X32121Y-20039D01*
X32219Y-20785D01*
X32317Y-21020D01*
X30525Y-22812D01*
X26897D01*
X26728Y-22311D01*
X27036Y-22075D01*
X27493Y-21479D01*
X27781Y-20785D01*
X27879Y-20039D01*
X27781Y-19294D01*
X27493Y-18600D01*
X27036Y-18004D01*
X26439Y-17546D01*
X26204Y-17449D01*
Y-9252D01*
X26113Y-8791D01*
X25852Y-8400D01*
X25852Y-8400D01*
X-22771Y40222D01*
X-23161Y40483D01*
X-23622Y40574D01*
X-23622Y40574D01*
X-73228D01*
X-73228Y40574D01*
X-73689Y40483D01*
X-74080Y40222D01*
X-74080Y40222D01*
X-74908Y39393D01*
X-77081D01*
X-77180Y39893D01*
X-76060Y40357D01*
X-74950Y41209D01*
X-74098Y42320D01*
X-73562Y43613D01*
X-73379Y45000D01*
X-73562Y46387D01*
X-74098Y47680D01*
X-74950Y48791D01*
X-76060Y49643D01*
X-77353Y50178D01*
X-78007Y50264D01*
X-77974Y50764D01*
X-76089D01*
X-67781Y42456D01*
X-67781Y42456D01*
X-67546Y42299D01*
X-67390Y42195D01*
X-66929Y42103D01*
X-4436D01*
X53796Y-16129D01*
Y-17449D01*
X53561Y-17546D01*
X52964Y-18004D01*
X52507Y-18600D01*
X52219Y-19294D01*
X52121Y-20039D01*
X52219Y-20785D01*
X52507Y-21479D01*
X52964Y-22075D01*
X53561Y-22533D01*
X54255Y-22820D01*
X55000Y-22918D01*
X55745Y-22820D01*
X56440Y-22533D01*
X57036Y-22075D01*
X57493Y-21479D01*
X57781Y-20785D01*
X57879Y-20039D01*
X57781Y-19294D01*
X57493Y-18600D01*
X57036Y-18004D01*
X56440Y-17546D01*
X56204Y-17449D01*
Y-15630D01*
X56204Y-15630D01*
X56113Y-15169D01*
X55852Y-14778D01*
X-3086Y44159D01*
X-3476Y44420D01*
X-3937Y44511D01*
X-3937Y44511D01*
X-66430D01*
X-74739Y52820D01*
X-75130Y53081D01*
X-75590Y53173D01*
X-75591Y53173D01*
X-81890D01*
X-81890Y53173D01*
X-82351Y53081D01*
X-82741Y52820D01*
X-88688Y46874D01*
X-89800D01*
X-90067Y47374D01*
X-89878Y47657D01*
X-89725Y48425D01*
X-89878Y49193D01*
X-90024Y49412D01*
X-89808Y49861D01*
X-89343Y49940D01*
X-89240Y49872D01*
X-88779Y49780D01*
X-88319Y49872D01*
X-87928Y50133D01*
X-84147Y53914D01*
X-73334D01*
X-65812Y46393D01*
X-65812Y46393D01*
X-65421Y46132D01*
X-64961Y46040D01*
X-64961Y46040D01*
X-2467D01*
X57416Y-13844D01*
X57807Y-14105D01*
X58268Y-14196D01*
X58268Y-14196D01*
X93319D01*
X93463Y-14411D01*
X94114Y-14846D01*
X94882Y-14999D01*
X95650Y-14846D01*
X96301Y-14411D01*
X96736Y-13760D01*
X96889Y-12992D01*
X96736Y-12224D01*
X96301Y-11573D01*
X95650Y-11138D01*
X94882Y-10985D01*
X94114Y-11138D01*
X93463Y-11573D01*
X93319Y-11788D01*
X58767D01*
X-1117Y48096D01*
X-1508Y48357D01*
X-1969Y48448D01*
X-1969Y48448D01*
X-64462D01*
X-71983Y55970D01*
X-72374Y56231D01*
X-72835Y56322D01*
X-72835Y56322D01*
X-84646D01*
X-84646Y56322D01*
X-85106Y56231D01*
X-85497Y55970D01*
X-85497Y55970D01*
X-89479Y51988D01*
X-91271D01*
X-91478Y52488D01*
X-86115Y57851D01*
X-71365D01*
X-63844Y50330D01*
X-63844Y50330D01*
X-63453Y50068D01*
X-62992Y49977D01*
X-62992Y49977D01*
X-499D01*
X51904Y-2426D01*
X52295Y-2687D01*
X52756Y-2779D01*
X52756Y-2779D01*
X83083D01*
X83227Y-2994D01*
X83878Y-3429D01*
X84646Y-3582D01*
X85414Y-3429D01*
X86065Y-2994D01*
X86500Y-2343D01*
X86653Y-1575D01*
X86500Y-807D01*
X86065Y-156D01*
X85414Y280D01*
X84646Y432D01*
X83878Y280D01*
X83227Y-156D01*
X83083Y-371D01*
X53255D01*
X852Y52033D01*
X461Y52294D01*
X0Y52385D01*
X-0Y52385D01*
X-62493D01*
X-70015Y59907D01*
X-70405Y60168D01*
X-70866Y60259D01*
X-70866Y60259D01*
X-86614D01*
X-86614Y60259D01*
X-87075Y60168D01*
X-87466Y59907D01*
X-93215Y54157D01*
X-95292D01*
X-95499Y54657D01*
X-88368Y61788D01*
X-69397D01*
X-61875Y54267D01*
X-61875Y54267D01*
X-61484Y54005D01*
X-61024Y53914D01*
X-61024Y53914D01*
X1470D01*
X51511Y3873D01*
X51511Y3873D01*
X51745Y3716D01*
X51901Y3612D01*
X52362Y3520D01*
X73240D01*
X73384Y3305D01*
X74035Y2870D01*
X74803Y2717D01*
X75571Y2870D01*
X76222Y3305D01*
X76657Y3956D01*
X76810Y4724D01*
X76657Y5492D01*
X76222Y6144D01*
X75571Y6579D01*
X74803Y6731D01*
X74035Y6579D01*
X73384Y6144D01*
X73240Y5929D01*
X52861D01*
X2820Y55970D01*
X2429Y56231D01*
X1969Y56322D01*
X1968Y56322D01*
X-60525D01*
X-68046Y63844D01*
X-68437Y64105D01*
X-68898Y64196D01*
X-68898Y64196D01*
X-88583D01*
X-89043Y64105D01*
X-89434Y63844D01*
X-89695Y63453D01*
X-89733Y63261D01*
X-93416Y59578D01*
X-93878Y59769D01*
Y61899D01*
X-90052Y65725D01*
X-67428D01*
X-59907Y58204D01*
X-59516Y57943D01*
X-59055Y57851D01*
X3438D01*
X50723Y10566D01*
X50723Y10566D01*
X51114Y10305D01*
X51575Y10213D01*
X63398D01*
X63541Y9998D01*
X64193Y9563D01*
X64961Y9410D01*
X65729Y9563D01*
X66380Y9998D01*
X66815Y10649D01*
X66968Y11417D01*
X66815Y12185D01*
X66380Y12836D01*
X65729Y13272D01*
X64961Y13424D01*
X64193Y13272D01*
X63541Y12836D01*
X63398Y12622D01*
X52074D01*
X4789Y59907D01*
X4398Y60168D01*
X3937Y60259D01*
X3937Y60259D01*
X-58556D01*
X-66078Y67781D01*
X-66468Y68042D01*
X-66929Y68133D01*
X-66929Y68133D01*
X-68732D01*
X-68901Y68596D01*
X-68894Y68633D01*
X-68266Y69053D01*
X-67831Y69704D01*
X-67678Y70472D01*
X-67831Y71241D01*
X-68266Y71892D01*
X-68917Y72327D01*
X-69685Y72479D01*
X-70453Y72327D01*
X-71104Y71892D01*
X-71248Y71677D01*
X-92520D01*
X-92980Y71585D01*
X-93371Y71324D01*
X-93371Y71324D01*
X-99277Y65418D01*
X-99538Y65028D01*
X-99629Y64567D01*
X-99629Y64567D01*
Y63856D01*
X-99678Y63827D01*
X-100178Y64110D01*
Y70276D01*
X-99678Y70544D01*
X-99673Y70541D01*
X-99213Y70449D01*
X-97638D01*
X-97177Y70541D01*
X-96786Y70802D01*
X-96525Y71193D01*
X-96434Y71653D01*
Y71845D01*
X-96220Y71974D01*
X-95934Y72056D01*
X-95355Y71669D01*
X-94587Y71517D01*
X-93818Y71669D01*
X-93167Y72104D01*
X-92732Y72756D01*
X-92580Y73524D01*
X-92732Y74292D01*
X-93167Y74943D01*
X-93354Y75067D01*
X-93202Y75567D01*
X55118D01*
X55118Y75567D01*
X55579Y75659D01*
X55970Y75920D01*
X85852Y105802D01*
X86113Y106193D01*
X86204Y106653D01*
X86204Y106654D01*
Y107449D01*
X86440Y107546D01*
X87036Y108004D01*
X87493Y108600D01*
X87781Y109294D01*
X87879Y110039D01*
X87781Y110784D01*
X87493Y111479D01*
X87036Y112075D01*
X86440Y112533D01*
X85745Y112820D01*
X85000Y112918D01*
X84255Y112820D01*
X83561Y112533D01*
X82964Y112075D01*
X82507Y111479D01*
X82219Y110784D01*
X82121Y110039D01*
X82219Y109294D01*
X82507Y108600D01*
X82964Y108004D01*
X83553Y107552D01*
X83562Y107537D01*
X83630Y106987D01*
X54619Y77976D01*
X-93989D01*
X-94818Y78804D01*
X-95117Y79004D01*
X-95056Y79451D01*
X-95034Y79504D01*
X49213D01*
X49213Y79504D01*
X49673Y79596D01*
X50064Y79857D01*
X75852Y105645D01*
X75852Y105645D01*
X76008Y105879D01*
X76113Y106035D01*
X76204Y106496D01*
Y107449D01*
X76439Y107546D01*
X77036Y108004D01*
X77493Y108600D01*
X77781Y109294D01*
X77879Y110039D01*
X77781Y110784D01*
X77493Y111479D01*
X77036Y112075D01*
X76439Y112533D01*
X75745Y112820D01*
X75000Y112918D01*
X74255Y112820D01*
X73561Y112533D01*
X72964Y112075D01*
X72507Y111479D01*
X72219Y110784D01*
X72121Y110039D01*
X72219Y109294D01*
X72507Y108600D01*
X72964Y108004D01*
X73561Y107546D01*
X73740Y107472D01*
X73788Y106987D01*
X53036Y86235D01*
X52575Y86481D01*
X52601Y86614D01*
X52433Y87459D01*
X51955Y88175D01*
X51239Y88654D01*
X51181Y88665D01*
Y86614D01*
X50394D01*
Y85827D01*
X48343D01*
X48354Y85769D01*
X48833Y85053D01*
X49549Y84575D01*
X50394Y84406D01*
X50527Y84433D01*
X50773Y83972D01*
X48714Y81913D01*
X-99195D01*
X-99387Y82375D01*
X-98320Y83441D01*
X43307D01*
X43307Y83441D01*
X43768Y83533D01*
X44159Y83794D01*
X47849Y87485D01*
X48005Y87402D01*
X49606D01*
Y89003D01*
X49523Y89159D01*
X65851Y105487D01*
X65851Y105487D01*
X66113Y105878D01*
X66204Y106339D01*
X66204Y106339D01*
Y107449D01*
X66439Y107546D01*
X67036Y108004D01*
X67493Y108600D01*
X67781Y109294D01*
X67879Y110039D01*
X67781Y110784D01*
X67493Y111479D01*
X67036Y112075D01*
X66439Y112533D01*
X65745Y112820D01*
X65000Y112918D01*
X64255Y112820D01*
X63560Y112533D01*
X62964Y112075D01*
X62507Y111479D01*
X62219Y110784D01*
X62121Y110039D01*
X62219Y109294D01*
X62507Y108600D01*
X62964Y108004D01*
X63560Y107546D01*
X63796Y107449D01*
Y106837D01*
X42808Y85850D01*
X-98014D01*
X-98206Y86312D01*
X-97139Y87378D01*
X37402D01*
X37402Y87378D01*
X37862Y87470D01*
X38253Y87731D01*
X55852Y105330D01*
X55852Y105330D01*
X56008Y105564D01*
X56113Y105720D01*
X56204Y106181D01*
Y107449D01*
X56440Y107546D01*
X57036Y108004D01*
X57493Y108600D01*
X57781Y109294D01*
X57879Y110039D01*
X57781Y110784D01*
X57493Y111479D01*
X57036Y112075D01*
X56440Y112533D01*
X55745Y112820D01*
X55000Y112918D01*
X54255Y112820D01*
X53561Y112533D01*
X52964Y112075D01*
X52507Y111479D01*
X52219Y110784D01*
X52121Y110039D01*
X52219Y109294D01*
X52507Y108600D01*
X52964Y108004D01*
X53561Y107546D01*
X53796Y107449D01*
Y106680D01*
X36903Y89787D01*
X-96833D01*
X-97025Y90249D01*
X-95958Y91315D01*
X-49213D01*
X-49213Y91315D01*
X-48752Y91407D01*
X-48361Y91668D01*
X-34148Y105881D01*
X-33887Y106272D01*
X-33796Y106732D01*
Y107449D01*
X-33560Y107546D01*
X-32964Y108004D01*
X-32507Y108600D01*
X-32219Y109294D01*
X-32121Y110039D01*
X-32219Y110784D01*
X-32507Y111479D01*
X-32964Y112075D01*
X-33560Y112533D01*
X-34255Y112820D01*
X-35000Y112918D01*
X-35745Y112820D01*
X-36439Y112533D01*
X-37036Y112075D01*
X-37493Y111479D01*
X-37781Y110784D01*
X-37879Y110039D01*
X-37781Y109294D01*
X-37493Y108600D01*
X-37036Y108004D01*
X-36514Y107603D01*
X-36436Y107278D01*
X-36433Y107002D01*
X-49711Y93724D01*
X-96386D01*
X-96512Y93893D01*
X-96614Y94202D01*
X-95564Y95252D01*
X-55118D01*
X-55118Y95252D01*
X-54657Y95344D01*
X-54267Y95605D01*
X-44148Y105723D01*
X-43887Y106114D01*
X-43796Y106575D01*
X-43796Y106575D01*
Y107449D01*
X-43560Y107546D01*
X-42964Y108004D01*
X-42507Y108600D01*
X-42219Y109294D01*
X-42121Y110039D01*
X-42219Y110784D01*
X-42507Y111479D01*
X-42964Y112075D01*
X-43560Y112533D01*
X-44255Y112820D01*
X-45000Y112918D01*
X-45745Y112820D01*
X-46439Y112533D01*
X-47036Y112075D01*
X-47493Y111479D01*
X-47781Y110784D01*
X-47879Y110039D01*
X-47781Y109294D01*
X-47493Y108600D01*
X-47036Y108004D01*
X-46439Y107546D01*
X-46355Y107511D01*
X-46291Y106987D01*
X-55617Y97661D01*
X-96063D01*
X-96561Y98072D01*
X-96576Y98177D01*
X-95564Y99190D01*
X-61024D01*
X-61024Y99189D01*
X-60563Y99281D01*
X-60172Y99542D01*
X-54149Y105566D01*
X-54149Y105566D01*
X-53887Y105956D01*
X-53796Y106417D01*
X-53796Y106417D01*
Y107449D01*
X-53561Y107546D01*
X-52964Y108004D01*
X-52507Y108600D01*
X-52219Y109294D01*
X-52121Y110039D01*
X-52219Y110784D01*
X-52507Y111479D01*
X-52964Y112075D01*
X-53561Y112533D01*
X-54255Y112820D01*
X-55000Y112918D01*
X-55745Y112820D01*
X-56440Y112533D01*
X-57036Y112075D01*
X-57493Y111479D01*
X-57781Y110784D01*
X-57879Y110039D01*
X-57781Y109294D01*
X-57493Y108600D01*
X-57036Y108004D01*
X-56440Y107546D01*
X-56204Y107449D01*
Y106916D01*
X-61522Y101598D01*
X-96063D01*
X-96063Y101598D01*
X-96561Y102009D01*
X-96576Y102114D01*
X-95564Y103127D01*
X-66929D01*
X-66929Y103127D01*
X-66468Y103218D01*
X-66078Y103479D01*
X-64148Y105408D01*
X-64148Y105408D01*
X-63887Y105799D01*
X-63796Y106260D01*
Y107449D01*
X-63560Y107546D01*
X-62964Y108004D01*
X-62507Y108600D01*
X-62219Y109294D01*
X-62121Y110039D01*
X-62219Y110784D01*
X-62507Y111479D01*
X-62964Y112075D01*
X-63560Y112533D01*
X-64255Y112820D01*
X-65000Y112918D01*
X-65745Y112820D01*
X-66439Y112533D01*
X-67036Y112075D01*
X-67493Y111479D01*
X-67781Y110784D01*
X-67879Y110039D01*
X-67781Y109294D01*
X-67493Y108600D01*
X-67036Y108004D01*
X-66439Y107546D01*
X-66204Y107449D01*
Y106759D01*
X-67428Y105535D01*
X-95992D01*
X-96118Y105703D01*
X-96220Y106013D01*
X-95065Y107169D01*
X-95000Y107160D01*
X-94255Y107258D01*
X-93560Y107546D01*
X-92964Y108004D01*
X-92507Y108600D01*
X-92219Y109294D01*
X-92121Y110039D01*
X-92219Y110784D01*
X-92507Y111479D01*
X-92964Y112075D01*
X-93560Y112533D01*
X-94255Y112820D01*
X-95000Y112918D01*
X-95745Y112820D01*
X-95827Y112786D01*
X-96110Y113210D01*
X-95564Y113756D01*
X21942D01*
X23069Y112629D01*
X23036Y112130D01*
X22964Y112075D01*
X22507Y111479D01*
X22219Y110784D01*
X22121Y110039D01*
X22219Y109294D01*
X22507Y108600D01*
X22964Y108004D01*
X23561Y107546D01*
X24255Y107258D01*
X25000Y107160D01*
X25745Y107258D01*
X26439Y107546D01*
X27036Y108004D01*
X27493Y108600D01*
X27781Y109294D01*
X27879Y110039D01*
X27781Y110784D01*
X27493Y111479D01*
X27036Y112075D01*
X26439Y112533D01*
X26155Y112651D01*
X26113Y112862D01*
X25852Y113253D01*
X25852Y113253D01*
X23478Y115626D01*
X23686Y116126D01*
X52796D01*
X52796Y116126D01*
X53103Y116187D01*
X53364Y116361D01*
X53717Y116715D01*
X53891Y116975D01*
X53952Y117283D01*
Y124016D01*
X53891Y124323D01*
X53812Y124442D01*
X53826Y124452D01*
X53911Y124545D01*
X54003Y124631D01*
X54122Y124797D01*
X54614Y124671D01*
X54687Y124623D01*
Y122047D01*
X54836Y120917D01*
X55272Y119863D01*
X55966Y118958D01*
X56871Y118264D01*
X57925Y117828D01*
X59055Y117679D01*
X60186Y117828D01*
X61239Y118264D01*
X62144Y118958D01*
X62838Y119863D01*
X63274Y120917D01*
X63423Y122047D01*
Y129921D01*
X63274Y131052D01*
X62838Y132105D01*
X62144Y133010D01*
X61239Y133704D01*
X60186Y134141D01*
X59055Y134289D01*
X57925Y134141D01*
X56871Y133704D01*
X55966Y133010D01*
X55272Y132105D01*
X54836Y131052D01*
X54766Y130518D01*
X54266Y130551D01*
X54251Y142410D01*
X54663Y142693D01*
X58493Y141215D01*
D02*
G37*
%LPC*%
G36*
X-51181Y-31807D02*
X-51239Y-31819D01*
X-51955Y-32297D01*
X-52433Y-33013D01*
X-52445Y-33071D01*
X-51181D01*
Y-31807D01*
D02*
G37*
G36*
X144114Y-30233D02*
Y-33071D01*
X145122D01*
Y-31398D01*
X145030Y-30937D01*
X144769Y-30546D01*
X144378Y-30285D01*
X144114Y-30233D01*
D02*
G37*
G36*
X142539D02*
X142275Y-30285D01*
X141885Y-30546D01*
X141624Y-30937D01*
X141532Y-31398D01*
Y-33071D01*
X142539D01*
Y-30233D01*
D02*
G37*
G36*
X-29528Y-27520D02*
X-30296Y-27673D01*
X-30947Y-28108D01*
X-31382Y-28760D01*
X-31535Y-29528D01*
X-31382Y-30296D01*
X-30947Y-30947D01*
X-30296Y-31382D01*
X-29528Y-31535D01*
X-28760Y-31382D01*
X-28108Y-30947D01*
X-27965Y-30732D01*
X-25925D01*
X-25916Y-30776D01*
X-25655Y-31166D01*
X-25264Y-31427D01*
X-24803Y-31519D01*
X-21063D01*
X-20602Y-31427D01*
X-20211Y-31166D01*
X-19950Y-30776D01*
X-19859Y-30315D01*
Y-28740D01*
X-19950Y-28279D01*
X-20211Y-27889D01*
X-20602Y-27628D01*
X-21063Y-27536D01*
X-24803D01*
X-25264Y-27628D01*
X-25655Y-27889D01*
X-25916Y-28279D01*
X-25925Y-28323D01*
X-27965D01*
X-28108Y-28108D01*
X-28760Y-27673D01*
X-29528Y-27520D01*
D02*
G37*
G36*
X-78740D02*
X-79508Y-27673D01*
X-80159Y-28108D01*
X-80594Y-28760D01*
X-80747Y-29528D01*
X-80594Y-30296D01*
X-80159Y-30947D01*
X-79508Y-31382D01*
X-78740Y-31535D01*
X-77972Y-31382D01*
X-77321Y-30947D01*
X-77177Y-30732D01*
X-75137D01*
X-75128Y-30776D01*
X-74867Y-31166D01*
X-74477Y-31427D01*
X-74016Y-31519D01*
X-70276D01*
X-69815Y-31427D01*
X-69424Y-31166D01*
X-69163Y-30776D01*
X-69071Y-30315D01*
Y-28740D01*
X-69163Y-28279D01*
X-69424Y-27889D01*
X-69815Y-27628D01*
X-70276Y-27536D01*
X-74016D01*
X-74477Y-27628D01*
X-74867Y-27889D01*
X-75128Y-28279D01*
X-75137Y-28323D01*
X-77177D01*
X-77321Y-28108D01*
X-77972Y-27673D01*
X-78740Y-27520D01*
D02*
G37*
G36*
X-49606Y-31807D02*
Y-33071D01*
X-48343D01*
X-48354Y-33013D01*
X-48833Y-32297D01*
X-49549Y-31819D01*
X-49606Y-31807D01*
D02*
G37*
G36*
X-48343Y-34646D02*
X-49606D01*
Y-35909D01*
X-49549Y-35898D01*
X-48833Y-35419D01*
X-48354Y-34703D01*
X-48343Y-34646D01*
D02*
G37*
G36*
X138917Y-30394D02*
X137736D01*
X137352Y-30470D01*
X137027Y-30688D01*
X136809Y-31014D01*
X136733Y-31398D01*
Y-36319D01*
X136809Y-36703D01*
X137027Y-37029D01*
X137352Y-37246D01*
X137736Y-37322D01*
X138917D01*
X139301Y-37246D01*
X139627Y-37029D01*
X139845Y-36703D01*
X139921Y-36319D01*
Y-31398D01*
X139845Y-31014D01*
X139627Y-30688D01*
X139301Y-30470D01*
X138917Y-30394D01*
D02*
G37*
G36*
X145122Y-34646D02*
X144114D01*
Y-37484D01*
X144378Y-37431D01*
X144769Y-37170D01*
X145030Y-36780D01*
X145122Y-36319D01*
Y-34646D01*
D02*
G37*
G36*
X142539D02*
X141532D01*
Y-36319D01*
X141624Y-36780D01*
X141885Y-37170D01*
X142275Y-37431D01*
X142539Y-37484D01*
Y-34646D01*
D02*
G37*
G36*
X-51181Y-34646D02*
X-52445D01*
X-52433Y-34703D01*
X-51955Y-35419D01*
X-51239Y-35898D01*
X-51181Y-35909D01*
Y-34646D01*
D02*
G37*
G36*
X-85000Y-17160D02*
X-85745Y-17258D01*
X-86440Y-17546D01*
X-87036Y-18004D01*
X-87493Y-18600D01*
X-87781Y-19294D01*
X-87879Y-20039D01*
X-87781Y-20785D01*
X-87493Y-21479D01*
X-87036Y-22075D01*
X-86440Y-22533D01*
X-85745Y-22820D01*
X-85000Y-22918D01*
X-84255Y-22820D01*
X-83561Y-22533D01*
X-82964Y-22075D01*
X-82507Y-21479D01*
X-82219Y-20785D01*
X-82121Y-20039D01*
X-82219Y-19294D01*
X-82507Y-18600D01*
X-82964Y-18004D01*
X-83561Y-17546D01*
X-84255Y-17258D01*
X-85000Y-17160D01*
D02*
G37*
G36*
X-75000D02*
X-75745Y-17258D01*
X-76439Y-17546D01*
X-77036Y-18004D01*
X-77493Y-18600D01*
X-77781Y-19294D01*
X-77879Y-20039D01*
X-77781Y-20785D01*
X-77493Y-21479D01*
X-77036Y-22075D01*
X-76439Y-22533D01*
X-75745Y-22820D01*
X-75000Y-22918D01*
X-74255Y-22820D01*
X-73561Y-22533D01*
X-72964Y-22075D01*
X-72507Y-21479D01*
X-72219Y-20785D01*
X-72121Y-20039D01*
X-72219Y-19294D01*
X-72507Y-18600D01*
X-72964Y-18004D01*
X-73561Y-17546D01*
X-74255Y-17258D01*
X-75000Y-17160D01*
D02*
G37*
G36*
X147720Y-27165D02*
X146457D01*
Y-28429D01*
X146514Y-28418D01*
X147230Y-27939D01*
X147709Y-27223D01*
X147720Y-27165D01*
D02*
G37*
G36*
X143307Y-24016D02*
X136614D01*
Y-28937D01*
X143307D01*
Y-27640D01*
X143807Y-27488D01*
X144108Y-27939D01*
X144824Y-28418D01*
X144882Y-28429D01*
Y-26378D01*
Y-24327D01*
X144824Y-24338D01*
X144108Y-24817D01*
X143807Y-25267D01*
X143307Y-25116D01*
Y-24016D01*
D02*
G37*
G36*
X125591Y-24409D02*
X124327D01*
X124338Y-24467D01*
X124817Y-25183D01*
X125533Y-25662D01*
X125591Y-25673D01*
Y-24409D01*
D02*
G37*
G36*
X-98819Y-26689D02*
Y-27953D01*
X-97555D01*
X-97567Y-27895D01*
X-98045Y-27179D01*
X-98761Y-26700D01*
X-98819Y-26689D01*
D02*
G37*
G36*
X-100394D02*
X-100451Y-26700D01*
X-101167Y-27179D01*
X-101646Y-27895D01*
X-101657Y-27953D01*
X-100394D01*
Y-26689D01*
D02*
G37*
G36*
X115437Y-24803D02*
X114173D01*
Y-26067D01*
X114231Y-26055D01*
X114947Y-25577D01*
X115426Y-24861D01*
X115437Y-24803D01*
D02*
G37*
G36*
X146457Y-24327D02*
Y-25591D01*
X147720D01*
X147709Y-25533D01*
X147230Y-24817D01*
X146514Y-24338D01*
X146457Y-24327D01*
D02*
G37*
G36*
X114173Y-21965D02*
Y-23228D01*
X115437D01*
X115426Y-23171D01*
X114947Y-22455D01*
X114231Y-21976D01*
X114173Y-21965D01*
D02*
G37*
G36*
X78740Y-27520D02*
X77972Y-27673D01*
X77321Y-28108D01*
X76886Y-28760D01*
X76733Y-29528D01*
X76886Y-30296D01*
X77321Y-30947D01*
X77972Y-31382D01*
X78740Y-31535D01*
X79508Y-31382D01*
X80159Y-30947D01*
X80303Y-30732D01*
X82343D01*
X82352Y-30776D01*
X82613Y-31166D01*
X83004Y-31427D01*
X83465Y-31519D01*
X87205D01*
X87666Y-31427D01*
X88056Y-31166D01*
X88317Y-30776D01*
X88409Y-30315D01*
Y-28740D01*
X88317Y-28279D01*
X88056Y-27889D01*
X87666Y-27628D01*
X87205Y-27536D01*
X83465D01*
X83004Y-27628D01*
X82613Y-27889D01*
X82352Y-28279D01*
X82343Y-28323D01*
X80303D01*
X80159Y-28108D01*
X79508Y-27673D01*
X78740Y-27520D01*
D02*
G37*
G36*
X112598Y-24803D02*
X111335D01*
X111346Y-24861D01*
X111825Y-25577D01*
X112541Y-26055D01*
X112598Y-26067D01*
Y-24803D01*
D02*
G37*
G36*
X-97555Y-29528D02*
X-98819D01*
Y-30791D01*
X-98761Y-30780D01*
X-98045Y-30301D01*
X-97567Y-29585D01*
X-97555Y-29528D01*
D02*
G37*
G36*
X112598Y-21965D02*
X112541Y-21976D01*
X111825Y-22455D01*
X111346Y-23171D01*
X111335Y-23228D01*
X112598D01*
Y-21965D01*
D02*
G37*
G36*
X-100394Y-29528D02*
X-101657D01*
X-101646Y-29585D01*
X-101167Y-30301D01*
X-100451Y-30780D01*
X-100394Y-30791D01*
Y-29528D01*
D02*
G37*
G36*
X124311Y-51968D02*
X123343D01*
X123395Y-52232D01*
X123656Y-52623D01*
X124047Y-52884D01*
X124311Y-52937D01*
Y-51968D01*
D02*
G37*
G36*
X-100394Y-51143D02*
X-101162Y-51295D01*
X-101813Y-51730D01*
X-102248Y-52381D01*
X-102401Y-53150D01*
X-102248Y-53918D01*
X-101813Y-54569D01*
X-101162Y-55004D01*
X-100394Y-55157D01*
X-99626Y-55004D01*
X-98975Y-54569D01*
X-98539Y-53918D01*
X-98387Y-53150D01*
X-98539Y-52381D01*
X-98975Y-51730D01*
X-99626Y-51295D01*
X-100394Y-51143D01*
D02*
G37*
G36*
X129823Y-49587D02*
X128642D01*
X128258Y-49663D01*
X127932Y-49881D01*
X127715Y-50207D01*
X127638Y-50591D01*
Y-51772D01*
X127715Y-52156D01*
X127932Y-52481D01*
X128028Y-52545D01*
Y-53754D01*
X127932Y-53818D01*
X127715Y-54144D01*
X127638Y-54528D01*
Y-55709D01*
X127715Y-56093D01*
X127932Y-56418D01*
X128258Y-56636D01*
X128642Y-56712D01*
X129823D01*
X130207Y-56636D01*
X130532Y-56418D01*
X130750Y-56093D01*
X130826Y-55709D01*
Y-54528D01*
X130750Y-54144D01*
X130532Y-53818D01*
X130437Y-53754D01*
Y-52545D01*
X130532Y-52481D01*
X130750Y-52156D01*
X130826Y-51772D01*
Y-50591D01*
X130750Y-50207D01*
X130532Y-49881D01*
X130207Y-49663D01*
X129823Y-49587D01*
D02*
G37*
G36*
X126854Y-51968D02*
X125886D01*
Y-52937D01*
X126150Y-52884D01*
X126541Y-52623D01*
X126802Y-52232D01*
X126854Y-51968D01*
D02*
G37*
G36*
X125886Y-49426D02*
Y-50394D01*
X126854D01*
X126802Y-50130D01*
X126541Y-49739D01*
X126150Y-49478D01*
X125886Y-49426D01*
D02*
G37*
G36*
X124311D02*
X124047Y-49478D01*
X123656Y-49739D01*
X123395Y-50130D01*
X123343Y-50394D01*
X124311D01*
Y-49426D01*
D02*
G37*
G36*
X-108268Y-51143D02*
X-109036Y-51295D01*
X-109687Y-51730D01*
X-109935Y-52103D01*
X-110537D01*
X-110785Y-51730D01*
X-111437Y-51295D01*
X-112205Y-51143D01*
X-112973Y-51295D01*
X-113624Y-51730D01*
X-113873Y-52103D01*
X-114474D01*
X-114723Y-51730D01*
X-115374Y-51295D01*
X-116142Y-51143D01*
X-116910Y-51295D01*
X-117561Y-51730D01*
X-117810Y-52103D01*
X-118411D01*
X-118659Y-51730D01*
X-119311Y-51295D01*
X-120079Y-51143D01*
X-120847Y-51295D01*
X-121498Y-51730D01*
X-121933Y-52381D01*
X-122086Y-53150D01*
X-121933Y-53918D01*
X-121498Y-54569D01*
X-120847Y-55004D01*
X-120079Y-55157D01*
X-119311Y-55004D01*
X-118659Y-54569D01*
X-118411Y-54197D01*
X-117810D01*
X-117561Y-54569D01*
X-116910Y-55004D01*
X-116142Y-55157D01*
X-115374Y-55004D01*
X-114723Y-54569D01*
X-114474Y-54197D01*
X-113873D01*
X-113624Y-54569D01*
X-112973Y-55004D01*
X-112205Y-55157D01*
X-111437Y-55004D01*
X-110785Y-54569D01*
X-110537Y-54197D01*
X-109935D01*
X-109687Y-54569D01*
X-109036Y-55004D01*
X-108268Y-55157D01*
X-107500Y-55004D01*
X-106849Y-54569D01*
X-106413Y-53918D01*
X-106261Y-53150D01*
X-106413Y-52381D01*
X-106849Y-51730D01*
X-107500Y-51295D01*
X-108268Y-51143D01*
D02*
G37*
G36*
X787Y-62122D02*
Y-63386D01*
X2051D01*
X2040Y-63328D01*
X1561Y-62612D01*
X845Y-62134D01*
X787Y-62122D01*
D02*
G37*
G36*
X-787D02*
X-845Y-62134D01*
X-1561Y-62612D01*
X-2040Y-63328D01*
X-2051Y-63386D01*
X-787D01*
Y-62122D01*
D02*
G37*
G36*
X2051Y-64961D02*
X787D01*
Y-66224D01*
X845Y-66213D01*
X1561Y-65734D01*
X2040Y-65018D01*
X2051Y-64961D01*
D02*
G37*
G36*
X-34646Y-59449D02*
X-35909D01*
X-35898Y-59506D01*
X-35419Y-60223D01*
X-34703Y-60701D01*
X-34646Y-60713D01*
Y-59449D01*
D02*
G37*
G36*
X-33071Y-56610D02*
Y-57874D01*
X-31807D01*
X-31819Y-57816D01*
X-32297Y-57100D01*
X-33013Y-56622D01*
X-33071Y-56610D01*
D02*
G37*
G36*
X-34646D02*
X-34703Y-56622D01*
X-35419Y-57100D01*
X-35898Y-57816D01*
X-35909Y-57874D01*
X-34646D01*
Y-56610D01*
D02*
G37*
G36*
X-31807Y-59449D02*
X-33071D01*
Y-60713D01*
X-33013Y-60701D01*
X-32297Y-60223D01*
X-31819Y-59506D01*
X-31807Y-59449D01*
D02*
G37*
G36*
X-92043Y-40551D02*
X-93307D01*
Y-41815D01*
X-93250Y-41804D01*
X-92533Y-41325D01*
X-92055Y-40609D01*
X-92043Y-40551D01*
D02*
G37*
G36*
X-94882D02*
X-96146D01*
X-96134Y-40609D01*
X-95656Y-41325D01*
X-94939Y-41804D01*
X-94882Y-41815D01*
Y-40551D01*
D02*
G37*
G36*
X144965Y-41339D02*
X143701D01*
Y-42602D01*
X143758Y-42591D01*
X144474Y-42112D01*
X144953Y-41396D01*
X144965Y-41339D01*
D02*
G37*
G36*
X142126Y-38500D02*
X142069Y-38511D01*
X141352Y-38990D01*
X140874Y-39706D01*
X140862Y-39764D01*
X142126D01*
Y-38500D01*
D02*
G37*
G36*
X-93307Y-37713D02*
Y-38976D01*
X-92043D01*
X-92055Y-38919D01*
X-92533Y-38203D01*
X-93250Y-37724D01*
X-93307Y-37713D01*
D02*
G37*
G36*
X-94882D02*
X-94939Y-37724D01*
X-95656Y-38203D01*
X-96134Y-38919D01*
X-96146Y-38976D01*
X-94882D01*
Y-37713D01*
D02*
G37*
G36*
X143701Y-38500D02*
Y-39764D01*
X144965D01*
X144953Y-39706D01*
X144474Y-38990D01*
X143758Y-38511D01*
X143701Y-38500D01*
D02*
G37*
G36*
X113567Y-44390D02*
X112598D01*
Y-45358D01*
X112862Y-45305D01*
X113253Y-45044D01*
X113514Y-44654D01*
X113567Y-44390D01*
D02*
G37*
G36*
X111024D02*
X110055D01*
X110108Y-44654D01*
X110369Y-45044D01*
X110760Y-45305D01*
X111024Y-45358D01*
Y-44390D01*
D02*
G37*
G36*
X127248Y-44488D02*
X125984D01*
Y-45752D01*
X126042Y-45741D01*
X126758Y-45262D01*
X127237Y-44546D01*
X127248Y-44488D01*
D02*
G37*
G36*
X125984Y-41650D02*
Y-42913D01*
X127248D01*
X127237Y-42856D01*
X126758Y-42140D01*
X126042Y-41661D01*
X125984Y-41650D01*
D02*
G37*
G36*
X142126Y-41339D02*
X140862D01*
X140874Y-41396D01*
X141352Y-42112D01*
X142069Y-42591D01*
X142126Y-42602D01*
Y-41339D01*
D02*
G37*
G36*
X112598Y-41847D02*
Y-42815D01*
X113567D01*
X113514Y-42551D01*
X113253Y-42160D01*
X112862Y-41899D01*
X112598Y-41847D01*
D02*
G37*
G36*
X111024Y-41847D02*
X110760Y-41899D01*
X110369Y-42160D01*
X110108Y-42551D01*
X110055Y-42815D01*
X111024D01*
Y-41847D01*
D02*
G37*
G36*
X-145276Y6775D02*
Y5512D01*
X-144012D01*
X-144023Y5569D01*
X-144502Y6285D01*
X-145218Y6764D01*
X-145276Y6775D01*
D02*
G37*
G36*
X-146850D02*
X-146908Y6764D01*
X-147624Y6285D01*
X-148103Y5569D01*
X-148114Y5512D01*
X-146850D01*
Y6775D01*
D02*
G37*
G36*
X139764Y5988D02*
Y4724D01*
X141027D01*
X141016Y4782D01*
X140538Y5498D01*
X139821Y5977D01*
X139764Y5988D01*
D02*
G37*
G36*
X-60630Y6775D02*
X-60687Y6764D01*
X-61404Y6285D01*
X-61882Y5569D01*
X-61894Y5512D01*
X-60630D01*
Y6775D01*
D02*
G37*
G36*
X121673Y17323D02*
X120666D01*
Y15650D01*
X120757Y15189D01*
X121019Y14798D01*
X121409Y14537D01*
X121673Y14484D01*
Y17323D01*
D02*
G37*
G36*
X113051Y21574D02*
X111870D01*
X111486Y21498D01*
X111161Y21281D01*
X110943Y20955D01*
X110867Y20571D01*
Y18913D01*
X110792Y18801D01*
X110654Y18110D01*
Y14601D01*
X110192Y14410D01*
X109267Y15335D01*
Y18110D01*
X109130Y18801D01*
X109055Y18913D01*
Y20571D01*
X108978Y20955D01*
X108761Y21281D01*
X108435Y21498D01*
X108051Y21574D01*
X106870D01*
X106486Y21498D01*
X106160Y21281D01*
X105943Y20955D01*
X105867Y20571D01*
Y18913D01*
X105792Y18801D01*
X105654Y18110D01*
Y14587D01*
X105792Y13895D01*
X106183Y13309D01*
X109648Y9845D01*
X110234Y9453D01*
X110925Y9316D01*
X126999D01*
X127170Y9060D01*
X127642Y8744D01*
X128199Y8634D01*
X133219D01*
X133775Y8744D01*
X134247Y9060D01*
X134563Y9532D01*
X134674Y10089D01*
Y12156D01*
X134563Y12712D01*
X134247Y13184D01*
X133775Y13500D01*
X133219Y13611D01*
X128199D01*
X127642Y13500D01*
X127170Y13184D01*
X126999Y12928D01*
X114528D01*
X114267Y13189D01*
Y18110D01*
X114129Y18801D01*
X114055Y18913D01*
Y20571D01*
X113978Y20955D01*
X113761Y21281D01*
X113435Y21498D01*
X113051Y21574D01*
D02*
G37*
G36*
X-59055Y6775D02*
Y5512D01*
X-57791D01*
X-57803Y5569D01*
X-58281Y6285D01*
X-58998Y6764D01*
X-59055Y6775D01*
D02*
G37*
G36*
X-146850Y3937D02*
X-148114D01*
X-148103Y3880D01*
X-147624Y3163D01*
X-146908Y2685D01*
X-146850Y2673D01*
Y3937D01*
D02*
G37*
G36*
X141027Y3150D02*
X139764D01*
Y1886D01*
X139821Y1897D01*
X140538Y2376D01*
X141016Y3092D01*
X141027Y3150D01*
D02*
G37*
G36*
X138189D02*
X136925D01*
X136937Y3092D01*
X137415Y2376D01*
X138131Y1897D01*
X138189Y1886D01*
Y3150D01*
D02*
G37*
G36*
X-144012Y3937D02*
X-145276D01*
Y2673D01*
X-145218Y2685D01*
X-144502Y3163D01*
X-144023Y3880D01*
X-144012Y3937D01*
D02*
G37*
G36*
X138189Y5988D02*
X138131Y5977D01*
X137415Y5498D01*
X136937Y4782D01*
X136925Y4724D01*
X138189D01*
Y5988D01*
D02*
G37*
G36*
X-57791Y3937D02*
X-59055D01*
Y2673D01*
X-58998Y2685D01*
X-58281Y3163D01*
X-57803Y3880D01*
X-57791Y3937D01*
D02*
G37*
G36*
X-60630D02*
X-61894D01*
X-61882Y3880D01*
X-61404Y3163D01*
X-60687Y2685D01*
X-60630Y2673D01*
Y3937D01*
D02*
G37*
G36*
X138976Y18980D02*
Y17717D01*
X140240D01*
X140229Y17774D01*
X139750Y18490D01*
X139034Y18969D01*
X138976Y18980D01*
D02*
G37*
G36*
X137402D02*
X137344Y18969D01*
X136628Y18490D01*
X136149Y17774D01*
X136138Y17717D01*
X137402D01*
Y18980D01*
D02*
G37*
G36*
X-20390Y17717D02*
X-21654D01*
Y16453D01*
X-21596Y16464D01*
X-20880Y16943D01*
X-20401Y17659D01*
X-20390Y17717D01*
D02*
G37*
G36*
X145276Y19374D02*
X145218Y19363D01*
X144502Y18884D01*
X144023Y18168D01*
X144012Y18110D01*
X145276D01*
Y19374D01*
D02*
G37*
G36*
X134874Y20374D02*
X131496D01*
Y18472D01*
X133219D01*
X133852Y18598D01*
X134389Y18957D01*
X134748Y19494D01*
X134874Y20128D01*
Y20374D01*
D02*
G37*
G36*
X129921D02*
X126543D01*
Y20128D01*
X126669Y19494D01*
X127028Y18957D01*
X127565Y18598D01*
X128199Y18472D01*
X129921D01*
Y20374D01*
D02*
G37*
G36*
X146850Y19374D02*
Y18110D01*
X148114D01*
X148103Y18168D01*
X147624Y18884D01*
X146908Y19363D01*
X146850Y19374D01*
D02*
G37*
G36*
X137402Y16142D02*
X136138D01*
X136149Y16084D01*
X136628Y15368D01*
X137344Y14889D01*
X137402Y14878D01*
Y16142D01*
D02*
G37*
G36*
X118051Y21574D02*
X116870D01*
X116486Y21498D01*
X116161Y21281D01*
X115943Y20955D01*
X115867Y20571D01*
Y15650D01*
X115943Y15266D01*
X116161Y14940D01*
X116486Y14723D01*
X116870Y14646D01*
X118051D01*
X118435Y14723D01*
X118761Y14940D01*
X118978Y15266D01*
X119055Y15650D01*
Y20571D01*
X118978Y20955D01*
X118761Y21281D01*
X118435Y21498D01*
X118051Y21574D01*
D02*
G37*
G36*
X124255Y17323D02*
X123248D01*
Y14484D01*
X123512Y14537D01*
X123903Y14798D01*
X124164Y15189D01*
X124255Y15650D01*
Y17323D01*
D02*
G37*
G36*
X140240Y16142D02*
X138976D01*
Y14878D01*
X139034Y14889D01*
X139750Y15368D01*
X140229Y16084D01*
X140240Y16142D01*
D02*
G37*
G36*
X-23228Y17717D02*
X-24492D01*
X-24481Y17659D01*
X-24002Y16943D01*
X-23286Y16464D01*
X-23228Y16453D01*
Y17717D01*
D02*
G37*
G36*
X148114Y16535D02*
X146850D01*
Y15272D01*
X146908Y15283D01*
X147624Y15762D01*
X148103Y16478D01*
X148114Y16535D01*
D02*
G37*
G36*
X145276D02*
X144012D01*
X144023Y16478D01*
X144502Y15762D01*
X145218Y15283D01*
X145276Y15272D01*
Y16535D01*
D02*
G37*
G36*
X146850Y432D02*
X146082Y280D01*
X145431Y-156D01*
X145288Y-371D01*
X144376D01*
X144312Y-275D01*
X143986Y-57D01*
X143602Y19D01*
X142421D01*
X142037Y-57D01*
X141712Y-275D01*
X141494Y-600D01*
X141418Y-984D01*
Y-2165D01*
X141494Y-2549D01*
X141712Y-2875D01*
X141808Y-2939D01*
Y-4148D01*
X141712Y-4212D01*
X141494Y-4537D01*
X141418Y-4921D01*
Y-6102D01*
X141494Y-6486D01*
X141712Y-6812D01*
X142037Y-7029D01*
X142122Y-7046D01*
Y-9364D01*
X142027Y-9428D01*
X141809Y-9754D01*
X141733Y-10138D01*
Y-15059D01*
X141809Y-15443D01*
X142027Y-15769D01*
X142352Y-15986D01*
X142736Y-16063D01*
X143917D01*
X144301Y-15986D01*
X144627Y-15769D01*
X144844Y-15443D01*
X144921Y-15059D01*
Y-10138D01*
X144844Y-9754D01*
X144627Y-9428D01*
X144531Y-9364D01*
Y-6479D01*
X144606Y-6102D01*
Y-4921D01*
X144529Y-4537D01*
X144312Y-4212D01*
X144216Y-4148D01*
Y-2939D01*
X144312Y-2875D01*
X144376Y-2779D01*
X145288D01*
X145431Y-2994D01*
X146082Y-3429D01*
X146850Y-3582D01*
X147618Y-3429D01*
X148270Y-2994D01*
X148705Y-2343D01*
X148857Y-1575D01*
X148705Y-807D01*
X148270Y-156D01*
X147618Y280D01*
X146850Y432D01*
D02*
G37*
G36*
X135039Y-17520D02*
X128347D01*
Y-21839D01*
X127847Y-21999D01*
X127223Y-21582D01*
X127165Y-21571D01*
Y-23622D01*
Y-25673D01*
X127223Y-25662D01*
X127847Y-25245D01*
X128347Y-25405D01*
Y-28937D01*
X135039D01*
Y-23228D01*
Y-17520D01*
D02*
G37*
G36*
X147720Y-21260D02*
X146457D01*
Y-22524D01*
X146514Y-22512D01*
X147230Y-22034D01*
X147709Y-21317D01*
X147720Y-21260D01*
D02*
G37*
G36*
X143307Y-17520D02*
X136614D01*
Y-22441D01*
X143307D01*
Y-21735D01*
X143807Y-21583D01*
X144108Y-22034D01*
X144824Y-22512D01*
X144882Y-22524D01*
Y-20472D01*
Y-18421D01*
X144824Y-18433D01*
X144108Y-18911D01*
X143807Y-19362D01*
X143307Y-19210D01*
Y-17520D01*
D02*
G37*
G36*
X120079Y-19783D02*
X116700D01*
Y-20030D01*
X116826Y-20663D01*
X117185Y-21200D01*
X117723Y-21559D01*
X118356Y-21685D01*
X120079D01*
Y-19783D01*
D02*
G37*
G36*
Y-16307D02*
X118356D01*
X117723Y-16433D01*
X117185Y-16792D01*
X116826Y-17329D01*
X116700Y-17963D01*
Y-18209D01*
X120079D01*
Y-16307D01*
D02*
G37*
G36*
X146457Y-18421D02*
Y-19685D01*
X147720D01*
X147709Y-19628D01*
X147230Y-18911D01*
X146514Y-18433D01*
X146457Y-18421D01*
D02*
G37*
G36*
X125032Y-19783D02*
X121654D01*
Y-21685D01*
X123376D01*
X124010Y-21559D01*
X124547Y-21200D01*
X124906Y-20663D01*
X125032Y-20030D01*
Y-19783D01*
D02*
G37*
G36*
X75000Y-17160D02*
X74255Y-17258D01*
X73561Y-17546D01*
X72964Y-18004D01*
X72507Y-18600D01*
X72219Y-19294D01*
X72121Y-20039D01*
X72219Y-20785D01*
X72507Y-21479D01*
X72964Y-22075D01*
X73561Y-22533D01*
X74255Y-22820D01*
X75000Y-22918D01*
X75745Y-22820D01*
X76439Y-22533D01*
X77036Y-22075D01*
X77493Y-21479D01*
X77781Y-20785D01*
X77879Y-20039D01*
X77781Y-19294D01*
X77493Y-18600D01*
X77036Y-18004D01*
X76439Y-17546D01*
X75745Y-17258D01*
X75000Y-17160D01*
D02*
G37*
G36*
X65000D02*
X64255Y-17258D01*
X63560Y-17546D01*
X62964Y-18004D01*
X62507Y-18600D01*
X62219Y-19294D01*
X62121Y-20039D01*
X62219Y-20785D01*
X62507Y-21479D01*
X62964Y-22075D01*
X63560Y-22533D01*
X64255Y-22820D01*
X65000Y-22918D01*
X65745Y-22820D01*
X66439Y-22533D01*
X67036Y-22075D01*
X67493Y-21479D01*
X67781Y-20785D01*
X67879Y-20039D01*
X67781Y-19294D01*
X67493Y-18600D01*
X67036Y-18004D01*
X66439Y-17546D01*
X65745Y-17258D01*
X65000Y-17160D01*
D02*
G37*
G36*
X-65000D02*
X-65745Y-17258D01*
X-66439Y-17546D01*
X-67036Y-18004D01*
X-67493Y-18600D01*
X-67781Y-19294D01*
X-67879Y-20039D01*
X-67781Y-20785D01*
X-67493Y-21479D01*
X-67036Y-22075D01*
X-66439Y-22533D01*
X-65745Y-22820D01*
X-65000Y-22918D01*
X-64255Y-22820D01*
X-63560Y-22533D01*
X-62964Y-22075D01*
X-62507Y-21479D01*
X-62219Y-20785D01*
X-62121Y-20039D01*
X-62219Y-19294D01*
X-62507Y-18600D01*
X-62964Y-18004D01*
X-63560Y-17546D01*
X-64255Y-17258D01*
X-65000Y-17160D01*
D02*
G37*
G36*
X85000D02*
X84255Y-17258D01*
X83561Y-17546D01*
X82964Y-18004D01*
X82507Y-18600D01*
X82219Y-19294D01*
X82121Y-20039D01*
X82219Y-20785D01*
X82507Y-21479D01*
X82964Y-22075D01*
X83561Y-22533D01*
X84255Y-22820D01*
X85000Y-22918D01*
X85745Y-22820D01*
X86440Y-22533D01*
X87036Y-22075D01*
X87493Y-21479D01*
X87781Y-20785D01*
X87879Y-20039D01*
X87781Y-19294D01*
X87493Y-18600D01*
X87036Y-18004D01*
X86440Y-17546D01*
X85745Y-17258D01*
X85000Y-17160D01*
D02*
G37*
G36*
X125591Y-21571D02*
X125533Y-21582D01*
X124817Y-22061D01*
X124338Y-22777D01*
X124327Y-22835D01*
X125591D01*
Y-21571D01*
D02*
G37*
G36*
X-92146Y-17185D02*
X-97854D01*
Y-22894D01*
X-92146D01*
Y-17185D01*
D02*
G37*
G36*
X95000Y-17160D02*
X94255Y-17258D01*
X93560Y-17546D01*
X92964Y-18004D01*
X92507Y-18600D01*
X92219Y-19294D01*
X92121Y-20039D01*
X92219Y-20785D01*
X92507Y-21479D01*
X92964Y-22075D01*
X93560Y-22533D01*
X94255Y-22820D01*
X95000Y-22918D01*
X95745Y-22820D01*
X96439Y-22533D01*
X97036Y-22075D01*
X97493Y-21479D01*
X97781Y-20785D01*
X97879Y-20039D01*
X97781Y-19294D01*
X97493Y-18600D01*
X97036Y-18004D01*
X96439Y-17546D01*
X95745Y-17258D01*
X95000Y-17160D01*
D02*
G37*
G36*
X31579Y-4331D02*
X30315D01*
Y-5594D01*
X30372Y-5583D01*
X31089Y-5104D01*
X31567Y-4388D01*
X31579Y-4331D01*
D02*
G37*
G36*
X28740D02*
X27476D01*
X27488Y-4388D01*
X27966Y-5104D01*
X28683Y-5583D01*
X28740Y-5594D01*
Y-4331D01*
D02*
G37*
G36*
X118110Y6725D02*
X116798Y6596D01*
X115537Y6213D01*
X114374Y5592D01*
X113355Y4755D01*
X112518Y3736D01*
X111897Y2574D01*
X111514Y1312D01*
X111385Y0D01*
X111514Y-1312D01*
X111897Y-2574D01*
X112518Y-3736D01*
X113355Y-4755D01*
X114374Y-5592D01*
X115537Y-6213D01*
X116798Y-6596D01*
X118110Y-6725D01*
X119422Y-6596D01*
X120684Y-6213D01*
X121847Y-5592D01*
X122866Y-4755D01*
X123702Y-3736D01*
X124324Y-2574D01*
X124706Y-1312D01*
X124836Y0D01*
X124706Y1312D01*
X124324Y2574D01*
X123702Y3736D01*
X122866Y4755D01*
X121847Y5592D01*
X120684Y6213D01*
X119422Y6596D01*
X118110Y6725D01*
D02*
G37*
G36*
X28740Y-1492D02*
X28683Y-1504D01*
X27966Y-1982D01*
X27488Y-2698D01*
X27476Y-2756D01*
X28740D01*
Y-1492D01*
D02*
G37*
G36*
X139665Y181D02*
Y-787D01*
X140634D01*
X140581Y-523D01*
X140320Y-133D01*
X139929Y128D01*
X139665Y181D01*
D02*
G37*
G36*
X138091D02*
X137827Y128D01*
X137436Y-133D01*
X137175Y-523D01*
X137122Y-787D01*
X138091D01*
Y181D01*
D02*
G37*
G36*
X30315Y-1492D02*
Y-2756D01*
X31579D01*
X31567Y-2698D01*
X31089Y-1982D01*
X30372Y-1504D01*
X30315Y-1492D01*
D02*
G37*
G36*
X134252Y-749D02*
X133484Y-902D01*
X132833Y-1337D01*
X132398Y-1988D01*
X132245Y-2756D01*
X132398Y-3524D01*
X132833Y-4175D01*
X133048Y-4319D01*
Y-5118D01*
X133048Y-5118D01*
X133139Y-5579D01*
X133400Y-5970D01*
X136960Y-9529D01*
X136809Y-9754D01*
X136733Y-10138D01*
Y-15059D01*
X136809Y-15443D01*
X137027Y-15769D01*
X137352Y-15986D01*
X137736Y-16063D01*
X138917D01*
X139301Y-15986D01*
X139627Y-15769D01*
X139845Y-15443D01*
X139921Y-15059D01*
Y-10138D01*
X139845Y-9754D01*
X139627Y-9428D01*
X139531Y-9364D01*
Y-9193D01*
X139531Y-9193D01*
X139439Y-8732D01*
X139178Y-8341D01*
X139178Y-8341D01*
X138644Y-7807D01*
X138851Y-7307D01*
X139469D01*
X139929Y-7215D01*
X140320Y-6954D01*
X140581Y-6563D01*
X140634Y-6299D01*
X138878D01*
Y-4724D01*
X140634D01*
X140581Y-4460D01*
X140320Y-4070D01*
X139929Y-3809D01*
X139877Y-3798D01*
Y-3288D01*
X139929Y-3278D01*
X140320Y-3017D01*
X140581Y-2626D01*
X140634Y-2362D01*
X137122D01*
X137175Y-2626D01*
X137436Y-3017D01*
X137827Y-3278D01*
X137879Y-3288D01*
Y-3798D01*
X137827Y-3809D01*
X137436Y-4070D01*
X137175Y-4460D01*
X137083Y-4921D01*
Y-5539D01*
X136583Y-5746D01*
X135598Y-4761D01*
X135641Y-4196D01*
X135671Y-4175D01*
X136106Y-3524D01*
X136259Y-2756D01*
X136106Y-1988D01*
X135671Y-1337D01*
X135020Y-902D01*
X134252Y-749D01*
D02*
G37*
G36*
X133917Y-9134D02*
X132736D01*
X132352Y-9211D01*
X132027Y-9428D01*
X131809Y-9754D01*
X131733Y-10138D01*
Y-15059D01*
X131809Y-15443D01*
X132027Y-15769D01*
X132352Y-15986D01*
X132736Y-16063D01*
X133917D01*
X134301Y-15986D01*
X134627Y-15769D01*
X134845Y-15443D01*
X134921Y-15059D01*
Y-10138D01*
X134845Y-9754D01*
X134627Y-9428D01*
X134301Y-9211D01*
X133917Y-9134D01*
D02*
G37*
G36*
X123376Y-16307D02*
X121654D01*
Y-18209D01*
X125032D01*
Y-17963D01*
X124906Y-17329D01*
X124547Y-16792D01*
X124010Y-16433D01*
X123376Y-16307D01*
D02*
G37*
G36*
X-129134Y-12992D02*
X-130398D01*
X-130386Y-13050D01*
X-129908Y-13766D01*
X-129191Y-14244D01*
X-129134Y-14256D01*
Y-12992D01*
D02*
G37*
G36*
X-127559Y-10154D02*
Y-11417D01*
X-126295D01*
X-126307Y-11360D01*
X-126785Y-10644D01*
X-127502Y-10165D01*
X-127559Y-10154D01*
D02*
G37*
G36*
X-129134D02*
X-129191Y-10165D01*
X-129908Y-10644D01*
X-130386Y-11360D01*
X-130398Y-11417D01*
X-129134D01*
Y-10154D01*
D02*
G37*
G36*
X-126295Y-12992D02*
X-127559D01*
Y-14256D01*
X-127502Y-14244D01*
X-126785Y-13766D01*
X-126307Y-13050D01*
X-126295Y-12992D01*
D02*
G37*
G36*
X-787Y-64961D02*
X-2051D01*
X-2040Y-65018D01*
X-1561Y-65734D01*
X-845Y-66213D01*
X-787Y-66224D01*
Y-64961D01*
D02*
G37*
G36*
X17799Y-96063D02*
X13697D01*
X13708Y-96121D01*
X14187Y-96837D01*
X14872Y-97294D01*
X14877Y-97331D01*
X14601Y-97794D01*
X14272D01*
X13465Y-97955D01*
X12781Y-98411D01*
X12325Y-99095D01*
X12164Y-99902D01*
Y-100591D01*
X19332D01*
Y-99902D01*
X19171Y-99095D01*
X18715Y-98411D01*
X18031Y-97955D01*
X17224Y-97794D01*
X16895D01*
X16619Y-97331D01*
X16624Y-97294D01*
X17309Y-96837D01*
X17788Y-96121D01*
X17799Y-96063D01*
D02*
G37*
G36*
X-25508Y-96457D02*
X-29610D01*
X-29599Y-96514D01*
X-29120Y-97230D01*
X-29025Y-97294D01*
X-29030Y-97521D01*
X-29144Y-97816D01*
X-29842Y-97955D01*
X-30526Y-98411D01*
X-30982Y-99095D01*
X-31143Y-99902D01*
Y-100591D01*
X-23975D01*
Y-99902D01*
X-24136Y-99095D01*
X-24592Y-98411D01*
X-25276Y-97955D01*
X-25974Y-97816D01*
X-26089Y-97521D01*
X-26093Y-97294D01*
X-25998Y-97230D01*
X-25519Y-96514D01*
X-25508Y-96457D01*
D02*
G37*
G36*
X-68815Y-96063D02*
X-72917D01*
X-72906Y-96121D01*
X-72427Y-96837D01*
X-71743Y-97294D01*
X-71737Y-97331D01*
X-72013Y-97794D01*
X-72342D01*
X-73149Y-97955D01*
X-73833Y-98411D01*
X-74290Y-99095D01*
X-74450Y-99902D01*
Y-100591D01*
X-67282D01*
Y-99902D01*
X-67443Y-99095D01*
X-67900Y-98411D01*
X-68583Y-97955D01*
X-69390Y-97794D01*
X-69719D01*
X-69995Y-97331D01*
X-69990Y-97294D01*
X-69305Y-96837D01*
X-68826Y-96121D01*
X-68815Y-96063D01*
D02*
G37*
G36*
X61106D02*
X57004D01*
X57015Y-96121D01*
X57494Y-96837D01*
X58179Y-97294D01*
X58184Y-97331D01*
X57908Y-97794D01*
X57579D01*
X56772Y-97955D01*
X56089Y-98411D01*
X55632Y-99095D01*
X55471Y-99902D01*
Y-100591D01*
X62639D01*
Y-99902D01*
X62479Y-99095D01*
X62022Y-98411D01*
X61338Y-97955D01*
X60532Y-97794D01*
X60202D01*
X59926Y-97331D01*
X59932Y-97294D01*
X60616Y-96837D01*
X61095Y-96121D01*
X61106Y-96063D01*
D02*
G37*
G36*
X88665Y-96457D02*
X87402D01*
Y-97720D01*
X87459Y-97709D01*
X88175Y-97230D01*
X88654Y-96514D01*
X88665Y-96457D01*
D02*
G37*
G36*
X85827D02*
X84563D01*
X84575Y-96514D01*
X85053Y-97230D01*
X85769Y-97709D01*
X85827Y-97720D01*
Y-96457D01*
D02*
G37*
G36*
X104413Y-96063D02*
X100311D01*
X100322Y-96121D01*
X100801Y-96837D01*
X101486Y-97294D01*
X101491Y-97331D01*
X101215Y-97794D01*
X100886D01*
X100079Y-97955D01*
X99396Y-98411D01*
X98939Y-99095D01*
X98778Y-99902D01*
Y-100591D01*
X105946D01*
Y-99902D01*
X105786Y-99095D01*
X105329Y-98411D01*
X104645Y-97955D01*
X103839Y-97794D01*
X103509D01*
X103234Y-97331D01*
X103239Y-97294D01*
X103923Y-96837D01*
X104402Y-96121D01*
X104413Y-96063D01*
D02*
G37*
G36*
X-100886Y-97995D02*
X-103839D01*
X-104568Y-98140D01*
X-105187Y-98553D01*
X-105600Y-99172D01*
X-105745Y-99902D01*
Y-102854D01*
X-105600Y-103584D01*
X-105187Y-104203D01*
X-104568Y-104616D01*
X-103839Y-104761D01*
X-100886D01*
X-100156Y-104616D01*
X-99538Y-104203D01*
X-99124Y-103584D01*
X-98979Y-102854D01*
Y-99902D01*
X-99124Y-99172D01*
X-99538Y-98553D01*
X-100156Y-98140D01*
X-100886Y-97995D01*
D02*
G37*
G36*
X105946Y-102165D02*
X103150D01*
Y-104962D01*
X103839D01*
X104645Y-104801D01*
X105329Y-104344D01*
X105786Y-103661D01*
X105946Y-102854D01*
Y-102165D01*
D02*
G37*
G36*
X101575D02*
X98778D01*
Y-102854D01*
X98939Y-103661D01*
X99396Y-104344D01*
X100079Y-104801D01*
X100886Y-104962D01*
X101575D01*
Y-102165D01*
D02*
G37*
G36*
X-57579Y-97995D02*
X-60532D01*
X-61261Y-98140D01*
X-61880Y-98553D01*
X-62293Y-99172D01*
X-62438Y-99902D01*
Y-102854D01*
X-62293Y-103584D01*
X-61880Y-104203D01*
X-61261Y-104616D01*
X-60532Y-104761D01*
X-57579D01*
X-56849Y-104616D01*
X-56230Y-104203D01*
X-55817Y-103584D01*
X-55672Y-102854D01*
Y-99902D01*
X-55817Y-99172D01*
X-56230Y-98553D01*
X-56849Y-98140D01*
X-57579Y-97995D01*
D02*
G37*
G36*
X72342D02*
X69390D01*
X68660Y-98140D01*
X68041Y-98553D01*
X67628Y-99172D01*
X67483Y-99902D01*
Y-102854D01*
X67628Y-103584D01*
X68041Y-104203D01*
X68660Y-104616D01*
X69390Y-104761D01*
X72342D01*
X73072Y-104616D01*
X73691Y-104203D01*
X74104Y-103584D01*
X74249Y-102854D01*
Y-99902D01*
X74104Y-99172D01*
X73691Y-98553D01*
X73072Y-98140D01*
X72342Y-97995D01*
D02*
G37*
G36*
X29035D02*
X26083D01*
X25353Y-98140D01*
X24734Y-98553D01*
X24321Y-99172D01*
X24176Y-99902D01*
Y-102854D01*
X24321Y-103584D01*
X24734Y-104203D01*
X25353Y-104616D01*
X26083Y-104761D01*
X29035D01*
X29765Y-104616D01*
X30384Y-104203D01*
X30797Y-103584D01*
X30942Y-102854D01*
Y-99902D01*
X30797Y-99172D01*
X30384Y-98553D01*
X29765Y-98140D01*
X29035Y-97995D01*
D02*
G37*
G36*
X-14272D02*
X-17224D01*
X-17954Y-98140D01*
X-18573Y-98553D01*
X-18986Y-99172D01*
X-19131Y-99902D01*
Y-102854D01*
X-18986Y-103584D01*
X-18573Y-104203D01*
X-17954Y-104616D01*
X-17224Y-104761D01*
X-14272D01*
X-13542Y-104616D01*
X-12923Y-104203D01*
X-12510Y-103584D01*
X-12365Y-102854D01*
Y-99902D01*
X-12510Y-99172D01*
X-12923Y-98553D01*
X-13542Y-98140D01*
X-14272Y-97995D01*
D02*
G37*
G36*
X103150Y-93225D02*
Y-94488D01*
X104413D01*
X104402Y-94431D01*
X103923Y-93714D01*
X103207Y-93236D01*
X103150Y-93225D01*
D02*
G37*
G36*
X101575D02*
X101517Y-93236D01*
X100801Y-93714D01*
X100322Y-94431D01*
X100311Y-94488D01*
X101575D01*
Y-93225D01*
D02*
G37*
G36*
X59842D02*
Y-94488D01*
X61106D01*
X61095Y-94431D01*
X60616Y-93714D01*
X59900Y-93236D01*
X59842Y-93225D01*
D02*
G37*
G36*
X-100886Y-80278D02*
X-103839D01*
X-104568Y-80423D01*
X-105187Y-80837D01*
X-105600Y-81455D01*
X-105745Y-82185D01*
Y-85138D01*
X-105711Y-85308D01*
X-108726Y-88322D01*
X-108987Y-88712D01*
X-109078Y-89173D01*
X-109078Y-89173D01*
Y-104724D01*
X-109078Y-104724D01*
X-108987Y-105185D01*
X-108726Y-105576D01*
X-105182Y-109119D01*
X-104791Y-109380D01*
X-104331Y-109472D01*
X-101169D01*
X-101025Y-109687D01*
X-100374Y-110122D01*
X-99606Y-110275D01*
X-98838Y-110122D01*
X-98187Y-109687D01*
X-97752Y-109036D01*
X-97599Y-108268D01*
X-97752Y-107500D01*
X-98187Y-106849D01*
X-98838Y-106413D01*
X-99606Y-106261D01*
X-100374Y-106413D01*
X-101025Y-106849D01*
X-101169Y-107063D01*
X-103832D01*
X-106670Y-104226D01*
Y-89672D01*
X-104008Y-87011D01*
X-103839Y-87045D01*
X-100886D01*
X-100156Y-86899D01*
X-99538Y-86486D01*
X-99124Y-85867D01*
X-98979Y-85138D01*
Y-82185D01*
X-99124Y-81455D01*
X-99538Y-80837D01*
X-100156Y-80423D01*
X-100886Y-80278D01*
D02*
G37*
G36*
X27559Y-74765D02*
X26791Y-74917D01*
X26140Y-75352D01*
X25705Y-76004D01*
X25552Y-76772D01*
X25705Y-77540D01*
X26140Y-78191D01*
X26355Y-78334D01*
Y-80278D01*
X26083D01*
X25353Y-80423D01*
X24734Y-80837D01*
X24321Y-81455D01*
X24176Y-82185D01*
Y-85138D01*
X24321Y-85867D01*
X24734Y-86486D01*
X25353Y-86899D01*
X26083Y-87045D01*
X29035D01*
X29765Y-86899D01*
X30384Y-86486D01*
X30797Y-85867D01*
X30942Y-85138D01*
Y-82185D01*
X30797Y-81455D01*
X30384Y-80837D01*
X29765Y-80423D01*
X29035Y-80278D01*
X28763D01*
Y-78334D01*
X28978Y-78191D01*
X29413Y-77540D01*
X29566Y-76772D01*
X29413Y-76004D01*
X28978Y-75352D01*
X28327Y-74917D01*
X27559Y-74765D01*
D02*
G37*
G36*
X17224Y-80278D02*
X14272D01*
X13542Y-80423D01*
X12923Y-80837D01*
X12510Y-81455D01*
X12365Y-82185D01*
Y-85138D01*
X12510Y-85867D01*
X12923Y-86486D01*
X13542Y-86899D01*
X14272Y-87045D01*
X17224D01*
X17954Y-86899D01*
X18573Y-86486D01*
X18986Y-85867D01*
X19131Y-85138D01*
Y-82185D01*
X18986Y-81455D01*
X18573Y-80837D01*
X17954Y-80423D01*
X17224Y-80278D01*
D02*
G37*
G36*
X-26083D02*
X-29035D01*
X-29765Y-80423D01*
X-30384Y-80837D01*
X-30797Y-81455D01*
X-30942Y-82185D01*
Y-85138D01*
X-30797Y-85867D01*
X-30384Y-86486D01*
X-29765Y-86899D01*
X-29035Y-87045D01*
X-26083D01*
X-25353Y-86899D01*
X-24734Y-86486D01*
X-24321Y-85867D01*
X-24176Y-85138D01*
Y-82185D01*
X-24321Y-81455D01*
X-24734Y-80837D01*
X-25353Y-80423D01*
X-26083Y-80278D01*
D02*
G37*
G36*
X85827Y-93618D02*
X85769Y-93630D01*
X85053Y-94108D01*
X84575Y-94824D01*
X84563Y-94882D01*
X85827D01*
Y-93618D01*
D02*
G37*
G36*
X-26772D02*
Y-94882D01*
X-25508D01*
X-25519Y-94824D01*
X-25998Y-94108D01*
X-26714Y-93630D01*
X-26772Y-93618D01*
D02*
G37*
G36*
X-28346D02*
X-28404Y-93630D01*
X-29120Y-94108D01*
X-29599Y-94824D01*
X-29610Y-94882D01*
X-28346D01*
Y-93618D01*
D02*
G37*
G36*
X87402D02*
Y-94882D01*
X88665D01*
X88654Y-94824D01*
X88175Y-94108D01*
X87459Y-93630D01*
X87402Y-93618D01*
D02*
G37*
G36*
X58268Y-93225D02*
X58210Y-93236D01*
X57494Y-93714D01*
X57015Y-94431D01*
X57004Y-94488D01*
X58268D01*
Y-93225D01*
D02*
G37*
G36*
X16535D02*
Y-94488D01*
X17799D01*
X17788Y-94431D01*
X17309Y-93714D01*
X16593Y-93236D01*
X16535Y-93225D01*
D02*
G37*
G36*
X14961D02*
X14903Y-93236D01*
X14187Y-93714D01*
X13708Y-94431D01*
X13697Y-94488D01*
X14961D01*
Y-93225D01*
D02*
G37*
G36*
X62639Y-102165D02*
X59842D01*
Y-104962D01*
X60532D01*
X61338Y-104801D01*
X62022Y-104344D01*
X62479Y-103661D01*
X62639Y-102854D01*
Y-102165D01*
D02*
G37*
G36*
X33858Y-121177D02*
Y-122441D01*
X35122D01*
X35111Y-122383D01*
X34632Y-121667D01*
X33916Y-121189D01*
X33858Y-121177D01*
D02*
G37*
G36*
X32283D02*
X32226Y-121189D01*
X31510Y-121667D01*
X31031Y-122383D01*
X31020Y-122441D01*
X32283D01*
Y-121177D01*
D02*
G37*
G36*
X0Y-111385D02*
X-1312Y-111514D01*
X-2574Y-111897D01*
X-3736Y-112518D01*
X-4755Y-113355D01*
X-5592Y-114374D01*
X-6213Y-115537D01*
X-6596Y-116798D01*
X-6725Y-118110D01*
X-6596Y-119422D01*
X-6213Y-120684D01*
X-5592Y-121847D01*
X-4755Y-122866D01*
X-3736Y-123702D01*
X-2574Y-124324D01*
X-1312Y-124706D01*
X0Y-124836D01*
X1312Y-124706D01*
X2574Y-124324D01*
X3736Y-123702D01*
X4755Y-122866D01*
X5592Y-121847D01*
X6213Y-120684D01*
X6596Y-119422D01*
X6725Y-118110D01*
X6596Y-116798D01*
X6213Y-115537D01*
X5592Y-114374D01*
X4755Y-113355D01*
X3736Y-112518D01*
X2574Y-111897D01*
X1312Y-111514D01*
X0Y-111385D01*
D02*
G37*
G36*
X61417Y-119685D02*
X60154D01*
X60165Y-119743D01*
X60644Y-120459D01*
X61360Y-120937D01*
X61417Y-120949D01*
Y-119685D01*
D02*
G37*
G36*
X-41256Y-118898D02*
X-42520D01*
Y-120161D01*
X-42462Y-120150D01*
X-41746Y-119671D01*
X-41267Y-118955D01*
X-41256Y-118898D01*
D02*
G37*
G36*
X-44094D02*
X-45358D01*
X-45347Y-118955D01*
X-44868Y-119671D01*
X-44152Y-120150D01*
X-44094Y-120161D01*
Y-118898D01*
D02*
G37*
G36*
X64256Y-119685D02*
X62992D01*
Y-120949D01*
X63050Y-120937D01*
X63766Y-120459D01*
X64244Y-119743D01*
X64256Y-119685D01*
D02*
G37*
G36*
X-17240Y-133465D02*
X-18504D01*
Y-134728D01*
X-18447Y-134717D01*
X-17730Y-134238D01*
X-17252Y-133522D01*
X-17240Y-133465D01*
D02*
G37*
G36*
X-20079D02*
X-21342D01*
X-21331Y-133522D01*
X-20853Y-134238D01*
X-20136Y-134717D01*
X-20079Y-134728D01*
Y-133465D01*
D02*
G37*
G36*
X50394Y-123985D02*
X49159Y-124107D01*
X47971Y-124467D01*
X46877Y-125052D01*
X45918Y-125839D01*
X45131Y-126798D01*
X44546Y-127893D01*
X44186Y-129080D01*
X44064Y-130315D01*
X44186Y-131550D01*
X44546Y-132737D01*
X45131Y-133832D01*
X45918Y-134791D01*
X46877Y-135578D01*
X47971Y-136163D01*
X49159Y-136523D01*
X50394Y-136645D01*
X51629Y-136523D01*
X52816Y-136163D01*
X53910Y-135578D01*
X54870Y-134791D01*
X55657Y-133832D01*
X56242Y-132737D01*
X56602Y-131550D01*
X56723Y-130315D01*
X56602Y-129080D01*
X56242Y-127893D01*
X55657Y-126798D01*
X54870Y-125839D01*
X53910Y-125052D01*
X52816Y-124467D01*
X51629Y-124107D01*
X50394Y-123985D01*
D02*
G37*
G36*
X-20079Y-130626D02*
X-20136Y-130638D01*
X-20853Y-131116D01*
X-21331Y-131832D01*
X-21342Y-131890D01*
X-20079D01*
Y-130626D01*
D02*
G37*
G36*
X35122Y-124016D02*
X33858D01*
Y-125279D01*
X33916Y-125268D01*
X34632Y-124790D01*
X35111Y-124073D01*
X35122Y-124016D01*
D02*
G37*
G36*
X32283D02*
X31020D01*
X31031Y-124073D01*
X31510Y-124790D01*
X32226Y-125268D01*
X32283Y-125279D01*
Y-124016D01*
D02*
G37*
G36*
X-18504Y-130626D02*
Y-131890D01*
X-17240D01*
X-17252Y-131832D01*
X-17730Y-131116D01*
X-18447Y-130638D01*
X-18504Y-130626D01*
D02*
G37*
G36*
X-28346Y-102165D02*
X-31143D01*
Y-102854D01*
X-30982Y-103661D01*
X-30526Y-104344D01*
X-29842Y-104801D01*
X-29035Y-104962D01*
X-28346D01*
Y-102165D01*
D02*
G37*
G36*
X-67282D02*
X-70079D01*
Y-104962D01*
X-69390D01*
X-68583Y-104801D01*
X-67900Y-104344D01*
X-67443Y-103661D01*
X-67282Y-102854D01*
Y-102165D01*
D02*
G37*
G36*
X-71653D02*
X-74450D01*
Y-102854D01*
X-74290Y-103661D01*
X-73833Y-104344D01*
X-73149Y-104801D01*
X-72342Y-104962D01*
X-71653D01*
Y-102165D01*
D02*
G37*
G36*
X-23975D02*
X-26772D01*
Y-104962D01*
X-26083D01*
X-25276Y-104801D01*
X-24592Y-104344D01*
X-24136Y-103661D01*
X-23975Y-102854D01*
Y-102165D01*
D02*
G37*
G36*
X58268D02*
X55471D01*
Y-102854D01*
X55632Y-103661D01*
X56089Y-104344D01*
X56772Y-104801D01*
X57579Y-104962D01*
X58268D01*
Y-102165D01*
D02*
G37*
G36*
X19332D02*
X16535D01*
Y-104962D01*
X17224D01*
X18031Y-104801D01*
X18715Y-104344D01*
X19171Y-103661D01*
X19332Y-102854D01*
Y-102165D01*
D02*
G37*
G36*
X14961D02*
X12164D01*
Y-102854D01*
X12325Y-103661D01*
X12781Y-104344D01*
X13465Y-104801D01*
X14272Y-104962D01*
X14961D01*
Y-102165D01*
D02*
G37*
G36*
X-41256Y-114961D02*
X-45358D01*
X-45347Y-115018D01*
X-44868Y-115734D01*
X-44633Y-115892D01*
Y-116392D01*
X-44868Y-116549D01*
X-45347Y-117265D01*
X-45358Y-117323D01*
X-41256D01*
X-41267Y-117265D01*
X-41746Y-116549D01*
X-41982Y-116392D01*
Y-115892D01*
X-41746Y-115734D01*
X-41267Y-115018D01*
X-41256Y-114961D01*
D02*
G37*
G36*
X62992Y-116847D02*
Y-118110D01*
X64256D01*
X64244Y-118053D01*
X63766Y-117336D01*
X63050Y-116858D01*
X62992Y-116847D01*
D02*
G37*
G36*
X61417D02*
X61360Y-116858D01*
X60644Y-117336D01*
X60165Y-118053D01*
X60154Y-118110D01*
X61417D01*
Y-116847D01*
D02*
G37*
G36*
X-41256Y-111024D02*
X-45358D01*
X-45347Y-111081D01*
X-44868Y-111797D01*
X-44633Y-111955D01*
Y-112455D01*
X-44868Y-112612D01*
X-45347Y-113328D01*
X-45358Y-113386D01*
X-41256D01*
X-41267Y-113328D01*
X-41746Y-112612D01*
X-41982Y-112455D01*
Y-111955D01*
X-41746Y-111797D01*
X-41267Y-111081D01*
X-41256Y-111024D01*
D02*
G37*
G36*
X-42520Y-104248D02*
Y-105512D01*
X-41256D01*
X-41267Y-105454D01*
X-41746Y-104738D01*
X-42462Y-104260D01*
X-42520Y-104248D01*
D02*
G37*
G36*
X-44094D02*
X-44152Y-104260D01*
X-44868Y-104738D01*
X-45347Y-105454D01*
X-45358Y-105512D01*
X-44094D01*
Y-104248D01*
D02*
G37*
G36*
X-41256Y-107087D02*
X-45358D01*
X-45347Y-107144D01*
X-44868Y-107860D01*
X-44633Y-108018D01*
Y-108518D01*
X-44868Y-108675D01*
X-45347Y-109391D01*
X-45358Y-109449D01*
X-41256D01*
X-41267Y-109391D01*
X-41746Y-108675D01*
X-41982Y-108518D01*
Y-108018D01*
X-41746Y-107860D01*
X-41267Y-107144D01*
X-41256Y-107087D01*
D02*
G37*
G36*
X60532Y-80278D02*
X57579D01*
X56849Y-80423D01*
X56230Y-80837D01*
X55817Y-81455D01*
X55672Y-82185D01*
Y-85138D01*
X55817Y-85867D01*
X56230Y-86486D01*
X56849Y-86899D01*
X57579Y-87045D01*
X60532D01*
X61261Y-86899D01*
X61880Y-86486D01*
X62293Y-85867D01*
X62438Y-85138D01*
Y-82185D01*
X62293Y-81455D01*
X61880Y-80837D01*
X61261Y-80423D01*
X60532Y-80278D01*
D02*
G37*
G36*
X50394Y-72752D02*
X50336Y-72763D01*
X49620Y-73242D01*
X49141Y-73958D01*
X49130Y-74016D01*
X50394D01*
Y-72752D01*
D02*
G37*
G36*
X47047Y-72228D02*
Y-74016D01*
X48353D01*
Y-73573D01*
X48250Y-73054D01*
X47956Y-72615D01*
X47517Y-72321D01*
X47047Y-72228D01*
D02*
G37*
G36*
X45472D02*
X45003Y-72321D01*
X44564Y-72615D01*
X44270Y-73054D01*
X44167Y-73573D01*
Y-74016D01*
X45472D01*
Y-72228D01*
D02*
G37*
G36*
X51968Y-72752D02*
Y-74016D01*
X53232D01*
X53221Y-73958D01*
X52742Y-73242D01*
X52026Y-72763D01*
X51968Y-72752D01*
D02*
G37*
G36*
X93701D02*
X93643Y-72763D01*
X92927Y-73242D01*
X92449Y-73958D01*
X92437Y-74016D01*
X93701D01*
Y-72752D01*
D02*
G37*
G36*
X90354Y-72228D02*
Y-74016D01*
X91660D01*
Y-73573D01*
X91557Y-73054D01*
X91263Y-72615D01*
X90824Y-72321D01*
X90354Y-72228D01*
D02*
G37*
G36*
X88779D02*
X88310Y-72321D01*
X87871Y-72615D01*
X87577Y-73054D01*
X87474Y-73573D01*
Y-74016D01*
X88779D01*
Y-72228D01*
D02*
G37*
G36*
X-34646Y-72752D02*
Y-74016D01*
X-33382D01*
X-33393Y-73958D01*
X-33872Y-73242D01*
X-34588Y-72763D01*
X-34646Y-72752D01*
D02*
G37*
G36*
X-36220D02*
X-36278Y-72763D01*
X-36994Y-73242D01*
X-37473Y-73958D01*
X-37484Y-74016D01*
X-36220D01*
Y-72752D01*
D02*
G37*
G36*
X-39567Y-72228D02*
Y-74016D01*
X-38261D01*
Y-73573D01*
X-38364Y-73054D01*
X-38658Y-72615D01*
X-39098Y-72321D01*
X-39567Y-72228D01*
D02*
G37*
G36*
X2165D02*
X1696Y-72321D01*
X1257Y-72615D01*
X963Y-73054D01*
X860Y-73573D01*
Y-74016D01*
X2165D01*
Y-72228D01*
D02*
G37*
G36*
X8661Y-72752D02*
Y-74016D01*
X9925D01*
X9914Y-73958D01*
X9435Y-73242D01*
X8719Y-72763D01*
X8661Y-72752D01*
D02*
G37*
G36*
X7087D02*
X7029Y-72763D01*
X6313Y-73242D01*
X5834Y-73958D01*
X5823Y-74016D01*
X7087D01*
Y-72752D01*
D02*
G37*
G36*
X3740Y-72228D02*
Y-74016D01*
X5046D01*
Y-73573D01*
X4943Y-73054D01*
X4649Y-72615D01*
X4209Y-72321D01*
X3740Y-72228D01*
D02*
G37*
G36*
X124803Y-66453D02*
X124746Y-66464D01*
X124029Y-66943D01*
X123551Y-67659D01*
X123539Y-67716D01*
X124803D01*
Y-66453D01*
D02*
G37*
G36*
X-64173Y-63741D02*
X-64941Y-63894D01*
X-65592Y-64329D01*
X-65736Y-64544D01*
X-85433D01*
X-85894Y-64635D01*
X-86285Y-64897D01*
X-90418Y-69030D01*
X-90680Y-69421D01*
X-90771Y-69882D01*
X-90771Y-69882D01*
Y-72523D01*
X-91121Y-72757D01*
X-91371Y-73131D01*
X-91459Y-73573D01*
Y-76034D01*
X-91371Y-76475D01*
X-91121Y-76850D01*
X-90747Y-77100D01*
X-90305Y-77188D01*
X-88829D01*
X-88387Y-77100D01*
X-88013Y-76850D01*
X-87762Y-76475D01*
X-87675Y-76034D01*
Y-73573D01*
X-87762Y-73131D01*
X-88013Y-72757D01*
X-88363Y-72523D01*
Y-70381D01*
X-84934Y-66952D01*
X-65736D01*
X-65592Y-67167D01*
X-64941Y-67602D01*
X-64173Y-67755D01*
X-63405Y-67602D01*
X-62754Y-67167D01*
X-62319Y-66516D01*
X-62166Y-65748D01*
X-62319Y-64980D01*
X-62754Y-64329D01*
X-63405Y-63894D01*
X-64173Y-63741D01*
D02*
G37*
G36*
X113567Y-69193D02*
X112599D01*
Y-70161D01*
X112862Y-70109D01*
X113253Y-69848D01*
X113514Y-69457D01*
X113567Y-69193D01*
D02*
G37*
G36*
X126378Y-66453D02*
Y-67716D01*
X127642D01*
X127630Y-67659D01*
X127152Y-66943D01*
X126435Y-66464D01*
X126378Y-66453D01*
D02*
G37*
G36*
X-101181Y-62984D02*
X-101949Y-63136D01*
X-102600Y-63571D01*
X-103035Y-64223D01*
X-103188Y-64991D01*
X-103035Y-65759D01*
X-102600Y-66410D01*
X-101949Y-66845D01*
X-101181Y-66998D01*
X-100413Y-66845D01*
X-99762Y-66410D01*
X-99327Y-65759D01*
X-99174Y-64991D01*
X-99327Y-64223D01*
X-99762Y-63571D01*
X-100413Y-63136D01*
X-101181Y-62984D01*
D02*
G37*
G36*
X112599Y-66650D02*
Y-67618D01*
X113567D01*
X113514Y-67354D01*
X113253Y-66963D01*
X112862Y-66702D01*
X112599Y-66650D01*
D02*
G37*
G36*
X111024Y-66650D02*
X110760Y-66702D01*
X110369Y-66963D01*
X110108Y-67354D01*
X110055Y-67618D01*
X111024D01*
Y-66650D01*
D02*
G37*
G36*
X127641Y-72835D02*
X126673D01*
Y-73803D01*
X126937Y-73750D01*
X127328Y-73489D01*
X127589Y-73099D01*
X127641Y-72835D01*
D02*
G37*
G36*
X125098D02*
X124130D01*
X124183Y-73099D01*
X124444Y-73489D01*
X124834Y-73750D01*
X125098Y-73803D01*
Y-72835D01*
D02*
G37*
G36*
X95276Y-72752D02*
Y-74016D01*
X96539D01*
X96528Y-73958D01*
X96049Y-73242D01*
X95333Y-72763D01*
X95276Y-72752D01*
D02*
G37*
G36*
X-2215Y-72419D02*
X-3691D01*
X-4133Y-72507D01*
X-4507Y-72757D01*
X-4757Y-73131D01*
X-4845Y-73573D01*
Y-73599D01*
X-28740D01*
X-28740Y-73599D01*
X-29201Y-73691D01*
X-29592Y-73952D01*
X-29592Y-73952D01*
X-50105Y-94465D01*
X-63398D01*
X-63541Y-94250D01*
X-64193Y-93815D01*
X-64961Y-93662D01*
X-65729Y-93815D01*
X-66380Y-94250D01*
X-66815Y-94901D01*
X-66968Y-95669D01*
X-66815Y-96437D01*
X-66380Y-97088D01*
X-65729Y-97524D01*
X-64961Y-97676D01*
X-64193Y-97524D01*
X-63541Y-97088D01*
X-63398Y-96873D01*
X-49606D01*
X-49606Y-96873D01*
X-49145Y-96782D01*
X-48755Y-96521D01*
X-28241Y-76007D01*
X-17280D01*
X-17128Y-76507D01*
X-17167Y-76534D01*
X-17602Y-77185D01*
X-17755Y-77953D01*
X-17602Y-78721D01*
X-17167Y-79372D01*
X-16952Y-79516D01*
Y-80278D01*
X-17224D01*
X-17954Y-80423D01*
X-18573Y-80837D01*
X-18986Y-81455D01*
X-19131Y-82185D01*
Y-85138D01*
X-18986Y-85867D01*
X-18573Y-86486D01*
X-17954Y-86899D01*
X-17224Y-87045D01*
X-14272D01*
X-13542Y-86899D01*
X-12923Y-86486D01*
X-12510Y-85867D01*
X-12365Y-85138D01*
Y-82185D01*
X-12510Y-81455D01*
X-12923Y-80837D01*
X-13542Y-80423D01*
X-14272Y-80278D01*
X-14544D01*
Y-79516D01*
X-14329Y-79372D01*
X-13894Y-78721D01*
X-13741Y-77953D01*
X-13894Y-77185D01*
X-14329Y-76534D01*
X-14368Y-76507D01*
X-14216Y-76007D01*
X-4845D01*
Y-76034D01*
X-4757Y-76475D01*
X-4507Y-76850D01*
X-4133Y-77100D01*
X-3691Y-77188D01*
X-2215D01*
X-1773Y-77100D01*
X-1398Y-76850D01*
X-1148Y-76475D01*
X-1060Y-76034D01*
Y-73573D01*
X-1148Y-73131D01*
X-1398Y-72757D01*
X-1773Y-72507D01*
X-2215Y-72419D01*
D02*
G37*
G36*
X111024Y-69193D02*
X110055D01*
X110108Y-69457D01*
X110369Y-69848D01*
X110760Y-70109D01*
X111024Y-70161D01*
Y-69193D01*
D02*
G37*
G36*
X122732Y-69291D02*
X119291D01*
X115851D01*
Y-70944D01*
X115851Y-70944D01*
X115851D01*
X115635Y-71037D01*
X115487Y-71100D01*
X115451Y-71187D01*
X115451D01*
X115440Y-71214D01*
X115390Y-71335D01*
X113175D01*
X113111Y-71239D01*
X112786Y-71022D01*
X112402Y-70945D01*
X111221D01*
X110836Y-71022D01*
X110511Y-71239D01*
X110447Y-71335D01*
X107928D01*
X107718Y-71022D01*
X107067Y-70587D01*
X106299Y-70434D01*
X105531Y-70587D01*
X104880Y-71022D01*
X104445Y-71673D01*
X104292Y-72441D01*
X104445Y-73209D01*
X104880Y-73860D01*
X105531Y-74295D01*
X106299Y-74448D01*
X107067Y-74295D01*
X107718Y-73860D01*
X107796Y-73744D01*
X110447D01*
X110511Y-73839D01*
X110836Y-74057D01*
X111221Y-74133D01*
X112402D01*
X112786Y-74057D01*
X113111Y-73839D01*
X113175Y-73744D01*
X115378D01*
X115487Y-74008D01*
X115942Y-74197D01*
X116342D01*
X116561Y-74106D01*
X116929Y-74034D01*
X117297Y-74106D01*
X117517Y-74197D01*
X117917D01*
X118288Y-74445D01*
Y-74803D01*
X118364Y-75187D01*
X118582Y-75513D01*
X119763Y-76694D01*
X120088Y-76911D01*
X120472Y-76988D01*
X124388D01*
X124586Y-77284D01*
X124911Y-77502D01*
X125295Y-77578D01*
X126476D01*
X126860Y-77502D01*
X127186Y-77284D01*
X127403Y-76959D01*
X127480Y-76575D01*
Y-75394D01*
X127403Y-75010D01*
X127186Y-74684D01*
X126860Y-74467D01*
X126476Y-74390D01*
X125295D01*
X124911Y-74467D01*
X124586Y-74684D01*
X124388Y-74981D01*
X121259D01*
X121171Y-74849D01*
X121372Y-74304D01*
X121395Y-74285D01*
X121636Y-74124D01*
X121648Y-74107D01*
X121787Y-74008D01*
X122241Y-74197D01*
X122641D01*
X123095Y-74008D01*
X123284Y-73554D01*
Y-71554D01*
X123145Y-71220D01*
X123132Y-71187D01*
X123132D01*
X123095Y-71100D01*
X122953Y-71039D01*
X122732Y-70944D01*
X122732D01*
X122732Y-70944D01*
Y-69291D01*
D02*
G37*
G36*
X127642Y-69291D02*
X123539D01*
X123551Y-69349D01*
X124029Y-70065D01*
X124444Y-70342D01*
Y-70605D01*
X124183Y-70996D01*
X124130Y-71260D01*
X127641D01*
X127589Y-70996D01*
X127328Y-70605D01*
X127286Y-70577D01*
X127248Y-70433D01*
X127234Y-69941D01*
X127630Y-69349D01*
X127642Y-69291D01*
D02*
G37*
G36*
X-41142Y-72228D02*
X-41611Y-72321D01*
X-42050Y-72615D01*
X-42344Y-73054D01*
X-42447Y-73573D01*
Y-74016D01*
X-41142D01*
Y-72228D01*
D02*
G37*
G36*
X45472Y-75590D02*
X44167D01*
Y-76034D01*
X44270Y-76552D01*
X44564Y-76991D01*
X45003Y-77285D01*
X45472Y-77378D01*
Y-75590D01*
D02*
G37*
G36*
X5046D02*
X3740D01*
Y-77378D01*
X4209Y-77285D01*
X4649Y-76991D01*
X4943Y-76552D01*
X5046Y-76034D01*
Y-75590D01*
D02*
G37*
G36*
X2165D02*
X860D01*
Y-76034D01*
X963Y-76552D01*
X1257Y-76991D01*
X1696Y-77285D01*
X2165Y-77378D01*
Y-75590D01*
D02*
G37*
G36*
X48353D02*
X47047D01*
Y-77378D01*
X47517Y-77285D01*
X47956Y-76991D01*
X48250Y-76552D01*
X48353Y-76034D01*
Y-75590D01*
D02*
G37*
G36*
X77559Y-46434D02*
X77559Y-46434D01*
X-45276D01*
X-45737Y-46525D01*
X-45893Y-46630D01*
X-46127Y-46786D01*
X-46127Y-46786D01*
X-54789Y-55448D01*
X-55050Y-55838D01*
X-55141Y-56299D01*
X-55141Y-56299D01*
Y-85417D01*
X-55228Y-85470D01*
X-55675Y-85155D01*
X-55672Y-85138D01*
Y-82185D01*
X-55817Y-81455D01*
X-56230Y-80837D01*
X-56849Y-80423D01*
X-57579Y-80278D01*
X-57851D01*
Y-77953D01*
X-57943Y-77492D01*
X-58047Y-77335D01*
X-58204Y-77101D01*
X-58204Y-77101D01*
X-58673Y-76631D01*
X-58623Y-76378D01*
X-58776Y-75610D01*
X-59211Y-74959D01*
X-59862Y-74524D01*
X-60630Y-74371D01*
X-61398Y-74524D01*
X-62049Y-74959D01*
X-62484Y-75610D01*
X-62637Y-76378D01*
X-62484Y-77146D01*
X-62049Y-77797D01*
X-61398Y-78232D01*
X-60630Y-78385D01*
X-60259Y-78812D01*
Y-80278D01*
X-60532D01*
X-61261Y-80423D01*
X-61880Y-80837D01*
X-62293Y-81455D01*
X-62438Y-82185D01*
Y-85138D01*
X-62293Y-85867D01*
X-61880Y-86486D01*
X-62033Y-86985D01*
X-67888D01*
X-68041Y-86486D01*
X-67628Y-85867D01*
X-67483Y-85138D01*
Y-82185D01*
X-67628Y-81455D01*
X-68041Y-80837D01*
X-68660Y-80423D01*
X-69390Y-80278D01*
X-72342D01*
X-73072Y-80423D01*
X-73691Y-80837D01*
X-74104Y-81455D01*
X-74249Y-82185D01*
Y-85138D01*
X-74104Y-85867D01*
X-73691Y-86486D01*
X-73844Y-86985D01*
X-75197D01*
X-75658Y-87076D01*
X-75814Y-87181D01*
X-76048Y-87337D01*
X-76048Y-87337D01*
X-81636Y-92925D01*
X-81890Y-92875D01*
X-82658Y-93028D01*
X-83309Y-93463D01*
X-83744Y-94114D01*
X-83897Y-94882D01*
X-83744Y-95650D01*
X-83309Y-96301D01*
X-82658Y-96736D01*
X-81890Y-96889D01*
X-81122Y-96736D01*
X-80471Y-96301D01*
X-80036Y-95650D01*
X-79883Y-94882D01*
X-79933Y-94628D01*
X-76407Y-91102D01*
X-75947Y-91349D01*
X-76023Y-91732D01*
X-75870Y-92500D01*
X-75435Y-93151D01*
X-74784Y-93587D01*
X-74016Y-93739D01*
X-73248Y-93587D01*
X-72597Y-93151D01*
X-72510Y-93169D01*
X-72405Y-93699D01*
X-72427Y-93714D01*
X-72906Y-94431D01*
X-72917Y-94488D01*
X-68815D01*
X-68826Y-94431D01*
X-69305Y-93714D01*
X-69721Y-93436D01*
X-69569Y-92936D01*
X-53543D01*
X-53543Y-92936D01*
X-53083Y-92845D01*
X-52692Y-92584D01*
X-49936Y-89828D01*
X-49675Y-89437D01*
X-49583Y-88976D01*
Y-58767D01*
X-42808Y-51992D01*
X34541D01*
X39150Y-56601D01*
Y-72523D01*
X38800Y-72757D01*
X38550Y-73131D01*
X38462Y-73573D01*
Y-76034D01*
X38550Y-76475D01*
X38800Y-76850D01*
X39175Y-77100D01*
X39616Y-77188D01*
X41093D01*
X41534Y-77100D01*
X41909Y-76850D01*
X42159Y-76475D01*
X42247Y-76034D01*
Y-73573D01*
X42159Y-73131D01*
X41909Y-72757D01*
X41559Y-72523D01*
Y-56102D01*
X41559Y-56102D01*
X41467Y-55642D01*
X41206Y-55251D01*
X35891Y-49936D01*
X35500Y-49675D01*
X35039Y-49583D01*
X35039Y-49583D01*
X-43307D01*
X-43307Y-49583D01*
X-43768Y-49675D01*
X-44159Y-49936D01*
X-44159Y-49936D01*
X-51639Y-57416D01*
X-51900Y-57807D01*
X-51992Y-58268D01*
X-51992Y-58268D01*
Y-88478D01*
X-54042Y-90528D01*
X-72453D01*
X-72597Y-90313D01*
X-73225Y-89893D01*
X-73232Y-89856D01*
X-73063Y-89393D01*
X-55906D01*
X-55905Y-89393D01*
X-55445Y-89302D01*
X-55054Y-89040D01*
X-53086Y-87072D01*
X-53086Y-87072D01*
X-52929Y-86838D01*
X-52824Y-86681D01*
X-52733Y-86221D01*
Y-56798D01*
X-44777Y-48842D01*
X77060D01*
X82457Y-54239D01*
Y-72523D01*
X82107Y-72757D01*
X81857Y-73131D01*
X81769Y-73573D01*
Y-76034D01*
X81857Y-76475D01*
X82107Y-76850D01*
X82482Y-77100D01*
X82923Y-77188D01*
X84400D01*
X84841Y-77100D01*
X85216Y-76850D01*
X85466Y-76475D01*
X85554Y-76034D01*
Y-73573D01*
X85466Y-73131D01*
X85216Y-72757D01*
X84866Y-72523D01*
Y-53740D01*
X84866Y-53740D01*
X84774Y-53279D01*
X84513Y-52889D01*
X84513Y-52889D01*
X78411Y-46786D01*
X78020Y-46525D01*
X77559Y-46434D01*
D02*
G37*
G36*
X91660Y-75590D02*
X90354D01*
Y-77378D01*
X90824Y-77285D01*
X91263Y-76991D01*
X91557Y-76552D01*
X91660Y-76034D01*
Y-75590D01*
D02*
G37*
G36*
X88779D02*
X87474D01*
Y-76034D01*
X87577Y-76552D01*
X87871Y-76991D01*
X88310Y-77285D01*
X88779Y-77378D01*
Y-75590D01*
D02*
G37*
G36*
X-45522Y-72419D02*
X-46998D01*
X-47440Y-72507D01*
X-47814Y-72757D01*
X-48064Y-73131D01*
X-48152Y-73573D01*
Y-76034D01*
X-48064Y-76475D01*
X-47814Y-76850D01*
X-47661Y-76952D01*
Y-78752D01*
X-47876Y-78896D01*
X-48311Y-79547D01*
X-48464Y-80315D01*
X-48311Y-81083D01*
X-47876Y-81734D01*
X-47225Y-82169D01*
X-46457Y-82322D01*
X-45689Y-82169D01*
X-45037Y-81734D01*
X-44602Y-81083D01*
X-44450Y-80315D01*
X-44602Y-79547D01*
X-45037Y-78896D01*
X-45252Y-78752D01*
Y-77134D01*
X-45080Y-77100D01*
X-44706Y-76850D01*
X-44455Y-76475D01*
X-44368Y-76034D01*
Y-73573D01*
X-44455Y-73131D01*
X-44706Y-72757D01*
X-45080Y-72507D01*
X-45522Y-72419D01*
D02*
G37*
G36*
X103839Y-80278D02*
X100886D01*
X100156Y-80423D01*
X99538Y-80837D01*
X99124Y-81455D01*
X98979Y-82185D01*
Y-85138D01*
X99124Y-85867D01*
X99538Y-86486D01*
X100156Y-86899D01*
X100886Y-87045D01*
X103839D01*
X104568Y-86899D01*
X105187Y-86486D01*
X105600Y-85867D01*
X105745Y-85138D01*
Y-82185D01*
X105600Y-81455D01*
X105187Y-80837D01*
X104568Y-80423D01*
X103839Y-80278D01*
D02*
G37*
G36*
X70866Y-72796D02*
X70098Y-72949D01*
X69447Y-73384D01*
X69012Y-74035D01*
X68859Y-74803D01*
X69012Y-75571D01*
X69447Y-76222D01*
X69662Y-76366D01*
Y-80278D01*
X69390D01*
X68660Y-80423D01*
X68041Y-80837D01*
X67628Y-81455D01*
X67483Y-82185D01*
Y-85138D01*
X67628Y-85867D01*
X68041Y-86486D01*
X68660Y-86899D01*
X69390Y-87045D01*
X72342D01*
X73072Y-86899D01*
X73691Y-86486D01*
X74104Y-85867D01*
X74249Y-85138D01*
Y-82185D01*
X74104Y-81455D01*
X73691Y-80837D01*
X73072Y-80423D01*
X72342Y-80278D01*
X72070D01*
Y-76366D01*
X72285Y-76222D01*
X72720Y-75571D01*
X72873Y-74803D01*
X72720Y-74035D01*
X72285Y-73384D01*
X71634Y-72949D01*
X70866Y-72796D01*
D02*
G37*
G36*
X-84449Y-75590D02*
X-85754D01*
Y-76034D01*
X-85651Y-76552D01*
X-85358Y-76991D01*
X-84918Y-77285D01*
X-84449Y-77378D01*
Y-75590D01*
D02*
G37*
G36*
X-38261D02*
X-39567D01*
Y-77378D01*
X-39098Y-77285D01*
X-38658Y-76991D01*
X-38364Y-76552D01*
X-38261Y-76034D01*
Y-75590D01*
D02*
G37*
G36*
X-41142D02*
X-42447D01*
Y-76034D01*
X-42344Y-76552D01*
X-42050Y-76991D01*
X-41611Y-77285D01*
X-41142Y-77378D01*
Y-75590D01*
D02*
G37*
G36*
X-81568D02*
X-82874D01*
Y-77378D01*
X-82405Y-77285D01*
X-81965Y-76991D01*
X-81672Y-76552D01*
X-81568Y-76034D01*
Y-75590D01*
D02*
G37*
G36*
X96539D02*
X95276D01*
Y-76854D01*
X95333Y-76843D01*
X96049Y-76364D01*
X96528Y-75648D01*
X96539Y-75590D01*
D02*
G37*
G36*
X93701D02*
X92437D01*
X92449Y-75648D01*
X92927Y-76364D01*
X93643Y-76843D01*
X93701Y-76854D01*
Y-75590D01*
D02*
G37*
G36*
X53232D02*
X51968D01*
Y-76854D01*
X52026Y-76843D01*
X52742Y-76364D01*
X53221Y-75648D01*
X53232Y-75590D01*
D02*
G37*
G36*
X-84449Y-72228D02*
X-84918Y-72321D01*
X-85358Y-72615D01*
X-85651Y-73054D01*
X-85754Y-73573D01*
Y-74016D01*
X-84449D01*
Y-72228D01*
D02*
G37*
G36*
X-77953Y-72752D02*
Y-74016D01*
X-76689D01*
X-76700Y-73958D01*
X-77179Y-73242D01*
X-77895Y-72763D01*
X-77953Y-72752D01*
D02*
G37*
G36*
X-79527D02*
X-79585Y-72763D01*
X-80301Y-73242D01*
X-80780Y-73958D01*
X-80791Y-74016D01*
X-79527D01*
Y-72752D01*
D02*
G37*
G36*
X-82874Y-72228D02*
Y-74016D01*
X-81568D01*
Y-73573D01*
X-81672Y-73054D01*
X-81965Y-72615D01*
X-82405Y-72321D01*
X-82874Y-72228D01*
D02*
G37*
G36*
X-36220Y-75590D02*
X-37484D01*
X-37473Y-75648D01*
X-36994Y-76364D01*
X-36278Y-76843D01*
X-36220Y-76854D01*
Y-75590D01*
D02*
G37*
G36*
X-76689D02*
X-77953D01*
Y-76854D01*
X-77895Y-76843D01*
X-77179Y-76364D01*
X-76700Y-75648D01*
X-76689Y-75590D01*
D02*
G37*
G36*
X-79527D02*
X-80791D01*
X-80780Y-75648D01*
X-80301Y-76364D01*
X-79585Y-76843D01*
X-79527Y-76854D01*
Y-75590D01*
D02*
G37*
G36*
X-33382D02*
X-34646D01*
Y-76854D01*
X-34588Y-76843D01*
X-33872Y-76364D01*
X-33393Y-75648D01*
X-33382Y-75590D01*
D02*
G37*
G36*
X50394D02*
X49130D01*
X49141Y-75648D01*
X49620Y-76364D01*
X50336Y-76843D01*
X50394Y-76854D01*
Y-75590D01*
D02*
G37*
G36*
X9925D02*
X8661D01*
Y-76854D01*
X8719Y-76843D01*
X9435Y-76364D01*
X9914Y-75648D01*
X9925Y-75590D01*
D02*
G37*
G36*
X7087D02*
X5823D01*
X5834Y-75648D01*
X6313Y-76364D01*
X7029Y-76843D01*
X7087Y-76854D01*
Y-75590D01*
D02*
G37*
G36*
X121673Y21736D02*
X121409Y21683D01*
X121019Y21422D01*
X120757Y21032D01*
X120666Y20571D01*
Y18898D01*
X121673D01*
Y21736D01*
D02*
G37*
G36*
X-24262Y130742D02*
X-24902D01*
Y128642D01*
X-22506D01*
Y128986D01*
X-22639Y129658D01*
X-23020Y130228D01*
X-23590Y130609D01*
X-24262Y130742D01*
D02*
G37*
G36*
X-26476D02*
X-27116D01*
X-27788Y130609D01*
X-28358Y130228D01*
X-28739Y129658D01*
X-28872Y128986D01*
Y128642D01*
X-26476D01*
Y130742D01*
D02*
G37*
G36*
X24902D02*
X24262D01*
X23590Y130609D01*
X23020Y130228D01*
X22639Y129658D01*
X22506Y128986D01*
Y128642D01*
X24902D01*
Y130742D01*
D02*
G37*
G36*
X5020D02*
X4380D01*
X3708Y130609D01*
X3138Y130228D01*
X2757Y129658D01*
X2624Y128986D01*
Y128642D01*
X5020D01*
Y130742D01*
D02*
G37*
G36*
X38730D02*
X38091D01*
Y128642D01*
X40486D01*
Y128986D01*
X40353Y129658D01*
X39972Y130228D01*
X39402Y130609D01*
X38730Y130742D01*
D02*
G37*
G36*
X36516D02*
X35876D01*
X35204Y130609D01*
X34634Y130228D01*
X34253Y129658D01*
X34120Y128986D01*
Y128642D01*
X36516D01*
Y130742D01*
D02*
G37*
G36*
X7234D02*
X6594D01*
Y128642D01*
X8990D01*
Y128986D01*
X8857Y129658D01*
X8476Y130228D01*
X7906Y130609D01*
X7234Y130742D01*
D02*
G37*
G36*
X-17634Y130709D02*
X-21736D01*
X-21725Y130651D01*
X-21246Y129935D01*
X-20783Y129626D01*
Y129036D01*
X-21246Y128726D01*
X-21725Y128010D01*
X-21736Y127953D01*
X-17634D01*
X-17645Y128010D01*
X-18124Y128726D01*
X-18587Y129036D01*
Y129626D01*
X-18124Y129935D01*
X-17645Y130651D01*
X-17634Y130709D01*
D02*
G37*
G36*
X20555Y129134D02*
X19291D01*
Y127870D01*
X19349Y127882D01*
X20065Y128360D01*
X20544Y129076D01*
X20555Y129134D01*
D02*
G37*
G36*
X17717D02*
X16453D01*
X16464Y129076D01*
X16943Y128360D01*
X17659Y127882D01*
X17717Y127870D01*
Y129134D01*
D02*
G37*
G36*
X13862Y130709D02*
X9760D01*
X9771Y130651D01*
X10250Y129935D01*
X10713Y129626D01*
Y129036D01*
X10250Y128726D01*
X9771Y128010D01*
X9760Y127953D01*
X13862D01*
X13851Y128010D01*
X13372Y128726D01*
X12909Y129036D01*
Y129626D01*
X13372Y129935D01*
X13851Y130651D01*
X13862Y130709D01*
D02*
G37*
G36*
X-38091Y130742D02*
X-38730D01*
X-39402Y130609D01*
X-39972Y130228D01*
X-40353Y129658D01*
X-40486Y128986D01*
Y128642D01*
X-38091D01*
Y130742D01*
D02*
G37*
G36*
X-6594D02*
X-7234D01*
X-7906Y130609D01*
X-8476Y130228D01*
X-8857Y129658D01*
X-8990Y128986D01*
Y128642D01*
X-6594D01*
Y130742D01*
D02*
G37*
G36*
X45358Y130709D02*
X41256D01*
X41267Y130651D01*
X41746Y129935D01*
X42209Y129626D01*
Y129036D01*
X41746Y128726D01*
X41267Y128010D01*
X41256Y127953D01*
X45358D01*
X45347Y128010D01*
X44868Y128726D01*
X44405Y129036D01*
Y129626D01*
X44868Y129935D01*
X45347Y130651D01*
X45358Y130709D01*
D02*
G37*
G36*
X42520Y133547D02*
X42462Y133536D01*
X41746Y133057D01*
X41267Y132341D01*
X41256Y132283D01*
X42520D01*
Y133547D01*
D02*
G37*
G36*
X12598D02*
Y132283D01*
X13862D01*
X13851Y132341D01*
X13372Y133057D01*
X12656Y133536D01*
X12598Y133547D01*
D02*
G37*
G36*
X11024D02*
X10966Y133536D01*
X10250Y133057D01*
X9771Y132341D01*
X9760Y132283D01*
X11024D01*
Y133547D01*
D02*
G37*
G36*
X44094D02*
Y132283D01*
X45358D01*
X45347Y132341D01*
X44868Y133057D01*
X44152Y133536D01*
X44094Y133547D01*
D02*
G37*
G36*
X32283Y138785D02*
Y132677D01*
X33490D01*
Y137500D01*
X33390Y137999D01*
X33108Y138423D01*
X32684Y138705D01*
X32283Y138785D01*
D02*
G37*
G36*
X787Y138785D02*
Y132677D01*
X1994D01*
Y137500D01*
X1894Y137999D01*
X1612Y138423D01*
X1188Y138705D01*
X787Y138785D01*
D02*
G37*
G36*
X-30709D02*
Y132677D01*
X-29502D01*
Y137500D01*
X-29602Y137999D01*
X-29885Y138423D01*
X-30308Y138705D01*
X-30709Y138785D01*
D02*
G37*
G36*
X-42437Y133071D02*
X-46539D01*
X-46528Y133013D01*
X-46049Y132297D01*
X-45814Y132140D01*
Y131640D01*
X-46049Y131482D01*
X-46528Y130766D01*
X-46539Y130709D01*
X-42437D01*
X-42448Y130766D01*
X-42927Y131482D01*
X-43163Y131640D01*
Y132140D01*
X-42927Y132297D01*
X-42448Y133013D01*
X-42437Y133071D01*
D02*
G37*
G36*
X-66929Y131579D02*
Y130315D01*
X-65665D01*
X-65677Y130372D01*
X-66155Y131089D01*
X-66872Y131567D01*
X-66929Y131579D01*
D02*
G37*
G36*
X-68504D02*
X-68561Y131567D01*
X-69278Y131089D01*
X-69756Y130372D01*
X-69768Y130315D01*
X-68504D01*
Y131579D01*
D02*
G37*
G36*
X-10941Y133071D02*
X-15043D01*
X-15032Y133013D01*
X-14553Y132297D01*
X-14318Y132140D01*
Y131640D01*
X-14553Y131482D01*
X-15032Y130766D01*
X-15043Y130709D01*
X-10941D01*
X-10952Y130766D01*
X-11431Y131482D01*
X-11666Y131640D01*
Y132140D01*
X-11431Y132297D01*
X-10952Y133013D01*
X-10941Y133071D01*
D02*
G37*
G36*
X-18898Y133547D02*
Y132283D01*
X-17634D01*
X-17645Y132341D01*
X-18124Y133057D01*
X-18840Y133536D01*
X-18898Y133547D01*
D02*
G37*
G36*
X-20472D02*
X-20530Y133536D01*
X-21246Y133057D01*
X-21725Y132341D01*
X-21736Y132283D01*
X-20472D01*
Y133547D01*
D02*
G37*
G36*
X20555Y133071D02*
X16453D01*
X16464Y133013D01*
X16943Y132297D01*
X17178Y132140D01*
Y131640D01*
X16943Y131482D01*
X16464Y130766D01*
X16453Y130709D01*
X20555D01*
X20544Y130766D01*
X20065Y131482D01*
X19829Y131640D01*
Y132140D01*
X20065Y132297D01*
X20544Y133013D01*
X20555Y133071D01*
D02*
G37*
G36*
X-10941Y129134D02*
X-12205D01*
Y127870D01*
X-12147Y127882D01*
X-11431Y128360D01*
X-10952Y129076D01*
X-10941Y129134D01*
D02*
G37*
G36*
X-38583Y122130D02*
Y120866D01*
X-37319D01*
X-37330Y120924D01*
X-37809Y121640D01*
X-38525Y122118D01*
X-38583Y122130D01*
D02*
G37*
G36*
X-40157D02*
X-40215Y122118D01*
X-40931Y121640D01*
X-41410Y120924D01*
X-41421Y120866D01*
X-40157D01*
Y122130D01*
D02*
G37*
G36*
X-48425D02*
Y120866D01*
X-47161D01*
X-47173Y120924D01*
X-47651Y121640D01*
X-48368Y122118D01*
X-48425Y122130D01*
D02*
G37*
G36*
X-30315D02*
X-30372Y122118D01*
X-31089Y121640D01*
X-31567Y120924D01*
X-31579Y120866D01*
X-30315D01*
Y122130D01*
D02*
G37*
G36*
X-18898D02*
Y120866D01*
X-17634D01*
X-17645Y120924D01*
X-18124Y121640D01*
X-18840Y122118D01*
X-18898Y122130D01*
D02*
G37*
G36*
X-20472D02*
X-20530Y122118D01*
X-21246Y121640D01*
X-21725Y120924D01*
X-21736Y120866D01*
X-20472D01*
Y122130D01*
D02*
G37*
G36*
X-28740D02*
Y120866D01*
X-27476D01*
X-27488Y120924D01*
X-27966Y121640D01*
X-28683Y122118D01*
X-28740Y122130D01*
D02*
G37*
G36*
X-20472Y119291D02*
X-21736D01*
X-21725Y119234D01*
X-21246Y118518D01*
X-20530Y118039D01*
X-20472Y118028D01*
Y119291D01*
D02*
G37*
G36*
X-27476D02*
X-28740D01*
Y118028D01*
X-28683Y118039D01*
X-27966Y118518D01*
X-27488Y119234D01*
X-27476Y119291D01*
D02*
G37*
G36*
X-30315D02*
X-31579D01*
X-31567Y119234D01*
X-31089Y118518D01*
X-30372Y118039D01*
X-30315Y118028D01*
Y119291D01*
D02*
G37*
G36*
X-17634D02*
X-18898D01*
Y118028D01*
X-18840Y118039D01*
X-18124Y118518D01*
X-17645Y119234D01*
X-17634Y119291D01*
D02*
G37*
G36*
X-50000Y122130D02*
X-50058Y122118D01*
X-50774Y121640D01*
X-51252Y120924D01*
X-51264Y120866D01*
X-50000D01*
Y122130D01*
D02*
G37*
G36*
X76854Y121653D02*
X75590D01*
Y120390D01*
X75648Y120401D01*
X76364Y120880D01*
X76843Y121596D01*
X76854Y121653D01*
D02*
G37*
G36*
X74016D02*
X72752D01*
X72763Y121596D01*
X73242Y120880D01*
X73958Y120401D01*
X74016Y120390D01*
Y121653D01*
D02*
G37*
G36*
X-17634Y126378D02*
X-18898D01*
Y125114D01*
X-18840Y125126D01*
X-18124Y125604D01*
X-17645Y126321D01*
X-17634Y126378D01*
D02*
G37*
G36*
X-20472D02*
X-21736D01*
X-21725Y126321D01*
X-21246Y125604D01*
X-20530Y125126D01*
X-20472Y125114D01*
Y126378D01*
D02*
G37*
G36*
X-29502Y131102D02*
X-30709D01*
Y124995D01*
X-30308Y125074D01*
X-29885Y125357D01*
X-29602Y125780D01*
X-29502Y126279D01*
Y131102D01*
D02*
G37*
G36*
X-65665Y128740D02*
X-66929D01*
Y127476D01*
X-66872Y127488D01*
X-66155Y127966D01*
X-65677Y128683D01*
X-65665Y128740D01*
D02*
G37*
G36*
X-13780Y129134D02*
X-15043D01*
X-15032Y129076D01*
X-14553Y128360D01*
X-13837Y127882D01*
X-13780Y127870D01*
Y129134D01*
D02*
G37*
G36*
X-42437D02*
X-43701D01*
Y127870D01*
X-43643Y127882D01*
X-42927Y128360D01*
X-42448Y129076D01*
X-42437Y129134D01*
D02*
G37*
G36*
X-45276D02*
X-46539D01*
X-46528Y129076D01*
X-46049Y128360D01*
X-45333Y127882D01*
X-45276Y127870D01*
Y129134D01*
D02*
G37*
G36*
X-38091Y127067D02*
X-40486D01*
Y126722D01*
X-40353Y126050D01*
X-39972Y125481D01*
X-39402Y125100D01*
X-38730Y124966D01*
X-38091D01*
Y127067D01*
D02*
G37*
G36*
X75590Y124492D02*
Y123228D01*
X76854D01*
X76843Y123286D01*
X76364Y124002D01*
X75648Y124481D01*
X75590Y124492D01*
D02*
G37*
G36*
X74016D02*
X73958Y124481D01*
X73242Y124002D01*
X72763Y123286D01*
X72752Y123228D01*
X74016D01*
Y124492D01*
D02*
G37*
G36*
X-26476Y127067D02*
X-28872D01*
Y126722D01*
X-28739Y126050D01*
X-28358Y125481D01*
X-27788Y125100D01*
X-27116Y124966D01*
X-26476D01*
Y127067D01*
D02*
G37*
G36*
X24902Y127067D02*
X22506D01*
Y126722D01*
X22639Y126050D01*
X23020Y125481D01*
X23590Y125100D01*
X24262Y124966D01*
X24902D01*
Y127067D01*
D02*
G37*
G36*
X-6594D02*
X-8990D01*
Y126722D01*
X-8857Y126050D01*
X-8476Y125481D01*
X-7906Y125100D01*
X-7234Y124966D01*
X-6594D01*
Y127067D01*
D02*
G37*
G36*
X-22506Y127067D02*
X-24902D01*
Y124966D01*
X-24262D01*
X-23590Y125100D01*
X-23020Y125481D01*
X-22639Y126050D01*
X-22506Y126722D01*
Y127067D01*
D02*
G37*
G36*
X35516Y142913D02*
X34252D01*
Y141650D01*
X34309Y141661D01*
X35026Y142140D01*
X35504Y142856D01*
X35516Y142913D01*
D02*
G37*
G36*
X32677D02*
X31413D01*
X31425Y142856D01*
X31903Y142140D01*
X32620Y141661D01*
X32677Y141650D01*
Y142913D01*
D02*
G37*
G36*
X11417D02*
X10154D01*
X10165Y142856D01*
X10644Y142140D01*
X11360Y141661D01*
X11417Y141650D01*
Y142913D01*
D02*
G37*
G36*
X37795D02*
X36531D01*
X36543Y142856D01*
X37021Y142140D01*
X37738Y141661D01*
X37795Y141650D01*
Y142913D01*
D02*
G37*
G36*
X45752D02*
X44488D01*
Y141650D01*
X44546Y141661D01*
X45262Y142140D01*
X45741Y142856D01*
X45752Y142913D01*
D02*
G37*
G36*
X42913D02*
X41650D01*
X41661Y142856D01*
X42140Y142140D01*
X42856Y141661D01*
X42913Y141650D01*
Y142913D01*
D02*
G37*
G36*
X40634D02*
X39370D01*
Y141650D01*
X39428Y141661D01*
X40144Y142140D01*
X40622Y142856D01*
X40634Y142913D01*
D02*
G37*
G36*
X-20079D02*
X-21342D01*
X-21331Y142856D01*
X-20853Y142140D01*
X-20136Y141661D01*
X-20079Y141650D01*
Y142913D01*
D02*
G37*
G36*
X-22358D02*
X-23622D01*
Y141650D01*
X-23565Y141661D01*
X-22848Y142140D01*
X-22370Y142856D01*
X-22358Y142913D01*
D02*
G37*
G36*
X-25197D02*
X-26461D01*
X-26449Y142856D01*
X-25971Y142140D01*
X-25254Y141661D01*
X-25197Y141650D01*
Y142913D01*
D02*
G37*
G36*
X1181D02*
X-83D01*
X-71Y142856D01*
X407Y142140D01*
X1124Y141661D01*
X1181Y141650D01*
Y142913D01*
D02*
G37*
G36*
X9138D02*
X7874D01*
Y141650D01*
X7931Y141661D01*
X8648Y142140D01*
X9126Y142856D01*
X9138Y142913D01*
D02*
G37*
G36*
X6299D02*
X5035D01*
X5047Y142856D01*
X5525Y142140D01*
X6242Y141661D01*
X6299Y141650D01*
Y142913D01*
D02*
G37*
G36*
X4020D02*
X2756D01*
Y141650D01*
X2813Y141661D01*
X3530Y142140D01*
X4008Y142856D01*
X4020Y142913D01*
D02*
G37*
G36*
X11417Y145752D02*
X11360Y145740D01*
X10644Y145262D01*
X10165Y144546D01*
X10154Y144488D01*
X11417D01*
Y145752D01*
D02*
G37*
G36*
X7874D02*
Y144488D01*
X9138D01*
X9126Y144546D01*
X8648Y145262D01*
X7931Y145740D01*
X7874Y145752D01*
D02*
G37*
G36*
X6299D02*
X6242Y145740D01*
X5525Y145262D01*
X5047Y144546D01*
X5035Y144488D01*
X6299D01*
Y145752D01*
D02*
G37*
G36*
X32677D02*
X32620Y145740D01*
X31903Y145262D01*
X31425Y144546D01*
X31413Y144488D01*
X32677D01*
Y145752D01*
D02*
G37*
G36*
X39370D02*
Y144488D01*
X40634D01*
X40622Y144546D01*
X40144Y145262D01*
X39428Y145740D01*
X39370Y145752D01*
D02*
G37*
G36*
X37795D02*
X37738Y145740D01*
X37021Y145262D01*
X36543Y144546D01*
X36531Y144488D01*
X37795D01*
Y145752D01*
D02*
G37*
G36*
X34252D02*
Y144488D01*
X35516D01*
X35504Y144546D01*
X35026Y145262D01*
X34309Y145740D01*
X34252Y145752D01*
D02*
G37*
G36*
X-25197D02*
X-25254Y145740D01*
X-25971Y145262D01*
X-26449Y144546D01*
X-26461Y144488D01*
X-25197D01*
Y145752D01*
D02*
G37*
G36*
X-28740D02*
Y144488D01*
X-27476D01*
X-27488Y144546D01*
X-27966Y145262D01*
X-28683Y145740D01*
X-28740Y145752D01*
D02*
G37*
G36*
X-30315D02*
X-30372Y145740D01*
X-31089Y145262D01*
X-31567Y144546D01*
X-31579Y144488D01*
X-30315D01*
Y145752D01*
D02*
G37*
G36*
X-23622D02*
Y144488D01*
X-22358D01*
X-22370Y144546D01*
X-22848Y145262D01*
X-23565Y145740D01*
X-23622Y145752D01*
D02*
G37*
G36*
X2756D02*
Y144488D01*
X4020D01*
X4008Y144546D01*
X3530Y145262D01*
X2813Y145740D01*
X2756Y145752D01*
D02*
G37*
G36*
X1181D02*
X1124Y145740D01*
X407Y145262D01*
X-71Y144546D01*
X-83Y144488D01*
X1181D01*
Y145752D01*
D02*
G37*
G36*
X-20079D02*
X-20136Y145740D01*
X-20853Y145262D01*
X-21331Y144546D01*
X-21342Y144488D01*
X-20079D01*
Y145752D01*
D02*
G37*
G36*
X-27476Y142913D02*
X-28740D01*
Y141650D01*
X-28683Y141661D01*
X-27966Y142140D01*
X-27488Y142856D01*
X-27476Y142913D01*
D02*
G37*
G36*
X-42437Y137008D02*
X-46539D01*
X-46528Y136950D01*
X-46049Y136234D01*
X-45814Y136077D01*
Y135577D01*
X-46049Y135419D01*
X-46528Y134703D01*
X-46539Y134646D01*
X-42437D01*
X-42448Y134703D01*
X-42927Y135419D01*
X-43163Y135577D01*
Y136077D01*
X-42927Y136234D01*
X-42448Y136950D01*
X-42437Y137008D01*
D02*
G37*
G36*
X40486Y135138D02*
X38091D01*
Y133037D01*
X38730D01*
X39402Y133171D01*
X39972Y133552D01*
X40353Y134121D01*
X40486Y134793D01*
Y135138D01*
D02*
G37*
G36*
X36516D02*
X34120D01*
Y134793D01*
X34253Y134121D01*
X34634Y133552D01*
X35204Y133171D01*
X35876Y133037D01*
X36516D01*
Y135138D01*
D02*
G37*
G36*
X-10941Y137008D02*
X-15043D01*
X-15032Y136950D01*
X-14553Y136234D01*
X-14318Y136077D01*
Y135577D01*
X-14553Y135419D01*
X-15032Y134703D01*
X-15043Y134646D01*
X-10941D01*
X-10952Y134703D01*
X-11431Y135419D01*
X-11666Y135577D01*
Y136077D01*
X-11431Y136234D01*
X-10952Y136950D01*
X-10941Y137008D01*
D02*
G37*
G36*
X-24262Y138813D02*
X-24902D01*
Y136713D01*
X-22506D01*
Y137057D01*
X-22639Y137729D01*
X-23020Y138299D01*
X-23590Y138680D01*
X-24262Y138813D01*
D02*
G37*
G36*
X-26476D02*
X-27116D01*
X-27788Y138680D01*
X-28358Y138299D01*
X-28739Y137729D01*
X-28872Y137057D01*
Y136713D01*
X-26476D01*
Y138813D01*
D02*
G37*
G36*
X20555Y137008D02*
X16453D01*
X16464Y136950D01*
X16943Y136234D01*
X17178Y136077D01*
Y135577D01*
X16943Y135419D01*
X16464Y134703D01*
X16453Y134646D01*
X20555D01*
X20544Y134703D01*
X20065Y135419D01*
X19829Y135577D01*
Y136077D01*
X20065Y136234D01*
X20544Y136950D01*
X20555Y137008D01*
D02*
G37*
G36*
X-22506Y135138D02*
X-24902D01*
Y133037D01*
X-24262D01*
X-23590Y133171D01*
X-23020Y133552D01*
X-22639Y134121D01*
X-22506Y134793D01*
Y135138D01*
D02*
G37*
G36*
X-26476D02*
X-28872D01*
Y134793D01*
X-28739Y134121D01*
X-28358Y133552D01*
X-27788Y133171D01*
X-27116Y133037D01*
X-26476D01*
Y135138D01*
D02*
G37*
G36*
X-38091Y135138D02*
X-40486D01*
Y134793D01*
X-40353Y134121D01*
X-39972Y133552D01*
X-39402Y133171D01*
X-38730Y133037D01*
X-38091D01*
Y135138D01*
D02*
G37*
G36*
X-6594D02*
X-8990D01*
Y134793D01*
X-8857Y134121D01*
X-8476Y133552D01*
X-7906Y133171D01*
X-7234Y133037D01*
X-6594D01*
Y135138D01*
D02*
G37*
G36*
X24902D02*
X22506D01*
Y134793D01*
X22639Y134121D01*
X23020Y133552D01*
X23590Y133171D01*
X24262Y133037D01*
X24902D01*
Y135138D01*
D02*
G37*
G36*
X8990Y135138D02*
X6594D01*
Y133037D01*
X7234D01*
X7906Y133171D01*
X8476Y133552D01*
X8857Y134121D01*
X8990Y134793D01*
Y135138D01*
D02*
G37*
G36*
X5020D02*
X2624D01*
Y134793D01*
X2757Y134121D01*
X3138Y133552D01*
X3708Y133171D01*
X4380Y133037D01*
X5020D01*
Y135138D01*
D02*
G37*
G36*
X-13780Y139846D02*
X-13837Y139835D01*
X-14553Y139356D01*
X-15032Y138640D01*
X-15043Y138583D01*
X-13780D01*
Y139846D01*
D02*
G37*
G36*
X-43701D02*
Y138583D01*
X-42437D01*
X-42448Y138640D01*
X-42927Y139356D01*
X-43643Y139835D01*
X-43701Y139846D01*
D02*
G37*
G36*
X-45276D02*
X-45333Y139835D01*
X-46049Y139356D01*
X-46528Y138640D01*
X-46539Y138583D01*
X-45276D01*
Y139846D01*
D02*
G37*
G36*
X-12205D02*
Y138583D01*
X-10941D01*
X-10952Y138640D01*
X-11431Y139356D01*
X-12147Y139835D01*
X-12205Y139846D01*
D02*
G37*
G36*
X-30315Y142913D02*
X-31579D01*
X-31567Y142856D01*
X-31089Y142140D01*
X-30372Y141661D01*
X-30315Y141650D01*
Y142913D01*
D02*
G37*
G36*
X19291Y139846D02*
Y138583D01*
X20555D01*
X20544Y138640D01*
X20065Y139356D01*
X19349Y139835D01*
X19291Y139846D01*
D02*
G37*
G36*
X17717D02*
X17659Y139835D01*
X16943Y139356D01*
X16464Y138640D01*
X16453Y138583D01*
X17717D01*
Y139846D01*
D02*
G37*
G36*
X36516Y138813D02*
X35876D01*
X35204Y138680D01*
X34634Y138299D01*
X34253Y137729D01*
X34120Y137057D01*
Y136713D01*
X36516D01*
Y138813D01*
D02*
G37*
G36*
X7234D02*
X6594D01*
Y136713D01*
X8990D01*
Y137057D01*
X8857Y137729D01*
X8476Y138299D01*
X7906Y138680D01*
X7234Y138813D01*
D02*
G37*
G36*
X5020D02*
X4380D01*
X3708Y138680D01*
X3138Y138299D01*
X2757Y137729D01*
X2624Y137057D01*
Y136713D01*
X5020D01*
Y138813D01*
D02*
G37*
G36*
X38730D02*
X38091D01*
Y136713D01*
X40486D01*
Y137057D01*
X40353Y137729D01*
X39972Y138299D01*
X39402Y138680D01*
X38730Y138813D01*
D02*
G37*
G36*
X24902D02*
X24262D01*
X23590Y138680D01*
X23020Y138299D01*
X22639Y137729D01*
X22506Y137057D01*
Y136713D01*
X24902D01*
Y138813D01*
D02*
G37*
G36*
X-38091D02*
X-38730D01*
X-39402Y138680D01*
X-39972Y138299D01*
X-40353Y137729D01*
X-40486Y137057D01*
Y136713D01*
X-38091D01*
Y138813D01*
D02*
G37*
G36*
X-6594D02*
X-7234D01*
X-7906Y138680D01*
X-8476Y138299D01*
X-8857Y137729D01*
X-8990Y137057D01*
Y136713D01*
X-6594D01*
Y138813D01*
D02*
G37*
G36*
X103543Y45314D02*
X102775Y45161D01*
X102124Y44726D01*
X101875Y44354D01*
X101274D01*
X101025Y44726D01*
X100374Y45161D01*
X99606Y45314D01*
X98838Y45161D01*
X98187Y44726D01*
X97752Y44075D01*
X97599Y43307D01*
X97752Y42539D01*
X98187Y41888D01*
X98838Y41453D01*
X99606Y41300D01*
X100374Y41453D01*
X101025Y41888D01*
X101274Y42260D01*
X101875D01*
X102124Y41888D01*
X102775Y41453D01*
X103543Y41300D01*
X104311Y41453D01*
X104383Y41501D01*
X105654D01*
Y39370D01*
X105792Y38679D01*
X105867Y38567D01*
Y36909D01*
X105943Y36525D01*
X106160Y36200D01*
X106486Y35982D01*
X106870Y35906D01*
X108051D01*
X108435Y35982D01*
X108761Y36200D01*
X108978Y36525D01*
X109055Y36909D01*
Y38567D01*
X109130Y38679D01*
X109267Y39370D01*
Y42539D01*
X109130Y43231D01*
X108738Y43817D01*
X107970Y44584D01*
X107384Y44976D01*
X106693Y45113D01*
X104383D01*
X104311Y45161D01*
X103543Y45314D01*
D02*
G37*
G36*
X78740Y50361D02*
X77353Y50178D01*
X76060Y49643D01*
X74950Y48791D01*
X74098Y47680D01*
X73562Y46387D01*
X73379Y45000D01*
X73562Y43613D01*
X74098Y42320D01*
X74950Y41209D01*
X76060Y40357D01*
X77353Y39822D01*
X78740Y39639D01*
X80128Y39822D01*
X81421Y40357D01*
X82531Y41209D01*
X83383Y42320D01*
X83918Y43613D01*
X84101Y45000D01*
X83918Y46387D01*
X83383Y47680D01*
X82531Y48791D01*
X81421Y49643D01*
X80128Y50178D01*
X78740Y50361D01*
D02*
G37*
G36*
X113051Y42834D02*
X111870D01*
X111486Y42758D01*
X111161Y42540D01*
X110943Y42215D01*
X110867Y41831D01*
Y36909D01*
X110943Y36525D01*
X111161Y36200D01*
X111486Y35982D01*
X111870Y35906D01*
X113051D01*
X113435Y35982D01*
X113761Y36200D01*
X113978Y36525D01*
X114055Y36909D01*
Y41831D01*
X113978Y42215D01*
X113761Y42540D01*
X113435Y42758D01*
X113051Y42834D01*
D02*
G37*
G36*
X124638Y49606D02*
X122736D01*
Y46228D01*
X122982D01*
X123616Y46354D01*
X124153Y46713D01*
X124512Y47250D01*
X124638Y47884D01*
Y49606D01*
D02*
G37*
G36*
X137878Y50394D02*
X136614D01*
Y49130D01*
X136672Y49141D01*
X137388Y49620D01*
X137866Y50336D01*
X137878Y50394D01*
D02*
G37*
G36*
X135039D02*
X133776D01*
X133787Y50336D01*
X134266Y49620D01*
X134982Y49141D01*
X135039Y49130D01*
Y50394D01*
D02*
G37*
G36*
X121161Y49606D02*
X119260D01*
Y47884D01*
X119338Y47491D01*
X118867Y47296D01*
X118742Y47482D01*
X118091Y47917D01*
X117323Y48070D01*
X116555Y47917D01*
X115904Y47482D01*
X115469Y46831D01*
X115316Y46063D01*
X115469Y45295D01*
X115904Y44644D01*
X116119Y44500D01*
Y42478D01*
X115943Y42215D01*
X115867Y41831D01*
Y36909D01*
X115943Y36525D01*
X116161Y36200D01*
X116486Y35982D01*
X116870Y35906D01*
X118051D01*
X118435Y35982D01*
X118761Y36200D01*
X118978Y36525D01*
X119055Y36909D01*
Y41831D01*
X118978Y42215D01*
X118761Y42540D01*
X118527Y42696D01*
Y44500D01*
X118742Y44644D01*
X119177Y45295D01*
X119330Y46063D01*
X119225Y46591D01*
X119696Y46786D01*
X119745Y46713D01*
X120282Y46354D01*
X120915Y46228D01*
X121161D01*
Y49606D01*
D02*
G37*
G36*
X-146850Y33941D02*
X-147114Y33888D01*
X-147505Y33627D01*
X-147766Y33236D01*
X-147819Y32972D01*
X-146850D01*
Y33941D01*
D02*
G37*
G36*
X-3543Y32366D02*
Y31102D01*
X-2280D01*
X-2291Y31160D01*
X-2770Y31876D01*
X-3486Y32355D01*
X-3543Y32366D01*
D02*
G37*
G36*
X-5118D02*
X-5176Y32355D01*
X-5892Y31876D01*
X-6370Y31160D01*
X-6382Y31102D01*
X-5118D01*
Y32366D01*
D02*
G37*
G36*
X-141732Y33941D02*
Y32972D01*
X-140764D01*
X-140817Y33236D01*
X-141078Y33627D01*
X-141468Y33888D01*
X-141732Y33941D01*
D02*
G37*
G36*
X51968Y35122D02*
Y33858D01*
X53232D01*
X53221Y33916D01*
X52742Y34632D01*
X52026Y35111D01*
X51968Y35122D01*
D02*
G37*
G36*
X50394D02*
X50336Y35111D01*
X49620Y34632D01*
X49141Y33916D01*
X49130Y33858D01*
X50394D01*
Y35122D01*
D02*
G37*
G36*
X104331Y34728D02*
X104273Y34717D01*
X103557Y34238D01*
X103078Y33522D01*
X103067Y33465D01*
X104331D01*
Y34728D01*
D02*
G37*
G36*
X23705Y59055D02*
X22441D01*
Y57791D01*
X22498Y57803D01*
X23215Y58281D01*
X23693Y58998D01*
X23705Y59055D01*
D02*
G37*
G36*
X20866D02*
X19602D01*
X19614Y58998D01*
X20092Y58281D01*
X20809Y57803D01*
X20866Y57791D01*
Y59055D01*
D02*
G37*
G36*
X117657Y63307D02*
X116476D01*
X116092Y63230D01*
X115767Y63013D01*
X115549Y62687D01*
X115473Y62303D01*
Y57382D01*
X115549Y56998D01*
X115767Y56672D01*
X116092Y56455D01*
X116476Y56378D01*
X117657D01*
X118042Y56455D01*
X118367Y56672D01*
X118585Y56998D01*
X118661Y57382D01*
Y62303D01*
X118585Y62687D01*
X118367Y63013D01*
X118042Y63230D01*
X117657Y63307D01*
D02*
G37*
G36*
X62205Y60236D02*
X60941D01*
X60952Y60179D01*
X61431Y59462D01*
X62147Y58984D01*
X62205Y58973D01*
Y60236D01*
D02*
G37*
G36*
X121280Y63468D02*
X121016Y63416D01*
X120625Y63155D01*
X120364Y62764D01*
X120272Y62303D01*
Y60630D01*
X121280D01*
Y63468D01*
D02*
G37*
G36*
X99213Y61440D02*
X97638D01*
X97177Y61349D01*
X96786Y61088D01*
X96525Y60697D01*
X96434Y60236D01*
Y59570D01*
X95362D01*
X95218Y59785D01*
X94567Y60220D01*
X93799Y60373D01*
X93031Y60220D01*
X92380Y59785D01*
X91945Y59134D01*
X91792Y58366D01*
X91945Y57598D01*
X92380Y56947D01*
X93031Y56512D01*
X93799Y56359D01*
X94567Y56512D01*
X95218Y56947D01*
X95362Y57162D01*
X96434D01*
Y56496D01*
X96525Y56035D01*
X96786Y55645D01*
X97177Y55383D01*
X97638Y55292D01*
X99213D01*
X99673Y55383D01*
X100064Y55645D01*
X100325Y56035D01*
X100417Y56496D01*
Y60236D01*
X100325Y60697D01*
X100064Y61088D01*
X99673Y61349D01*
X99213Y61440D01*
D02*
G37*
G36*
X65043Y60236D02*
X63779D01*
Y58973D01*
X63837Y58984D01*
X64553Y59462D01*
X65032Y60179D01*
X65043Y60236D01*
D02*
G37*
G36*
X135039Y53232D02*
X134982Y53221D01*
X134266Y52742D01*
X133787Y52026D01*
X133776Y51968D01*
X135039D01*
Y53232D01*
D02*
G37*
G36*
X122982Y54559D02*
X122736D01*
Y51181D01*
X124638D01*
Y52903D01*
X124512Y53537D01*
X124153Y54074D01*
X123616Y54433D01*
X122982Y54559D01*
D02*
G37*
G36*
X121161D02*
X120915D01*
X120282Y54433D01*
X119745Y54074D01*
X119386Y53537D01*
X119260Y52903D01*
Y51181D01*
X121161D01*
Y54559D01*
D02*
G37*
G36*
X136614Y53232D02*
Y51968D01*
X137878D01*
X137866Y52026D01*
X137388Y52742D01*
X136672Y53221D01*
X136614Y53232D01*
D02*
G37*
G36*
X121280Y59055D02*
X120272D01*
Y57382D01*
X120364Y56921D01*
X120625Y56530D01*
X121016Y56269D01*
X121280Y56217D01*
Y59055D01*
D02*
G37*
G36*
X123862D02*
X122854D01*
Y56217D01*
X123118Y56269D01*
X123509Y56530D01*
X123770Y56921D01*
X123862Y57382D01*
Y59055D01*
D02*
G37*
G36*
X112657Y63307D02*
X111476D01*
X111092Y63230D01*
X110767Y63013D01*
X110549Y62687D01*
X110473Y62303D01*
Y60646D01*
X110398Y60534D01*
X110261Y59842D01*
Y54209D01*
X109847Y53932D01*
X109710Y53727D01*
X109122Y53610D01*
X108873Y53800D01*
Y59842D01*
X108736Y60534D01*
X108661Y60646D01*
Y62303D01*
X108585Y62687D01*
X108367Y63013D01*
X108042Y63230D01*
X107658Y63307D01*
X106476D01*
X106092Y63230D01*
X105767Y63013D01*
X105549Y62687D01*
X105473Y62303D01*
Y60646D01*
X105398Y60534D01*
X105261Y59842D01*
Y52776D01*
X105398Y52084D01*
X105790Y51498D01*
X108171Y49116D01*
X108757Y48725D01*
X109421Y48593D01*
Y47884D01*
X109532Y47327D01*
X109847Y46855D01*
X110319Y46540D01*
X110876Y46429D01*
X112943D01*
X113500Y46540D01*
X113972Y46855D01*
X114287Y47327D01*
X114398Y47884D01*
Y52903D01*
X114287Y53460D01*
X113972Y53932D01*
X113873Y53998D01*
Y59842D01*
X113736Y60534D01*
X113661Y60646D01*
Y62303D01*
X113585Y62687D01*
X113367Y63013D01*
X113041Y63230D01*
X112657Y63307D01*
D02*
G37*
G36*
X53232Y32283D02*
X51968D01*
Y31020D01*
X52026Y31031D01*
X52742Y31510D01*
X53221Y32226D01*
X53232Y32283D01*
D02*
G37*
G36*
X140240Y24016D02*
X138976D01*
Y22752D01*
X139034Y22763D01*
X139750Y23242D01*
X140229Y23958D01*
X140240Y24016D01*
D02*
G37*
G36*
X137402D02*
X136138D01*
X136149Y23958D01*
X136628Y23242D01*
X137344Y22763D01*
X137402Y22752D01*
Y24016D01*
D02*
G37*
G36*
X122441Y27953D02*
X115748D01*
Y23031D01*
X122441D01*
Y23541D01*
X122941Y23693D01*
X123242Y23242D01*
X123958Y22763D01*
X124016Y22752D01*
Y24803D01*
Y26854D01*
X123958Y26843D01*
X123242Y26364D01*
X122941Y25914D01*
X122441Y26065D01*
Y27953D01*
D02*
G37*
G36*
X104331Y26461D02*
X104273Y26449D01*
X103557Y25971D01*
X103078Y25254D01*
X103067Y25197D01*
X104331D01*
Y26461D01*
D02*
G37*
G36*
X137402Y26854D02*
X137344Y26843D01*
X136628Y26364D01*
X136149Y25648D01*
X136138Y25591D01*
X137402D01*
Y26854D01*
D02*
G37*
G36*
X125591D02*
Y25591D01*
X126854D01*
X126843Y25648D01*
X126364Y26364D01*
X125648Y26843D01*
X125591Y26854D01*
D02*
G37*
G36*
X114173Y27953D02*
X107480D01*
Y25672D01*
X106980Y25520D01*
X106679Y25971D01*
X105963Y26449D01*
X105905Y26461D01*
Y24409D01*
Y22358D01*
X105963Y22370D01*
X106679Y22848D01*
X106980Y23299D01*
X107480Y23147D01*
Y23031D01*
X114173D01*
Y27953D01*
D02*
G37*
G36*
X-21654Y20555D02*
Y19291D01*
X-20390D01*
X-20401Y19349D01*
X-20880Y20065D01*
X-21596Y20544D01*
X-21654Y20555D01*
D02*
G37*
G36*
X-23228D02*
X-23286Y20544D01*
X-24002Y20065D01*
X-24481Y19349D01*
X-24492Y19291D01*
X-23228D01*
Y20555D01*
D02*
G37*
G36*
X123248Y21736D02*
Y18898D01*
X124255D01*
Y20571D01*
X124164Y21032D01*
X123903Y21422D01*
X123512Y21683D01*
X123248Y21736D01*
D02*
G37*
G36*
X99213Y22070D02*
X97638D01*
X97177Y21979D01*
X96786Y21718D01*
X96525Y21327D01*
X96434Y20866D01*
Y20200D01*
X95756D01*
X95612Y20415D01*
X94961Y20850D01*
X94193Y21003D01*
X93425Y20850D01*
X92774Y20415D01*
X92339Y19764D01*
X92186Y18996D01*
X92339Y18228D01*
X92774Y17577D01*
X93425Y17142D01*
X94193Y16989D01*
X94961Y17142D01*
X95612Y17577D01*
X95756Y17792D01*
X96434D01*
Y17126D01*
X96525Y16665D01*
X96786Y16274D01*
X97177Y16013D01*
X97638Y15922D01*
X99213D01*
X99673Y16013D01*
X100064Y16274D01*
X100325Y16665D01*
X100417Y17126D01*
Y20866D01*
X100325Y21327D01*
X100064Y21718D01*
X99673Y21979D01*
X99213Y22070D01*
D02*
G37*
G36*
X104331Y23622D02*
X103067D01*
X103078Y23565D01*
X103557Y22848D01*
X104273Y22370D01*
X104331Y22358D01*
Y23622D01*
D02*
G37*
G36*
X133219Y23851D02*
X131496D01*
Y21949D01*
X134874D01*
Y22195D01*
X134748Y22829D01*
X134389Y23366D01*
X133852Y23725D01*
X133219Y23851D01*
D02*
G37*
G36*
X126854Y24016D02*
X125591D01*
Y22752D01*
X125648Y22763D01*
X126364Y23242D01*
X126743Y22940D01*
X126669Y22829D01*
X126543Y22195D01*
Y21949D01*
X129921D01*
Y23851D01*
X128199D01*
X127565Y23725D01*
X127028Y23366D01*
X126649Y23668D01*
X126843Y23958D01*
X126854Y24016D01*
D02*
G37*
G36*
X105905Y34728D02*
Y32677D01*
Y30626D01*
X105963Y30637D01*
X106679Y31116D01*
X106980Y31567D01*
X107480Y31415D01*
Y29528D01*
X114173D01*
Y34449D01*
X107480D01*
Y33939D01*
X106980Y33788D01*
X106679Y34238D01*
X105963Y34717D01*
X105905Y34728D01*
D02*
G37*
G36*
X126772Y30397D02*
X126508Y30345D01*
X126117Y30084D01*
X125856Y29693D01*
X125803Y29429D01*
X126772D01*
Y30397D01*
D02*
G37*
G36*
X131890D02*
Y29429D01*
X132858D01*
X132806Y29693D01*
X132544Y30084D01*
X132154Y30345D01*
X131890Y30397D01*
D02*
G37*
G36*
X122441Y34449D02*
X115748D01*
Y29528D01*
X122441D01*
Y34449D01*
D02*
G37*
G36*
X50394Y32283D02*
X49130D01*
X49141Y32226D01*
X49620Y31510D01*
X50336Y31031D01*
X50394Y31020D01*
Y32283D01*
D02*
G37*
G36*
X123051Y42834D02*
X121870D01*
X121486Y42758D01*
X121160Y42540D01*
X120943Y42215D01*
X120867Y41831D01*
Y36909D01*
X120943Y36525D01*
X121160Y36200D01*
X121486Y35982D01*
X121870Y35906D01*
X122726D01*
X125965Y32667D01*
Y32185D01*
X126041Y31801D01*
X126259Y31475D01*
X126584Y31258D01*
X126969Y31181D01*
X128150D01*
X128534Y31258D01*
X128859Y31475D01*
X128923Y31571D01*
X129738D01*
X129802Y31475D01*
X130128Y31258D01*
X130512Y31181D01*
X131693D01*
X132077Y31258D01*
X132403Y31475D01*
X132467Y31571D01*
X133772D01*
X133915Y31356D01*
X134567Y30921D01*
X135335Y30768D01*
X136103Y30921D01*
X136754Y31356D01*
X137189Y32008D01*
X137342Y32776D01*
X137189Y33544D01*
X136754Y34195D01*
X136103Y34630D01*
X135335Y34783D01*
X134567Y34630D01*
X133915Y34195D01*
X133772Y33980D01*
X132467D01*
X132403Y34076D01*
X132077Y34293D01*
X131693Y34370D01*
X130512D01*
X130128Y34293D01*
X129802Y34076D01*
X129738Y33980D01*
X128923D01*
X128859Y34076D01*
X128534Y34293D01*
X128150Y34370D01*
X127668D01*
X124055Y37983D01*
Y41831D01*
X123978Y42215D01*
X123761Y42540D01*
X123435Y42758D01*
X123051Y42834D01*
D02*
G37*
G36*
X104331Y31890D02*
X103067D01*
X103078Y31832D01*
X103557Y31116D01*
X104273Y30637D01*
X104331Y30626D01*
Y31890D01*
D02*
G37*
G36*
X132858Y27854D02*
X131890D01*
Y26886D01*
X132154Y26939D01*
X132544Y27200D01*
X132806Y27590D01*
X132858Y27854D01*
D02*
G37*
G36*
X-147047Y27362D02*
X-148311D01*
X-148300Y27305D01*
X-147821Y26588D01*
X-147105Y26110D01*
X-147047Y26098D01*
Y27362D01*
D02*
G37*
G36*
X138976Y26854D02*
Y25591D01*
X140240D01*
X140229Y25648D01*
X139750Y26364D01*
X139034Y26843D01*
X138976Y26854D01*
D02*
G37*
G36*
X128346Y30397D02*
Y28642D01*
Y26886D01*
X128610Y26939D01*
X129001Y27200D01*
X129030Y27243D01*
X129631D01*
X129660Y27200D01*
X130051Y26939D01*
X130315Y26886D01*
Y28642D01*
Y30397D01*
X130051Y30345D01*
X129660Y30084D01*
X129631Y30041D01*
X129030D01*
X129001Y30084D01*
X128610Y30345D01*
X128346Y30397D01*
D02*
G37*
G36*
X-2280Y29528D02*
X-3543D01*
Y28264D01*
X-3486Y28275D01*
X-2770Y28754D01*
X-2291Y29470D01*
X-2280Y29528D01*
D02*
G37*
G36*
X-5118D02*
X-6382D01*
X-6370Y29470D01*
X-5892Y28754D01*
X-5176Y28275D01*
X-5118Y28264D01*
Y29528D01*
D02*
G37*
G36*
X126772Y27854D02*
X125803D01*
X125856Y27590D01*
X126117Y27200D01*
X126508Y26939D01*
X126772Y26886D01*
Y27854D01*
D02*
G37*
G36*
X10630Y97638D02*
X9366D01*
X9378Y97580D01*
X9856Y96864D01*
X10572Y96386D01*
X10630Y96374D01*
Y97638D01*
D02*
G37*
G36*
X91732Y89846D02*
Y88583D01*
X92996D01*
X92985Y88640D01*
X92506Y89356D01*
X91790Y89835D01*
X91732Y89846D01*
D02*
G37*
G36*
X90158D02*
X90100Y89835D01*
X89384Y89356D01*
X88905Y88640D01*
X88894Y88583D01*
X90158D01*
Y89846D01*
D02*
G37*
G36*
X13468Y97638D02*
X12205D01*
Y96374D01*
X12262Y96386D01*
X12979Y96864D01*
X13457Y97580D01*
X13468Y97638D01*
D02*
G37*
G36*
X-85000Y112918D02*
X-85745Y112820D01*
X-86440Y112533D01*
X-87036Y112075D01*
X-87493Y111479D01*
X-87781Y110784D01*
X-87879Y110039D01*
X-87781Y109294D01*
X-87493Y108600D01*
X-87036Y108004D01*
X-86440Y107546D01*
X-85745Y107258D01*
X-85000Y107160D01*
X-84255Y107258D01*
X-83561Y107546D01*
X-82964Y108004D01*
X-82507Y108600D01*
X-82219Y109294D01*
X-82121Y110039D01*
X-82219Y110784D01*
X-82507Y111479D01*
X-82964Y112075D01*
X-83561Y112533D01*
X-84255Y112820D01*
X-85000Y112918D01*
D02*
G37*
G36*
X12205Y100476D02*
Y99213D01*
X13468D01*
X13457Y99270D01*
X12979Y99986D01*
X12262Y100465D01*
X12205Y100476D01*
D02*
G37*
G36*
X10630D02*
X10572Y100465D01*
X9856Y99986D01*
X9378Y99270D01*
X9366Y99213D01*
X10630D01*
Y100476D01*
D02*
G37*
G36*
X106693Y98070D02*
X105925Y97917D01*
X105274Y97482D01*
X104839Y96831D01*
X104686Y96063D01*
X104839Y95295D01*
X104887Y95223D01*
Y92966D01*
X104839Y92894D01*
X104686Y92126D01*
X104839Y91358D01*
X105261Y90726D01*
Y81102D01*
X105398Y80411D01*
X105473Y80299D01*
Y78642D01*
X105549Y78258D01*
X105767Y77932D01*
X106092Y77715D01*
X106476Y77638D01*
X107658D01*
X108042Y77715D01*
X108367Y77932D01*
X108585Y78258D01*
X108661Y78642D01*
Y80299D01*
X108736Y80411D01*
X108873Y81102D01*
Y91752D01*
X108736Y92443D01*
X108595Y92654D01*
X108547Y92894D01*
X108499Y92966D01*
Y95223D01*
X108547Y95295D01*
X108700Y96063D01*
X108547Y96831D01*
X108112Y97482D01*
X107461Y97917D01*
X106693Y98070D01*
D02*
G37*
G36*
X105118Y76067D02*
Y74803D01*
X106382D01*
X106370Y74861D01*
X105892Y75577D01*
X105176Y76056D01*
X105118Y76067D01*
D02*
G37*
G36*
X103543D02*
X103486Y76056D01*
X102770Y75577D01*
X102291Y74861D01*
X102280Y74803D01*
X103543D01*
Y76067D01*
D02*
G37*
G36*
X112657Y84566D02*
X111476D01*
X111092Y84490D01*
X110767Y84273D01*
X110549Y83947D01*
X110473Y83563D01*
Y78642D01*
X110549Y78258D01*
X110767Y77932D01*
X111092Y77715D01*
X111476Y77638D01*
X112657D01*
X113041Y77715D01*
X113367Y77932D01*
X113585Y78258D01*
X113661Y78642D01*
Y83563D01*
X113585Y83947D01*
X113367Y84273D01*
X113041Y84490D01*
X112657Y84566D01*
D02*
G37*
G36*
X92996Y87008D02*
X91732D01*
Y85744D01*
X91790Y85756D01*
X92506Y86234D01*
X92985Y86950D01*
X92996Y87008D01*
D02*
G37*
G36*
X90158D02*
X88894D01*
X88905Y86950D01*
X89384Y86234D01*
X90100Y85756D01*
X90158Y85744D01*
Y87008D01*
D02*
G37*
G36*
X117323Y89802D02*
X116555Y89650D01*
X115904Y89214D01*
X115469Y88563D01*
X115316Y87795D01*
X115469Y87027D01*
X115863Y86437D01*
Y84337D01*
X115767Y84273D01*
X115549Y83947D01*
X115473Y83563D01*
Y78642D01*
X115549Y78258D01*
X115767Y77932D01*
X116092Y77715D01*
X116476Y77638D01*
X117657D01*
X118042Y77715D01*
X118367Y77932D01*
X118585Y78258D01*
X118661Y78642D01*
Y83563D01*
X118585Y83947D01*
X118367Y84273D01*
X118271Y84337D01*
Y86061D01*
X118742Y86376D01*
X119177Y87027D01*
X119330Y87795D01*
X119177Y88563D01*
X118742Y89214D01*
X118091Y89650D01*
X117323Y89802D01*
D02*
G37*
G36*
X-59055Y134289D02*
X-60186Y134141D01*
X-61239Y133704D01*
X-62144Y133010D01*
X-62838Y132105D01*
X-63274Y131052D01*
X-63423Y129921D01*
Y122047D01*
X-63274Y120917D01*
X-62838Y119863D01*
X-62144Y118958D01*
X-61239Y118264D01*
X-60186Y117828D01*
X-59055Y117679D01*
X-57925Y117828D01*
X-56871Y118264D01*
X-55966Y118958D01*
X-55272Y119863D01*
X-54836Y120917D01*
X-54687Y122047D01*
Y129921D01*
X-54836Y131052D01*
X-55272Y132105D01*
X-55966Y133010D01*
X-56871Y133704D01*
X-57925Y134141D01*
X-59055Y134289D01*
D02*
G37*
G36*
X95000Y112918D02*
X94255Y112820D01*
X93560Y112533D01*
X92964Y112075D01*
X92507Y111479D01*
X92219Y110784D01*
X92121Y110039D01*
X92219Y109294D01*
X92507Y108600D01*
X92964Y108004D01*
X93560Y107546D01*
X94255Y107258D01*
X95000Y107160D01*
X95745Y107258D01*
X96439Y107546D01*
X97036Y108004D01*
X97493Y108600D01*
X97781Y109294D01*
X97879Y110039D01*
X97781Y110784D01*
X97493Y111479D01*
X97036Y112075D01*
X96439Y112533D01*
X95745Y112820D01*
X95000Y112918D01*
D02*
G37*
G36*
X45000D02*
X44255Y112820D01*
X43560Y112533D01*
X42964Y112075D01*
X42507Y111479D01*
X42219Y110784D01*
X42121Y110039D01*
X42219Y109294D01*
X42507Y108600D01*
X42964Y108004D01*
X43560Y107546D01*
X44255Y107258D01*
X45000Y107160D01*
X45745Y107258D01*
X46439Y107546D01*
X47036Y108004D01*
X47493Y108600D01*
X47781Y109294D01*
X47879Y110039D01*
X47781Y110784D01*
X47493Y111479D01*
X47036Y112075D01*
X46439Y112533D01*
X45745Y112820D01*
X45000Y112918D01*
D02*
G37*
G36*
X-50000Y119291D02*
X-51264D01*
X-51252Y119234D01*
X-50774Y118518D01*
X-50058Y118039D01*
X-50000Y118028D01*
Y119291D01*
D02*
G37*
G36*
X-37319D02*
X-38583D01*
Y118028D01*
X-38525Y118039D01*
X-37809Y118518D01*
X-37330Y119234D01*
X-37319Y119291D01*
D02*
G37*
G36*
X-40157D02*
X-41421D01*
X-41410Y119234D01*
X-40931Y118518D01*
X-40215Y118039D01*
X-40157Y118028D01*
Y119291D01*
D02*
G37*
G36*
X-47161D02*
X-48425D01*
Y118028D01*
X-48368Y118039D01*
X-47651Y118518D01*
X-47173Y119234D01*
X-47161Y119291D01*
D02*
G37*
G36*
X-15000Y112918D02*
X-15745Y112820D01*
X-16440Y112533D01*
X-17036Y112075D01*
X-17493Y111479D01*
X-17781Y110784D01*
X-17879Y110039D01*
X-17781Y109294D01*
X-17493Y108600D01*
X-17036Y108004D01*
X-16440Y107546D01*
X-15745Y107258D01*
X-15000Y107160D01*
X-14255Y107258D01*
X-13561Y107546D01*
X-12964Y108004D01*
X-12507Y108600D01*
X-12219Y109294D01*
X-12121Y110039D01*
X-12219Y110784D01*
X-12507Y111479D01*
X-12964Y112075D01*
X-13561Y112533D01*
X-14255Y112820D01*
X-15000Y112918D01*
D02*
G37*
G36*
X-25000D02*
X-25745Y112820D01*
X-26439Y112533D01*
X-27036Y112075D01*
X-27493Y111479D01*
X-27781Y110784D01*
X-27879Y110039D01*
X-27781Y109294D01*
X-27493Y108600D01*
X-27036Y108004D01*
X-26439Y107546D01*
X-25745Y107258D01*
X-25000Y107160D01*
X-24255Y107258D01*
X-23561Y107546D01*
X-22964Y108004D01*
X-22507Y108600D01*
X-22219Y109294D01*
X-22121Y110039D01*
X-22219Y110784D01*
X-22507Y111479D01*
X-22964Y112075D01*
X-23561Y112533D01*
X-24255Y112820D01*
X-25000Y112918D01*
D02*
G37*
G36*
X-75000D02*
X-75745Y112820D01*
X-76439Y112533D01*
X-77036Y112075D01*
X-77493Y111479D01*
X-77781Y110784D01*
X-77879Y110039D01*
X-77781Y109294D01*
X-77493Y108600D01*
X-77036Y108004D01*
X-76439Y107546D01*
X-75745Y107258D01*
X-75000Y107160D01*
X-74255Y107258D01*
X-73561Y107546D01*
X-72964Y108004D01*
X-72507Y108600D01*
X-72219Y109294D01*
X-72121Y110039D01*
X-72219Y110784D01*
X-72507Y111479D01*
X-72964Y112075D01*
X-73561Y112533D01*
X-74255Y112820D01*
X-75000Y112918D01*
D02*
G37*
G36*
X-5000D02*
X-5745Y112820D01*
X-6440Y112533D01*
X-7036Y112075D01*
X-7493Y111479D01*
X-7781Y110784D01*
X-7879Y110039D01*
X-7781Y109294D01*
X-7493Y108600D01*
X-7036Y108004D01*
X-6440Y107546D01*
X-5745Y107258D01*
X-5000Y107160D01*
X-4255Y107258D01*
X-3560Y107546D01*
X-2964Y108004D01*
X-2507Y108600D01*
X-2219Y109294D01*
X-2121Y110039D01*
X-2219Y110784D01*
X-2507Y111479D01*
X-2964Y112075D01*
X-3560Y112533D01*
X-4255Y112820D01*
X-5000Y112918D01*
D02*
G37*
G36*
X35000D02*
X34255Y112820D01*
X33560Y112533D01*
X32964Y112075D01*
X32507Y111479D01*
X32219Y110784D01*
X32121Y110039D01*
X32219Y109294D01*
X32507Y108600D01*
X32964Y108004D01*
X33560Y107546D01*
X34255Y107258D01*
X35000Y107160D01*
X35745Y107258D01*
X36439Y107546D01*
X37036Y108004D01*
X37493Y108600D01*
X37781Y109294D01*
X37879Y110039D01*
X37781Y110784D01*
X37493Y111479D01*
X37036Y112075D01*
X36439Y112533D01*
X35745Y112820D01*
X35000Y112918D01*
D02*
G37*
G36*
X15000D02*
X14255Y112820D01*
X13561Y112533D01*
X12964Y112075D01*
X12507Y111479D01*
X12219Y110784D01*
X12121Y110039D01*
X12219Y109294D01*
X12507Y108600D01*
X12964Y108004D01*
X13561Y107546D01*
X14255Y107258D01*
X15000Y107160D01*
X15745Y107258D01*
X16440Y107546D01*
X17036Y108004D01*
X17493Y108600D01*
X17781Y109294D01*
X17879Y110039D01*
X17781Y110784D01*
X17493Y111479D01*
X17036Y112075D01*
X16440Y112533D01*
X15745Y112820D01*
X15000Y112918D01*
D02*
G37*
G36*
X5000D02*
X4255Y112820D01*
X3560Y112533D01*
X2964Y112075D01*
X2507Y111479D01*
X2219Y110784D01*
X2121Y110039D01*
X2219Y109294D01*
X2507Y108600D01*
X2964Y108004D01*
X3560Y107546D01*
X4255Y107258D01*
X5000Y107160D01*
X5745Y107258D01*
X6440Y107546D01*
X7036Y108004D01*
X7493Y108600D01*
X7781Y109294D01*
X7879Y110039D01*
X7781Y110784D01*
X7493Y111479D01*
X7036Y112075D01*
X6440Y112533D01*
X5745Y112820D01*
X5000Y112918D01*
D02*
G37*
G36*
X106382Y73228D02*
X105118D01*
Y71965D01*
X105176Y71976D01*
X105892Y72455D01*
X106370Y73171D01*
X106382Y73228D01*
D02*
G37*
G36*
X127953Y65043D02*
X127895Y65032D01*
X127179Y64553D01*
X126700Y63837D01*
X126689Y63779D01*
X127953D01*
Y65043D01*
D02*
G37*
G36*
X63779Y63075D02*
Y61811D01*
X65043D01*
X65032Y61869D01*
X64553Y62585D01*
X63837Y63063D01*
X63779Y63075D01*
D02*
G37*
G36*
X62205D02*
X62147Y63063D01*
X61431Y62585D01*
X60952Y61869D01*
X60941Y61811D01*
X62205D01*
Y63075D01*
D02*
G37*
G36*
X129528Y65043D02*
Y63779D01*
X130791D01*
X130780Y63837D01*
X130301Y64553D01*
X129585Y65032D01*
X129528Y65043D01*
D02*
G37*
G36*
X103543Y65748D02*
X102280D01*
X102291Y65690D01*
X102770Y64974D01*
X103486Y64496D01*
X103543Y64484D01*
Y65748D01*
D02*
G37*
G36*
X135039Y65043D02*
Y63779D01*
X136303D01*
X136292Y63837D01*
X135813Y64553D01*
X135097Y65032D01*
X135039Y65043D01*
D02*
G37*
G36*
X133465D02*
X133407Y65032D01*
X132691Y64553D01*
X132212Y63837D01*
X132201Y63779D01*
X133465D01*
Y65043D01*
D02*
G37*
G36*
X22441Y61894D02*
Y60630D01*
X23705D01*
X23693Y60687D01*
X23215Y61404D01*
X22498Y61882D01*
X22441Y61894D01*
D02*
G37*
G36*
X20866D02*
X20809Y61882D01*
X20092Y61404D01*
X19614Y60687D01*
X19602Y60630D01*
X20866D01*
Y61894D01*
D02*
G37*
G36*
X122854Y63468D02*
Y60630D01*
X123862D01*
Y62303D01*
X123770Y62764D01*
X123509Y63155D01*
X123118Y63416D01*
X122854Y63468D01*
D02*
G37*
G36*
X127953Y62205D02*
X126689D01*
X126700Y62147D01*
X127179Y61431D01*
X127895Y60952D01*
X127953Y60941D01*
Y62205D01*
D02*
G37*
G36*
X136303D02*
X135039D01*
Y60941D01*
X135097Y60952D01*
X135813Y61431D01*
X136292Y62147D01*
X136303Y62205D01*
D02*
G37*
G36*
X133465D02*
X132201D01*
X132212Y62147D01*
X132691Y61431D01*
X133407Y60952D01*
X133465Y60941D01*
Y62205D01*
D02*
G37*
G36*
X130791D02*
X129528D01*
Y60941D01*
X129585Y60952D01*
X130301Y61431D01*
X130780Y62147D01*
X130791Y62205D01*
D02*
G37*
G36*
X129134Y70555D02*
X128870Y70502D01*
X128479Y70241D01*
X128450Y70198D01*
X127849D01*
X127820Y70241D01*
X127429Y70502D01*
X127165Y70555D01*
Y68799D01*
Y67044D01*
X127429Y67096D01*
X127820Y67357D01*
X127849Y67400D01*
X128450D01*
X128479Y67357D01*
X128870Y67096D01*
X129134Y67044D01*
Y68799D01*
Y70555D01*
D02*
G37*
G36*
X125591D02*
X125327Y70502D01*
X124936Y70241D01*
X124675Y69851D01*
X124622Y69587D01*
X125591D01*
Y70555D01*
D02*
G37*
G36*
X130709D02*
Y69587D01*
X131677D01*
X131624Y69851D01*
X131363Y70241D01*
X130973Y70502D01*
X130709Y70555D01*
D02*
G37*
G36*
X113779Y76181D02*
X107087D01*
Y71260D01*
X113779D01*
Y76181D01*
D02*
G37*
G36*
X103543Y73228D02*
X102280D01*
X102291Y73171D01*
X102770Y72455D01*
X103486Y71976D01*
X103543Y71965D01*
Y73228D01*
D02*
G37*
G36*
X122658Y84566D02*
X121476D01*
X121092Y84490D01*
X120767Y84273D01*
X120549Y83947D01*
X120473Y83563D01*
Y78642D01*
X120549Y78258D01*
X120767Y77932D01*
X121092Y77715D01*
X121476Y77638D01*
X122658D01*
X123041Y77715D01*
X123367Y77932D01*
X123519Y77947D01*
X124421Y77045D01*
X124371Y76791D01*
X124524Y76023D01*
X124959Y75372D01*
X125174Y75229D01*
Y74297D01*
X125078Y74233D01*
X124860Y73908D01*
X124784Y73524D01*
Y72342D01*
X124860Y71959D01*
X125078Y71633D01*
X125403Y71415D01*
X125787Y71339D01*
X126969D01*
X127352Y71415D01*
X127678Y71633D01*
X127742Y71729D01*
X128557D01*
X128621Y71633D01*
X128947Y71415D01*
X129331Y71339D01*
X130512D01*
X130896Y71415D01*
X131221Y71633D01*
X131439Y71959D01*
X131515Y72342D01*
Y73524D01*
X131439Y73908D01*
X131221Y74233D01*
X130896Y74451D01*
X130512Y74527D01*
X129331D01*
X128947Y74451D01*
X128621Y74233D01*
X128557Y74137D01*
X127742D01*
X127678Y74233D01*
X127582Y74297D01*
Y75229D01*
X127797Y75372D01*
X128232Y76023D01*
X128385Y76791D01*
X128232Y77559D01*
X127797Y78211D01*
X127146Y78646D01*
X126378Y78798D01*
X126124Y78748D01*
X123661Y81211D01*
Y83563D01*
X123585Y83947D01*
X123367Y84273D01*
X123041Y84490D01*
X122658Y84566D01*
D02*
G37*
G36*
X122047Y76181D02*
X115354D01*
Y71260D01*
X122047D01*
Y76181D01*
D02*
G37*
G36*
Y69685D02*
X115354D01*
Y64764D01*
X122047D01*
Y69685D01*
D02*
G37*
G36*
X113779D02*
X107087D01*
Y64764D01*
X113779D01*
Y69685D01*
D02*
G37*
G36*
X106382Y65748D02*
X105118D01*
Y64484D01*
X105176Y64496D01*
X105892Y64974D01*
X106370Y65690D01*
X106382Y65748D01*
D02*
G37*
G36*
X125591Y68012D02*
X124622D01*
X124675Y67748D01*
X124936Y67357D01*
X125327Y67096D01*
X125591Y67044D01*
Y68012D01*
D02*
G37*
G36*
X105118Y68587D02*
Y67323D01*
X106382D01*
X106370Y67380D01*
X105892Y68097D01*
X105176Y68575D01*
X105118Y68587D01*
D02*
G37*
G36*
X103543D02*
X103486Y68575D01*
X102770Y68097D01*
X102291Y67380D01*
X102280Y67323D01*
X103543D01*
Y68587D01*
D02*
G37*
G36*
X131677Y68012D02*
X130709D01*
Y67044D01*
X130973Y67096D01*
X131363Y67357D01*
X131624Y67748D01*
X131677Y68012D01*
D02*
G37*
%LPD*%
D10*
X122461Y39370D02*
D03*
X117461D02*
D03*
X112461D02*
D03*
X107461D02*
D03*
Y18110D02*
D03*
X112461D02*
D03*
X117461D02*
D03*
X122461D02*
D03*
X143327Y-12598D02*
D03*
X138327D02*
D03*
X133327D02*
D03*
X128327D02*
D03*
Y-33858D02*
D03*
X133327D02*
D03*
X138327D02*
D03*
X143327D02*
D03*
X122067Y81102D02*
D03*
X117067D02*
D03*
X112067D02*
D03*
X107067D02*
D03*
Y59842D02*
D03*
X112067D02*
D03*
X117067D02*
D03*
X122067D02*
D03*
D11*
X114961Y28740D02*
D03*
X135827Y-23228D02*
D03*
X114567Y70472D02*
D03*
D12*
X116142Y-72554D02*
D03*
X117717D02*
D03*
X119291D02*
D03*
X120866D02*
D03*
X122441D02*
D03*
X122441Y-64454D02*
D03*
X120866D02*
D03*
X119291D02*
D03*
X117717D02*
D03*
X116142D02*
D03*
X116142Y-47751D02*
D03*
X117717D02*
D03*
X119291D02*
D03*
X120866D02*
D03*
X122441D02*
D03*
X122441Y-39651D02*
D03*
X120866D02*
D03*
X119291D02*
D03*
X117717D02*
D03*
X116142D02*
D03*
D13*
X119291Y-68504D02*
D03*
Y-43701D02*
D03*
D14*
X130020Y-75984D02*
D03*
X125886D02*
D03*
X130020Y-72047D02*
D03*
X125886D02*
D03*
X-142028Y39764D02*
D03*
X-146161D02*
D03*
X129232Y-55118D02*
D03*
X125098D02*
D03*
X129232Y-51181D02*
D03*
X125098D02*
D03*
X143012Y-5512D02*
D03*
X138878D02*
D03*
X143012Y-1575D02*
D03*
X138878D02*
D03*
D15*
X-146063Y36319D02*
D03*
Y32185D02*
D03*
X-142520D02*
D03*
Y36319D02*
D03*
Y28445D02*
D03*
Y24311D02*
D03*
X111811Y-72539D02*
D03*
Y-68405D02*
D03*
Y-47736D02*
D03*
Y-43602D02*
D03*
X129921Y72933D02*
D03*
Y68799D02*
D03*
X126378Y72933D02*
D03*
Y68799D02*
D03*
X127559Y32776D02*
D03*
Y28642D02*
D03*
X131102Y32776D02*
D03*
Y28642D02*
D03*
D16*
X-85335Y-29528D02*
D03*
X-72146D02*
D03*
X-22933D02*
D03*
X-36122D02*
D03*
X22933D02*
D03*
X36122D02*
D03*
X85335D02*
D03*
X72146D02*
D03*
D17*
X98425Y71555D02*
D03*
Y58366D02*
D03*
Y18996D02*
D03*
Y32185D02*
D03*
X-98425Y60335D02*
D03*
Y73524D02*
D03*
Y32185D02*
D03*
Y18996D02*
D03*
D18*
X83661Y-74803D02*
D03*
X89567D02*
D03*
X40354D02*
D03*
X46260D02*
D03*
X-2953D02*
D03*
X2953D02*
D03*
X-46260D02*
D03*
X-40354D02*
D03*
X-89567D02*
D03*
X-83661D02*
D03*
D19*
X70866Y-83661D02*
D03*
X102362D02*
D03*
Y-101378D02*
D03*
X70866D02*
D03*
X27559Y-83661D02*
D03*
X59055D02*
D03*
Y-101378D02*
D03*
X27559D02*
D03*
X-15748Y-83661D02*
D03*
X15748D02*
D03*
Y-101378D02*
D03*
X-15748D02*
D03*
X-59055Y-83661D02*
D03*
X-27559D02*
D03*
Y-101378D02*
D03*
X-59055D02*
D03*
X-102362Y-83661D02*
D03*
X-70866D02*
D03*
Y-101378D02*
D03*
X-102362D02*
D03*
D20*
X31496Y131890D02*
D03*
X0D02*
D03*
X-31496D02*
D03*
D21*
X37303Y127854D02*
D03*
Y135925D02*
D03*
X25689Y127854D02*
D03*
Y135925D02*
D03*
X5807Y127854D02*
D03*
Y135925D02*
D03*
X-5807Y127854D02*
D03*
Y135925D02*
D03*
X-25689Y127854D02*
D03*
Y135925D02*
D03*
X-37303Y127854D02*
D03*
Y135925D02*
D03*
D22*
X111909Y50394D02*
D03*
X121949D02*
D03*
D23*
X130709Y11122D02*
D03*
Y21161D02*
D03*
X120866Y-29035D02*
D03*
Y-18996D02*
D03*
D24*
X-136221Y60827D02*
D03*
Y58858D02*
D03*
Y56890D02*
D03*
Y54921D02*
D03*
Y52953D02*
D03*
Y50984D02*
D03*
Y49016D02*
D03*
Y47047D02*
D03*
Y45079D02*
D03*
Y43110D02*
D03*
Y41142D02*
D03*
Y39173D02*
D03*
Y37205D02*
D03*
Y35236D02*
D03*
Y33268D02*
D03*
Y31299D02*
D03*
Y29331D02*
D03*
Y27362D02*
D03*
Y25394D02*
D03*
Y23425D02*
D03*
Y21457D02*
D03*
Y19488D02*
D03*
Y17520D02*
D03*
Y15551D02*
D03*
X-106299D02*
D03*
Y17520D02*
D03*
Y19488D02*
D03*
Y21457D02*
D03*
Y23425D02*
D03*
Y25394D02*
D03*
Y27362D02*
D03*
Y29331D02*
D03*
Y31299D02*
D03*
Y33268D02*
D03*
Y35236D02*
D03*
Y37205D02*
D03*
Y39173D02*
D03*
Y41142D02*
D03*
Y43110D02*
D03*
Y45079D02*
D03*
Y47047D02*
D03*
Y49016D02*
D03*
Y50984D02*
D03*
Y52953D02*
D03*
Y54921D02*
D03*
Y56890D02*
D03*
Y58858D02*
D03*
Y60827D02*
D03*
D25*
X143012Y-5512D02*
Y-1575D01*
Y-5512D02*
X143327Y-5827D01*
Y-12598D02*
Y-5827D01*
X122461Y37874D02*
Y39370D01*
Y37874D02*
X127559Y32776D01*
X131102D01*
X126378Y72933D02*
X129921D01*
X126378D02*
Y76791D01*
X122067Y81102D02*
X126378Y76791D01*
X78740Y-29528D02*
X85335D01*
X29528D02*
X36122D01*
X-29528D02*
X-22933D01*
X-78740D02*
X-72146D01*
X94193Y18996D02*
X98425D01*
X93799Y58366D02*
X98425D01*
X-94882Y30315D02*
X-94095D01*
X-96752Y32185D02*
X-94882Y30315D01*
X-98425Y32185D02*
X-96752D01*
X-98425Y73524D02*
X-94587D01*
X-83661Y-74803D02*
X-78740D01*
X-40354D02*
X-35433D01*
X2953D02*
X7874D01*
X46260D02*
X51181D01*
X89567D02*
X94488D01*
X102362Y-101378D02*
Y-95276D01*
X59055Y-101378D02*
Y-95276D01*
X15748Y-101378D02*
Y-95276D01*
X-27559Y-101378D02*
Y-95669D01*
X-70866Y-101378D02*
Y-95276D01*
X-136221Y60827D02*
X-132874D01*
X-136221Y50984D02*
X-132087D01*
X-136221Y31299D02*
X-131299D01*
X-130315Y30315D01*
X-141240Y37205D02*
X-136221D01*
X-142323Y36122D02*
X-141240Y37205D01*
X-139173Y35236D02*
X-136221D01*
X-142323Y32087D02*
X-139173Y35236D01*
X-142323Y31988D02*
Y32087D01*
X-146260Y31988D02*
X-142323D01*
Y28248D02*
Y31988D01*
X-146260Y28150D02*
Y31988D01*
X-136221Y39173D02*
X-132874D01*
X-131890Y38189D01*
X-136221Y35236D02*
X-132874D01*
X-131890Y36220D01*
Y38189D01*
X-136221Y33268D02*
X-130905D01*
X-129921Y34252D01*
X-129528D01*
X-141043Y41142D02*
X-136221D01*
X-142323Y39862D02*
X-141043Y41142D01*
X-146260Y36122D02*
Y40059D01*
X-136221Y41142D02*
X-130905D01*
X-129528Y39764D01*
X-132087Y50984D02*
X-131693D01*
X-129528Y48819D01*
X22441Y114961D02*
X25000Y112402D01*
Y110039D02*
Y112402D01*
X-136221Y25394D02*
X-122244D01*
X-136221Y27362D02*
X-124213D01*
X-110039Y35236D02*
X-106299D01*
X-112008Y27362D02*
X-106299D01*
X-112598Y26772D02*
X-112008Y27362D01*
X-116929Y26772D02*
X-112598D01*
X-113386Y29921D02*
X-112795Y29331D01*
X-106299D01*
X-113583Y19488D02*
X-106299D01*
X-115748Y21654D02*
X-113583Y19488D01*
X-115945Y17520D02*
X-106299D01*
X-136221Y43110D02*
X-131693D01*
X-129921Y44882D01*
X-106299Y15551D02*
X-102559D01*
X-106299Y31299D02*
X-103347D01*
X-15000Y-20039D02*
Y-6654D01*
X15000Y-20039D02*
Y-16575D01*
X31024Y-24016D02*
X35000Y-20039D01*
X39055Y-25984D02*
X45000Y-20039D01*
X-91929Y49016D02*
X-91732Y48819D01*
Y48425D02*
Y48819D01*
X-102559Y15551D02*
X-87008Y0D01*
X-47244Y-3937D02*
X-35000Y-16181D01*
Y-20039D02*
Y-16181D01*
X-53150Y-7874D02*
X-45000Y-16024D01*
Y-20039D02*
Y-16024D01*
X-59055Y-11811D02*
X-55000Y-15866D01*
Y-20039D02*
Y-15866D01*
X-87008Y0D02*
X-41339D01*
X-25000Y-16339D01*
Y-20039D02*
Y-16339D01*
X-94488Y-11811D02*
X-59055D01*
X-94488Y-7874D02*
X-53150D01*
X-94488Y-3937D02*
X-47244D01*
X-112205Y13780D02*
X-94488Y-3937D01*
X-114173Y7874D02*
X-94488Y-11811D01*
X-122047Y7874D02*
X-114173D01*
X-118110Y13780D02*
X-112205D01*
X-125984Y11811D02*
X-122047Y7874D01*
X-125984Y11811D02*
Y17717D01*
X-120079Y15748D02*
X-118110Y13780D01*
X-120079Y15748D02*
Y21260D01*
X-123228Y13780D02*
Y19291D01*
Y13780D02*
X-120079Y10630D01*
X-112992D01*
X-94488Y-7874D01*
X-132874Y60827D02*
X-131890Y61811D01*
Y75591D01*
X-132087Y50984D02*
X-129921Y53150D01*
Y74016D01*
X-124213Y27362D02*
X-122047Y29528D01*
Y70473D01*
X-122244Y25394D02*
X-120079Y27559D01*
Y68898D01*
X-112205Y37402D02*
X-110039Y35236D01*
X-112205Y37402D02*
Y71260D01*
X-116142Y36614D02*
Y70079D01*
Y36614D02*
X-112795Y33268D01*
X-106299D01*
X-122047Y70473D02*
X-96063Y96457D01*
X-120079Y68898D02*
X-96457Y92520D01*
X-116142Y70079D02*
X-97638Y88583D01*
X-112205Y71260D02*
X-98819Y84646D01*
X-102756Y77953D02*
X-100000Y80709D01*
X-99213Y77953D02*
X-95669D01*
X-94488Y76772D01*
X-66929Y104331D02*
X-65000Y106260D01*
Y110039D01*
X-96063Y100394D02*
X-61024D01*
X-55000Y106417D01*
Y110039D01*
X-96063Y96457D02*
X-55118D01*
X-45000Y106575D01*
Y110039D01*
X-96457Y92520D02*
X-49213D01*
X-35000Y106732D01*
Y110039D01*
X-97638Y88583D02*
X37402D01*
X55000Y106181D01*
Y110039D01*
X-98819Y84646D02*
X43307D01*
X65000Y106339D01*
Y110039D01*
X-100000Y80709D02*
X49213D01*
X75000Y106496D01*
Y110039D01*
X-94488Y76772D02*
X55118D01*
X85000Y106653D01*
Y110039D01*
X-45276Y23622D02*
X-15000Y-6654D01*
X-47244Y19685D02*
X-18898Y-8661D01*
X-99606Y27559D02*
X-42520D01*
X-89370Y15748D02*
X-48819D01*
X-89764Y19685D02*
X-47244D01*
X-90158Y23622D02*
X-45276D01*
X-83858Y39370D02*
X-82677Y38189D01*
X-74410D01*
X-73228Y39370D01*
X-72835Y55118D02*
X-64961Y47244D01*
X-70866Y59055D02*
X-62992Y51181D01*
X-68898Y62992D02*
X-61024Y55118D01*
X-66929Y66929D02*
X-59055Y59055D01*
X-95177Y45669D02*
X-88189D01*
X-88779Y50984D02*
X-84646Y55118D01*
X-72835D01*
X-106299Y52953D02*
X-92716D01*
X-86614Y59055D01*
X-70866D01*
X-88583Y62992D02*
X-68898D01*
X-90551Y66929D02*
X-66929D01*
X-94882Y62598D02*
X-90551Y66929D01*
X-129921Y74016D02*
X-95000Y108937D01*
Y110039D01*
X-96063Y114961D02*
X22441D01*
X-131890Y75591D02*
X-99213Y108268D01*
Y111811D01*
X-96063Y114961D01*
X-18898Y-22441D02*
Y-8661D01*
Y-22441D02*
X-15748Y-25591D01*
Y-29528D02*
X0D01*
X5000Y-24528D01*
Y-20039D01*
X-15748Y-25591D02*
X-5906D01*
X-5000Y-24685D01*
Y-20039D01*
X-42520Y27559D02*
X-1181Y-13780D01*
X12205D01*
X15000Y-16575D01*
X-73228Y39370D02*
X-23622D01*
X25000Y-9252D01*
Y-20039D02*
Y-9252D01*
X-66929Y43307D02*
X-3937D01*
X55000Y-15630D01*
Y-20039D02*
Y-15630D01*
X-64961Y47244D02*
X-1969D01*
X58268Y-12992D01*
X94882D01*
X-62992Y51181D02*
X0D01*
X52756Y-1575D01*
X84646D01*
X-61024Y55118D02*
X1969D01*
X52362Y4724D01*
X74803D01*
X-59055Y59055D02*
X3937D01*
X51575Y11417D01*
X64961D01*
X-98425Y60335D02*
Y64567D01*
X-87795Y37008D02*
X-85827Y35039D01*
X-25591D01*
X-86221Y31496D02*
X-27559D01*
X-95669Y35039D02*
X-89764D01*
X-86221Y31496D01*
X-98425Y18996D02*
X-88878Y9449D01*
X-50787D01*
X-98425Y64567D02*
X-92520Y70472D01*
X-69685D01*
X109055Y-32283D02*
X117717D01*
X107087Y-34252D02*
X117323D01*
X104331Y-31496D02*
X107087Y-34252D01*
X84646Y20079D02*
Y25984D01*
X77165Y18110D02*
Y33858D01*
X79921Y36614D01*
X83071D01*
X87500Y32185D01*
X98425D01*
X71653Y20079D02*
Y53150D01*
X90059Y71555D02*
X98425D01*
X72146Y-34350D02*
Y-29528D01*
X22933Y-37106D02*
Y-29528D01*
X-36122Y-37500D02*
Y-29528D01*
X-85335Y-38681D02*
Y-29528D01*
X111811Y-47736D02*
X116127D01*
X109350D02*
X111811D01*
X107480Y-49606D02*
X109350Y-47736D01*
X111811Y-72539D02*
X116127D01*
X106398D02*
X111811D01*
X106299Y-72441D02*
X106398Y-72539D01*
X129232Y-55118D02*
Y-51181D01*
X111811Y-68405D02*
X111909Y-68504D01*
X125591Y-71752D02*
X125886Y-72047D01*
X125591Y-71752D02*
Y-68504D01*
X130020Y-75984D02*
Y-72047D01*
X117067Y81102D02*
Y87539D01*
X117323Y87795D01*
Y39508D02*
Y46063D01*
X134252Y-5118D02*
Y-2756D01*
Y-5118D02*
X138327Y-9193D01*
Y-12598D02*
Y-9193D01*
X113779Y-53543D02*
X115354D01*
X117717Y-51181D01*
X70866Y-83661D02*
Y-74803D01*
X27559Y-83661D02*
Y-76772D01*
X-60630Y-76378D02*
X-59055Y-77953D01*
Y-83661D02*
Y-77953D01*
X-81890Y-94882D02*
X-75197Y-88189D01*
X-55905D01*
X-53937Y-86221D01*
Y-56299D01*
X-45276Y-47638D01*
X77559D01*
X83661Y-53740D01*
Y-74803D02*
Y-53740D01*
X-74016Y-91732D02*
X-53543D01*
X-50787Y-88976D01*
Y-58268D01*
X-43307Y-50787D01*
X35039D01*
X40354Y-56102D01*
Y-74803D02*
Y-56102D01*
X-46457Y-80315D02*
Y-75000D01*
X-46260Y-74803D01*
X-85433Y-65748D02*
X-64173D01*
X-89567Y-69882D02*
X-85433Y-65748D01*
X-89567Y-74803D02*
Y-69882D01*
X-104331Y-108268D02*
X-99606D01*
X-107874Y-104724D02*
X-104331Y-108268D01*
X-107874Y-104724D02*
Y-89173D01*
X-102362Y-83661D01*
X143012Y-1575D02*
X146850D01*
X131102Y32776D02*
X135335D01*
X71653Y53150D02*
X83071Y64567D01*
X90059Y71555D01*
X-88189Y45669D02*
X-81890Y51968D01*
X-75590D01*
X-66929Y43307D01*
X-126772Y57480D02*
X-124409Y59842D01*
Y72047D01*
X-96063Y100394D01*
X-127165Y62205D02*
Y73228D01*
X-96063Y104331D01*
X-66929D01*
X-146260Y40059D02*
X-143209Y43110D01*
X-136221D01*
X-64961Y-95669D02*
X-49606D01*
X-28740Y-74803D01*
X-2953D01*
X-15748Y-83661D02*
Y-77953D01*
X105118Y-56299D02*
X117717D01*
X72146Y-34350D02*
X74409Y-36614D01*
X85433D01*
X105118Y-56299D01*
X22933Y-37106D02*
X24803Y-38976D01*
X-36122Y-37500D02*
X-32283Y-41339D01*
X-85335Y-38681D02*
X-80315Y-43701D01*
X24803Y-38976D02*
X84646D01*
X103937Y-58268D01*
X116535D01*
X-32283Y-41339D02*
X83858D01*
X102756Y-60236D01*
X116142D01*
X-80315Y-43701D02*
X83071D01*
X101575Y-62205D01*
X115748D01*
X103543Y-38583D02*
X115074D01*
X105512Y-36614D02*
X116929D01*
X99606Y-34646D02*
X103543Y-38583D01*
X99606Y-34646D02*
Y-7874D01*
X71653Y20079D02*
X99606Y-7874D01*
X101969Y-33071D02*
X105512Y-36614D01*
X101969Y-33071D02*
Y-6693D01*
X77165Y18110D02*
X101969Y-6693D01*
X106693Y-29921D02*
X109055Y-32283D01*
X106693Y-29921D02*
Y-1969D01*
X84646Y20079D02*
X106693Y-1969D01*
X81102Y18898D02*
Y32283D01*
Y18898D02*
X104331Y-4331D01*
Y-31496D02*
Y-4331D01*
X-20866Y-24409D02*
X-15748Y-29528D01*
X-20866Y-24409D02*
Y-12205D01*
X-48819Y15748D02*
X-20866Y-12205D01*
X-25591Y35039D02*
X20866Y-11417D01*
X-27559Y31496D02*
X18898Y-14961D01*
Y-23622D02*
Y-14961D01*
Y-23622D02*
X21260Y-25984D01*
X39055D01*
X20866Y-21654D02*
Y-11417D01*
Y-21654D02*
X23228Y-24016D01*
X31024D01*
D26*
X120866Y-30217D02*
X124508Y-33858D01*
X128327D01*
X133327D01*
X127146Y-11417D02*
X128327Y-12598D01*
X116929Y-11417D02*
X127146D01*
X110236D02*
X116929D01*
X113779Y11122D02*
X130709D01*
X110925D02*
X113779D01*
X112461Y12441D02*
X113779Y11122D01*
X112461Y12441D02*
Y18110D01*
X107461Y14587D02*
X110925Y11122D01*
X107461Y14587D02*
Y18110D01*
Y39370D02*
Y42539D01*
X106693Y43307D02*
X107461Y42539D01*
X103543Y43307D02*
X106693D01*
X112067Y50551D02*
Y59842D01*
X107067Y52776D02*
Y59842D01*
Y52776D02*
X109449Y50394D01*
X111909D01*
X122067Y50512D02*
Y59842D01*
X107067Y81102D02*
Y91752D01*
X106693Y92126D02*
Y96063D01*
D27*
X143327Y-33858D02*
Y-30728D01*
X135827Y-23228D02*
X143327Y-30728D01*
X127657Y18110D02*
X130709Y21161D01*
X122461Y18110D02*
X127657D01*
X111811Y-43602D02*
X119193D01*
X119291Y-43701D02*
X125197D01*
X111909Y-68504D02*
X119291D01*
X125591D01*
D28*
X-136221Y23425D02*
X-122244D01*
X-136221Y17520D02*
X-130118D01*
X-129134Y16535D01*
X-132677Y12205D02*
Y14764D01*
X-136221Y15551D02*
X-133465D01*
X-136221Y19488D02*
X-127756D01*
X-125984Y17717D01*
X-136221Y21457D02*
X-125394D01*
X-122244Y23425D02*
X-120079Y21260D01*
X-125394Y21457D02*
X-123228Y19291D01*
X-133465Y15551D02*
X-132677Y14764D01*
D29*
X-106299Y60827D02*
X-102756Y64370D01*
Y77953D01*
X-106299Y58858D02*
X-102165D01*
X-101181Y59842D01*
X-106299Y45079D02*
X-98622D01*
X-106299Y43110D02*
X-100591D01*
X-100000Y42520D01*
X-94882D01*
X-139567Y29331D02*
X-136221D01*
X-140157Y28740D02*
X-139567Y29331D01*
X-140157Y26280D02*
Y28740D01*
X-142323Y24114D02*
X-140157Y26280D01*
X-106299Y21457D02*
X-101378D01*
X-100000Y22835D01*
X-106299Y23425D02*
X-101772D01*
X-106299Y41142D02*
X-97441D01*
X-106299Y39173D02*
X-97835D01*
X-106299Y37205D02*
X-97835D01*
X-106299Y47047D02*
X-100984D01*
X-100394Y47638D01*
X-97146D01*
X-106299Y49016D02*
X-91929D01*
X-101969Y56890D02*
X-101378Y56299D01*
X-106299Y56890D02*
X-101969D01*
X-101772Y23425D02*
X-100787Y24409D01*
X-97146Y47638D02*
X-95177Y45669D01*
X-101181Y59842D02*
Y75984D01*
X-99213Y77953D01*
X-106299Y25394D02*
X-102559D01*
X-101969Y25984D01*
X-103347Y31299D02*
X-99606Y27559D01*
X-100000Y22835D02*
X-96457D01*
X-89370Y15748D01*
X-100787Y24409D02*
X-94488D01*
X-89764Y19685D01*
X-101969Y25984D02*
X-92520D01*
X-90158Y23622D01*
X-97441Y41142D02*
X-95669Y39370D01*
X-83858D01*
X-106299Y50984D02*
X-88779D01*
X-101378Y56299D02*
X-97244D01*
X-106299Y54921D02*
X-96653D01*
X-88583Y62992D01*
X-97244Y56299D02*
X-94882Y58661D01*
Y62598D01*
X-97835Y39173D02*
X-95669Y37008D01*
X-87795D01*
X-97835Y37205D02*
X-95669Y35039D01*
X117717Y-32283D02*
X120866Y-35433D01*
Y-39651D02*
Y-35433D01*
X117323Y-34252D02*
X119291Y-36220D01*
Y-39651D02*
Y-36220D01*
X117717Y-39651D02*
Y-37402D01*
X120866Y-64454D02*
Y-59449D01*
X119291Y-64454D02*
Y-61024D01*
X117717Y-64454D02*
Y-61811D01*
X116142Y-64454D02*
Y-62598D01*
X115748Y-62205D02*
X116142Y-62598D01*
X121653Y-51181D02*
X125098D01*
X120866Y-50394D02*
X121653Y-51181D01*
X120866Y-50394D02*
Y-47751D01*
Y-45276D01*
X121260Y-55118D02*
X125098D01*
X119291Y-53150D02*
X121260Y-55118D01*
X119291Y-53150D02*
Y-47751D01*
X120472Y-75984D02*
X125886D01*
X119291Y-74803D02*
X120472Y-75984D01*
X119291Y-74803D02*
Y-72554D01*
X120866D02*
Y-70079D01*
X117717Y-51181D02*
Y-47751D01*
X117717Y-56299D02*
X120866Y-59449D01*
X116535Y-58268D02*
X119291Y-61024D01*
X116142Y-60236D02*
X117717Y-61811D01*
X115074Y-38583D02*
X116142Y-39651D01*
X116929Y-36614D02*
X117717Y-37402D01*
D30*
X35384Y131890D02*
D03*
X3888D02*
D03*
X-27608D02*
D03*
D31*
X25285Y131890D02*
D03*
X-6211D02*
D03*
X-37707D02*
D03*
D32*
X-73622Y122835D02*
D03*
X50394Y-130315D02*
D03*
D33*
X-95000Y110039D02*
D03*
X-85000D02*
D03*
X-75000D02*
D03*
X-65000D02*
D03*
X-55000D02*
D03*
X-45000D02*
D03*
X-35000D02*
D03*
X-25000D02*
D03*
X-15000D02*
D03*
X-5000D02*
D03*
X5000D02*
D03*
X15000D02*
D03*
X25000D02*
D03*
X35000D02*
D03*
X45000D02*
D03*
X55000D02*
D03*
X65000D02*
D03*
X75000D02*
D03*
X85000D02*
D03*
X95000D02*
D03*
Y-20039D02*
D03*
X85000D02*
D03*
X75000D02*
D03*
X65000D02*
D03*
X55000D02*
D03*
X45000D02*
D03*
X35000D02*
D03*
X25000D02*
D03*
X15000D02*
D03*
X5000D02*
D03*
X-5000D02*
D03*
X-15000D02*
D03*
X-25000D02*
D03*
X-35000D02*
D03*
X-45000D02*
D03*
X-55000D02*
D03*
X-65000D02*
D03*
X-75000D02*
D03*
X-85000D02*
D03*
D34*
X-95000D02*
D03*
D35*
X-78740Y45000D02*
D03*
X78740D02*
D03*
D36*
X138976Y3937D02*
D03*
X126378Y-23622D02*
D03*
X113386Y-24016D02*
D03*
X142913Y-40551D02*
D03*
X145669Y-20472D02*
D03*
Y-26378D02*
D03*
X116929Y-11417D02*
D03*
X110236D02*
D03*
X138189Y16929D02*
D03*
Y24803D02*
D03*
X128740Y62992D02*
D03*
X124803Y24803D02*
D03*
X105118Y24409D02*
D03*
Y32677D02*
D03*
X103543Y43307D02*
D03*
X99606D02*
D03*
X104331Y74016D02*
D03*
Y66535D02*
D03*
X134252Y62992D02*
D03*
X106693Y92126D02*
D03*
Y96063D02*
D03*
X43307Y127165D02*
D03*
Y131496D02*
D03*
X33465Y143701D02*
D03*
X43701D02*
D03*
X38583D02*
D03*
X11811Y127165D02*
D03*
Y131496D02*
D03*
X1969Y143701D02*
D03*
X12205D02*
D03*
X7087D02*
D03*
X-24409D02*
D03*
X-19291D02*
D03*
X-29528D02*
D03*
X-19685Y131496D02*
D03*
Y127165D02*
D03*
Y120079D02*
D03*
X-29528D02*
D03*
X-39370D02*
D03*
X-49213D02*
D03*
X-108268Y-53150D02*
D03*
X-112205D02*
D03*
X-116142D02*
D03*
X-120079D02*
D03*
X18504Y137795D02*
D03*
Y133858D02*
D03*
Y129921D02*
D03*
X-12992Y137795D02*
D03*
Y133858D02*
D03*
Y129921D02*
D03*
X-44488D02*
D03*
Y133858D02*
D03*
Y137795D02*
D03*
X78740Y-29528D02*
D03*
X29528D02*
D03*
X-29528D02*
D03*
X-78740D02*
D03*
X94193Y18996D02*
D03*
X93799Y58366D02*
D03*
X-94095Y30315D02*
D03*
X-94587Y73524D02*
D03*
X-78740Y-74803D02*
D03*
X-35433D02*
D03*
X7874D02*
D03*
X51181D02*
D03*
X94488D02*
D03*
X102362Y-95276D02*
D03*
X59055D02*
D03*
X15748D02*
D03*
X-27559Y-95669D02*
D03*
X-70866Y-95276D02*
D03*
X-129134Y16535D02*
D03*
X-130315Y30315D02*
D03*
X-146260Y28150D02*
D03*
X-129528Y34252D02*
D03*
Y39764D02*
D03*
Y48819D02*
D03*
X-127165Y62205D02*
D03*
X-126772Y57480D02*
D03*
X-116929Y26772D02*
D03*
X-113386Y29921D02*
D03*
X-115748Y21654D02*
D03*
X-115945Y17520D02*
D03*
X-98622Y45079D02*
D03*
X-94882Y42520D02*
D03*
X-129921Y44882D02*
D03*
X-132677Y12205D02*
D03*
X-91732Y48425D02*
D03*
X64961Y11417D02*
D03*
X74803Y4724D02*
D03*
X84646Y-1575D02*
D03*
X94882Y-12992D02*
D03*
X-37795Y27953D02*
D03*
X-100394Y-53150D02*
D03*
X-101181Y-64991D02*
D03*
X-50787Y9449D02*
D03*
X-69685Y70472D02*
D03*
X84646Y25984D02*
D03*
X81102Y32283D02*
D03*
X107480Y-49606D02*
D03*
X106299Y-72441D02*
D03*
X125197Y-43701D02*
D03*
X125591Y-68504D02*
D03*
X117323Y87795D02*
D03*
Y46063D02*
D03*
X134252Y-2756D02*
D03*
X113779Y-53543D02*
D03*
X70866Y-74803D02*
D03*
X27559Y-76772D02*
D03*
X-60630Y-76378D02*
D03*
X-81890Y-94882D02*
D03*
X-74016Y-91732D02*
D03*
X-64961Y-95669D02*
D03*
X-46457Y-80315D02*
D03*
X-64173Y-65748D02*
D03*
X-43307Y-118110D02*
D03*
Y-114173D02*
D03*
Y-110236D02*
D03*
Y-106299D02*
D03*
X-99606Y-108268D02*
D03*
X146850Y-1575D02*
D03*
X135335Y32776D02*
D03*
X126378Y76791D02*
D03*
X83071Y64567D02*
D03*
X-15748Y-77953D02*
D03*
X135827Y51181D02*
D03*
X62992Y61024D02*
D03*
X51181Y33071D02*
D03*
X21654Y59842D02*
D03*
X-4331Y30315D02*
D03*
X29528Y-3543D02*
D03*
X-128347Y-12205D02*
D03*
X-99606Y-28740D02*
D03*
X-94095Y-39764D02*
D03*
X-50394Y-33858D02*
D03*
X0Y-64173D02*
D03*
X33071Y-123228D02*
D03*
X62205Y-118898D02*
D03*
X-19291Y-132677D02*
D03*
X-146063Y4724D02*
D03*
X-67716Y129528D02*
D03*
X74803Y122441D02*
D03*
X11417Y98425D02*
D03*
X50394Y86614D02*
D03*
X90945Y87795D02*
D03*
X146063Y17323D02*
D03*
X86614Y-95669D02*
D03*
X-33858Y-58661D02*
D03*
X-22441Y18504D02*
D03*
X-59842Y4724D02*
D03*
M02*
