M48
;Layer_Color=6321
;FILE_FORMAT=2:4
INCH,TZ
;TYPE=PLATED
T1F00S00C0.0118
T2F00S00C0.0157
T3F00S00C0.0315
;TYPE=NON_PLATED
T5F00S00C0.0984
T6F00S00C0.1260
%
T01
X12992Y-2638
X13268Y-2638
X13543Y-2638
X13819
X14094
Y-2323
X13819
X13543
X13268
X12992
Y-2008
X13268
X13543
X13819
X14094
X12047Y2559
X11772
X11496
X11220Y2559
X10945Y2559
Y2874
X11220
X11496
X11772
X12047
Y3189
X11772
X11496
X11220
X10945
X236Y12283
X-197
X-200Y12886
X0Y12786
X200Y12886
Y13186
X0Y13086
Y13386
Y13686
X200Y13586
Y13886
X0Y13986
X-200Y13886
Y13586
Y13186
X-984Y13189
Y12795
Y12402
Y13583
Y13976
Y14370
X-591
X-197
X197
X-2165
X-2559
X-2953
X-3346
X-3740
X-4134
Y13976
Y13583
Y13189
Y12795
Y12402
X-3346Y12283
X-2913
X-2559
X-2165
Y12598
Y12992
Y13780
X-2950Y13886
X-3150Y13986
X-3350Y13886
Y13586
X-3150Y13686
X-2950Y13586
Y13186
X-3150Y13086
X-3350Y13186
Y12886
X-3150Y12786
X-2950Y12886
X-3150Y13386
X984Y12992
Y12598
Y12283
X591
X2165Y12402
Y12795
Y13189
Y13583
Y13976
Y14370
X2559
X2953
X3346
X3740
X4134
X4094Y13780
X4134Y12992
Y12598
Y12283
X3740
X3386
X2953
X2950Y12886
Y13186
X3150Y13086
X3350Y13186
Y12886
X3150Y12786
Y13386
Y13686
Y13986
X2950Y13886
Y13586
X3350
Y13886
X984Y13780
Y14370
X591
X10906Y7362
X11181
X11457
X11732
X12008
Y7047
X11732
X11457
X11181
X10906
Y6732
X11181Y6732
X11457Y6732
X11732
X12008
T02
X-7323Y-12598
X-7598Y-12323
X-7008Y-12874
X-6693Y-13110
X-5748Y-12283
X-6024Y-12008
X-6299Y-11732
X-6575Y-11457
X-1929Y-13268
X2520
X6220Y-11890
X5906Y-9528
X8661Y-9567
X10236Y-9528
X10553Y-7167
X9449Y-7480
X7087
X5118
X2756Y-7677
X787Y-7480
X1575Y-9528
X2953Y-2953
Y-354
X6496Y1142
X7480Y472
X8465Y-157
X9488Y-1299
X11024Y-1142
X11693
X11299Y-1772
Y-2362
X10551Y-4488
X10157Y-4803
X12520Y-4370
X14291Y-4055
X14685Y-157
X13898Y630
X13425Y236
X13819Y1693
Y2480
X13533Y3278
X11654Y4488
X10354Y4331
X9961
X8110Y3228
X8465Y2598
X9419Y1900
X5118Y3307
X7874Y-2953
X12559Y-6850
X-1575Y-7756
X-3543Y-7480
X-2835Y-6220
X-2953Y-2953
X-5039Y-3386
X-7874Y-2953
X-9961Y-2874
X-9409Y-3976
X-10039Y-5315
X-11220
X-11614
X-12008
X-13189Y-5787
X-13740Y-5669
X-10709Y-5866
X-10118Y-6499
X-7874Y-7480
X-6850Y-7717
X-6969Y-7047
X-7087Y-9528
X-6496Y-9567
X-7677Y-9803
X-8031Y-9409
X-9961Y-10827
X-5236Y-8346
X-2756Y-9567
X-2244Y1850
X-3780Y2795
X-5079Y945
X-5984Y472
X-9409Y3031
X-9488Y4252
X-9862Y4508
X-11339Y2992
X-11693Y2677
X-11575Y2165
X-11594Y1752
X-12913Y1654
X-13268Y1220
X-13150Y591
X-13898Y1024
X-14606Y472
X-14626Y2815
X-13032Y3031
X-12953Y3425
Y3976
X-12992Y4488
X-12835Y-1220
X-433Y3031
X-1142Y9606
X-1654Y10079
X-1575Y12835
Y13268
X-2953Y11811
X-3937
X-4961Y11850
X-4528Y10118
X-6969Y7047
X-9459Y7352
X-9173Y4843
X-12953Y4882
X-12677Y5748
X-12717Y6220
X2165Y5984
X6299Y6102
X8307Y6457
X9380Y5837
X9094Y8780
X10669Y9213
Y9606
X11732Y8780
X12638Y7679
X13425Y6299
X12795Y5315
Y4921
X5039Y8661
X4724Y12677
Y13350
X1575Y13307
Y12677
X1142Y9843
T03
X1500Y-2004
X2500
X3500
X4500
X5500
X6500
X7500
X8500
X9500
X500
X-500
X-1500
X-2500
X-3500
X-4500
X-5500
X-6500
X-7500
X-8500
X-9500
Y11004
X-8500
X-7500
X-6500
X-5500
X-4500
X-3500
X-2500
X-1500
X-500
X500
X1500
X2500
X3500
X4500
X5500
X6500
X7500
X8500
X9500
T05
X7874Y4500
X-7874
T06
X0Y-11811
X11811Y0
X-11811
M30
