M48
;Layer_Color=6321
;FILE_FORMAT=2:4
INCH,TZ
;TYPE=PLATED
T1F00S00C0.0157
T2F00S00C0.0315
;TYPE=NON_PLATED
T4F00S00C0.0984
T5F00S00C0.1260
%
T01
X-4331Y-11811
Y-11417
X-1929Y-13268
X3307Y-12323
X6220Y-11890
X5906Y-9528
X8661Y-9567
X10236Y-9528
X10630Y-7244
X9449Y-7480
X7087
X5118
X2756Y-7677
X787Y-7480
X1575Y-9528
X2953Y-2953
Y-354
X6496Y1142
X7480Y472
X8465Y-157
X9488Y-1299
X11024Y-1142
X11693
X11339Y-2402
X12638Y-2362
X12520Y-4370
X14291Y-4055
X14567Y-2638
Y-2047
X14685Y-157
X13898Y394
X13425Y-276
X13819Y1693
Y2480
X13533Y3278
X12480Y2480
X10512Y2441
Y3268
X10354Y4331
X9961
X8110Y3228
X8465Y2598
X9419Y1900
X14606Y1732
X11378Y-5354
X10748Y-4961
X12559Y-6850
X7874Y-2953
X5118Y3307
X-433Y3031
X-2244Y1850
X-3780Y2795
X-5079Y945
X-5984Y472
X-5039Y-3386
X-2953Y-2953
X-3386Y-5866
X-3543Y-7480
X-4646Y-8031
X-6063Y-7638
X-6417Y-6575
X-7874Y-7480
X-7402Y-9173
X-7087Y-9528
X-6496Y-9567
X-8189Y-9488
X-9961Y-10827
X-10118Y-6499
X-10039Y-5315
X-10827
X-11220
X-11614
X-12008
X-9409Y-3976
X-9961Y-2874
X-7874Y-2953
X-12835Y-1220
X-13268Y1220
X-12913Y1654
X-11594Y1752
X-11575Y2165
X-11693Y2677
X-11339Y2992
X-13032Y3031
X-12953Y3425
Y3976
X-12992Y4488
X-9862Y4508
X-9488Y4252
X-9409Y3031
X-14626Y2815
X-14606Y472
X-1575Y-7795
X0Y-6417
X-2756Y-9567
X-4331Y-10630
Y-11024
X-6969Y7047
X-9459Y7352
X-9173Y4843
X-12953Y4882
X-12677Y5748
X-12717Y6220
X-6772Y12953
X-4449Y12992
Y13386
Y13780
X-2953Y14370
X-2441
X-1929
X-1299Y13780
Y13386
Y12992
X-1969Y13150
Y12717
Y12008
X-2953
X-3937
X-4921
X197Y14370
X709
X1220
X1850Y13780
Y13386
Y12992
X1181Y13150
Y12717
X1142Y9843
X2165Y5984
X6299Y6102
X8307Y6457
X9380Y5837
X10433Y6654
Y7402
X10669Y9213
Y9606
X11732Y8780
X12638Y7679
X12874Y6299
X13425
X13583Y5118
X11732Y4606
X9094Y8780
X5039Y8661
X4331Y12717
Y13150
X4370Y14370
X3858
X3346
X7480Y12244
T02
X1500Y-2004
X2500
X3500
X4500
X5500
X6500
X7500
X8500
X9500
X500
X-500
X-1500
X-2500
X-3500
X-4500
X-5500
X-6500
X-7500
X-8500
X-9500
Y11004
X-8500
X-7500
X-6500
X-5500
X-4500
X-3500
X-2500
X-1500
X-500
X500
X1500
X2500
X3500
X4500
X5500
X6500
X7500
X8500
X9500
T04
X7874Y4500
X-7874
T05
X0Y-11811
X11811Y0
X-11811
M30
