M48
;Layer_Color=6321
;FILE_FORMAT=2:4
INCH,TZ
;TYPE=PLATED
T1F00S00C0.0118
T2F00S00C0.0157
T4F00S00C0.0276
T5F00S00C0.0374
T6F00S00C0.0394
T8F00S00C0.0728
;TYPE=NON_PLATED
T9F00S00C0.0390
T10F00S00C0.1260
%
T01
X-8465Y197
X-8071Y0
Y591
X-7677Y984
X-7283Y1378
X-6693
X-6890Y984
X-6299Y394
X-5945Y591
X-5906Y0
X-6299Y-394
X-6693Y-787
X-7283
X-7087Y-1181
X-7677Y-394
T02
X-512Y-12362
Y-11929
X512
Y-12362
X-224Y-10618
X1693Y-10866
X2520Y-7677
X3819Y-7598
Y-5197
X3307Y-5118
X5157Y-4055
X5394Y-3425
X5906
X5669Y-2165
X6169Y-2177
X5945Y-709
X3712Y366
X3622Y1063
X4331Y1102
X2520Y-236
Y-2227
Y2897
X2165Y1457
X709Y166
X315Y134
X-276Y79
X-236Y984
X748Y-512
X630Y-1181
X-1378Y-1142
X-1929Y-472
X-2480Y394
X-3071Y1181
X-4000Y606
X-5236Y-630
X-4842Y-1024
X-4527Y-1339
X-4646Y-2756
X-4173
X-3622
Y-3543
X-4173
X-4685
X-4488Y-4961
X-4842Y-5748
X-4331Y-6299
X-3622Y-7165
X-3268Y-6929
X-1978Y-6722
X-2205Y-6339
X-2008Y-5905
X-2087Y-5354
Y-4961
X-1668Y-5251
X-669Y-5219
X-551Y-6339
X-1102Y-6024
X-1772Y-7126
X709Y-6260
X2353Y-6005
X2362Y-8386
X2244Y-2536
X1496Y-3228
X158Y-3307
X-394Y-3031
X-1119Y-2402
X-2126Y-1929
X-2480Y-2283
X-3543Y-1968
X-3150Y-1575
X-2953Y-3740
X-2362Y-4134
X-1535Y-3543
X433Y-4134
X0Y3465
X-905Y2795
X-1575Y2953
X-3148Y2756
X-4094Y3976
X-6653Y1969
X-7087
X-9655Y1978
X-9560Y2867
X-10276Y3543
X-11535Y4134
X-11378Y2638
X-12913Y4685
X-8898Y1063
X-8110Y-3425
X-7874Y-3740
X-7559Y-4055
X-5905Y-1772
X-4606Y-9291
X-4331Y-9567
X-4055Y-9842
X-3740Y-10118
X-472Y5000
X-14094Y4843
X-13464Y3504
X-13622Y2638
X-14646Y2795
X-13484Y1083
Y-1083
X-13740Y-2165
X-14094Y5236
X-12756Y5433
Y6142
X-10984
Y5433
X-9882Y7913
X-9882Y9409
X-1693Y6969
X-3071Y5433
X1732Y7874
X1378Y9528
X827Y10315
X3701Y10512
X2756Y8898
T04
X7987Y-1764
X8628Y-1307
X-4250Y11406
Y12194
T05
X7787Y1193
X8606Y1766
X9426Y2340
X10245Y2913
X11064Y3487
X11883Y4061
X12702Y4634
X13521Y5208
X9449Y11024
X8630Y10450
X7811Y9877
X6991Y9303
X6172Y8729
X5353Y8156
X4534Y7582
X3715Y7009
T06
X6088Y-9828
X8056
Y-4119
X7072
X6088
X-12964Y-3898
X-8056Y4316
X-6088
X-13964Y-3898
X-8056Y10025
X-7072
X-6088
T08
X0Y-13879
Y-7579
Y7480
Y13779
T09
X4669Y-3235
Y-2435
X6669Y-2835
T10
X11811Y0
X-11811
M30
