M48
;Layer_Color=6321
;FILE_FORMAT=2:4
INCH,TZ
;TYPE=PLATED
T1F00S00C0.0157
T3F00S00C0.0276
T4F00S00C0.0374
T5F00S00C0.0394
T7F00S00C0.0728
;TYPE=NON_PLATED
T8F00S00C0.0390
T9F00S00C0.1260
%
T01
X-512Y-12362
Y-11929
X512
Y-12362
X-224Y-10618
X1693Y-10866
X2520Y-7677
X3819Y-7598
Y-5197
X3307Y-5118
X2520Y-2227
Y-236
X2913Y118
X5500Y-2059
X2244Y-2536
X1496Y-3228
X157Y-3307
X-394Y-3031
X-1119Y-2402
X-2480Y-2283
X-2126Y-1929
X-3150Y-1575
X-4528Y-1339
X-4843Y-1024
X-5906Y-1772
X-4646Y-2756
X-4173
X-3622
Y-3543
X-4173
X-4685
X-4488Y-4961
X-4843Y-5748
X-4331Y-6299
X-3622Y-7165
X-3268Y-6929
X-1978Y-6722
X-1772Y-7126
X-2205Y-6339
X-2008Y-5906
X-1772Y-5236
X-2087Y-4961
X-1654Y-4213
X-1535Y-3543
X-2953Y-3740
X-669Y-5220
X-906Y-6693
X748Y-6732
X2353Y-6005
X2362Y-8386
X433Y-4134
X630Y-1181
X748Y-512
X709Y166
X315Y134
X-276Y79
X-236Y984
X-906Y2795
X-1575Y2953
X-3148Y2756
X-4291
X-4094Y3976
X-2913Y591
X-2480Y-394
X-1929Y-472
X-1378Y-1142
X0Y3465
X-472Y5000
X2165Y1457
X-6693Y945
X-6417Y669
X-8307Y1339
X-9656Y1978
X-9560Y2867
X-10276Y3543
X-11535Y4134
X-11378Y2638
X-12913Y4685
X-7913Y-3740
X-7598Y-4016
X-4606Y-9291
X-4331Y-9567
X-4055Y-9843
X-3740Y-10118
X-13740Y-2165
X-13484Y-1083
Y1083
X-13622Y2638
X-13465Y3504
X-14646Y2795
X-14094Y4843
Y5236
X-12756Y5433
Y6142
X-10984
Y5433
X-9882Y7913
X-9724Y10512
X827Y10315
X1732Y9331
Y7874
X-1693Y6969
X-3071Y5433
X2756Y8898
T03
X7987Y-1764
X8628Y-1307
X-4250Y11406
Y12194
T04
X7795Y1219
X8609Y1800
X9423Y2381
X10237Y2961
X11051Y3542
X11865Y4123
X12679Y4703
X13494Y5284
X9371Y11064
X8556Y10484
X7742Y9903
X6928Y9322
X6114Y8741
X5300Y8161
X4486Y7580
X3672Y6999
T05
X6088Y-9828
X8056
Y-4119
X7072
X6088
X-12965Y-3898
X-8056Y4316
X-6088
X-13965Y-3898
X-8056Y10025
X-7072
X-6088
T07
X0Y-14272
Y-7973
Y7873
Y14172
T08
X4000Y-1378
X6000Y-1778
Y-978
T09
X11811Y0
X-11811
M30
